<svg width="52" height="16" viewBox="0 0 52 16" fill="none" xmlns="http://www.w3.org/2000/svg">
<g filter="url(#filter0_d_13586_510)">
<path d="M9.836 11.5H8.012L2.524 3.196V11.5H0.7V0.363999H2.524L8.012 8.652V0.363999H9.836V11.5ZM11.6233 7.052C11.6233 6.16667 11.8046 5.38267 12.1673 4.7C12.5406 4.01733 13.0419 3.48933 13.6713 3.116C14.3113 2.732 15.0153 2.54 15.7833 2.54C16.4766 2.54 17.0793 2.67867 17.5913 2.956C18.1139 3.22267 18.5299 3.55867 18.8393 3.964V2.684H20.6793V11.5H18.8393V10.188C18.5299 10.604 18.1086 10.9507 17.5753 11.228C17.0419 11.5053 16.4339 11.644 15.7513 11.644C14.9939 11.644 14.3006 11.452 13.6713 11.068C13.0419 10.6733 12.5406 10.1293 12.1673 9.436C11.8046 8.732 11.6233 7.93733 11.6233 7.052ZM18.8393 7.084C18.8393 6.476 18.7113 5.948 18.4553 5.5C18.2099 5.052 17.8846 4.71067 17.4793 4.476C17.0739 4.24133 16.6366 4.124 16.1673 4.124C15.6979 4.124 15.2606 4.24133 14.8553 4.476C14.4499 4.7 14.1193 5.036 13.8633 5.484C13.6179 5.92133 13.4953 6.444 13.4953 7.052C13.4953 7.66 13.6179 8.19333 13.8633 8.652C14.1193 9.11067 14.4499 9.46267 14.8553 9.708C15.2713 9.94267 15.7086 10.06 16.1673 10.06C16.6366 10.06 17.0739 9.94267 17.4793 9.708C17.8846 9.47333 18.2099 9.132 18.4553 8.684C18.7113 8.22533 18.8393 7.692 18.8393 7.084ZM27.523 2.54C28.2163 2.54 28.835 2.684 29.379 2.972C29.9337 3.26 30.3657 3.68667 30.675 4.252C30.9843 4.81733 31.139 5.5 31.139 6.3V11.5H29.331V6.572C29.331 5.78267 29.1337 5.18 28.739 4.764C28.3443 4.33733 27.8057 4.124 27.123 4.124C26.4403 4.124 25.8963 4.33733 25.491 4.764C25.0963 5.18 24.899 5.78267 24.899 6.572V11.5H23.075V2.684H24.899V3.692C25.1977 3.32933 25.5763 3.04667 26.035 2.844C26.5043 2.64133 27.0003 2.54 27.523 2.54ZM32.8576 7.084C32.8576 6.17733 33.039 5.38267 33.4016 4.7C33.775 4.00667 34.287 3.47333 34.9376 3.1C35.5883 2.72667 36.335 2.54 37.1776 2.54C38.2443 2.54 39.1243 2.796 39.8176 3.308C40.5216 3.80933 40.9963 4.52933 41.2416 5.468H39.2736C39.1136 5.03067 38.8576 4.68933 38.5056 4.444C38.1536 4.19867 37.711 4.076 37.1776 4.076C36.431 4.076 35.8336 4.34267 35.3856 4.876C34.9483 5.39867 34.7296 6.13467 34.7296 7.084C34.7296 8.03333 34.9483 8.77467 35.3856 9.308C35.8336 9.84133 36.431 10.108 37.1776 10.108C38.2336 10.108 38.9323 9.644 39.2736 8.716H41.2416C40.9856 9.612 40.5056 10.3267 39.8016 10.86C39.0976 11.3827 38.223 11.644 37.1776 11.644C36.335 11.644 35.5883 11.4573 34.9376 11.084C34.287 10.7 33.775 10.1667 33.4016 9.484C33.039 8.79067 32.8576 7.99067 32.8576 7.084ZM50.9954 2.684L45.5874 15.644H43.6994L45.4914 11.356L42.0194 2.684H44.0514L46.5314 9.404L49.1074 2.684H50.9954Z" fill="url(#paint0_linear_13586_510)"/>
</g>
<defs>
<filter id="filter0_d_13586_510" x="0.703125" y="0.364014" width="50.6242" height="15.6151" filterUnits="userSpaceOnUse" color-interpolation-filters="sRGB">
<feFlood flood-opacity="0" result="BackgroundImageFix"/>
<feColorMatrix in="SourceAlpha" type="matrix" values="0 0 0 0 0 0 0 0 0 0 0 0 0 0 0 0 0 0 127 0" result="hardAlpha"/>
<feOffset dx="0.335135" dy="0.335135"/>
<feComposite in2="hardAlpha" operator="out"/>
<feColorMatrix type="matrix" values="0 0 0 0 0 0 0 0 0 0 0 0 0 0 0 0 0 0 0.09 0"/>
<feBlend mode="normal" in2="BackgroundImageFix" result="effect1_dropShadow_13586_510"/>
<feBlend mode="normal" in="SourceGraphic" in2="effect1_dropShadow_13586_510" result="shape"/>
</filter>
<linearGradient id="paint0_linear_13586_510" x1="-0.0838509" y1="7.16666" x2="57.7609" y2="7.58229" gradientUnits="userSpaceOnUse">
<stop stop-color="#F20790"/>
<stop offset="1" stop-color="#007AFF"/>
</linearGradient>
</defs>
</svg>
