<svg width="158" height="13" viewBox="0 0 158 13" fill="none" xmlns="http://www.w3.org/2000/svg">
<path d="M3.076 9.584C2.524 9.584 2.028 9.488 1.588 9.296C1.156 9.096 0.816 8.824 0.568 8.48C0.32 8.128 0.192 7.724 0.184 7.268H1.348C1.388 7.66 1.548 7.992 1.828 8.264C2.116 8.528 2.532 8.66 3.076 8.66C3.596 8.66 4.004 8.532 4.3 8.276C4.604 8.012 4.756 7.676 4.756 7.268C4.756 6.948 4.668 6.688 4.492 6.488C4.316 6.288 4.096 6.136 3.832 6.032C3.568 5.928 3.212 5.816 2.764 5.696C2.212 5.552 1.768 5.408 1.432 5.264C1.104 5.12 0.82 4.896 0.58 4.592C0.348 4.28 0.232 3.864 0.232 3.344C0.232 2.888 0.348 2.484 0.58 2.132C0.812 1.78 1.136 1.508 1.552 1.316C1.976 1.124 2.46 1.028 3.004 1.028C3.788 1.028 4.428 1.224 4.924 1.616C5.428 2.008 5.712 2.528 5.776 3.176H4.576C4.536 2.856 4.368 2.576 4.072 2.336C3.776 2.088 3.384 1.964 2.896 1.964C2.44 1.964 2.068 2.084 1.78 2.324C1.492 2.556 1.348 2.884 1.348 3.308C1.348 3.612 1.432 3.86 1.6 4.052C1.776 4.244 1.988 4.392 2.236 4.496C2.492 4.592 2.848 4.704 3.304 4.832C3.856 4.984 4.3 5.136 4.636 5.288C4.972 5.432 5.26 5.66 5.5 5.972C5.74 6.276 5.86 6.692 5.86 7.22C5.86 7.628 5.752 8.012 5.536 8.372C5.32 8.732 5 9.024 4.576 9.248C4.152 9.472 3.652 9.584 3.076 9.584ZM13.467 5.96C13.467 6.168 13.455 6.388 13.431 6.62H8.17497C8.21497 7.268 8.43497 7.776 8.83497 8.144C9.24297 8.504 9.73497 8.684 10.311 8.684C10.783 8.684 11.175 8.576 11.487 8.36C11.807 8.136 12.031 7.84 12.159 7.472H13.335C13.159 8.104 12.807 8.62 12.279 9.02C11.751 9.412 11.095 9.608 10.311 9.608C9.68697 9.608 9.12697 9.468 8.63097 9.188C8.14297 8.908 7.75897 8.512 7.47897 8C7.19897 7.48 7.05897 6.88 7.05897 6.2C7.05897 5.52 7.19497 4.924 7.46697 4.412C7.73897 3.9 8.11897 3.508 8.60697 3.236C9.10297 2.956 9.67097 2.816 10.311 2.816C10.935 2.816 11.487 2.952 11.967 3.224C12.447 3.496 12.815 3.872 13.071 4.352C13.335 4.824 13.467 5.36 13.467 5.96ZM12.339 5.732C12.339 5.316 12.247 4.96 12.063 4.664C11.879 4.36 11.627 4.132 11.307 3.98C10.995 3.82 10.647 3.74 10.263 3.74C9.71097 3.74 9.23897 3.916 8.84697 4.268C8.46297 4.62 8.24297 5.108 8.18697 5.732H12.339ZM20.9084 5.96C20.9084 6.168 20.8964 6.388 20.8724 6.62H15.6164C15.6564 7.268 15.8764 7.776 16.2764 8.144C16.6844 8.504 17.1764 8.684 17.7524 8.684C18.2244 8.684 18.6164 8.576 18.9284 8.36C19.2484 8.136 19.4724 7.84 19.6004 7.472H20.7764C20.6004 8.104 20.2484 8.62 19.7204 9.02C19.1924 9.412 18.5364 9.608 17.7524 9.608C17.1284 9.608 16.5684 9.468 16.0724 9.188C15.5844 8.908 15.2004 8.512 14.9204 8C14.6404 7.48 14.5004 6.88 14.5004 6.2C14.5004 5.52 14.6364 4.924 14.9084 4.412C15.1804 3.9 15.5604 3.508 16.0484 3.236C16.5444 2.956 17.1124 2.816 17.7524 2.816C18.3764 2.816 18.9284 2.952 19.4084 3.224C19.8884 3.496 20.2564 3.872 20.5124 4.352C20.7764 4.824 20.9084 5.36 20.9084 5.96ZM19.7804 5.732C19.7804 5.316 19.6884 4.96 19.5044 4.664C19.3204 4.36 19.0684 4.132 18.7484 3.98C18.4364 3.82 18.0884 3.74 17.7044 3.74C17.1524 3.74 16.6804 3.916 16.2884 4.268C15.9044 4.62 15.6844 5.108 15.6284 5.732H19.7804ZM26.0218 9.5L23.4418 6.596V9.5H22.3498V0.62H23.4418V5.84L25.9738 2.924H27.4978L24.4018 6.2L27.5098 9.5H26.0218ZM29.0896 1.856C28.8816 1.856 28.7056 1.784 28.5616 1.64C28.4176 1.496 28.3456 1.32 28.3456 1.112C28.3456 0.904 28.4176 0.728 28.5616 0.584C28.7056 0.44 28.8816 0.368 29.0896 0.368C29.2896 0.368 29.4576 0.44 29.5936 0.584C29.7376 0.728 29.8096 0.904 29.8096 1.112C29.8096 1.32 29.7376 1.496 29.5936 1.64C29.4576 1.784 29.2896 1.856 29.0896 1.856ZM29.6176 2.924V9.5H28.5256V2.924H29.6176ZM34.6827 2.804C35.4827 2.804 36.1307 3.048 36.6267 3.536C37.1227 4.016 37.3707 4.712 37.3707 5.624V9.5H36.2907V5.78C36.2907 5.124 36.1267 4.624 35.7987 4.28C35.4707 3.928 35.0227 3.752 34.4547 3.752C33.8787 3.752 33.4187 3.932 33.0747 4.292C32.7387 4.652 32.5707 5.176 32.5707 5.864V9.5H31.4787V2.924H32.5707V3.86C32.7867 3.524 33.0787 3.264 33.4467 3.08C33.8227 2.896 34.2347 2.804 34.6827 2.804ZM41.8665 2.816C42.4345 2.816 42.9305 2.94 43.3545 3.188C43.7865 3.436 44.1065 3.748 44.3145 4.124V2.924H45.4185V9.644C45.4185 10.244 45.2905 10.776 45.0345 11.24C44.7785 11.712 44.4105 12.08 43.9305 12.344C43.4585 12.608 42.9065 12.74 42.2745 12.74C41.4105 12.74 40.6905 12.536 40.1145 12.128C39.5385 11.72 39.1985 11.164 39.0945 10.46H40.1745C40.2945 10.86 40.5425 11.18 40.9185 11.42C41.2945 11.668 41.7465 11.792 42.2745 11.792C42.8745 11.792 43.3625 11.604 43.7385 11.228C44.1225 10.852 44.3145 10.324 44.3145 9.644V8.264C44.0985 8.648 43.7785 8.968 43.3545 9.224C42.9305 9.48 42.4345 9.608 41.8665 9.608C41.2825 9.608 40.7505 9.464 40.2705 9.176C39.7985 8.888 39.4265 8.484 39.1545 7.964C38.8825 7.444 38.7465 6.852 38.7465 6.188C38.7465 5.516 38.8825 4.928 39.1545 4.424C39.4265 3.912 39.7985 3.516 40.2705 3.236C40.7505 2.956 41.2825 2.816 41.8665 2.816ZM44.3145 6.2C44.3145 5.704 44.2145 5.272 44.0145 4.904C43.8145 4.536 43.5425 4.256 43.1985 4.064C42.8625 3.864 42.4905 3.764 42.0825 3.764C41.6745 3.764 41.3025 3.86 40.9665 4.052C40.6305 4.244 40.3625 4.524 40.1625 4.892C39.9625 5.26 39.8625 5.692 39.8625 6.188C39.8625 6.692 39.9625 7.132 40.1625 7.508C40.3625 7.876 40.6305 8.16 40.9665 8.36C41.3025 8.552 41.6745 8.648 42.0825 8.648C42.4905 8.648 42.8625 8.552 43.1985 8.36C43.5425 8.16 43.8145 7.876 44.0145 7.508C44.2145 7.132 44.3145 6.696 44.3145 6.2ZM53.1391 3.824H51.7591V9.5H50.6671V3.824H49.8151V2.924H50.6671V2.456C50.6671 1.72 50.8551 1.184 51.2311 0.848C51.6151 0.503999 52.2271 0.331999 53.0671 0.331999V1.244C52.5871 1.244 52.2471 1.34 52.0471 1.532C51.8551 1.716 51.7591 2.024 51.7591 2.456V2.924H53.1391V3.824ZM57.2803 9.608C56.6643 9.608 56.1043 9.468 55.6003 9.188C55.1043 8.908 54.7123 8.512 54.4243 8C54.1443 7.48 54.0043 6.88 54.0043 6.2C54.0043 5.528 54.1483 4.936 54.4363 4.424C54.7323 3.904 55.1323 3.508 55.6363 3.236C56.1403 2.956 56.7043 2.816 57.3283 2.816C57.9523 2.816 58.5163 2.956 59.0203 3.236C59.5243 3.508 59.9203 3.9 60.2083 4.412C60.5043 4.924 60.6523 5.52 60.6523 6.2C60.6523 6.88 60.5003 7.48 60.1963 8C59.9003 8.512 59.4963 8.908 58.9843 9.188C58.4723 9.468 57.9043 9.608 57.2803 9.608ZM57.2803 8.648C57.6723 8.648 58.0403 8.556 58.3843 8.372C58.7283 8.188 59.0043 7.912 59.2123 7.544C59.4283 7.176 59.5363 6.728 59.5363 6.2C59.5363 5.672 59.4323 5.224 59.2243 4.856C59.0163 4.488 58.7443 4.216 58.4083 4.04C58.0723 3.856 57.7083 3.764 57.3163 3.764C56.9163 3.764 56.5483 3.856 56.2123 4.04C55.8843 4.216 55.6203 4.488 55.4203 4.856C55.2203 5.224 55.1203 5.672 55.1203 6.2C55.1203 6.736 55.2163 7.188 55.4083 7.556C55.6083 7.924 55.8723 8.2 56.2003 8.384C56.5283 8.56 56.8883 8.648 57.2803 8.648ZM63.1801 3.992C63.3721 3.616 63.6441 3.324 63.9961 3.116C64.3561 2.908 64.7921 2.804 65.3041 2.804V3.932H65.0161C63.7921 3.932 63.1801 4.596 63.1801 5.924V9.5H62.0881V2.924H63.1801V3.992ZM69.3558 6.188C69.3558 5.516 69.4918 4.928 69.7638 4.424C70.0358 3.912 70.4078 3.516 70.8798 3.236C71.3598 2.956 71.8918 2.816 72.4758 2.816C73.0518 2.816 73.5518 2.94 73.9758 3.188C74.3998 3.436 74.7158 3.748 74.9238 4.124V2.924H76.0278V9.5H74.9238V8.276C74.7078 8.66 74.3838 8.98 73.9518 9.236C73.5278 9.484 73.0318 9.608 72.4638 9.608C71.8798 9.608 71.3518 9.464 70.8798 9.176C70.4078 8.888 70.0358 8.484 69.7638 7.964C69.4918 7.444 69.3558 6.852 69.3558 6.188ZM74.9238 6.2C74.9238 5.704 74.8238 5.272 74.6238 4.904C74.4238 4.536 74.1518 4.256 73.8078 4.064C73.4718 3.864 73.0998 3.764 72.6918 3.764C72.2838 3.764 71.9118 3.86 71.5758 4.052C71.2398 4.244 70.9718 4.524 70.7718 4.892C70.5718 5.26 70.4718 5.692 70.4718 6.188C70.4718 6.692 70.5718 7.132 70.7718 7.508C70.9718 7.876 71.2398 8.16 71.5758 8.36C71.9118 8.552 72.2838 8.648 72.6918 8.648C73.0998 8.648 73.4718 8.552 73.8078 8.36C74.1518 8.16 74.4238 7.876 74.6238 7.508C74.8238 7.132 74.9238 6.696 74.9238 6.2ZM81.0772 2.804C81.8772 2.804 82.5252 3.048 83.0212 3.536C83.5172 4.016 83.7652 4.712 83.7652 5.624V9.5H82.6852V5.78C82.6852 5.124 82.5212 4.624 82.1932 4.28C81.8652 3.928 81.4172 3.752 80.8492 3.752C80.2732 3.752 79.8132 3.932 79.4692 4.292C79.1332 4.652 78.9652 5.176 78.9652 5.864V9.5H77.8732V2.924H78.9652V3.86C79.1812 3.524 79.4732 3.264 79.8412 3.08C80.2172 2.896 80.6292 2.804 81.0772 2.804ZM91.6162 9.608C91.0002 9.608 90.4402 9.468 89.9362 9.188C89.4402 8.908 89.0482 8.512 88.7602 8C88.4802 7.48 88.3402 6.88 88.3402 6.2C88.3402 5.528 88.4842 4.936 88.7722 4.424C89.0682 3.904 89.4682 3.508 89.9722 3.236C90.4762 2.956 91.0402 2.816 91.6642 2.816C92.2882 2.816 92.8522 2.956 93.3562 3.236C93.8602 3.508 94.2562 3.9 94.5442 4.412C94.8402 4.924 94.9882 5.52 94.9882 6.2C94.9882 6.88 94.8362 7.48 94.5322 8C94.2362 8.512 93.8322 8.908 93.3202 9.188C92.8082 9.468 92.2402 9.608 91.6162 9.608ZM91.6162 8.648C92.0082 8.648 92.3762 8.556 92.7202 8.372C93.0642 8.188 93.3402 7.912 93.5482 7.544C93.7642 7.176 93.8722 6.728 93.8722 6.2C93.8722 5.672 93.7682 5.224 93.5602 4.856C93.3522 4.488 93.0802 4.216 92.7442 4.04C92.4082 3.856 92.0442 3.764 91.6522 3.764C91.2522 3.764 90.8842 3.856 90.5482 4.04C90.2202 4.216 89.9562 4.488 89.7562 4.856C89.5562 5.224 89.4562 5.672 89.4562 6.2C89.4562 6.736 89.5522 7.188 89.7442 7.556C89.9442 7.924 90.2082 8.2 90.5362 8.384C90.8642 8.56 91.2242 8.648 91.6162 8.648ZM97.516 4.136C97.732 3.76 98.052 3.448 98.476 3.2C98.908 2.944 99.408 2.816 99.976 2.816C100.56 2.816 101.088 2.956 101.56 3.236C102.04 3.516 102.416 3.912 102.688 4.424C102.96 4.928 103.096 5.516 103.096 6.188C103.096 6.852 102.96 7.444 102.688 7.964C102.416 8.484 102.04 8.888 101.56 9.176C101.088 9.464 100.56 9.608 99.976 9.608C99.416 9.608 98.92 9.484 98.488 9.236C98.064 8.98 97.74 8.664 97.516 8.288V12.62H96.424V2.924H97.516V4.136ZM101.98 6.188C101.98 5.692 101.88 5.26 101.68 4.892C101.48 4.524 101.208 4.244 100.864 4.052C100.528 3.86 100.156 3.764 99.748 3.764C99.348 3.764 98.976 3.864 98.632 4.064C98.296 4.256 98.024 4.54 97.816 4.916C97.616 5.284 97.516 5.712 97.516 6.2C97.516 6.696 97.616 7.132 97.816 7.508C98.024 7.876 98.296 8.16 98.632 8.36C98.976 8.552 99.348 8.648 99.748 8.648C100.156 8.648 100.528 8.552 100.864 8.36C101.208 8.16 101.48 7.876 101.68 7.508C101.88 7.132 101.98 6.692 101.98 6.188ZM105.625 4.136C105.841 3.76 106.161 3.448 106.585 3.2C107.017 2.944 107.517 2.816 108.085 2.816C108.669 2.816 109.197 2.956 109.669 3.236C110.149 3.516 110.525 3.912 110.797 4.424C111.069 4.928 111.205 5.516 111.205 6.188C111.205 6.852 111.069 7.444 110.797 7.964C110.525 8.484 110.149 8.888 109.669 9.176C109.197 9.464 108.669 9.608 108.085 9.608C107.525 9.608 107.029 9.484 106.597 9.236C106.173 8.98 105.849 8.664 105.625 8.288V12.62H104.533V2.924H105.625V4.136ZM110.089 6.188C110.089 5.692 109.989 5.26 109.789 4.892C109.589 4.524 109.317 4.244 108.973 4.052C108.637 3.86 108.265 3.764 107.857 3.764C107.457 3.764 107.085 3.864 106.741 4.064C106.405 4.256 106.133 4.54 105.925 4.916C105.725 5.284 105.625 5.712 105.625 6.2C105.625 6.696 105.725 7.132 105.925 7.508C106.133 7.876 106.405 8.16 106.741 8.36C107.085 8.552 107.457 8.648 107.857 8.648C108.265 8.648 108.637 8.552 108.973 8.36C109.317 8.16 109.589 7.876 109.789 7.508C109.989 7.132 110.089 6.692 110.089 6.188ZM115.511 9.608C114.895 9.608 114.335 9.468 113.831 9.188C113.335 8.908 112.943 8.512 112.655 8C112.375 7.48 112.235 6.88 112.235 6.2C112.235 5.528 112.379 4.936 112.667 4.424C112.963 3.904 113.363 3.508 113.867 3.236C114.371 2.956 114.935 2.816 115.559 2.816C116.183 2.816 116.747 2.956 117.251 3.236C117.755 3.508 118.151 3.9 118.439 4.412C118.735 4.924 118.883 5.52 118.883 6.2C118.883 6.88 118.731 7.48 118.427 8C118.131 8.512 117.727 8.908 117.215 9.188C116.703 9.468 116.135 9.608 115.511 9.608ZM115.511 8.648C115.903 8.648 116.271 8.556 116.615 8.372C116.959 8.188 117.235 7.912 117.443 7.544C117.659 7.176 117.767 6.728 117.767 6.2C117.767 5.672 117.663 5.224 117.455 4.856C117.247 4.488 116.975 4.216 116.639 4.04C116.303 3.856 115.939 3.764 115.547 3.764C115.147 3.764 114.779 3.856 114.443 4.04C114.115 4.216 113.851 4.488 113.651 4.856C113.451 5.224 113.351 5.672 113.351 6.2C113.351 6.736 113.447 7.188 113.639 7.556C113.839 7.924 114.103 8.2 114.431 8.384C114.759 8.56 115.119 8.648 115.511 8.648ZM121.411 3.992C121.603 3.616 121.875 3.324 122.227 3.116C122.587 2.908 123.023 2.804 123.535 2.804V3.932H123.247C122.023 3.932 121.411 4.596 121.411 5.924V9.5H120.319V2.924H121.411V3.992ZM126.127 3.824V7.7C126.127 8.02 126.195 8.248 126.331 8.384C126.467 8.512 126.703 8.576 127.039 8.576H127.843V9.5H126.859C126.251 9.5 125.795 9.36 125.491 9.08C125.187 8.8 125.035 8.34 125.035 7.7V3.824H124.183V2.924H125.035V1.268H126.127V2.924H127.843V3.824H126.127ZM134.998 2.924V9.5H133.906V8.528C133.698 8.864 133.406 9.128 133.03 9.32C132.662 9.504 132.254 9.596 131.806 9.596C131.294 9.596 130.834 9.492 130.426 9.284C130.018 9.068 129.694 8.748 129.454 8.324C129.222 7.9 129.106 7.384 129.106 6.776V2.924H130.186V6.632C130.186 7.28 130.35 7.78 130.678 8.132C131.006 8.476 131.454 8.648 132.022 8.648C132.606 8.648 133.066 8.468 133.402 8.108C133.738 7.748 133.906 7.224 133.906 6.536V2.924H134.998ZM140.046 2.804C140.846 2.804 141.494 3.048 141.99 3.536C142.486 4.016 142.734 4.712 142.734 5.624V9.5H141.654V5.78C141.654 5.124 141.49 4.624 141.162 4.28C140.834 3.928 140.386 3.752 139.818 3.752C139.242 3.752 138.782 3.932 138.438 4.292C138.102 4.652 137.934 5.176 137.934 5.864V9.5H136.842V2.924H137.934V3.86C138.15 3.524 138.442 3.264 138.81 3.08C139.186 2.896 139.598 2.804 140.046 2.804ZM145.082 1.856C144.874 1.856 144.698 1.784 144.554 1.64C144.41 1.496 144.338 1.32 144.338 1.112C144.338 0.904 144.41 0.728 144.554 0.584C144.698 0.44 144.874 0.368 145.082 0.368C145.282 0.368 145.45 0.44 145.586 0.584C145.73 0.728 145.802 0.904 145.802 1.112C145.802 1.32 145.73 1.496 145.586 1.64C145.45 1.784 145.282 1.856 145.082 1.856ZM145.61 2.924V9.5H144.518V2.924H145.61ZM148.803 3.824V7.7C148.803 8.02 148.871 8.248 149.007 8.384C149.143 8.512 149.379 8.576 149.715 8.576H150.519V9.5H149.535C148.927 9.5 148.471 9.36 148.167 9.08C147.863 8.8 147.711 8.34 147.711 7.7V3.824H146.859V2.924H147.711V1.268H148.803V2.924H150.519V3.824H148.803ZM157.506 2.924L153.546 12.596H152.418L153.714 9.428L151.062 2.924H152.274L154.338 8.252L156.378 2.924H157.506Z" fill="#2A323C" fill-opacity="0.64"/>
</svg>
