<svg width="154" height="22" viewBox="0 0 154 22" fill="none" xmlns="http://www.w3.org/2000/svg">
<path d="M28.2029 7.81068C27.0356 7.00675 28.2922 3.78068 31.3822 4.6431C33.1595 5.13916 34.3614 6.04561 34.8794 7.81068C35.6143 10.3153 33.9604 13.053 31.3822 13.5123C27.3305 14.2342 25.7737 12.4193 24.0698 10.6615C21.0659 7.56251 19.9842 5.64054 16.1217 3.37607C13.7536 1.98773 12.0214 1.30221 8.03092 2.17763C6.29632 2.55817 3.89787 3.76574 2.30824 7.56683C1.10393 10.4466 1.35446 12.9517 2.30824 15.169C3.85734 18.7703 8.17351 19.9204 8.17351 19.9204C8.17351 19.9204 13.2931 21.0127 15.3432 18.9701C17.3934 16.9275 17.5687 15.4858 17.3934 13.5123C17.2286 11.6576 16.0282 10.3133 14.2141 9.39446C12.4819 8.5171 10.399 9.39446 10.399 9.39446" stroke="url(#paint0_linear_11295_7045)" stroke-width="2" stroke-linecap="round"/>
<line y1="-1" x2="118.442" y2="-1" transform="matrix(1 -8.74227e-08 -8.74227e-08 -1 35.0547 8.36795)" stroke="url(#paint1_linear_11295_7045)" stroke-width="2"/>
<defs>
<linearGradient id="paint0_linear_11295_7045" x1="1" y1="10.5008" x2="54.5" y2="9.00076" gradientUnits="userSpaceOnUse">
<stop stop-color="#F20790"/>
<stop offset="1" stop-color="#007AFF"/>
</linearGradient>
<linearGradient id="paint1_linear_11295_7045" x1="-60.0547" y1="-1.13288" x2="118.445" y2="-1.13287" gradientUnits="userSpaceOnUse">
<stop stop-color="#F20790"/>
<stop offset="0.341175" stop-color="#5850D7"/>
<stop offset="0.667179" stop-color="#007AFF"/>
<stop offset="0.999442" stop-color="#007AFF" stop-opacity="0"/>
</linearGradient>
</defs>
</svg>
