<svg width="191" height="23" viewBox="0 0 191 23" fill="none" xmlns="http://www.w3.org/2000/svg">
<path d="M0.125875 12.228C0.125875 10.324 0.555208 8.616 1.41388 7.104C2.27254 5.57333 3.43921 4.37867 4.91388 3.52C6.40721 2.66133 8.05921 2.232 9.86988 2.232C11.9979 2.232 13.8552 2.74533 15.4419 3.772C17.0285 4.79867 18.1859 6.25467 18.9139 8.14H15.8619C15.3205 6.964 14.5365 6.05867 13.5099 5.424C12.5019 4.78933 11.2885 4.472 9.86988 4.472C8.50721 4.472 7.28454 4.78933 6.20188 5.424C5.11921 6.05867 4.26988 6.964 3.65388 8.14C3.03788 9.29733 2.72988 10.66 2.72988 12.228C2.72988 13.7773 3.03788 15.14 3.65388 16.316C4.26988 17.4733 5.11921 18.3693 6.20188 19.004C7.28454 19.6387 8.50721 19.956 9.86988 19.956C11.2885 19.956 12.5019 19.648 13.5099 19.032C14.5365 18.3973 15.3205 17.492 15.8619 16.316H18.9139C18.1859 18.1827 17.0285 19.6293 15.4419 20.656C13.8552 21.664 11.9979 22.168 9.86988 22.168C8.05921 22.168 6.40721 21.748 4.91388 20.908C3.43921 20.0493 2.27254 18.864 1.41388 17.352C0.555208 15.84 0.125875 14.132 0.125875 12.228ZM29.3988 22.252C27.9614 22.252 26.6548 21.9253 25.4788 21.272C24.3214 20.6187 23.4068 19.6947 22.7348 18.5C22.0814 17.2867 21.7548 15.8867 21.7548 14.3C21.7548 12.732 22.0908 11.3507 22.7628 10.156C23.4534 8.94267 24.3868 8.01867 25.5628 7.384C26.7388 6.73067 28.0548 6.404 29.5108 6.404C30.9668 6.404 32.2828 6.73067 33.4588 7.384C34.6348 8.01867 35.5588 8.93333 36.2308 10.128C36.9214 11.3227 37.2668 12.7133 37.2668 14.3C37.2668 15.8867 36.9121 17.2867 36.2028 18.5C35.5121 19.6947 34.5694 20.6187 33.3748 21.272C32.1801 21.9253 30.8548 22.252 29.3988 22.252ZM29.3988 20.012C30.3134 20.012 31.1721 19.7973 31.9748 19.368C32.7774 18.9387 33.4214 18.2947 33.9068 17.436C34.4108 16.5773 34.6628 15.532 34.6628 14.3C34.6628 13.068 34.4201 12.0227 33.9348 11.164C33.4494 10.3053 32.8148 9.67067 32.0308 9.26C31.2468 8.83067 30.3974 8.616 29.4828 8.616C28.5494 8.616 27.6908 8.83067 26.9068 9.26C26.1414 9.67067 25.5254 10.3053 25.0588 11.164C24.5921 12.0227 24.3588 13.068 24.3588 14.3C24.3588 15.5507 24.5828 16.6053 25.0308 17.464C25.4974 18.3227 26.1134 18.9667 26.8788 19.396C27.6441 19.8067 28.4841 20.012 29.3988 20.012ZM39.6649 14.272C39.6649 12.704 39.9823 11.332 40.6169 10.156C41.2516 8.96133 42.1196 8.03733 43.2209 7.384C44.3409 6.73067 45.5916 6.404 46.9729 6.404C48.1676 6.404 49.2783 6.684 50.3049 7.244C51.3316 7.78533 52.1156 8.504 52.6569 9.4V1.28H55.2329V22H52.6569V19.116C52.1529 20.0307 51.4063 20.7867 50.4169 21.384C49.4276 21.9627 48.2703 22.252 46.9449 22.252C45.5823 22.252 44.3409 21.916 43.2209 21.244C42.1196 20.572 41.2516 19.6293 40.6169 18.416C39.9823 17.2027 39.6649 15.8213 39.6649 14.272ZM52.6569 14.3C52.6569 13.1427 52.4236 12.1347 51.9569 11.276C51.4903 10.4173 50.8556 9.764 50.0529 9.316C49.2689 8.84933 48.4009 8.616 47.4489 8.616C46.4969 8.616 45.6289 8.84 44.8449 9.288C44.0609 9.736 43.4356 10.3893 42.9689 11.248C42.5023 12.1067 42.2689 13.1147 42.2689 14.272C42.2689 15.448 42.5023 16.4747 42.9689 17.352C43.4356 18.2107 44.0609 18.8733 44.8449 19.34C45.6289 19.788 46.4969 20.012 47.4489 20.012C48.4009 20.012 49.2689 19.788 50.0529 19.34C50.8556 18.8733 51.4903 18.2107 51.9569 17.352C52.4236 16.4747 52.6569 15.4573 52.6569 14.3ZM73.5388 13.74C73.5388 14.2253 73.5108 14.7387 73.4548 15.28H61.1908C61.2841 16.792 61.7975 17.9773 62.7308 18.836C63.6828 19.676 64.8308 20.096 66.1748 20.096C67.2761 20.096 68.1908 19.844 68.9188 19.34C69.6655 18.8173 70.1881 18.1267 70.4868 17.268H73.2308C72.8201 18.7427 71.9988 19.9467 70.7668 20.88C69.5348 21.7947 68.0041 22.252 66.1748 22.252C64.7188 22.252 63.4121 21.9253 62.2548 21.272C61.1161 20.6187 60.2201 19.6947 59.5668 18.5C58.9135 17.2867 58.5868 15.8867 58.5868 14.3C58.5868 12.7133 58.9041 11.3227 59.5388 10.128C60.1735 8.93333 61.0601 8.01867 62.1988 7.384C63.3561 6.73067 64.6815 6.404 66.1748 6.404C67.6308 6.404 68.9188 6.72133 70.0388 7.356C71.1588 7.99067 72.0175 8.868 72.6148 9.988C73.2308 11.0893 73.5388 12.34 73.5388 13.74ZM70.9068 13.208C70.9068 12.2373 70.6921 11.4067 70.2628 10.716C69.8335 10.0067 69.2455 9.47467 68.4988 9.12C67.7708 8.74667 66.9588 8.56 66.0628 8.56C64.7748 8.56 63.6735 8.97067 62.7588 9.792C61.8628 10.6133 61.3495 11.752 61.2188 13.208H70.9068ZM108.895 2.484L103.239 22H100.383L95.8469 6.292L91.1429 22L88.3149 22.028L82.8549 2.484H85.5709L89.8269 19.032L94.5309 2.484H97.3869L101.867 18.976L106.151 2.484H108.895ZM112.999 4.164C112.514 4.164 112.103 3.996 111.767 3.66C111.431 3.324 111.263 2.91333 111.263 2.428C111.263 1.94267 111.431 1.532 111.767 1.196C112.103 0.859999 112.514 0.691999 112.999 0.691999C113.466 0.691999 113.858 0.859999 114.175 1.196C114.511 1.532 114.679 1.94267 114.679 2.428C114.679 2.91333 114.511 3.324 114.175 3.66C113.858 3.996 113.466 4.164 112.999 4.164ZM114.231 6.656V22H111.683V6.656H114.231ZM120.478 19.9H128.01V22H117.566V19.9L125.014 8.728H117.622V6.656H127.954V8.728L120.478 19.9ZM130.364 14.272C130.364 12.704 130.681 11.332 131.316 10.156C131.951 8.96133 132.819 8.03733 133.92 7.384C135.04 6.73067 136.281 6.404 137.644 6.404C138.988 6.404 140.155 6.69333 141.144 7.272C142.133 7.85067 142.871 8.57867 143.356 9.456V6.656H145.932V22H143.356V19.144C142.852 20.04 142.096 20.7867 141.088 21.384C140.099 21.9627 138.941 22.252 137.616 22.252C136.253 22.252 135.021 21.916 133.92 21.244C132.819 20.572 131.951 19.6293 131.316 18.416C130.681 17.2027 130.364 15.8213 130.364 14.272ZM143.356 14.3C143.356 13.1427 143.123 12.1347 142.656 11.276C142.189 10.4173 141.555 9.764 140.752 9.316C139.968 8.84933 139.1 8.616 138.148 8.616C137.196 8.616 136.328 8.84 135.544 9.288C134.76 9.736 134.135 10.3893 133.668 11.248C133.201 12.1067 132.968 13.1147 132.968 14.272C132.968 15.448 133.201 16.4747 133.668 17.352C134.135 18.2107 134.76 18.8733 135.544 19.34C136.328 19.788 137.196 20.012 138.148 20.012C139.1 20.012 139.968 19.788 140.752 19.34C141.555 18.8733 142.189 18.2107 142.656 17.352C143.123 16.4747 143.356 15.4573 143.356 14.3ZM152.786 9.148C153.234 8.27067 153.869 7.58933 154.69 7.104C155.53 6.61867 156.547 6.376 157.742 6.376V9.008H157.07C154.214 9.008 152.786 10.5573 152.786 13.656V22H150.238V6.656H152.786V9.148ZM159.731 14.272C159.731 12.704 160.049 11.332 160.683 10.156C161.318 8.96133 162.186 8.03733 163.287 7.384C164.407 6.73067 165.658 6.404 167.039 6.404C168.234 6.404 169.345 6.684 170.371 7.244C171.398 7.78533 172.182 8.504 172.723 9.4V1.28H175.299V22H172.723V19.116C172.219 20.0307 171.473 20.7867 170.483 21.384C169.494 21.9627 168.337 22.252 167.011 22.252C165.649 22.252 164.407 21.916 163.287 21.244C162.186 20.572 161.318 19.6293 160.683 18.416C160.049 17.2027 159.731 15.8213 159.731 14.272ZM172.723 14.3C172.723 13.1427 172.49 12.1347 172.023 11.276C171.557 10.4173 170.922 9.764 170.119 9.316C169.335 8.84933 168.467 8.616 167.515 8.616C166.563 8.616 165.695 8.84 164.911 9.288C164.127 9.736 163.502 10.3893 163.035 11.248C162.569 12.1067 162.335 13.1147 162.335 14.272C162.335 15.448 162.569 16.4747 163.035 17.352C163.502 18.2107 164.127 18.8733 164.911 19.34C165.695 19.788 166.563 20.012 167.515 20.012C168.467 20.012 169.335 19.788 170.119 19.34C170.922 18.8733 171.557 18.2107 172.023 17.352C172.49 16.4747 172.723 15.4573 172.723 14.3ZM185.037 22.252C183.861 22.252 182.807 22.056 181.873 21.664C180.94 21.2533 180.203 20.6933 179.661 19.984C179.12 19.256 178.821 18.4253 178.765 17.492H181.397C181.472 18.2573 181.827 18.8827 182.461 19.368C183.115 19.8533 183.964 20.096 185.009 20.096C185.98 20.096 186.745 19.8813 187.305 19.452C187.865 19.0227 188.145 18.4813 188.145 17.828C188.145 17.156 187.847 16.6613 187.249 16.344C186.652 16.008 185.728 15.6813 184.477 15.364C183.339 15.0653 182.405 14.7667 181.677 14.468C180.968 14.1507 180.352 13.6933 179.829 13.096C179.325 12.48 179.073 11.6773 179.073 10.688C179.073 9.904 179.307 9.18533 179.773 8.532C180.24 7.87867 180.903 7.36533 181.761 6.992C182.62 6.6 183.6 6.404 184.701 6.404C186.4 6.404 187.772 6.83333 188.817 7.692C189.863 8.55067 190.423 9.72667 190.497 11.22H187.949C187.893 10.4173 187.567 9.77333 186.969 9.288C186.391 8.80267 185.607 8.56 184.617 8.56C183.703 8.56 182.975 8.756 182.433 9.148C181.892 9.54 181.621 10.0533 181.621 10.688C181.621 11.192 181.78 11.612 182.097 11.948C182.433 12.2653 182.844 12.5267 183.329 12.732C183.833 12.9187 184.524 13.1333 185.401 13.376C186.503 13.6747 187.399 13.9733 188.089 14.272C188.78 14.552 189.368 14.9813 189.853 15.56C190.357 16.1387 190.619 16.8947 190.637 17.828C190.637 18.668 190.404 19.424 189.937 20.096C189.471 20.768 188.808 21.3 187.949 21.692C187.109 22.0653 186.139 22.252 185.037 22.252Z" fill="url(#paint0_linear_11295_7044)"/>
<defs>
<linearGradient id="paint0_linear_11295_7044" x1="-1.5" y1="12" x2="192.5" y2="12" gradientUnits="userSpaceOnUse">
<stop stop-color="#F20790"/>
<stop offset="1" stop-color="#007AFF"/>
</linearGradient>
</defs>
</svg>
