<svg width="16" height="16" viewBox="0 0 16 16" fill="none" xmlns="http://www.w3.org/2000/svg">
<g id="arrow-down-circle">
<path id="Vector" fill-rule="evenodd" clip-rule="evenodd" d="M8 1.5C4.41 1.5 1.5 4.41 1.5 8C1.5 11.59 4.41 14.5 8 14.5C11.59 14.5 14.5 11.59 14.5 8C14.5 4.41 11.59 1.5 8 1.5ZM7.64667 10.8533C7.74042 10.947 7.8675 10.9996 8 10.9996C8.1325 10.9996 8.25958 10.947 8.35333 10.8533L10.3533 8.85333C10.4025 8.80756 10.4419 8.75236 10.4692 8.69103C10.4965 8.62969 10.5112 8.56348 10.5124 8.49635C10.5136 8.42921 10.5012 8.36253 10.4761 8.30027C10.4509 8.23801 10.4135 8.18145 10.366 8.13397C10.3185 8.0865 10.262 8.04907 10.1997 8.02392C10.1375 7.99877 10.0708 7.98642 10.0037 7.98761C9.93652 7.98879 9.87031 8.00348 9.80897 8.03081C9.74764 8.05814 9.69244 8.09754 9.64667 8.14667L8.5 9.29333V5.5C8.5 5.36739 8.44732 5.24021 8.35355 5.14645C8.25979 5.05268 8.13261 5 8 5C7.86739 5 7.74022 5.05268 7.64645 5.14645C7.55268 5.24021 7.5 5.36739 7.5 5.5V9.29333L6.35333 8.14667C6.25855 8.05835 6.13319 8.01026 6.00365 8.01255C5.87412 8.01484 5.75053 8.06731 5.65892 8.15892C5.56731 8.25053 5.51484 8.37412 5.51255 8.50365C5.51026 8.63319 5.55835 8.75855 5.64667 8.85333L7.64667 10.8533Z" fill="black"/>
</g>
</svg>
