<svg width="520" height="375" viewBox="0 0 520 375" fill="none" xmlns="http://www.w3.org/2000/svg">
<g clip-path="url(#clip0_24783_146995)">
<mask id="path-1-inside-1_24783_146995" fill="white">
<path d="M-115 -125H-83.75V-93.75H-115V-125Z"/>
<path d="M-83.75 -125H-52.5V-93.75H-83.75V-125Z"/>
<path d="M-52.5 -125H-21.25V-93.75H-52.5V-125Z"/>
<path d="M-21.25 -125H10V-93.75H-21.25V-125Z"/>
<path d="M10 -125H41.25V-93.75H10V-125Z"/>
<path d="M41.25 -125H72.5V-93.75H41.25V-125Z"/>
<path d="M72.5 -125H103.75V-93.75H72.5V-125Z"/>
<path d="M103.75 -125H135V-93.75H103.75V-125Z"/>
<path d="M135 -125H166.25V-93.75H135V-125Z"/>
<path d="M166.25 -125H197.5V-93.75H166.25V-125Z"/>
<path d="M197.5 -125H228.75V-93.75H197.5V-125Z"/>
<path d="M228.75 -125H260V-93.75H228.75V-125Z"/>
<path d="M-115 -93.75H-83.75V-62.5H-115V-93.75Z"/>
<path d="M-83.75 -93.75H-52.5V-62.5H-83.75V-93.75Z"/>
<path d="M-52.5 -93.75H-21.25V-62.5H-52.5V-93.75Z"/>
<path d="M-21.25 -93.75H10V-62.5H-21.25V-93.75Z"/>
<path d="M10 -93.75H41.25V-62.5H10V-93.75Z"/>
<path d="M41.25 -93.75H72.5V-62.5H41.25V-93.75Z"/>
<path d="M72.5 -93.75H103.75V-62.5H72.5V-93.75Z"/>
<path d="M103.75 -93.75H135V-62.5H103.75V-93.75Z"/>
<path d="M135 -93.75H166.25V-62.5H135V-93.75Z"/>
<path d="M166.25 -93.75H197.5V-62.5H166.25V-93.75Z"/>
<path d="M197.5 -93.75H228.75V-62.5H197.5V-93.75Z"/>
<path d="M228.75 -93.75H260V-62.5H228.75V-93.75Z"/>
<path d="M-115 -62.5H-83.75V-31.25H-115V-62.5Z"/>
<path d="M-83.75 -62.5H-52.5V-31.25H-83.75V-62.5Z"/>
<path d="M-52.5 -62.5H-21.25V-31.25H-52.5V-62.5Z"/>
<path d="M-21.25 -62.5H10V-31.25H-21.25V-62.5Z"/>
<path d="M10 -62.5H41.25V-31.25H10V-62.5Z"/>
<path d="M41.25 -62.5H72.5V-31.25H41.25V-62.5Z"/>
<path d="M72.5 -62.5H103.75V-31.25H72.5V-62.5Z"/>
<path d="M103.75 -62.5H135V-31.25H103.75V-62.5Z"/>
<path d="M135 -62.5H166.25V-31.25H135V-62.5Z"/>
<path d="M166.25 -62.5H197.5V-31.25H166.25V-62.5Z"/>
<path d="M197.5 -62.5H228.75V-31.25H197.5V-62.5Z"/>
<path d="M228.75 -62.5H260V-31.25H228.75V-62.5Z"/>
<path d="M-115 -31.25H-83.75V0H-115V-31.25Z"/>
<path d="M-83.75 -31.25H-52.5V0H-83.75V-31.25Z"/>
<path d="M-52.5 -31.25H-21.25V0H-52.5V-31.25Z"/>
<path d="M-21.25 -31.25H10V0H-21.25V-31.25Z"/>
<path d="M10 -31.25H41.25V0H10V-31.25Z"/>
<path d="M41.25 -31.25H72.5V0H41.25V-31.25Z"/>
<path d="M72.5 -31.25H103.75V0H72.5V-31.25Z"/>
<path d="M103.75 -31.25H135V0H103.75V-31.25Z"/>
<path d="M135 -31.25H166.25V0H135V-31.25Z"/>
<path d="M166.25 -31.25H197.5V0H166.25V-31.25Z"/>
<path d="M197.5 -31.25H228.75V0H197.5V-31.25Z"/>
<path d="M228.75 -31.25H260V0H228.75V-31.25Z"/>
<path d="M-115 0H-83.75V31.25H-115V0Z"/>
<path d="M-83.75 0H-52.5V31.25H-83.75V0Z"/>
<path d="M-52.5 0H-21.25V31.25H-52.5V0Z"/>
<path d="M-21.25 0H10V31.25H-21.25V0Z"/>
<path d="M10 0H41.25V31.25H10V0Z"/>
<path d="M41.25 0H72.5V31.25H41.25V0Z"/>
<path d="M72.5 0H103.75V31.25H72.5V0Z"/>
<path d="M103.75 0H135V31.25H103.75V0Z"/>
<path d="M135 0H166.25V31.25H135V0Z"/>
<path d="M166.25 0H197.5V31.25H166.25V0Z"/>
<path d="M197.5 0H228.75V31.25H197.5V0Z"/>
<path d="M228.75 0H260V31.25H228.75V0Z"/>
<path d="M-115 31.25H-83.75V62.5H-115V31.25Z"/>
<path d="M-83.75 31.25H-52.5V62.5H-83.75V31.25Z"/>
<path d="M-52.5 31.25H-21.25V62.5H-52.5V31.25Z"/>
<path d="M-21.25 31.25H10V62.5H-21.25V31.25Z"/>
<path d="M10 31.25H41.25V62.5H10V31.25Z"/>
<path d="M41.25 31.25H72.5V62.5H41.25V31.25Z"/>
<path d="M72.5 31.25H103.75V62.5H72.5V31.25Z"/>
<path d="M103.75 31.25H135V62.5H103.75V31.25Z"/>
<path d="M135 31.25H166.25V62.5H135V31.25Z"/>
<path d="M166.25 31.25H197.5V62.5H166.25V31.25Z"/>
<path d="M197.5 31.25H228.75V62.5H197.5V31.25Z"/>
<path d="M228.75 31.25H260V62.5H228.75V31.25Z"/>
<path d="M-115 62.5H-83.75V93.75H-115V62.5Z"/>
<path d="M-83.75 62.5H-52.5V93.75H-83.75V62.5Z"/>
<path d="M-52.5 62.5H-21.25V93.75H-52.5V62.5Z"/>
<path d="M-21.25 62.5H10V93.75H-21.25V62.5Z"/>
<path d="M10 62.5H41.25V93.75H10V62.5Z"/>
<path d="M41.25 62.5H72.5V93.75H41.25V62.5Z"/>
<path d="M72.5 62.5H103.75V93.75H72.5V62.5Z"/>
<path d="M103.75 62.5H135V93.75H103.75V62.5Z"/>
<path d="M135 62.5H166.25V93.75H135V62.5Z"/>
<path d="M166.25 62.5H197.5V93.75H166.25V62.5Z"/>
<path d="M197.5 62.5H228.75V93.75H197.5V62.5Z"/>
<path d="M228.75 62.5H260V93.75H228.75V62.5Z"/>
<path d="M-115 93.75H-83.75V125H-115V93.75Z"/>
<path d="M-83.75 93.75H-52.5V125H-83.75V93.75Z"/>
<path d="M-52.5 93.75H-21.25V125H-52.5V93.75Z"/>
<path d="M-21.25 93.75H10V125H-21.25V93.75Z"/>
<path d="M10 93.75H41.25V125H10V93.75Z"/>
<path d="M41.25 93.75H72.5V125H41.25V93.75Z"/>
<path d="M72.5 93.75H103.75V125H72.5V93.75Z"/>
<path d="M103.75 93.75H135V125H103.75V93.75Z"/>
<path d="M135 93.75H166.25V125H135V93.75Z"/>
<path d="M166.25 93.75H197.5V125H166.25V93.75Z"/>
<path d="M197.5 93.75H228.75V125H197.5V93.75Z"/>
<path d="M228.75 93.75H260V125H228.75V93.75Z"/>
<path d="M260 -125H291.25V-93.75H260V-125Z"/>
<path d="M291.25 -125H322.5V-93.75H291.25V-125Z"/>
<path d="M322.5 -125H353.75V-93.75H322.5V-125Z"/>
<path d="M353.75 -125H385V-93.75H353.75V-125Z"/>
<path d="M385 -125H416.25V-93.75H385V-125Z"/>
<path d="M416.25 -125H447.5V-93.75H416.25V-125Z"/>
<path d="M447.5 -125H478.75V-93.75H447.5V-125Z"/>
<path d="M478.75 -125H510V-93.75H478.75V-125Z"/>
<path d="M510 -125H541.25V-93.75H510V-125Z"/>
<path d="M541.25 -125H572.5V-93.75H541.25V-125Z"/>
<path d="M572.5 -125H603.75V-93.75H572.5V-125Z"/>
<path d="M603.75 -125H635V-93.75H603.75V-125Z"/>
<path d="M260 -93.75H291.25V-62.5H260V-93.75Z"/>
<path d="M291.25 -93.75H322.5V-62.5H291.25V-93.75Z"/>
<path d="M322.5 -93.75H353.75V-62.5H322.5V-93.75Z"/>
<path d="M353.75 -93.75H385V-62.5H353.75V-93.75Z"/>
<path d="M385 -93.75H416.25V-62.5H385V-93.75Z"/>
<path d="M416.25 -93.75H447.5V-62.5H416.25V-93.75Z"/>
<path d="M447.5 -93.75H478.75V-62.5H447.5V-93.75Z"/>
<path d="M478.75 -93.75H510V-62.5H478.75V-93.75Z"/>
<path d="M510 -93.75H541.25V-62.5H510V-93.75Z"/>
<path d="M541.25 -93.75H572.5V-62.5H541.25V-93.75Z"/>
<path d="M572.5 -93.75H603.75V-62.5H572.5V-93.75Z"/>
<path d="M603.75 -93.75H635V-62.5H603.75V-93.75Z"/>
<path d="M260 -62.5H291.25V-31.25H260V-62.5Z"/>
<path d="M291.25 -62.5H322.5V-31.25H291.25V-62.5Z"/>
<path d="M322.5 -62.5H353.75V-31.25H322.5V-62.5Z"/>
<path d="M353.75 -62.5H385V-31.25H353.75V-62.5Z"/>
<path d="M385 -62.5H416.25V-31.25H385V-62.5Z"/>
<path d="M416.25 -62.5H447.5V-31.25H416.25V-62.5Z"/>
<path d="M447.5 -62.5H478.75V-31.25H447.5V-62.5Z"/>
<path d="M478.75 -62.5H510V-31.25H478.75V-62.5Z"/>
<path d="M510 -62.5H541.25V-31.25H510V-62.5Z"/>
<path d="M541.25 -62.5H572.5V-31.25H541.25V-62.5Z"/>
<path d="M572.5 -62.5H603.75V-31.25H572.5V-62.5Z"/>
<path d="M603.75 -62.5H635V-31.25H603.75V-62.5Z"/>
<path d="M260 -31.25H291.25V0H260V-31.25Z"/>
<path d="M291.25 -31.25H322.5V0H291.25V-31.25Z"/>
<path d="M322.5 -31.25H353.75V0H322.5V-31.25Z"/>
<path d="M353.75 -31.25H385V0H353.75V-31.25Z"/>
<path d="M385 -31.25H416.25V0H385V-31.25Z"/>
<path d="M416.25 -31.25H447.5V0H416.25V-31.25Z"/>
<path d="M447.5 -31.25H478.75V0H447.5V-31.25Z"/>
<path d="M478.75 -31.25H510V0H478.75V-31.25Z"/>
<path d="M510 -31.25H541.25V0H510V-31.25Z"/>
<path d="M541.25 -31.25H572.5V0H541.25V-31.25Z"/>
<path d="M572.5 -31.25H603.75V0H572.5V-31.25Z"/>
<path d="M603.75 -31.25H635V0H603.75V-31.25Z"/>
<path d="M260 0H291.25V31.25H260V0Z"/>
<path d="M291.25 0H322.5V31.25H291.25V0Z"/>
<path d="M322.5 0H353.75V31.25H322.5V0Z"/>
<path d="M353.75 0H385V31.25H353.75V0Z"/>
<path d="M385 0H416.25V31.25H385V0Z"/>
<path d="M416.25 0H447.5V31.25H416.25V0Z"/>
<path d="M447.5 0H478.75V31.25H447.5V0Z"/>
<path d="M478.75 0H510V31.25H478.75V0Z"/>
<path d="M510 0H541.25V31.25H510V0Z"/>
<path d="M541.25 0H572.5V31.25H541.25V0Z"/>
<path d="M572.5 0H603.75V31.25H572.5V0Z"/>
<path d="M603.75 0H635V31.25H603.75V0Z"/>
<path d="M260 31.25H291.25V62.5H260V31.25Z"/>
<path d="M291.25 31.25H322.5V62.5H291.25V31.25Z"/>
<path d="M322.5 31.25H353.75V62.5H322.5V31.25Z"/>
<path d="M353.75 31.25H385V62.5H353.75V31.25Z"/>
<path d="M385 31.25H416.25V62.5H385V31.25Z"/>
<path d="M416.25 31.25H447.5V62.5H416.25V31.25Z"/>
<path d="M447.5 31.25H478.75V62.5H447.5V31.25Z"/>
<path d="M478.75 31.25H510V62.5H478.75V31.25Z"/>
<path d="M510 31.25H541.25V62.5H510V31.25Z"/>
<path d="M541.25 31.25H572.5V62.5H541.25V31.25Z"/>
<path d="M572.5 31.25H603.75V62.5H572.5V31.25Z"/>
<path d="M603.75 31.25H635V62.5H603.75V31.25Z"/>
<path d="M260 62.5H291.25V93.75H260V62.5Z"/>
<path d="M291.25 62.5H322.5V93.75H291.25V62.5Z"/>
<path d="M322.5 62.5H353.75V93.75H322.5V62.5Z"/>
<path d="M353.75 62.5H385V93.75H353.75V62.5Z"/>
<path d="M385 62.5H416.25V93.75H385V62.5Z"/>
<path d="M416.25 62.5H447.5V93.75H416.25V62.5Z"/>
<path d="M447.5 62.5H478.75V93.75H447.5V62.5Z"/>
<path d="M478.75 62.5H510V93.75H478.75V62.5Z"/>
<path d="M510 62.5H541.25V93.75H510V62.5Z"/>
<path d="M541.25 62.5H572.5V93.75H541.25V62.5Z"/>
<path d="M572.5 62.5H603.75V93.75H572.5V62.5Z"/>
<path d="M603.75 62.5H635V93.75H603.75V62.5Z"/>
<path d="M260 93.75H291.25V125H260V93.75Z"/>
<path d="M291.25 93.75H322.5V125H291.25V93.75Z"/>
<path d="M322.5 93.75H353.75V125H322.5V93.75Z"/>
<path d="M353.75 93.75H385V125H353.75V93.75Z"/>
<path d="M385 93.75H416.25V125H385V93.75Z"/>
<path d="M416.25 93.75H447.5V125H416.25V93.75Z"/>
<path d="M447.5 93.75H478.75V125H447.5V93.75Z"/>
<path d="M478.75 93.75H510V125H478.75V93.75Z"/>
<path d="M510 93.75H541.25V125H510V93.75Z"/>
<path d="M541.25 93.75H572.5V125H541.25V93.75Z"/>
<path d="M572.5 93.75H603.75V125H572.5V93.75Z"/>
<path d="M603.75 93.75H635V125H603.75V93.75Z"/>
<path d="M-115 125H-83.75V156.25H-115V125Z"/>
<path d="M-83.75 125H-52.5V156.25H-83.75V125Z"/>
<path d="M-52.5 125H-21.25V156.25H-52.5V125Z"/>
<path d="M-21.25 125H10V156.25H-21.25V125Z"/>
<path d="M10 125H41.25V156.25H10V125Z"/>
<path d="M41.25 125H72.5V156.25H41.25V125Z"/>
<path d="M72.5 125H103.75V156.25H72.5V125Z"/>
<path d="M103.75 125H135V156.25H103.75V125Z"/>
<path d="M135 125H166.25V156.25H135V125Z"/>
<path d="M166.25 125H197.5V156.25H166.25V125Z"/>
<path d="M197.5 125H228.75V156.25H197.5V125Z"/>
<path d="M228.75 125H260V156.25H228.75V125Z"/>
<path d="M-115 156.25H-83.75V187.5H-115V156.25Z"/>
<path d="M-83.75 156.25H-52.5V187.5H-83.75V156.25Z"/>
<path d="M-52.5 156.25H-21.25V187.5H-52.5V156.25Z"/>
<path d="M-21.25 156.25H10V187.5H-21.25V156.25Z"/>
<path d="M10 156.25H41.25V187.5H10V156.25Z"/>
<path d="M41.25 156.25H72.5V187.5H41.25V156.25Z"/>
<path d="M72.5 156.25H103.75V187.5H72.5V156.25Z"/>
<path d="M103.75 156.25H135V187.5H103.75V156.25Z"/>
<path d="M135 156.25H166.25V187.5H135V156.25Z"/>
<path d="M166.25 156.25H197.5V187.5H166.25V156.25Z"/>
<path d="M197.5 156.25H228.75V187.5H197.5V156.25Z"/>
<path d="M228.75 156.25H260V187.5H228.75V156.25Z"/>
<path d="M-115 187.5H-83.75V218.75H-115V187.5Z"/>
<path d="M-83.75 187.5H-52.5V218.75H-83.75V187.5Z"/>
<path d="M-52.5 187.5H-21.25V218.75H-52.5V187.5Z"/>
<path d="M-21.25 187.5H10V218.75H-21.25V187.5Z"/>
<path d="M10 187.5H41.25V218.75H10V187.5Z"/>
<path d="M41.25 187.5H72.5V218.75H41.25V187.5Z"/>
<path d="M72.5 187.5H103.75V218.75H72.5V187.5Z"/>
<path d="M103.75 187.5H135V218.75H103.75V187.5Z"/>
<path d="M135 187.5H166.25V218.75H135V187.5Z"/>
<path d="M166.25 187.5H197.5V218.75H166.25V187.5Z"/>
<path d="M197.5 187.5H228.75V218.75H197.5V187.5Z"/>
<path d="M228.75 187.5H260V218.75H228.75V187.5Z"/>
<path d="M-115 218.75H-83.75V250H-115V218.75Z"/>
<path d="M-83.75 218.75H-52.5V250H-83.75V218.75Z"/>
<path d="M-52.5 218.75H-21.25V250H-52.5V218.75Z"/>
<path d="M-21.25 218.75H10V250H-21.25V218.75Z"/>
<path d="M10 218.75H41.25V250H10V218.75Z"/>
<path d="M41.25 218.75H72.5V250H41.25V218.75Z"/>
<path d="M72.5 218.75H103.75V250H72.5V218.75Z"/>
<path d="M103.75 218.75H135V250H103.75V218.75Z"/>
<path d="M135 218.75H166.25V250H135V218.75Z"/>
<path d="M166.25 218.75H197.5V250H166.25V218.75Z"/>
<path d="M197.5 218.75H228.75V250H197.5V218.75Z"/>
<path d="M228.75 218.75H260V250H228.75V218.75Z"/>
<path d="M-115 250H-83.75V281.25H-115V250Z"/>
<path d="M-83.75 250H-52.5V281.25H-83.75V250Z"/>
<path d="M-52.5 250H-21.25V281.25H-52.5V250Z"/>
<path d="M-21.25 250H10V281.25H-21.25V250Z"/>
<path d="M10 250H41.25V281.25H10V250Z"/>
<path d="M41.25 250H72.5V281.25H41.25V250Z"/>
<path d="M72.5 250H103.75V281.25H72.5V250Z"/>
<path d="M103.75 250H135V281.25H103.75V250Z"/>
<path d="M135 250H166.25V281.25H135V250Z"/>
<path d="M166.25 250H197.5V281.25H166.25V250Z"/>
<path d="M197.5 250H228.75V281.25H197.5V250Z"/>
<path d="M228.75 250H260V281.25H228.75V250Z"/>
<path d="M-115 281.25H-83.75V312.5H-115V281.25Z"/>
<path d="M-83.75 281.25H-52.5V312.5H-83.75V281.25Z"/>
<path d="M-52.5 281.25H-21.25V312.5H-52.5V281.25Z"/>
<path d="M-21.25 281.25H10V312.5H-21.25V281.25Z"/>
<path d="M10 281.25H41.25V312.5H10V281.25Z"/>
<path d="M41.25 281.25H72.5V312.5H41.25V281.25Z"/>
<path d="M72.5 281.25H103.75V312.5H72.5V281.25Z"/>
<path d="M103.75 281.25H135V312.5H103.75V281.25Z"/>
<path d="M135 281.25H166.25V312.5H135V281.25Z"/>
<path d="M166.25 281.25H197.5V312.5H166.25V281.25Z"/>
<path d="M197.5 281.25H228.75V312.5H197.5V281.25Z"/>
<path d="M228.75 281.25H260V312.5H228.75V281.25Z"/>
<path d="M-115 312.5H-83.75V343.75H-115V312.5Z"/>
<path d="M-83.75 312.5H-52.5V343.75H-83.75V312.5Z"/>
<path d="M-52.5 312.5H-21.25V343.75H-52.5V312.5Z"/>
<path d="M-21.25 312.5H10V343.75H-21.25V312.5Z"/>
<path d="M10 312.5H41.25V343.75H10V312.5Z"/>
<path d="M41.25 312.5H72.5V343.75H41.25V312.5Z"/>
<path d="M72.5 312.5H103.75V343.75H72.5V312.5Z"/>
<path d="M103.75 312.5H135V343.75H103.75V312.5Z"/>
<path d="M135 312.5H166.25V343.75H135V312.5Z"/>
<path d="M166.25 312.5H197.5V343.75H166.25V312.5Z"/>
<path d="M197.5 312.5H228.75V343.75H197.5V312.5Z"/>
<path d="M228.75 312.5H260V343.75H228.75V312.5Z"/>
<path d="M-115 343.75H-83.75V375H-115V343.75Z"/>
<path d="M-83.75 343.75H-52.5V375H-83.75V343.75Z"/>
<path d="M-52.5 343.75H-21.25V375H-52.5V343.75Z"/>
<path d="M-21.25 343.75H10V375H-21.25V343.75Z"/>
<path d="M10 343.75H41.25V375H10V343.75Z"/>
<path d="M41.25 343.75H72.5V375H41.25V343.75Z"/>
<path d="M72.5 343.75H103.75V375H72.5V343.75Z"/>
<path d="M103.75 343.75H135V375H103.75V343.75Z"/>
<path d="M135 343.75H166.25V375H135V343.75Z"/>
<path d="M166.25 343.75H197.5V375H166.25V343.75Z"/>
<path d="M197.5 343.75H228.75V375H197.5V343.75Z"/>
<path d="M228.75 343.75H260V375H228.75V343.75Z"/>
<path d="M260 125H291.25V156.25H260V125Z"/>
<path d="M291.25 125H322.5V156.25H291.25V125Z"/>
<path d="M322.5 125H353.75V156.25H322.5V125Z"/>
<path d="M353.75 125H385V156.25H353.75V125Z"/>
<path d="M385 125H416.25V156.25H385V125Z"/>
<path d="M416.25 125H447.5V156.25H416.25V125Z"/>
<path d="M447.5 125H478.75V156.25H447.5V125Z"/>
<path d="M478.75 125H510V156.25H478.75V125Z"/>
<path d="M510 125H541.25V156.25H510V125Z"/>
<path d="M541.25 125H572.5V156.25H541.25V125Z"/>
<path d="M572.5 125H603.75V156.25H572.5V125Z"/>
<path d="M603.75 125H635V156.25H603.75V125Z"/>
<path d="M260 156.25H291.25V187.5H260V156.25Z"/>
<path d="M291.25 156.25H322.5V187.5H291.25V156.25Z"/>
<path d="M322.5 156.25H353.75V187.5H322.5V156.25Z"/>
<path d="M353.75 156.25H385V187.5H353.75V156.25Z"/>
<path d="M385 156.25H416.25V187.5H385V156.25Z"/>
<path d="M416.25 156.25H447.5V187.5H416.25V156.25Z"/>
<path d="M447.5 156.25H478.75V187.5H447.5V156.25Z"/>
<path d="M478.75 156.25H510V187.5H478.75V156.25Z"/>
<path d="M510 156.25H541.25V187.5H510V156.25Z"/>
<path d="M541.25 156.25H572.5V187.5H541.25V156.25Z"/>
<path d="M572.5 156.25H603.75V187.5H572.5V156.25Z"/>
<path d="M603.75 156.25H635V187.5H603.75V156.25Z"/>
<path d="M260 187.5H291.25V218.75H260V187.5Z"/>
<path d="M291.25 187.5H322.5V218.75H291.25V187.5Z"/>
<path d="M322.5 187.5H353.75V218.75H322.5V187.5Z"/>
<path d="M353.75 187.5H385V218.75H353.75V187.5Z"/>
<path d="M385 187.5H416.25V218.75H385V187.5Z"/>
<path d="M416.25 187.5H447.5V218.75H416.25V187.5Z"/>
<path d="M447.5 187.5H478.75V218.75H447.5V187.5Z"/>
<path d="M478.75 187.5H510V218.75H478.75V187.5Z"/>
<path d="M510 187.5H541.25V218.75H510V187.5Z"/>
<path d="M541.25 187.5H572.5V218.75H541.25V187.5Z"/>
<path d="M572.5 187.5H603.75V218.75H572.5V187.5Z"/>
<path d="M603.75 187.5H635V218.75H603.75V187.5Z"/>
<path d="M260 218.75H291.25V250H260V218.75Z"/>
<path d="M291.25 218.75H322.5V250H291.25V218.75Z"/>
<path d="M322.5 218.75H353.75V250H322.5V218.75Z"/>
<path d="M353.75 218.75H385V250H353.75V218.75Z"/>
<path d="M385 218.75H416.25V250H385V218.75Z"/>
<path d="M416.25 218.75H447.5V250H416.25V218.75Z"/>
<path d="M447.5 218.75H478.75V250H447.5V218.75Z"/>
<path d="M478.75 218.75H510V250H478.75V218.75Z"/>
<path d="M510 218.75H541.25V250H510V218.75Z"/>
<path d="M541.25 218.75H572.5V250H541.25V218.75Z"/>
<path d="M572.5 218.75H603.75V250H572.5V218.75Z"/>
<path d="M603.75 218.75H635V250H603.75V218.75Z"/>
<path d="M260 250H291.25V281.25H260V250Z"/>
<path d="M291.25 250H322.5V281.25H291.25V250Z"/>
<path d="M322.5 250H353.75V281.25H322.5V250Z"/>
<path d="M353.75 250H385V281.25H353.75V250Z"/>
<path d="M385 250H416.25V281.25H385V250Z"/>
<path d="M416.25 250H447.5V281.25H416.25V250Z"/>
<path d="M447.5 250H478.75V281.25H447.5V250Z"/>
<path d="M478.75 250H510V281.25H478.75V250Z"/>
<path d="M510 250H541.25V281.25H510V250Z"/>
<path d="M541.25 250H572.5V281.25H541.25V250Z"/>
<path d="M572.5 250H603.75V281.25H572.5V250Z"/>
<path d="M603.75 250H635V281.25H603.75V250Z"/>
<path d="M260 281.25H291.25V312.5H260V281.25Z"/>
<path d="M291.25 281.25H322.5V312.5H291.25V281.25Z"/>
<path d="M322.5 281.25H353.75V312.5H322.5V281.25Z"/>
<path d="M353.75 281.25H385V312.5H353.75V281.25Z"/>
<path d="M385 281.25H416.25V312.5H385V281.25Z"/>
<path d="M416.25 281.25H447.5V312.5H416.25V281.25Z"/>
<path d="M447.5 281.25H478.75V312.5H447.5V281.25Z"/>
<path d="M478.75 281.25H510V312.5H478.75V281.25Z"/>
<path d="M510 281.25H541.25V312.5H510V281.25Z"/>
<path d="M541.25 281.25H572.5V312.5H541.25V281.25Z"/>
<path d="M572.5 281.25H603.75V312.5H572.5V281.25Z"/>
<path d="M603.75 281.25H635V312.5H603.75V281.25Z"/>
<path d="M260 312.5H291.25V343.75H260V312.5Z"/>
<path d="M291.25 312.5H322.5V343.75H291.25V312.5Z"/>
<path d="M322.5 312.5H353.75V343.75H322.5V312.5Z"/>
<path d="M353.75 312.5H385V343.75H353.75V312.5Z"/>
<path d="M385 312.5H416.25V343.75H385V312.5Z"/>
<path d="M416.25 312.5H447.5V343.75H416.25V312.5Z"/>
<path d="M447.5 312.5H478.75V343.75H447.5V312.5Z"/>
<path d="M478.75 312.5H510V343.75H478.75V312.5Z"/>
<path d="M510 312.5H541.25V343.75H510V312.5Z"/>
<path d="M541.25 312.5H572.5V343.75H541.25V312.5Z"/>
<path d="M572.5 312.5H603.75V343.75H572.5V312.5Z"/>
<path d="M603.75 312.5H635V343.75H603.75V312.5Z"/>
<path d="M260 343.75H291.25V375H260V343.75Z"/>
<path d="M291.25 343.75H322.5V375H291.25V343.75Z"/>
<path d="M322.5 343.75H353.75V375H322.5V343.75Z"/>
<path d="M353.75 343.75H385V375H353.75V343.75Z"/>
<path d="M385 343.75H416.25V375H385V343.75Z"/>
<path d="M416.25 343.75H447.5V375H416.25V343.75Z"/>
<path d="M447.5 343.75H478.75V375H447.5V343.75Z"/>
<path d="M478.75 343.75H510V375H478.75V343.75Z"/>
<path d="M510 343.75H541.25V375H510V343.75Z"/>
<path d="M541.25 343.75H572.5V375H541.25V343.75Z"/>
<path d="M572.5 343.75H603.75V375H572.5V343.75Z"/>
<path d="M603.75 343.75H635V375H603.75V343.75Z"/>
</mask>
<path d="M-84.086 -125V-93.75H-83.414V-125H-84.086ZM-83.75 -94.086H-115V-93.414H-83.75V-94.086ZM-52.836 -125V-93.75H-52.164V-125H-52.836ZM-52.5 -94.086H-83.75V-93.414H-52.5V-94.086ZM-21.586 -125V-93.75H-20.914V-125H-21.586ZM-21.25 -94.086H-52.5V-93.414H-21.25V-94.086ZM9.66398 -125V-93.75H10.336V-125H9.66398ZM10 -94.086H-21.25V-93.414H10V-94.086ZM40.914 -125V-93.75H41.586V-125H40.914ZM41.25 -94.086H10V-93.414H41.25V-94.086ZM72.164 -125V-93.75H72.836V-125H72.164ZM72.5 -94.086H41.25V-93.414H72.5V-94.086ZM103.414 -125V-93.75H104.086V-125H103.414ZM103.75 -94.086H72.5V-93.414H103.75V-94.086ZM134.664 -125V-93.75H135.336V-125H134.664ZM135 -94.086H103.75V-93.414H135V-94.086ZM165.914 -125V-93.75H166.586V-125H165.914ZM166.25 -94.086H135V-93.414H166.25V-94.086ZM197.164 -125V-93.75H197.836V-125H197.164ZM197.5 -94.086H166.25V-93.414H197.5V-94.086ZM228.414 -125V-93.75H229.086V-125H228.414ZM228.75 -94.086H197.5V-93.414H228.75V-94.086ZM259.664 -125V-93.75H260.336V-125H259.664ZM260 -94.086H228.75V-93.414H260V-94.086ZM-84.086 -93.75V-62.5H-83.414V-93.75H-84.086ZM-83.75 -62.836H-115V-62.164H-83.75V-62.836ZM-52.836 -93.75V-62.5H-52.164V-93.75H-52.836ZM-52.5 -62.836H-83.75V-62.164H-52.5V-62.836ZM-21.586 -93.75V-62.5H-20.914V-93.75H-21.586ZM-21.25 -62.836H-52.5V-62.164H-21.25V-62.836ZM9.66398 -93.75V-62.5H10.336V-93.75H9.66398ZM10 -62.836H-21.25V-62.164H10V-62.836ZM40.914 -93.75V-62.5H41.586V-93.75H40.914ZM41.25 -62.836H10V-62.164H41.25V-62.836ZM72.164 -93.75V-62.5H72.836V-93.75H72.164ZM72.5 -62.836H41.25V-62.164H72.5V-62.836ZM103.414 -93.75V-62.5H104.086V-93.75H103.414ZM103.75 -62.836H72.5V-62.164H103.75V-62.836ZM134.664 -93.75V-62.5H135.336V-93.75H134.664ZM135 -62.836H103.75V-62.164H135V-62.836ZM165.914 -93.75V-62.5H166.586V-93.75H165.914ZM166.25 -62.836H135V-62.164H166.25V-62.836ZM197.164 -93.75V-62.5H197.836V-93.75H197.164ZM197.5 -62.836H166.25V-62.164H197.5V-62.836ZM228.414 -93.75V-62.5H229.086V-93.75H228.414ZM228.75 -62.836H197.5V-62.164H228.75V-62.836ZM259.664 -93.75V-62.5H260.336V-93.75H259.664ZM260 -62.836H228.75V-62.164H260V-62.836ZM-84.086 -62.5V-31.25H-83.414V-62.5H-84.086ZM-83.75 -31.586H-115V-30.914H-83.75V-31.586ZM-52.836 -62.5V-31.25H-52.164V-62.5H-52.836ZM-52.5 -31.586H-83.75V-30.914H-52.5V-31.586ZM-21.586 -62.5V-31.25H-20.914V-62.5H-21.586ZM-21.25 -31.586H-52.5V-30.914H-21.25V-31.586ZM9.66398 -62.5V-31.25H10.336V-62.5H9.66398ZM10 -31.586H-21.25V-30.914H10V-31.586ZM40.914 -62.5V-31.25H41.586V-62.5H40.914ZM41.25 -31.586H10V-30.914H41.25V-31.586ZM72.164 -62.5V-31.25H72.836V-62.5H72.164ZM72.5 -31.586H41.25V-30.914H72.5V-31.586ZM103.414 -62.5V-31.25H104.086V-62.5H103.414ZM103.75 -31.586H72.5V-30.914H103.75V-31.586ZM134.664 -62.5V-31.25H135.336V-62.5H134.664ZM135 -31.586H103.75V-30.914H135V-31.586ZM165.914 -62.5V-31.25H166.586V-62.5H165.914ZM166.25 -31.586H135V-30.914H166.25V-31.586ZM197.164 -62.5V-31.25H197.836V-62.5H197.164ZM197.5 -31.586H166.25V-30.914H197.5V-31.586ZM228.414 -62.5V-31.25H229.086V-62.5H228.414ZM228.75 -31.586H197.5V-30.914H228.75V-31.586ZM259.664 -62.5V-31.25H260.336V-62.5H259.664ZM260 -31.586H228.75V-30.914H260V-31.586ZM-84.086 -31.25V0H-83.414V-31.25H-84.086ZM-83.75 -0.336021H-115V0.336021H-83.75V-0.336021ZM-52.836 -31.25V0H-52.164V-31.25H-52.836ZM-52.5 -0.336021H-83.75V0.336021H-52.5V-0.336021ZM-21.586 -31.25V0H-20.914V-31.25H-21.586ZM-21.25 -0.336021H-52.5V0.336021H-21.25V-0.336021ZM9.66398 -31.25V0H10.336V-31.25H9.66398ZM10 -0.336021H-21.25V0.336021H10V-0.336021ZM40.914 -31.25V0H41.586V-31.25H40.914ZM41.25 -0.336021H10V0.336021H41.25V-0.336021ZM72.164 -31.25V0H72.836V-31.25H72.164ZM72.5 -0.336021H41.25V0.336021H72.5V-0.336021ZM103.414 -31.25V0H104.086V-31.25H103.414ZM103.75 -0.336021H72.5V0.336021H103.75V-0.336021ZM134.664 -31.25V0H135.336V-31.25H134.664ZM135 -0.336021H103.75V0.336021H135V-0.336021ZM165.914 -31.25V0H166.586V-31.25H165.914ZM166.25 -0.336021H135V0.336021H166.25V-0.336021ZM197.164 -31.25V0H197.836V-31.25H197.164ZM197.5 -0.336021H166.25V0.336021H197.5V-0.336021ZM228.414 -31.25V0H229.086V-31.25H228.414ZM228.75 -0.336021H197.5V0.336021H228.75V-0.336021ZM259.664 -31.25V0H260.336V-31.25H259.664ZM260 -0.336021H228.75V0.336021H260V-0.336021ZM-84.086 0V31.25H-83.414V0H-84.086ZM-83.75 30.914H-115V31.586H-83.75V30.914ZM-52.836 0V31.25H-52.164V0H-52.836ZM-52.5 30.914H-83.75V31.586H-52.5V30.914ZM-21.586 0V31.25H-20.914V0H-21.586ZM-21.25 30.914H-52.5V31.586H-21.25V30.914ZM9.66398 0V31.25H10.336V0H9.66398ZM10 30.914H-21.25V31.586H10V30.914ZM40.914 0V31.25H41.586V0H40.914ZM41.25 30.914H10V31.586H41.25V30.914ZM72.164 0V31.25H72.836V0H72.164ZM72.5 30.914H41.25V31.586H72.5V30.914ZM103.414 0V31.25H104.086V0H103.414ZM103.75 30.914H72.5V31.586H103.75V30.914ZM134.664 0V31.25H135.336V0H134.664ZM135 30.914H103.75V31.586H135V30.914ZM165.914 0V31.25H166.586V0H165.914ZM166.25 30.914H135V31.586H166.25V30.914ZM197.164 0V31.25H197.836V0H197.164ZM197.5 30.914H166.25V31.586H197.5V30.914ZM228.414 0V31.25H229.086V0H228.414ZM228.75 30.914H197.5V31.586H228.75V30.914ZM259.664 0V31.25H260.336V0H259.664ZM260 30.914H228.75V31.586H260V30.914ZM-84.086 31.25V62.5H-83.414V31.25H-84.086ZM-83.75 62.164H-115V62.836H-83.75V62.164ZM-52.836 31.25V62.5H-52.164V31.25H-52.836ZM-52.5 62.164H-83.75V62.836H-52.5V62.164ZM-21.586 31.25V62.5H-20.914V31.25H-21.586ZM-21.25 62.164H-52.5V62.836H-21.25V62.164ZM9.66398 31.25V62.5H10.336V31.25H9.66398ZM10 62.164H-21.25V62.836H10V62.164ZM40.914 31.25V62.5H41.586V31.25H40.914ZM41.25 62.164H10V62.836H41.25V62.164ZM72.164 31.25V62.5H72.836V31.25H72.164ZM72.5 62.164H41.25V62.836H72.5V62.164ZM103.414 31.25V62.5H104.086V31.25H103.414ZM103.75 62.164H72.5V62.836H103.75V62.164ZM134.664 31.25V62.5H135.336V31.25H134.664ZM135 62.164H103.75V62.836H135V62.164ZM165.914 31.25V62.5H166.586V31.25H165.914ZM166.25 62.164H135V62.836H166.25V62.164ZM197.164 31.25V62.5H197.836V31.25H197.164ZM197.5 62.164H166.25V62.836H197.5V62.164ZM228.414 31.25V62.5H229.086V31.25H228.414ZM228.75 62.164H197.5V62.836H228.75V62.164ZM259.664 31.25V62.5H260.336V31.25H259.664ZM260 62.164H228.75V62.836H260V62.164ZM-84.086 62.5V93.75H-83.414V62.5H-84.086ZM-83.75 93.414H-115V94.086H-83.75V93.414ZM-52.836 62.5V93.75H-52.164V62.5H-52.836ZM-52.5 93.414H-83.75V94.086H-52.5V93.414ZM-21.586 62.5V93.75H-20.914V62.5H-21.586ZM-21.25 93.414H-52.5V94.086H-21.25V93.414ZM9.66398 62.5V93.75H10.336V62.5H9.66398ZM10 93.414H-21.25V94.086H10V93.414ZM40.914 62.5V93.75H41.586V62.5H40.914ZM41.25 93.414H10V94.086H41.25V93.414ZM72.164 62.5V93.75H72.836V62.5H72.164ZM72.5 93.414H41.25V94.086H72.5V93.414ZM103.414 62.5V93.75H104.086V62.5H103.414ZM103.75 93.414H72.5V94.086H103.75V93.414ZM134.664 62.5V93.75H135.336V62.5H134.664ZM135 93.414H103.75V94.086H135V93.414ZM165.914 62.5V93.75H166.586V62.5H165.914ZM166.25 93.414H135V94.086H166.25V93.414ZM197.164 62.5V93.75H197.836V62.5H197.164ZM197.5 93.414H166.25V94.086H197.5V93.414ZM228.414 62.5V93.75H229.086V62.5H228.414ZM228.75 93.414H197.5V94.086H228.75V93.414ZM259.664 62.5V93.75H260.336V62.5H259.664ZM260 93.414H228.75V94.086H260V93.414ZM-84.086 93.75V125H-83.414V93.75H-84.086ZM-83.75 124.664H-115V125.336H-83.75V124.664ZM-52.836 93.75V125H-52.164V93.75H-52.836ZM-52.5 124.664H-83.75V125.336H-52.5V124.664ZM-21.586 93.75V125H-20.914V93.75H-21.586ZM-21.25 124.664H-52.5V125.336H-21.25V124.664ZM9.66398 93.75V125H10.336V93.75H9.66398ZM10 124.664H-21.25V125.336H10V124.664ZM40.914 93.75V125H41.586V93.75H40.914ZM41.25 124.664H10V125.336H41.25V124.664ZM72.164 93.75V125H72.836V93.75H72.164ZM72.5 124.664H41.25V125.336H72.5V124.664ZM103.414 93.75V125H104.086V93.75H103.414ZM103.75 124.664H72.5V125.336H103.75V124.664ZM134.664 93.75V125H135.336V93.75H134.664ZM135 124.664H103.75V125.336H135V124.664ZM165.914 93.75V125H166.586V93.75H165.914ZM166.25 124.664H135V125.336H166.25V124.664ZM197.164 93.75V125H197.836V93.75H197.164ZM197.5 124.664H166.25V125.336H197.5V124.664ZM228.414 93.75V125H229.086V93.75H228.414ZM228.75 124.664H197.5V125.336H228.75V124.664ZM259.664 93.75V125H260.336V93.75H259.664ZM260 124.664H228.75V125.336H260V124.664ZM290.914 -125V-93.75H291.586V-125H290.914ZM291.25 -94.086H260V-93.414H291.25V-94.086ZM322.164 -125V-93.75H322.836V-125H322.164ZM322.5 -94.086H291.25V-93.414H322.5V-94.086ZM353.414 -125V-93.75H354.086V-125H353.414ZM353.75 -94.086H322.5V-93.414H353.75V-94.086ZM384.664 -125V-93.75H385.336V-125H384.664ZM385 -94.086H353.75V-93.414H385V-94.086ZM415.914 -125V-93.75H416.586V-125H415.914ZM416.25 -94.086H385V-93.414H416.25V-94.086ZM447.164 -125V-93.75H447.836V-125H447.164ZM447.5 -94.086H416.25V-93.414H447.5V-94.086ZM478.414 -125V-93.75H479.086V-125H478.414ZM478.75 -94.086H447.5V-93.414H478.75V-94.086ZM509.664 -125V-93.75H510.336V-125H509.664ZM510 -94.086H478.75V-93.414H510V-94.086ZM540.914 -125V-93.75H541.586V-125H540.914ZM541.25 -94.086H510V-93.414H541.25V-94.086ZM572.164 -125V-93.75H572.836V-125H572.164ZM572.5 -94.086H541.25V-93.414H572.5V-94.086ZM603.414 -125V-93.75H604.086V-125H603.414ZM603.75 -94.086H572.5V-93.414H603.75V-94.086ZM635 -94.086H603.75V-93.414H635V-94.086ZM290.914 -93.75V-62.5H291.586V-93.75H290.914ZM291.25 -62.836H260V-62.164H291.25V-62.836ZM322.164 -93.75V-62.5H322.836V-93.75H322.164ZM322.5 -62.836H291.25V-62.164H322.5V-62.836ZM353.414 -93.75V-62.5H354.086V-93.75H353.414ZM353.75 -62.836H322.5V-62.164H353.75V-62.836ZM384.664 -93.75V-62.5H385.336V-93.75H384.664ZM385 -62.836H353.75V-62.164H385V-62.836ZM415.914 -93.75V-62.5H416.586V-93.75H415.914ZM416.25 -62.836H385V-62.164H416.25V-62.836ZM447.164 -93.75V-62.5H447.836V-93.75H447.164ZM447.5 -62.836H416.25V-62.164H447.5V-62.836ZM478.414 -93.75V-62.5H479.086V-93.75H478.414ZM478.75 -62.836H447.5V-62.164H478.75V-62.836ZM509.664 -93.75V-62.5H510.336V-93.75H509.664ZM510 -62.836H478.75V-62.164H510V-62.836ZM540.914 -93.75V-62.5H541.586V-93.75H540.914ZM541.25 -62.836H510V-62.164H541.25V-62.836ZM572.164 -93.75V-62.5H572.836V-93.75H572.164ZM572.5 -62.836H541.25V-62.164H572.5V-62.836ZM603.414 -93.75V-62.5H604.086V-93.75H603.414ZM603.75 -62.836H572.5V-62.164H603.75V-62.836ZM635 -62.836H603.75V-62.164H635V-62.836ZM290.914 -62.5V-31.25H291.586V-62.5H290.914ZM291.25 -31.586H260V-30.914H291.25V-31.586ZM322.164 -62.5V-31.25H322.836V-62.5H322.164ZM322.5 -31.586H291.25V-30.914H322.5V-31.586ZM353.414 -62.5V-31.25H354.086V-62.5H353.414ZM353.75 -31.586H322.5V-30.914H353.75V-31.586ZM384.664 -62.5V-31.25H385.336V-62.5H384.664ZM385 -31.586H353.75V-30.914H385V-31.586ZM415.914 -62.5V-31.25H416.586V-62.5H415.914ZM416.25 -31.586H385V-30.914H416.25V-31.586ZM447.164 -62.5V-31.25H447.836V-62.5H447.164ZM447.5 -31.586H416.25V-30.914H447.5V-31.586ZM478.414 -62.5V-31.25H479.086V-62.5H478.414ZM478.75 -31.586H447.5V-30.914H478.75V-31.586ZM509.664 -62.5V-31.25H510.336V-62.5H509.664ZM510 -31.586H478.75V-30.914H510V-31.586ZM540.914 -62.5V-31.25H541.586V-62.5H540.914ZM541.25 -31.586H510V-30.914H541.25V-31.586ZM572.164 -62.5V-31.25H572.836V-62.5H572.164ZM572.5 -31.586H541.25V-30.914H572.5V-31.586ZM603.414 -62.5V-31.25H604.086V-62.5H603.414ZM603.75 -31.586H572.5V-30.914H603.75V-31.586ZM635 -31.586H603.75V-30.914H635V-31.586ZM290.914 -31.25V0H291.586V-31.25H290.914ZM291.25 -0.336021H260V0.336021H291.25V-0.336021ZM322.164 -31.25V0H322.836V-31.25H322.164ZM322.5 -0.336021H291.25V0.336021H322.5V-0.336021ZM353.414 -31.25V0H354.086V-31.25H353.414ZM353.75 -0.336021H322.5V0.336021H353.75V-0.336021ZM384.664 -31.25V0H385.336V-31.25H384.664ZM385 -0.336021H353.75V0.336021H385V-0.336021ZM415.914 -31.25V0H416.586V-31.25H415.914ZM416.25 -0.336021H385V0.336021H416.25V-0.336021ZM447.164 -31.25V0H447.836V-31.25H447.164ZM447.5 -0.336021H416.25V0.336021H447.5V-0.336021ZM478.414 -31.25V0H479.086V-31.25H478.414ZM478.75 -0.336021H447.5V0.336021H478.75V-0.336021ZM509.664 -31.25V0H510.336V-31.25H509.664ZM510 -0.336021H478.75V0.336021H510V-0.336021ZM540.914 -31.25V0H541.586V-31.25H540.914ZM541.25 -0.336021H510V0.336021H541.25V-0.336021ZM572.164 -31.25V0H572.836V-31.25H572.164ZM572.5 -0.336021H541.25V0.336021H572.5V-0.336021ZM603.414 -31.25V0H604.086V-31.25H603.414ZM603.75 -0.336021H572.5V0.336021H603.75V-0.336021ZM635 -0.336021H603.75V0.336021H635V-0.336021ZM290.914 0V31.25H291.586V0H290.914ZM291.25 30.914H260V31.586H291.25V30.914ZM322.164 0V31.25H322.836V0H322.164ZM322.5 30.914H291.25V31.586H322.5V30.914ZM353.414 0V31.25H354.086V0H353.414ZM353.75 30.914H322.5V31.586H353.75V30.914ZM384.664 0V31.25H385.336V0H384.664ZM385 30.914H353.75V31.586H385V30.914ZM415.914 0V31.25H416.586V0H415.914ZM416.25 30.914H385V31.586H416.25V30.914ZM447.164 0V31.25H447.836V0H447.164ZM447.5 30.914H416.25V31.586H447.5V30.914ZM478.414 0V31.25H479.086V0H478.414ZM478.75 30.914H447.5V31.586H478.75V30.914ZM509.664 0V31.25H510.336V0H509.664ZM510 30.914H478.75V31.586H510V30.914ZM540.914 0V31.25H541.586V0H540.914ZM541.25 30.914H510V31.586H541.25V30.914ZM572.164 0V31.25H572.836V0H572.164ZM572.5 30.914H541.25V31.586H572.5V30.914ZM603.414 0V31.25H604.086V0H603.414ZM603.75 30.914H572.5V31.586H603.75V30.914ZM635 30.914H603.75V31.586H635V30.914ZM290.914 31.25V62.5H291.586V31.25H290.914ZM291.25 62.164H260V62.836H291.25V62.164ZM322.164 31.25V62.5H322.836V31.25H322.164ZM322.5 62.164H291.25V62.836H322.5V62.164ZM353.414 31.25V62.5H354.086V31.25H353.414ZM353.75 62.164H322.5V62.836H353.75V62.164ZM384.664 31.25V62.5H385.336V31.25H384.664ZM385 62.164H353.75V62.836H385V62.164ZM415.914 31.25V62.5H416.586V31.25H415.914ZM416.25 62.164H385V62.836H416.25V62.164ZM447.164 31.25V62.5H447.836V31.25H447.164ZM447.5 62.164H416.25V62.836H447.5V62.164ZM478.414 31.25V62.5H479.086V31.25H478.414ZM478.75 62.164H447.5V62.836H478.75V62.164ZM509.664 31.25V62.5H510.336V31.25H509.664ZM510 62.164H478.75V62.836H510V62.164ZM540.914 31.25V62.5H541.586V31.25H540.914ZM541.25 62.164H510V62.836H541.25V62.164ZM572.164 31.25V62.5H572.836V31.25H572.164ZM572.5 62.164H541.25V62.836H572.5V62.164ZM603.414 31.25V62.5H604.086V31.25H603.414ZM603.75 62.164H572.5V62.836H603.75V62.164ZM635 62.164H603.75V62.836H635V62.164ZM290.914 62.5V93.75H291.586V62.5H290.914ZM291.25 93.414H260V94.086H291.25V93.414ZM322.164 62.5V93.75H322.836V62.5H322.164ZM322.5 93.414H291.25V94.086H322.5V93.414ZM353.414 62.5V93.75H354.086V62.5H353.414ZM353.75 93.414H322.5V94.086H353.75V93.414ZM384.664 62.5V93.75H385.336V62.5H384.664ZM385 93.414H353.75V94.086H385V93.414ZM415.914 62.5V93.75H416.586V62.5H415.914ZM416.25 93.414H385V94.086H416.25V93.414ZM447.164 62.5V93.75H447.836V62.5H447.164ZM447.5 93.414H416.25V94.086H447.5V93.414ZM478.414 62.5V93.75H479.086V62.5H478.414ZM478.75 93.414H447.5V94.086H478.75V93.414ZM509.664 62.5V93.75H510.336V62.5H509.664ZM510 93.414H478.75V94.086H510V93.414ZM540.914 62.5V93.75H541.586V62.5H540.914ZM541.25 93.414H510V94.086H541.25V93.414ZM572.164 62.5V93.75H572.836V62.5H572.164ZM572.5 93.414H541.25V94.086H572.5V93.414ZM603.414 62.5V93.75H604.086V62.5H603.414ZM603.75 93.414H572.5V94.086H603.75V93.414ZM635 93.414H603.75V94.086H635V93.414ZM290.914 93.75V125H291.586V93.75H290.914ZM291.25 124.664H260V125.336H291.25V124.664ZM322.164 93.75V125H322.836V93.75H322.164ZM322.5 124.664H291.25V125.336H322.5V124.664ZM353.414 93.75V125H354.086V93.75H353.414ZM353.75 124.664H322.5V125.336H353.75V124.664ZM384.664 93.75V125H385.336V93.75H384.664ZM385 124.664H353.75V125.336H385V124.664ZM415.914 93.75V125H416.586V93.75H415.914ZM416.25 124.664H385V125.336H416.25V124.664ZM447.164 93.75V125H447.836V93.75H447.164ZM447.5 124.664H416.25V125.336H447.5V124.664ZM478.414 93.75V125H479.086V93.75H478.414ZM478.75 124.664H447.5V125.336H478.75V124.664ZM509.664 93.75V125H510.336V93.75H509.664ZM510 124.664H478.75V125.336H510V124.664ZM540.914 93.75V125H541.586V93.75H540.914ZM541.25 124.664H510V125.336H541.25V124.664ZM572.164 93.75V125H572.836V93.75H572.164ZM572.5 124.664H541.25V125.336H572.5V124.664ZM603.414 93.75V125H604.086V93.75H603.414ZM603.75 124.664H572.5V125.336H603.75V124.664ZM635 124.664H603.75V125.336H635V124.664ZM-84.086 125V156.25H-83.414V125H-84.086ZM-83.75 155.914H-115V156.586H-83.75V155.914ZM-52.836 125V156.25H-52.164V125H-52.836ZM-52.5 155.914H-83.75V156.586H-52.5V155.914ZM-21.586 125V156.25H-20.914V125H-21.586ZM-21.25 155.914H-52.5V156.586H-21.25V155.914ZM9.66398 125V156.25H10.336V125H9.66398ZM10 155.914H-21.25V156.586H10V155.914ZM40.914 125V156.25H41.586V125H40.914ZM41.25 155.914H10V156.586H41.25V155.914ZM72.164 125V156.25H72.836V125H72.164ZM72.5 155.914H41.25V156.586H72.5V155.914ZM103.414 125V156.25H104.086V125H103.414ZM103.75 155.914H72.5V156.586H103.75V155.914ZM134.664 125V156.25H135.336V125H134.664ZM135 155.914H103.75V156.586H135V155.914ZM165.914 125V156.25H166.586V125H165.914ZM166.25 155.914H135V156.586H166.25V155.914ZM197.164 125V156.25H197.836V125H197.164ZM197.5 155.914H166.25V156.586H197.5V155.914ZM228.414 125V156.25H229.086V125H228.414ZM228.75 155.914H197.5V156.586H228.75V155.914ZM259.664 125V156.25H260.336V125H259.664ZM260 155.914H228.75V156.586H260V155.914ZM-84.086 156.25V187.5H-83.414V156.25H-84.086ZM-83.75 187.164H-115V187.836H-83.75V187.164ZM-52.836 156.25V187.5H-52.164V156.25H-52.836ZM-52.5 187.164H-83.75V187.836H-52.5V187.164ZM-21.586 156.25V187.5H-20.914V156.25H-21.586ZM-21.25 187.164H-52.5V187.836H-21.25V187.164ZM9.66398 156.25V187.5H10.336V156.25H9.66398ZM10 187.164H-21.25V187.836H10V187.164ZM40.914 156.25V187.5H41.586V156.25H40.914ZM41.25 187.164H10V187.836H41.25V187.164ZM72.164 156.25V187.5H72.836V156.25H72.164ZM72.5 187.164H41.25V187.836H72.5V187.164ZM103.414 156.25V187.5H104.086V156.25H103.414ZM103.75 187.164H72.5V187.836H103.75V187.164ZM134.664 156.25V187.5H135.336V156.25H134.664ZM135 187.164H103.75V187.836H135V187.164ZM165.914 156.25V187.5H166.586V156.25H165.914ZM166.25 187.164H135V187.836H166.25V187.164ZM197.164 156.25V187.5H197.836V156.25H197.164ZM197.5 187.164H166.25V187.836H197.5V187.164ZM228.414 156.25V187.5H229.086V156.25H228.414ZM228.75 187.164H197.5V187.836H228.75V187.164ZM259.664 156.25V187.5H260.336V156.25H259.664ZM260 187.164H228.75V187.836H260V187.164ZM-84.086 187.5V218.75H-83.414V187.5H-84.086ZM-83.75 218.414H-115V219.086H-83.75V218.414ZM-52.836 187.5V218.75H-52.164V187.5H-52.836ZM-52.5 218.414H-83.75V219.086H-52.5V218.414ZM-21.586 187.5V218.75H-20.914V187.5H-21.586ZM-21.25 218.414H-52.5V219.086H-21.25V218.414ZM9.66398 187.5V218.75H10.336V187.5H9.66398ZM10 218.414H-21.25V219.086H10V218.414ZM40.914 187.5V218.75H41.586V187.5H40.914ZM41.25 218.414H10V219.086H41.25V218.414ZM72.164 187.5V218.75H72.836V187.5H72.164ZM72.5 218.414H41.25V219.086H72.5V218.414ZM103.414 187.5V218.75H104.086V187.5H103.414ZM103.75 218.414H72.5V219.086H103.75V218.414ZM134.664 187.5V218.75H135.336V187.5H134.664ZM135 218.414H103.75V219.086H135V218.414ZM165.914 187.5V218.75H166.586V187.5H165.914ZM166.25 218.414H135V219.086H166.25V218.414ZM197.164 187.5V218.75H197.836V187.5H197.164ZM197.5 218.414H166.25V219.086H197.5V218.414ZM228.414 187.5V218.75H229.086V187.5H228.414ZM228.75 218.414H197.5V219.086H228.75V218.414ZM259.664 187.5V218.75H260.336V187.5H259.664ZM260 218.414H228.75V219.086H260V218.414ZM-84.086 218.75V250H-83.414V218.75H-84.086ZM-83.75 249.664H-115V250.336H-83.75V249.664ZM-52.836 218.75V250H-52.164V218.75H-52.836ZM-52.5 249.664H-83.75V250.336H-52.5V249.664ZM-21.586 218.75V250H-20.914V218.75H-21.586ZM-21.25 249.664H-52.5V250.336H-21.25V249.664ZM9.66398 218.75V250H10.336V218.75H9.66398ZM10 249.664H-21.25V250.336H10V249.664ZM40.914 218.75V250H41.586V218.75H40.914ZM41.25 249.664H10V250.336H41.25V249.664ZM72.164 218.75V250H72.836V218.75H72.164ZM72.5 249.664H41.25V250.336H72.5V249.664ZM103.414 218.75V250H104.086V218.75H103.414ZM103.75 249.664H72.5V250.336H103.75V249.664ZM134.664 218.75V250H135.336V218.75H134.664ZM135 249.664H103.75V250.336H135V249.664ZM165.914 218.75V250H166.586V218.75H165.914ZM166.25 249.664H135V250.336H166.25V249.664ZM197.164 218.75V250H197.836V218.75H197.164ZM197.5 249.664H166.25V250.336H197.5V249.664ZM228.414 218.75V250H229.086V218.75H228.414ZM228.75 249.664H197.5V250.336H228.75V249.664ZM259.664 218.75V250H260.336V218.75H259.664ZM260 249.664H228.75V250.336H260V249.664ZM-84.086 250V281.25H-83.414V250H-84.086ZM-83.75 280.914H-115V281.586H-83.75V280.914ZM-52.836 250V281.25H-52.164V250H-52.836ZM-52.5 280.914H-83.75V281.586H-52.5V280.914ZM-21.586 250V281.25H-20.914V250H-21.586ZM-21.25 280.914H-52.5V281.586H-21.25V280.914ZM9.66398 250V281.25H10.336V250H9.66398ZM10 280.914H-21.25V281.586H10V280.914ZM40.914 250V281.25H41.586V250H40.914ZM41.25 280.914H10V281.586H41.25V280.914ZM72.164 250V281.25H72.836V250H72.164ZM72.5 280.914H41.25V281.586H72.5V280.914ZM103.414 250V281.25H104.086V250H103.414ZM103.75 280.914H72.5V281.586H103.75V280.914ZM134.664 250V281.25H135.336V250H134.664ZM135 280.914H103.75V281.586H135V280.914ZM165.914 250V281.25H166.586V250H165.914ZM166.25 280.914H135V281.586H166.25V280.914ZM197.164 250V281.25H197.836V250H197.164ZM197.5 280.914H166.25V281.586H197.5V280.914ZM228.414 250V281.25H229.086V250H228.414ZM228.75 280.914H197.5V281.586H228.75V280.914ZM259.664 250V281.25H260.336V250H259.664ZM260 280.914H228.75V281.586H260V280.914ZM-84.086 281.25V312.5H-83.414V281.25H-84.086ZM-83.75 312.164H-115V312.836H-83.75V312.164ZM-52.836 281.25V312.5H-52.164V281.25H-52.836ZM-52.5 312.164H-83.75V312.836H-52.5V312.164ZM-21.586 281.25V312.5H-20.914V281.25H-21.586ZM-21.25 312.164H-52.5V312.836H-21.25V312.164ZM9.66398 281.25V312.5H10.336V281.25H9.66398ZM10 312.164H-21.25V312.836H10V312.164ZM40.914 281.25V312.5H41.586V281.25H40.914ZM41.25 312.164H10V312.836H41.25V312.164ZM72.164 281.25V312.5H72.836V281.25H72.164ZM72.5 312.164H41.25V312.836H72.5V312.164ZM103.414 281.25V312.5H104.086V281.25H103.414ZM103.75 312.164H72.5V312.836H103.75V312.164ZM134.664 281.25V312.5H135.336V281.25H134.664ZM135 312.164H103.75V312.836H135V312.164ZM165.914 281.25V312.5H166.586V281.25H165.914ZM166.25 312.164H135V312.836H166.25V312.164ZM197.164 281.25V312.5H197.836V281.25H197.164ZM197.5 312.164H166.25V312.836H197.5V312.164ZM228.414 281.25V312.5H229.086V281.25H228.414ZM228.75 312.164H197.5V312.836H228.75V312.164ZM259.664 281.25V312.5H260.336V281.25H259.664ZM260 312.164H228.75V312.836H260V312.164ZM-84.086 312.5V343.75H-83.414V312.5H-84.086ZM-83.75 343.414H-115V344.086H-83.75V343.414ZM-52.836 312.5V343.75H-52.164V312.5H-52.836ZM-52.5 343.414H-83.75V344.086H-52.5V343.414ZM-21.586 312.5V343.75H-20.914V312.5H-21.586ZM-21.25 343.414H-52.5V344.086H-21.25V343.414ZM9.66398 312.5V343.75H10.336V312.5H9.66398ZM10 343.414H-21.25V344.086H10V343.414ZM40.914 312.5V343.75H41.586V312.5H40.914ZM41.25 343.414H10V344.086H41.25V343.414ZM72.164 312.5V343.75H72.836V312.5H72.164ZM72.5 343.414H41.25V344.086H72.5V343.414ZM103.414 312.5V343.75H104.086V312.5H103.414ZM103.75 343.414H72.5V344.086H103.75V343.414ZM134.664 312.5V343.75H135.336V312.5H134.664ZM135 343.414H103.75V344.086H135V343.414ZM165.914 312.5V343.75H166.586V312.5H165.914ZM166.25 343.414H135V344.086H166.25V343.414ZM197.164 312.5V343.75H197.836V312.5H197.164ZM197.5 343.414H166.25V344.086H197.5V343.414ZM228.414 312.5V343.75H229.086V312.5H228.414ZM228.75 343.414H197.5V344.086H228.75V343.414ZM259.664 312.5V343.75H260.336V312.5H259.664ZM260 343.414H228.75V344.086H260V343.414ZM-84.086 343.75V375H-83.414V343.75H-84.086ZM-52.836 343.75V375H-52.164V343.75H-52.836ZM-21.586 343.75V375H-20.914V343.75H-21.586ZM9.66398 343.75V375H10.336V343.75H9.66398ZM40.914 343.75V375H41.586V343.75H40.914ZM72.164 343.75V375H72.836V343.75H72.164ZM103.414 343.75V375H104.086V343.75H103.414ZM134.664 343.75V375H135.336V343.75H134.664ZM165.914 343.75V375H166.586V343.75H165.914ZM197.164 343.75V375H197.836V343.75H197.164ZM228.414 343.75V375H229.086V343.75H228.414ZM259.664 343.75V375H260.336V343.75H259.664ZM290.914 125V156.25H291.586V125H290.914ZM291.25 155.914H260V156.586H291.25V155.914ZM322.164 125V156.25H322.836V125H322.164ZM322.5 155.914H291.25V156.586H322.5V155.914ZM353.414 125V156.25H354.086V125H353.414ZM353.75 155.914H322.5V156.586H353.75V155.914ZM384.664 125V156.25H385.336V125H384.664ZM385 155.914H353.75V156.586H385V155.914ZM415.914 125V156.25H416.586V125H415.914ZM416.25 155.914H385V156.586H416.25V155.914ZM447.164 125V156.25H447.836V125H447.164ZM447.5 155.914H416.25V156.586H447.5V155.914ZM478.414 125V156.25H479.086V125H478.414ZM478.75 155.914H447.5V156.586H478.75V155.914ZM509.664 125V156.25H510.336V125H509.664ZM510 155.914H478.75V156.586H510V155.914ZM540.914 125V156.25H541.586V125H540.914ZM541.25 155.914H510V156.586H541.25V155.914ZM572.164 125V156.25H572.836V125H572.164ZM572.5 155.914H541.25V156.586H572.5V155.914ZM603.414 125V156.25H604.086V125H603.414ZM603.75 155.914H572.5V156.586H603.75V155.914ZM635 155.914H603.75V156.586H635V155.914ZM290.914 156.25V187.5H291.586V156.25H290.914ZM291.25 187.164H260V187.836H291.25V187.164ZM322.164 156.25V187.5H322.836V156.25H322.164ZM322.5 187.164H291.25V187.836H322.5V187.164ZM353.414 156.25V187.5H354.086V156.25H353.414ZM353.75 187.164H322.5V187.836H353.75V187.164ZM384.664 156.25V187.5H385.336V156.25H384.664ZM385 187.164H353.75V187.836H385V187.164ZM415.914 156.25V187.5H416.586V156.25H415.914ZM416.25 187.164H385V187.836H416.25V187.164ZM447.164 156.25V187.5H447.836V156.25H447.164ZM447.5 187.164H416.25V187.836H447.5V187.164ZM478.414 156.25V187.5H479.086V156.25H478.414ZM478.75 187.164H447.5V187.836H478.75V187.164ZM509.664 156.25V187.5H510.336V156.25H509.664ZM510 187.164H478.75V187.836H510V187.164ZM540.914 156.25V187.5H541.586V156.25H540.914ZM541.25 187.164H510V187.836H541.25V187.164ZM572.164 156.25V187.5H572.836V156.25H572.164ZM572.5 187.164H541.25V187.836H572.5V187.164ZM603.414 156.25V187.5H604.086V156.25H603.414ZM603.75 187.164H572.5V187.836H603.75V187.164ZM635 187.164H603.75V187.836H635V187.164ZM290.914 187.5V218.75H291.586V187.5H290.914ZM291.25 218.414H260V219.086H291.25V218.414ZM322.164 187.5V218.75H322.836V187.5H322.164ZM322.5 218.414H291.25V219.086H322.5V218.414ZM353.414 187.5V218.75H354.086V187.5H353.414ZM353.75 218.414H322.5V219.086H353.75V218.414ZM384.664 187.5V218.75H385.336V187.5H384.664ZM385 218.414H353.75V219.086H385V218.414ZM415.914 187.5V218.75H416.586V187.5H415.914ZM416.25 218.414H385V219.086H416.25V218.414ZM447.164 187.5V218.75H447.836V187.5H447.164ZM447.5 218.414H416.25V219.086H447.5V218.414ZM478.414 187.5V218.75H479.086V187.5H478.414ZM478.75 218.414H447.5V219.086H478.75V218.414ZM509.664 187.5V218.75H510.336V187.5H509.664ZM510 218.414H478.75V219.086H510V218.414ZM540.914 187.5V218.75H541.586V187.5H540.914ZM541.25 218.414H510V219.086H541.25V218.414ZM572.164 187.5V218.75H572.836V187.5H572.164ZM572.5 218.414H541.25V219.086H572.5V218.414ZM603.414 187.5V218.75H604.086V187.5H603.414ZM603.75 218.414H572.5V219.086H603.75V218.414ZM635 218.414H603.75V219.086H635V218.414ZM290.914 218.75V250H291.586V218.75H290.914ZM291.25 249.664H260V250.336H291.25V249.664ZM322.164 218.75V250H322.836V218.75H322.164ZM322.5 249.664H291.25V250.336H322.5V249.664ZM353.414 218.75V250H354.086V218.75H353.414ZM353.75 249.664H322.5V250.336H353.75V249.664ZM384.664 218.75V250H385.336V218.75H384.664ZM385 249.664H353.75V250.336H385V249.664ZM415.914 218.75V250H416.586V218.75H415.914ZM416.25 249.664H385V250.336H416.25V249.664ZM447.164 218.75V250H447.836V218.75H447.164ZM447.5 249.664H416.25V250.336H447.5V249.664ZM478.414 218.75V250H479.086V218.75H478.414ZM478.75 249.664H447.5V250.336H478.75V249.664ZM509.664 218.75V250H510.336V218.75H509.664ZM510 249.664H478.75V250.336H510V249.664ZM540.914 218.75V250H541.586V218.75H540.914ZM541.25 249.664H510V250.336H541.25V249.664ZM572.164 218.75V250H572.836V218.75H572.164ZM572.5 249.664H541.25V250.336H572.5V249.664ZM603.414 218.75V250H604.086V218.75H603.414ZM603.75 249.664H572.5V250.336H603.75V249.664ZM635 249.664H603.75V250.336H635V249.664ZM290.914 250V281.25H291.586V250H290.914ZM291.25 280.914H260V281.586H291.25V280.914ZM322.164 250V281.25H322.836V250H322.164ZM322.5 280.914H291.25V281.586H322.5V280.914ZM353.414 250V281.25H354.086V250H353.414ZM353.75 280.914H322.5V281.586H353.75V280.914ZM384.664 250V281.25H385.336V250H384.664ZM385 280.914H353.75V281.586H385V280.914ZM415.914 250V281.25H416.586V250H415.914ZM416.25 280.914H385V281.586H416.25V280.914ZM447.164 250V281.25H447.836V250H447.164ZM447.5 280.914H416.25V281.586H447.5V280.914ZM478.414 250V281.25H479.086V250H478.414ZM478.75 280.914H447.5V281.586H478.75V280.914ZM509.664 250V281.25H510.336V250H509.664ZM510 280.914H478.75V281.586H510V280.914ZM540.914 250V281.25H541.586V250H540.914ZM541.25 280.914H510V281.586H541.25V280.914ZM572.164 250V281.25H572.836V250H572.164ZM572.5 280.914H541.25V281.586H572.5V280.914ZM603.414 250V281.25H604.086V250H603.414ZM603.75 280.914H572.5V281.586H603.75V280.914ZM635 280.914H603.75V281.586H635V280.914ZM290.914 281.25V312.5H291.586V281.25H290.914ZM291.25 312.164H260V312.836H291.25V312.164ZM322.164 281.25V312.5H322.836V281.25H322.164ZM322.5 312.164H291.25V312.836H322.5V312.164ZM353.414 281.25V312.5H354.086V281.25H353.414ZM353.75 312.164H322.5V312.836H353.75V312.164ZM384.664 281.25V312.5H385.336V281.25H384.664ZM385 312.164H353.75V312.836H385V312.164ZM415.914 281.25V312.5H416.586V281.25H415.914ZM416.25 312.164H385V312.836H416.25V312.164ZM447.164 281.25V312.5H447.836V281.25H447.164ZM447.5 312.164H416.25V312.836H447.5V312.164ZM478.414 281.25V312.5H479.086V281.25H478.414ZM478.75 312.164H447.5V312.836H478.75V312.164ZM509.664 281.25V312.5H510.336V281.25H509.664ZM510 312.164H478.75V312.836H510V312.164ZM540.914 281.25V312.5H541.586V281.25H540.914ZM541.25 312.164H510V312.836H541.25V312.164ZM572.164 281.25V312.5H572.836V281.25H572.164ZM572.5 312.164H541.25V312.836H572.5V312.164ZM603.414 281.25V312.5H604.086V281.25H603.414ZM603.75 312.164H572.5V312.836H603.75V312.164ZM635 312.164H603.75V312.836H635V312.164ZM290.914 312.5V343.75H291.586V312.5H290.914ZM291.25 343.414H260V344.086H291.25V343.414ZM322.164 312.5V343.75H322.836V312.5H322.164ZM322.5 343.414H291.25V344.086H322.5V343.414ZM353.414 312.5V343.75H354.086V312.5H353.414ZM353.75 343.414H322.5V344.086H353.75V343.414ZM384.664 312.5V343.75H385.336V312.5H384.664ZM385 343.414H353.75V344.086H385V343.414ZM415.914 312.5V343.75H416.586V312.5H415.914ZM416.25 343.414H385V344.086H416.25V343.414ZM447.164 312.5V343.75H447.836V312.5H447.164ZM447.5 343.414H416.25V344.086H447.5V343.414ZM478.414 312.5V343.75H479.086V312.5H478.414ZM478.75 343.414H447.5V344.086H478.75V343.414ZM509.664 312.5V343.75H510.336V312.5H509.664ZM510 343.414H478.75V344.086H510V343.414ZM540.914 312.5V343.75H541.586V312.5H540.914ZM541.25 343.414H510V344.086H541.25V343.414ZM572.164 312.5V343.75H572.836V312.5H572.164ZM572.5 343.414H541.25V344.086H572.5V343.414ZM603.414 312.5V343.75H604.086V312.5H603.414ZM603.75 343.414H572.5V344.086H603.75V343.414ZM635 343.414H603.75V344.086H635V343.414ZM290.914 343.75V375H291.586V343.75H290.914ZM322.164 343.75V375H322.836V343.75H322.164ZM353.414 343.75V375H354.086V343.75H353.414ZM384.664 343.75V375H385.336V343.75H384.664ZM415.914 343.75V375H416.586V343.75H415.914ZM447.164 343.75V375H447.836V343.75H447.164ZM478.414 343.75V375H479.086V343.75H478.414ZM509.664 343.75V375H510.336V343.75H509.664ZM540.914 343.75V375H541.586V343.75H540.914ZM572.164 343.75V375H572.836V343.75H572.164ZM603.414 343.75V375H604.086V343.75H603.414ZM-115 -125V-125.672H-115.672V-125H-115ZM635 -125H635.672V-125.672H635V-125ZM-115 375H-115.672V375.672H-115V375ZM635 375V375.672H635.672V375H635ZM-115 -124.328H-83.75V-125.672H-115V-124.328ZM-114.328 -93.75V-125H-115.672V-93.75H-114.328ZM-83.75 -124.328H-52.5V-125.672H-83.75V-124.328ZM-52.5 -124.328H-21.25V-125.672H-52.5V-124.328ZM-21.25 -124.328H10V-125.672H-21.25V-124.328ZM10 -124.328H41.25V-125.672H10V-124.328ZM41.25 -124.328H72.5V-125.672H41.25V-124.328ZM72.5 -124.328H103.75V-125.672H72.5V-124.328ZM103.75 -124.328H135V-125.672H103.75V-124.328ZM135 -124.328H166.25V-125.672H135V-124.328ZM166.25 -124.328H197.5V-125.672H166.25V-124.328ZM197.5 -124.328H228.75V-125.672H197.5V-124.328ZM228.75 -124.328H260V-125.672H228.75V-124.328ZM-114.328 -62.5V-93.75H-115.672V-62.5H-114.328ZM-114.328 -31.25V-62.5H-115.672V-31.25H-114.328ZM-114.328 0V-31.25H-115.672V0H-114.328ZM-114.328 31.25V0H-115.672V31.25H-114.328ZM-114.328 62.5V31.25H-115.672V62.5H-114.328ZM-114.328 93.75V62.5H-115.672V93.75H-114.328ZM-114.328 125V93.75H-115.672V125H-114.328ZM260 -124.328H291.25V-125.672H260V-124.328ZM291.25 -124.328H322.5V-125.672H291.25V-124.328ZM322.5 -124.328H353.75V-125.672H322.5V-124.328ZM353.75 -124.328H385V-125.672H353.75V-124.328ZM385 -124.328H416.25V-125.672H385V-124.328ZM416.25 -124.328H447.5V-125.672H416.25V-124.328ZM447.5 -124.328H478.75V-125.672H447.5V-124.328ZM478.75 -124.328H510V-125.672H478.75V-124.328ZM510 -124.328H541.25V-125.672H510V-124.328ZM541.25 -124.328H572.5V-125.672H541.25V-124.328ZM572.5 -124.328H603.75V-125.672H572.5V-124.328ZM603.75 -124.328H635V-125.672H603.75V-124.328ZM634.328 -125V-93.75H635.672V-125H634.328ZM634.328 -93.75V-62.5H635.672V-93.75H634.328ZM634.328 -62.5V-31.25H635.672V-62.5H634.328ZM634.328 -31.25V0H635.672V-31.25H634.328ZM634.328 0V31.25H635.672V0H634.328ZM634.328 31.25V62.5H635.672V31.25H634.328ZM634.328 62.5V93.75H635.672V62.5H634.328ZM634.328 93.75V125H635.672V93.75H634.328ZM-114.328 156.25V125H-115.672V156.25H-114.328ZM-114.328 187.5V156.25H-115.672V187.5H-114.328ZM-114.328 218.75V187.5H-115.672V218.75H-114.328ZM-114.328 250V218.75H-115.672V250H-114.328ZM-114.328 281.25V250H-115.672V281.25H-114.328ZM-114.328 312.5V281.25H-115.672V312.5H-114.328ZM-114.328 343.75V312.5H-115.672V343.75H-114.328ZM-83.75 374.328H-115V375.672H-83.75V374.328ZM-114.328 375V343.75H-115.672V375H-114.328ZM-52.5 374.328H-83.75V375.672H-52.5V374.328ZM-21.25 374.328H-52.5V375.672H-21.25V374.328ZM10 374.328H-21.25V375.672H10V374.328ZM41.25 374.328H10V375.672H41.25V374.328ZM72.5 374.328H41.25V375.672H72.5V374.328ZM103.75 374.328H72.5V375.672H103.75V374.328ZM135 374.328H103.75V375.672H135V374.328ZM166.25 374.328H135V375.672H166.25V374.328ZM197.5 374.328H166.25V375.672H197.5V374.328ZM228.75 374.328H197.5V375.672H228.75V374.328ZM260 374.328H228.75V375.672H260V374.328ZM634.328 125V156.25H635.672V125H634.328ZM634.328 156.25V187.5H635.672V156.25H634.328ZM634.328 187.5V218.75H635.672V187.5H634.328ZM634.328 218.75V250H635.672V218.75H634.328ZM634.328 250V281.25H635.672V250H634.328ZM634.328 281.25V312.5H635.672V281.25H634.328ZM634.328 312.5V343.75H635.672V312.5H634.328ZM291.25 374.328H260V375.672H291.25V374.328ZM322.5 374.328H291.25V375.672H322.5V374.328ZM353.75 374.328H322.5V375.672H353.75V374.328ZM385 374.328H353.75V375.672H385V374.328ZM416.25 374.328H385V375.672H416.25V374.328ZM447.5 374.328H416.25V375.672H447.5V374.328ZM478.75 374.328H447.5V375.672H478.75V374.328ZM510 374.328H478.75V375.672H510V374.328ZM541.25 374.328H510V375.672H541.25V374.328ZM572.5 374.328H541.25V375.672H572.5V374.328ZM603.75 374.328H572.5V375.672H603.75V374.328ZM634.328 343.75V375H635.672V343.75H634.328ZM635 374.328H603.75V375.672H635V374.328Z" fill="url(#paint0_radial_24783_146995)" mask="url(#path-1-inside-1_24783_146995)"/>
<rect x="353" y="31" width="32" height="32" fill="#0F80F0" fill-opacity="0.04"/>
<rect x="134" width="32" height="32" fill="#0F80F0" fill-opacity="0.04"/>
</g>
<defs>
<radialGradient id="paint0_radial_24783_146995" cx="0" cy="0" r="1" gradientUnits="userSpaceOnUse" gradientTransform="translate(260 -237) rotate(90) scale(346 519)">
<stop stop-color="#0F80F0" stop-opacity="0.6"/>
<stop offset="1" stop-color="#0F80F0" stop-opacity="0"/>
</radialGradient>
<clipPath id="clip0_24783_146995">
<rect width="520" height="375" fill="white"/>
</clipPath>
</defs>
</svg>
