<svg width="250" height="250" viewBox="0 0 250 250" fill="none" xmlns="http://www.w3.org/2000/svg">
<circle cx="125" cy="125" r="15.9396" stroke="white" stroke-opacity="0.6" stroke-width="0.120846"/>
<circle cx="125" cy="125" r="39.9396" stroke="white" stroke-opacity="0.6" stroke-width="0.120846"/>
<circle cx="125" cy="125" r="31.9396" stroke="white" stroke-opacity="0.6" stroke-width="0.120846"/>
<path d="M149 125C149 138.255 138.255 149 125 149C111.745 149 101 138.255 101 125C101 111.745 111.745 101 125 101C138.255 101 149 111.745 149 125ZM103.806 125C103.806 136.705 113.295 146.194 125 146.194C136.705 146.194 146.194 136.705 146.194 125C146.194 113.295 136.705 103.806 125 103.806C113.295 103.806 103.806 113.295 103.806 125Z" fill="url(#paint0_radial_12151_23634)"/>
<defs>
<radialGradient id="paint0_radial_12151_23634" cx="0" cy="0" r="1" gradientUnits="userSpaceOnUse" gradientTransform="translate(125 125) rotate(90) scale(24)">
<stop offset="0.87" stop-color="white" stop-opacity="0"/>
<stop offset="1" stop-color="white" stop-opacity="0.5"/>
</radialGradient>
</defs>
</svg>
