<svg width="250" height="250" viewBox="0 0 250 250" fill="none" xmlns="http://www.w3.org/2000/svg">
<circle cx="125" cy="125" r="3.98489" stroke="white" stroke-opacity="0.6" stroke-width="0.0302115"/>
<circle cx="125" cy="125" r="9.98489" stroke="white" stroke-opacity="0.6" stroke-width="0.0302115"/>
<circle cx="125" cy="125" r="7.98489" stroke="white" stroke-opacity="0.6" stroke-width="0.0302115"/>
<path d="M131 125C131 128.314 128.314 131 125 131C121.686 131 119 128.314 119 125C119 121.686 121.686 119 125 119C128.314 119 131 121.686 131 125ZM119.702 125C119.702 127.926 122.074 130.298 125 130.298C127.926 130.298 130.298 127.926 130.298 125C130.298 122.074 127.926 119.702 125 119.702C122.074 119.702 119.702 122.074 119.702 125Z" fill="url(#paint0_radial_12151_23632)"/>
<defs>
<radialGradient id="paint0_radial_12151_23632" cx="0" cy="0" r="1" gradientUnits="userSpaceOnUse" gradientTransform="translate(125 125) rotate(90) scale(6)">
<stop offset="0.87" stop-color="white" stop-opacity="0"/>
<stop offset="1" stop-color="white" stop-opacity="0.5"/>
</radialGradient>
</defs>
</svg>
