<svg width="1297" height="972" viewBox="0 0 1297 972" fill="none" xmlns="http://www.w3.org/2000/svg">
<mask id="path-1-inside-1_11311_72837" fill="white">
<path d="M0.5 0H108.5V108H0.5V0Z"/>
<path d="M108.5 0H216.5V108H108.5V0Z"/>
<path d="M216.5 0H324.5V108H216.5V0Z"/>
<path d="M324.5 0H432.5V108H324.5V0Z"/>
<path d="M432.5 0H540.5V108H432.5V0Z"/>
<path d="M540.5 0H648.5V108H540.5V0Z"/>
<path d="M648.5 0H756.5V108H648.5V0Z"/>
<path d="M756.5 0H864.5V108H756.5V0Z"/>
<path d="M864.5 0H972.5V108H864.5V0Z"/>
<path d="M972.5 0H1080.5V108H972.5V0Z"/>
<path d="M1080.5 0H1188.5V108H1080.5V0Z"/>
<path d="M1188.5 0H1296.5V108H1188.5V0Z"/>
<path d="M0.5 108H108.5V216H0.5V108Z"/>
<path d="M108.5 108H216.5V216H108.5V108Z"/>
<path d="M216.5 108H324.5V216H216.5V108Z"/>
<path d="M324.5 108H432.5V216H324.5V108Z"/>
<path d="M432.5 108H540.5V216H432.5V108Z"/>
<path d="M540.5 108H648.5V216H540.5V108Z"/>
<path d="M648.5 108H756.5V216H648.5V108Z"/>
<path d="M756.5 108H864.5V216H756.5V108Z"/>
<path d="M864.5 108H972.5V216H864.5V108Z"/>
<path d="M972.5 108H1080.5V216H972.5V108Z"/>
<path d="M1080.5 108H1188.5V216H1080.5V108Z"/>
<path d="M1188.5 108H1296.5V216H1188.5V108Z"/>
<path d="M0.5 216H108.5V324H0.5V216Z"/>
<path d="M108.5 216H216.5V324H108.5V216Z"/>
<path d="M216.5 216H324.5V324H216.5V216Z"/>
<path d="M324.5 216H432.5V324H324.5V216Z"/>
<path d="M432.5 216H540.5V324H432.5V216Z"/>
<path d="M540.5 216H648.5V324H540.5V216Z"/>
<path d="M648.5 216H756.5V324H648.5V216Z"/>
<path d="M756.5 216H864.5V324H756.5V216Z"/>
<path d="M864.5 216H972.5V324H864.5V216Z"/>
<path d="M972.5 216H1080.5V324H972.5V216Z"/>
<path d="M1080.5 216H1188.5V324H1080.5V216Z"/>
<path d="M1188.5 216H1296.5V324H1188.5V216Z"/>
<path d="M0.5 324H108.5V432H0.5V324Z"/>
<path d="M108.5 324H216.5V432H108.5V324Z"/>
<path d="M216.5 324H324.5V432H216.5V324Z"/>
<path d="M324.5 324H432.5V432H324.5V324Z"/>
<path d="M432.5 324H540.5V432H432.5V324Z"/>
<path d="M540.5 324H648.5V432H540.5V324Z"/>
<path d="M648.5 324H756.5V432H648.5V324Z"/>
<path d="M756.5 324H864.5V432H756.5V324Z"/>
<path d="M864.5 324H972.5V432H864.5V324Z"/>
<path d="M972.5 324H1080.5V432H972.5V324Z"/>
<path d="M1080.5 324H1188.5V432H1080.5V324Z"/>
<path d="M1188.5 324H1296.5V432H1188.5V324Z"/>
<path d="M0.5 432H108.5V540H0.5V432Z"/>
<path d="M108.5 432H216.5V540H108.5V432Z"/>
<path d="M216.5 432H324.5V540H216.5V432Z"/>
<path d="M324.5 432H432.5V540H324.5V432Z"/>
<path d="M432.5 432H540.5V540H432.5V432Z"/>
<path d="M540.5 432H648.5V540H540.5V432Z"/>
<path d="M648.5 432H756.5V540H648.5V432Z"/>
<path d="M756.5 432H864.5V540H756.5V432Z"/>
<path d="M864.5 432H972.5V540H864.5V432Z"/>
<path d="M972.5 432H1080.5V540H972.5V432Z"/>
<path d="M1080.5 432H1188.5V540H1080.5V432Z"/>
<path d="M1188.5 432H1296.5V540H1188.5V432Z"/>
<path d="M0.5 540H108.5V648H0.5V540Z"/>
<path d="M108.5 540H216.5V648H108.5V540Z"/>
<path d="M216.5 540H324.5V648H216.5V540Z"/>
<path d="M324.5 540H432.5V648H324.5V540Z"/>
<path d="M432.5 540H540.5V648H432.5V540Z"/>
<path d="M540.5 540H648.5V648H540.5V540Z"/>
<path d="M648.5 540H756.5V648H648.5V540Z"/>
<path d="M756.5 540H864.5V648H756.5V540Z"/>
<path d="M864.5 540H972.5V648H864.5V540Z"/>
<path d="M972.5 540H1080.5V648H972.5V540Z"/>
<path d="M1080.5 540H1188.5V648H1080.5V540Z"/>
<path d="M1188.5 540H1296.5V648H1188.5V540Z"/>
<path d="M0.5 648H108.5V756H0.5V648Z"/>
<path d="M108.5 648H216.5V756H108.5V648Z"/>
<path d="M216.5 648H324.5V756H216.5V648Z"/>
<path d="M324.5 648H432.5V756H324.5V648Z"/>
<path d="M432.5 648H540.5V756H432.5V648Z"/>
<path d="M540.5 648H648.5V756H540.5V648Z"/>
<path d="M648.5 648H756.5V756H648.5V648Z"/>
<path d="M756.5 648H864.5V756H756.5V648Z"/>
<path d="M864.5 648H972.5V756H864.5V648Z"/>
<path d="M972.5 648H1080.5V756H972.5V648Z"/>
<path d="M1080.5 648H1188.5V756H1080.5V648Z"/>
<path d="M1188.5 648H1296.5V756H1188.5V648Z"/>
<path d="M0.5 756H108.5V864H0.5V756Z"/>
<path d="M108.5 756H216.5V864H108.5V756Z"/>
<path d="M216.5 756H324.5V864H216.5V756Z"/>
<path d="M324.5 756H432.5V864H324.5V756Z"/>
<path d="M432.5 756H540.5V864H432.5V756Z"/>
<path d="M540.5 756H648.5V864H540.5V756Z"/>
<path d="M648.5 756H756.5V864H648.5V756Z"/>
<path d="M756.5 756H864.5V864H756.5V756Z"/>
<path d="M864.5 756H972.5V864H864.5V756Z"/>
<path d="M972.5 756H1080.5V864H972.5V756Z"/>
<path d="M1080.5 756H1188.5V864H1080.5V756Z"/>
<path d="M1188.5 756H1296.5V864H1188.5V756Z"/>
<path d="M0.5 864H108.5V972H0.5V864Z"/>
<path d="M108.5 864H216.5V972H108.5V864Z"/>
<path d="M216.5 864H324.5V972H216.5V864Z"/>
<path d="M324.5 864H432.5V972H324.5V864Z"/>
<path d="M432.5 864H540.5V972H432.5V864Z"/>
<path d="M540.5 864H648.5V972H540.5V864Z"/>
<path d="M648.5 864H756.5V972H648.5V864Z"/>
<path d="M756.5 864H864.5V972H756.5V864Z"/>
<path d="M864.5 864H972.5V972H864.5V864Z"/>
<path d="M972.5 864H1080.5V972H972.5V864Z"/>
<path d="M1080.5 864H1188.5V972H1080.5V864Z"/>
<path d="M1188.5 864H1296.5V972H1188.5V864Z"/>
</mask>
<path d="M108 0V108H109V0H108ZM108.5 107.5H0.5V108.5H108.5V107.5ZM216 0V108H217V0H216ZM216.5 107.5H108.5V108.5H216.5V107.5ZM324 0V108H325V0H324ZM324.5 107.5H216.5V108.5H324.5V107.5ZM432 0V108H433V0H432ZM432.5 107.5H324.5V108.5H432.5V107.5ZM540 0V108H541V0H540ZM540.5 107.5H432.5V108.5H540.5V107.5ZM648 0V108H649V0H648ZM648.5 107.5H540.5V108.5H648.5V107.5ZM756 0V108H757V0H756ZM756.5 107.5H648.5V108.5H756.5V107.5ZM864 0V108H865V0H864ZM864.5 107.5H756.5V108.5H864.5V107.5ZM972 0V108H973V0H972ZM972.5 107.5H864.5V108.5H972.5V107.5ZM1080 0V108H1081V0H1080ZM1080.5 107.5H972.5V108.5H1080.5V107.5ZM1188 0V108H1189V0H1188ZM1188.5 107.5H1080.5V108.5H1188.5V107.5ZM1296.5 107.5H1188.5V108.5H1296.5V107.5ZM108 108V216H109V108H108ZM108.5 215.5H0.5V216.5H108.5V215.5ZM216 108V216H217V108H216ZM216.5 215.5H108.5V216.5H216.5V215.5ZM324 108V216H325V108H324ZM324.5 215.5H216.5V216.5H324.5V215.5ZM432 108V216H433V108H432ZM432.5 215.5H324.5V216.5H432.5V215.5ZM540 108V216H541V108H540ZM540.5 215.5H432.5V216.5H540.5V215.5ZM648 108V216H649V108H648ZM648.5 215.5H540.5V216.5H648.5V215.5ZM756 108V216H757V108H756ZM756.5 215.5H648.5V216.5H756.5V215.5ZM864 108V216H865V108H864ZM864.5 215.5H756.5V216.5H864.5V215.5ZM972 108V216H973V108H972ZM972.5 215.5H864.5V216.5H972.5V215.5ZM1080 108V216H1081V108H1080ZM1080.5 215.5H972.5V216.5H1080.5V215.5ZM1188 108V216H1189V108H1188ZM1188.5 215.5H1080.5V216.5H1188.5V215.5ZM1296.5 215.5H1188.5V216.5H1296.5V215.5ZM108 216V324H109V216H108ZM108.5 323.5H0.5V324.5H108.5V323.5ZM216 216V324H217V216H216ZM216.5 323.5H108.5V324.5H216.5V323.5ZM324 216V324H325V216H324ZM324.5 323.5H216.5V324.5H324.5V323.5ZM432 216V324H433V216H432ZM432.5 323.5H324.5V324.5H432.5V323.5ZM540 216V324H541V216H540ZM540.5 323.5H432.5V324.5H540.5V323.5ZM648 216V324H649V216H648ZM648.5 323.5H540.5V324.5H648.5V323.5ZM756 216V324H757V216H756ZM756.5 323.5H648.5V324.5H756.5V323.5ZM864 216V324H865V216H864ZM864.5 323.5H756.5V324.5H864.5V323.5ZM972 216V324H973V216H972ZM972.5 323.5H864.5V324.5H972.5V323.5ZM1080 216V324H1081V216H1080ZM1080.5 323.5H972.5V324.5H1080.5V323.5ZM1188 216V324H1189V216H1188ZM1188.5 323.5H1080.5V324.5H1188.5V323.5ZM1296.5 323.5H1188.5V324.5H1296.5V323.5ZM108 324V432H109V324H108ZM108.5 431.5H0.5V432.5H108.5V431.5ZM216 324V432H217V324H216ZM216.5 431.5H108.5V432.5H216.5V431.5ZM324 324V432H325V324H324ZM324.5 431.5H216.5V432.5H324.5V431.5ZM432 324V432H433V324H432ZM432.5 431.5H324.5V432.5H432.5V431.5ZM540 324V432H541V324H540ZM540.5 431.5H432.5V432.5H540.5V431.5ZM648 324V432H649V324H648ZM648.5 431.5H540.5V432.5H648.5V431.5ZM756 324V432H757V324H756ZM756.5 431.5H648.5V432.5H756.5V431.5ZM864 324V432H865V324H864ZM864.5 431.5H756.5V432.5H864.5V431.5ZM972 324V432H973V324H972ZM972.5 431.5H864.5V432.5H972.5V431.5ZM1080 324V432H1081V324H1080ZM1080.5 431.5H972.5V432.5H1080.5V431.5ZM1188 324V432H1189V324H1188ZM1188.5 431.5H1080.5V432.5H1188.5V431.5ZM1296.5 431.5H1188.5V432.5H1296.5V431.5ZM108 432V540H109V432H108ZM108.5 539.5H0.5V540.5H108.5V539.5ZM216 432V540H217V432H216ZM216.5 539.5H108.5V540.5H216.5V539.5ZM324 432V540H325V432H324ZM324.5 539.5H216.5V540.5H324.5V539.5ZM432 432V540H433V432H432ZM432.5 539.5H324.5V540.5H432.5V539.5ZM540 432V540H541V432H540ZM540.5 539.5H432.5V540.5H540.5V539.5ZM648 432V540H649V432H648ZM648.5 539.5H540.5V540.5H648.5V539.5ZM756 432V540H757V432H756ZM756.5 539.5H648.5V540.5H756.5V539.5ZM864 432V540H865V432H864ZM864.5 539.5H756.5V540.5H864.5V539.5ZM972 432V540H973V432H972ZM972.5 539.5H864.5V540.5H972.5V539.5ZM1080 432V540H1081V432H1080ZM1080.5 539.5H972.5V540.5H1080.5V539.5ZM1188 432V540H1189V432H1188ZM1188.5 539.5H1080.5V540.5H1188.5V539.5ZM1296.5 539.5H1188.5V540.5H1296.5V539.5ZM108 540V648H109V540H108ZM108.5 647.5H0.5V648.5H108.5V647.5ZM216 540V648H217V540H216ZM216.5 647.5H108.5V648.5H216.5V647.5ZM324 540V648H325V540H324ZM324.5 647.5H216.5V648.5H324.5V647.5ZM432 540V648H433V540H432ZM432.5 647.5H324.5V648.5H432.5V647.5ZM540 540V648H541V540H540ZM540.5 647.5H432.5V648.5H540.5V647.5ZM648 540V648H649V540H648ZM648.5 647.5H540.5V648.5H648.5V647.5ZM756 540V648H757V540H756ZM756.5 647.5H648.5V648.5H756.5V647.5ZM864 540V648H865V540H864ZM864.5 647.5H756.5V648.5H864.5V647.5ZM972 540V648H973V540H972ZM972.5 647.5H864.5V648.5H972.5V647.5ZM1080 540V648H1081V540H1080ZM1080.5 647.5H972.5V648.5H1080.5V647.5ZM1188 540V648H1189V540H1188ZM1188.5 647.5H1080.5V648.5H1188.5V647.5ZM1296.5 647.5H1188.5V648.5H1296.5V647.5ZM108 648V756H109V648H108ZM108.5 755.5H0.5V756.5H108.5V755.5ZM216 648V756H217V648H216ZM216.5 755.5H108.5V756.5H216.5V755.5ZM324 648V756H325V648H324ZM324.5 755.5H216.5V756.5H324.5V755.5ZM432 648V756H433V648H432ZM432.5 755.5H324.5V756.5H432.5V755.5ZM540 648V756H541V648H540ZM540.5 755.5H432.5V756.5H540.5V755.5ZM648 648V756H649V648H648ZM648.5 755.5H540.5V756.5H648.5V755.5ZM756 648V756H757V648H756ZM756.5 755.5H648.5V756.5H756.5V755.5ZM864 648V756H865V648H864ZM864.5 755.5H756.5V756.5H864.5V755.5ZM972 648V756H973V648H972ZM972.5 755.5H864.5V756.5H972.5V755.5ZM1080 648V756H1081V648H1080ZM1080.5 755.5H972.5V756.5H1080.5V755.5ZM1188 648V756H1189V648H1188ZM1188.5 755.5H1080.5V756.5H1188.5V755.5ZM1296.5 755.5H1188.5V756.5H1296.5V755.5ZM108 756V864H109V756H108ZM108.5 863.5H0.5V864.5H108.5V863.5ZM216 756V864H217V756H216ZM216.5 863.5H108.5V864.5H216.5V863.5ZM324 756V864H325V756H324ZM324.5 863.5H216.5V864.5H324.5V863.5ZM432 756V864H433V756H432ZM432.5 863.5H324.5V864.5H432.5V863.5ZM540 756V864H541V756H540ZM540.5 863.5H432.5V864.5H540.5V863.5ZM648 756V864H649V756H648ZM648.5 863.5H540.5V864.5H648.5V863.5ZM756 756V864H757V756H756ZM756.5 863.5H648.5V864.5H756.5V863.5ZM864 756V864H865V756H864ZM864.5 863.5H756.5V864.5H864.5V863.5ZM972 756V864H973V756H972ZM972.5 863.5H864.5V864.5H972.5V863.5ZM1080 756V864H1081V756H1080ZM1080.5 863.5H972.5V864.5H1080.5V863.5ZM1188 756V864H1189V756H1188ZM1188.5 863.5H1080.5V864.5H1188.5V863.5ZM1296.5 863.5H1188.5V864.5H1296.5V863.5ZM108 864V972H109V864H108ZM216 864V972H217V864H216ZM324 864V972H325V864H324ZM432 864V972H433V864H432ZM540 864V972H541V864H540ZM648 864V972H649V864H648ZM756 864V972H757V864H756ZM864 864V972H865V864H864ZM972 864V972H973V864H972ZM1080 864V972H1081V864H1080ZM1188 864V972H1189V864H1188ZM0.5 0V-1H-0.5V0H0.5ZM1296.5 0H1297.5V-1H1296.5V0ZM0.5 972H-0.5V973H0.5V972ZM1296.5 972V973H1297.5V972H1296.5ZM0.5 1H108.5V-1H0.5V1ZM1.5 108V0H-0.5V108H1.5ZM108.5 1H216.5V-1H108.5V1ZM216.5 1H324.5V-1H216.5V1ZM324.5 1H432.5V-1H324.5V1ZM432.5 1H540.5V-1H432.5V1ZM540.5 1H648.5V-1H540.5V1ZM648.5 1H756.5V-1H648.5V1ZM756.5 1H864.5V-1H756.5V1ZM864.5 1H972.5V-1H864.5V1ZM972.5 1H1080.5V-1H972.5V1ZM1080.5 1H1188.5V-1H1080.5V1ZM1188.5 1H1296.5V-1H1188.5V1ZM1295.5 0V108H1297.5V0H1295.5ZM1.5 216V108H-0.5V216H1.5ZM1295.5 108V216H1297.5V108H1295.5ZM1.5 324V216H-0.5V324H1.5ZM1295.5 216V324H1297.5V216H1295.5ZM1.5 432V324H-0.5V432H1.5ZM1295.5 324V432H1297.5V324H1295.5ZM1.5 540V432H-0.5V540H1.5ZM1295.5 432V540H1297.5V432H1295.5ZM1.5 648V540H-0.5V648H1.5ZM1295.5 540V648H1297.5V540H1295.5ZM1.5 756V648H-0.5V756H1.5ZM1295.5 648V756H1297.5V648H1295.5ZM1.5 864V756H-0.5V864H1.5ZM1295.5 756V864H1297.5V756H1295.5ZM108.5 971H0.5V973H108.5V971ZM1.5 972V864H-0.5V972H1.5ZM216.5 971H108.5V973H216.5V971ZM324.5 971H216.5V973H324.5V971ZM432.5 971H324.5V973H432.5V971ZM540.5 971H432.5V973H540.5V971ZM648.5 971H540.5V973H648.5V971ZM756.5 971H648.5V973H756.5V971ZM864.5 971H756.5V973H864.5V971ZM972.5 971H864.5V973H972.5V971ZM1080.5 971H972.5V973H1080.5V971ZM1188.5 971H1080.5V973H1188.5V971ZM1295.5 864V972H1297.5V864H1295.5ZM1296.5 971H1188.5V973H1296.5V971Z" fill="url(#paint0_radial_11311_72837)" fill-opacity="0.64" mask="url(#path-1-inside-1_11311_72837)"/>
<defs>
<radialGradient id="paint0_radial_11311_72837" cx="0" cy="0" r="1" gradientUnits="userSpaceOnUse" gradientTransform="translate(630.5 529) rotate(-90.4204) scale(477.013 636.017)">
<stop offset="0.253115" stop-color="#F20790"/>
<stop offset="0.63005" stop-color="#0877FC"/>
<stop offset="1" stop-color="white" stop-opacity="0"/>
</radialGradient>
</defs>
</svg>
