<svg width="29" height="28" viewBox="0 0 29 28" fill="none" xmlns="http://www.w3.org/2000/svg">
<g id="Product Icons">
<path id="Vector" d="M19.3125 13.125C19.3125 14.0768 19.0303 15.0073 18.5014 15.7987C17.9726 16.5901 17.221 17.2069 16.3417 17.5712C15.4623 17.9354 14.4947 18.0307 13.5611 17.845C12.6276 17.6593 11.7701 17.201 11.097 16.528C10.424 15.8549 9.96566 14.9974 9.77997 14.0639C9.59428 13.1303 9.68958 12.1627 10.0538 11.2833C10.4181 10.404 11.0349 9.65236 11.8263 9.12355C12.6177 8.59475 13.5482 8.3125 14.5 8.3125C15.7764 8.3125 17.0004 8.81953 17.903 9.72205C18.8055 10.6246 19.3125 11.8486 19.3125 13.125ZM25 5.25V22.75C25 23.2141 24.8156 23.6592 24.4874 23.9874C24.1592 24.3156 23.7141 24.5 23.25 24.5H5.75C5.28587 24.5 4.84075 24.3156 4.51256 23.9874C4.18437 23.6592 4 23.2141 4 22.75V5.25C4 4.78587 4.18437 4.34075 4.51256 4.01256C4.84075 3.68437 5.28587 3.5 5.75 3.5H23.25C23.7141 3.5 24.1592 3.68437 24.4874 4.01256C24.8156 4.34075 25 4.78587 25 5.25ZM23.25 22.75V5.25H5.75V22.75H6.15141C6.67225 21.1066 7.66363 19.6521 9.00281 18.5664C9.2274 18.3856 9.45927 18.2171 9.69844 18.0611C9.77812 18.0091 9.8726 17.9845 9.96753 17.991C10.0625 17.9975 10.1527 18.0348 10.2245 18.0972C11.4128 19.123 12.9302 19.6873 14.5 19.6873C16.0698 19.6873 17.5872 19.123 18.7755 18.0972C18.8473 18.0348 18.9375 17.9975 19.0325 17.991C19.1274 17.9845 19.2219 18.0091 19.3016 18.0611C19.5407 18.2179 19.7726 18.3863 19.9972 18.5664C21.3364 19.6521 22.3277 21.1066 22.8486 22.75H23.25Z" fill="white"/>
</g>
</svg>
