<svg width="29" height="28" viewBox="0 0 29 28" fill="none" xmlns="http://www.w3.org/2000/svg">
<path fill-rule="evenodd" clip-rule="evenodd" d="M3.125 2.625C2.89294 2.625 2.67038 2.71719 2.50628 2.88128C2.34219 3.04538 2.25 3.26794 2.25 3.5C2.25 3.73206 2.34219 3.95462 2.50628 4.11872C2.67038 4.28281 2.89294 4.375 3.125 4.375H4V16.625C4 17.5533 4.36875 18.4435 5.02513 19.0999C5.6815 19.7563 6.57174 20.125 7.5 20.125H8.91167L7.54433 24.2235C7.471 24.4438 7.48819 24.6842 7.59211 24.8919C7.69604 25.0995 7.87819 25.2573 8.0985 25.3307C8.31881 25.404 8.55922 25.3868 8.76685 25.2829C8.97449 25.179 9.13233 24.9968 9.20567 24.7765L9.5895 23.625H19.4105L19.7955 24.7765C19.8752 24.9883 20.0338 25.1611 20.2381 25.2584C20.4424 25.3558 20.6765 25.3702 20.8912 25.2986C21.1059 25.227 21.2845 25.0751 21.3896 24.8746C21.4946 24.6741 21.5179 24.4408 21.4545 24.2235L20.0895 20.125H21.5C22.4283 20.125 23.3185 19.7563 23.9749 19.0999C24.6313 18.4435 25 17.5533 25 16.625V4.375H25.875C26.1071 4.375 26.3296 4.28281 26.4937 4.11872C26.6578 3.95462 26.75 3.73206 26.75 3.5C26.75 3.26794 26.6578 3.04538 26.4937 2.88128C26.3296 2.71719 26.1071 2.625 25.875 2.625H3.125ZM10.755 20.125H18.245L18.8283 21.875H10.1717L10.755 20.125ZM20.1875 9.63083C20.2878 9.5738 20.3759 9.49749 20.4466 9.40629C20.5173 9.31509 20.5692 9.2108 20.5995 9.09944C20.6297 8.98808 20.6376 8.87183 20.6227 8.7574C20.6079 8.64297 20.5705 8.53261 20.5128 8.43267C20.4551 8.33274 20.3782 8.2452 20.2865 8.17511C20.1949 8.10501 20.0902 8.05374 19.9787 8.02425C19.8671 7.99475 19.7508 7.98762 19.6365 8.00325C19.5222 8.01888 19.412 8.05697 19.3125 8.11533C17.7218 9.0361 16.3146 10.2424 15.1615 11.6737L13.3683 9.88167C13.2043 9.71781 12.9819 9.62577 12.75 9.62577C12.5181 9.62577 12.2957 9.71781 12.1317 9.88167L8.63167 13.3817C8.5457 13.4618 8.47675 13.5584 8.42892 13.6657C8.3811 13.773 8.35538 13.8889 8.35331 14.0064C8.35124 14.1239 8.37285 14.2406 8.41686 14.3495C8.46086 14.4585 8.52637 14.5575 8.60946 14.6405C8.69254 14.7236 8.79152 14.7891 8.90047 14.8331C9.00942 14.8772 9.12612 14.8988 9.24361 14.8967C9.3611 14.8946 9.47696 14.8689 9.58429 14.8211C9.69163 14.7733 9.78823 14.7043 9.86833 14.6183L12.75 11.7367L14.6365 13.6243C14.727 13.7148 14.8363 13.7844 14.9566 13.8281C15.0769 13.8718 15.2053 13.8885 15.3328 13.8772C15.4603 13.8658 15.5837 13.8267 15.6944 13.7624C15.8051 13.6982 15.9004 13.6104 15.9735 13.5053C17.0778 11.9211 18.5163 10.5985 20.1875 9.63083Z" fill="white"/>
</svg>
