<svg width="28" height="28" viewBox="0 0 28 28" fill="none" xmlns="http://www.w3.org/2000/svg">
<path d="M27.1517 9.10606C26.4545 7.29198 24.7228 6.11463 22.4064 5.62207V6.21074C23.6771 6.72733 24.6104 7.55628 25.0489 8.68558C26.4095 12.2296 22.3614 17.3595 16.0081 20.1587C9.6436 22.9579 3.38027 22.3692 2.01965 18.8252C1.53613 17.5878 1.72729 16.1461 2.44696 14.6925C1.29999 16.6627 0.94016 18.657 1.6036 20.3509C3.20036 24.4957 10.2058 25.3246 17.2676 22.2251C24.3293 19.1135 28.7484 13.2388 27.1517 9.10606Z" fill="white"/>
<path d="M27.1517 9.10606C26.4545 7.29198 24.7228 6.11463 22.4064 5.62207V6.21074C23.6771 6.72733 24.6104 7.55628 25.0489 8.68558C26.4095 12.2296 22.3614 17.3595 16.0081 20.1587C9.6436 22.9579 3.38027 22.3692 2.01965 18.8252C1.53613 17.5878 1.72729 16.1461 2.44696 14.6925C1.29999 16.6627 0.94016 18.657 1.6036 20.3509C3.20036 24.4957 10.2058 25.3246 17.2676 22.2251C24.3293 19.1135 28.7484 13.2388 27.1517 9.10606Z" fill="white"/>
<path d="M9.13845 20.5666V11.6885H4.70801V19.9299C5.67506 20.3624 6.91198 20.5907 8.32882 20.5907C8.5987 20.5907 8.86857 20.5827 9.13845 20.5666Z" fill="white"/>
<path d="M9.13845 20.5666V11.6885H4.70801V19.9299C5.67506 20.3624 6.91198 20.5907 8.32882 20.5907C8.5987 20.5907 8.86857 20.5827 9.13845 20.5666Z" fill="white"/>
<path d="M9.026 25.4327C7.38426 25.4327 5.93369 25.1805 4.70801 24.7119V26.1295H9.13845V25.4327C9.10097 25.4327 9.06348 25.4327 9.026 25.4327Z" fill="white"/>
<path d="M9.026 25.4327C7.38426 25.4327 5.93369 25.1805 4.70801 24.7119V26.1295H9.13845V25.4327C9.10097 25.4327 9.06348 25.4327 9.026 25.4327Z" fill="white"/>
<path d="M11.0264 26.1288H15.4568V24.3027C13.9612 24.8073 12.4769 25.1437 11.0264 25.3119V26.1288Z" fill="white"/>
<path d="M11.0264 26.1288H15.4568V24.3027C13.9612 24.8073 12.4769 25.1437 11.0264 25.3119V26.1288Z" fill="white"/>
<path d="M15.4568 7.35254H11.0264V20.3394C12.4769 20.0871 13.9837 19.6306 15.4568 19.0059V7.35254Z" fill="white"/>
<path d="M15.4568 7.35254H11.0264V20.3394C12.4769 20.0871 13.9837 19.6306 15.4568 19.0059V7.35254Z" fill="white"/>
<path d="M21.5525 2.5459H17.1221V18.2238C18.82 17.3468 20.3268 16.2776 21.5525 15.1123V2.5459Z" fill="white"/>
<path d="M21.5525 2.5459H17.1221V18.2238C18.82 17.3468 20.3268 16.2776 21.5525 15.1123V2.5459Z" fill="white"/>
<path d="M17.1219 23.6665V26.1293H21.5524V21.2517C20.3155 22.1047 18.9661 22.8616 17.5155 23.4983C17.3806 23.5544 17.2494 23.6104 17.1219 23.6665Z" fill="white"/>
<path d="M17.1219 23.6665V26.1293H21.5524V21.2517C20.3155 22.1047 18.9661 22.8616 17.5155 23.4983C17.3806 23.5544 17.2494 23.6104 17.1219 23.6665Z" fill="white"/>
<path d="M17.1221 2.5459V18.2238C17.9092 17.8154 18.6401 17.3709 19.3373 16.8903V2.5459H17.1221Z" fill="white"/>
<path d="M17.1221 2.5459V18.2238C17.9092 17.8154 18.6401 17.3709 19.3373 16.8903V2.5459H17.1221Z" fill="white"/>
<path d="M17.5156 23.4984C17.3807 23.5545 17.2495 23.6105 17.1221 23.6666V26.1294H19.3373V22.6094C18.7451 22.9297 18.1378 23.2261 17.5156 23.4984Z" fill="white"/>
<path d="M17.5156 23.4984C17.3807 23.5545 17.2495 23.6105 17.1221 23.6666V26.1294H19.3373V22.6094C18.7451 22.9297 18.1378 23.2261 17.5156 23.4984Z" fill="white"/>
<path d="M21.5513 2.5459H19.3361V16.8903C20.1457 16.3377 20.8878 15.749 21.5513 15.1123V2.5459Z" fill="white"/>
<path d="M21.5513 2.5459H19.3361V16.8903C20.1457 16.3377 20.8878 15.749 21.5513 15.1123V2.5459Z" fill="white"/>
<path d="M21.5513 21.2517C20.8541 21.7323 20.1119 22.1888 19.3361 22.6093V26.1293H21.5513V21.2517Z" fill="white"/>
<path d="M21.5513 21.2517C20.8541 21.7323 20.1119 22.1888 19.3361 22.6093V26.1293H21.5513V21.2517Z" fill="white"/>
<path d="M11.0264 25.3112V26.1281H13.2416V24.9268C12.4919 25.103 11.7535 25.2311 11.0264 25.3112Z" fill="white"/>
<path d="M11.0264 25.3112V26.1281H13.2416V24.9268C12.4919 25.103 11.7535 25.2311 11.0264 25.3112Z" fill="white"/>
<path d="M11.0264 7.35254V20.3394C11.7573 20.2193 12.4994 20.0391 13.2416 19.8108V7.35254H11.0264Z" fill="white"/>
<path d="M11.0264 7.35254V20.3394C11.7573 20.2193 12.4994 20.0391 13.2416 19.8108V7.35254H11.0264Z" fill="white"/>
<path d="M15.4574 24.3027C14.7152 24.551 13.9768 24.7593 13.2422 24.9275V26.1288H15.4574V24.3027Z" fill="white"/>
<path d="M15.4574 24.3027C14.7152 24.551 13.9768 24.7593 13.2422 24.9275V26.1288H15.4574V24.3027Z" fill="white"/>
<path d="M15.4574 7.35254H13.2422V19.8108C13.9843 19.5946 14.7265 19.3182 15.4574 19.0059V7.35254Z" fill="white"/>
<path d="M15.4574 7.35254H13.2422V19.8108C13.9843 19.5946 14.7265 19.3182 15.4574 19.0059V7.35254Z" fill="white"/>
<path d="M4.70801 11.6885V19.9299C5.34896 20.2062 6.09112 20.4105 6.92323 20.5066V11.6885H4.70801Z" fill="white"/>
<path d="M4.70801 11.6885V19.9299C5.34896 20.2062 6.09112 20.4105 6.92323 20.5066V11.6885H4.70801Z" fill="white"/>
<path d="M4.70801 24.7119V26.1295H6.92323V25.2766C6.12485 25.1564 5.38269 24.9762 4.70801 24.7119Z" fill="white"/>
<path d="M4.70801 24.7119V26.1295H6.92323V25.2766C6.12485 25.1564 5.38269 24.9762 4.70801 24.7119Z" fill="white"/>
<path d="M9.13612 20.5666V11.6885H6.9209V20.5066C7.37069 20.5626 7.83922 20.5907 8.32649 20.5907C8.59637 20.5907 8.86624 20.5827 9.13612 20.5666Z" fill="white"/>
<path d="M9.13612 20.5666V11.6885H6.9209V20.5066C7.37069 20.5626 7.83922 20.5907 8.32649 20.5907C8.59637 20.5907 8.86624 20.5827 9.13612 20.5666Z" fill="white"/>
<path d="M9.13612 25.4325C9.09864 25.4325 9.06115 25.4325 9.02367 25.4325C8.28152 25.4325 7.58434 25.3845 6.9209 25.2764V26.1293H9.13612V25.4325Z" fill="white"/>
<path d="M9.13612 25.4325C9.09864 25.4325 9.06115 25.4325 9.02367 25.4325C8.28152 25.4325 7.58434 25.3845 6.9209 25.2764V26.1293H9.13612V25.4325Z" fill="white"/>
</svg>
