<svg width="640" height="43" viewBox="0 0 640 43" fill="none" xmlns="http://www.w3.org/2000/svg">
<g filter="url(#filter0_f_12847_23883)">
<path d="M128.726 16.9871C128.271 17.3003 128.157 17.923 128.47 18.3778C128.783 18.8327 129.406 18.9475 129.861 18.6342L128.726 16.9871ZM126.114 14.6431L126.383 15.6062L126.114 14.6431ZM122.617 17.8106L123.576 18.0922L122.617 17.8106ZM126.114 23.5123L126.289 22.5278L126.114 23.5123ZM133.426 20.6614L134.144 21.3575L133.426 20.6614ZM141.375 13.376L141.88 14.2387L141.375 13.376ZM149.465 12.1776L149.251 13.1544L149.465 12.1776ZM155.188 17.5668L156.111 17.181V17.181L155.188 17.5668ZM155.188 25.169L156.107 25.5641V25.5641L155.188 25.169ZM149.323 29.9203L149.531 30.8983L149.556 30.8931L149.58 30.8866L149.323 29.9203ZM142.153 28.97L142.859 28.2616H142.859L142.153 28.97ZM140.103 23.5123L139.107 23.4238V23.4238L140.103 23.5123ZM143.282 19.3944L142.83 18.5023V18.5023L143.282 19.3944ZM129.861 18.6342C130.506 18.1897 130.727 17.4706 130.724 16.8504C130.721 16.225 130.501 15.5792 130.122 15.0319C129.326 13.8855 127.803 13.1333 125.845 13.6799L126.383 15.6062C127.515 15.2903 128.165 15.72 128.479 16.172C128.653 16.424 128.723 16.6815 128.724 16.8601C128.724 17.0439 128.664 17.0296 128.726 16.9871L129.861 18.6342ZM125.845 13.6799C124.865 13.9533 123.972 14.3595 123.238 14.9954C122.494 15.6409 121.966 16.4789 121.657 17.5291L123.576 18.0922C123.786 17.3773 124.118 16.8796 124.548 16.5065C124.99 16.124 125.585 15.8288 126.383 15.6062L125.845 13.6799ZM121.657 17.5291C120.758 20.5925 122.762 23.9307 125.939 24.4968L126.289 22.5278C124.31 22.1751 123.005 20.038 123.576 18.0922L121.657 17.5291ZM125.939 24.4968C128.147 24.8902 129.781 24.6044 131.116 23.9017C132.397 23.228 133.331 22.1964 134.144 21.3575L132.708 19.9654C131.818 20.8843 131.122 21.6391 130.185 22.1317C129.303 22.5955 128.133 22.8562 126.289 22.5278L125.939 24.4968ZM134.144 21.3575C137.264 18.1392 138.174 16.4114 141.88 14.2387L140.869 12.5134C136.85 14.8696 135.597 16.9858 132.708 19.9654L134.144 21.3575ZM141.88 14.2387C143.041 13.5583 143.945 13.1122 145 12.91C146.051 12.7084 147.337 12.7344 149.251 13.1544L149.68 11.2008C147.603 10.7453 146.028 10.6764 144.623 10.9458C143.222 11.2145 142.076 11.8054 140.869 12.5134L141.88 14.2387ZM149.251 13.1544C150.687 13.4693 152.809 14.4701 154.265 17.9526L156.111 17.181C154.388 13.0613 151.713 11.6469 149.68 11.2008L149.251 13.1544ZM154.265 17.9526C155.354 20.5565 155.128 22.7787 154.269 24.7738L156.107 25.5641C157.156 23.1246 157.43 20.3365 156.111 17.181L154.265 17.9526ZM154.269 24.7738C153.613 26.3002 152.348 27.3488 151.173 28.0299C150.592 28.3664 150.055 28.6009 149.664 28.7504C149.469 28.8249 149.313 28.8776 149.208 28.9109C149.156 28.9275 149.117 28.9392 149.092 28.9463C149.08 28.9498 149.072 28.9522 149.067 28.9535C149.065 28.9542 149.063 28.9545 149.063 28.9546C149.063 28.9546 149.063 28.9546 149.063 28.9545C149.064 28.9545 149.064 28.9544 149.064 28.9543C149.064 28.9543 149.065 28.9542 149.065 28.9542C149.065 28.9541 149.065 28.954 149.323 29.9203C149.58 30.8866 149.581 30.8865 149.581 30.8864C149.581 30.8864 149.581 30.8863 149.582 30.8862C149.582 30.886 149.583 30.8859 149.584 30.8857C149.585 30.8853 149.587 30.8849 149.589 30.8843C149.592 30.8833 149.597 30.8819 149.603 30.8803C149.615 30.877 149.631 30.8725 149.651 30.8667C149.69 30.8552 149.745 30.8387 149.814 30.8169C149.952 30.7732 150.145 30.7079 150.379 30.6183C150.846 30.4396 151.484 30.1615 152.176 29.7603C153.546 28.9661 155.214 27.639 156.107 25.5641L154.269 24.7738ZM149.323 29.9203C149.114 28.9423 149.114 28.9423 149.114 28.9422C149.114 28.9422 149.115 28.9422 149.115 28.9422C149.115 28.9422 149.115 28.9421 149.115 28.9422C149.115 28.9422 149.115 28.9422 149.114 28.9424C149.113 28.9426 149.11 28.9431 149.107 28.9439C149.099 28.9454 149.087 28.9478 149.071 28.951C149.038 28.9575 148.988 28.9672 148.922 28.979C148.79 29.0028 148.595 29.0353 148.354 29.0684C147.871 29.135 147.21 29.203 146.495 29.2112C145.776 29.2195 145.033 29.1669 144.372 29.008C143.706 28.8477 143.195 28.5965 142.859 28.2616L141.447 29.6785C142.136 30.3649 143.034 30.7432 143.904 30.9525C144.78 31.1633 145.702 31.2205 146.518 31.2111C147.34 31.2016 148.087 31.1241 148.627 31.0497C148.898 31.0124 149.12 30.9755 149.276 30.9475C149.354 30.9335 149.415 30.9217 149.458 30.9131C149.48 30.9089 149.497 30.9054 149.509 30.9029C149.516 30.9016 149.52 30.9006 149.524 30.8998C149.526 30.8995 149.527 30.8991 149.529 30.8989C149.529 30.8988 149.53 30.8986 149.53 30.8985C149.531 30.8985 149.531 30.8984 149.531 30.8984C149.531 30.8984 149.531 30.8983 149.323 29.9203ZM142.859 28.2616C141.907 27.3128 141.46 26.5733 141.245 25.9082C141.029 25.2378 141.015 24.5441 141.099 23.6008L139.107 23.4238C139.015 24.4538 139.002 25.4677 139.342 26.5222C139.684 27.582 140.349 28.5846 141.447 29.6785L142.859 28.2616ZM141.099 23.6008C141.223 22.2033 142.11 21.1089 143.734 20.2865L142.83 18.5023C140.826 19.5177 139.312 21.1119 139.107 23.4238L141.099 23.6008ZM143.734 20.2865C144.34 19.9794 145.057 19.9601 145.692 20.0545C146 20.1004 146.265 20.1695 146.45 20.2267C146.542 20.255 146.613 20.2799 146.658 20.2965C146.68 20.3048 146.696 20.311 146.705 20.3145C146.709 20.3162 146.712 20.3172 146.713 20.3175C146.713 20.3177 146.713 20.3176 146.712 20.3174C146.712 20.3172 146.712 20.3171 146.711 20.3168C146.711 20.3167 146.71 20.3166 146.71 20.3165C146.71 20.3164 146.71 20.3163 146.71 20.3162C146.709 20.3161 146.709 20.316 147.097 19.3944C147.485 18.4728 147.485 18.4727 147.485 18.4726C147.485 18.4725 147.484 18.4724 147.484 18.4723C147.484 18.4721 147.483 18.4719 147.483 18.4717C147.482 18.4712 147.48 18.4708 147.479 18.4702C147.477 18.4691 147.473 18.4678 147.47 18.4663C147.462 18.4633 147.453 18.4596 147.442 18.4551C147.419 18.4461 147.389 18.4343 147.351 18.4203C147.275 18.3924 147.17 18.3556 147.039 18.3154C146.78 18.2355 146.415 18.1401 145.986 18.0763C145.147 17.9514 143.956 17.9321 142.83 18.5023L143.734 20.2865ZM122.442 18.3679L4 18.3679L4 20.3679L122.442 20.3679V18.3679Z" fill="url(#paint0_linear_12847_23883)" fill-opacity="0.37"/>
</g>
<path d="M128.726 16.9871C128.271 17.3003 128.157 17.923 128.47 18.3778C128.783 18.8327 129.406 18.9475 129.861 18.6342L128.726 16.9871ZM126.114 14.6431L126.383 15.6062L126.114 14.6431ZM122.617 17.8106L123.576 18.0922L122.617 17.8106ZM126.114 23.5123L126.289 22.5278L126.114 23.5123ZM133.426 20.6614L134.144 21.3575L133.426 20.6614ZM141.375 13.376L141.88 14.2387L141.375 13.376ZM149.465 12.1776L149.251 13.1544L149.465 12.1776ZM155.188 17.5668L156.111 17.181V17.181L155.188 17.5668ZM155.188 25.169L156.107 25.5641V25.5641L155.188 25.169ZM149.323 29.9203L149.531 30.8983L149.556 30.8931L149.58 30.8866L149.323 29.9203ZM142.153 28.97L142.859 28.2616H142.859L142.153 28.97ZM140.103 23.5123L139.107 23.4238V23.4238L140.103 23.5123ZM143.282 19.3944L142.83 18.5023V18.5023L143.282 19.3944ZM129.861 18.6342C130.506 18.1897 130.727 17.4706 130.724 16.8504C130.721 16.225 130.501 15.5792 130.122 15.0319C129.326 13.8855 127.803 13.1333 125.845 13.6799L126.383 15.6062C127.515 15.2903 128.165 15.72 128.479 16.172C128.653 16.424 128.723 16.6815 128.724 16.8601C128.724 17.0439 128.664 17.0296 128.726 16.9871L129.861 18.6342ZM125.845 13.6799C124.865 13.9533 123.972 14.3595 123.238 14.9954C122.494 15.6409 121.966 16.4789 121.657 17.5291L123.576 18.0922C123.786 17.3773 124.118 16.8796 124.548 16.5065C124.99 16.124 125.585 15.8288 126.383 15.6062L125.845 13.6799ZM121.657 17.5291C120.758 20.5925 122.762 23.9307 125.939 24.4968L126.289 22.5278C124.31 22.1751 123.005 20.038 123.576 18.0922L121.657 17.5291ZM125.939 24.4968C128.147 24.8902 129.781 24.6044 131.116 23.9017C132.397 23.228 133.331 22.1964 134.144 21.3575L132.708 19.9654C131.818 20.8843 131.122 21.6391 130.185 22.1317C129.303 22.5955 128.133 22.8562 126.289 22.5278L125.939 24.4968ZM134.144 21.3575C137.264 18.1392 138.174 16.4114 141.88 14.2387L140.869 12.5134C136.85 14.8696 135.597 16.9858 132.708 19.9654L134.144 21.3575ZM141.88 14.2387C143.041 13.5583 143.945 13.1122 145 12.91C146.051 12.7084 147.337 12.7344 149.251 13.1544L149.68 11.2008C147.603 10.7453 146.028 10.6764 144.623 10.9458C143.222 11.2145 142.076 11.8054 140.869 12.5134L141.88 14.2387ZM149.251 13.1544C150.687 13.4693 152.809 14.4701 154.265 17.9526L156.111 17.181C154.388 13.0613 151.713 11.6469 149.68 11.2008L149.251 13.1544ZM154.265 17.9526C155.354 20.5565 155.128 22.7787 154.269 24.7738L156.107 25.5641C157.156 23.1246 157.43 20.3365 156.111 17.181L154.265 17.9526ZM154.269 24.7738C153.613 26.3002 152.348 27.3488 151.173 28.0299C150.592 28.3664 150.055 28.6009 149.664 28.7504C149.469 28.8249 149.313 28.8776 149.208 28.9109C149.156 28.9275 149.117 28.9392 149.092 28.9463C149.08 28.9498 149.072 28.9522 149.067 28.9535C149.065 28.9542 149.063 28.9545 149.063 28.9546C149.063 28.9546 149.063 28.9546 149.063 28.9545C149.064 28.9545 149.064 28.9544 149.064 28.9543C149.064 28.9543 149.065 28.9542 149.065 28.9542C149.065 28.9541 149.065 28.954 149.323 29.9203C149.58 30.8866 149.581 30.8865 149.581 30.8864C149.581 30.8864 149.581 30.8863 149.582 30.8862C149.582 30.886 149.583 30.8859 149.584 30.8857C149.585 30.8853 149.587 30.8849 149.589 30.8843C149.592 30.8833 149.597 30.8819 149.603 30.8803C149.615 30.877 149.631 30.8725 149.651 30.8667C149.69 30.8552 149.745 30.8387 149.814 30.8169C149.952 30.7732 150.145 30.7079 150.379 30.6183C150.846 30.4396 151.484 30.1615 152.176 29.7603C153.546 28.9661 155.214 27.639 156.107 25.5641L154.269 24.7738ZM149.323 29.9203C149.114 28.9423 149.114 28.9423 149.114 28.9422C149.114 28.9422 149.115 28.9422 149.115 28.9422C149.115 28.9422 149.115 28.9421 149.115 28.9422C149.115 28.9422 149.115 28.9422 149.114 28.9424C149.113 28.9426 149.11 28.9431 149.107 28.9439C149.099 28.9454 149.087 28.9478 149.071 28.951C149.038 28.9575 148.988 28.9672 148.922 28.979C148.79 29.0028 148.595 29.0353 148.354 29.0684C147.871 29.135 147.21 29.203 146.495 29.2112C145.776 29.2195 145.033 29.1669 144.372 29.008C143.706 28.8477 143.195 28.5965 142.859 28.2616L141.447 29.6785C142.136 30.3649 143.034 30.7432 143.904 30.9525C144.78 31.1633 145.702 31.2205 146.518 31.2111C147.34 31.2016 148.087 31.1241 148.627 31.0497C148.898 31.0124 149.12 30.9755 149.276 30.9475C149.354 30.9335 149.415 30.9217 149.458 30.9131C149.48 30.9089 149.497 30.9054 149.509 30.9029C149.516 30.9016 149.52 30.9006 149.524 30.8998C149.526 30.8995 149.527 30.8991 149.529 30.8989C149.529 30.8988 149.53 30.8986 149.53 30.8985C149.531 30.8985 149.531 30.8984 149.531 30.8984C149.531 30.8984 149.531 30.8983 149.323 29.9203ZM142.859 28.2616C141.907 27.3128 141.46 26.5733 141.245 25.9082C141.029 25.2378 141.015 24.5441 141.099 23.6008L139.107 23.4238C139.015 24.4538 139.002 25.4677 139.342 26.5222C139.684 27.582 140.349 28.5846 141.447 29.6785L142.859 28.2616ZM141.099 23.6008C141.223 22.2033 142.11 21.1089 143.734 20.2865L142.83 18.5023C140.826 19.5177 139.312 21.1119 139.107 23.4238L141.099 23.6008ZM143.734 20.2865C144.34 19.9794 145.057 19.9601 145.692 20.0545C146 20.1004 146.265 20.1695 146.45 20.2267C146.542 20.255 146.613 20.2799 146.658 20.2965C146.68 20.3048 146.696 20.311 146.705 20.3145C146.709 20.3162 146.712 20.3172 146.713 20.3175C146.713 20.3177 146.713 20.3176 146.712 20.3174C146.712 20.3172 146.712 20.3171 146.711 20.3168C146.711 20.3167 146.71 20.3166 146.71 20.3165C146.71 20.3164 146.71 20.3163 146.71 20.3162C146.709 20.3161 146.709 20.316 147.097 19.3944C147.485 18.4728 147.485 18.4727 147.485 18.4726C147.485 18.4725 147.484 18.4724 147.484 18.4723C147.484 18.4721 147.483 18.4719 147.483 18.4717C147.482 18.4712 147.48 18.4708 147.479 18.4702C147.477 18.4691 147.473 18.4678 147.47 18.4663C147.462 18.4633 147.453 18.4596 147.442 18.4551C147.419 18.4461 147.389 18.4343 147.351 18.4203C147.275 18.3924 147.17 18.3556 147.039 18.3154C146.78 18.2355 146.415 18.1401 145.986 18.0763C145.147 17.9514 143.956 17.9321 142.83 18.5023L143.734 20.2865ZM122.442 18.3679L4 18.3679L4 20.3679L122.442 20.3679V18.3679Z" fill="url(#paint1_linear_12847_23883)"/>
<g filter="url(#filter1_f_12847_23883)">
<path d="M173.434 21.228C173.434 19.324 173.873 17.616 174.75 16.104C175.646 14.592 176.85 13.416 178.362 12.576C179.893 11.7173 181.564 11.288 183.374 11.288C185.446 11.288 187.285 11.8013 188.89 12.828C190.514 13.836 191.69 15.2733 192.418 17.14H188.582C188.078 16.1133 187.378 15.348 186.482 14.844C185.586 14.34 184.55 14.088 183.374 14.088C182.086 14.088 180.938 14.3773 179.93 14.956C178.922 15.5347 178.129 16.3653 177.55 17.448C176.99 18.5307 176.71 19.7907 176.71 21.228C176.71 22.6653 176.99 23.9253 177.55 25.008C178.129 26.0907 178.922 26.9307 179.93 27.528C180.938 28.1067 182.086 28.396 183.374 28.396C184.55 28.396 185.586 28.144 186.482 27.64C187.378 27.136 188.078 26.3707 188.582 25.344H192.418C191.69 27.2107 190.514 28.648 188.89 29.656C187.285 30.664 185.446 31.168 183.374 31.168C181.545 31.168 179.874 30.748 178.362 29.908C176.85 29.0493 175.646 27.864 174.75 26.352C173.873 24.84 173.434 23.132 173.434 21.228ZM199.347 17.812C199.813 17.028 200.429 16.4213 201.195 15.992C201.979 15.544 202.903 15.32 203.967 15.32V18.624H203.155C201.904 18.624 200.952 18.9413 200.299 19.576C199.664 20.2107 199.347 21.312 199.347 22.88V31H196.155V15.572H199.347V17.812ZM221.041 22.908C221.041 23.4867 221.003 24.0093 220.929 24.476H209.141C209.234 25.708 209.691 26.6973 210.513 27.444C211.334 28.1907 212.342 28.564 213.537 28.564C215.254 28.564 216.467 27.8453 217.177 26.408H220.621C220.154 27.8267 219.305 28.9933 218.073 29.908C216.859 30.804 215.347 31.252 213.537 31.252C212.062 31.252 210.737 30.9253 209.561 30.272C208.403 29.6 207.489 28.6667 206.817 27.472C206.163 26.2587 205.837 24.8587 205.837 23.272C205.837 21.6853 206.154 20.2947 206.789 19.1C207.442 17.8867 208.347 16.9533 209.505 16.3C210.681 15.6467 212.025 15.32 213.537 15.32C214.993 15.32 216.29 15.6373 217.429 16.272C218.567 16.9067 219.454 17.8027 220.089 18.96C220.723 20.0987 221.041 21.4147 221.041 22.908ZM217.709 21.9C217.69 20.724 217.27 19.7813 216.449 19.072C215.627 18.3627 214.61 18.008 213.397 18.008C212.295 18.008 211.353 18.3627 210.569 19.072C209.785 19.7627 209.318 20.7053 209.169 21.9H217.709ZM223.118 23.216C223.118 21.6667 223.435 20.2947 224.07 19.1C224.723 17.9053 225.601 16.9813 226.702 16.328C227.822 15.656 229.054 15.32 230.398 15.32C231.611 15.32 232.666 15.5627 233.562 16.048C234.477 16.5147 235.205 17.1027 235.746 17.812V15.572H238.966V31H235.746V28.704C235.205 29.432 234.467 30.0387 233.534 30.524C232.601 31.0093 231.537 31.252 230.342 31.252C229.017 31.252 227.803 30.916 226.702 30.244C225.601 29.5533 224.723 28.6013 224.07 27.388C223.435 26.156 223.118 24.7653 223.118 23.216ZM235.746 23.272C235.746 22.208 235.522 21.284 235.074 20.5C234.645 19.716 234.075 19.1187 233.366 18.708C232.657 18.2973 231.891 18.092 231.07 18.092C230.249 18.092 229.483 18.2973 228.774 18.708C228.065 19.1 227.486 19.688 227.038 20.472C226.609 21.2373 226.394 22.152 226.394 23.216C226.394 24.28 226.609 25.2133 227.038 26.016C227.486 26.8187 228.065 27.4347 228.774 27.864C229.502 28.2747 230.267 28.48 231.07 28.48C231.891 28.48 232.657 28.2747 233.366 27.864C234.075 27.4533 234.645 26.856 235.074 26.072C235.522 25.2693 235.746 24.336 235.746 23.272ZM246.883 18.176V26.716C246.883 27.2947 247.013 27.7147 247.275 27.976C247.555 28.2187 248.021 28.34 248.675 28.34H250.635V31H248.115C246.677 31 245.576 30.664 244.811 29.992C244.045 29.32 243.663 28.228 243.663 26.716V18.176H241.843V15.572H243.663V11.736H246.883V15.572H250.635V18.176H246.883ZM255.201 13.528C254.622 13.528 254.137 13.332 253.745 12.94C253.353 12.548 253.157 12.0627 253.157 11.484C253.157 10.9053 253.353 10.42 253.745 10.028C254.137 9.636 254.622 9.44 255.201 9.44C255.761 9.44 256.237 9.636 256.629 10.028C257.021 10.42 257.217 10.9053 257.217 11.484C257.217 12.0627 257.021 12.548 256.629 12.94C256.237 13.332 255.761 13.528 255.201 13.528ZM256.769 15.572V31H253.577V15.572H256.769ZM266.923 28.144L271.291 15.572H274.679L268.799 31H264.991L259.139 15.572H262.555L266.923 28.144ZM278.716 13.528C278.138 13.528 277.652 13.332 277.26 12.94C276.868 12.548 276.672 12.0627 276.672 11.484C276.672 10.9053 276.868 10.42 277.26 10.028C277.652 9.636 278.138 9.44 278.716 9.44C279.276 9.44 279.752 9.636 280.144 10.028C280.536 10.42 280.732 10.9053 280.732 11.484C280.732 12.0627 280.536 12.548 280.144 12.94C279.752 13.332 279.276 13.528 278.716 13.528ZM280.284 15.572V31H277.092V15.572H280.284ZM288.199 18.176V26.716C288.199 27.2947 288.33 27.7147 288.591 27.976C288.871 28.2187 289.338 28.34 289.991 28.34H291.951V31H289.431C287.994 31 286.892 30.664 286.127 29.992C285.362 29.32 284.979 28.228 284.979 26.716V18.176H283.159V15.572H284.979V11.736H288.199V15.572H291.951V18.176H288.199ZM308.781 15.572L299.317 38.252H296.013L299.149 30.748L293.073 15.572H296.629L300.969 27.332L305.477 15.572H308.781ZM324.063 31.252C322.85 31.252 321.758 31.0373 320.787 30.608C319.835 30.16 319.079 29.5627 318.519 28.816C317.959 28.0507 317.661 27.2013 317.623 26.268H320.927C320.983 26.9213 321.291 27.472 321.851 27.92C322.43 28.3493 323.149 28.564 324.007 28.564C324.903 28.564 325.594 28.396 326.079 28.06C326.583 27.7053 326.835 27.2573 326.835 26.716C326.835 26.1373 326.555 25.708 325.995 25.428C325.454 25.148 324.586 24.84 323.391 24.504C322.234 24.1867 321.291 23.8787 320.563 23.58C319.835 23.2813 319.201 22.824 318.659 22.208C318.137 21.592 317.875 20.78 317.875 19.772C317.875 18.9507 318.118 18.204 318.603 17.532C319.089 16.8413 319.779 16.3 320.675 15.908C321.59 15.516 322.635 15.32 323.811 15.32C325.566 15.32 326.975 15.768 328.039 16.664C329.122 17.5413 329.701 18.7453 329.775 20.276H326.583C326.527 19.5853 326.247 19.0347 325.743 18.624C325.239 18.2133 324.558 18.008 323.699 18.008C322.859 18.008 322.215 18.1667 321.767 18.484C321.319 18.8013 321.095 19.2213 321.095 19.744C321.095 20.1547 321.245 20.5 321.543 20.78C321.842 21.06 322.206 21.284 322.635 21.452C323.065 21.6013 323.699 21.7973 324.539 22.04C325.659 22.3387 326.574 22.6467 327.283 22.964C328.011 23.2627 328.637 23.7107 329.159 24.308C329.682 24.9053 329.953 25.6987 329.971 26.688C329.971 27.5653 329.729 28.3493 329.243 29.04C328.758 29.7307 328.067 30.272 327.171 30.664C326.294 31.056 325.258 31.252 324.063 31.252ZM337.144 18.176V26.716C337.144 27.2947 337.275 27.7147 337.536 27.976C337.816 28.2187 338.283 28.34 338.936 28.34H340.896V31H338.376C336.939 31 335.838 30.664 335.072 29.992C334.307 29.32 333.924 28.228 333.924 26.716V18.176H332.104V15.572H333.924V11.736H337.144V15.572H340.896V18.176H337.144ZM342.774 23.216C342.774 21.6667 343.092 20.2947 343.726 19.1C344.38 17.9053 345.257 16.9813 346.358 16.328C347.478 15.656 348.71 15.32 350.054 15.32C351.268 15.32 352.322 15.5627 353.218 16.048C354.133 16.5147 354.861 17.1027 355.402 17.812V15.572H358.622V31H355.402V28.704C354.861 29.432 354.124 30.0387 353.19 30.524C352.257 31.0093 351.193 31.252 349.998 31.252C348.673 31.252 347.46 30.916 346.358 30.244C345.257 29.5533 344.38 28.6013 343.726 27.388C343.092 26.156 342.774 24.7653 342.774 23.216ZM355.402 23.272C355.402 22.208 355.178 21.284 354.73 20.5C354.301 19.716 353.732 19.1187 353.022 18.708C352.313 18.2973 351.548 18.092 350.726 18.092C349.905 18.092 349.14 18.2973 348.43 18.708C347.721 19.1 347.142 19.688 346.694 20.472C346.265 21.2373 346.05 22.152 346.05 23.216C346.05 24.28 346.265 25.2133 346.694 26.016C347.142 26.8187 347.721 27.4347 348.43 27.864C349.158 28.2747 349.924 28.48 350.726 28.48C351.548 28.48 352.313 28.2747 353.022 27.864C353.732 27.4533 354.301 26.856 354.73 26.072C355.178 25.2693 355.402 24.336 355.402 23.272ZM366.007 17.812C366.474 17.028 367.09 16.4213 367.855 15.992C368.639 15.544 369.563 15.32 370.627 15.32V18.624H369.815C368.564 18.624 367.612 18.9413 366.959 19.576C366.324 20.2107 366.007 21.312 366.007 22.88V31H362.815V15.572H366.007V17.812ZM377.285 18.176V26.716C377.285 27.2947 377.416 27.7147 377.677 27.976C377.957 28.2187 378.424 28.34 379.077 28.34H381.037V31H378.517C377.08 31 375.978 30.664 375.213 29.992C374.448 29.32 374.065 28.228 374.065 26.716V18.176H372.245V15.572H374.065V11.736H377.285V15.572H381.037V18.176H377.285ZM389.579 31.252C388.366 31.252 387.274 31.0373 386.303 30.608C385.351 30.16 384.595 29.5627 384.035 28.816C383.475 28.0507 383.176 27.2013 383.139 26.268H386.443C386.499 26.9213 386.807 27.472 387.367 27.92C387.946 28.3493 388.664 28.564 389.523 28.564C390.419 28.564 391.11 28.396 391.595 28.06C392.099 27.7053 392.351 27.2573 392.351 26.716C392.351 26.1373 392.071 25.708 391.511 25.428C390.97 25.148 390.102 24.84 388.907 24.504C387.75 24.1867 386.807 23.8787 386.079 23.58C385.351 23.2813 384.716 22.824 384.175 22.208C383.652 21.592 383.391 20.78 383.391 19.772C383.391 18.9507 383.634 18.204 384.119 17.532C384.604 16.8413 385.295 16.3 386.191 15.908C387.106 15.516 388.151 15.32 389.327 15.32C391.082 15.32 392.491 15.768 393.555 16.664C394.638 17.5413 395.216 18.7453 395.291 20.276H392.099C392.043 19.5853 391.763 19.0347 391.259 18.624C390.755 18.2133 390.074 18.008 389.215 18.008C388.375 18.008 387.731 18.1667 387.283 18.484C386.835 18.8013 386.611 19.2213 386.611 19.744C386.611 20.1547 386.76 20.5 387.059 20.78C387.358 21.06 387.722 21.284 388.151 21.452C388.58 21.6013 389.215 21.7973 390.055 22.04C391.175 22.3387 392.09 22.6467 392.799 22.964C393.527 23.2627 394.152 23.7107 394.675 24.308C395.198 24.9053 395.468 25.6987 395.487 26.688C395.487 27.5653 395.244 28.3493 394.759 29.04C394.274 29.7307 393.583 30.272 392.687 30.664C391.81 31.056 390.774 31.252 389.579 31.252ZM414.189 15.32C415.365 15.32 416.411 15.572 417.325 16.076C418.259 16.58 418.987 17.3267 419.509 18.316C420.051 19.3053 420.321 20.5 420.321 21.9V31H417.157V22.376C417.157 20.9947 416.812 19.94 416.121 19.212C415.431 18.4653 414.488 18.092 413.293 18.092C412.099 18.092 411.147 18.4653 410.437 19.212C409.747 19.94 409.401 20.9947 409.401 22.376V31H406.209V10.28H409.401V17.364C409.943 16.7107 410.624 16.2067 411.445 15.852C412.285 15.4973 413.2 15.32 414.189 15.32ZM438.533 22.908C438.533 23.4867 438.496 24.0093 438.421 24.476H426.633C426.726 25.708 427.184 26.6973 428.005 27.444C428.826 28.1907 429.834 28.564 431.029 28.564C432.746 28.564 433.96 27.8453 434.669 26.408H438.113C437.646 27.8267 436.797 28.9933 435.565 29.908C434.352 30.804 432.84 31.252 431.029 31.252C429.554 31.252 428.229 30.9253 427.053 30.272C425.896 29.6 424.981 28.6667 424.309 27.472C423.656 26.2587 423.329 24.8587 423.329 23.272C423.329 21.6853 423.646 20.2947 424.281 19.1C424.934 17.8867 425.84 16.9533 426.997 16.3C428.173 15.6467 429.517 15.32 431.029 15.32C432.485 15.32 433.782 15.6373 434.921 16.272C436.06 16.9067 436.946 17.8027 437.581 18.96C438.216 20.0987 438.533 21.4147 438.533 22.908ZM435.201 21.9C435.182 20.724 434.762 19.7813 433.941 19.072C433.12 18.3627 432.102 18.008 430.889 18.008C429.788 18.008 428.845 18.3627 428.061 19.072C427.277 19.7627 426.81 20.7053 426.661 21.9H435.201ZM444.866 17.812C445.333 17.028 445.949 16.4213 446.714 15.992C447.498 15.544 448.422 15.32 449.486 15.32V18.624H448.674C447.424 18.624 446.472 18.9413 445.818 19.576C445.184 20.2107 444.866 21.312 444.866 22.88V31H441.674V15.572H444.866V17.812ZM466.56 22.908C466.56 23.4867 466.523 24.0093 466.448 24.476H454.66C454.754 25.708 455.211 26.6973 456.032 27.444C456.854 28.1907 457.862 28.564 459.056 28.564C460.774 28.564 461.987 27.8453 462.696 26.408H466.14C465.674 27.8267 464.824 28.9933 463.592 29.908C462.379 30.804 460.867 31.252 459.056 31.252C457.582 31.252 456.256 30.9253 455.08 30.272C453.923 29.6 453.008 28.6667 452.336 27.472C451.683 26.2587 451.356 24.8587 451.356 23.272C451.356 21.6853 451.674 20.2947 452.308 19.1C452.962 17.8867 453.867 16.9533 455.024 16.3C456.2 15.6467 457.544 15.32 459.056 15.32C460.512 15.32 461.81 15.6373 462.948 16.272C464.087 16.9067 464.974 17.8027 465.608 18.96C466.243 20.0987 466.56 21.4147 466.56 22.908ZM463.228 21.9C463.21 20.724 462.79 19.7813 461.968 19.072C461.147 18.3627 460.13 18.008 458.916 18.008C457.815 18.008 456.872 18.3627 456.088 19.072C455.304 19.7627 454.838 20.7053 454.688 21.9H463.228Z" fill="url(#paint2_linear_12847_23883)" fill-opacity="0.37"/>
</g>
<path d="M173.434 21.228C173.434 19.324 173.873 17.616 174.75 16.104C175.646 14.592 176.85 13.416 178.362 12.576C179.893 11.7173 181.564 11.288 183.374 11.288C185.446 11.288 187.285 11.8013 188.89 12.828C190.514 13.836 191.69 15.2733 192.418 17.14H188.582C188.078 16.1133 187.378 15.348 186.482 14.844C185.586 14.34 184.55 14.088 183.374 14.088C182.086 14.088 180.938 14.3773 179.93 14.956C178.922 15.5347 178.129 16.3653 177.55 17.448C176.99 18.5307 176.71 19.7907 176.71 21.228C176.71 22.6653 176.99 23.9253 177.55 25.008C178.129 26.0907 178.922 26.9307 179.93 27.528C180.938 28.1067 182.086 28.396 183.374 28.396C184.55 28.396 185.586 28.144 186.482 27.64C187.378 27.136 188.078 26.3707 188.582 25.344H192.418C191.69 27.2107 190.514 28.648 188.89 29.656C187.285 30.664 185.446 31.168 183.374 31.168C181.545 31.168 179.874 30.748 178.362 29.908C176.85 29.0493 175.646 27.864 174.75 26.352C173.873 24.84 173.434 23.132 173.434 21.228ZM199.347 17.812C199.813 17.028 200.429 16.4213 201.195 15.992C201.979 15.544 202.903 15.32 203.967 15.32V18.624H203.155C201.904 18.624 200.952 18.9413 200.299 19.576C199.664 20.2107 199.347 21.312 199.347 22.88V31H196.155V15.572H199.347V17.812ZM221.041 22.908C221.041 23.4867 221.003 24.0093 220.929 24.476H209.141C209.234 25.708 209.691 26.6973 210.513 27.444C211.334 28.1907 212.342 28.564 213.537 28.564C215.254 28.564 216.467 27.8453 217.177 26.408H220.621C220.154 27.8267 219.305 28.9933 218.073 29.908C216.859 30.804 215.347 31.252 213.537 31.252C212.062 31.252 210.737 30.9253 209.561 30.272C208.403 29.6 207.489 28.6667 206.817 27.472C206.163 26.2587 205.837 24.8587 205.837 23.272C205.837 21.6853 206.154 20.2947 206.789 19.1C207.442 17.8867 208.347 16.9533 209.505 16.3C210.681 15.6467 212.025 15.32 213.537 15.32C214.993 15.32 216.29 15.6373 217.429 16.272C218.567 16.9067 219.454 17.8027 220.089 18.96C220.723 20.0987 221.041 21.4147 221.041 22.908ZM217.709 21.9C217.69 20.724 217.27 19.7813 216.449 19.072C215.627 18.3627 214.61 18.008 213.397 18.008C212.295 18.008 211.353 18.3627 210.569 19.072C209.785 19.7627 209.318 20.7053 209.169 21.9H217.709ZM223.118 23.216C223.118 21.6667 223.435 20.2947 224.07 19.1C224.723 17.9053 225.601 16.9813 226.702 16.328C227.822 15.656 229.054 15.32 230.398 15.32C231.611 15.32 232.666 15.5627 233.562 16.048C234.477 16.5147 235.205 17.1027 235.746 17.812V15.572H238.966V31H235.746V28.704C235.205 29.432 234.467 30.0387 233.534 30.524C232.601 31.0093 231.537 31.252 230.342 31.252C229.017 31.252 227.803 30.916 226.702 30.244C225.601 29.5533 224.723 28.6013 224.07 27.388C223.435 26.156 223.118 24.7653 223.118 23.216ZM235.746 23.272C235.746 22.208 235.522 21.284 235.074 20.5C234.645 19.716 234.075 19.1187 233.366 18.708C232.657 18.2973 231.891 18.092 231.07 18.092C230.249 18.092 229.483 18.2973 228.774 18.708C228.065 19.1 227.486 19.688 227.038 20.472C226.609 21.2373 226.394 22.152 226.394 23.216C226.394 24.28 226.609 25.2133 227.038 26.016C227.486 26.8187 228.065 27.4347 228.774 27.864C229.502 28.2747 230.267 28.48 231.07 28.48C231.891 28.48 232.657 28.2747 233.366 27.864C234.075 27.4533 234.645 26.856 235.074 26.072C235.522 25.2693 235.746 24.336 235.746 23.272ZM246.883 18.176V26.716C246.883 27.2947 247.013 27.7147 247.275 27.976C247.555 28.2187 248.021 28.34 248.675 28.34H250.635V31H248.115C246.677 31 245.576 30.664 244.811 29.992C244.045 29.32 243.663 28.228 243.663 26.716V18.176H241.843V15.572H243.663V11.736H246.883V15.572H250.635V18.176H246.883ZM255.201 13.528C254.622 13.528 254.137 13.332 253.745 12.94C253.353 12.548 253.157 12.0627 253.157 11.484C253.157 10.9053 253.353 10.42 253.745 10.028C254.137 9.636 254.622 9.44 255.201 9.44C255.761 9.44 256.237 9.636 256.629 10.028C257.021 10.42 257.217 10.9053 257.217 11.484C257.217 12.0627 257.021 12.548 256.629 12.94C256.237 13.332 255.761 13.528 255.201 13.528ZM256.769 15.572V31H253.577V15.572H256.769ZM266.923 28.144L271.291 15.572H274.679L268.799 31H264.991L259.139 15.572H262.555L266.923 28.144ZM278.716 13.528C278.138 13.528 277.652 13.332 277.26 12.94C276.868 12.548 276.672 12.0627 276.672 11.484C276.672 10.9053 276.868 10.42 277.26 10.028C277.652 9.636 278.138 9.44 278.716 9.44C279.276 9.44 279.752 9.636 280.144 10.028C280.536 10.42 280.732 10.9053 280.732 11.484C280.732 12.0627 280.536 12.548 280.144 12.94C279.752 13.332 279.276 13.528 278.716 13.528ZM280.284 15.572V31H277.092V15.572H280.284ZM288.199 18.176V26.716C288.199 27.2947 288.33 27.7147 288.591 27.976C288.871 28.2187 289.338 28.34 289.991 28.34H291.951V31H289.431C287.994 31 286.892 30.664 286.127 29.992C285.362 29.32 284.979 28.228 284.979 26.716V18.176H283.159V15.572H284.979V11.736H288.199V15.572H291.951V18.176H288.199ZM308.781 15.572L299.317 38.252H296.013L299.149 30.748L293.073 15.572H296.629L300.969 27.332L305.477 15.572H308.781ZM324.063 31.252C322.85 31.252 321.758 31.0373 320.787 30.608C319.835 30.16 319.079 29.5627 318.519 28.816C317.959 28.0507 317.661 27.2013 317.623 26.268H320.927C320.983 26.9213 321.291 27.472 321.851 27.92C322.43 28.3493 323.149 28.564 324.007 28.564C324.903 28.564 325.594 28.396 326.079 28.06C326.583 27.7053 326.835 27.2573 326.835 26.716C326.835 26.1373 326.555 25.708 325.995 25.428C325.454 25.148 324.586 24.84 323.391 24.504C322.234 24.1867 321.291 23.8787 320.563 23.58C319.835 23.2813 319.201 22.824 318.659 22.208C318.137 21.592 317.875 20.78 317.875 19.772C317.875 18.9507 318.118 18.204 318.603 17.532C319.089 16.8413 319.779 16.3 320.675 15.908C321.59 15.516 322.635 15.32 323.811 15.32C325.566 15.32 326.975 15.768 328.039 16.664C329.122 17.5413 329.701 18.7453 329.775 20.276H326.583C326.527 19.5853 326.247 19.0347 325.743 18.624C325.239 18.2133 324.558 18.008 323.699 18.008C322.859 18.008 322.215 18.1667 321.767 18.484C321.319 18.8013 321.095 19.2213 321.095 19.744C321.095 20.1547 321.245 20.5 321.543 20.78C321.842 21.06 322.206 21.284 322.635 21.452C323.065 21.6013 323.699 21.7973 324.539 22.04C325.659 22.3387 326.574 22.6467 327.283 22.964C328.011 23.2627 328.637 23.7107 329.159 24.308C329.682 24.9053 329.953 25.6987 329.971 26.688C329.971 27.5653 329.729 28.3493 329.243 29.04C328.758 29.7307 328.067 30.272 327.171 30.664C326.294 31.056 325.258 31.252 324.063 31.252ZM337.144 18.176V26.716C337.144 27.2947 337.275 27.7147 337.536 27.976C337.816 28.2187 338.283 28.34 338.936 28.34H340.896V31H338.376C336.939 31 335.838 30.664 335.072 29.992C334.307 29.32 333.924 28.228 333.924 26.716V18.176H332.104V15.572H333.924V11.736H337.144V15.572H340.896V18.176H337.144ZM342.774 23.216C342.774 21.6667 343.092 20.2947 343.726 19.1C344.38 17.9053 345.257 16.9813 346.358 16.328C347.478 15.656 348.71 15.32 350.054 15.32C351.268 15.32 352.322 15.5627 353.218 16.048C354.133 16.5147 354.861 17.1027 355.402 17.812V15.572H358.622V31H355.402V28.704C354.861 29.432 354.124 30.0387 353.19 30.524C352.257 31.0093 351.193 31.252 349.998 31.252C348.673 31.252 347.46 30.916 346.358 30.244C345.257 29.5533 344.38 28.6013 343.726 27.388C343.092 26.156 342.774 24.7653 342.774 23.216ZM355.402 23.272C355.402 22.208 355.178 21.284 354.73 20.5C354.301 19.716 353.732 19.1187 353.022 18.708C352.313 18.2973 351.548 18.092 350.726 18.092C349.905 18.092 349.14 18.2973 348.43 18.708C347.721 19.1 347.142 19.688 346.694 20.472C346.265 21.2373 346.05 22.152 346.05 23.216C346.05 24.28 346.265 25.2133 346.694 26.016C347.142 26.8187 347.721 27.4347 348.43 27.864C349.158 28.2747 349.924 28.48 350.726 28.48C351.548 28.48 352.313 28.2747 353.022 27.864C353.732 27.4533 354.301 26.856 354.73 26.072C355.178 25.2693 355.402 24.336 355.402 23.272ZM366.007 17.812C366.474 17.028 367.09 16.4213 367.855 15.992C368.639 15.544 369.563 15.32 370.627 15.32V18.624H369.815C368.564 18.624 367.612 18.9413 366.959 19.576C366.324 20.2107 366.007 21.312 366.007 22.88V31H362.815V15.572H366.007V17.812ZM377.285 18.176V26.716C377.285 27.2947 377.416 27.7147 377.677 27.976C377.957 28.2187 378.424 28.34 379.077 28.34H381.037V31H378.517C377.08 31 375.978 30.664 375.213 29.992C374.448 29.32 374.065 28.228 374.065 26.716V18.176H372.245V15.572H374.065V11.736H377.285V15.572H381.037V18.176H377.285ZM389.579 31.252C388.366 31.252 387.274 31.0373 386.303 30.608C385.351 30.16 384.595 29.5627 384.035 28.816C383.475 28.0507 383.176 27.2013 383.139 26.268H386.443C386.499 26.9213 386.807 27.472 387.367 27.92C387.946 28.3493 388.664 28.564 389.523 28.564C390.419 28.564 391.11 28.396 391.595 28.06C392.099 27.7053 392.351 27.2573 392.351 26.716C392.351 26.1373 392.071 25.708 391.511 25.428C390.97 25.148 390.102 24.84 388.907 24.504C387.75 24.1867 386.807 23.8787 386.079 23.58C385.351 23.2813 384.716 22.824 384.175 22.208C383.652 21.592 383.391 20.78 383.391 19.772C383.391 18.9507 383.634 18.204 384.119 17.532C384.604 16.8413 385.295 16.3 386.191 15.908C387.106 15.516 388.151 15.32 389.327 15.32C391.082 15.32 392.491 15.768 393.555 16.664C394.638 17.5413 395.216 18.7453 395.291 20.276H392.099C392.043 19.5853 391.763 19.0347 391.259 18.624C390.755 18.2133 390.074 18.008 389.215 18.008C388.375 18.008 387.731 18.1667 387.283 18.484C386.835 18.8013 386.611 19.2213 386.611 19.744C386.611 20.1547 386.76 20.5 387.059 20.78C387.358 21.06 387.722 21.284 388.151 21.452C388.58 21.6013 389.215 21.7973 390.055 22.04C391.175 22.3387 392.09 22.6467 392.799 22.964C393.527 23.2627 394.152 23.7107 394.675 24.308C395.198 24.9053 395.468 25.6987 395.487 26.688C395.487 27.5653 395.244 28.3493 394.759 29.04C394.274 29.7307 393.583 30.272 392.687 30.664C391.81 31.056 390.774 31.252 389.579 31.252ZM414.189 15.32C415.365 15.32 416.411 15.572 417.325 16.076C418.259 16.58 418.987 17.3267 419.509 18.316C420.051 19.3053 420.321 20.5 420.321 21.9V31H417.157V22.376C417.157 20.9947 416.812 19.94 416.121 19.212C415.431 18.4653 414.488 18.092 413.293 18.092C412.099 18.092 411.147 18.4653 410.437 19.212C409.747 19.94 409.401 20.9947 409.401 22.376V31H406.209V10.28H409.401V17.364C409.943 16.7107 410.624 16.2067 411.445 15.852C412.285 15.4973 413.2 15.32 414.189 15.32ZM438.533 22.908C438.533 23.4867 438.496 24.0093 438.421 24.476H426.633C426.726 25.708 427.184 26.6973 428.005 27.444C428.826 28.1907 429.834 28.564 431.029 28.564C432.746 28.564 433.96 27.8453 434.669 26.408H438.113C437.646 27.8267 436.797 28.9933 435.565 29.908C434.352 30.804 432.84 31.252 431.029 31.252C429.554 31.252 428.229 30.9253 427.053 30.272C425.896 29.6 424.981 28.6667 424.309 27.472C423.656 26.2587 423.329 24.8587 423.329 23.272C423.329 21.6853 423.646 20.2947 424.281 19.1C424.934 17.8867 425.84 16.9533 426.997 16.3C428.173 15.6467 429.517 15.32 431.029 15.32C432.485 15.32 433.782 15.6373 434.921 16.272C436.06 16.9067 436.946 17.8027 437.581 18.96C438.216 20.0987 438.533 21.4147 438.533 22.908ZM435.201 21.9C435.182 20.724 434.762 19.7813 433.941 19.072C433.12 18.3627 432.102 18.008 430.889 18.008C429.788 18.008 428.845 18.3627 428.061 19.072C427.277 19.7627 426.81 20.7053 426.661 21.9H435.201ZM444.866 17.812C445.333 17.028 445.949 16.4213 446.714 15.992C447.498 15.544 448.422 15.32 449.486 15.32V18.624H448.674C447.424 18.624 446.472 18.9413 445.818 19.576C445.184 20.2107 444.866 21.312 444.866 22.88V31H441.674V15.572H444.866V17.812ZM466.56 22.908C466.56 23.4867 466.523 24.0093 466.448 24.476H454.66C454.754 25.708 455.211 26.6973 456.032 27.444C456.854 28.1907 457.862 28.564 459.056 28.564C460.774 28.564 461.987 27.8453 462.696 26.408H466.14C465.674 27.8267 464.824 28.9933 463.592 29.908C462.379 30.804 460.867 31.252 459.056 31.252C457.582 31.252 456.256 30.9253 455.08 30.272C453.923 29.6 453.008 28.6667 452.336 27.472C451.683 26.2587 451.356 24.8587 451.356 23.272C451.356 21.6853 451.674 20.2947 452.308 19.1C452.962 17.8867 453.867 16.9533 455.024 16.3C456.2 15.6467 457.544 15.32 459.056 15.32C460.512 15.32 461.81 15.6373 462.948 16.272C464.087 16.9067 464.974 17.8027 465.608 18.96C466.243 20.0987 466.56 21.4147 466.56 22.908ZM463.228 21.9C463.21 20.724 462.79 19.7813 461.968 19.072C461.147 18.3627 460.13 18.008 458.916 18.008C457.815 18.008 456.872 18.3627 456.088 19.072C455.304 19.7627 454.838 20.7053 454.688 21.9H463.228Z" fill="url(#paint3_linear_12847_23883)"/>
<g filter="url(#filter2_f_12847_23883)">
<path d="M510.139 18.6342C510.594 18.9475 511.217 18.8327 511.53 18.3778C511.843 17.923 511.729 17.3003 511.274 16.9871L510.139 18.6342ZM513.886 14.6431L513.617 15.6062L513.886 14.6431ZM517.383 17.8106L516.424 18.0922L517.383 17.8106ZM513.886 23.5123L513.711 22.5278L513.886 23.5123ZM506.574 20.6614L505.856 21.3575L506.574 20.6614ZM498.625 13.376L498.12 14.2387L498.625 13.376ZM490.535 12.1776L490.749 13.1544H490.749L490.535 12.1776ZM484.812 17.5668L483.889 17.181L483.889 17.181L484.812 17.5668ZM484.812 25.169L483.893 25.5641L483.893 25.5641L484.812 25.169ZM490.677 29.9203L490.42 30.8866L490.444 30.8931L490.469 30.8983L490.677 29.9203ZM497.847 28.97L497.141 28.2616L497.847 28.97ZM499.897 23.5123L500.893 23.4238V23.4238L499.897 23.5123ZM496.718 19.3944L497.17 18.5023V18.5023L496.718 19.3944ZM511.274 16.9871C511.336 17.0296 511.276 17.0439 511.276 16.8601C511.277 16.6815 511.347 16.424 511.521 16.172C511.835 15.72 512.485 15.2903 513.617 15.6062L514.155 13.6799C512.197 13.1333 510.674 13.8855 509.878 15.0319C509.499 15.5791 509.279 16.225 509.276 16.8504C509.273 17.4706 509.494 18.1897 510.139 18.6342L511.274 16.9871ZM513.617 15.6062C514.415 15.8288 515.01 16.124 515.452 16.5065C515.882 16.8796 516.214 17.3773 516.424 18.0922L518.343 17.5291C518.034 16.4789 517.506 15.6409 516.762 14.9954C516.028 14.3595 515.135 13.9533 514.155 13.6799L513.617 15.6062ZM516.424 18.0922C516.995 20.0381 515.69 22.1751 513.711 22.5278L514.061 24.4968C517.238 23.9307 519.242 20.5925 518.343 17.5291L516.424 18.0922ZM513.711 22.5278C511.867 22.8562 510.697 22.5955 509.815 22.1317C508.878 21.6391 508.182 20.8843 507.292 19.9654L505.856 21.3575C506.669 22.1964 507.603 23.228 508.884 23.9017C510.219 24.6044 511.853 24.8902 514.061 24.4968L513.711 22.5278ZM507.292 19.9654C504.403 16.9858 503.15 14.8696 499.131 12.5134L498.12 14.2387C501.826 16.4114 502.736 18.1392 505.856 21.3575L507.292 19.9654ZM499.131 12.5134C497.924 11.8054 496.778 11.2145 495.377 10.9458C493.972 10.6764 492.397 10.7453 490.32 11.2008L490.749 13.1544C492.663 12.7344 493.949 12.7084 495 12.91C496.055 13.1122 496.959 13.5583 498.12 14.2387L499.131 12.5134ZM490.32 11.2008C488.287 11.6469 485.612 13.0613 483.889 17.181L485.735 17.9526C487.191 14.4701 489.313 13.4693 490.749 13.1544L490.32 11.2008ZM483.889 17.181C482.57 20.3365 482.844 23.1246 483.893 25.5641L485.731 24.7738C484.872 22.7787 484.646 20.5565 485.735 17.9526L483.889 17.181ZM483.893 25.5641C484.786 27.639 486.454 28.9661 487.824 29.7603C488.516 30.1615 489.154 30.4396 489.621 30.6183C489.855 30.7079 490.048 30.7732 490.186 30.8169C490.255 30.8387 490.31 30.8552 490.349 30.8667C490.369 30.8725 490.385 30.877 490.397 30.8803C490.403 30.8819 490.408 30.8833 490.411 30.8843C490.413 30.8849 490.415 30.8853 490.416 30.8857C490.417 30.8859 490.418 30.886 490.418 30.8862C490.419 30.8863 490.419 30.8864 490.419 30.8864C490.419 30.8865 490.42 30.8866 490.677 29.9203C490.935 28.954 490.935 28.9541 490.935 28.9542C490.935 28.9542 490.936 28.9543 490.936 28.9543C490.936 28.9544 490.936 28.9545 490.937 28.9545C490.937 28.9546 490.937 28.9546 490.937 28.9546C490.937 28.9545 490.935 28.9542 490.933 28.9535C490.928 28.9522 490.92 28.9498 490.908 28.9463C490.883 28.9392 490.844 28.9275 490.792 28.9109C490.687 28.8776 490.531 28.8249 490.336 28.7504C489.945 28.6009 489.408 28.3664 488.827 28.0299C487.652 27.3488 486.387 26.3002 485.731 24.7738L483.893 25.5641ZM490.677 29.9203C490.469 30.8983 490.469 30.8984 490.469 30.8984C490.469 30.8984 490.469 30.8985 490.47 30.8985C490.47 30.8986 490.471 30.8988 490.471 30.8989C490.473 30.8991 490.474 30.8995 490.476 30.8998C490.48 30.9006 490.485 30.9016 490.491 30.9029C490.503 30.9054 490.52 30.9089 490.542 30.9131C490.585 30.9217 490.646 30.9335 490.724 30.9475C490.88 30.9755 491.102 31.0124 491.373 31.0497C491.913 31.1241 492.66 31.2016 493.482 31.2111C494.298 31.2205 495.22 31.1633 496.096 30.9525C496.966 30.7432 497.864 30.3649 498.553 29.6785L497.141 28.2616C496.805 28.5965 496.294 28.8477 495.628 29.008C494.967 29.1669 494.224 29.2195 493.505 29.2112C492.79 29.203 492.129 29.135 491.646 29.0684C491.405 29.0353 491.21 29.0028 491.078 28.979C491.012 28.9672 490.962 28.9575 490.929 28.951C490.913 28.9478 490.901 28.9454 490.893 28.9439C490.89 28.9431 490.887 28.9426 490.886 28.9424C490.885 28.9422 490.885 28.9422 490.885 28.9422C490.885 28.9421 490.885 28.9422 490.885 28.9422C490.885 28.9422 490.886 28.9422 490.886 28.9422C490.886 28.9423 490.886 28.9423 490.677 29.9203ZM498.553 29.6785C499.651 28.5846 500.317 27.582 500.658 26.5222C500.998 25.4677 500.985 24.4538 500.893 23.4238L498.901 23.6008C498.985 24.5441 498.971 25.2378 498.755 25.9082C498.54 26.5733 498.093 27.3128 497.141 28.2616L498.553 29.6785ZM500.893 23.4238C500.688 21.1119 499.174 19.5177 497.17 18.5023L496.266 20.2865C497.89 21.1088 498.777 22.2033 498.901 23.6008L500.893 23.4238ZM497.17 18.5023C496.044 17.9321 494.853 17.9514 494.014 18.0763C493.585 18.1401 493.22 18.2355 492.961 18.3154C492.83 18.3556 492.725 18.3924 492.649 18.4203C492.611 18.4343 492.581 18.4461 492.558 18.4551C492.547 18.4596 492.538 18.4633 492.53 18.4663C492.527 18.4678 492.523 18.4691 492.521 18.4702C492.52 18.4708 492.518 18.4712 492.517 18.4717C492.517 18.4719 492.516 18.4721 492.516 18.4723C492.516 18.4724 492.515 18.4725 492.515 18.4726C492.515 18.4727 492.515 18.4728 492.903 19.3944C493.291 20.316 493.291 20.3161 493.29 20.3162C493.29 20.3163 493.29 20.3164 493.29 20.3165C493.29 20.3166 493.289 20.3167 493.289 20.3168C493.288 20.3171 493.288 20.3172 493.288 20.3174C493.287 20.3176 493.287 20.3177 493.287 20.3175C493.288 20.3172 493.291 20.3162 493.295 20.3145C493.304 20.311 493.32 20.3048 493.342 20.2965C493.387 20.2799 493.458 20.255 493.55 20.2267C493.735 20.1695 494 20.1004 494.308 20.0545C494.943 19.9601 495.66 19.9794 496.266 20.2865L497.17 18.5023ZM517.558 20.3679L636 20.3679V18.3679L517.558 18.3679V20.3679Z" fill="url(#paint4_linear_12847_23883)" fill-opacity="0.37"/>
</g>
<path d="M510.139 18.6342C510.594 18.9475 511.217 18.8327 511.53 18.3778C511.843 17.923 511.729 17.3003 511.274 16.9871L510.139 18.6342ZM513.886 14.6431L513.617 15.6062L513.886 14.6431ZM517.383 17.8106L516.424 18.0922L517.383 17.8106ZM513.886 23.5123L513.711 22.5278L513.886 23.5123ZM506.574 20.6614L505.856 21.3575L506.574 20.6614ZM498.625 13.376L498.12 14.2387L498.625 13.376ZM490.535 12.1776L490.749 13.1544H490.749L490.535 12.1776ZM484.812 17.5668L483.889 17.181L483.889 17.181L484.812 17.5668ZM484.812 25.169L483.893 25.5641L483.893 25.5641L484.812 25.169ZM490.677 29.9203L490.42 30.8866L490.444 30.8931L490.469 30.8983L490.677 29.9203ZM497.847 28.97L497.141 28.2616L497.847 28.97ZM499.897 23.5123L500.893 23.4238V23.4238L499.897 23.5123ZM496.718 19.3944L497.17 18.5023V18.5023L496.718 19.3944ZM511.274 16.9871C511.336 17.0296 511.276 17.0439 511.276 16.8601C511.277 16.6815 511.347 16.424 511.521 16.172C511.835 15.72 512.485 15.2903 513.617 15.6062L514.155 13.6799C512.197 13.1333 510.674 13.8855 509.878 15.0319C509.499 15.5791 509.279 16.225 509.276 16.8504C509.273 17.4706 509.494 18.1897 510.139 18.6342L511.274 16.9871ZM513.617 15.6062C514.415 15.8288 515.01 16.124 515.452 16.5065C515.882 16.8796 516.214 17.3773 516.424 18.0922L518.343 17.5291C518.034 16.4789 517.506 15.6409 516.762 14.9954C516.028 14.3595 515.135 13.9533 514.155 13.6799L513.617 15.6062ZM516.424 18.0922C516.995 20.0381 515.69 22.1751 513.711 22.5278L514.061 24.4968C517.238 23.9307 519.242 20.5925 518.343 17.5291L516.424 18.0922ZM513.711 22.5278C511.867 22.8562 510.697 22.5955 509.815 22.1317C508.878 21.6391 508.182 20.8843 507.292 19.9654L505.856 21.3575C506.669 22.1964 507.603 23.228 508.884 23.9017C510.219 24.6044 511.853 24.8902 514.061 24.4968L513.711 22.5278ZM507.292 19.9654C504.403 16.9858 503.15 14.8696 499.131 12.5134L498.12 14.2387C501.826 16.4114 502.736 18.1392 505.856 21.3575L507.292 19.9654ZM499.131 12.5134C497.924 11.8054 496.778 11.2145 495.377 10.9458C493.972 10.6764 492.397 10.7453 490.32 11.2008L490.749 13.1544C492.663 12.7344 493.949 12.7084 495 12.91C496.055 13.1122 496.959 13.5583 498.12 14.2387L499.131 12.5134ZM490.32 11.2008C488.287 11.6469 485.612 13.0613 483.889 17.181L485.735 17.9526C487.191 14.4701 489.313 13.4693 490.749 13.1544L490.32 11.2008ZM483.889 17.181C482.57 20.3365 482.844 23.1246 483.893 25.5641L485.731 24.7738C484.872 22.7787 484.646 20.5565 485.735 17.9526L483.889 17.181ZM483.893 25.5641C484.786 27.639 486.454 28.9661 487.824 29.7603C488.516 30.1615 489.154 30.4396 489.621 30.6183C489.855 30.7079 490.048 30.7732 490.186 30.8169C490.255 30.8387 490.31 30.8552 490.349 30.8667C490.369 30.8725 490.385 30.877 490.397 30.8803C490.403 30.8819 490.408 30.8833 490.411 30.8843C490.413 30.8849 490.415 30.8853 490.416 30.8857C490.417 30.8859 490.418 30.886 490.418 30.8862C490.419 30.8863 490.419 30.8864 490.419 30.8864C490.419 30.8865 490.42 30.8866 490.677 29.9203C490.935 28.954 490.935 28.9541 490.935 28.9542C490.935 28.9542 490.936 28.9543 490.936 28.9543C490.936 28.9544 490.936 28.9545 490.937 28.9545C490.937 28.9546 490.937 28.9546 490.937 28.9546C490.937 28.9545 490.935 28.9542 490.933 28.9535C490.928 28.9522 490.92 28.9498 490.908 28.9463C490.883 28.9392 490.844 28.9275 490.792 28.9109C490.687 28.8776 490.531 28.8249 490.336 28.7504C489.945 28.6009 489.408 28.3664 488.827 28.0299C487.652 27.3488 486.387 26.3002 485.731 24.7738L483.893 25.5641ZM490.677 29.9203C490.469 30.8983 490.469 30.8984 490.469 30.8984C490.469 30.8984 490.469 30.8985 490.47 30.8985C490.47 30.8986 490.471 30.8988 490.471 30.8989C490.473 30.8991 490.474 30.8995 490.476 30.8998C490.48 30.9006 490.485 30.9016 490.491 30.9029C490.503 30.9054 490.52 30.9089 490.542 30.9131C490.585 30.9217 490.646 30.9335 490.724 30.9475C490.88 30.9755 491.102 31.0124 491.373 31.0497C491.913 31.1241 492.66 31.2016 493.482 31.2111C494.298 31.2205 495.22 31.1633 496.096 30.9525C496.966 30.7432 497.864 30.3649 498.553 29.6785L497.141 28.2616C496.805 28.5965 496.294 28.8477 495.628 29.008C494.967 29.1669 494.224 29.2195 493.505 29.2112C492.79 29.203 492.129 29.135 491.646 29.0684C491.405 29.0353 491.21 29.0028 491.078 28.979C491.012 28.9672 490.962 28.9575 490.929 28.951C490.913 28.9478 490.901 28.9454 490.893 28.9439C490.89 28.9431 490.887 28.9426 490.886 28.9424C490.885 28.9422 490.885 28.9422 490.885 28.9422C490.885 28.9421 490.885 28.9422 490.885 28.9422C490.885 28.9422 490.886 28.9422 490.886 28.9422C490.886 28.9423 490.886 28.9423 490.677 29.9203ZM498.553 29.6785C499.651 28.5846 500.317 27.582 500.658 26.5222C500.998 25.4677 500.985 24.4538 500.893 23.4238L498.901 23.6008C498.985 24.5441 498.971 25.2378 498.755 25.9082C498.54 26.5733 498.093 27.3128 497.141 28.2616L498.553 29.6785ZM500.893 23.4238C500.688 21.1119 499.174 19.5177 497.17 18.5023L496.266 20.2865C497.89 21.1088 498.777 22.2033 498.901 23.6008L500.893 23.4238ZM497.17 18.5023C496.044 17.9321 494.853 17.9514 494.014 18.0763C493.585 18.1401 493.22 18.2355 492.961 18.3154C492.83 18.3556 492.725 18.3924 492.649 18.4203C492.611 18.4343 492.581 18.4461 492.558 18.4551C492.547 18.4596 492.538 18.4633 492.53 18.4663C492.527 18.4678 492.523 18.4691 492.521 18.4702C492.52 18.4708 492.518 18.4712 492.517 18.4717C492.517 18.4719 492.516 18.4721 492.516 18.4723C492.516 18.4724 492.515 18.4725 492.515 18.4726C492.515 18.4727 492.515 18.4728 492.903 19.3944C493.291 20.316 493.291 20.3161 493.29 20.3162C493.29 20.3163 493.29 20.3164 493.29 20.3165C493.29 20.3166 493.289 20.3167 493.289 20.3168C493.288 20.3171 493.288 20.3172 493.288 20.3174C493.287 20.3176 493.287 20.3177 493.287 20.3175C493.288 20.3172 493.291 20.3162 493.295 20.3145C493.304 20.311 493.32 20.3048 493.342 20.2965C493.387 20.2799 493.458 20.255 493.55 20.2267C493.735 20.1695 494 20.1004 494.308 20.0545C494.943 19.9601 495.66 19.9794 496.266 20.2865L497.17 18.5023ZM517.558 20.3679L636 20.3679V18.3679L517.558 18.3679V20.3679Z" fill="url(#paint5_linear_12847_23883)"/>
<defs>
<filter id="filter0_f_12847_23883" x="0" y="6.78784" width="161" height="28.4243" filterUnits="userSpaceOnUse" color-interpolation-filters="sRGB">
<feFlood flood-opacity="0" result="BackgroundImageFix"/>
<feBlend mode="normal" in="SourceGraphic" in2="BackgroundImageFix" result="shape"/>
<feGaussianBlur stdDeviation="2" result="effect1_foregroundBlur_12847_23883"/>
</filter>
<filter id="filter1_f_12847_23883" x="169.435" y="5.43994" width="301.125" height="36.812" filterUnits="userSpaceOnUse" color-interpolation-filters="sRGB">
<feFlood flood-opacity="0" result="BackgroundImageFix"/>
<feBlend mode="normal" in="SourceGraphic" in2="BackgroundImageFix" result="shape"/>
<feGaussianBlur stdDeviation="2" result="effect1_foregroundBlur_12847_23883"/>
</filter>
<filter id="filter2_f_12847_23883" x="479" y="6.78784" width="161" height="28.4243" filterUnits="userSpaceOnUse" color-interpolation-filters="sRGB">
<feFlood flood-opacity="0" result="BackgroundImageFix"/>
<feBlend mode="normal" in="SourceGraphic" in2="BackgroundImageFix" result="shape"/>
<feGaussianBlur stdDeviation="2" result="effect1_foregroundBlur_12847_23883"/>
</filter>
<linearGradient id="paint0_linear_12847_23883" x1="182.5" y1="19.5012" x2="4" y2="19.5012" gradientUnits="userSpaceOnUse">
<stop offset="0.2" stop-color="#F20790"/>
<stop offset="0.4" stop-color="#5850D7"/>
<stop offset="0.6" stop-color="#007AFF"/>
<stop offset="1" stop-color="#007AFF" stop-opacity="0"/>
</linearGradient>
<linearGradient id="paint1_linear_12847_23883" x1="182.5" y1="19.5012" x2="4" y2="19.5012" gradientUnits="userSpaceOnUse">
<stop offset="0.2" stop-color="#F20790"/>
<stop offset="0.4" stop-color="#5850D7"/>
<stop offset="0.6" stop-color="#007AFF"/>
<stop offset="1" stop-color="#007AFF" stop-opacity="0"/>
</linearGradient>
<linearGradient id="paint2_linear_12847_23883" x1="134.738" y1="-6.49999" x2="527.977" y2="81.3006" gradientUnits="userSpaceOnUse">
<stop stop-color="#F20790"/>
<stop offset="0.120053" stop-color="#F20790"/>
<stop offset="0.824123" stop-color="#007AFF"/>
<stop offset="0.994" stop-color="#007AFF"/>
</linearGradient>
<linearGradient id="paint3_linear_12847_23883" x1="134.738" y1="-6.49999" x2="527.977" y2="81.3006" gradientUnits="userSpaceOnUse">
<stop stop-color="#F20790"/>
<stop offset="0.120053" stop-color="#F20790"/>
<stop offset="0.824123" stop-color="#007AFF"/>
<stop offset="0.994" stop-color="#007AFF"/>
</linearGradient>
<linearGradient id="paint4_linear_12847_23883" x1="457.5" y1="19.5012" x2="636" y2="19.5012" gradientUnits="userSpaceOnUse">
<stop offset="0.2" stop-color="#F20790"/>
<stop offset="0.4" stop-color="#5850D7"/>
<stop offset="0.6" stop-color="#007AFF"/>
<stop offset="1" stop-color="#007AFF" stop-opacity="0"/>
</linearGradient>
<linearGradient id="paint5_linear_12847_23883" x1="457.5" y1="19.5012" x2="636" y2="19.5012" gradientUnits="userSpaceOnUse">
<stop offset="0.2" stop-color="#F20790"/>
<stop offset="0.4" stop-color="#5850D7"/>
<stop offset="0.6" stop-color="#007AFF"/>
<stop offset="1" stop-color="#007AFF" stop-opacity="0"/>
</linearGradient>
</defs>
</svg>
