<svg width="632" height="42" viewBox="0 0 632 42" fill="none" xmlns="http://www.w3.org/2000/svg">
<path d="M124.726 16.9871C124.271 17.3003 124.157 17.923 124.47 18.3778C124.783 18.8327 125.406 18.9475 125.861 18.6342L124.726 16.9871ZM122.114 14.6431L122.383 15.6062L122.114 14.6431ZM118.617 17.8106L119.576 18.0922L118.617 17.8106ZM122.114 23.5123L122.289 22.5278L122.114 23.5123ZM129.426 20.6614L130.144 21.3575L129.426 20.6614ZM137.375 13.376L137.88 14.2387L137.375 13.376ZM145.465 12.1776L145.251 13.1544L145.465 12.1776ZM151.188 17.5668L152.111 17.181V17.181L151.188 17.5668ZM151.188 25.169L152.107 25.5641V25.5641L151.188 25.169ZM145.323 29.9203L145.531 30.8983L145.556 30.8931L145.58 30.8866L145.323 29.9203ZM138.153 28.97L138.859 28.2616H138.859L138.153 28.97ZM136.103 23.5123L135.107 23.4238V23.4238L136.103 23.5123ZM139.282 19.3944L138.83 18.5023V18.5023L139.282 19.3944ZM125.861 18.6342C126.506 18.1897 126.727 17.4706 126.724 16.8504C126.721 16.225 126.501 15.5792 126.122 15.0319C125.326 13.8855 123.803 13.1333 121.845 13.6799L122.383 15.6062C123.515 15.2903 124.165 15.72 124.479 16.172C124.653 16.424 124.723 16.6815 124.724 16.8601C124.724 17.0439 124.664 17.0296 124.726 16.9871L125.861 18.6342ZM121.845 13.6799C120.865 13.9533 119.972 14.3595 119.238 14.9954C118.494 15.6409 117.966 16.4789 117.657 17.5291L119.576 18.0922C119.786 17.3773 120.118 16.8796 120.548 16.5065C120.99 16.124 121.585 15.8288 122.383 15.6062L121.845 13.6799ZM117.657 17.5291C116.758 20.5925 118.762 23.9307 121.939 24.4968L122.289 22.5278C120.31 22.1751 119.005 20.038 119.576 18.0922L117.657 17.5291ZM121.939 24.4968C124.147 24.8902 125.781 24.6044 127.116 23.9017C128.397 23.228 129.331 22.1964 130.144 21.3575L128.708 19.9654C127.818 20.8843 127.122 21.6391 126.185 22.1317C125.303 22.5955 124.133 22.8562 122.289 22.5278L121.939 24.4968ZM130.144 21.3575C133.264 18.1392 134.174 16.4114 137.88 14.2387L136.869 12.5134C132.85 14.8696 131.597 16.9858 128.708 19.9654L130.144 21.3575ZM137.88 14.2387C139.041 13.5583 139.945 13.1122 141 12.91C142.051 12.7084 143.337 12.7344 145.251 13.1544L145.68 11.2008C143.603 10.7453 142.028 10.6764 140.623 10.9458C139.222 11.2145 138.076 11.8054 136.869 12.5134L137.88 14.2387ZM145.251 13.1544C146.687 13.4693 148.809 14.4701 150.265 17.9526L152.111 17.181C150.388 13.0613 147.713 11.6469 145.68 11.2008L145.251 13.1544ZM150.265 17.9526C151.354 20.5565 151.128 22.7787 150.269 24.7738L152.107 25.5641C153.156 23.1246 153.43 20.3365 152.111 17.181L150.265 17.9526ZM150.269 24.7738C149.613 26.3002 148.348 27.3488 147.173 28.0299C146.592 28.3664 146.055 28.6009 145.664 28.7504C145.469 28.8249 145.313 28.8776 145.208 28.9109C145.156 28.9275 145.117 28.9392 145.092 28.9463C145.08 28.9498 145.072 28.9522 145.067 28.9535C145.065 28.9542 145.063 28.9545 145.063 28.9546C145.063 28.9546 145.063 28.9546 145.063 28.9545C145.064 28.9545 145.064 28.9544 145.064 28.9543C145.064 28.9543 145.065 28.9542 145.065 28.9542C145.065 28.9541 145.065 28.954 145.323 29.9203C145.58 30.8866 145.581 30.8865 145.581 30.8864C145.581 30.8864 145.581 30.8863 145.582 30.8862C145.582 30.886 145.583 30.8859 145.584 30.8857C145.585 30.8853 145.587 30.8849 145.589 30.8843C145.592 30.8833 145.597 30.8819 145.603 30.8803C145.615 30.877 145.631 30.8725 145.651 30.8667C145.69 30.8552 145.745 30.8387 145.814 30.8169C145.952 30.7732 146.145 30.7079 146.379 30.6183C146.846 30.4396 147.484 30.1615 148.176 29.7603C149.546 28.9661 151.214 27.639 152.107 25.5641L150.269 24.7738ZM145.323 29.9203C145.114 28.9423 145.114 28.9423 145.114 28.9422C145.114 28.9422 145.115 28.9422 145.115 28.9422C145.115 28.9422 145.115 28.9421 145.115 28.9422C145.115 28.9422 145.115 28.9422 145.114 28.9424C145.113 28.9426 145.11 28.9431 145.107 28.9439C145.099 28.9454 145.087 28.9478 145.071 28.951C145.038 28.9575 144.988 28.9672 144.922 28.979C144.79 29.0028 144.595 29.0353 144.354 29.0684C143.871 29.135 143.21 29.203 142.495 29.2112C141.776 29.2195 141.033 29.1669 140.372 29.008C139.706 28.8477 139.195 28.5965 138.859 28.2616L137.447 29.6785C138.136 30.3649 139.034 30.7432 139.904 30.9525C140.78 31.1633 141.702 31.2205 142.518 31.2111C143.34 31.2016 144.087 31.1241 144.627 31.0497C144.898 31.0124 145.12 30.9755 145.276 30.9475C145.354 30.9335 145.415 30.9217 145.458 30.9131C145.48 30.9089 145.497 30.9054 145.509 30.9029C145.516 30.9016 145.52 30.9006 145.524 30.8998C145.526 30.8995 145.527 30.8991 145.529 30.8989C145.529 30.8988 145.53 30.8986 145.53 30.8985C145.531 30.8985 145.531 30.8984 145.531 30.8984C145.531 30.8984 145.531 30.8983 145.323 29.9203ZM138.859 28.2616C137.907 27.3128 137.46 26.5733 137.245 25.9082C137.029 25.2378 137.015 24.5441 137.099 23.6008L135.107 23.4238C135.015 24.4538 135.002 25.4677 135.342 26.5222C135.684 27.582 136.349 28.5846 137.447 29.6785L138.859 28.2616ZM137.099 23.6008C137.223 22.2033 138.11 21.1089 139.734 20.2865L138.83 18.5023C136.826 19.5177 135.312 21.1119 135.107 23.4238L137.099 23.6008ZM139.734 20.2865C140.34 19.9794 141.057 19.9601 141.692 20.0545C142 20.1004 142.265 20.1695 142.45 20.2267C142.542 20.255 142.613 20.2799 142.658 20.2965C142.68 20.3048 142.696 20.311 142.705 20.3145C142.709 20.3162 142.712 20.3172 142.713 20.3175C142.713 20.3177 142.713 20.3176 142.712 20.3174C142.712 20.3172 142.712 20.3171 142.711 20.3168C142.711 20.3167 142.71 20.3166 142.71 20.3165C142.71 20.3164 142.71 20.3163 142.71 20.3162C142.709 20.3161 142.709 20.316 143.097 19.3944C143.485 18.4728 143.485 18.4727 143.485 18.4726C143.485 18.4725 143.484 18.4724 143.484 18.4723C143.484 18.4721 143.483 18.4719 143.483 18.4717C143.482 18.4712 143.48 18.4708 143.479 18.4702C143.477 18.4691 143.473 18.4678 143.47 18.4663C143.462 18.4633 143.453 18.4596 143.442 18.4551C143.419 18.4461 143.389 18.4343 143.351 18.4203C143.275 18.3924 143.17 18.3556 143.039 18.3154C142.78 18.2355 142.415 18.1401 141.986 18.0763C141.147 17.9514 139.956 17.9321 138.83 18.5023L139.734 20.2865ZM118.442 18.3679L8.85704e-08 18.3679L-8.85704e-08 20.3679L118.442 20.3679V18.3679Z" fill="url(#paint0_linear_12847_23854)"/>
<path d="M169.434 21.228C169.434 19.324 169.873 17.616 170.75 16.104C171.646 14.592 172.85 13.416 174.362 12.576C175.893 11.7173 177.564 11.288 179.374 11.288C181.446 11.288 183.285 11.8013 184.89 12.828C186.514 13.836 187.69 15.2733 188.418 17.14H184.582C184.078 16.1133 183.378 15.348 182.482 14.844C181.586 14.34 180.55 14.088 179.374 14.088C178.086 14.088 176.938 14.3773 175.93 14.956C174.922 15.5347 174.129 16.3653 173.55 17.448C172.99 18.5307 172.71 19.7907 172.71 21.228C172.71 22.6653 172.99 23.9253 173.55 25.008C174.129 26.0907 174.922 26.9307 175.93 27.528C176.938 28.1067 178.086 28.396 179.374 28.396C180.55 28.396 181.586 28.144 182.482 27.64C183.378 27.136 184.078 26.3707 184.582 25.344H188.418C187.69 27.2107 186.514 28.648 184.89 29.656C183.285 30.664 181.446 31.168 179.374 31.168C177.545 31.168 175.874 30.748 174.362 29.908C172.85 29.0493 171.646 27.864 170.75 26.352C169.873 24.84 169.434 23.132 169.434 21.228ZM195.347 17.812C195.813 17.028 196.429 16.4213 197.195 15.992C197.979 15.544 198.903 15.32 199.967 15.32V18.624H199.155C197.904 18.624 196.952 18.9413 196.299 19.576C195.664 20.2107 195.347 21.312 195.347 22.88V31H192.155V15.572H195.347V17.812ZM217.041 22.908C217.041 23.4867 217.003 24.0093 216.929 24.476H205.141C205.234 25.708 205.691 26.6973 206.513 27.444C207.334 28.1907 208.342 28.564 209.537 28.564C211.254 28.564 212.467 27.8453 213.177 26.408H216.621C216.154 27.8267 215.305 28.9933 214.073 29.908C212.859 30.804 211.347 31.252 209.537 31.252C208.062 31.252 206.737 30.9253 205.561 30.272C204.403 29.6 203.489 28.6667 202.817 27.472C202.163 26.2587 201.837 24.8587 201.837 23.272C201.837 21.6853 202.154 20.2947 202.789 19.1C203.442 17.8867 204.347 16.9533 205.505 16.3C206.681 15.6467 208.025 15.32 209.537 15.32C210.993 15.32 212.29 15.6373 213.429 16.272C214.567 16.9067 215.454 17.8027 216.089 18.96C216.723 20.0987 217.041 21.4147 217.041 22.908ZM213.709 21.9C213.69 20.724 213.27 19.7813 212.449 19.072C211.627 18.3627 210.61 18.008 209.397 18.008C208.295 18.008 207.353 18.3627 206.569 19.072C205.785 19.7627 205.318 20.7053 205.169 21.9H213.709ZM219.118 23.216C219.118 21.6667 219.435 20.2947 220.07 19.1C220.723 17.9053 221.601 16.9813 222.702 16.328C223.822 15.656 225.054 15.32 226.398 15.32C227.611 15.32 228.666 15.5627 229.562 16.048C230.477 16.5147 231.205 17.1027 231.746 17.812V15.572H234.966V31H231.746V28.704C231.205 29.432 230.467 30.0387 229.534 30.524C228.601 31.0093 227.537 31.252 226.342 31.252C225.017 31.252 223.803 30.916 222.702 30.244C221.601 29.5533 220.723 28.6013 220.07 27.388C219.435 26.156 219.118 24.7653 219.118 23.216ZM231.746 23.272C231.746 22.208 231.522 21.284 231.074 20.5C230.645 19.716 230.075 19.1187 229.366 18.708C228.657 18.2973 227.891 18.092 227.07 18.092C226.249 18.092 225.483 18.2973 224.774 18.708C224.065 19.1 223.486 19.688 223.038 20.472C222.609 21.2373 222.394 22.152 222.394 23.216C222.394 24.28 222.609 25.2133 223.038 26.016C223.486 26.8187 224.065 27.4347 224.774 27.864C225.502 28.2747 226.267 28.48 227.07 28.48C227.891 28.48 228.657 28.2747 229.366 27.864C230.075 27.4533 230.645 26.856 231.074 26.072C231.522 25.2693 231.746 24.336 231.746 23.272ZM242.883 18.176V26.716C242.883 27.2947 243.013 27.7147 243.275 27.976C243.555 28.2187 244.021 28.34 244.675 28.34H246.635V31H244.115C242.677 31 241.576 30.664 240.811 29.992C240.045 29.32 239.663 28.228 239.663 26.716V18.176H237.843V15.572H239.663V11.736H242.883V15.572H246.635V18.176H242.883ZM251.201 13.528C250.622 13.528 250.137 13.332 249.745 12.94C249.353 12.548 249.157 12.0627 249.157 11.484C249.157 10.9053 249.353 10.42 249.745 10.028C250.137 9.636 250.622 9.44 251.201 9.44C251.761 9.44 252.237 9.636 252.629 10.028C253.021 10.42 253.217 10.9053 253.217 11.484C253.217 12.0627 253.021 12.548 252.629 12.94C252.237 13.332 251.761 13.528 251.201 13.528ZM252.769 15.572V31H249.577V15.572H252.769ZM262.923 28.144L267.291 15.572H270.679L264.799 31H260.991L255.139 15.572H258.555L262.923 28.144ZM274.716 13.528C274.138 13.528 273.652 13.332 273.26 12.94C272.868 12.548 272.672 12.0627 272.672 11.484C272.672 10.9053 272.868 10.42 273.26 10.028C273.652 9.636 274.138 9.44 274.716 9.44C275.276 9.44 275.752 9.636 276.144 10.028C276.536 10.42 276.732 10.9053 276.732 11.484C276.732 12.0627 276.536 12.548 276.144 12.94C275.752 13.332 275.276 13.528 274.716 13.528ZM276.284 15.572V31H273.092V15.572H276.284ZM284.199 18.176V26.716C284.199 27.2947 284.33 27.7147 284.591 27.976C284.871 28.2187 285.338 28.34 285.991 28.34H287.951V31H285.431C283.994 31 282.892 30.664 282.127 29.992C281.362 29.32 280.979 28.228 280.979 26.716V18.176H279.159V15.572H280.979V11.736H284.199V15.572H287.951V18.176H284.199ZM304.781 15.572L295.317 38.252H292.013L295.149 30.748L289.073 15.572H292.629L296.969 27.332L301.477 15.572H304.781ZM320.063 31.252C318.85 31.252 317.758 31.0373 316.787 30.608C315.835 30.16 315.079 29.5627 314.519 28.816C313.959 28.0507 313.661 27.2013 313.623 26.268H316.927C316.983 26.9213 317.291 27.472 317.851 27.92C318.43 28.3493 319.149 28.564 320.007 28.564C320.903 28.564 321.594 28.396 322.079 28.06C322.583 27.7053 322.835 27.2573 322.835 26.716C322.835 26.1373 322.555 25.708 321.995 25.428C321.454 25.148 320.586 24.84 319.391 24.504C318.234 24.1867 317.291 23.8787 316.563 23.58C315.835 23.2813 315.201 22.824 314.659 22.208C314.137 21.592 313.875 20.78 313.875 19.772C313.875 18.9507 314.118 18.204 314.603 17.532C315.089 16.8413 315.779 16.3 316.675 15.908C317.59 15.516 318.635 15.32 319.811 15.32C321.566 15.32 322.975 15.768 324.039 16.664C325.122 17.5413 325.701 18.7453 325.775 20.276H322.583C322.527 19.5853 322.247 19.0347 321.743 18.624C321.239 18.2133 320.558 18.008 319.699 18.008C318.859 18.008 318.215 18.1667 317.767 18.484C317.319 18.8013 317.095 19.2213 317.095 19.744C317.095 20.1547 317.245 20.5 317.543 20.78C317.842 21.06 318.206 21.284 318.635 21.452C319.065 21.6013 319.699 21.7973 320.539 22.04C321.659 22.3387 322.574 22.6467 323.283 22.964C324.011 23.2627 324.637 23.7107 325.159 24.308C325.682 24.9053 325.953 25.6987 325.971 26.688C325.971 27.5653 325.729 28.3493 325.243 29.04C324.758 29.7307 324.067 30.272 323.171 30.664C322.294 31.056 321.258 31.252 320.063 31.252ZM333.144 18.176V26.716C333.144 27.2947 333.275 27.7147 333.536 27.976C333.816 28.2187 334.283 28.34 334.936 28.34H336.896V31H334.376C332.939 31 331.838 30.664 331.072 29.992C330.307 29.32 329.924 28.228 329.924 26.716V18.176H328.104V15.572H329.924V11.736H333.144V15.572H336.896V18.176H333.144ZM338.774 23.216C338.774 21.6667 339.092 20.2947 339.726 19.1C340.38 17.9053 341.257 16.9813 342.358 16.328C343.478 15.656 344.71 15.32 346.054 15.32C347.268 15.32 348.322 15.5627 349.218 16.048C350.133 16.5147 350.861 17.1027 351.402 17.812V15.572H354.622V31H351.402V28.704C350.861 29.432 350.124 30.0387 349.19 30.524C348.257 31.0093 347.193 31.252 345.998 31.252C344.673 31.252 343.46 30.916 342.358 30.244C341.257 29.5533 340.38 28.6013 339.726 27.388C339.092 26.156 338.774 24.7653 338.774 23.216ZM351.402 23.272C351.402 22.208 351.178 21.284 350.73 20.5C350.301 19.716 349.732 19.1187 349.022 18.708C348.313 18.2973 347.548 18.092 346.726 18.092C345.905 18.092 345.14 18.2973 344.43 18.708C343.721 19.1 343.142 19.688 342.694 20.472C342.265 21.2373 342.05 22.152 342.05 23.216C342.05 24.28 342.265 25.2133 342.694 26.016C343.142 26.8187 343.721 27.4347 344.43 27.864C345.158 28.2747 345.924 28.48 346.726 28.48C347.548 28.48 348.313 28.2747 349.022 27.864C349.732 27.4533 350.301 26.856 350.73 26.072C351.178 25.2693 351.402 24.336 351.402 23.272ZM362.007 17.812C362.474 17.028 363.09 16.4213 363.855 15.992C364.639 15.544 365.563 15.32 366.627 15.32V18.624H365.815C364.564 18.624 363.612 18.9413 362.959 19.576C362.324 20.2107 362.007 21.312 362.007 22.88V31H358.815V15.572H362.007V17.812ZM373.285 18.176V26.716C373.285 27.2947 373.416 27.7147 373.677 27.976C373.957 28.2187 374.424 28.34 375.077 28.34H377.037V31H374.517C373.08 31 371.978 30.664 371.213 29.992C370.448 29.32 370.065 28.228 370.065 26.716V18.176H368.245V15.572H370.065V11.736H373.285V15.572H377.037V18.176H373.285ZM385.579 31.252C384.366 31.252 383.274 31.0373 382.303 30.608C381.351 30.16 380.595 29.5627 380.035 28.816C379.475 28.0507 379.176 27.2013 379.139 26.268H382.443C382.499 26.9213 382.807 27.472 383.367 27.92C383.946 28.3493 384.664 28.564 385.523 28.564C386.419 28.564 387.11 28.396 387.595 28.06C388.099 27.7053 388.351 27.2573 388.351 26.716C388.351 26.1373 388.071 25.708 387.511 25.428C386.97 25.148 386.102 24.84 384.907 24.504C383.75 24.1867 382.807 23.8787 382.079 23.58C381.351 23.2813 380.716 22.824 380.175 22.208C379.652 21.592 379.391 20.78 379.391 19.772C379.391 18.9507 379.634 18.204 380.119 17.532C380.604 16.8413 381.295 16.3 382.191 15.908C383.106 15.516 384.151 15.32 385.327 15.32C387.082 15.32 388.491 15.768 389.555 16.664C390.638 17.5413 391.216 18.7453 391.291 20.276H388.099C388.043 19.5853 387.763 19.0347 387.259 18.624C386.755 18.2133 386.074 18.008 385.215 18.008C384.375 18.008 383.731 18.1667 383.283 18.484C382.835 18.8013 382.611 19.2213 382.611 19.744C382.611 20.1547 382.76 20.5 383.059 20.78C383.358 21.06 383.722 21.284 384.151 21.452C384.58 21.6013 385.215 21.7973 386.055 22.04C387.175 22.3387 388.09 22.6467 388.799 22.964C389.527 23.2627 390.152 23.7107 390.675 24.308C391.198 24.9053 391.468 25.6987 391.487 26.688C391.487 27.5653 391.244 28.3493 390.759 29.04C390.274 29.7307 389.583 30.272 388.687 30.664C387.81 31.056 386.774 31.252 385.579 31.252ZM410.189 15.32C411.365 15.32 412.411 15.572 413.325 16.076C414.259 16.58 414.987 17.3267 415.509 18.316C416.051 19.3053 416.321 20.5 416.321 21.9V31H413.157V22.376C413.157 20.9947 412.812 19.94 412.121 19.212C411.431 18.4653 410.488 18.092 409.293 18.092C408.099 18.092 407.147 18.4653 406.437 19.212C405.747 19.94 405.401 20.9947 405.401 22.376V31H402.209V10.28H405.401V17.364C405.943 16.7107 406.624 16.2067 407.445 15.852C408.285 15.4973 409.2 15.32 410.189 15.32ZM434.533 22.908C434.533 23.4867 434.496 24.0093 434.421 24.476H422.633C422.726 25.708 423.184 26.6973 424.005 27.444C424.826 28.1907 425.834 28.564 427.029 28.564C428.746 28.564 429.96 27.8453 430.669 26.408H434.113C433.646 27.8267 432.797 28.9933 431.565 29.908C430.352 30.804 428.84 31.252 427.029 31.252C425.554 31.252 424.229 30.9253 423.053 30.272C421.896 29.6 420.981 28.6667 420.309 27.472C419.656 26.2587 419.329 24.8587 419.329 23.272C419.329 21.6853 419.646 20.2947 420.281 19.1C420.934 17.8867 421.84 16.9533 422.997 16.3C424.173 15.6467 425.517 15.32 427.029 15.32C428.485 15.32 429.782 15.6373 430.921 16.272C432.06 16.9067 432.946 17.8027 433.581 18.96C434.216 20.0987 434.533 21.4147 434.533 22.908ZM431.201 21.9C431.182 20.724 430.762 19.7813 429.941 19.072C429.12 18.3627 428.102 18.008 426.889 18.008C425.788 18.008 424.845 18.3627 424.061 19.072C423.277 19.7627 422.81 20.7053 422.661 21.9H431.201ZM440.866 17.812C441.333 17.028 441.949 16.4213 442.714 15.992C443.498 15.544 444.422 15.32 445.486 15.32V18.624H444.674C443.424 18.624 442.472 18.9413 441.818 19.576C441.184 20.2107 440.866 21.312 440.866 22.88V31H437.674V15.572H440.866V17.812ZM462.56 22.908C462.56 23.4867 462.523 24.0093 462.448 24.476H450.66C450.754 25.708 451.211 26.6973 452.032 27.444C452.854 28.1907 453.862 28.564 455.056 28.564C456.774 28.564 457.987 27.8453 458.696 26.408H462.14C461.674 27.8267 460.824 28.9933 459.592 29.908C458.379 30.804 456.867 31.252 455.056 31.252C453.582 31.252 452.256 30.9253 451.08 30.272C449.923 29.6 449.008 28.6667 448.336 27.472C447.683 26.2587 447.356 24.8587 447.356 23.272C447.356 21.6853 447.674 20.2947 448.308 19.1C448.962 17.8867 449.867 16.9533 451.024 16.3C452.2 15.6467 453.544 15.32 455.056 15.32C456.512 15.32 457.81 15.6373 458.948 16.272C460.087 16.9067 460.974 17.8027 461.608 18.96C462.243 20.0987 462.56 21.4147 462.56 22.908ZM459.228 21.9C459.21 20.724 458.79 19.7813 457.968 19.072C457.147 18.3627 456.13 18.008 454.916 18.008C453.815 18.008 452.872 18.3627 452.088 19.072C451.304 19.7627 450.838 20.7053 450.688 21.9H459.228Z" fill="url(#paint1_linear_12847_23854)"/>
<path d="M506.139 18.6342C506.594 18.9475 507.217 18.8327 507.53 18.3778C507.843 17.923 507.729 17.3003 507.274 16.9871L506.139 18.6342ZM509.886 14.6431L509.617 15.6062L509.886 14.6431ZM513.383 17.8106L512.424 18.0922L513.383 17.8106ZM509.886 23.5123L509.711 22.5278L509.886 23.5123ZM502.574 20.6614L501.856 21.3575L502.574 20.6614ZM494.625 13.376L494.12 14.2387L494.625 13.376ZM486.535 12.1776L486.749 13.1544H486.749L486.535 12.1776ZM480.812 17.5668L479.889 17.181L479.889 17.181L480.812 17.5668ZM480.812 25.169L479.893 25.5641L479.893 25.5641L480.812 25.169ZM486.677 29.9203L486.42 30.8866L486.444 30.8931L486.469 30.8983L486.677 29.9203ZM493.847 28.97L493.141 28.2616L493.847 28.97ZM495.897 23.5123L496.893 23.4238V23.4238L495.897 23.5123ZM492.718 19.3944L493.17 18.5023V18.5023L492.718 19.3944ZM507.274 16.9871C507.336 17.0296 507.276 17.0439 507.276 16.8601C507.277 16.6815 507.347 16.424 507.521 16.172C507.835 15.72 508.485 15.2903 509.617 15.6062L510.155 13.6799C508.197 13.1333 506.674 13.8855 505.878 15.0319C505.499 15.5791 505.279 16.225 505.276 16.8504C505.273 17.4706 505.494 18.1897 506.139 18.6342L507.274 16.9871ZM509.617 15.6062C510.415 15.8288 511.01 16.124 511.452 16.5065C511.882 16.8796 512.214 17.3773 512.424 18.0922L514.343 17.5291C514.034 16.4789 513.506 15.6409 512.762 14.9954C512.028 14.3595 511.135 13.9533 510.155 13.6799L509.617 15.6062ZM512.424 18.0922C512.995 20.0381 511.69 22.1751 509.711 22.5278L510.061 24.4968C513.238 23.9307 515.242 20.5925 514.343 17.5291L512.424 18.0922ZM509.711 22.5278C507.867 22.8562 506.697 22.5955 505.815 22.1317C504.878 21.6391 504.182 20.8843 503.292 19.9654L501.856 21.3575C502.669 22.1964 503.603 23.228 504.884 23.9017C506.219 24.6044 507.853 24.8902 510.061 24.4968L509.711 22.5278ZM503.292 19.9654C500.403 16.9858 499.15 14.8696 495.131 12.5134L494.12 14.2387C497.826 16.4114 498.736 18.1392 501.856 21.3575L503.292 19.9654ZM495.131 12.5134C493.924 11.8054 492.778 11.2145 491.377 10.9458C489.972 10.6764 488.397 10.7453 486.32 11.2008L486.749 13.1544C488.663 12.7344 489.949 12.7084 491 12.91C492.055 13.1122 492.959 13.5583 494.12 14.2387L495.131 12.5134ZM486.32 11.2008C484.287 11.6469 481.612 13.0613 479.889 17.181L481.735 17.9526C483.191 14.4701 485.313 13.4693 486.749 13.1544L486.32 11.2008ZM479.889 17.181C478.57 20.3365 478.844 23.1246 479.893 25.5641L481.731 24.7738C480.872 22.7787 480.646 20.5565 481.735 17.9526L479.889 17.181ZM479.893 25.5641C480.786 27.639 482.454 28.9661 483.824 29.7603C484.516 30.1615 485.154 30.4396 485.621 30.6183C485.855 30.7079 486.048 30.7732 486.186 30.8169C486.255 30.8387 486.31 30.8552 486.349 30.8667C486.369 30.8725 486.385 30.877 486.397 30.8803C486.403 30.8819 486.408 30.8833 486.411 30.8843C486.413 30.8849 486.415 30.8853 486.416 30.8857C486.417 30.8859 486.418 30.886 486.418 30.8862C486.419 30.8863 486.419 30.8864 486.419 30.8864C486.419 30.8865 486.42 30.8866 486.677 29.9203C486.935 28.954 486.935 28.9541 486.935 28.9542C486.935 28.9542 486.936 28.9543 486.936 28.9543C486.936 28.9544 486.936 28.9545 486.937 28.9545C486.937 28.9546 486.937 28.9546 486.937 28.9546C486.937 28.9545 486.935 28.9542 486.933 28.9535C486.928 28.9522 486.92 28.9498 486.908 28.9463C486.883 28.9392 486.844 28.9275 486.792 28.9109C486.687 28.8776 486.531 28.8249 486.336 28.7504C485.945 28.6009 485.408 28.3664 484.827 28.0299C483.652 27.3488 482.387 26.3002 481.731 24.7738L479.893 25.5641ZM486.677 29.9203C486.469 30.8983 486.469 30.8984 486.469 30.8984C486.469 30.8984 486.469 30.8985 486.47 30.8985C486.47 30.8986 486.471 30.8988 486.471 30.8989C486.473 30.8991 486.474 30.8995 486.476 30.8998C486.48 30.9006 486.485 30.9016 486.491 30.9029C486.503 30.9054 486.52 30.9089 486.542 30.9131C486.585 30.9217 486.646 30.9335 486.724 30.9475C486.88 30.9755 487.102 31.0124 487.373 31.0497C487.913 31.1241 488.66 31.2016 489.482 31.2111C490.298 31.2205 491.22 31.1633 492.096 30.9525C492.966 30.7432 493.864 30.3649 494.553 29.6785L493.141 28.2616C492.805 28.5965 492.294 28.8477 491.628 29.008C490.967 29.1669 490.224 29.2195 489.505 29.2112C488.79 29.203 488.129 29.135 487.646 29.0684C487.405 29.0353 487.21 29.0028 487.078 28.979C487.012 28.9672 486.962 28.9575 486.929 28.951C486.913 28.9478 486.901 28.9454 486.893 28.9439C486.89 28.9431 486.887 28.9426 486.886 28.9424C486.885 28.9422 486.885 28.9422 486.885 28.9422C486.885 28.9421 486.885 28.9422 486.885 28.9422C486.885 28.9422 486.886 28.9422 486.886 28.9422C486.886 28.9423 486.886 28.9423 486.677 29.9203ZM494.553 29.6785C495.651 28.5846 496.317 27.582 496.658 26.5222C496.998 25.4677 496.985 24.4538 496.893 23.4238L494.901 23.6008C494.985 24.5441 494.971 25.2378 494.755 25.9082C494.54 26.5733 494.093 27.3128 493.141 28.2616L494.553 29.6785ZM496.893 23.4238C496.688 21.1119 495.174 19.5177 493.17 18.5023L492.266 20.2865C493.89 21.1088 494.777 22.2033 494.901 23.6008L496.893 23.4238ZM493.17 18.5023C492.044 17.9321 490.853 17.9514 490.014 18.0763C489.585 18.1401 489.22 18.2355 488.961 18.3154C488.83 18.3556 488.725 18.3924 488.649 18.4203C488.611 18.4343 488.581 18.4461 488.558 18.4551C488.547 18.4596 488.538 18.4633 488.53 18.4663C488.527 18.4678 488.523 18.4691 488.521 18.4702C488.52 18.4708 488.518 18.4712 488.517 18.4717C488.517 18.4719 488.516 18.4721 488.516 18.4723C488.516 18.4724 488.515 18.4725 488.515 18.4726C488.515 18.4727 488.515 18.4728 488.903 19.3944C489.291 20.316 489.291 20.3161 489.29 20.3162C489.29 20.3163 489.29 20.3164 489.29 20.3165C489.29 20.3166 489.289 20.3167 489.289 20.3168C489.288 20.3171 489.288 20.3172 489.288 20.3174C489.287 20.3176 489.287 20.3177 489.287 20.3175C489.288 20.3172 489.291 20.3162 489.295 20.3145C489.304 20.311 489.32 20.3048 489.342 20.2965C489.387 20.2799 489.458 20.255 489.55 20.2267C489.735 20.1695 490 20.1004 490.308 20.0545C490.943 19.9601 491.66 19.9794 492.266 20.2865L493.17 18.5023ZM513.558 20.3679L632 20.3679V18.3679L513.558 18.3679V20.3679Z" fill="url(#paint2_linear_12847_23854)"/>
<defs>
<linearGradient id="paint0_linear_12847_23854" x1="178.5" y1="19.5012" x2="-8.95825e-07" y2="19.5012" gradientUnits="userSpaceOnUse">
<stop stop-color="#F20790"/>
<stop offset="0.0346543" stop-color="#5850D7"/>
<stop offset="0.06" stop-color="#007AFF"/>
<stop offset="0.09" stop-color="#007AFF" stop-opacity="0"/>
</linearGradient>
<linearGradient id="paint1_linear_12847_23854" x1="130.738" y1="-6.49999" x2="523.977" y2="81.3006" gradientUnits="userSpaceOnUse">
<stop stop-color="#F20790" stop-opacity="0"/>
<stop offset="0.47" stop-color="#F20790" stop-opacity="0.3"/>
<stop offset="0.53" stop-color="#007AFF" stop-opacity="0.3"/>
<stop offset="0.994" stop-color="#007AFF" stop-opacity="0"/>
</linearGradient>
<linearGradient id="paint2_linear_12847_23854" x1="453.5" y1="19.5012" x2="632" y2="19.5012" gradientUnits="userSpaceOnUse">
<stop stop-color="#F20790"/>
<stop offset="0.03" stop-color="#5850D7"/>
<stop offset="0.06" stop-color="#007AFF"/>
<stop offset="0.09" stop-color="#007AFF" stop-opacity="0"/>
</linearGradient>
</defs>
</svg>
