<svg width="29" height="28" viewBox="0 0 29 28" fill="none" xmlns="http://www.w3.org/2000/svg">
<g id="Product Icons">
<path id="Vector" d="M27.4347 24.0435C27.4347 24.2972 27.334 24.5405 27.1546 24.7198C26.9752 24.8992 26.7319 25 26.4782 25H3.52171C3.26802 25 3.02473 24.8992 2.84534 24.7198C2.66596 24.5405 2.56519 24.2972 2.56519 24.0435C2.56519 23.7898 2.66596 23.5465 2.84534 23.3671C3.02473 23.1877 3.26802 23.087 3.52171 23.087H4.47823V15.4348C4.47823 15.1811 4.57901 14.9378 4.75839 14.7584C4.93777 14.579 5.18107 14.4783 5.43475 14.4783H8.30432C8.558 14.4783 8.8013 14.579 8.98068 14.7584C9.16006 14.9378 9.26084 15.1811 9.26084 15.4348V23.087H11.1739V9.69565C11.1739 9.44197 11.2747 9.19867 11.454 9.01929C11.6334 8.83991 11.8767 8.73913 12.1304 8.73913H15.9565C16.2102 8.73913 16.4535 8.83991 16.6329 9.01929C16.8122 9.19867 16.913 9.44197 16.913 9.69565V23.087H18.8261V3.95652C18.8261 3.70284 18.9268 3.45954 19.1062 3.28016C19.2856 3.10078 19.5289 3 19.7826 3H24.5652C24.8189 3 25.0622 3.10078 25.2415 3.28016C25.4209 3.45954 25.5217 3.70284 25.5217 3.95652V23.087H26.4782C26.7319 23.087 26.9752 23.1877 27.1546 23.3671C27.334 23.5465 27.4347 23.7898 27.4347 24.0435Z" fill="white"/>
</g>
</svg>
