<svg width="64" height="64" viewBox="0 0 64 64" fill="none" xmlns="http://www.w3.org/2000/svg">
<path fill-rule="evenodd" clip-rule="evenodd" d="M21.4571 10.3453C21.2682 10.5352 21.0647 10.9531 21.0048 11.2739C20.8485 12.1115 20.3948 12.9318 19.6373 13.7458C19.1295 14.2918 18.6085 14.6237 17.3809 15.1838C15.8465 15.884 15.7326 15.9121 14.4314 15.9121C13.1621 15.9121 13.0092 15.8771 11.975 15.3503C11.3685 15.0412 10.7135 14.7885 10.5197 14.789C10.0581 14.7897 7.13799 17.6764 6.99314 18.2752C6.91587 18.5942 7.02678 18.9592 7.46386 19.8251C8.16206 21.2079 8.3075 22.5405 7.89885 23.8084C7.46297 25.1604 6.54147 26.9671 6.02073 27.4907C5.33682 28.1781 4.1557 28.832 3.38947 28.9476C2.27772 29.1152 2.16264 29.4087 2.16815 32.0598C2.17172 33.7469 2.22517 34.3914 2.3785 34.5948C2.49164 34.7448 2.97517 34.9688 3.45304 35.0928C5.34486 35.583 6.33171 36.5117 7.33479 38.7454C8.01155 40.2528 8.03701 40.3603 8.04028 41.731C8.04356 43.0968 8.02167 43.193 7.48545 44.1683C7.17848 44.7269 6.92719 45.3633 6.92719 45.5827C6.92719 45.8906 7.29475 46.3513 8.53497 47.5982C10.3497 49.4228 10.6263 49.5311 11.6797 48.8302C12.884 48.029 14.4016 47.8205 15.8596 48.2557C17.5399 48.7575 19.0252 49.5714 19.7591 50.3927C20.4147 51.1262 21.0697 52.4722 21.0697 53.0857C21.0697 53.233 21.2249 53.4999 21.4142 53.6789C21.7379 53.9844 21.8989 54.004 24.0566 53.9995C25.7753 53.9959 26.4229 53.9426 26.6258 53.788C26.775 53.6743 26.9987 53.1901 27.1229 52.7119C27.6442 50.7049 28.7155 49.5938 30.926 48.7672C31.4186 48.5831 31.9349 48.2595 32.1542 47.9974C32.4969 47.5881 32.5326 47.4206 32.5326 46.2263C32.5326 45.1502 32.4802 44.8423 32.2479 44.554L31.9631 44.2006L27.1491 44.1779C22.7872 44.1572 22.2233 44.1258 21.1442 43.842C16.9292 42.7337 13.7169 39.6447 12.412 35.4447C12.1092 34.4701 12.0632 34.0162 12.0632 32.0021C12.0632 29.9869 12.109 29.5357 12.4118 28.5661C13.6552 24.5853 16.595 21.6031 20.5487 20.3123C21.5257 19.9933 21.9144 19.9668 26.7774 19.8878L31.964 19.8037L32.2483 19.4503C32.4798 19.1628 32.5326 18.8532 32.5326 17.7867C32.5326 16.2226 32.3668 15.9314 31.1702 15.3967C30.7324 15.2009 30.0994 14.9158 29.7637 14.7631C28.5894 14.2286 27.5077 12.8446 27.1527 11.4219C26.8074 10.0389 26.7238 10 24.0888 10C21.8974 10 21.7859 10.0147 21.4571 10.3453ZM39.8766 12.6627C38.0113 13.333 36.9987 14.7715 36.9987 16.7511C36.9987 17.233 37.1066 17.8985 37.2385 18.23C37.5293 18.9606 37.5311 18.9574 35.8433 20.7391L34.6737 21.974H29.7326C25.0112 21.974 24.7784 21.9871 24.4974 22.2696C24.1171 22.652 23.9899 23.1859 24.0937 23.9646C24.2511 25.1439 24.1096 25.1171 30.1732 25.1171C35.1722 25.1171 35.5588 25.0981 36.0878 24.8269C36.3998 24.6668 37.4039 23.7109 38.3265 22.6957L39.9992 20.8547L40.9512 20.9038C42.775 20.9981 44.2081 20.1684 44.9913 18.565C46.0341 16.4299 45.1634 13.8832 43.0365 12.848C42.0908 12.3878 40.8455 12.3147 39.8766 12.6627ZM40.2918 14.8878C38.4325 15.8385 39.1668 18.6826 41.2712 18.6805C42.8161 18.679 43.7401 16.913 42.8838 15.599C42.3385 14.7623 41.1664 14.4407 40.2918 14.8878ZM55.5329 19.9037C54.7092 20.2151 53.8639 20.9074 53.3783 21.6683L52.8967 22.423H49.183C46.0776 22.423 45.3915 22.4622 44.993 22.6623C44.731 22.794 43.4447 23.9712 42.1347 25.2783L39.7528 27.655L32.2761 27.6957L24.7995 27.7364L24.4605 28.0774C23.9931 28.5474 23.969 30.0444 24.4215 30.4993C24.7145 30.794 24.9049 30.801 32.7221 30.8073C38.4603 30.8121 40.8173 30.7652 41.0567 30.6421C41.2401 30.5476 42.5001 29.367 43.8566 28.0183L46.3228 25.5661H49.6816H53.0404L53.2248 26.0135C53.3262 26.2596 53.6778 26.705 54.0061 27.0033C56.2312 29.0244 59.6629 28.3478 60.8344 25.657C61.2433 24.7175 61.2819 23.2207 60.9189 22.3724C60.5492 21.5082 59.8276 20.6701 59.0682 20.2226C58.5108 19.8942 58.1725 19.8145 57.1841 19.7785C56.5215 19.7546 55.7785 19.8109 55.5329 19.9037ZM55.6905 22.4353C55.4031 22.6891 55.1047 23.1269 55.0275 23.4081C54.5786 25.0426 56.321 26.5166 57.8054 25.758C59.1718 25.0598 59.3217 23.0551 58.0657 22.2747C57.3034 21.8009 56.335 21.8663 55.6905 22.4353ZM45.4467 31.0183C44.6267 31.3124 43.8651 31.9525 43.3572 32.774L42.9089 33.4989H33.8666C25.4569 33.4989 24.8019 33.5173 24.5009 33.7623C23.8247 34.3128 23.977 36.1261 24.7283 36.4704C24.997 36.5934 27.6302 36.6421 34.0245 36.6421H42.9459L43.1599 37.0583C43.5555 37.8273 44.7957 38.8478 45.6417 39.1005C46.7067 39.4184 47.395 39.3973 48.41 39.0154C51.9502 37.6836 52.0769 32.6899 48.6105 31.1156C47.8213 30.7572 46.3045 30.7105 45.4467 31.0183ZM45.9149 33.2739C44.9922 33.7782 44.6521 35.2935 45.2706 36.1444C46.4309 37.7408 48.9094 37.0118 48.9076 35.0745C48.9063 33.549 47.243 32.5482 45.9149 33.2739ZM24.4974 39.4821C24.1171 39.8645 23.9899 40.3984 24.0937 41.1772C24.2496 42.3454 24.1738 42.3297 29.6392 42.3297C32.8612 42.3297 34.5671 42.3846 34.7959 42.4958C34.9839 42.5871 35.5471 43.1339 36.0473 43.7109L36.9567 44.7601L36.68 45.4923C36.0922 47.0471 36.4534 48.6861 37.6485 49.8875C39.8929 52.144 43.6886 51.2735 44.6791 48.2751C45.6377 45.3735 43.1891 42.3313 40.1811 42.6868L39.3925 42.7799L38.084 41.2785C36.1496 39.059 36.6314 39.1865 30.1781 39.1865C25.0131 39.1865 24.7794 39.1986 24.4974 39.4821ZM39.8302 45.1364C39.1997 45.4547 38.6363 46.2621 38.6363 46.8469C38.6363 48.0053 39.5199 48.9143 40.646 48.9143C42.8558 48.9143 43.4048 45.9563 41.3579 45.0794C40.7301 44.8104 40.455 44.8207 39.8302 45.1364Z" fill="url(#paint0_linear_11881_6789)"/>
<defs>
<linearGradient id="paint0_linear_11881_6789" x1="2.27674" y1="4.25889" x2="53.3401" y2="63.3761" gradientUnits="userSpaceOnUse">
<stop stop-color="#EC0992"/>
<stop offset="1" stop-color="#0877FC"/>
</linearGradient>
</defs>
</svg>
