<svg width="29" height="28" viewBox="0 0 29 28" fill="none" xmlns="http://www.w3.org/2000/svg">
<g id="Nav Icon" clip-path="url(#clip0_20476_13757)">
<path id="Vector" fill-rule="evenodd" clip-rule="evenodd" d="M9.57236 3.87819C9.48406 3.96697 9.38894 4.16229 9.36097 4.31221C9.28791 4.70369 9.07583 5.08713 8.7218 5.46756C8.48446 5.72276 8.24092 5.87793 7.66716 6.13971C6.94998 6.46698 6.89675 6.48013 6.28855 6.48013C5.6953 6.48013 5.62384 6.46376 5.14046 6.21751C4.85698 6.07304 4.55082 5.95495 4.46023 5.95516C4.24446 5.95551 2.87962 7.30472 2.81192 7.58462C2.77581 7.7337 2.82765 7.90433 3.03194 8.30903C3.35827 8.95537 3.42625 9.5782 3.23525 10.1708C3.03152 10.8027 2.60081 11.6472 2.35742 11.8919C2.03776 12.2132 1.4857 12.5189 1.12757 12.5729C0.607936 12.6512 0.55415 12.7884 0.556724 14.0275C0.558394 14.8161 0.583374 15.1173 0.655043 15.2124C0.707925 15.2825 0.933924 15.3872 1.15728 15.4451C2.04152 15.6743 2.50277 16.1083 2.97161 17.1524C3.28793 17.8569 3.29982 17.9072 3.30136 18.5478C3.30289 19.1862 3.29266 19.2312 3.04203 19.687C2.89855 19.9481 2.7811 20.2456 2.7811 20.3481C2.7811 20.492 2.95289 20.7074 3.53257 21.2902C4.38077 22.143 4.51005 22.1936 5.00241 21.866C5.56532 21.4915 6.27463 21.3941 6.95611 21.5975C7.74147 21.832 8.43568 22.2124 8.77872 22.5963C9.08515 22.9391 9.39131 23.5683 9.39131 23.855C9.39131 23.9239 9.46381 24.0486 9.55232 24.1323C9.70359 24.2751 9.77888 24.2842 10.7874 24.2821C11.5907 24.2804 11.8934 24.2555 11.9882 24.1833C12.0579 24.1301 12.1625 23.9038 12.2206 23.6803C12.4642 22.7422 12.9649 22.2229 13.9981 21.8365C14.2284 21.7505 14.4697 21.5993 14.5722 21.4768C14.7324 21.2854 14.7491 21.2071 14.7491 20.6489C14.7491 20.1459 14.7246 20.002 14.616 19.8673L14.4828 19.7021L12.2328 19.6915C10.1941 19.6818 9.93049 19.6672 9.4261 19.5345C7.45605 19.0165 5.95463 17.5727 5.34468 15.6096C5.20315 15.1541 5.18165 14.9419 5.18165 14.0006C5.18165 13.0587 5.20308 12.8477 5.34461 12.3946C5.92575 10.534 7.29984 9.14006 9.14778 8.53674C9.60444 8.38766 9.78611 8.37528 12.0591 8.33834L14.4833 8.29903L14.6162 8.13386C14.7244 7.99947 14.7491 7.8548 14.7491 7.35628C14.7491 6.62522 14.6715 6.48915 14.1123 6.23919C13.9076 6.14769 13.6118 6.01442 13.4549 5.94306C12.906 5.69324 12.4004 5.04634 12.2345 4.3814C12.0731 3.73499 12.034 3.7168 10.8024 3.7168C9.77818 3.7168 9.72607 3.72365 9.57236 3.87819ZM18.1816 4.96134C17.3098 5.27462 16.8365 5.94698 16.8365 6.87224C16.8365 7.0975 16.8869 7.40854 16.9486 7.56349C17.0845 7.90496 17.0853 7.90349 16.2965 8.73626L15.7498 9.31342H13.4403C11.2335 9.31342 11.1247 9.31957 10.9934 9.45158C10.8156 9.63032 10.7562 9.87986 10.8047 10.2439C10.8783 10.795 10.8122 10.7825 13.6463 10.7825C15.9828 10.7825 16.1635 10.7736 16.4107 10.6469C16.5566 10.572 17.0259 10.1253 17.4571 9.65075L18.2389 8.79027L18.6839 8.81322C19.5363 8.85729 20.2062 8.46951 20.5722 7.72006C21.0597 6.72211 20.6527 5.53178 19.6586 5.04795C19.2165 4.83283 18.6345 4.79869 18.1816 4.96134ZM18.3757 6.00134C17.5066 6.44571 17.8499 7.77504 18.8335 7.77407C19.5555 7.77337 19.9874 6.94793 19.5872 6.33378C19.3323 5.94271 18.7845 5.79237 18.3757 6.00134ZM25.4994 8.34576C25.1144 8.49134 24.7193 8.8149 24.4923 9.17056L24.2672 9.52329H22.5314C21.08 9.52329 20.7593 9.54162 20.573 9.63515C20.4505 9.69671 19.8494 10.2469 19.237 10.8579L18.1238 11.9687L14.6292 11.9878L11.1346 12.0068L10.9762 12.1662C10.7577 12.3858 10.7464 13.0855 10.9579 13.2981C11.0949 13.4359 11.1839 13.4392 14.8376 13.4421C17.5196 13.4443 18.6213 13.4225 18.7332 13.3649C18.8189 13.3207 19.4079 12.7689 20.0419 12.1385L21.1946 10.9924H22.7645H24.3344L24.4206 11.2015C24.468 11.3165 24.6323 11.5247 24.7857 11.6641C25.8258 12.6088 27.4297 12.2926 27.9773 11.0349C28.1684 10.5957 28.1864 9.89616 28.0168 9.49964C27.844 9.09571 27.5067 8.70401 27.1518 8.49484C26.8913 8.34135 26.7331 8.30406 26.2712 8.28727C25.9614 8.27608 25.6142 8.30239 25.4994 8.34576ZM25.573 9.52902C25.4387 9.64767 25.2992 9.8523 25.2631 9.98375C25.0533 10.7477 25.8677 11.4366 26.5615 11.0821C27.2002 10.7557 27.2703 9.81872 26.6832 9.45396C26.3269 9.23254 25.8743 9.26312 25.573 9.52902ZM20.7851 13.5408C20.4018 13.6782 20.0459 13.9774 19.8085 14.3614L19.5989 14.7002H15.3726C11.4419 14.7002 11.1357 14.7088 10.995 14.8233C10.679 15.0806 10.7502 15.9281 11.1013 16.089C11.2269 16.1465 12.4577 16.1693 15.4463 16.1693H19.6162L19.7163 16.3638C19.9011 16.7233 20.4808 17.2002 20.8762 17.3183C21.374 17.4669 21.6957 17.4571 22.1701 17.2786C23.8248 16.6561 23.884 14.322 22.2638 13.5862C21.895 13.4187 21.186 13.3968 20.7851 13.5408ZM21.0039 14.595C20.5727 14.8307 20.4137 15.539 20.7028 15.9367C21.2451 16.6828 22.4036 16.3421 22.4027 15.4366C22.4021 14.7236 21.6247 14.2558 21.0039 14.595ZM10.9934 17.4967C10.8156 17.6755 10.7562 17.925 10.8047 18.289C10.8776 18.835 10.8421 18.8277 13.3967 18.8277C14.9026 18.8277 15.7 18.8533 15.8069 18.9053C15.8948 18.948 16.158 19.2035 16.3918 19.4732L16.8169 19.9636L16.6875 20.3059C16.4128 21.0326 16.5816 21.7986 17.1402 22.3602C18.1892 23.4149 19.9633 23.008 20.4263 21.6065C20.8744 20.2503 19.7299 18.8284 18.3239 18.9946L17.9554 19.0381L17.3437 18.3364C16.4396 17.2989 16.6648 17.3586 13.6486 17.3586C11.2344 17.3586 11.1252 17.3642 10.9934 17.4967ZM18.1599 20.1395C17.8653 20.2883 17.6019 20.6657 17.6019 20.939C17.6019 21.4805 18.0149 21.9053 18.5412 21.9053C19.5741 21.9053 19.8307 20.5227 18.874 20.1129C18.5806 19.9871 18.452 19.992 18.1599 20.1395Z" fill="white"/>
</g>
<defs>
<clipPath id="clip0_20476_13757">
<rect width="28" height="28" fill="white" transform="translate(0.5)"/>
</clipPath>
</defs>
</svg>
