<svg width="30" height="30" viewBox="0 0 30 30" fill="none" xmlns="http://www.w3.org/2000/svg">
<path fill-rule="evenodd" clip-rule="evenodd" d="M10.9254 0.172974H15.9186C21.1666 0.172974 21.4176 0.180537 22.355 0.36652C24.1698 0.726636 25.8177 1.61575 27.1707 2.9647C28.7104 4.49992 29.641 6.41106 29.9138 8.5981C29.987 9.18534 29.9433 10.7045 29.8359 11.3084C29.6215 12.513 29.2002 13.6376 28.5845 14.6489C27.311 16.7406 25.1711 18.3252 22.8212 18.9166L22.6777 18.953C22.5314 18.9902 22.4092 19.0214 22.2858 19.0475C21.6571 19.1805 21.0007 19.1824 16.9985 19.1937L16.2305 19.1959H14.9792V19.2309C14.977 19.2192 14.9747 19.2075 14.9724 19.1959H14.9708V19.1881C14.7532 18.1057 14.1969 17.1519 13.6534 16.6496C12.9594 15.8686 12.0574 15.3011 11.0528 15.0137C10.0483 14.7262 8.98263 14.7306 7.98047 15.0263C6.97831 15.322 6.08102 15.8969 5.39345 16.6837C4.70589 17.4704 4.25645 18.4367 4.09766 19.4694C3.93887 20.5022 4.07729 21.5588 4.49674 22.5158C4.9162 23.4727 5.59936 24.2906 6.46639 24.8737C7.33342 25.4568 8.34851 25.7811 9.39303 25.8087L15.1665 25.7912L15.0601 19.9765L15.0645 19.9857H19.0246V29.827H14.0314C8.78336 29.827 8.53237 29.8195 7.59497 29.6335C5.78023 29.2734 4.13231 28.3843 2.77933 27.0353C1.23957 25.5001 0.308981 23.589 0.036224 21.4019C-0.0369763 20.8147 0.00668103 19.2955 0.114128 18.6916C0.328517 17.487 0.749773 16.3624 1.36546 15.3512C2.63898 13.2595 4.77888 11.6749 7.12875 11.0835L7.27229 11.047C7.41855 11.0098 7.54083 10.9786 7.66417 10.9525C8.29285 10.8195 8.9493 10.8176 12.9515 10.8063L13.7195 10.8041H14.9708V10.7691C14.973 10.7808 14.9753 10.7925 14.9776 10.8041H14.9792V10.8119C15.1968 11.8943 15.7531 12.8481 16.2966 13.3504C16.9906 14.1315 17.8926 14.6989 18.8972 14.9863C19.9017 15.2738 20.9674 15.2694 21.9695 14.9737C22.9717 14.678 23.869 14.1031 24.5565 13.3163C25.2441 12.5296 25.6936 11.5633 25.8523 10.5306C26.0111 9.49786 25.8727 8.44125 25.4533 7.48426C25.0338 6.52727 24.3506 5.70943 23.4836 5.12631C22.6166 4.54319 21.6015 4.21888 20.557 4.19128L14.7835 4.20883L14.8923 10.1538L14.8949 10.1922H10.9254V0.172974Z" fill="white"/>
</svg>
