<svg width="48" height="48" viewBox="0 0 48 48" fill="none" xmlns="http://www.w3.org/2000/svg">
<g filter="url(#filter0_d_21847_162805)">
<path d="M4 16C4 9.37258 9.37258 4 16 4H32C38.6274 4 44 9.37258 44 16V32C44 38.6274 38.6274 44 32 44H16C9.37258 44 4 38.6274 4 32V16Z" fill="white" shape-rendering="crispEdges"/>
<path d="M16 3.25C8.95837 3.25 3.25 8.95837 3.25 16V32C3.25 39.0416 8.95837 44.75 16 44.75H32C39.0416 44.75 44.75 39.0416 44.75 32V16C44.75 8.95837 39.0416 3.25 32 3.25H16Z" stroke="white" stroke-opacity="0.35" stroke-width="1.5" shape-rendering="crispEdges"/>
<path fill-rule="evenodd" clip-rule="evenodd" d="M28.5 16.4779V16.7049C29.799 16.8237 31.0927 16.9945 32.378 17.2169C32.4751 17.2338 32.5678 17.2695 32.6511 17.3222C32.7343 17.3749 32.8063 17.4434 32.8631 17.5239C32.9198 17.6044 32.9601 17.6953 32.9817 17.7914C33.0033 17.8875 33.0058 17.9869 32.989 18.0839C32.9722 18.181 32.9364 18.2738 32.8838 18.357C32.8311 18.4402 32.7626 18.5123 32.682 18.569C32.6015 18.6257 32.5106 18.6661 32.4146 18.6877C32.3185 18.7093 32.2191 18.7118 32.122 18.6949L31.913 18.6599L30.908 31.7299C30.8501 32.4835 30.5098 33.1875 29.9553 33.701C29.4008 34.2146 28.6728 34.4999 27.917 34.4999H20.084C19.3282 34.4999 18.6003 34.2146 18.0457 33.701C17.4912 33.1875 17.151 32.4835 17.093 31.7299L16.087 18.6599L15.878 18.6949C15.781 18.7118 15.6816 18.7093 15.5855 18.6877C15.4894 18.6661 15.3985 18.6257 15.318 18.569C15.1554 18.4544 15.045 18.2799 15.011 18.0839C14.9771 17.888 15.0224 17.6865 15.1369 17.5239C15.2515 17.3613 15.426 17.2509 15.622 17.2169C16.9073 16.9943 18.201 16.8235 19.5 16.7049V16.4779C19.5 14.9139 20.713 13.5779 22.316 13.5269C23.4387 13.491 24.5623 13.491 25.685 13.5269C27.288 13.5779 28.5 14.9139 28.5 16.4779ZM22.364 15.0259C23.4547 14.9911 24.5463 14.9911 25.637 15.0259C26.39 15.0499 27 15.6839 27 16.4779V16.5909C25.0018 16.4696 22.9982 16.4696 21 16.5909V16.4779C21 15.6839 21.609 15.0499 22.364 15.0259ZM22.009 20.9709C22.0052 20.8725 21.982 20.7757 21.9408 20.6861C21.8996 20.5966 21.8412 20.5161 21.7688 20.4491C21.6965 20.3822 21.6117 20.3301 21.5192 20.2959C21.4268 20.2618 21.3285 20.2461 21.23 20.2499C21.1315 20.2538 21.0347 20.2769 20.9452 20.3181C20.8557 20.3593 20.7751 20.4178 20.7082 20.4901C20.6412 20.5625 20.5892 20.6473 20.555 20.7397C20.5208 20.8322 20.5052 20.9305 20.509 21.0289L20.856 30.0289C20.8637 30.2277 20.95 30.4153 21.096 30.5504C21.1683 30.6173 21.2531 30.6693 21.3455 30.7035C21.4379 30.7376 21.5361 30.7533 21.6345 30.7494C21.7329 30.7456 21.8296 30.7225 21.9191 30.6813C22.0086 30.6401 22.0891 30.5817 22.156 30.5094C22.2229 30.4371 22.2749 30.3524 22.3091 30.26C22.3432 30.1676 22.3588 30.0694 22.355 29.9709L22.009 20.9709ZM27.489 21.0289C27.4963 20.9286 27.4834 20.8277 27.4509 20.7325C27.4185 20.6372 27.3672 20.5494 27.3001 20.4744C27.233 20.3994 27.1515 20.3386 27.0604 20.2957C26.9694 20.2529 26.8706 20.2288 26.77 20.2249C26.6694 20.221 26.5691 20.2374 26.475 20.2731C26.3809 20.3088 26.2949 20.363 26.2222 20.4327C26.1496 20.5023 26.0916 20.5858 26.0519 20.6783C26.0122 20.7708 25.9915 20.8703 25.991 20.9709L25.644 29.9709C25.6363 30.1699 25.708 30.3637 25.8432 30.5098C25.9784 30.6559 26.1661 30.7423 26.365 30.7499C26.5639 30.7576 26.7577 30.686 26.9038 30.5508C27.0499 30.4156 27.1363 30.2279 27.144 30.0289L27.489 21.0289Z" fill="#F50031"/>
</g>
<defs>
<filter id="filter0_d_21847_162805" x="-19.5" y="-19.5" width="87" height="87" filterUnits="userSpaceOnUse" color-interpolation-filters="sRGB">
<feFlood flood-opacity="0" result="BackgroundImageFix"/>
<feColorMatrix in="SourceAlpha" type="matrix" values="0 0 0 0 0 0 0 0 0 0 0 0 0 0 0 0 0 0 127 0" result="hardAlpha"/>
<feOffset/>
<feGaussianBlur stdDeviation="11"/>
<feComposite in2="hardAlpha" operator="out"/>
<feColorMatrix type="matrix" values="0 0 0 0 0.3 0 0 0 0 0.3 0 0 0 0 0.3 0 0 0 0.061 0"/>
<feBlend mode="normal" in2="BackgroundImageFix" result="effect1_dropShadow_21847_162805"/>
<feBlend mode="normal" in="SourceGraphic" in2="effect1_dropShadow_21847_162805" result="shape"/>
</filter>
</defs>
</svg>
