<svg width="321" height="72" viewBox="0 0 321 72" fill="none" xmlns="http://www.w3.org/2000/svg">
<g filter="url(#filter0_i_9817_54715)">
<path d="M0.9495 3.8L31.2855 3.864C45.7495 3.864 55.2215 13.272 55.2215 29.464C55.2215 39.704 48.8855 55 31.3495 55H0.9495V53.4C4.4695 53.4 7.3495 50.52 7.3495 47V11.8C7.3495 8.28 4.4695 5.4 0.9495 5.4V3.8ZM20.1495 8.28V50.456C36.4055 50.456 42.5495 38.36 42.5495 29.4C42.5495 17.368 36.3415 8.28 20.1495 8.28ZM76.206 19.096C85.486 19.096 91.566 26.2 91.31 35.8H69.55C69.55 44.056 73.71 50.072 80.494 49.816C84.078 49.688 87.598 48.408 89.774 44.44L90.35 44.696C87.982 51.48 82.158 55.704 75.886 55.704C65.71 55.704 58.286 48.088 58.286 37.784C58.286 27.864 65.582 19.096 76.206 19.096ZM69.742 33.24H82.158C82.158 26.648 79.406 22.36 75.95 22.36C72.494 22.36 69.742 26.648 69.742 33.24ZM115.595 33.24C121.355 35.352 123.915 39.832 123.915 44.504C123.915 52.12 116.043 56.088 108.491 56.216C102.283 56.28 96.267 53.72 94.923 48.344C94.091 45.08 96.203 41.624 99.467 42.008C102.347 42.392 103.691 45.144 102.283 48.024C100.747 51.288 104.587 52.76 108.555 52.76C111.691 52.76 115.595 51.032 115.595 47.96C115.595 44.376 109.899 42.84 104.011 40.92C98.123 39 95.179 35.224 95.179 30.232C95.179 21.336 102.987 19.032 109.323 18.968C115.403 18.904 121.163 20.952 122.251 25.56C123.019 28.76 120.907 32.28 117.643 31.832C114.827 31.512 113.419 28.76 114.827 25.88C117.323 20.696 103.115 21.208 103.115 26.584C103.115 28.888 104.011 28.952 115.595 33.24ZM137.345 5.656C136.257 4.632 134.465 0.471996 134.465 0.471996C134.465 0.471996 132.673 4.632 131.649 5.656C130.625 6.744 126.465 8.472 126.465 8.472C126.465 8.472 130.625 10.264 131.649 11.352C132.673 12.376 134.465 16.472 134.465 16.472C134.465 16.472 136.257 12.376 137.345 11.352C138.369 10.264 142.465 8.472 142.465 8.472C142.465 8.472 138.369 6.744 137.345 5.656ZM140.865 19.544V50.2C140.865 51.992 142.273 53.4 144.065 53.4V55H126.465V53.4C128.257 53.4 129.665 51.992 129.665 50.2V25.88C129.665 24.344 128.257 23.192 126.721 23.384L126.465 21.848L140.865 19.544ZM176.484 19.672C175.716 18.072 173.412 16.344 169.444 19.864C175.972 21.784 179.108 26.776 179.108 31.832C179.108 38.36 173.86 44.696 163.044 44.696C161.316 44.696 159.78 44.568 158.308 44.248C152.996 47.768 156.452 49.688 158.052 49.944C162.468 50.648 167.588 50.52 170.724 50.776C177.316 51.288 181.604 53.592 181.86 59.352C182.308 67.864 172.772 71.896 162.596 71.896C150.628 71.896 147.299 68.12 146.66 65.304C145.7 61.464 147.876 58.008 151.14 58.264C153.508 58.392 155.236 60.376 155.108 62.744C155.044 63.384 154.852 63.896 154.595 64.536C153.635 66.648 154.084 70.488 162.98 70.488C170.02 70.488 174.5 65.816 174.308 62.936C173.988 58.52 167.652 59.16 162.916 58.968C158.5 58.776 153.316 58.904 149.924 56.536C148.324 55.384 147.172 53.656 147.492 51.352C147.94 48.152 151.46 45.336 154.916 43.224C149.668 40.92 147.172 36.504 147.172 31.896C147.172 25.368 152.356 19.032 163.172 19.032C164.836 19.032 166.372 19.16 167.78 19.48C171.364 15.768 175.588 13.912 178.852 13.912C183.14 13.912 185.316 18.392 182.756 21.08C180.772 23.064 177.7 22.488 176.484 19.672ZM163.172 41.496C166.628 41.496 167.972 37.784 167.972 31.832C167.972 25.944 166.628 22.232 163.172 22.232C159.716 22.232 158.372 25.88 158.372 31.768C158.372 37.72 159.716 41.496 163.172 41.496ZM212.922 19.096C219.514 19.096 220.602 24.472 220.602 26.328V50.2C220.602 51.992 222.01 53.4 223.802 53.4V55H206.202V53.4C207.994 53.4 209.402 51.992 209.402 50.2V28.376C209.402 26.776 207.866 25.304 205.754 25.304C202.618 25.304 200.058 29.08 199.802 29.4V50.2C199.802 51.992 201.21 53.4 203.002 53.4V55H185.402V53.4C187.194 53.4 188.602 51.992 188.602 50.2V25.88C188.602 24.408 187.514 23.384 185.658 23.384L185.402 21.848L199.802 19.544V26.2C199.802 26.2 205.05 19.096 212.922 19.096ZM278.142 3.8L292.926 47C294.142 50.52 297.982 53.4 301.566 53.4V55L275.966 54.936V53.4C279.486 53.336 281.342 50.52 280.126 47L276.35 35.864H262.27L257.79 47C256.382 50.456 258.046 53.336 261.502 53.4V55H244.861V53.4C248.382 53.4 252.542 50.52 253.95 47L271.358 3.8H278.142ZM269.886 17.048L263.55 32.664H275.262L269.886 17.048ZM313.72 5.656C312.632 4.632 310.84 0.471996 310.84 0.471996C310.84 0.471996 309.048 4.632 308.024 5.656C307 6.744 302.84 8.472 302.84 8.472C302.84 8.472 307 10.264 308.024 11.352C309.048 12.376 310.84 16.472 310.84 16.472C310.84 16.472 312.632 12.376 313.72 11.352C314.744 10.264 318.84 8.472 318.84 8.472C318.84 8.472 314.744 6.744 313.72 5.656ZM317.24 19.544V50.2C317.24 51.992 318.648 53.4 320.44 53.4V55H302.84V53.4C304.632 53.4 306.04 51.992 306.04 50.2V25.88C306.04 24.344 304.632 23.192 303.096 23.384L302.84 21.848L317.24 19.544Z" fill="url(#paint0_linear_9817_54715)"/>
</g>
<defs>
<filter id="filter0_i_9817_54715" x="0.949493" y="0.471985" width="319.49" height="71.424" filterUnits="userSpaceOnUse" color-interpolation-filters="sRGB">
<feFlood flood-opacity="0" result="BackgroundImageFix"/>
<feBlend mode="normal" in="SourceGraphic" in2="BackgroundImageFix" result="shape"/>
<feColorMatrix in="SourceAlpha" type="matrix" values="0 0 0 0 0 0 0 0 0 0 0 0 0 0 0 0 0 0 127 0" result="hardAlpha"/>
<feOffset/>
<feGaussianBlur stdDeviation="2"/>
<feComposite in2="hardAlpha" operator="arithmetic" k2="-1" k3="1"/>
<feColorMatrix type="matrix" values="0 0 0 0 1 0 0 0 0 1 0 0 0 0 1 0 0 0 0.25 0"/>
<feBlend mode="normal" in2="shape" result="effect1_innerShadow_9817_54715"/>
</filter>
<linearGradient id="paint0_linear_9817_54715" x1="-74.2126" y1="12.4054" x2="396.288" y2="113.615" gradientUnits="userSpaceOnUse">
<stop offset="0.0836199" stop-color="#FF008A"/>
<stop offset="0.93628" stop-color="#007AFF"/>
</linearGradient>
</defs>
</svg>
