<svg width="16" height="16" viewBox="0 0 16 16" fill="none" xmlns="http://www.w3.org/2000/svg">
<path d="M8 12.204C7.68071 12.2039 7.37453 12.077 7.1488 11.8512L0.337967 5.04037C0.118655 4.8133 -0.00269762 4.50918 4.55131e-05 4.1935C0.00278865 3.87783 0.129408 3.57586 0.352633 3.35263C0.575858 3.12941 0.877827 3.00279 1.1935 3.00005C1.50918 2.9973 1.8133 3.11866 2.04037 3.33797L8 9.29759L13.9596 3.33797C14.1867 3.11866 14.4908 2.9973 14.8065 3.00005C15.1222 3.00279 15.4241 3.12941 15.6474 3.35263C15.8706 3.57586 15.9972 3.87783 16 4.1935C16.0027 4.50918 15.8813 4.8133 15.662 5.04037L8.8512 11.8512C8.62547 12.077 8.31929 12.2039 8 12.204Z" fill="#191919"/>
</svg>
