<svg width="60" height="60" viewBox="0 0 60 60" fill="none" xmlns="http://www.w3.org/2000/svg">
<g clip-path="url(#clip0_23180_53627)">
<rect width="60" height="60" rx="13.3333" fill="url(#paint0_linear_23180_53627)"/>
<g filter="url(#filter0_d_23180_53627)">
<rect x="4.44531" y="4.44531" width="51.1111" height="51.1111" rx="8.88889" fill="url(#paint1_linear_23180_53627)" shape-rendering="crispEdges"/>
<rect x="4.74531" y="4.74531" width="50.5111" height="50.5111" rx="8.58889" stroke="white" stroke-width="0.6" shape-rendering="crispEdges"/>
<path opacity="0.7" d="M60.6788 60.9257L30.703 30.8301V60.8928H30.0919V30.2167L-0.679229 61.1109L-1.11133 60.6771L29.2278 30.2167H-0.462084V29.6032H29.4809L-0.679229 -0.677502L-0.247131 -1.11133L30.0919 29.349V-0.459414H30.703V28.7356L60.2467 -0.926181L60.6788 -0.492356L30.703 29.6032H60.6459V30.2167H30.9562L61.1109 60.4919L60.6788 60.9257Z" fill="white"/>
<path d="M30.0004 47.7782C29.2597 33.1115 17.8399 29.8153 12.2227 30.0004C18.272 29.5683 30.2967 25.4078 30.0004 12.2227C30.3091 17.8399 34.2967 29.2597 47.7782 30.0004C35.0375 30.0004 30.6177 41.8523 30.0004 47.7782Z" fill="white"/>
<path d="M30.0004 47.7782C29.2597 33.1115 17.8399 29.8153 12.2227 30.0004C18.272 29.5683 30.2967 25.4078 30.0004 12.2227C30.3091 17.8399 34.2967 29.2597 47.7782 30.0004C35.0375 30.0004 30.6177 41.8523 30.0004 47.7782Z" fill="url(#paint2_linear_23180_53627)"/>
<path d="M30.0004 47.7782C29.2597 33.1115 17.8399 29.8153 12.2227 30.0004C18.272 29.5683 30.2967 25.4078 30.0004 12.2227C30.3091 17.8399 34.2967 29.2597 47.7782 30.0004C35.0375 30.0004 30.6177 41.8523 30.0004 47.7782Z" fill="url(#paint3_linear_23180_53627)"/>
<path d="M30.0004 47.7782C29.2597 33.1115 17.8399 29.8153 12.2227 30.0004C18.272 29.5683 30.2967 25.4078 30.0004 12.2227C30.3091 17.8399 34.2967 29.2597 47.7782 30.0004C35.0375 30.0004 30.6177 41.8523 30.0004 47.7782Z" fill="url(#paint4_linear_23180_53627)"/>
</g>
</g>
<defs>
<filter id="filter0_d_23180_53627" x="-1.809" y="-1.809" width="63.618" height="63.618" filterUnits="userSpaceOnUse" color-interpolation-filters="sRGB">
<feFlood flood-opacity="0" result="BackgroundImageFix"/>
<feColorMatrix in="SourceAlpha" type="matrix" values="0 0 0 0 0 0 0 0 0 0 0 0 0 0 0 0 0 0 127 0" result="hardAlpha"/>
<feOffset/>
<feGaussianBlur stdDeviation="0.348837"/>
<feComposite in2="hardAlpha" operator="out"/>
<feColorMatrix type="matrix" values="0 0 0 0 0 0 0 0 0 0 0 0 0 0 0 0 0 0 0.25 0"/>
<feBlend mode="normal" in2="BackgroundImageFix" result="effect1_dropShadow_23180_53627"/>
<feBlend mode="normal" in="SourceGraphic" in2="effect1_dropShadow_23180_53627" result="shape"/>
</filter>
<linearGradient id="paint0_linear_23180_53627" x1="30" y1="0" x2="30" y2="60" gradientUnits="userSpaceOnUse">
<stop stop-color="#FF009A"/>
<stop offset="1" stop-color="#0877FC"/>
</linearGradient>
<linearGradient id="paint1_linear_23180_53627" x1="12.1714" y1="11.5771" x2="48.3042" y2="47.9588" gradientUnits="userSpaceOnUse">
<stop stop-color="#FFB8E3"/>
<stop offset="0.3" stop-color="#FFEBF7"/>
<stop offset="0.8" stop-color="#EBF4FF"/>
<stop offset="0.99567" stop-color="#B8D8FE"/>
</linearGradient>
<linearGradient id="paint2_linear_23180_53627" x1="30.0004" y1="12.756" x2="30.0004" y2="47.7782" gradientUnits="userSpaceOnUse">
<stop offset="0.2" stop-color="#FF009A"/>
<stop offset="0.9" stop-color="#0877FC"/>
</linearGradient>
<linearGradient id="paint3_linear_23180_53627" x1="24.8449" y1="35.156" x2="35.5115" y2="24.8449" gradientUnits="userSpaceOnUse">
<stop stop-color="white" stop-opacity="0"/>
<stop offset="0.5" stop-color="white" stop-opacity="0.2"/>
<stop offset="1" stop-color="white" stop-opacity="0"/>
</linearGradient>
<linearGradient id="paint4_linear_23180_53627" x1="28.2227" y1="32.8449" x2="33.3782" y2="27.6893" gradientUnits="userSpaceOnUse">
<stop stop-color="white" stop-opacity="0"/>
<stop offset="0.5" stop-color="white" stop-opacity="0.16"/>
<stop offset="1" stop-color="white" stop-opacity="0"/>
</linearGradient>
<clipPath id="clip0_23180_53627">
<rect width="60" height="60" rx="13.3333" fill="white"/>
</clipPath>
</defs>
</svg>
