<svg width="48" height="48" viewBox="0 0 48 48" fill="none" xmlns="http://www.w3.org/2000/svg">
<g filter="url(#filter0_d_21847_163317)">
<path d="M4 16C4 9.37258 9.37258 4 16 4H32C38.6274 4 44 9.37258 44 16V32C44 38.6274 38.6274 44 32 44H16C9.37258 44 4 38.6274 4 32V16Z" fill="white" shape-rendering="crispEdges"/>
<path d="M16 3.25C8.95837 3.25 3.25 8.95837 3.25 16V32C3.25 39.0416 8.95837 44.75 16 44.75H32C39.0416 44.75 44.75 39.0416 44.75 32V16C44.75 8.95837 39.0416 3.25 32 3.25H16Z" stroke="white" stroke-opacity="0.35" stroke-width="1.5" shape-rendering="crispEdges"/>
<path fill-rule="evenodd" clip-rule="evenodd" d="M34.5 18.75V18.908L24.786 24.886C24.5496 25.0314 24.2775 25.1084 24 25.1084C23.7225 25.1084 23.4504 25.0314 23.214 24.886L13.5 18.908V18.75C13.5 17.9544 13.8161 17.1913 14.3787 16.6287C14.9413 16.0661 15.7044 15.75 16.5 15.75H31.5C32.2956 15.75 33.0587 16.0661 33.6213 16.6287C34.1839 17.1913 34.5 17.9544 34.5 18.75ZM13.5 29.2499V20.6699L22.428 26.1629C22.9008 26.4538 23.4449 26.6078 24 26.6078C24.5551 26.6078 25.0992 26.4538 25.572 26.1629L34.5 20.6699V29.2499C34.5 30.0456 34.1839 30.8086 33.6213 31.3712C33.0587 31.9339 32.2956 32.2499 31.5 32.2499H16.5C15.7044 32.2499 14.9413 31.9339 14.3787 31.3712C13.8161 30.8086 13.5 30.0456 13.5 29.2499Z" fill="url(#paint0_linear_21847_163317)"/>
</g>
<defs>
<filter id="filter0_d_21847_163317" x="-19.5" y="-19.5" width="87" height="87" filterUnits="userSpaceOnUse" color-interpolation-filters="sRGB">
<feFlood flood-opacity="0" result="BackgroundImageFix"/>
<feColorMatrix in="SourceAlpha" type="matrix" values="0 0 0 0 0 0 0 0 0 0 0 0 0 0 0 0 0 0 127 0" result="hardAlpha"/>
<feOffset/>
<feGaussianBlur stdDeviation="11"/>
<feComposite in2="hardAlpha" operator="out"/>
<feColorMatrix type="matrix" values="0 0 0 0 0.3 0 0 0 0 0.3 0 0 0 0 0.3 0 0 0 0.061 0"/>
<feBlend mode="normal" in2="BackgroundImageFix" result="effect1_dropShadow_21847_163317"/>
<feBlend mode="normal" in="SourceGraphic" in2="effect1_dropShadow_21847_163317" result="shape"/>
</filter>
<linearGradient id="paint0_linear_21847_163317" x1="13.5" y1="24" x2="34.5" y2="24" gradientUnits="userSpaceOnUse">
<stop stop-color="#FF009A"/>
<stop offset="1" stop-color="#0877FC"/>
</linearGradient>
</defs>
</svg>
