<svg width="25" height="24" viewBox="0 0 25 24" fill="none" xmlns="http://www.w3.org/2000/svg">
<g id="Gift">
<path id="Vector" d="M20.75 6.74936H17.4612C17.4978 6.71842 17.5353 6.68842 17.5709 6.65561C17.8557 6.40265 18.0851 6.09366 18.245 5.74797C18.4049 5.40228 18.4917 5.02732 18.5 4.64654C18.5123 4.22999 18.4394 3.81531 18.2856 3.42797C18.1319 3.04063 17.9006 2.6888 17.606 2.39407C17.3113 2.09935 16.9596 1.86796 16.5723 1.7141C16.185 1.56024 15.7703 1.48716 15.3538 1.49936C14.9728 1.50756 14.5977 1.59431 14.2518 1.75417C13.906 1.91404 13.5968 2.14358 13.3438 2.42842C12.9936 2.83426 12.7089 3.29227 12.5 3.78592C12.2911 3.29227 12.0064 2.83426 11.6562 2.42842C11.4032 2.14358 11.094 1.91404 10.7482 1.75417C10.4023 1.59431 10.0272 1.50756 9.64625 1.49936C9.22969 1.48716 8.81503 1.56024 8.42774 1.7141C8.04044 1.86796 7.68868 2.09935 7.39405 2.39407C7.09941 2.6888 6.86812 3.04063 6.71438 3.42797C6.56064 3.81531 6.48768 4.22999 6.5 4.64654C6.50833 5.02732 6.59514 5.40228 6.755 5.74797C6.91486 6.09366 7.14434 6.40265 7.42906 6.65561C7.46469 6.68654 7.50219 6.71654 7.53875 6.74936H4.25C3.85218 6.74936 3.47064 6.90739 3.18934 7.1887C2.90804 7.47 2.75 7.85153 2.75 8.24936V11.2494C2.75 11.6472 2.90804 12.0287 3.18934 12.31C3.47064 12.5913 3.85218 12.7494 4.25 12.7494V18.7494C4.25 19.1472 4.40804 19.5287 4.68934 19.81C4.97064 20.0913 5.35218 20.2494 5.75 20.2494H11.375C11.4745 20.2494 11.5698 20.2098 11.6402 20.1395C11.7105 20.0692 11.75 19.9738 11.75 19.8744V11.2494H4.25V8.24936H11.75V11.2494H13.25V8.24936H20.75V11.2494H13.25V19.8744C13.25 19.9738 13.2895 20.0692 13.3598 20.1395C13.4302 20.2098 13.5255 20.2494 13.625 20.2494H19.25C19.6478 20.2494 20.0294 20.0913 20.3107 19.81C20.592 19.5287 20.75 19.1472 20.75 18.7494V12.7494C21.1478 12.7494 21.5294 12.5913 21.8107 12.31C22.092 12.0287 22.25 11.6472 22.25 11.2494V8.24936C22.25 7.85153 22.092 7.47 21.8107 7.1887C21.5294 6.90739 21.1478 6.74936 20.75 6.74936ZM8.42281 5.53061C8.29168 5.41185 8.18651 5.26727 8.11391 5.10594C8.04131 4.94461 8.00285 4.77001 8.00094 4.59311C7.9962 4.38583 8.03287 4.17969 8.10881 3.98676C8.18476 3.79384 8.29844 3.61801 8.4432 3.46958C8.58796 3.32115 8.76089 3.20311 8.95186 3.12236C9.14282 3.04162 9.34798 2.9998 9.55531 2.99936H9.60125C9.77815 3.00126 9.95275 3.03972 10.1141 3.11232C10.2754 3.18492 10.42 3.29009 10.5388 3.42123C11.3253 4.30998 11.6028 5.78373 11.7003 6.69498C10.7853 6.59842 9.3125 6.32092 8.42281 5.53061ZM16.5791 5.53061C15.6894 6.31811 14.2128 6.59561 13.2978 6.69311C13.4094 5.70779 13.7188 4.26498 14.4688 3.42217C14.5875 3.29103 14.7321 3.18586 14.8934 3.11326C15.0547 3.04066 15.2293 3.0022 15.4062 3.00029H15.4522C15.6595 3.00159 15.8645 3.04426 16.0552 3.1258C16.2458 3.20734 16.4183 3.32611 16.5624 3.47515C16.7066 3.62419 16.8195 3.80051 16.8947 3.99377C16.9698 4.18702 17.0056 4.39333 17 4.60061C16.9969 4.77631 16.9578 4.94951 16.8851 5.10949C16.8124 5.26946 16.7076 5.41279 16.5772 5.53061H16.5791Z" fill="#191919"/>
</g>
</svg>
