<svg width="596" height="108" viewBox="0 0 596 108" fill="none" xmlns="http://www.w3.org/2000/svg">
<g filter="url(#filter0_ddi_12567_14838)">
<path d="M16 50C16 35.6406 27.6406 24 42 24H554C568.359 24 580 35.6406 580 50C580 64.3594 568.359 76 554 76H42C27.6406 76 16 64.3594 16 50Z" fill="#303030" shape-rendering="crispEdges"/>
<path fill-rule="evenodd" clip-rule="evenodd" d="M92.1025 76C85.4734 76 79.3356 79.0861 73.6663 82.5217C67.9291 85.9985 61.1983 88 54 88C33.0132 88 16 70.9868 16 50C16 29.0132 33.0132 12 54 12C61.1983 12 67.9291 14.0015 73.6663 17.4783C79.3356 20.9139 85.4734 24 92.1025 24H96C109.255 24 120 34.7452 120 48V52C120 65.2548 109.255 76 96 76H92.1025Z" fill="#303030"/>
</g>
<defs>
<filter id="filter0_ddi_12567_14838" x="0" y="0" width="596" height="108" filterUnits="userSpaceOnUse" color-interpolation-filters="sRGB">
<feFlood flood-opacity="0" result="BackgroundImageFix"/>
<feColorMatrix in="SourceAlpha" type="matrix" values="0 0 0 0 0 0 0 0 0 0 0 0 0 0 0 0 0 0 127 0" result="hardAlpha"/>
<feOffset dy="4"/>
<feGaussianBlur stdDeviation="8"/>
<feComposite in2="hardAlpha" operator="out"/>
<feColorMatrix type="matrix" values="0 0 0 0 0 0 0 0 0 0 0 0 0 0 0 0 0 0 0.24 0"/>
<feBlend mode="normal" in2="BackgroundImageFix" result="effect1_dropShadow_12567_14838"/>
<feColorMatrix in="SourceAlpha" type="matrix" values="0 0 0 0 0 0 0 0 0 0 0 0 0 0 0 0 0 0 127 0" result="hardAlpha"/>
<feOffset dy="4"/>
<feGaussianBlur stdDeviation="2"/>
<feComposite in2="hardAlpha" operator="out"/>
<feColorMatrix type="matrix" values="0 0 0 0 0 0 0 0 0 0 0 0 0 0 0 0 0 0 0.25 0"/>
<feBlend mode="normal" in2="effect1_dropShadow_12567_14838" result="effect2_dropShadow_12567_14838"/>
<feBlend mode="normal" in="SourceGraphic" in2="effect2_dropShadow_12567_14838" result="shape"/>
<feColorMatrix in="SourceAlpha" type="matrix" values="0 0 0 0 0 0 0 0 0 0 0 0 0 0 0 0 0 0 127 0" result="hardAlpha"/>
<feOffset dy="3"/>
<feGaussianBlur stdDeviation="1.3"/>
<feComposite in2="hardAlpha" operator="arithmetic" k2="-1" k3="1"/>
<feColorMatrix type="matrix" values="0 0 0 0 0.27451 0 0 0 0 0.27451 0 0 0 0 0.27451 0 0 0 1 0"/>
<feBlend mode="normal" in2="shape" result="effect3_innerShadow_12567_14838"/>
</filter>
</defs>
</svg>
