<svg width="16" height="16" viewBox="0 0 16 16" fill="none" xmlns="http://www.w3.org/2000/svg">
<g id="heart">
<path id="Vector" d="M7.76333 13.94L7.75867 13.938L7.744 13.93C7.65819 13.8828 7.57307 13.8343 7.48867 13.7847C6.47387 13.1816 5.52552 12.4733 4.65933 11.6713C3.12533 10.24 1.5 8.11599 1.5 5.49999C1.5 3.54799 3.14267 1.99999 5.12533 1.99999C5.6765 1.99729 6.22119 2.11888 6.71888 2.35572C7.21657 2.59257 7.65447 2.93856 8 3.36799C8.3456 2.93848 8.7836 2.59242 9.28142 2.35558C9.77924 2.11873 10.3241 1.99719 10.8753 1.99999C12.8573 1.99999 14.5 3.54799 14.5 5.49999C14.5 8.11665 12.8747 10.2407 11.3407 11.6707C10.4745 12.4726 9.52614 13.181 8.51133 13.784C8.42693 13.8339 8.34181 13.8826 8.256 13.93L8.24133 13.938L8.23667 13.9407L8.23467 13.9413C8.16237 13.9796 8.08181 13.9996 8 13.9996C7.91819 13.9996 7.83763 13.9796 7.76533 13.9413L7.76333 13.94Z" fill="#191919" fill-opacity="0.5"/>
</g>
</svg>
