<svg width="28" height="28" viewBox="0 0 28 28" fill="none" xmlns="http://www.w3.org/2000/svg">
<path fill-rule="evenodd" clip-rule="evenodd" d="M4.23492 8.21353L10.5233 3.31353C12.0983 2.08853 14.7233 2.0302 16.3566 3.17353L23.5666 8.2252C24.7216 9.0302 25.6666 10.8385 25.6666 12.2502V20.7435C25.6666 23.4385 23.4616 25.6552 20.7549 25.6552H7.24492C4.53825 25.6552 2.33325 23.4385 2.33325 20.7319V12.0869C2.33325 10.7685 3.18492 9.0302 4.23492 8.21353ZM14.7499 17.4886C14.7499 17.0744 14.4141 16.7386 13.9999 16.7386C13.5857 16.7386 13.2499 17.0744 13.2499 17.4886V20.9886C13.2499 21.4028 13.5857 21.7386 13.9999 21.7386C14.4141 21.7386 14.7499 21.4028 14.7499 20.9886V17.4886Z" fill="white"/>
</svg>
