<svg width="20" height="20" viewBox="0 0 20 20" fill="none" xmlns="http://www.w3.org/2000/svg">
<path fill-rule="evenodd" clip-rule="evenodd" d="M10 3.125C10.1658 3.125 10.3247 3.19085 10.4419 3.30806C10.5592 3.42527 10.625 3.58424 10.625 3.75V9.375H16.25C16.4158 9.375 16.5747 9.44085 16.6919 9.55806C16.8092 9.67527 16.875 9.83424 16.875 10C16.875 10.1658 16.8092 10.3247 16.6919 10.4419C16.5747 10.5592 16.4158 10.625 16.25 10.625H10.625V16.25C10.625 16.4158 10.5592 16.5747 10.4419 16.6919C10.3247 16.8092 10.1658 16.875 10 16.875C9.83424 16.875 9.67527 16.8092 9.55806 16.6919C9.44085 16.5747 9.375 16.4158 9.375 16.25V10.625H3.75C3.58424 10.625 3.42527 10.5592 3.30806 10.4419C3.19085 10.3247 3.125 10.1658 3.125 10C3.125 9.83424 3.19085 9.67527 3.30806 9.55806C3.42527 9.44085 3.58424 9.375 3.75 9.375H9.375V3.75C9.375 3.58424 9.44085 3.42527 9.55806 3.30806C9.67527 3.19085 9.83424 3.125 10 3.125Z" fill="url(#paint0_linear_15646_65884)" stroke="url(#paint1_linear_15646_65884)"/>
<defs>
<linearGradient id="paint0_linear_15646_65884" x1="6.5" y1="9.5" x2="15.5" y2="10" gradientUnits="userSpaceOnUse">
<stop offset="0.185075" stop-color="#FF009A"/>
<stop offset="0.902535" stop-color="#0877FC"/>
</linearGradient>
<linearGradient id="paint1_linear_15646_65884" x1="7.5" y1="9.5" x2="15" y2="10" gradientUnits="userSpaceOnUse">
<stop stop-color="#FF009A"/>
<stop offset="1" stop-color="#0877FC"/>
</linearGradient>
</defs>
</svg>
