<svg width="17" height="16" viewBox="0 0 17 16" fill="none" xmlns="http://www.w3.org/2000/svg">
<g id="Info">
<path id="Vector" d="M8.45367 1.46289C7.19193 1.46289 5.95853 1.83704 4.90944 2.53802C3.86034 3.239 3.04267 4.23534 2.55983 5.40103C2.07698 6.56672 1.95065 7.84941 2.1968 9.0869C2.44295 10.3244 3.05054 11.4611 3.94272 12.3533C4.8349 13.2455 5.97161 13.853 7.2091 14.0992C8.44659 14.3454 9.72928 14.219 10.895 13.7362C12.0607 13.2533 13.057 12.4357 13.758 11.3866C14.459 10.3375 14.8331 9.10407 14.8331 7.84233C14.8313 6.15095 14.1586 4.52935 12.9626 3.33336C11.7666 2.13737 10.1451 1.46468 8.45367 1.46289ZM8.2083 4.40725C8.35389 4.40725 8.4962 4.45042 8.61725 4.5313C8.7383 4.61219 8.83265 4.72715 8.88836 4.86165C8.94407 4.99615 8.95865 5.14416 8.93025 5.28694C8.90185 5.42973 8.83174 5.56089 8.7288 5.66383C8.62585 5.76678 8.49469 5.83688 8.35191 5.86528C8.20912 5.89369 8.06112 5.87911 7.92661 5.8234C7.79211 5.76768 7.67715 5.67334 7.59627 5.55229C7.51538 5.43124 7.47221 5.28892 7.47221 5.14334C7.47221 4.94812 7.54976 4.76089 7.68781 4.62284C7.82585 4.4848 8.01308 4.40725 8.2083 4.40725ZM8.94439 11.2774C8.68409 11.2774 8.43446 11.174 8.2504 10.99C8.06634 10.8059 7.96294 10.5563 7.96294 10.296V7.84233C7.83279 7.84233 7.70797 7.79063 7.61594 7.6986C7.52391 7.60657 7.47221 7.48176 7.47221 7.35161C7.47221 7.22146 7.52391 7.09664 7.61594 7.00461C7.70797 6.91258 7.83279 6.86088 7.96294 6.86088C8.22324 6.86088 8.47287 6.96428 8.65693 7.14834C8.84099 7.3324 8.94439 7.58204 8.94439 7.84233V10.296C9.07454 10.296 9.19936 10.3477 9.29139 10.4397C9.38342 10.5317 9.43512 10.6565 9.43512 10.7867C9.43512 10.9168 9.38342 11.0417 9.29139 11.1337C9.19936 11.2257 9.07454 11.2774 8.94439 11.2774Z" fill="#191919" fill-opacity="0.5"/>
</g>
</svg>
