<svg width="25" height="24" viewBox="0 0 25 24" fill="none" xmlns="http://www.w3.org/2000/svg">
<g id="InstagramLogo">
<path id="Vector" d="M16.9584 2.2168H8.12528C6.75917 2.21826 5.44943 2.76159 4.48344 3.72758C3.51745 4.69357 2.97412 6.00331 2.97266 7.36942V16.2025C2.97412 17.5686 3.51745 18.8784 4.48344 19.8443C5.44943 20.8103 6.75917 21.3537 8.12528 21.3551H16.9584C18.3245 21.3537 19.6342 20.8103 20.6002 19.8443C21.5662 18.8784 22.1095 17.5686 22.111 16.2025V7.36942C22.1095 6.00331 21.5662 4.69357 20.6002 3.72758C19.6342 2.76159 18.3245 2.21826 16.9584 2.2168ZM12.5418 16.2025C11.6683 16.2025 10.8144 15.9435 10.0881 15.4582C9.36183 14.9729 8.79575 14.2831 8.46147 13.4761C8.1272 12.6691 8.03973 11.7811 8.21015 10.9243C8.38056 10.0676 8.80119 9.28066 9.41886 8.663C10.0365 8.04533 10.8235 7.6247 11.6802 7.45429C12.5369 7.28387 13.4249 7.37134 14.232 7.70561C15.039 8.03989 15.7287 8.60597 16.214 9.33226C16.6993 10.0586 16.9584 10.9125 16.9584 11.786C16.9571 12.9569 16.4914 14.0796 15.6634 14.9076C14.8354 15.7356 13.7128 16.2013 12.5418 16.2025ZM18.0625 7.36942C17.8441 7.36942 17.6306 7.30467 17.4491 7.18334C17.2675 7.06202 17.126 6.88958 17.0424 6.68782C16.9588 6.48607 16.937 6.26406 16.9796 6.04988C17.0222 5.8357 17.1273 5.63896 17.2818 5.48455C17.4362 5.33013 17.6329 5.22497 17.8471 5.18237C18.0613 5.13977 18.2833 5.16163 18.485 5.2452C18.6868 5.32877 18.8592 5.47029 18.9805 5.65187C19.1019 5.83344 19.1666 6.04691 19.1666 6.26529C19.1666 6.55812 19.0503 6.83897 18.8432 7.04603C18.6362 7.2531 18.3553 7.36942 18.0625 7.36942ZM15.4862 11.786C15.4862 12.3683 15.3135 12.9376 14.99 13.4218C14.6664 13.906 14.2066 14.2833 13.6686 14.5062C13.1306 14.729 12.5386 14.7874 11.9674 14.6737C11.3963 14.5601 10.8716 14.2797 10.4598 13.8679C10.0481 13.4562 9.76765 12.9315 9.65404 12.3604C9.54043 11.7892 9.59874 11.1972 9.82159 10.6592C10.0444 10.1212 10.4218 9.66135 10.906 9.33782C11.3902 9.01429 11.9595 8.8416 12.5418 8.8416C13.3227 8.8416 14.0716 9.15181 14.6238 9.70399C15.176 10.2562 15.4862 11.0051 15.4862 11.786Z" fill="#191919" fill-opacity="0.6"/>
</g>
</svg>
