<svg width="28" height="28" viewBox="0 0 28 28" fill="none" xmlns="http://www.w3.org/2000/svg">
<g id="interview prep icon 2  1" clip-path="url(#clip0_20514_5543)">
<path id="Vector" d="M3.87638 8.74707C5.08334 8.74707 6.07856 7.75186 6.07856 6.5449V5.74026C6.05738 4.5333 5.08334 3.55926 3.87638 3.55926C2.64825 3.55926 1.67421 4.5333 1.67421 5.76143V6.56608C1.67421 7.77304 2.64825 8.74707 3.87638 8.74707ZM8.91597 16.7723H5.82446V14.316V11.9868C5.82446 10.6952 4.7869 9.65759 3.49524 9.65759C2.20358 9.65759 1.16602 10.6952 1.16602 11.9868V16.7723V17.3864V17.4711C1.20837 18.8263 2.33063 19.9273 3.70699 19.9273H8.66188C8.68305 19.9273 8.7254 19.9485 8.7254 19.9909V24.734C8.7254 25.3693 9.2336 25.8774 9.86884 25.8774C10.5041 25.8774 11.0123 25.3693 11.0123 24.734V18.8474C10.9911 17.704 10.0594 16.7723 8.91597 16.7723ZM24.7547 8.74707C25.9616 8.74707 26.9569 7.75186 26.9569 6.5449V5.74026C26.9569 4.5333 25.9616 3.53809 24.7547 3.53809C23.5477 3.53809 22.5525 4.5333 22.5525 5.74026V6.5449C22.5737 7.77304 23.5477 8.74707 24.7547 8.74707ZM25.157 9.65759C23.8653 9.65759 22.8278 10.6952 22.8278 11.9868V14.316V16.7723H19.7151C18.5717 16.7723 17.64 17.704 17.64 18.8474V24.734C17.64 25.3693 18.1482 25.8774 18.7834 25.8774C19.4186 25.8774 19.9268 25.3693 19.9268 24.734V19.9909C19.9268 19.9697 19.948 19.9273 19.9904 19.9273H24.9453C26.3216 19.9273 27.4439 18.8263 27.4862 17.4711V17.3864V16.7723V11.9868C27.4862 10.6952 26.4275 9.65759 25.157 9.65759Z" fill="white"/>
<path id="Vector_2" d="M19.7588 14.4234C19.7588 13.8093 19.2506 13.3223 18.6577 13.3223H9.97609C9.36202 13.3223 8.875 13.8305 8.875 14.4234C8.875 15.0375 9.38319 15.5245 9.97609 15.5245H13.0888V25.8789H15.5239V15.5456H18.6366C19.2718 15.5456 19.7588 15.0375 19.7588 14.4234ZM9.06557 8.7909H12.2418L14.3169 10.866L16.392 8.7909H19.5683C19.5894 8.7909 19.6106 8.76973 19.6106 8.74855V1.61266C19.6106 1.59149 19.5894 1.57031 19.5683 1.57031H9.06557C9.0444 1.57031 9.02322 1.59149 9.02322 1.61266V8.76973C9.02322 8.76973 9.0444 8.7909 9.06557 8.7909ZM16.4979 4.66183C16.625 4.53478 16.8155 4.45008 17.0061 4.45008C17.1967 4.45008 17.3872 4.53478 17.5143 4.66183C17.6413 4.78887 17.726 4.97945 17.726 5.17002C17.726 5.36059 17.6413 5.55117 17.5143 5.67821C17.3872 5.80526 17.1967 5.88996 17.0061 5.88996C16.8155 5.88996 16.625 5.80526 16.4979 5.67821C16.3709 5.55117 16.2862 5.36059 16.2862 5.17002C16.2862 4.97945 16.3709 4.78887 16.4979 4.66183ZM13.8087 4.66183C13.9358 4.53478 14.1263 4.45008 14.3169 4.45008C14.5075 4.45008 14.6981 4.53478 14.8251 4.66183C14.9522 4.78887 15.0369 4.97945 15.0369 5.17002C15.0369 5.36059 14.9522 5.55117 14.8251 5.67821C14.6981 5.80526 14.5075 5.88996 14.3169 5.88996C14.1263 5.88996 13.9358 5.80526 13.8087 5.67821C13.6817 5.55117 13.597 5.36059 13.597 5.17002C13.597 4.97945 13.6605 4.78887 13.8087 4.66183ZM11.0983 4.66183C11.2254 4.53478 11.416 4.45008 11.6065 4.45008C11.7971 4.45008 11.9877 4.53478 12.1147 4.66183C12.2418 4.78887 12.3265 4.97945 12.3265 5.17002C12.3265 5.36059 12.2418 5.55117 12.1147 5.67821C11.9877 5.80526 11.7971 5.88996 11.6065 5.88996C11.416 5.88996 11.2254 5.80526 11.0983 5.67821C10.9713 5.55117 10.8866 5.36059 10.8866 5.17002C10.8866 4.97945 10.9713 4.78887 11.0983 4.66183Z" fill="white"/>
</g>
<defs>
<clipPath id="clip0_20514_5543">
<rect width="27.1037" height="27.1037" fill="white" transform="translate(0.763672 0.171875)"/>
</clipPath>
</defs>
</svg>
