<svg width="29" height="28" viewBox="0 0 29 28" fill="none" xmlns="http://www.w3.org/2000/svg">
<g id="Product Icons">
<path id="Vector" d="M17.25 13.0833C17.25 13.3264 17.1535 13.5596 16.9816 13.7315C16.8096 13.9034 16.5765 14 16.3334 14H12.6667C12.4236 14 12.1904 13.9034 12.0185 13.7315C11.8466 13.5596 11.75 13.3264 11.75 13.0833C11.75 12.8402 11.8466 12.6071 12.0185 12.4352C12.1904 12.2632 12.4236 12.1667 12.6667 12.1667H16.3334C16.5765 12.1667 16.8096 12.2632 16.9816 12.4352C17.1535 12.6071 17.25 12.8402 17.25 13.0833ZM26.4167 8.5V23.1667C26.4167 23.6529 26.2236 24.1192 25.8797 24.463C25.5359 24.8068 25.0696 25 24.5834 25H4.41671C3.93048 25 3.46416 24.8068 3.12034 24.463C2.77653 24.1192 2.58337 23.6529 2.58337 23.1667V8.5C2.58337 8.01377 2.77653 7.54745 3.12034 7.20364C3.46416 6.85982 3.93048 6.66667 4.41671 6.66667H9.00004V5.75C9.00004 5.02065 9.28977 4.32118 9.8055 3.80546C10.3212 3.28973 11.0207 3 11.75 3H17.25C17.9794 3 18.6789 3.28973 19.1946 3.80546C19.7103 4.32118 20 5.02065 20 5.75V6.66667H24.5834C25.0696 6.66667 25.5359 6.85982 25.8797 7.20364C26.2236 7.54745 26.4167 8.01377 26.4167 8.5ZM10.8334 6.66667H18.1667V5.75C18.1667 5.50688 18.0701 5.27373 17.8982 5.10182C17.7263 4.92991 17.4932 4.83333 17.25 4.83333H11.75C11.5069 4.83333 11.2738 4.92991 11.1019 5.10182C10.93 5.27373 10.8334 5.50688 10.8334 5.75V6.66667ZM24.5834 13.2678V8.5H4.41671V13.2678C7.51071 14.9519 10.9774 15.834 14.5 15.8333C18.0227 15.834 21.4894 14.9519 24.5834 13.2678Z" fill="white"/>
</g>
</svg>
