<svg width="64" height="64" viewBox="0 0 64 64" fill="none" xmlns="http://www.w3.org/2000/svg">
<path d="M19.668 51.0271C20.0849 50.2889 20.2934 49.9198 20.6051 49.9198C20.9168 49.9198 21.1252 50.2889 21.5421 51.0271L21.65 51.218C21.7685 51.4278 21.8277 51.5327 21.9201 51.6019C22.0125 51.6711 22.1275 51.6968 22.3576 51.7482L22.567 51.7949C23.3766 51.9757 23.7815 52.0661 23.8778 52.3718C23.9741 52.6775 23.6981 52.996 23.1462 53.633L23.0034 53.7978C22.8465 53.9788 22.7681 54.0693 22.7328 54.1813C22.6975 54.2933 22.7094 54.414 22.7331 54.6556L22.7547 54.8755C22.8381 55.7254 22.8799 56.1503 22.6277 56.3392C22.3756 56.5281 21.9965 56.3559 21.2385 56.0114L21.0424 55.9223C20.827 55.8244 20.7193 55.7755 20.6051 55.7755C20.4909 55.7755 20.3832 55.8244 20.1678 55.9223L19.9717 56.0114C19.2136 56.3559 18.8346 56.5281 18.5824 56.3392C18.3303 56.1503 18.372 55.7254 18.4555 54.8755L18.4771 54.6556C18.5008 54.414 18.5126 54.2933 18.4773 54.1813C18.4421 54.0693 18.3636 53.9788 18.2068 53.7978L18.064 53.633C17.512 52.996 17.2361 52.6775 17.3324 52.3718C17.4287 52.0661 17.8335 51.9757 18.6431 51.7949L18.8526 51.7482C19.0827 51.6968 19.1977 51.6711 19.2901 51.6019C19.3824 51.5327 19.4417 51.4278 19.5601 51.218L19.668 51.0271Z" fill="url(#paint0_linear_11881_6599)"/>
<path d="M30.396 47.2315C31.1066 45.9733 31.4619 45.3442 31.9932 45.3442C32.5244 45.3442 32.8797 45.9733 33.5903 47.2315L33.7742 47.557C33.9761 47.9146 34.0771 48.0933 34.2345 48.2113C34.392 48.3292 34.588 48.373 34.9802 48.4606L35.3372 48.5403C36.7171 48.8485 37.4071 49.0025 37.5713 49.5235C37.7354 50.0445 37.2651 50.5874 36.3243 51.6732L36.0809 51.9541C35.8136 52.2626 35.6799 52.4169 35.6197 52.6077C35.5596 52.7986 35.5798 53.0044 35.6202 53.4161L35.657 53.7909C35.7993 55.2395 35.8704 55.9638 35.4407 56.2858C35.0108 56.6078 34.3648 56.3142 33.0728 55.7271L32.7385 55.5752C32.3713 55.4083 32.1878 55.3249 31.9932 55.3249C31.7985 55.3249 31.615 55.4083 31.2478 55.5752L30.9136 55.7271C29.6215 56.3142 28.9755 56.6078 28.5457 56.2858C28.1159 55.9638 28.187 55.2395 28.3293 53.7909L28.3661 53.4161C28.4065 53.0044 28.4267 52.7986 28.3666 52.6077C28.3064 52.4169 28.1728 52.2626 27.9054 51.9541L27.662 51.6732C26.7213 50.5874 26.2509 50.0445 26.415 49.5235C26.5792 49.0025 27.2692 48.8485 28.6491 48.5403L29.0061 48.4606C29.3983 48.373 29.5944 48.3292 29.7518 48.2113C29.9092 48.0933 30.0102 47.9146 30.2121 47.557L30.396 47.2315Z" fill="url(#paint1_linear_11881_6599)"/>
<path d="M42.4532 51.0271C42.8701 50.2889 43.0786 49.9198 43.3902 49.9198C43.7019 49.9198 43.9104 50.2889 44.3273 51.0271L44.4351 51.218C44.5536 51.4278 44.6129 51.5327 44.7053 51.6019C44.7976 51.6711 44.9126 51.6968 45.1427 51.7482L45.3522 51.7949C46.1618 51.9757 46.5666 52.0661 46.6629 52.3718C46.7592 52.6775 46.4833 52.996 45.9313 53.633L45.7885 53.7978C45.6317 53.9788 45.5532 54.0693 45.518 54.1813C45.4827 54.2933 45.4946 54.414 45.5182 54.6556L45.5398 54.8755C45.6233 55.7254 45.665 56.1503 45.4129 56.3392C45.1607 56.5281 44.7817 56.3559 44.0236 56.0114L43.8275 55.9223C43.6121 55.8244 43.5044 55.7755 43.3902 55.7755C43.276 55.7755 43.1683 55.8244 42.9529 55.9223L42.7568 56.0114C41.9988 56.3559 41.6197 56.5281 41.3676 56.3392C41.1154 56.1503 41.1572 55.7254 41.2406 54.8755L41.2622 54.6556C41.2859 54.414 41.2978 54.2933 41.2625 54.1813C41.2272 54.0693 41.1488 53.9788 40.9919 53.7978L40.8492 53.633C40.2972 52.996 40.0212 52.6775 40.1175 52.3718C40.2138 52.0661 40.6187 51.9757 41.4283 51.7949L41.6377 51.7482C41.8678 51.6968 41.9829 51.6711 42.0752 51.6019C42.1676 51.5327 42.2268 51.4278 42.3453 51.218L42.4532 51.0271Z" fill="url(#paint2_linear_11881_6599)"/>
<path fill-rule="evenodd" clip-rule="evenodd" d="M40.7744 7.25923C37.8581 8.29015 35.8598 10.6217 35.3187 13.6254C34.892 15.9949 35.7387 18.5385 37.5535 20.3389C40.7846 23.5445 45.6205 23.5568 48.8258 20.368C50.6356 18.5674 51.4652 16.0944 51.074 13.6658C50.6202 10.8469 49.0012 8.76365 46.2985 7.52066C45.4327 7.12245 45.0547 7.05481 43.457 7.01193C42.0169 6.97321 41.4306 7.02722 40.7744 7.25923ZM41.2346 12.664C40.1994 13.6937 39.3526 14.6154 39.3526 14.7123C39.3526 14.9281 40.0659 15.6113 40.2911 15.6113C40.3807 15.6113 40.8253 15.2374 41.2791 14.7803C41.733 14.3233 42.2012 13.9493 42.3198 13.9493C42.486 13.9493 42.5356 14.5124 42.5356 16.4019V18.8545L43.2476 18.7983L43.9596 18.7423L43.9455 16.3457C43.9358 14.6776 43.9886 13.9493 44.1194 13.9493C44.2228 13.9493 44.6785 14.3233 45.1323 14.7803C45.5861 15.2374 46.0314 15.6113 46.122 15.6113C46.2125 15.6113 46.5 15.4085 46.7607 15.1609L47.2346 14.7103L45.2646 12.751C44.1812 11.6733 43.2546 10.7916 43.2056 10.7916C43.1566 10.7916 42.2696 11.6342 41.2346 12.664Z" fill="url(#paint3_linear_11881_6599)"/>
<path fill-rule="evenodd" clip-rule="evenodd" d="M32.3948 10.0012H18.4117C17.0209 10.0012 15.6872 10.5465 14.7038 11.517C13.7204 12.4876 13.168 13.8039 13.168 15.1765V33.2901C13.168 33.4385 13.1872 33.5834 13.2239 33.7214C13.1869 33.8622 13.1681 34.0071 13.168 34.1526V39.3279C13.168 40.7005 13.7204 42.0169 14.7038 42.9874C15.6872 43.958 17.0209 44.5033 18.4117 44.5033H42.8822C44.2729 44.5033 45.6067 43.958 46.5901 42.9874C47.5734 42.0169 48.1259 40.7005 48.1259 39.3279V27.2522C48.1258 27.1067 48.107 26.9618 48.07 26.821C48.107 26.6801 48.1258 26.5352 48.1259 26.3897V25.5271H44.6301V25.5547C37.1194 25.7945 31.6957 27.58 27.8853 30.0797C29.329 30.5851 30.9441 31.3045 32.5277 32.2464C34.973 33.6955 37.4585 35.7311 39.1312 38.4274C39.251 38.6207 39.3311 38.8353 39.3669 39.0591C39.4027 39.2829 39.3934 39.5115 39.3397 39.7317C39.286 39.952 39.1888 40.1596 39.0538 40.3428C38.9187 40.526 38.7485 40.6812 38.5527 40.7995C38.3569 40.9177 38.1394 40.9968 37.9127 41.0321C37.6859 41.0674 37.4543 41.0582 37.2312 41.0052C37.008 40.9522 36.7976 40.8563 36.612 40.723C36.4263 40.5898 36.2691 40.4217 36.1493 40.2285C34.8629 38.1532 32.8668 36.4712 30.7273 35.2032C28.5914 33.937 26.4188 33.1469 24.9121 32.8019C22.7896 32.3235 20.6164 32.0999 18.4396 32.136H18.4012C17.7929 32.1446 17.2126 32.1705 16.6638 32.2136V15.1765C16.6638 14.719 16.8479 14.2802 17.1757 13.9567C17.5035 13.6332 17.9481 13.4514 18.4117 13.4514H32.3948V10.0012ZM24.5293 16.9016C23.5764 16.9087 22.6484 17.2023 21.869 17.7435C20.8727 18.4508 20.1596 19.6169 20.1596 21.2144C20.1596 22.8118 20.8727 23.9763 21.869 24.6836C22.6479 25.2259 23.5761 25.5203 24.5293 25.5271C25.2459 25.5271 26.2824 25.3287 27.1896 24.6836C28.1859 23.9763 28.899 22.8118 28.899 21.2144C28.899 19.6169 28.1859 18.4525 27.1896 17.7435C26.4105 17.2017 25.4823 16.908 24.5293 16.9016Z" fill="url(#paint4_linear_11881_6599)"/>
<defs>
<linearGradient id="paint0_linear_11881_6599" x1="20.6286" y1="50.0175" x2="23.2198" y2="55.2337" gradientUnits="userSpaceOnUse">
<stop offset="0.109744" stop-color="#EC0992"/>
<stop offset="1" stop-color="#0877FC"/>
</linearGradient>
<linearGradient id="paint1_linear_11881_6599" x1="31.9919" y1="45.3442" x2="36.419" y2="54.3972" gradientUnits="userSpaceOnUse">
<stop offset="0.157412" stop-color="#EC0992"/>
<stop offset="1" stop-color="#0877FC"/>
</linearGradient>
<linearGradient id="paint2_linear_11881_6599" x1="43.3657" y1="50.0175" x2="45.9481" y2="55.2984" gradientUnits="userSpaceOnUse">
<stop offset="0.249515" stop-color="#EC0992"/>
<stop offset="1" stop-color="#0877FC"/>
</linearGradient>
<linearGradient id="paint3_linear_11881_6599" x1="43.5695" y1="5.12538" x2="42.8292" y2="26.1273" gradientUnits="userSpaceOnUse">
<stop stop-color="#EC0992"/>
<stop offset="1" stop-color="#0877FC"/>
</linearGradient>
<linearGradient id="paint4_linear_11881_6599" x1="30.6469" y1="10.0012" x2="30.6469" y2="48.6285" gradientUnits="userSpaceOnUse">
<stop stop-color="#FF009A"/>
<stop offset="1" stop-color="#0877FC"/>
</linearGradient>
</defs>
</svg>
