<svg width="101" height="15" viewBox="0 0 101 15" fill="none" xmlns="http://www.w3.org/2000/svg">
<g id="Group 2147223456">
<path id="Vector 627" d="M82.1053 5.42275C82.8655 4.89914 82.0471 2.79795 80.0346 3.35966C78.877 3.68275 78.0941 4.27313 77.7568 5.42275C77.2781 7.05406 78.3553 8.83713 80.0346 9.13631C82.6734 9.60646 83.6874 8.42442 84.7972 7.27953C86.7537 5.26111 87.4582 4.0093 89.9739 2.53442C91.5163 1.63017 92.6445 1.18368 95.2436 1.75386C96.3734 2.0017 97.9355 2.78822 98.9709 5.26393C99.7552 7.13953 99.5921 8.77118 98.9709 10.2153C97.9619 12.5609 95.1507 13.31 95.1507 13.31C95.1507 13.31 91.8163 14.0214 90.481 12.6911C89.1457 11.3607 89.0315 10.4217 89.1457 9.13631C89.253 7.92833 90.0348 7.05275 91.2164 6.45429C92.3446 5.88285 93.7012 6.45429 93.7012 6.45429" stroke="#CCCCCC" stroke-width="1.5" stroke-linecap="round"/>
<line id="Line 10" x1="77.8965" y1="7.53516" x2="0.753639" y2="7.53515" stroke="url(#paint0_linear_24509_144391)" stroke-width="1.5"/>
</g>
<defs>
<linearGradient id="paint0_linear_24509_144391" x1="77.8965" y1="6.28516" x2="0.753639" y2="6.28515" gradientUnits="userSpaceOnUse">
<stop stop-color="#CCCCCC"/>
<stop offset="1" stop-color="#CCCCCC" stop-opacity="0"/>
</linearGradient>
</defs>
</svg>
