<svg width="25" height="24" viewBox="0 0 25 24" fill="none" xmlns="http://www.w3.org/2000/svg">
<g id="LinkedinLogo">
<path id="Vector" d="M20.7482 2.2168H4.55421C4.16376 2.2168 3.78931 2.3719 3.51322 2.64799C3.23714 2.92408 3.08203 3.29853 3.08203 3.68898V19.8829C3.08203 20.2734 3.23714 20.6478 3.51322 20.9239C3.78931 21.2 4.16376 21.3551 4.55421 21.3551H20.7482C21.1386 21.3551 21.5131 21.2 21.7892 20.9239C22.0653 20.6478 22.2204 20.2734 22.2204 19.8829V3.68898C22.2204 3.29853 22.0653 2.92408 21.7892 2.64799C21.5131 2.3719 21.1386 2.2168 20.7482 2.2168ZM9.70684 16.2025C9.70684 16.3977 9.62929 16.585 9.49124 16.723C9.3532 16.861 9.16597 16.9386 8.97075 16.9386C8.77553 16.9386 8.5883 16.861 8.45025 16.723C8.31221 16.585 8.23466 16.3977 8.23466 16.2025V10.3138C8.23466 10.1186 8.31221 9.93133 8.45025 9.79329C8.5883 9.65525 8.77553 9.57769 8.97075 9.57769C9.16597 9.57769 9.3532 9.65525 9.49124 9.79329C9.62929 9.93133 9.70684 10.1186 9.70684 10.3138V16.2025ZM8.97075 8.8416C8.75237 8.8416 8.5389 8.77685 8.35732 8.65552C8.17575 8.5342 8.03423 8.36176 7.95066 8.16C7.86709 7.95825 7.84523 7.73624 7.88783 7.52206C7.93043 7.30788 8.03559 7.11114 8.19001 6.95673C8.34442 6.80231 8.54116 6.69715 8.75534 6.65455C8.96952 6.61195 9.19153 6.63381 9.39328 6.71738C9.59504 6.80095 9.76748 6.94247 9.8888 7.12405C10.0101 7.30562 10.0749 7.51909 10.0749 7.73747C10.0749 8.0303 9.95855 8.31114 9.75149 8.51821C9.54442 8.72528 9.26358 8.8416 8.97075 8.8416ZM17.8038 16.2025C17.8038 16.3977 17.7263 16.585 17.5882 16.723C17.4502 16.861 17.263 16.9386 17.0677 16.9386C16.8725 16.9386 16.6853 16.861 16.5472 16.723C16.4092 16.585 16.3316 16.3977 16.3316 16.2025V12.8901C16.3316 12.402 16.1378 11.934 15.7927 11.5889C15.4475 11.2438 14.9795 11.0499 14.4914 11.0499C14.0034 11.0499 13.5353 11.2438 13.1902 11.5889C12.8451 11.934 12.6512 12.402 12.6512 12.8901V16.2025C12.6512 16.3977 12.5736 16.585 12.4356 16.723C12.2976 16.861 12.1103 16.9386 11.9151 16.9386C11.7199 16.9386 11.5327 16.861 11.3946 16.723C11.2566 16.585 11.179 16.3977 11.179 16.2025V10.3138C11.1799 10.1335 11.247 9.95979 11.3675 9.82565C11.4879 9.69151 11.6535 9.60625 11.8326 9.58605C12.0118 9.56586 12.1922 9.61212 12.3395 9.71607C12.4868 9.82002 12.5908 9.97443 12.6319 10.15C13.1298 9.81221 13.7104 9.61643 14.3112 9.58369C14.912 9.55096 15.5104 9.6825 16.0421 9.9642C16.5738 10.2459 17.0188 10.6671 17.3292 11.1826C17.6395 11.6981 17.8036 12.2884 17.8038 12.8901V16.2025Z" fill="#191919" fill-opacity="0.6"/>
</g>
</svg>
