<svg width="64" height="64" viewBox="0 0 64 64" fill="none" xmlns="http://www.w3.org/2000/svg">
<path d="M55.4483 22.2391C54.1476 18.8545 50.917 16.6579 46.5955 15.7389V16.8372C48.966 17.801 50.7072 19.3476 51.5253 21.4546C54.0637 28.0668 46.5115 37.6376 34.6588 42.8602C22.7852 48.0827 11.1003 46.9844 8.56193 40.3722C7.65986 38.0635 8.0165 35.3738 9.35911 32.6617C7.21933 36.3376 6.54803 40.0584 7.78574 43.2188C10.7647 50.9517 23.8341 52.4983 37.0084 46.7154C50.1827 40.9101 58.4272 29.9496 55.4483 22.2391Z" fill="url(#paint0_linear_8644_99)"/>
<path d="M21.8437 43.6211V27.057H13.5782V42.4332C15.3824 43.2401 17.69 43.6659 20.3332 43.6659C20.8367 43.6659 21.3402 43.651 21.8437 43.6211Z" fill="#0078B1"/>
<path d="M21.6339 52.7005C18.5711 52.7005 15.8649 52.2298 13.5782 51.3556V54.0005H21.8437V52.7005C21.7737 52.7005 21.7038 52.7005 21.6339 52.7005Z" fill="#0078B1"/>
<path d="M25.3644 53.9996H33.6299V50.5926C30.8397 51.534 28.0706 52.1616 25.3644 52.4754V53.9996Z" fill="#D49543"/>
<path d="M33.6299 18.966H25.3644V43.1958C28.0706 42.7251 30.8817 41.8734 33.6299 40.7078V18.966Z" fill="#D49543"/>
<path d="M45.0022 10.0004H36.7368V39.251C39.9045 37.6148 42.7156 35.6199 45.0022 33.4457V10.0004Z" fill="#0078B1"/>
<path d="M36.7368 49.4043V53.9992H45.0022V44.8991C42.6946 46.4905 40.1772 47.9026 37.4711 49.0905C37.2193 49.1951 36.9746 49.2997 36.7368 49.4043Z" fill="#0078B1"/>
<path d="M36.7368 10.0004V39.251C38.2053 38.4889 39.5689 37.6596 40.8695 36.763V10.0004H36.7368Z" fill="url(#paint1_linear_8644_99)"/>
<path d="M37.4711 49.0917C37.2193 49.1963 36.9746 49.3009 36.7368 49.4055V54.0004H40.8695V47.433C39.7647 48.0307 38.6318 48.5836 37.4711 49.0917Z" fill="#186FF4"/>
<path d="M45.0009 10.0004H40.8682V36.763C42.3787 35.732 43.7632 34.6337 45.0009 33.4457V10.0004Z" fill="url(#paint2_linear_8644_99)"/>
<path d="M45.0009 44.8991C43.7003 45.7956 42.3157 46.6474 40.8682 47.4319V53.9992H45.0009V44.8991Z" fill="#2369EF"/>
<path d="M25.3644 52.4761V54.0002H29.4972V51.7588C28.0986 52.0875 26.721 52.3266 25.3644 52.4761Z" fill="#1B6EF3"/>
<path d="M25.3644 18.966V43.1958C26.728 42.9717 28.1126 42.6355 29.4972 42.2096V18.966H25.3644Z" fill="url(#paint3_linear_8644_99)"/>
<path d="M33.6317 50.5926C32.2471 51.0558 30.8695 51.4444 29.499 51.7582V53.9996H33.6317V50.5926Z" fill="#1D6DF2"/>
<path d="M33.6317 18.966H29.499V42.2096C30.8835 41.8061 32.2681 41.2906 33.6317 40.7078V18.966Z" fill="url(#paint4_linear_8644_99)"/>
<path d="M13.5782 27.057V42.4332C14.774 42.9487 16.1586 43.3297 17.711 43.509V27.057H13.5782Z" fill="url(#paint5_linear_8644_99)"/>
<path d="M13.5782 51.3556V54.0005H17.711V52.4091C16.2215 52.185 14.8369 51.8487 13.5782 51.3556Z" fill="#1571F6"/>
<path d="M21.8392 43.6211V27.057H17.7065V43.509C18.5456 43.6136 19.4197 43.6659 20.3288 43.6659C20.8322 43.6659 21.3357 43.651 21.8392 43.6211Z" fill="url(#paint6_linear_8644_99)"/>
<path d="M21.8392 52.6999C21.7693 52.6999 21.6993 52.6999 21.6294 52.6999C20.2448 52.6999 18.9442 52.6103 17.7065 52.4086V54H21.8392V52.6999Z" fill="#186FF4"/>
<defs>
<linearGradient id="paint0_linear_8644_99" x1="7.16797" y1="50.138" x2="55.9942" y2="50.138" gradientUnits="userSpaceOnUse">
<stop stop-color="#EC0992"/>
<stop offset="1" stop-color="#0877FC"/>
</linearGradient>
<linearGradient id="paint1_linear_8644_99" x1="38.8032" y1="10.0004" x2="38.8032" y2="39.251" gradientUnits="userSpaceOnUse">
<stop stop-color="#EC0992"/>
<stop offset="1" stop-color="#0877FC"/>
</linearGradient>
<linearGradient id="paint2_linear_8644_99" x1="42.9346" y1="10.0004" x2="42.9346" y2="36.763" gradientUnits="userSpaceOnUse">
<stop stop-color="#E90A93"/>
<stop offset="1" stop-color="#0877FC"/>
</linearGradient>
<linearGradient id="paint3_linear_8644_99" x1="27.4308" y1="18.966" x2="27.4308" y2="43.1958" gradientUnits="userSpaceOnUse">
<stop stop-color="#EC0992"/>
<stop offset="1" stop-color="#0877FC"/>
</linearGradient>
<linearGradient id="paint4_linear_8644_99" x1="31.5653" y1="18.966" x2="31.5653" y2="42.2096" gradientUnits="userSpaceOnUse">
<stop stop-color="#E90A93"/>
<stop offset="1" stop-color="#0877FC"/>
</linearGradient>
<linearGradient id="paint5_linear_8644_99" x1="15.6446" y1="27.057" x2="15.6446" y2="43.509" gradientUnits="userSpaceOnUse">
<stop stop-color="#EC0992"/>
<stop offset="1" stop-color="#0877FC"/>
</linearGradient>
<linearGradient id="paint6_linear_8644_99" x1="19.7728" y1="27.057" x2="19.7728" y2="43.6659" gradientUnits="userSpaceOnUse">
<stop stop-color="#EC0992"/>
<stop offset="1" stop-color="#0877FC"/>
</linearGradient>
</defs>
</svg>
