<svg width="303" height="37" viewBox="0 0 303 37" fill="none" xmlns="http://www.w3.org/2000/svg">
<path d="M3.86613 4.192C3.86613 5.664 2.17013 12.032 2.17013 12.032H1.75413C1.75413 12.032 0.0581299 5.664 0.0581299 4.192C0.0581299 3.168 0.92213 2.368 1.94613 2.368C3.00213 2.368 3.86613 3.168 3.86613 4.192ZM39.2181 2.4V3.2C37.4261 3.2 36.0181 4.64 36.0181 6.4V24C36.0181 25.76 37.4261 27.2 39.2181 27.2V28H26.4181V27.2C28.1781 27.2 29.6181 25.76 29.6181 24V9.376L23.7941 28H17.2981L11.4741 9.376V24C11.4741 25.76 12.9141 27.2 14.6741 27.2V28H6.35413V27.2C8.11413 27.2 9.55413 25.76 9.55413 24V6.4C9.55413 4.672 8.40213 3.424 6.35413 3.2V2.4H19.1541V3.2C17.3941 3.2 16.4021 4.64 16.9461 6.4L22.7701 25.088L28.6261 6.4C29.2021 4.544 28.0821 3.2 26.4181 3.2V2.4H39.2181ZM59.9851 24.064L60.1451 24.128C59.4731 27.008 57.9691 28.416 55.1211 28.416C53.1371 28.416 51.6651 27.04 51.2171 25.216C49.6491 27.104 47.9211 28.384 45.5531 28.384C42.6091 28.384 40.9131 26.752 40.9131 24.096C40.9131 19.2 48.6571 18.752 51.0891 17.984V15.584C51.0891 10.112 44.4651 10.912 45.7131 14.176C45.8411 14.496 46.0011 14.72 46.0651 15.04C46.2571 16.192 45.4891 17.28 44.3371 17.472C43.4731 17.6 42.5771 17.184 42.0971 16.512C41.7451 16 41.4571 15.104 41.7131 14.176C42.8331 9.984 50.0651 8.864 54.1291 11.488C55.8571 12.608 56.6891 14.56 56.6891 17.088V22.464C56.6891 27.04 59.0251 26.016 59.9851 24.064ZM48.9451 25.472C49.4891 25.408 50.2891 24.832 51.0891 23.968V19.136C48.3371 20.384 46.5131 21.472 46.5131 23.072C46.5131 24.576 47.3771 25.664 48.9451 25.472ZM76.6824 10.336C76.2984 9.536 75.1464 8.672 73.1624 10.432C76.4264 11.392 77.9944 13.888 77.9944 16.416C77.9944 19.68 75.3704 22.848 69.9624 22.848C69.0984 22.848 68.3304 22.784 67.5944 22.624C64.9384 24.384 66.6664 25.344 67.4664 25.472C69.6744 25.824 72.2344 25.76 73.8024 25.888C77.0984 26.144 79.2424 27.296 79.3704 30.176C79.5944 34.432 74.8264 36.448 69.7384 36.448C63.7544 36.448 62.0904 34.56 61.7704 33.152C61.2904 31.232 62.3784 29.504 64.0104 29.632C65.1944 29.696 66.0584 30.688 65.9944 31.872C65.9624 32.192 65.8664 32.448 65.7384 32.768C65.2584 33.824 65.4824 35.744 69.9304 35.744C73.4504 35.744 75.6904 33.408 75.5944 31.968C75.4344 29.76 72.2664 30.08 69.8984 29.984C67.6904 29.888 65.0984 29.952 63.4024 28.768C62.6024 28.192 62.0264 27.328 62.1864 26.176C62.4104 24.576 64.1704 23.168 65.8984 22.112C63.2744 20.96 62.0264 18.752 62.0264 16.448C62.0264 13.184 64.6184 10.016 70.0264 10.016C70.8584 10.016 71.6264 10.08 72.3304 10.24C74.1224 8.384 76.2344 7.456 77.8664 7.456C80.0104 7.456 81.0984 9.696 79.8184 11.04C78.8264 12.032 77.2904 11.744 76.6824 10.336ZM70.0264 21.248C71.7544 21.248 72.4264 19.392 72.4264 16.416C72.4264 13.472 71.7544 11.616 70.0264 11.616C68.2984 11.616 67.6264 13.44 67.6264 16.384C67.6264 19.36 68.2984 21.248 70.0264 21.248ZM87.2216 3.328C86.6776 2.816 85.7816 0.735998 85.7816 0.735998C85.7816 0.735998 84.8856 2.816 84.3736 3.328C83.8616 3.872 81.7816 4.736 81.7816 4.736C81.7816 4.736 83.8616 5.632 84.3736 6.176C84.8856 6.688 85.7816 8.736 85.7816 8.736C85.7816 8.736 86.6776 6.688 87.2216 6.176C87.7336 5.632 89.7816 4.736 89.7816 4.736C89.7816 4.736 87.7336 3.872 87.2216 3.328ZM88.9816 10.272V25.6C88.9816 26.496 89.6856 27.2 90.5816 27.2V28H81.7816V27.2C82.6776 27.2 83.3816 26.496 83.3816 25.6V13.44C83.3816 12.672 82.6776 12.096 81.9096 12.192L81.7816 11.424L88.9816 10.272ZM103.468 25.408C105.26 25.344 107.02 24.704 108.108 22.72L108.396 22.848C107.212 26.272 104.3 28.352 101.164 28.352C96.0756 28.352 92.3636 24.544 92.3636 19.392C92.3636 14.432 96.0116 10.304 101.324 10.08C105.708 9.888 108.268 11.488 108.748 13.984C108.94 14.88 108.556 15.872 108.172 16.352C107.66 16.992 106.828 17.376 105.964 17.184C104.844 16.928 104.14 15.776 104.396 14.656C104.46 14.336 104.62 14.112 104.812 13.792C105.868 12.032 103.532 11.232 101.676 11.936C100.524 12.352 97.9956 13.824 97.9956 18.4C97.9956 22.528 100.076 25.536 103.468 25.408ZM130.014 24.064L130.174 24.128C129.502 27.008 127.998 28.416 125.15 28.416C123.166 28.416 121.694 27.04 121.246 25.216C119.678 27.104 117.95 28.384 115.582 28.384C112.638 28.384 110.942 26.752 110.942 24.096C110.942 19.2 118.686 18.752 121.118 17.984V15.584C121.118 10.112 114.494 10.912 115.742 14.176C115.87 14.496 116.03 14.72 116.094 15.04C116.286 16.192 115.518 17.28 114.366 17.472C113.502 17.6 112.606 17.184 112.126 16.512C111.774 16 111.486 15.104 111.742 14.176C112.862 9.984 120.094 8.864 124.158 11.488C125.886 12.608 126.718 14.56 126.718 17.088V22.464C126.718 27.04 129.054 26.016 130.014 24.064ZM118.974 25.472C119.518 25.408 120.318 24.832 121.118 23.968V19.136C118.366 20.384 116.542 21.472 116.542 23.072C116.542 24.576 117.406 25.664 118.974 25.472ZM140.127 27.2V28H131.327V27.2C132.223 27.2 132.927 26.496 132.927 25.6V4.64C132.927 3.872 132.223 3.296 131.455 3.392L131.327 2.624L138.527 1.472V25.6C138.527 26.496 139.231 27.2 140.127 27.2ZM176.506 9.44C176.506 12.576 173.754 17.632 162.074 17.632V24C162.074 25.76 163.514 27.2 165.274 27.2V28H152.474V27.2C154.234 27.2 155.674 25.76 155.674 24V6.4C155.674 4.64 154.234 3.2 152.474 3.2V2.4H167.098C172.762 2.4 176.506 5.12 176.506 9.44ZM162.074 4.608V15.744C167.194 15.744 170.106 13.248 170.106 10.016C170.106 6.24 167.162 4.608 162.074 4.608ZM192.331 10.496C194.539 11.776 194.059 15.712 191.531 15.712C189.995 15.712 189.131 14.368 189.611 12.704C190.219 10.432 187.083 13.28 185.259 15.84V25.6C185.259 26.496 185.963 27.2 186.859 27.2V28H178.059V27.2C178.955 27.2 179.659 26.496 179.659 25.6V13.44C179.659 12.672 178.955 12.096 178.187 12.192L178.059 11.424L185.259 10.272V13.44C187.147 11.072 189.803 9.024 192.331 10.496ZM204.642 10.048C210.946 10.048 213.986 14.528 213.986 19.168C213.986 23.808 210.882 28.352 204.578 28.352C198.242 28.352 195.266 23.872 195.266 19.232C195.266 14.592 198.306 10.048 204.642 10.048ZM204.61 26.752C207.554 26.752 208.386 22.688 208.386 19.104C208.386 15.488 207.554 11.648 204.61 11.648C201.698 11.648 200.866 15.456 200.866 19.04C200.866 22.656 201.666 26.752 204.61 26.752ZM245.345 27.2V28H236.545V27.2C237.441 27.2 238.145 26.496 238.145 25.6V14.688C238.145 13.888 237.377 13.152 236.321 13.152C234.753 13.152 233.473 15.04 233.345 15.2V25.6C233.345 26.496 234.049 27.2 234.945 27.2V28H226.145V27.2C227.041 27.2 227.745 26.496 227.745 25.6V14.688C227.745 13.888 226.977 13.152 225.921 13.152C224.353 13.152 223.073 15.04 222.945 15.2V25.6C222.945 26.496 223.649 27.2 224.545 27.2V28H215.745V27.2C216.641 27.2 217.345 26.496 217.345 25.6V13.44C217.345 12.672 216.641 12.096 215.873 12.192L215.745 11.424L222.945 10.272V13.6C222.945 13.6 225.569 10.048 229.505 10.048C231.873 10.048 233.345 11.648 233.345 13.6C233.345 13.6 235.969 10.048 239.905 10.048C243.201 10.048 243.745 12.736 243.745 13.664V25.6C243.745 26.496 244.449 27.2 245.345 27.2ZM260.543 10.016C263.839 10.016 265.183 14.944 265.183 18.016C265.183 21.856 263.583 28.352 257.983 28.352C256.223 28.352 255.071 27.584 254.335 26.752V33.728C254.335 34.624 255.039 35.328 255.935 35.328V36.128H247.135V35.328C248.031 35.328 248.735 34.624 248.735 33.728V12.768C248.735 12 248.031 11.424 247.263 11.52L247.135 10.752L254.335 9.6V13.024C255.167 12.096 257.439 10.016 260.543 10.016ZM256.159 26.368C260.383 26.368 261.183 12.992 256.959 12.992C255.839 12.992 254.847 13.92 254.335 14.496V23.008C254.463 23.616 254.719 26.368 256.159 26.368ZM279.412 11.328H274.612V20.864C274.612 22.976 274.42 25.376 276.34 25.376C277.236 25.376 278.292 24.864 279.252 22.912L279.412 22.976C278.74 25.856 277.076 28.352 273.556 28.352C271.188 28.352 269.012 26.432 269.012 24.096V11.328H266.612V10.048C268.948 10.048 272.02 7.584 273.812 3.2H274.612V10.048H279.412V11.328ZM291.887 17.12C294.767 18.176 296.047 20.416 296.047 22.752C296.047 26.56 292.111 28.544 288.335 28.608C285.231 28.64 282.223 27.36 281.551 24.672C281.135 23.04 282.191 21.312 283.823 21.504C285.263 21.696 285.935 23.072 285.231 24.512C284.463 26.144 286.383 26.88 288.367 26.88C289.935 26.88 291.887 26.016 291.887 24.48C291.887 22.688 289.039 21.92 286.095 20.96C283.151 20 281.679 18.112 281.679 15.616C281.679 11.168 285.583 10.016 288.751 9.984C291.791 9.952 294.671 10.976 295.215 13.28C295.599 14.88 294.543 16.64 292.911 16.416C291.503 16.256 290.799 14.88 291.503 13.44C292.751 10.848 285.647 11.104 285.647 13.792C285.647 14.944 286.095 14.976 291.887 17.12ZM302.95 4.192C302.95 5.664 301.254 12.032 301.254 12.032H300.838C300.838 12.032 299.142 5.664 299.142 4.192C299.142 3.168 300.006 2.368 301.03 2.368C302.086 2.368 302.95 3.168 302.95 4.192Z" fill="url(#paint0_linear_17675_100959)"/>
<defs>
<linearGradient id="paint0_linear_17675_100959" x1="305" y1="16" x2="-2" y2="16" gradientUnits="userSpaceOnUse">
<stop stop-color="#191919"/>
<stop offset="0.0001" stop-color="#0379FE"/>
<stop offset="1" stop-color="#EB0B94"/>
</linearGradient>
</defs>
</svg>
