<svg width="303" height="54" viewBox="0 0 303 54" fill="none" xmlns="http://www.w3.org/2000/svg">
<path d="M3.41309 13.204C3.37709 13.492 2.94509 13.528 2.65709 13.24L1.00109 5.356C0.785094 4.24 5.68109 4.492 5.42909 5.464L3.41309 13.204ZM57.3751 24.004C57.4471 23.68 58.2031 23.68 58.0951 24.076C57.1951 27.604 54.3871 36.964 49.5991 37C45.9271 37 44.5951 34.804 44.3071 31.924C43.9831 28.792 44.9551 24.796 45.5311 21.916C46.0711 19.252 46.3591 17.272 46.8991 13.564C42.4351 21.088 37.2871 29.512 35.9191 33.796C35.0911 33.724 34.3711 33.976 34.3711 33.22C34.6951 22.636 31.7791 13.384 33.4351 4.276C30.0511 11.368 33.2911 39.124 17.1631 38.944C5.24712 38.8 6.32713 20.152 17.8471 20.188C20.1871 20.188 22.2391 21.196 22.9231 23.248C23.1031 23.716 23.1391 24.076 23.1391 24.364C23.1391 25.588 21.6271 25.156 21.8071 24.328C21.9151 24.04 22.2391 23.5 22.1311 23.212C21.4471 21.664 19.8631 20.872 18.0631 20.872C8.77513 20.908 7.80312 37.504 17.1271 37.504C28.4311 37.54 22.5991 7.624 32.4271 2.548C22.9951 2.908 16.2991 6.328 17.8471 17.92C18.0631 18.028 18.4591 18.064 18.7111 18.208C20.1151 18.928 17.4871 20.8 17.0911 17.956C15.3991 4.888 23.7871 1.612 35.0191 1.792C35.5591 1.612 36.3871 1.504 36.9271 1.612C38.1151 1.864 37.3591 3.268 36.6031 2.908C31.5991 0.532 36.8911 23.14 36.7471 27.676C39.7351 19.936 46.5391 9.748 50.6071 5.248C51.7951 3.592 53.2711 2.476 55.1431 2.296C55.3591 2.26 55.6111 2.224 55.8631 2.26C56.3671 2.26 56.7271 2.332 56.9791 2.44C58.1311 2.872 57.1951 4.132 56.5111 3.664C55.9351 3.304 55.7551 3.052 55.3951 3.016C52.9471 3.592 51.0391 18.748 50.2831 23.32C49.9231 25.516 47.7631 35.92 50.3911 35.884C53.5591 35.776 56.6911 26.704 57.3751 24.004ZM77.1594 24.004C77.2314 23.68 77.9874 23.68 77.8794 24.076C77.0154 27.496 74.2074 37 69.5994 37C65.1354 37 64.9194 33.328 65.5314 29.404C64.8114 31.492 63.9474 33.76 63.0114 35.38C61.9314 37.288 60.5274 38.044 59.1954 37.972C53.5074 37.576 54.3714 30.592 55.5954 27.172C56.7834 23.752 58.8714 20.656 63.1914 20.872C66.5394 21.088 69.7074 23.608 71.5434 26.596C70.9674 28.576 68.0514 35.56 70.3554 35.596C70.9674 35.596 71.6514 35.308 72.1194 34.876C74.7834 32.392 76.5474 26.38 77.1594 24.004ZM60.5634 36.136C62.7234 36.208 65.9994 25.444 66.7194 23.284C66.1434 22.528 65.6034 22.24 65.0274 22.312C61.6074 22.672 58.6194 36.028 60.5634 36.136ZM95.0443 24.004C95.1523 23.68 95.8723 23.68 95.7643 24.076C94.8643 27.676 92.4883 29.98 89.5003 32.176C88.4563 39.268 87.9523 53.164 77.8363 52.948C74.3083 52.876 72.9763 49.888 73.2643 46.756C73.8403 41.212 79.8523 37.252 84.4603 34.12C84.7483 31.708 85.0363 29.332 85.3603 26.956C84.6043 29.26 83.5603 32.176 82.3003 34.408C81.2203 36.28 79.7803 37.072 78.4483 37C77.0803 36.892 76.1803 36.388 75.4963 35.668C72.4363 32.464 75.8203 20.872 82.2643 20.872C85.2883 20.872 88.2043 24.292 90.5443 26.128L89.6443 31.24C92.1643 29.296 94.2883 27.136 95.0443 24.004ZM76.8643 50.212C82.7683 50.356 83.7763 39.16 84.3523 34.984C80.1043 37.9 74.5243 41.644 73.9843 46.756C73.7683 48.952 75.1723 50.176 76.8643 50.212ZM79.8163 35.164C82.0123 35.236 85.0723 25.372 85.7923 23.284C85.2163 22.528 84.6403 22.24 84.1003 22.312C80.6443 22.672 77.9083 35.056 79.8163 35.164ZM98.7189 20.008C97.3869 20.008 96.3069 18.82 96.3069 17.344C96.3069 15.904 97.3869 14.716 98.7189 14.716C100.087 14.716 101.167 15.904 101.167 17.344C101.167 18.82 100.087 20.008 98.7189 20.008ZM105.451 24.004C105.523 23.68 106.279 23.68 106.171 24.076C105.307 27.496 102.499 37 97.8909 37C91.9509 37 92.8149 31.816 93.9669 27.064C94.4709 25.012 95.1189 23.032 95.7669 21.016C99.4029 21.052 100.699 20.764 100.159 22.564C99.0069 26.524 96.0549 35.56 98.6469 35.596C99.2589 35.596 99.9429 35.308 100.411 34.876C103.075 32.392 104.839 26.38 105.451 24.004ZM119.889 24.004C119.961 23.68 120.717 23.68 120.609 24.076C119.313 29.224 115.533 37.972 109.089 37.72C102.789 37.468 101.817 32.032 103.653 27.064C105.093 23.14 108.405 19.684 112.797 20.152C115.641 20.476 115.929 23.356 114.921 25.264C114.561 26.02 113.445 25.552 112.545 25.372C114.093 24.436 114.813 21.304 112.761 21.232C109.845 21.448 104.517 36.136 109.737 36.208C115.461 36.28 118.773 28.504 119.889 24.004ZM139.702 24.004C139.774 23.68 140.53 23.68 140.422 24.076C139.558 27.496 136.75 37 132.142 37C127.678 37 127.462 33.328 128.074 29.404C127.354 31.492 126.49 33.76 125.554 35.38C124.474 37.288 123.07 38.044 121.738 37.972C116.05 37.576 116.914 30.592 118.138 27.172C119.326 23.752 121.414 20.656 125.734 20.872C129.082 21.088 132.25 23.608 134.086 26.596C133.51 28.576 130.594 35.56 132.898 35.596C133.51 35.596 134.194 35.308 134.662 34.876C137.326 32.392 139.09 26.38 139.702 24.004ZM123.106 36.136C125.266 36.208 128.542 25.444 129.262 23.284C128.686 22.528 128.146 22.24 127.57 22.312C124.15 22.672 121.162 36.028 123.106 36.136ZM151.503 24.004C151.575 23.68 152.295 23.68 152.223 24.076C151.323 27.604 148.515 36.964 143.691 37C136.059 37 138.651 27.496 139.803 21.952C140.631 17.776 141.603 13.384 142.503 9.676C143.583 5.104 146.571 3.124 149.127 3.232C150.891 3.304 152.403 4.348 152.943 6.256C153.555 8.416 152.403 11.332 151.215 13.708C149.127 17.848 145.923 22.312 144.375 23.86C144.123 25.084 143.907 26.308 143.691 27.46C143.151 30.988 142.683 35.668 144.483 35.632C147.651 35.524 150.819 26.704 151.503 24.004ZM148.047 8.308C145.995 12.484 144.951 20.98 144.627 22.564C146.283 20.62 148.803 16.948 150.531 13.492C150.963 12.664 151.827 10.756 152.043 9.172C152.331 7.336 151.575 6.544 150.603 6.508C149.703 6.472 148.623 7.156 148.047 8.308ZM182.439 2.548C173.007 2.908 166.311 6.328 167.859 17.92C168.075 18.028 168.471 18.064 168.723 18.208C170.127 18.928 167.499 20.8 167.103 17.956C165.411 4.888 173.799 1.612 185.031 1.792C185.571 1.612 186.399 1.504 186.939 1.612C188.127 1.864 187.371 3.268 186.615 2.908C182.907 1.144 182.331 7.444 181.431 15.292C182.979 9.892 185.787 3.16 191.151 3.196C200.583 3.232 199.719 22.564 180.567 21.736C179.127 30.52 176.139 39.052 167.175 38.944C155.259 38.8 156.339 20.152 167.859 20.188C170.199 20.188 172.251 21.196 172.935 23.248C173.115 23.716 173.151 24.076 173.151 24.364C173.151 25.588 171.639 25.156 171.819 24.328C171.927 24.04 172.251 23.5 172.143 23.212C171.459 21.664 169.875 20.872 168.075 20.872C158.787 20.908 157.815 37.504 167.139 37.504C178.443 37.54 172.611 7.624 182.439 2.548ZM180.747 20.98C192.411 21.124 193.851 3.844 190.611 4.276C184.635 5.068 182.295 14.5 181.143 19.36C180.999 19.936 180.891 20.476 180.747 20.98ZM208.717 24.004C208.789 23.68 209.509 23.68 209.437 24.076C208.573 27.496 205.477 38.044 200.869 38.044C191.977 38.044 197.089 27.064 198.349 23.86C197.557 23.356 196.693 22.852 195.937 22.42L195.469 24.328C195.361 24.652 194.641 24.58 194.749 24.22C194.893 23.644 195.109 22.852 195.289 22.024C194.317 21.304 193.525 20.224 194.029 18.964C194.209 18.568 194.461 18.208 194.821 17.956C196.441 16.984 197.017 18.676 196.909 18.532C196.657 19.576 196.405 20.656 196.117 21.7C197.629 22.564 202.885 25.696 203.281 25.912C202.489 27.856 198.601 35.704 201.373 36.64C201.949 36.82 202.669 36.604 203.389 35.92C206.053 33.436 208.105 26.38 208.717 24.004ZM224.727 24.004C224.799 23.68 225.555 23.68 225.447 24.076C224.583 27.532 222.927 32.572 219.039 33.328C217.347 36.532 214.287 38.836 210.579 37.756C202.155 35.308 207.051 18.964 215.547 20.692C220.767 21.772 221.451 27.82 219.471 32.464C222.495 31.42 223.971 26.992 224.727 24.004ZM218.463 27.928C218.787 24.94 218.175 22.276 216.159 21.988C212.487 21.52 208.599 34.912 212.163 36.244C214.071 37 215.727 35.488 216.915 33.256C213.495 32.212 213.999 27.424 217.059 27.424C217.563 27.424 218.067 27.604 218.463 27.928ZM252.35 24.004C252.422 23.68 253.178 23.68 253.07 24.076C252.314 27.1 248.21 38.584 243.71 38.116C241.91 37.972 240.506 37.252 239.966 36.244C237.986 32.644 243.422 22.744 241.946 22.672C240.074 22.564 238.382 26.668 237.158 30.484C236.582 32.68 235.826 34.948 235.322 37.144C235.25 37.288 230.534 37.396 231.002 35.092C231.722 31.564 232.55 28.54 233.378 25.12C233.702 23.788 233.882 22.708 233.558 22.672C230.57 22.528 227.438 34.336 227.078 37C227.006 37.144 222.29 37.612 222.578 35.308C223.19 30.448 224.378 24.148 224.954 21.772C225.098 21.304 230.21 20.008 229.418 23.068C228.842 25.336 228.374 27.784 228.014 30.196C229.022 26.884 230.426 23.356 232.298 21.988C232.982 21.448 233.846 21.268 234.674 21.34C236.618 21.484 237.914 22.564 238.094 24.58C238.13 24.904 238.13 25.264 238.094 25.66C239.246 23.212 240.65 21.34 242.378 21.34C251.882 21.34 241.622 35.992 244.394 36.352C247.85 36.856 251.738 26.344 252.35 24.004ZM270.84 24.004C270.912 23.68 271.668 23.68 271.56 24.076C270.552 28.108 268.5 32.14 265.368 34.984C263.676 36.46 260.688 38.188 258.06 38.224C256.692 38.224 255.468 37.72 254.496 36.748L253.344 46.36C250.644 46.36 248.376 46.792 248.736 44.668C249.528 39.844 252.012 23.428 252.732 21.016C255.108 21.088 257.808 20.764 257.412 21.988C256.98 23.572 256.368 26.488 255.756 29.836C256.476 27.676 257.376 25.3 258.348 23.608C259.428 21.7 260.832 20.944 262.164 21.016C267.924 21.34 267.024 32.788 261.3 36.712C262.56 36.208 263.748 35.416 264.864 34.408C267.78 31.816 269.904 27.784 270.84 24.004ZM256.332 36.676C259.788 36.316 262.74 22.96 260.832 22.852C258.744 22.78 255.216 33.58 254.676 35.776C255.216 36.46 255.792 36.748 256.332 36.676ZM282.816 24.004C282.924 23.68 283.644 23.68 283.572 24.076C282.384 28.828 279.936 38.368 273.492 37.756C271.296 37.54 269.424 36.064 269.388 33.436C269.352 29.368 271.116 22.456 272.376 16.804C270.108 17.02 267.984 16.984 266.652 16.048C266.364 15.832 266.688 15.652 266.94 15.364C268.092 16.3 270.216 16.3 272.556 16.048L273.636 11.224C276.192 11.08 278.784 10.684 278.46 12.664C278.352 13.384 278.172 14.284 277.92 15.364C280.296 15.184 282.24 15.328 282.96 16.732C283.176 17.092 282.816 17.056 282.42 17.236C281.916 16.012 280.044 15.904 277.776 16.12C276.264 23.176 273.06 35.452 275.832 35.452C279.504 35.452 282.024 27.28 282.816 24.004ZM295.308 24.076C295.416 23.716 296.136 23.824 296.028 24.256C295.308 26.776 294.048 28.252 291.06 29.08C292.428 33.076 291.456 39.088 285.516 39.448C282.6 39.628 281.088 37.972 280.8 35.668C280.692 34.912 280.764 34.012 281.052 33.184C281.772 30.916 283.464 30.196 285.624 29.764C283.932 27.388 281.808 24.58 282.204 21.448C282.96 15.256 292.644 15.292 290.52 21.412C290.412 21.808 290.16 21.556 289.764 21.412C291.24 17.452 286.848 16.912 286.452 19.792C286.02 23.32 289.044 25.696 290.664 28.396C293.328 27.712 294.624 26.524 295.308 24.076ZM287.676 35.38C288 33.256 287.208 32.068 286.092 30.412C284.112 30.808 282.348 31.276 281.736 33.472C281.556 34.192 281.52 34.912 281.628 35.524C281.952 37.18 283.104 38.044 285.084 37.9C286.308 37.828 287.388 37.036 287.676 35.38ZM300.589 13.204C300.553 13.492 300.121 13.528 299.833 13.24L298.177 5.356C297.961 4.24 302.857 4.492 302.605 5.464L300.589 13.204Z" fill="url(#paint0_linear_12894_22862)"/>
<defs>
<linearGradient id="paint0_linear_12894_22862" x1="16.2711" y1="8.49997" x2="53.8678" y2="-71.0541" gradientUnits="userSpaceOnUse">
<stop offset="0.146982" stop-color="#F20790"/>
<stop offset="0.843674" stop-color="#007AFF"/>
</linearGradient>
</defs>
</svg>
