<svg width="325" height="165" viewBox="0 0 325 165" fill="none" xmlns="http://www.w3.org/2000/svg">
<g opacity="0.12">
<path fill-rule="evenodd" clip-rule="evenodd" d="M176.533 161.533V-15H0V161.533H176.533ZM19.0046 6.97472C20.1184 6.7289 21.5935 5.99067 21.9747 4.33882V-14.8161H0.183889V6.97472H19.0046ZM19.2734 7.15861H0.183889V29.0414H19.0046C20.1184 28.7956 21.5935 28.0573 21.9747 26.4055V9.98435C21.6122 8.1598 20.3304 7.40041 19.2734 7.15861ZM0.183889 29.2253H19.2734C20.3304 29.4671 21.6122 30.2265 21.9747 32.051V48.4722C21.5935 50.124 20.1184 50.8622 19.0046 51.1081H0.183889V29.2253ZM22.1586 48.1492C22.4101 49.2449 23.2002 50.7155 25.0412 51.1081H41.0712C42.185 50.8622 43.6601 50.124 44.0414 48.4722V32.051C43.6788 30.2265 42.3971 29.4671 41.3401 29.2253H24.9009C23.2017 29.6147 22.4215 31.1591 22.1586 32.2781V48.1492ZM24.9009 51.2919C23.2017 51.6813 22.4215 53.2257 22.1586 54.3447V70.2159C22.4101 71.3116 23.2002 72.7821 25.0412 73.1747H41.0712C42.185 72.9289 43.6601 72.1907 44.0414 70.5388V54.1177C43.6788 52.2931 42.3971 51.5337 41.3401 51.2919H24.9009ZM21.9747 54.1177C21.6122 52.2931 20.3304 51.5337 19.2734 51.2919H0.183889V73.1747H19.0046C20.1184 72.9289 21.5935 72.1907 21.9747 70.5388V54.1177ZM44.2253 54.3447V70.2159C44.4768 71.3116 45.2668 72.7821 47.1079 73.1747H63.1379C64.2517 72.9289 65.7268 72.1907 66.1081 70.5388V54.1177C65.7455 52.2931 64.4638 51.5337 63.4068 51.2919H46.9675C45.2684 51.6813 44.4882 53.2257 44.2253 54.3447ZM66.1081 48.4722C65.7268 50.124 64.2517 50.8622 63.1379 51.1081H47.1079C45.2668 50.7155 44.4768 49.2449 44.2253 48.1492V32.2781C44.4882 31.1591 45.2684 29.6147 46.9675 29.2253H63.4068C64.4638 29.4671 65.7455 30.2265 66.1081 32.051V48.4722ZM69.1745 51.1081C67.3335 50.7155 66.5435 49.2449 66.2919 48.1492V32.2781C66.5548 31.1591 67.335 29.6147 69.0342 29.2253H85.4734C86.5304 29.4671 87.8122 30.2265 88.1747 32.051V48.4722C87.7935 50.124 86.3184 50.8622 85.2046 51.1081H69.1745ZM66.2919 54.3447C66.5548 53.2257 67.335 51.6813 69.0342 51.2919H85.4734C86.5304 51.5337 87.8122 52.2931 88.1747 54.1177V70.5388C87.7935 72.1907 86.3184 72.9289 85.2046 73.1747H69.1745C67.3335 72.7821 66.5435 71.3116 66.2919 70.2159V54.3447ZM66.2919 76.4114C66.5548 75.2924 67.335 73.748 69.0342 73.3586H85.4734C86.5304 73.6004 87.8122 74.3598 88.1747 76.1843V92.6055C87.7935 94.2573 86.3184 94.9956 85.2046 95.2414H69.1745C67.3335 94.8488 66.5435 93.3783 66.2919 92.2825V76.4114ZM69.0342 95.4253C67.335 95.8147 66.5548 97.3591 66.2919 98.4781V114.349C66.5435 115.445 67.3335 116.915 69.1745 117.308H85.2046C86.3184 117.062 87.7935 116.324 88.1747 114.672V98.251C87.8122 96.4265 86.5304 95.6671 85.4734 95.4253H69.0342ZM66.1081 98.251C65.7455 96.4265 64.4638 95.6671 63.4068 95.4253H46.9675C45.2684 95.8147 44.4882 97.3591 44.2253 98.4781V114.349C44.4768 115.445 45.2668 116.915 47.1079 117.308H63.1379C64.2517 117.062 65.7268 116.324 66.1081 114.672V98.251ZM47.1079 95.2414H63.1379C64.2517 94.9956 65.7268 94.2573 66.1081 92.6055V76.1843C65.7455 74.3598 64.4638 73.6004 63.4068 73.3586H46.9675C45.2684 73.748 44.4882 75.2924 44.2253 76.4114V92.2825C44.4768 93.3783 45.2668 94.8488 47.1079 95.2414ZM85.2046 29.0414H69.1745C67.3335 28.6488 66.5435 27.1783 66.2919 26.0825V10.2114C66.5548 9.09241 67.335 7.54798 69.0342 7.15861H85.4734C86.5304 7.40041 87.8122 8.1598 88.1747 9.98435V26.4055C87.7935 28.0573 86.3184 28.7956 85.2046 29.0414ZM66.1081 9.98435V26.4055C65.7268 28.0573 64.2517 28.7956 63.1379 29.0414H47.1079C45.2668 28.6488 44.4768 27.1783 44.2253 26.0825V10.2114C44.4882 9.09241 45.2684 7.54798 46.9675 7.15861H63.4068C64.4638 7.40041 65.7455 8.1598 66.1081 9.98435ZM41.0712 29.0414C42.185 28.7956 43.6601 28.0573 44.0414 26.4055V9.98435C43.6788 8.1598 42.3971 7.40041 41.3401 7.15861H24.9009C23.2017 7.54798 22.4215 9.09241 22.1586 10.2114V26.0825C22.4101 27.1783 23.2002 28.6488 25.0412 29.0414H41.0712ZM63.1379 6.97472H47.1079C45.2668 6.58212 44.4768 5.11161 44.2253 4.01588V-14.8161H66.1081V4.33883C65.7268 5.99067 64.2517 6.7289 63.1379 6.97472ZM69.1745 6.97472C67.3335 6.58212 66.5435 5.11161 66.2919 4.01588V-14.8161H88.1747V4.33883C87.7935 5.99067 86.3184 6.7289 85.2046 6.97472H69.1745ZM44.0414 4.33882V-14.8161H22.1586V4.01588C22.4101 5.11162 23.2002 6.58212 25.0412 6.97472H41.0712C42.1851 6.7289 43.6601 5.99067 44.0414 4.33882ZM19.2734 73.3586H0.183889V95.2414H19.0046C20.1184 94.9956 21.5935 94.2573 21.9747 92.6055V76.1843C21.6122 74.3598 20.3304 73.6004 19.2734 73.3586ZM25.0412 95.2414C23.2002 94.8488 22.4101 93.3783 22.1586 92.2825V76.4114C22.4215 75.2924 23.2017 73.748 24.9009 73.3586H41.3401C42.3971 73.6004 43.6788 74.3598 44.0414 76.1843V92.6055C43.6601 94.2573 42.1851 94.9956 41.0712 95.2414H25.0412ZM22.1586 98.4781C22.4215 97.3591 23.2017 95.8147 24.9009 95.4253H41.3401C42.3971 95.6671 43.6788 96.4265 44.0414 98.251V114.672C43.6601 116.324 42.1851 117.062 41.0712 117.308H25.0412C23.2002 116.915 22.4101 115.445 22.1586 114.349V98.4781ZM19.2734 95.4253C20.3304 95.6671 21.6122 96.4265 21.9747 98.251V114.672C21.5935 116.324 20.1184 117.062 19.0046 117.308H0.183889V95.4253H19.2734ZM69.0342 117.492C67.335 117.881 66.5548 119.426 66.2919 120.545V136.416C66.5435 137.512 67.3335 138.982 69.1745 139.375H85.2046C86.3184 139.129 87.7935 138.391 88.1747 136.739V120.318C87.8122 118.493 86.5304 117.734 85.4734 117.492H69.0342ZM66.2919 142.611C66.5548 141.492 67.335 139.948 69.0342 139.559H85.4734C86.5304 139.8 87.8122 140.56 88.1747 142.384V161.349H66.2919V142.611ZM63.4068 139.559C64.4638 139.8 65.7455 140.56 66.1081 142.384V161.349H44.2253V142.611C44.4882 141.492 45.2684 139.948 46.9675 139.559H63.4068ZM63.1379 139.375H47.1079C45.2668 138.982 44.4768 137.512 44.2253 136.416V120.545C44.4882 119.426 45.2684 117.881 46.9675 117.492H63.4068C64.4638 117.734 65.7455 118.493 66.1081 120.318V136.739C65.7268 138.391 64.2517 139.129 63.1379 139.375ZM24.9009 117.492H41.3401C42.3971 117.734 43.6788 118.493 44.0414 120.318V136.739C43.6601 138.391 42.1851 139.129 41.0712 139.375H25.0412C23.2002 138.982 22.4101 137.512 22.1586 136.416V120.545C22.4215 119.426 23.2017 117.881 24.9009 117.492ZM24.9009 139.559C23.2017 139.948 22.4215 141.492 22.1586 142.611V161.349H44.0414V142.384C43.6788 140.56 42.3971 139.8 41.3401 139.559H24.9009ZM21.9747 142.384C21.6122 140.56 20.3304 139.8 19.2734 139.559H0.183889V161.349H21.9747V142.384ZM19.0046 139.375C20.1184 139.129 21.5935 138.391 21.9747 136.739V120.318C21.6122 118.493 20.3304 117.734 19.2734 117.492H0.183889V139.375H19.0046ZM88.3586 4.01588C88.6101 5.11161 89.4002 6.58212 91.2412 6.97472H107.271C108.385 6.7289 109.86 5.99067 110.241 4.33882V-14.8161H88.3586V4.01588ZM91.1009 7.15861H107.54C108.597 7.40041 109.879 8.1598 110.241 9.98434V26.4055C109.86 28.0573 108.385 28.7956 107.271 29.0414H91.2412C89.4002 28.6488 88.6101 27.1783 88.3586 26.0825V10.2114C88.6215 9.09241 89.4017 7.54798 91.1009 7.15861ZM107.54 29.2253H91.1009C89.4017 29.6147 88.6215 31.1591 88.3586 32.2781V48.1492C88.6101 49.2449 89.4002 50.7155 91.2412 51.1081H107.271C108.385 50.8622 109.86 50.124 110.241 48.4722V32.051C109.879 30.2265 108.597 29.4671 107.54 29.2253ZM91.1009 51.2919H107.54C108.597 51.5337 109.879 52.2931 110.241 54.1177V70.5388C109.86 72.1907 108.385 72.9289 107.271 73.1747H91.2412C89.4002 72.7821 88.6101 71.3116 88.3586 70.2159V54.3447C88.6215 53.2257 89.4017 51.6813 91.1009 51.2919ZM110.425 70.2159V54.3447C110.688 53.2257 111.468 51.6813 113.168 51.2919H129.607C130.664 51.5337 131.946 52.2931 132.308 54.1177V70.5388C131.927 72.1907 130.452 72.9289 129.338 73.1747H113.308C111.467 72.7821 110.677 71.3116 110.425 70.2159ZM129.338 51.1081H113.308C111.467 50.7155 110.677 49.2449 110.425 48.1492V32.2781C110.688 31.1591 111.468 29.6147 113.168 29.2253H129.607C130.664 29.4671 131.946 30.2265 132.308 32.051V48.4722C131.927 50.124 130.452 50.8622 129.338 51.1081ZM113.308 29.0414H129.338C130.452 28.7956 131.927 28.0573 132.308 26.4055V9.98434C131.946 8.1598 130.664 7.40041 129.607 7.15861H113.168C111.468 7.54798 110.688 9.09241 110.425 10.2114V26.0825C110.677 27.1783 111.467 28.6488 113.308 29.0414ZM129.338 6.97472H113.308C111.467 6.58212 110.677 5.11161 110.425 4.01588V-14.8161H132.308V4.33882C131.927 5.99067 130.452 6.7289 129.338 6.97472ZM91.1009 73.3586H107.54C108.597 73.6004 109.879 74.3598 110.241 76.1843V92.6055C109.86 94.2573 108.385 94.9956 107.271 95.2414H91.2412C89.4002 94.8488 88.6101 93.3783 88.3586 92.2825V76.4114C88.6215 75.2924 89.4017 73.748 91.1009 73.3586ZM107.54 95.4253H91.1009C89.4017 95.8147 88.6215 97.3591 88.3586 98.4781V114.349C88.6101 115.445 89.4002 116.915 91.2412 117.308H107.271C108.385 117.062 109.86 116.324 110.241 114.672V98.251C109.879 96.4265 108.597 95.6671 107.54 95.4253ZM110.425 98.4781V114.349C110.677 115.445 111.467 116.915 113.308 117.308H129.338C130.452 117.062 131.927 116.324 132.308 114.672V98.251C131.946 96.4265 130.664 95.6671 129.607 95.4253H113.168C111.468 95.8147 110.688 97.3591 110.425 98.4781ZM113.308 95.2414H129.338C130.452 94.9956 131.927 94.2573 132.308 92.6055V76.1843C131.946 74.3598 130.664 73.6004 129.607 73.3586H113.168C111.468 73.748 110.688 75.2924 110.425 76.4114V92.2825C110.677 93.3783 111.467 94.8488 113.308 95.2414ZM132.492 54.3447V70.2159C132.743 71.3116 133.533 72.7821 135.375 73.1747H151.405C152.518 72.9289 153.993 72.1907 154.375 70.5388V54.1177C154.012 52.2931 152.73 51.5337 151.673 51.2919H135.234C133.535 51.6813 132.755 53.2257 132.492 54.3447ZM154.375 48.4722C153.993 50.124 152.518 50.8622 151.405 51.1081H135.375C133.533 50.7155 132.743 49.2449 132.492 48.1492V32.2781C132.755 31.1591 133.535 29.6147 135.234 29.2253H151.673C152.73 29.4671 154.012 30.2265 154.375 32.051V48.4722ZM157.441 51.1081C155.6 50.7155 154.81 49.2449 154.559 48.1492V32.2781C154.822 31.1591 155.602 29.6147 157.301 29.2253H176.349V51.1081H157.441ZM154.559 54.3447C154.822 53.2257 155.602 51.6813 157.301 51.2919H176.349V73.1747H157.441C155.6 72.7821 154.81 71.3116 154.559 70.2159V54.3447ZM154.559 76.4114C154.822 75.2924 155.602 73.748 157.301 73.3586H176.349V95.2414H157.441C155.6 94.8488 154.81 93.3783 154.559 92.2825V76.4114ZM157.301 95.4253C155.602 95.8147 154.822 97.3591 154.559 98.4781V114.349C154.81 115.445 155.6 116.915 157.441 117.308H176.349V95.4253H157.301ZM154.375 98.251C154.012 96.4265 152.73 95.6671 151.673 95.4253H135.234C133.535 95.8147 132.755 97.3591 132.492 98.4781V114.349C132.743 115.445 133.533 116.915 135.375 117.308H151.405C152.518 117.062 153.993 116.324 154.375 114.672V98.251ZM135.375 95.2414H151.405C152.518 94.9956 153.993 94.2573 154.375 92.6055V76.1843C154.012 74.3598 152.73 73.6004 151.673 73.3586H135.234C133.535 73.748 132.755 75.2924 132.492 76.4114V92.2825C132.743 93.3783 133.533 94.8488 135.375 95.2414ZM176.349 29.0414H157.441C155.6 28.6488 154.81 27.1783 154.559 26.0825V10.2114C154.822 9.09241 155.602 7.54798 157.301 7.15861H176.349V29.0414ZM154.375 9.98434V26.4055C153.993 28.0573 152.518 28.7956 151.405 29.0414H135.375C133.533 28.6488 132.743 27.1783 132.492 26.0825V10.2114C132.755 9.09241 133.535 7.54798 135.234 7.15861H151.673C152.73 7.40041 154.012 8.1598 154.375 9.98434ZM157.441 6.97472H176.349V-14.8161H154.559V4.01588C154.81 5.11161 155.6 6.58212 157.441 6.97472ZM154.375 4.33882V-14.8161H132.492V4.01588C132.743 5.11161 133.533 6.58212 135.375 6.97472H151.405C152.518 6.7289 153.993 5.99067 154.375 4.33882ZM157.301 117.492C155.602 117.881 154.822 119.426 154.559 120.545V136.416C154.81 137.512 155.6 138.982 157.441 139.375H176.349V117.492H157.301ZM154.559 142.611C154.822 141.492 155.602 139.948 157.301 139.559H176.349V161.349H154.559V142.611ZM151.673 139.559C152.73 139.8 154.012 140.56 154.375 142.384V161.349H132.492V142.611C132.755 141.492 133.535 139.948 135.234 139.559H151.673ZM151.405 139.375H135.375C133.533 138.982 132.743 137.512 132.492 136.416V120.545C132.755 119.426 133.535 117.881 135.234 117.492H151.673C152.73 117.734 154.012 118.493 154.375 120.318V136.739C153.993 138.391 152.518 139.129 151.405 139.375ZM132.308 136.739V120.318C131.946 118.493 130.664 117.734 129.607 117.492H113.168C111.468 117.881 110.688 119.426 110.425 120.545V136.416C110.677 137.512 111.467 138.982 113.308 139.375H129.338C130.452 139.129 131.927 138.391 132.308 136.739ZM110.241 120.318V136.739C109.86 138.391 108.385 139.129 107.271 139.375H91.2412C89.4002 138.982 88.6101 137.512 88.3586 136.416V120.545C88.6215 119.426 89.4017 117.881 91.1009 117.492H107.54C108.597 117.734 109.879 118.493 110.241 120.318ZM91.1009 139.559H107.54C108.597 139.8 109.879 140.56 110.241 142.384V161.349H88.3586V142.611C88.6215 141.492 89.4017 139.948 91.1009 139.559ZM110.425 161.349V142.611C110.688 141.492 111.468 139.948 113.168 139.559H129.607C130.664 139.8 131.946 140.56 132.308 142.384V161.349H110.425Z" fill="url(#paint0_radial_15645_65409)"/>
<path fill-rule="evenodd" clip-rule="evenodd" d="M176.533 316V139.467H0V316H176.533ZM19.0046 161.441C20.1184 161.196 21.5935 160.457 21.9747 158.805V139.651H0.183889V161.441H19.0046ZM19.2734 161.625H0.183889V183.508H19.0046C20.1184 183.262 21.5935 182.524 21.9747 180.872V164.451C21.6122 162.626 20.3304 161.867 19.2734 161.625ZM0.183889 183.692H19.2734C20.3304 183.934 21.6122 184.693 21.9747 186.518V202.939C21.5935 204.591 20.1184 205.329 19.0046 205.575H0.183889V183.692ZM22.1586 202.616C22.4101 203.712 23.2002 205.182 25.0412 205.575H41.0712C42.185 205.329 43.6601 204.591 44.0414 202.939V186.518C43.6788 184.693 42.3971 183.934 41.3401 183.692H24.9009C23.2017 184.081 22.4215 185.626 22.1586 186.745V202.616ZM24.9009 205.759C23.2017 206.148 22.4215 207.692 22.1586 208.811V224.683C22.4101 225.778 23.2002 227.249 25.0412 227.641H41.0712C42.185 227.396 43.6601 226.657 44.0414 225.005V208.584C43.6788 206.76 42.3971 206 41.3401 205.759H24.9009ZM21.9747 208.584C21.6122 206.76 20.3304 206 19.2734 205.759H0.183889V227.641H19.0046C20.1184 227.396 21.5935 226.657 21.9747 225.005V208.584ZM44.2253 208.811V224.683C44.4768 225.778 45.2668 227.249 47.1079 227.641H63.1379C64.2517 227.396 65.7268 226.657 66.1081 225.005V208.584C65.7455 206.76 64.4638 206 63.4068 205.759H46.9675C45.2684 206.148 44.4882 207.692 44.2253 208.811ZM66.1081 202.939C65.7268 204.591 64.2517 205.329 63.1379 205.575H47.1079C45.2668 205.182 44.4768 203.712 44.2253 202.616V186.745C44.4882 185.626 45.2684 184.081 46.9675 183.692H63.4068C64.4638 183.934 65.7455 184.693 66.1081 186.518V202.939ZM69.1745 205.575C67.3335 205.182 66.5435 203.712 66.2919 202.616V186.745C66.5548 185.626 67.335 184.081 69.0342 183.692H85.4734C86.5304 183.934 87.8122 184.693 88.1747 186.518V202.939C87.7935 204.591 86.3184 205.329 85.2046 205.575H69.1745ZM66.2919 208.811C66.5548 207.692 67.335 206.148 69.0342 205.759H85.4734C86.5304 206 87.8122 206.76 88.1747 208.584V225.005C87.7935 226.657 86.3184 227.396 85.2046 227.641H69.1745C67.3335 227.249 66.5435 225.778 66.2919 224.683V208.811ZM66.2919 230.878C66.5548 229.759 67.335 228.215 69.0342 227.825H85.4734C86.5304 228.067 87.8122 228.826 88.1747 230.651V247.072C87.7935 248.724 86.3184 249.462 85.2046 249.708H69.1745C67.3335 249.315 66.5435 247.845 66.2919 246.749V230.878ZM69.0342 249.892C67.335 250.281 66.5548 251.826 66.2919 252.945V268.816C66.5435 269.912 67.3335 271.382 69.1745 271.775H85.2046C86.3184 271.529 87.7935 270.791 88.1747 269.139V252.718C87.8122 250.893 86.5304 250.134 85.4734 249.892H69.0342ZM66.1081 252.718C65.7455 250.893 64.4638 250.134 63.4068 249.892H46.9675C45.2684 250.281 44.4882 251.826 44.2253 252.945V268.816C44.4768 269.912 45.2668 271.382 47.1079 271.775H63.1379C64.2517 271.529 65.7268 270.791 66.1081 269.139V252.718ZM47.1079 249.708H63.1379C64.2517 249.462 65.7268 248.724 66.1081 247.072V230.651C65.7455 228.826 64.4638 228.067 63.4068 227.825H46.9675C45.2684 228.215 44.4882 229.759 44.2253 230.878V246.749C44.4768 247.845 45.2668 249.315 47.1079 249.708ZM85.2046 183.508H69.1745C67.3335 183.115 66.5435 181.645 66.2919 180.549V164.678C66.5548 163.559 67.335 162.015 69.0342 161.625H85.4734C86.5304 161.867 87.8122 162.626 88.1747 164.451V180.872C87.7935 182.524 86.3184 183.262 85.2046 183.508ZM66.1081 164.451V180.872C65.7268 182.524 64.2517 183.262 63.1379 183.508H47.1079C45.2668 183.115 44.4768 181.645 44.2253 180.549V164.678C44.4882 163.559 45.2684 162.015 46.9675 161.625H63.4068C64.4638 161.867 65.7455 162.626 66.1081 164.451ZM41.0712 183.508C42.185 183.262 43.6601 182.524 44.0414 180.872V164.451C43.6788 162.626 42.3971 161.867 41.3401 161.625H24.9009C23.2017 162.015 22.4215 163.559 22.1586 164.678V180.549C22.4101 181.645 23.2002 183.115 25.0412 183.508H41.0712ZM63.1379 161.441H47.1079C45.2668 161.049 44.4768 159.578 44.2253 158.483V139.651H66.1081V158.805C65.7268 160.457 64.2517 161.196 63.1379 161.441ZM69.1745 161.441C67.3335 161.049 66.5435 159.578 66.2919 158.483V139.651H88.1747V158.805C87.7935 160.457 86.3184 161.196 85.2046 161.441H69.1745ZM44.0414 158.805V139.651H22.1586V158.483C22.4101 159.578 23.2002 161.049 25.0412 161.441H41.0712C42.1851 161.196 43.6601 160.457 44.0414 158.805ZM19.2734 227.825H0.183889V249.708H19.0046C20.1184 249.462 21.5935 248.724 21.9747 247.072V230.651C21.6122 228.826 20.3304 228.067 19.2734 227.825ZM25.0412 249.708C23.2002 249.315 22.4101 247.845 22.1586 246.749V230.878C22.4215 229.759 23.2017 228.215 24.9009 227.825H41.3401C42.3971 228.067 43.6788 228.826 44.0414 230.651V247.072C43.6601 248.724 42.1851 249.462 41.0712 249.708H25.0412ZM22.1586 252.945C22.4215 251.826 23.2017 250.281 24.9009 249.892H41.3401C42.3971 250.134 43.6788 250.893 44.0414 252.718V269.139C43.6601 270.791 42.1851 271.529 41.0712 271.775H25.0412C23.2002 271.382 22.4101 269.912 22.1586 268.816V252.945ZM19.2734 249.892C20.3304 250.134 21.6122 250.893 21.9747 252.718V269.139C21.5935 270.791 20.1184 271.529 19.0046 271.775H0.183889V249.892H19.2734ZM69.0342 271.959C67.335 272.348 66.5548 273.892 66.2919 275.011V290.883C66.5435 291.978 67.3335 293.449 69.1745 293.841H85.2046C86.3184 293.596 87.7935 292.857 88.1747 291.205V274.784C87.8122 272.96 86.5304 272.2 85.4734 271.959H69.0342ZM66.2919 297.078C66.5548 295.959 67.335 294.415 69.0342 294.025H85.4734C86.5304 294.267 87.8122 295.026 88.1747 296.851V315.816H66.2919V297.078ZM63.4068 294.025C64.4638 294.267 65.7455 295.026 66.1081 296.851V315.816H44.2253V297.078C44.4882 295.959 45.2684 294.415 46.9675 294.025H63.4068ZM63.1379 293.841H47.1079C45.2668 293.449 44.4768 291.978 44.2253 290.883V275.011C44.4882 273.892 45.2684 272.348 46.9675 271.959H63.4068C64.4638 272.2 65.7455 272.96 66.1081 274.784V291.205C65.7268 292.857 64.2517 293.596 63.1379 293.841ZM24.9009 271.959H41.3401C42.3971 272.2 43.6788 272.96 44.0414 274.784V291.205C43.6601 292.857 42.1851 293.596 41.0712 293.841H25.0412C23.2002 293.449 22.4101 291.978 22.1586 290.883V275.011C22.4215 273.892 23.2017 272.348 24.9009 271.959ZM24.9009 294.025C23.2017 294.415 22.4215 295.959 22.1586 297.078V315.816H44.0414V296.851C43.6788 295.026 42.3971 294.267 41.3401 294.025H24.9009ZM21.9747 296.851C21.6122 295.026 20.3304 294.267 19.2734 294.025H0.183889V315.816H21.9747V296.851ZM19.0046 293.841C20.1184 293.596 21.5935 292.857 21.9747 291.205V274.784C21.6122 272.96 20.3304 272.2 19.2734 271.959H0.183889V293.841H19.0046ZM88.3586 158.483C88.6101 159.578 89.4002 161.049 91.2412 161.441H107.271C108.385 161.196 109.86 160.457 110.241 158.805V139.651H88.3586V158.483ZM91.1009 161.625H107.54C108.597 161.867 109.879 162.626 110.241 164.451V180.872C109.86 182.524 108.385 183.262 107.271 183.508H91.2412C89.4002 183.115 88.6101 181.645 88.3586 180.549V164.678C88.6215 163.559 89.4017 162.015 91.1009 161.625ZM107.54 183.692H91.1009C89.4017 184.081 88.6215 185.626 88.3586 186.745V202.616C88.6101 203.712 89.4002 205.182 91.2412 205.575H107.271C108.385 205.329 109.86 204.591 110.241 202.939V186.518C109.879 184.693 108.597 183.934 107.54 183.692ZM91.1009 205.759H107.54C108.597 206 109.879 206.76 110.241 208.584V225.005C109.86 226.657 108.385 227.396 107.271 227.641H91.2412C89.4002 227.249 88.6101 225.778 88.3586 224.683V208.811C88.6215 207.692 89.4017 206.148 91.1009 205.759ZM110.425 224.683V208.811C110.688 207.692 111.468 206.148 113.168 205.759H129.607C130.664 206 131.946 206.76 132.308 208.584V225.005C131.927 226.657 130.452 227.396 129.338 227.641H113.308C111.467 227.249 110.677 225.778 110.425 224.683ZM129.338 205.575H113.308C111.467 205.182 110.677 203.712 110.425 202.616V186.745C110.688 185.626 111.468 184.081 113.168 183.692H129.607C130.664 183.934 131.946 184.693 132.308 186.518V202.939C131.927 204.591 130.452 205.329 129.338 205.575ZM113.308 183.508H129.338C130.452 183.262 131.927 182.524 132.308 180.872V164.451C131.946 162.626 130.664 161.867 129.607 161.625H113.168C111.468 162.015 110.688 163.559 110.425 164.678V180.549C110.677 181.645 111.467 183.115 113.308 183.508ZM129.338 161.441H113.308C111.467 161.049 110.677 159.578 110.425 158.483V139.651H132.308V158.805C131.927 160.457 130.452 161.196 129.338 161.441ZM91.1009 227.825H107.54C108.597 228.067 109.879 228.826 110.241 230.651V247.072C109.86 248.724 108.385 249.462 107.271 249.708H91.2412C89.4002 249.315 88.6101 247.845 88.3586 246.749V230.878C88.6215 229.759 89.4017 228.215 91.1009 227.825ZM107.54 249.892H91.1009C89.4017 250.281 88.6215 251.826 88.3586 252.945V268.816C88.6101 269.912 89.4002 271.382 91.2412 271.775H107.271C108.385 271.529 109.86 270.791 110.241 269.139V252.718C109.879 250.893 108.597 250.134 107.54 249.892ZM110.425 252.945V268.816C110.677 269.912 111.467 271.382 113.308 271.775H129.338C130.452 271.529 131.927 270.791 132.308 269.139V252.718C131.946 250.893 130.664 250.134 129.607 249.892H113.168C111.468 250.281 110.688 251.826 110.425 252.945ZM113.308 249.708H129.338C130.452 249.462 131.927 248.724 132.308 247.072V230.651C131.946 228.826 130.664 228.067 129.607 227.825H113.168C111.468 228.215 110.688 229.759 110.425 230.878V246.749C110.677 247.845 111.467 249.315 113.308 249.708ZM132.492 208.811V224.683C132.743 225.778 133.533 227.249 135.375 227.641H151.405C152.518 227.396 153.993 226.657 154.375 225.005V208.584C154.012 206.76 152.73 206 151.673 205.759H135.234C133.535 206.148 132.755 207.692 132.492 208.811ZM154.375 202.939C153.993 204.591 152.518 205.329 151.405 205.575H135.375C133.533 205.182 132.743 203.712 132.492 202.616V186.745C132.755 185.626 133.535 184.081 135.234 183.692H151.673C152.73 183.934 154.012 184.693 154.375 186.518V202.939ZM157.441 205.575C155.6 205.182 154.81 203.712 154.559 202.616V186.745C154.822 185.626 155.602 184.081 157.301 183.692H176.349V205.575H157.441ZM154.559 208.811C154.822 207.692 155.602 206.148 157.301 205.759H176.349V227.641H157.441C155.6 227.249 154.81 225.778 154.559 224.683V208.811ZM154.559 230.878C154.822 229.759 155.602 228.215 157.301 227.825H176.349V249.708H157.441C155.6 249.315 154.81 247.845 154.559 246.749V230.878ZM157.301 249.892C155.602 250.281 154.822 251.826 154.559 252.945V268.816C154.81 269.912 155.6 271.382 157.441 271.775H176.349V249.892H157.301ZM154.375 252.718C154.012 250.893 152.73 250.134 151.673 249.892H135.234C133.535 250.281 132.755 251.826 132.492 252.945V268.816C132.743 269.912 133.533 271.382 135.375 271.775H151.405C152.518 271.529 153.993 270.791 154.375 269.139V252.718ZM135.375 249.708H151.405C152.518 249.462 153.993 248.724 154.375 247.072V230.651C154.012 228.826 152.73 228.067 151.673 227.825H135.234C133.535 228.215 132.755 229.759 132.492 230.878V246.749C132.743 247.845 133.533 249.315 135.375 249.708ZM176.349 183.508H157.441C155.6 183.115 154.81 181.645 154.559 180.549V164.678C154.822 163.559 155.602 162.015 157.301 161.625H176.349V183.508ZM154.375 164.451V180.872C153.993 182.524 152.518 183.262 151.405 183.508H135.375C133.533 183.115 132.743 181.645 132.492 180.549V164.678C132.755 163.559 133.535 162.015 135.234 161.625H151.673C152.73 161.867 154.012 162.626 154.375 164.451ZM157.441 161.441H176.349V139.651H154.559V158.483C154.81 159.578 155.6 161.049 157.441 161.441ZM154.375 158.805V139.651H132.492V158.483C132.743 159.578 133.533 161.049 135.375 161.441H151.405C152.518 161.196 153.993 160.457 154.375 158.805ZM157.301 271.959C155.602 272.348 154.822 273.892 154.559 275.011V290.883C154.81 291.978 155.6 293.449 157.441 293.841H176.349V271.959H157.301ZM154.559 297.078C154.822 295.959 155.602 294.415 157.301 294.025H176.349V315.816H154.559V297.078ZM151.673 294.025C152.73 294.267 154.012 295.026 154.375 296.851V315.816H132.492V297.078C132.755 295.959 133.535 294.415 135.234 294.025H151.673ZM151.405 293.841H135.375C133.533 293.449 132.743 291.978 132.492 290.883V275.011C132.755 273.892 133.535 272.348 135.234 271.959H151.673C152.73 272.2 154.012 272.96 154.375 274.784V291.205C153.993 292.857 152.518 293.596 151.405 293.841ZM132.308 291.205V274.784C131.946 272.96 130.664 272.2 129.607 271.959H113.168C111.468 272.348 110.688 273.892 110.425 275.011V290.883C110.677 291.978 111.467 293.449 113.308 293.841H129.338C130.452 293.596 131.927 292.857 132.308 291.205ZM110.241 274.784V291.205C109.86 292.857 108.385 293.596 107.271 293.841H91.2412C89.4002 293.449 88.6101 291.978 88.3586 290.883V275.011C88.6215 273.892 89.4017 272.348 91.1009 271.959H107.54C108.597 272.2 109.879 272.96 110.241 274.784ZM91.1009 294.025H107.54C108.597 294.267 109.879 295.026 110.241 296.851V315.816H88.3586V297.078C88.6215 295.959 89.4017 294.415 91.1009 294.025ZM110.425 315.816V297.078C110.688 295.959 111.468 294.415 113.168 294.025H129.607C130.664 294.267 131.946 295.026 132.308 296.851V315.816H110.425Z" fill="url(#paint1_radial_15645_65409)"/>
<path fill-rule="evenodd" clip-rule="evenodd" d="M331 161.533V-15H154.467V161.533H331ZM173.471 6.97472C174.585 6.7289 176.06 5.99067 176.441 4.33882V-14.8161H154.651V6.97472H173.471ZM173.74 7.15861H154.651V29.0414H173.471C174.585 28.7956 176.06 28.0573 176.441 26.4055V9.98435C176.079 8.1598 174.797 7.40041 173.74 7.15861ZM154.651 29.2253H173.74C174.797 29.4671 176.079 30.2265 176.441 32.051V48.4722C176.06 50.124 174.585 50.8622 173.471 51.1081H154.651V29.2253ZM176.625 48.1492C176.877 49.2449 177.667 50.7155 179.508 51.1081H195.538C196.652 50.8622 198.127 50.124 198.508 48.4722V32.051C198.145 30.2265 196.864 29.4671 195.807 29.2253H179.368C177.668 29.6147 176.888 31.1591 176.625 32.2781V48.1492ZM179.368 51.2919C177.668 51.6813 176.888 53.2257 176.625 54.3447V70.2159C176.877 71.3116 177.667 72.7821 179.508 73.1747H195.538C196.652 72.9289 198.127 72.1907 198.508 70.5388V54.1177C198.145 52.2931 196.864 51.5337 195.807 51.2919H179.368ZM176.441 54.1177C176.079 52.2931 174.797 51.5337 173.74 51.2919H154.651V73.1747H173.471C174.585 72.9289 176.06 72.1907 176.441 70.5388V54.1177ZM198.692 54.3447V70.2159C198.943 71.3116 199.734 72.7821 201.575 73.1747H217.605C218.718 72.9289 220.193 72.1907 220.575 70.5388V54.1177C220.212 52.2931 218.93 51.5337 217.873 51.2919H201.434C199.735 51.6813 198.955 53.2257 198.692 54.3447ZM220.575 48.4722C220.193 50.124 218.718 50.8622 217.605 51.1081H201.575C199.734 50.7155 198.943 49.2449 198.692 48.1492V32.2781C198.955 31.1591 199.735 29.6147 201.434 29.2253H217.873C218.93 29.4671 220.212 30.2265 220.575 32.051V48.4722ZM223.641 51.1081C221.8 50.7155 221.01 49.2449 220.759 48.1492V32.2781C221.022 31.1591 221.802 29.6147 223.501 29.2253H239.94C240.997 29.4671 242.279 30.2265 242.641 32.051V48.4722C242.26 50.124 240.785 50.8622 239.671 51.1081H223.641ZM220.759 54.3447C221.022 53.2257 221.802 51.6813 223.501 51.2919H239.94C240.997 51.5337 242.279 52.2931 242.641 54.1177V70.5388C242.26 72.1907 240.785 72.9289 239.671 73.1747H223.641C221.8 72.7821 221.01 71.3116 220.759 70.2159V54.3447ZM220.759 76.4114C221.022 75.2924 221.802 73.748 223.501 73.3586H239.94C240.997 73.6004 242.279 74.3598 242.641 76.1843V92.6055C242.26 94.2573 240.785 94.9956 239.671 95.2414H223.641C221.8 94.8488 221.01 93.3783 220.759 92.2825V76.4114ZM223.501 95.4253C221.802 95.8147 221.022 97.3591 220.759 98.4781V114.349C221.01 115.445 221.8 116.915 223.641 117.308H239.671C240.785 117.062 242.26 116.324 242.641 114.672V98.251C242.279 96.4265 240.997 95.6671 239.94 95.4253H223.501ZM220.575 98.251C220.212 96.4265 218.93 95.6671 217.873 95.4253H201.434C199.735 95.8147 198.955 97.3591 198.692 98.4781V114.349C198.943 115.445 199.734 116.915 201.575 117.308H217.605C218.718 117.062 220.193 116.324 220.575 114.672V98.251ZM201.575 95.2414H217.605C218.718 94.9956 220.193 94.2573 220.575 92.6055V76.1843C220.212 74.3598 218.93 73.6004 217.873 73.3586H201.434C199.735 73.748 198.955 75.2924 198.692 76.4114V92.2825C198.943 93.3783 199.734 94.8488 201.575 95.2414ZM239.671 29.0414H223.641C221.8 28.6488 221.01 27.1783 220.759 26.0825V10.2114C221.022 9.09241 221.802 7.54798 223.501 7.15861H239.94C240.997 7.40041 242.279 8.1598 242.641 9.98435V26.4055C242.26 28.0573 240.785 28.7956 239.671 29.0414ZM220.575 9.98435V26.4055C220.193 28.0573 218.718 28.7956 217.605 29.0414H201.575C199.734 28.6488 198.943 27.1783 198.692 26.0825V10.2114C198.955 9.09241 199.735 7.54798 201.434 7.15861H217.873C218.93 7.40041 220.212 8.1598 220.575 9.98435ZM195.538 29.0414C196.652 28.7956 198.127 28.0573 198.508 26.4055V9.98435C198.145 8.1598 196.864 7.40041 195.807 7.15861H179.368C177.668 7.54798 176.888 9.09241 176.625 10.2114V26.0825C176.877 27.1783 177.667 28.6488 179.508 29.0414H195.538ZM217.605 6.97472H201.575C199.734 6.58212 198.943 5.11161 198.692 4.01588V-14.8161H220.575V4.33883C220.193 5.99067 218.718 6.7289 217.605 6.97472ZM223.641 6.97472C221.8 6.58212 221.01 5.11161 220.759 4.01588V-14.8161H242.641V4.33883C242.26 5.99067 240.785 6.7289 239.671 6.97472H223.641ZM198.508 4.33882V-14.8161H176.625V4.01588C176.877 5.11162 177.667 6.58212 179.508 6.97472H195.538C196.652 6.7289 198.127 5.99067 198.508 4.33882ZM173.74 73.3586H154.651V95.2414H173.471C174.585 94.9956 176.06 94.2573 176.441 92.6055V76.1843C176.079 74.3598 174.797 73.6004 173.74 73.3586ZM179.508 95.2414C177.667 94.8488 176.877 93.3783 176.625 92.2825V76.4114C176.888 75.2924 177.668 73.748 179.368 73.3586H195.807C196.864 73.6004 198.145 74.3598 198.508 76.1843V92.6055C198.127 94.2573 196.652 94.9956 195.538 95.2414H179.508ZM176.625 98.4781C176.888 97.3591 177.668 95.8147 179.368 95.4253H195.807C196.864 95.6671 198.145 96.4265 198.508 98.251V114.672C198.127 116.324 196.652 117.062 195.538 117.308H179.508C177.667 116.915 176.877 115.445 176.625 114.349V98.4781ZM173.74 95.4253C174.797 95.6671 176.079 96.4265 176.441 98.251V114.672C176.06 116.324 174.585 117.062 173.471 117.308H154.651V95.4253H173.74ZM223.501 117.492C221.802 117.881 221.022 119.426 220.759 120.545V136.416C221.01 137.512 221.8 138.982 223.641 139.375H239.671C240.785 139.129 242.26 138.391 242.641 136.739V120.318C242.279 118.493 240.997 117.734 239.94 117.492H223.501ZM220.759 142.611C221.022 141.492 221.802 139.948 223.501 139.559H239.94C240.997 139.8 242.279 140.56 242.641 142.384V161.349H220.759V142.611ZM217.873 139.559C218.93 139.8 220.212 140.56 220.575 142.384V161.349H198.692V142.611C198.955 141.492 199.735 139.948 201.434 139.559H217.873ZM217.605 139.375H201.575C199.734 138.982 198.943 137.512 198.692 136.416V120.545C198.955 119.426 199.735 117.881 201.434 117.492H217.873C218.93 117.734 220.212 118.493 220.575 120.318V136.739C220.193 138.391 218.718 139.129 217.605 139.375ZM179.368 117.492H195.807C196.864 117.734 198.145 118.493 198.508 120.318V136.739C198.127 138.391 196.652 139.129 195.538 139.375H179.508C177.667 138.982 176.877 137.512 176.625 136.416V120.545C176.888 119.426 177.668 117.881 179.368 117.492ZM179.368 139.559C177.668 139.948 176.888 141.492 176.625 142.611V161.349H198.508V142.384C198.145 140.56 196.864 139.8 195.807 139.559H179.368ZM176.441 142.384C176.079 140.56 174.797 139.8 173.74 139.559H154.651V161.349H176.441V142.384ZM173.471 139.375C174.585 139.129 176.06 138.391 176.441 136.739V120.318C176.079 118.493 174.797 117.734 173.74 117.492H154.651V139.375H173.471ZM242.825 4.01588C243.077 5.11161 243.867 6.58212 245.708 6.97472H261.738C262.852 6.7289 264.327 5.99067 264.708 4.33882V-14.8161H242.825V4.01588ZM245.568 7.15861H262.007C263.064 7.40041 264.346 8.1598 264.708 9.98434V26.4055C264.327 28.0573 262.852 28.7956 261.738 29.0414H245.708C243.867 28.6488 243.077 27.1783 242.825 26.0825V10.2114C243.088 9.09241 243.868 7.54798 245.568 7.15861ZM262.007 29.2253H245.568C243.868 29.6147 243.088 31.1591 242.825 32.2781V48.1492C243.077 49.2449 243.867 50.7155 245.708 51.1081H261.738C262.852 50.8622 264.327 50.124 264.708 48.4722V32.051C264.346 30.2265 263.064 29.4671 262.007 29.2253ZM245.568 51.2919H262.007C263.064 51.5337 264.346 52.2931 264.708 54.1177V70.5388C264.327 72.1907 262.852 72.9289 261.738 73.1747H245.708C243.867 72.7821 243.077 71.3116 242.825 70.2159V54.3447C243.088 53.2257 243.868 51.6813 245.568 51.2919ZM264.892 70.2159V54.3447C265.155 53.2257 265.935 51.6813 267.634 51.2919H284.073C285.13 51.5337 286.412 52.2931 286.775 54.1177V70.5388C286.393 72.1907 284.918 72.9289 283.805 73.1747H267.775C265.934 72.7821 265.143 71.3116 264.892 70.2159ZM283.805 51.1081H267.775C265.934 50.7155 265.143 49.2449 264.892 48.1492V32.2781C265.155 31.1591 265.935 29.6147 267.634 29.2253H284.073C285.13 29.4671 286.412 30.2265 286.775 32.051V48.4722C286.393 50.124 284.918 50.8622 283.805 51.1081ZM267.775 29.0414H283.805C284.918 28.7956 286.393 28.0573 286.775 26.4055V9.98434C286.412 8.1598 285.13 7.40041 284.073 7.15861H267.634C265.935 7.54798 265.155 9.09241 264.892 10.2114V26.0825C265.143 27.1783 265.934 28.6488 267.775 29.0414ZM283.805 6.97472H267.775C265.934 6.58212 265.143 5.11161 264.892 4.01588V-14.8161H286.775V4.33882C286.393 5.99067 284.918 6.7289 283.805 6.97472ZM245.568 73.3586H262.007C263.064 73.6004 264.346 74.3598 264.708 76.1843V92.6055C264.327 94.2573 262.852 94.9956 261.738 95.2414H245.708C243.867 94.8488 243.077 93.3783 242.825 92.2825V76.4114C243.088 75.2924 243.868 73.748 245.568 73.3586ZM262.007 95.4253H245.568C243.868 95.8147 243.088 97.3591 242.825 98.4781V114.349C243.077 115.445 243.867 116.915 245.708 117.308H261.738C262.852 117.062 264.327 116.324 264.708 114.672V98.251C264.346 96.4265 263.064 95.6671 262.007 95.4253ZM264.892 98.4781V114.349C265.143 115.445 265.934 116.915 267.775 117.308H283.805C284.918 117.062 286.393 116.324 286.775 114.672V98.251C286.412 96.4265 285.13 95.6671 284.073 95.4253H267.634C265.935 95.8147 265.155 97.3591 264.892 98.4781ZM267.775 95.2414H283.805C284.918 94.9956 286.393 94.2573 286.775 92.6055V76.1843C286.412 74.3598 285.13 73.6004 284.073 73.3586H267.634C265.935 73.748 265.155 75.2924 264.892 76.4114V92.2825C265.143 93.3783 265.934 94.8488 267.775 95.2414ZM286.959 54.3447V70.2159C287.21 71.3116 288 72.7821 289.841 73.1747H305.871C306.985 72.9289 308.46 72.1907 308.841 70.5388V54.1177C308.479 52.2931 307.197 51.5337 306.14 51.2919H289.701C288.002 51.6813 287.222 53.2257 286.959 54.3447ZM308.841 48.4722C308.46 50.124 306.985 50.8622 305.871 51.1081H289.841C288 50.7155 287.21 49.2449 286.959 48.1492V32.2781C287.222 31.1591 288.002 29.6147 289.701 29.2253H306.14C307.197 29.4671 308.479 30.2265 308.841 32.051V48.4722ZM311.908 51.1081C310.067 50.7155 309.277 49.2449 309.025 48.1492V32.2781C309.288 31.1591 310.068 29.6147 311.768 29.2253H330.816V51.1081H311.908ZM309.025 54.3447C309.288 53.2257 310.068 51.6813 311.768 51.2919H330.816V73.1747H311.908C310.067 72.7821 309.277 71.3116 309.025 70.2159V54.3447ZM309.025 76.4114C309.288 75.2924 310.068 73.748 311.768 73.3586H330.816V95.2414H311.908C310.067 94.8488 309.277 93.3783 309.025 92.2825V76.4114ZM311.768 95.4253C310.068 95.8147 309.288 97.3591 309.025 98.4781V114.349C309.277 115.445 310.067 116.915 311.908 117.308H330.816V95.4253H311.768ZM308.841 98.251C308.479 96.4265 307.197 95.6671 306.14 95.4253H289.701C288.002 95.8147 287.222 97.3591 286.959 98.4781V114.349C287.21 115.445 288 116.915 289.841 117.308H305.871C306.985 117.062 308.46 116.324 308.841 114.672V98.251ZM289.841 95.2414H305.871C306.985 94.9956 308.46 94.2573 308.841 92.6055V76.1843C308.479 74.3598 307.197 73.6004 306.14 73.3586H289.701C288.002 73.748 287.222 75.2924 286.959 76.4114V92.2825C287.21 93.3783 288 94.8488 289.841 95.2414ZM330.816 29.0414H311.908C310.067 28.6488 309.277 27.1783 309.025 26.0825V10.2114C309.288 9.09241 310.068 7.54798 311.768 7.15861H330.816V29.0414ZM308.841 9.98434V26.4055C308.46 28.0573 306.985 28.7956 305.871 29.0414H289.841C288 28.6488 287.21 27.1783 286.959 26.0825V10.2114C287.222 9.09241 288.002 7.54798 289.701 7.15861H306.14C307.197 7.40041 308.479 8.1598 308.841 9.98434ZM311.908 6.97472H330.816V-14.8161H309.025V4.01588C309.277 5.11161 310.067 6.58212 311.908 6.97472ZM308.841 4.33882V-14.8161H286.959V4.01588C287.21 5.11161 288 6.58212 289.841 6.97472H305.871C306.985 6.7289 308.46 5.99067 308.841 4.33882ZM311.768 117.492C310.068 117.881 309.288 119.426 309.025 120.545V136.416C309.277 137.512 310.067 138.982 311.908 139.375H330.816V117.492H311.768ZM309.025 142.611C309.288 141.492 310.068 139.948 311.768 139.559H330.816V161.349H309.025V142.611ZM306.14 139.559C307.197 139.8 308.479 140.56 308.841 142.384V161.349H286.959V142.611C287.222 141.492 288.002 139.948 289.701 139.559H306.14ZM305.871 139.375H289.841C288 138.982 287.21 137.512 286.959 136.416V120.545C287.222 119.426 288.002 117.881 289.701 117.492H306.14C307.197 117.734 308.479 118.493 308.841 120.318V136.739C308.46 138.391 306.985 139.129 305.871 139.375ZM286.775 136.739V120.318C286.412 118.493 285.13 117.734 284.073 117.492H267.634C265.935 117.881 265.155 119.426 264.892 120.545V136.416C265.143 137.512 265.934 138.982 267.775 139.375H283.805C284.918 139.129 286.393 138.391 286.775 136.739ZM264.708 120.318V136.739C264.327 138.391 262.852 139.129 261.738 139.375H245.708C243.867 138.982 243.077 137.512 242.825 136.416V120.545C243.088 119.426 243.868 117.881 245.568 117.492H262.007C263.064 117.734 264.346 118.493 264.708 120.318ZM245.568 139.559H262.007C263.064 139.8 264.346 140.56 264.708 142.384V161.349H242.825V142.611C243.088 141.492 243.868 139.948 245.568 139.559ZM264.892 161.349V142.611C265.155 141.492 265.935 139.948 267.634 139.559H284.073C285.13 139.8 286.412 140.56 286.775 142.384V161.349H264.892Z" fill="url(#paint2_radial_15645_65409)"/>
<path fill-rule="evenodd" clip-rule="evenodd" d="M331 316V139.467H154.467V316H331ZM173.471 161.441C174.585 161.196 176.06 160.457 176.441 158.805V139.651H154.651V161.441H173.471ZM173.74 161.625H154.651V183.508H173.471C174.585 183.262 176.06 182.524 176.441 180.872V164.451C176.079 162.626 174.797 161.867 173.74 161.625ZM154.651 183.692H173.74C174.797 183.934 176.079 184.693 176.441 186.518V202.939C176.06 204.591 174.585 205.329 173.471 205.575H154.651V183.692ZM176.625 202.616C176.877 203.712 177.667 205.182 179.508 205.575H195.538C196.652 205.329 198.127 204.591 198.508 202.939V186.518C198.145 184.693 196.864 183.934 195.807 183.692H179.368C177.668 184.081 176.888 185.626 176.625 186.745V202.616ZM179.368 205.759C177.668 206.148 176.888 207.692 176.625 208.811V224.683C176.877 225.778 177.667 227.249 179.508 227.641H195.538C196.652 227.396 198.127 226.657 198.508 225.005V208.584C198.145 206.76 196.864 206 195.807 205.759H179.368ZM176.441 208.584C176.079 206.76 174.797 206 173.74 205.759H154.651V227.641H173.471C174.585 227.396 176.06 226.657 176.441 225.005V208.584ZM198.692 208.811V224.683C198.943 225.778 199.734 227.249 201.575 227.641H217.605C218.718 227.396 220.193 226.657 220.575 225.005V208.584C220.212 206.76 218.93 206 217.873 205.759H201.434C199.735 206.148 198.955 207.692 198.692 208.811ZM220.575 202.939C220.193 204.591 218.718 205.329 217.605 205.575H201.575C199.734 205.182 198.943 203.712 198.692 202.616V186.745C198.955 185.626 199.735 184.081 201.434 183.692H217.873C218.93 183.934 220.212 184.693 220.575 186.518V202.939ZM223.641 205.575C221.8 205.182 221.01 203.712 220.759 202.616V186.745C221.022 185.626 221.802 184.081 223.501 183.692H239.94C240.997 183.934 242.279 184.693 242.641 186.518V202.939C242.26 204.591 240.785 205.329 239.671 205.575H223.641ZM220.759 208.811C221.022 207.692 221.802 206.148 223.501 205.759H239.94C240.997 206 242.279 206.76 242.641 208.584V225.005C242.26 226.657 240.785 227.396 239.671 227.641H223.641C221.8 227.249 221.01 225.778 220.759 224.683V208.811ZM220.759 230.878C221.022 229.759 221.802 228.215 223.501 227.825H239.94C240.997 228.067 242.279 228.826 242.641 230.651V247.072C242.26 248.724 240.785 249.462 239.671 249.708H223.641C221.8 249.315 221.01 247.845 220.759 246.749V230.878ZM223.501 249.892C221.802 250.281 221.022 251.826 220.759 252.945V268.816C221.01 269.912 221.8 271.382 223.641 271.775H239.671C240.785 271.529 242.26 270.791 242.641 269.139V252.718C242.279 250.893 240.997 250.134 239.94 249.892H223.501ZM220.575 252.718C220.212 250.893 218.93 250.134 217.873 249.892H201.434C199.735 250.281 198.955 251.826 198.692 252.945V268.816C198.943 269.912 199.734 271.382 201.575 271.775H217.605C218.718 271.529 220.193 270.791 220.575 269.139V252.718ZM201.575 249.708H217.605C218.718 249.462 220.193 248.724 220.575 247.072V230.651C220.212 228.826 218.93 228.067 217.873 227.825H201.434C199.735 228.215 198.955 229.759 198.692 230.878V246.749C198.943 247.845 199.734 249.315 201.575 249.708ZM239.671 183.508H223.641C221.8 183.115 221.01 181.645 220.759 180.549V164.678C221.022 163.559 221.802 162.015 223.501 161.625H239.94C240.997 161.867 242.279 162.626 242.641 164.451V180.872C242.26 182.524 240.785 183.262 239.671 183.508ZM220.575 164.451V180.872C220.193 182.524 218.718 183.262 217.605 183.508H201.575C199.734 183.115 198.943 181.645 198.692 180.549V164.678C198.955 163.559 199.735 162.015 201.434 161.625H217.873C218.93 161.867 220.212 162.626 220.575 164.451ZM195.538 183.508C196.652 183.262 198.127 182.524 198.508 180.872V164.451C198.145 162.626 196.864 161.867 195.807 161.625H179.368C177.668 162.015 176.888 163.559 176.625 164.678V180.549C176.877 181.645 177.667 183.115 179.508 183.508H195.538ZM217.605 161.441H201.575C199.734 161.049 198.943 159.578 198.692 158.483V139.651H220.575V158.805C220.193 160.457 218.718 161.196 217.605 161.441ZM223.641 161.441C221.8 161.049 221.01 159.578 220.759 158.483V139.651H242.641V158.805C242.26 160.457 240.785 161.196 239.671 161.441H223.641ZM198.508 158.805V139.651H176.625V158.483C176.877 159.578 177.667 161.049 179.508 161.441H195.538C196.652 161.196 198.127 160.457 198.508 158.805ZM173.74 227.825H154.651V249.708H173.471C174.585 249.462 176.06 248.724 176.441 247.072V230.651C176.079 228.826 174.797 228.067 173.74 227.825ZM179.508 249.708C177.667 249.315 176.877 247.845 176.625 246.749V230.878C176.888 229.759 177.668 228.215 179.368 227.825H195.807C196.864 228.067 198.145 228.826 198.508 230.651V247.072C198.127 248.724 196.652 249.462 195.538 249.708H179.508ZM176.625 252.945C176.888 251.826 177.668 250.281 179.368 249.892H195.807C196.864 250.134 198.145 250.893 198.508 252.718V269.139C198.127 270.791 196.652 271.529 195.538 271.775H179.508C177.667 271.382 176.877 269.912 176.625 268.816V252.945ZM173.74 249.892C174.797 250.134 176.079 250.893 176.441 252.718V269.139C176.06 270.791 174.585 271.529 173.471 271.775H154.651V249.892H173.74ZM223.501 271.959C221.802 272.348 221.022 273.892 220.759 275.011V290.883C221.01 291.978 221.8 293.449 223.641 293.841H239.671C240.785 293.596 242.26 292.857 242.641 291.205V274.784C242.279 272.96 240.997 272.2 239.94 271.959H223.501ZM220.759 297.078C221.022 295.959 221.802 294.415 223.501 294.025H239.94C240.997 294.267 242.279 295.026 242.641 296.851V315.816H220.759V297.078ZM217.873 294.025C218.93 294.267 220.212 295.026 220.575 296.851V315.816H198.692V297.078C198.955 295.959 199.735 294.415 201.434 294.025H217.873ZM217.605 293.841H201.575C199.734 293.449 198.943 291.978 198.692 290.883V275.011C198.955 273.892 199.735 272.348 201.434 271.959H217.873C218.93 272.2 220.212 272.96 220.575 274.784V291.205C220.193 292.857 218.718 293.596 217.605 293.841ZM179.368 271.959H195.807C196.864 272.2 198.145 272.96 198.508 274.784V291.205C198.127 292.857 196.652 293.596 195.538 293.841H179.508C177.667 293.449 176.877 291.978 176.625 290.883V275.011C176.888 273.892 177.668 272.348 179.368 271.959ZM179.368 294.025C177.668 294.415 176.888 295.959 176.625 297.078V315.816H198.508V296.851C198.145 295.026 196.864 294.267 195.807 294.025H179.368ZM176.441 296.851C176.079 295.026 174.797 294.267 173.74 294.025H154.651V315.816H176.441V296.851ZM173.471 293.841C174.585 293.596 176.06 292.857 176.441 291.205V274.784C176.079 272.96 174.797 272.2 173.74 271.959H154.651V293.841H173.471ZM242.825 158.483C243.077 159.578 243.867 161.049 245.708 161.441H261.738C262.852 161.196 264.327 160.457 264.708 158.805V139.651H242.825V158.483ZM245.568 161.625H262.007C263.064 161.867 264.346 162.626 264.708 164.451V180.872C264.327 182.524 262.852 183.262 261.738 183.508H245.708C243.867 183.115 243.077 181.645 242.825 180.549V164.678C243.088 163.559 243.868 162.015 245.568 161.625ZM262.007 183.692H245.568C243.868 184.081 243.088 185.626 242.825 186.745V202.616C243.077 203.712 243.867 205.182 245.708 205.575H261.738C262.852 205.329 264.327 204.591 264.708 202.939V186.518C264.346 184.693 263.064 183.934 262.007 183.692ZM245.568 205.759H262.007C263.064 206 264.346 206.76 264.708 208.584V225.005C264.327 226.657 262.852 227.396 261.738 227.641H245.708C243.867 227.249 243.077 225.778 242.825 224.683V208.811C243.088 207.692 243.868 206.148 245.568 205.759ZM264.892 224.683V208.811C265.155 207.692 265.935 206.148 267.634 205.759H284.073C285.13 206 286.412 206.76 286.775 208.584V225.005C286.393 226.657 284.918 227.396 283.805 227.641H267.775C265.934 227.249 265.143 225.778 264.892 224.683ZM283.805 205.575H267.775C265.934 205.182 265.143 203.712 264.892 202.616V186.745C265.155 185.626 265.935 184.081 267.634 183.692H284.073C285.13 183.934 286.412 184.693 286.775 186.518V202.939C286.393 204.591 284.918 205.329 283.805 205.575ZM267.775 183.508H283.805C284.918 183.262 286.393 182.524 286.775 180.872V164.451C286.412 162.626 285.13 161.867 284.073 161.625H267.634C265.935 162.015 265.155 163.559 264.892 164.678V180.549C265.143 181.645 265.934 183.115 267.775 183.508ZM283.805 161.441H267.775C265.934 161.049 265.143 159.578 264.892 158.483V139.651H286.775V158.805C286.393 160.457 284.918 161.196 283.805 161.441ZM245.568 227.825H262.007C263.064 228.067 264.346 228.826 264.708 230.651V247.072C264.327 248.724 262.852 249.462 261.738 249.708H245.708C243.867 249.315 243.077 247.845 242.825 246.749V230.878C243.088 229.759 243.868 228.215 245.568 227.825ZM262.007 249.892H245.568C243.868 250.281 243.088 251.826 242.825 252.945V268.816C243.077 269.912 243.867 271.382 245.708 271.775H261.738C262.852 271.529 264.327 270.791 264.708 269.139V252.718C264.346 250.893 263.064 250.134 262.007 249.892ZM264.892 252.945V268.816C265.143 269.912 265.934 271.382 267.775 271.775H283.805C284.918 271.529 286.393 270.791 286.775 269.139V252.718C286.412 250.893 285.13 250.134 284.073 249.892H267.634C265.935 250.281 265.155 251.826 264.892 252.945ZM267.775 249.708H283.805C284.918 249.462 286.393 248.724 286.775 247.072V230.651C286.412 228.826 285.13 228.067 284.073 227.825H267.634C265.935 228.215 265.155 229.759 264.892 230.878V246.749C265.143 247.845 265.934 249.315 267.775 249.708ZM286.959 208.811V224.683C287.21 225.778 288 227.249 289.841 227.641H305.871C306.985 227.396 308.46 226.657 308.841 225.005V208.584C308.479 206.76 307.197 206 306.14 205.759H289.701C288.002 206.148 287.222 207.692 286.959 208.811ZM308.841 202.939C308.46 204.591 306.985 205.329 305.871 205.575H289.841C288 205.182 287.21 203.712 286.959 202.616V186.745C287.222 185.626 288.002 184.081 289.701 183.692H306.14C307.197 183.934 308.479 184.693 308.841 186.518V202.939ZM311.908 205.575C310.067 205.182 309.277 203.712 309.025 202.616V186.745C309.288 185.626 310.068 184.081 311.768 183.692H330.816V205.575H311.908ZM309.025 208.811C309.288 207.692 310.068 206.148 311.768 205.759H330.816V227.641H311.908C310.067 227.249 309.277 225.778 309.025 224.683V208.811ZM309.025 230.878C309.288 229.759 310.068 228.215 311.768 227.825H330.816V249.708H311.908C310.067 249.315 309.277 247.845 309.025 246.749V230.878ZM311.768 249.892C310.068 250.281 309.288 251.826 309.025 252.945V268.816C309.277 269.912 310.067 271.382 311.908 271.775H330.816V249.892H311.768ZM308.841 252.718C308.479 250.893 307.197 250.134 306.14 249.892H289.701C288.002 250.281 287.222 251.826 286.959 252.945V268.816C287.21 269.912 288 271.382 289.841 271.775H305.871C306.985 271.529 308.46 270.791 308.841 269.139V252.718ZM289.841 249.708H305.871C306.985 249.462 308.46 248.724 308.841 247.072V230.651C308.479 228.826 307.197 228.067 306.14 227.825H289.701C288.002 228.215 287.222 229.759 286.959 230.878V246.749C287.21 247.845 288 249.315 289.841 249.708ZM330.816 183.508H311.908C310.067 183.115 309.277 181.645 309.025 180.549V164.678C309.288 163.559 310.068 162.015 311.768 161.625H330.816V183.508ZM308.841 164.451V180.872C308.46 182.524 306.985 183.262 305.871 183.508H289.841C288 183.115 287.21 181.645 286.959 180.549V164.678C287.222 163.559 288.002 162.015 289.701 161.625H306.14C307.197 161.867 308.479 162.626 308.841 164.451ZM311.908 161.441H330.816V139.651H309.025V158.483C309.277 159.578 310.067 161.049 311.908 161.441ZM308.841 158.805V139.651H286.959V158.483C287.21 159.578 288 161.049 289.841 161.441H305.871C306.985 161.196 308.46 160.457 308.841 158.805ZM311.768 271.959C310.068 272.348 309.288 273.892 309.025 275.011V290.883C309.277 291.978 310.067 293.449 311.908 293.841H330.816V271.959H311.768ZM309.025 297.078C309.288 295.959 310.068 294.415 311.768 294.025H330.816V315.816H309.025V297.078ZM306.14 294.025C307.197 294.267 308.479 295.026 308.841 296.851V315.816H286.959V297.078C287.222 295.959 288.002 294.415 289.701 294.025H306.14ZM305.871 293.841H289.841C288 293.449 287.21 291.978 286.959 290.883V275.011C287.222 273.892 288.002 272.348 289.701 271.959H306.14C307.197 272.2 308.479 272.96 308.841 274.784V291.205C308.46 292.857 306.985 293.596 305.871 293.841ZM286.775 291.205V274.784C286.412 272.96 285.13 272.2 284.073 271.959H267.634C265.935 272.348 265.155 273.892 264.892 275.011V290.883C265.143 291.978 265.934 293.449 267.775 293.841H283.805C284.918 293.596 286.393 292.857 286.775 291.205ZM264.708 274.784V291.205C264.327 292.857 262.852 293.596 261.738 293.841H245.708C243.867 293.449 243.077 291.978 242.825 290.883V275.011C243.088 273.892 243.868 272.348 245.568 271.959H262.007C263.064 272.2 264.346 272.96 264.708 274.784ZM245.568 294.025H262.007C263.064 294.267 264.346 295.026 264.708 296.851V315.816H242.825V297.078C243.088 295.959 243.868 294.415 245.568 294.025ZM264.892 315.816V297.078C265.155 295.959 265.935 294.415 267.634 294.025H284.073C285.13 294.267 286.412 295.026 286.775 296.851V315.816H264.892Z" fill="url(#paint3_radial_15645_65409)"/>
</g>
<defs>
<radialGradient id="paint0_radial_15645_65409" cx="0" cy="0" r="1" gradientUnits="userSpaceOnUse" gradientTransform="translate(285 0.499996) rotate(111.398) scale(171.308)">
<stop offset="0.228989" stop-color="#191919"/>
<stop offset="1" stop-color="white" stop-opacity="0"/>
</radialGradient>
<radialGradient id="paint1_radial_15645_65409" cx="0" cy="0" r="1" gradientUnits="userSpaceOnUse" gradientTransform="translate(285 0.499996) rotate(111.398) scale(171.308)">
<stop offset="0.228989" stop-color="#191919"/>
<stop offset="1" stop-color="white" stop-opacity="0"/>
</radialGradient>
<radialGradient id="paint2_radial_15645_65409" cx="0" cy="0" r="1" gradientUnits="userSpaceOnUse" gradientTransform="translate(285 0.499996) rotate(111.398) scale(171.308)">
<stop offset="0.228989" stop-color="#191919"/>
<stop offset="1" stop-color="white" stop-opacity="0"/>
</radialGradient>
<radialGradient id="paint3_radial_15645_65409" cx="0" cy="0" r="1" gradientUnits="userSpaceOnUse" gradientTransform="translate(285 0.499996) rotate(111.398) scale(171.308)">
<stop offset="0.228989" stop-color="#191919"/>
<stop offset="1" stop-color="white" stop-opacity="0"/>
</radialGradient>
</defs>
</svg>
