<svg width="221" height="23" viewBox="0 0 221 23" fill="none" xmlns="http://www.w3.org/2000/svg">
<path d="M10.4337 22.196C8.62302 22.196 6.97102 21.776 5.47769 20.936C3.98435 20.0773 2.79902 18.892 1.92169 17.38C1.06302 15.8493 0.633688 14.132 0.633688 12.228C0.633688 10.324 1.06302 8.616 1.92169 7.104C2.79902 5.57333 3.98435 4.388 5.47769 3.548C6.97102 2.68933 8.62302 2.26 10.4337 2.26C12.263 2.26 13.9244 2.68933 15.4177 3.548C16.911 4.388 18.087 5.564 18.9457 7.076C19.8044 8.588 20.2337 10.3053 20.2337 12.228C20.2337 14.1507 19.8044 15.868 18.9457 17.38C18.087 18.892 16.911 20.0773 15.4177 20.936C13.9244 21.776 12.263 22.196 10.4337 22.196ZM10.4337 19.984C11.7964 19.984 13.019 19.6667 14.1017 19.032C15.203 18.3973 16.0617 17.492 16.6777 16.316C17.3124 15.14 17.6297 13.7773 17.6297 12.228C17.6297 10.66 17.3124 9.29733 16.6777 8.14C16.0617 6.964 15.2124 6.05867 14.1297 5.424C13.047 4.78933 11.815 4.472 10.4337 4.472C9.05235 4.472 7.82035 4.78933 6.73769 5.424C5.65502 6.05867 4.79635 6.964 4.16169 8.14C3.54569 9.29733 3.23769 10.66 3.23769 12.228C3.23769 13.7773 3.54569 15.14 4.16169 16.316C4.79635 17.492 5.65502 18.3973 6.73769 19.032C7.83902 19.6667 9.07102 19.984 10.4337 19.984ZM29.3094 19.648L34.0694 6.656H36.7854L30.7654 22H27.7974L21.7774 6.656H24.5214L29.3094 19.648ZM53.2927 13.74C53.2927 14.2253 53.2647 14.7387 53.2087 15.28H40.9447C41.0381 16.792 41.5514 17.9773 42.4847 18.836C43.4367 19.676 44.5847 20.096 45.9287 20.096C47.0301 20.096 47.9447 19.844 48.6727 19.34C49.4194 18.8173 49.9421 18.1267 50.2407 17.268H52.9847C52.5741 18.7427 51.7527 19.9467 50.5207 20.88C49.2887 21.7947 47.7581 22.252 45.9287 22.252C44.4727 22.252 43.1661 21.9253 42.0087 21.272C40.8701 20.6187 39.9741 19.6947 39.3207 18.5C38.6674 17.2867 38.3407 15.8867 38.3407 14.3C38.3407 12.7133 38.6581 11.3227 39.2927 10.128C39.9274 8.93333 40.8141 8.01867 41.9527 7.384C43.1101 6.73067 44.4354 6.404 45.9287 6.404C47.3847 6.404 48.6727 6.72133 49.7927 7.356C50.9127 7.99067 51.7714 8.868 52.3687 9.988C52.9847 11.0893 53.2927 12.34 53.2927 13.74ZM50.6607 13.208C50.6607 12.2373 50.4461 11.4067 50.0167 10.716C49.5874 10.0067 48.9994 9.47467 48.2527 9.12C47.5247 8.74667 46.7127 8.56 45.8167 8.56C44.5287 8.56 43.4274 8.97067 42.5127 9.792C41.6167 10.6133 41.1034 11.752 40.9727 13.208H50.6607ZM59.204 9.148C59.652 8.27067 60.2867 7.58933 61.108 7.104C61.948 6.61867 62.9653 6.376 64.16 6.376V9.008H63.488C60.632 9.008 59.204 10.5573 59.204 13.656V22H56.656V6.656H59.204V9.148ZM70.2093 8.756V17.8C70.2093 18.5467 70.368 19.0787 70.6853 19.396C71.0026 19.6947 71.5533 19.844 72.3373 19.844H74.2133V22H71.9173C70.4986 22 69.4346 21.6733 68.7253 21.02C68.016 20.3667 67.6613 19.2933 67.6613 17.8V8.756H65.6733V6.656H67.6613V2.792H70.2093V6.656H74.2133V8.756H70.2093ZM78.6165 4.164C78.1312 4.164 77.7205 3.996 77.3845 3.66C77.0485 3.324 76.8805 2.91333 76.8805 2.428C76.8805 1.94267 77.0485 1.532 77.3845 1.196C77.7205 0.859999 78.1312 0.691999 78.6165 0.691999C79.0832 0.691999 79.4752 0.859999 79.7925 1.196C80.1285 1.532 80.2965 1.94267 80.2965 2.428C80.2965 2.91333 80.1285 3.324 79.7925 3.66C79.4752 3.996 79.0832 4.164 78.6165 4.164ZM79.8485 6.656V22H77.3005V6.656H79.8485ZM102.643 6.376C103.838 6.376 104.902 6.628 105.835 7.132C106.768 7.61733 107.506 8.35467 108.047 9.344C108.588 10.3333 108.859 11.5373 108.859 12.956V22H106.339V13.32C106.339 11.7893 105.956 10.6227 105.191 9.82C104.444 8.99867 103.427 8.588 102.139 8.588C100.814 8.588 99.7592 9.01733 98.9752 9.876C98.1912 10.716 97.7992 11.9387 97.7992 13.544V22H95.2792V13.32C95.2792 11.7893 94.8965 10.6227 94.1312 9.82C93.3845 8.99867 92.3672 8.588 91.0792 8.588C89.7538 8.588 88.6992 9.01733 87.9152 9.876C87.1312 10.716 86.7392 11.9387 86.7392 13.544V22H84.1912V6.656H86.7392V8.868C87.2432 8.06533 87.9152 7.44933 88.7552 7.02C89.6138 6.59067 90.5565 6.376 91.5832 6.376C92.8712 6.376 94.0098 6.66533 94.9992 7.244C95.9885 7.82267 96.7258 8.672 97.2112 9.792C97.6405 8.70933 98.3498 7.86933 99.3392 7.272C100.328 6.67467 101.43 6.376 102.643 6.376ZM127.039 13.74C127.039 14.2253 127.011 14.7387 126.955 15.28H114.691C114.784 16.792 115.297 17.9773 116.231 18.836C117.183 19.676 118.331 20.096 119.675 20.096C120.776 20.096 121.691 19.844 122.419 19.34C123.165 18.8173 123.688 18.1267 123.987 17.268H126.731C126.32 18.7427 125.499 19.9467 124.267 20.88C123.035 21.7947 121.504 22.252 119.675 22.252C118.219 22.252 116.912 21.9253 115.755 21.272C114.616 20.6187 113.72 19.6947 113.067 18.5C112.413 17.2867 112.087 15.8867 112.087 14.3C112.087 12.7133 112.404 11.3227 113.039 10.128C113.673 8.93333 114.56 8.01867 115.699 7.384C116.856 6.73067 118.181 6.404 119.675 6.404C121.131 6.404 122.419 6.72133 123.539 7.356C124.659 7.99067 125.517 8.868 126.115 9.988C126.731 11.0893 127.039 12.34 127.039 13.74ZM124.407 13.208C124.407 12.2373 124.192 11.4067 123.763 10.716C123.333 10.0067 122.745 9.47467 121.999 9.12C121.271 8.74667 120.459 8.56 119.563 8.56C118.275 8.56 117.173 8.97067 116.259 9.792C115.363 10.6133 114.849 11.752 114.719 13.208H124.407ZM149.403 17.66H140.891L139.323 22H136.635L143.691 2.596H146.631L153.659 22H150.971L149.403 17.66ZM148.675 15.588L145.147 5.732L141.619 15.588H148.675ZM159.282 9.148C159.73 8.27067 160.365 7.58933 161.186 7.104C162.026 6.61867 163.043 6.376 164.238 6.376V9.008H163.566C160.71 9.008 159.282 10.5573 159.282 13.656V22H156.734V6.656H159.282V9.148ZM170.287 8.756V17.8C170.287 18.5467 170.446 19.0787 170.763 19.396C171.081 19.6947 171.631 19.844 172.415 19.844H174.291V22H171.995C170.577 22 169.513 21.6733 168.803 21.02C168.094 20.3667 167.739 19.2933 167.739 17.8V8.756H165.751V6.656H167.739V2.792H170.287V6.656H174.291V8.756H170.287ZM178.695 4.164C178.209 4.164 177.799 3.996 177.463 3.66C177.127 3.324 176.959 2.91333 176.959 2.428C176.959 1.94267 177.127 1.532 177.463 1.196C177.799 0.859999 178.209 0.691999 178.695 0.691999C179.161 0.691999 179.553 0.859999 179.871 1.196C180.207 1.532 180.375 1.94267 180.375 2.428C180.375 2.91333 180.207 3.324 179.871 3.66C179.553 3.996 179.161 4.164 178.695 4.164ZM179.927 6.656V22H177.379V6.656H179.927ZM189.701 22.252C188.525 22.252 187.471 22.056 186.537 21.664C185.604 21.2533 184.867 20.6933 184.325 19.984C183.784 19.256 183.485 18.4253 183.429 17.492H186.061C186.136 18.2573 186.491 18.8827 187.125 19.368C187.779 19.8533 188.628 20.096 189.673 20.096C190.644 20.096 191.409 19.8813 191.969 19.452C192.529 19.0227 192.809 18.4813 192.809 17.828C192.809 17.156 192.511 16.6613 191.913 16.344C191.316 16.008 190.392 15.6813 189.141 15.364C188.003 15.0653 187.069 14.7667 186.341 14.468C185.632 14.1507 185.016 13.6933 184.493 13.096C183.989 12.48 183.737 11.6773 183.737 10.688C183.737 9.904 183.971 9.18533 184.437 8.532C184.904 7.87867 185.567 7.36533 186.425 6.992C187.284 6.6 188.264 6.404 189.365 6.404C191.064 6.404 192.436 6.83333 193.481 7.692C194.527 8.55067 195.087 9.72667 195.161 11.22H192.613C192.557 10.4173 192.231 9.77333 191.633 9.288C191.055 8.80267 190.271 8.56 189.281 8.56C188.367 8.56 187.639 8.756 187.097 9.148C186.556 9.54 186.285 10.0533 186.285 10.688C186.285 11.192 186.444 11.612 186.761 11.948C187.097 12.2653 187.508 12.5267 187.993 12.732C188.497 12.9187 189.188 13.1333 190.065 13.376C191.167 13.6747 192.063 13.9733 192.753 14.272C193.444 14.552 194.032 14.9813 194.517 15.56C195.021 16.1387 195.283 16.8947 195.301 17.828C195.301 18.668 195.068 19.424 194.601 20.096C194.135 20.768 193.472 21.3 192.613 21.692C191.773 22.0653 190.803 22.252 189.701 22.252ZM202.006 8.756V17.8C202.006 18.5467 202.165 19.0787 202.482 19.396C202.8 19.6947 203.35 19.844 204.134 19.844H206.01V22H203.714C202.296 22 201.232 21.6733 200.522 21.02C199.813 20.3667 199.458 19.2933 199.458 17.8V8.756H197.47V6.656H199.458V2.792H202.006V6.656H206.01V8.756H202.006ZM214.529 22.252C213.353 22.252 212.299 22.056 211.365 21.664C210.432 21.2533 209.695 20.6933 209.153 19.984C208.612 19.256 208.313 18.4253 208.257 17.492H210.889C210.964 18.2573 211.319 18.8827 211.953 19.368C212.607 19.8533 213.456 20.096 214.501 20.096C215.472 20.096 216.237 19.8813 216.797 19.452C217.357 19.0227 217.637 18.4813 217.637 17.828C217.637 17.156 217.339 16.6613 216.741 16.344C216.144 16.008 215.22 15.6813 213.969 15.364C212.831 15.0653 211.897 14.7667 211.169 14.468C210.46 14.1507 209.844 13.6933 209.321 13.096C208.817 12.48 208.565 11.6773 208.565 10.688C208.565 9.904 208.799 9.18533 209.265 8.532C209.732 7.87867 210.395 7.36533 211.253 6.992C212.112 6.6 213.092 6.404 214.193 6.404C215.892 6.404 217.264 6.83333 218.309 7.692C219.355 8.55067 219.915 9.72667 219.989 11.22H217.441C217.385 10.4173 217.059 9.77333 216.461 9.288C215.883 8.80267 215.099 8.56 214.109 8.56C213.195 8.56 212.467 8.756 211.925 9.148C211.384 9.54 211.113 10.0533 211.113 10.688C211.113 11.192 211.272 11.612 211.589 11.948C211.925 12.2653 212.336 12.5267 212.821 12.732C213.325 12.9187 214.016 13.1333 214.893 13.376C215.995 13.6747 216.891 13.9733 217.581 14.272C218.272 14.552 218.86 14.9813 219.345 15.56C219.849 16.1387 220.111 16.8947 220.129 17.828C220.129 18.668 219.896 19.424 219.429 20.096C218.963 20.768 218.3 21.3 217.441 21.692C216.601 22.0653 215.631 22.252 214.529 22.252Z" fill="url(#paint0_linear_11295_7065)"/>
<defs>
<linearGradient id="paint0_linear_11295_7065" x1="-1" y1="12" x2="222" y2="12" gradientUnits="userSpaceOnUse">
<stop stop-color="#F20790"/>
<stop offset="1" stop-color="#007AFF"/>
</linearGradient>
</defs>
</svg>
