<svg width="16" height="16" viewBox="0 0 16 16" fill="none" xmlns="http://www.w3.org/2000/svg">
<g id="Pencil">
<path id="Vector" d="M14.2069 4.5861L11.4144 1.79297C11.3215 1.70009 11.2113 1.62641 11.0899 1.57614C10.9686 1.52587 10.8385 1.5 10.7072 1.5C10.5759 1.5 10.4458 1.52587 10.3245 1.57614C10.2031 1.62641 10.0929 1.70009 10 1.79297L2.29313 9.50047C2.19987 9.593 2.12593 9.70313 2.0756 9.82449C2.02528 9.94584 1.99959 10.076 2.00001 10.2073V13.0005C2.00001 13.2657 2.10536 13.52 2.2929 13.7076C2.48043 13.8951 2.73479 14.0005 3 14.0005H5.79313C5.9245 14.0009 6.05464 13.9752 6.17599 13.9249C6.29735 13.8746 6.40748 13.8006 6.5 13.7074L14.2069 6.00047C14.2998 5.90761 14.3734 5.79736 14.4237 5.67602C14.474 5.55468 14.4999 5.42463 14.4999 5.29329C14.4999 5.16195 14.474 5.03189 14.4237 4.91055C14.3734 4.78921 14.2998 4.67896 14.2069 4.5861ZM3.20688 10.0005L8.85376 4.3536L9.89625 5.39672L4.25 11.043L3.20688 10.0005ZM3 11.2073L4.79313 13.0005H3V11.2073ZM6.00001 12.7936L4.95688 11.7505L10.6038 6.1036L11.6463 7.14672L6.00001 12.7936Z" fill="#191919" fill-opacity="0.8"/>
</g>
</svg>
