<svg width="25" height="35" viewBox="0 0 25 35" fill="none" xmlns="http://www.w3.org/2000/svg">
<path d="M14.5 31.6283V18.1102C14.5 17.1963 14.9166 16.3322 15.6317 15.763L22.3683 10.4008C23.0834 9.83161 23.5 8.96752 23.5 8.05358V4C23.5 2.34315 22.1569 1 20.5 1H4C2.34315 1 1 2.34315 1 4V8.0816C1 8.97955 1.40223 9.83028 2.0962 10.4001L8.9038 15.99C9.59777 16.5599 10 17.4106 10 18.3085L10 31.6283C10 32.5968 10.6197 33.4566 11.5385 33.7628C12.9954 34.2485 14.5 33.164 14.5 31.6283Z" fill="#B1B1B1" stroke="url(#paint0_linear_12595_57137)" stroke-opacity="0.45" stroke-width="1.5"/>
<defs>
<linearGradient id="paint0_linear_12595_57137" x1="1" y1="33.25" x2="23.5" y2="33.25" gradientUnits="userSpaceOnUse">
<stop stop-color="#1F1F1F"/>
<stop offset="1" stop-color="white"/>
</linearGradient>
</defs>
</svg>
