<svg width="1296" height="972" viewBox="0 0 1296 972" fill="none" xmlns="http://www.w3.org/2000/svg">
<mask id="path-1-inside-1_17634_103238" fill="white">
<path d="M0 0H108V108H0V0Z"/>
<path d="M108 0H216V108H108V0Z"/>
<path d="M216 0H324V108H216V0Z"/>
<path d="M324 0H432V108H324V0Z"/>
<path d="M432 0H540V108H432V0Z"/>
<path d="M540 0H648V108H540V0Z"/>
<path d="M648 0H756V108H648V0Z"/>
<path d="M756 0H864V108H756V0Z"/>
<path d="M864 0H972V108H864V0Z"/>
<path d="M972 0H1080V108H972V0Z"/>
<path d="M1080 0H1188V108H1080V0Z"/>
<path d="M1188 0H1296V108H1188V0Z"/>
<path d="M0 108H108V216H0V108Z"/>
<path d="M108 108H216V216H108V108Z"/>
<path d="M216 108H324V216H216V108Z"/>
<path d="M324 108H432V216H324V108Z"/>
<path d="M432 108H540V216H432V108Z"/>
<path d="M540 108H648V216H540V108Z"/>
<path d="M648 108H756V216H648V108Z"/>
<path d="M756 108H864V216H756V108Z"/>
<path d="M864 108H972V216H864V108Z"/>
<path d="M972 108H1080V216H972V108Z"/>
<path d="M1080 108H1188V216H1080V108Z"/>
<path d="M1188 108H1296V216H1188V108Z"/>
<path d="M0 216H108V324H0V216Z"/>
<path d="M108 216H216V324H108V216Z"/>
<path d="M216 216H324V324H216V216Z"/>
<path d="M324 216H432V324H324V216Z"/>
<path d="M432 216H540V324H432V216Z"/>
<path d="M540 216H648V324H540V216Z"/>
<path d="M648 216H756V324H648V216Z"/>
<path d="M756 216H864V324H756V216Z"/>
<path d="M864 216H972V324H864V216Z"/>
<path d="M972 216H1080V324H972V216Z"/>
<path d="M1080 216H1188V324H1080V216Z"/>
<path d="M1188 216H1296V324H1188V216Z"/>
<path d="M0 324H108V432H0V324Z"/>
<path d="M108 324H216V432H108V324Z"/>
<path d="M216 324H324V432H216V324Z"/>
<path d="M324 324H432V432H324V324Z"/>
<path d="M432 324H540V432H432V324Z"/>
<path d="M540 324H648V432H540V324Z"/>
<path d="M648 324H756V432H648V324Z"/>
<path d="M756 324H864V432H756V324Z"/>
<path d="M864 324H972V432H864V324Z"/>
<path d="M972 324H1080V432H972V324Z"/>
<path d="M1080 324H1188V432H1080V324Z"/>
<path d="M1188 324H1296V432H1188V324Z"/>
<path d="M0 432H108V540H0V432Z"/>
<path d="M108 432H216V540H108V432Z"/>
<path d="M216 432H324V540H216V432Z"/>
<path d="M324 432H432V540H324V432Z"/>
<path d="M432 432H540V540H432V432Z"/>
<path d="M540 432H648V540H540V432Z"/>
<path d="M648 432H756V540H648V432Z"/>
<path d="M756 432H864V540H756V432Z"/>
<path d="M864 432H972V540H864V432Z"/>
<path d="M972 432H1080V540H972V432Z"/>
<path d="M1080 432H1188V540H1080V432Z"/>
<path d="M1188 432H1296V540H1188V432Z"/>
<path d="M0 540H108V648H0V540Z"/>
<path d="M108 540H216V648H108V540Z"/>
<path d="M216 540H324V648H216V540Z"/>
<path d="M324 540H432V648H324V540Z"/>
<path d="M432 540H540V648H432V540Z"/>
<path d="M540 540H648V648H540V540Z"/>
<path d="M648 540H756V648H648V540Z"/>
<path d="M756 540H864V648H756V540Z"/>
<path d="M864 540H972V648H864V540Z"/>
<path d="M972 540H1080V648H972V540Z"/>
<path d="M1080 540H1188V648H1080V540Z"/>
<path d="M1188 540H1296V648H1188V540Z"/>
<path d="M0 648H108V756H0V648Z"/>
<path d="M108 648H216V756H108V648Z"/>
<path d="M216 648H324V756H216V648Z"/>
<path d="M324 648H432V756H324V648Z"/>
<path d="M432 648H540V756H432V648Z"/>
<path d="M540 648H648V756H540V648Z"/>
<path d="M648 648H756V756H648V648Z"/>
<path d="M756 648H864V756H756V648Z"/>
<path d="M864 648H972V756H864V648Z"/>
<path d="M972 648H1080V756H972V648Z"/>
<path d="M1080 648H1188V756H1080V648Z"/>
<path d="M1188 648H1296V756H1188V648Z"/>
<path d="M0 756H108V864H0V756Z"/>
<path d="M108 756H216V864H108V756Z"/>
<path d="M216 756H324V864H216V756Z"/>
<path d="M324 756H432V864H324V756Z"/>
<path d="M432 756H540V864H432V756Z"/>
<path d="M540 756H648V864H540V756Z"/>
<path d="M648 756H756V864H648V756Z"/>
<path d="M756 756H864V864H756V756Z"/>
<path d="M864 756H972V864H864V756Z"/>
<path d="M972 756H1080V864H972V756Z"/>
<path d="M1080 756H1188V864H1080V756Z"/>
<path d="M1188 756H1296V864H1188V756Z"/>
<path d="M0 864H108V972H0V864Z"/>
<path d="M108 864H216V972H108V864Z"/>
<path d="M216 864H324V972H216V864Z"/>
<path d="M324 864H432V972H324V864Z"/>
<path d="M432 864H540V972H432V864Z"/>
<path d="M540 864H648V972H540V864Z"/>
<path d="M648 864H756V972H648V864Z"/>
<path d="M756 864H864V972H756V864Z"/>
<path d="M864 864H972V972H864V864Z"/>
<path d="M972 864H1080V972H972V864Z"/>
<path d="M1080 864H1188V972H1080V864Z"/>
<path d="M1188 864H1296V972H1188V864Z"/>
</mask>
<path d="M107.5 0V108H108.5V0H107.5ZM108 107.5H0V108.5H108V107.5ZM215.5 0V108H216.5V0H215.5ZM216 107.5H108V108.5H216V107.5ZM323.5 0V108H324.5V0H323.5ZM324 107.5H216V108.5H324V107.5ZM431.5 0V108H432.5V0H431.5ZM432 107.5H324V108.5H432V107.5ZM539.5 0V108H540.5V0H539.5ZM540 107.5H432V108.5H540V107.5ZM647.5 0V108H648.5V0H647.5ZM648 107.5H540V108.5H648V107.5ZM755.5 0V108H756.5V0H755.5ZM756 107.5H648V108.5H756V107.5ZM863.5 0V108H864.5V0H863.5ZM864 107.5H756V108.5H864V107.5ZM971.5 0V108H972.5V0H971.5ZM972 107.5H864V108.5H972V107.5ZM1079.5 0V108H1080.5V0H1079.5ZM1080 107.5H972V108.5H1080V107.5ZM1187.5 0V108H1188.5V0H1187.5ZM1188 107.5H1080V108.5H1188V107.5ZM1296 107.5H1188V108.5H1296V107.5ZM107.5 108V216H108.5V108H107.5ZM108 215.5H0V216.5H108V215.5ZM215.5 108V216H216.5V108H215.5ZM216 215.5H108V216.5H216V215.5ZM323.5 108V216H324.5V108H323.5ZM324 215.5H216V216.5H324V215.5ZM431.5 108V216H432.5V108H431.5ZM432 215.5H324V216.5H432V215.5ZM539.5 108V216H540.5V108H539.5ZM540 215.5H432V216.5H540V215.5ZM647.5 108V216H648.5V108H647.5ZM648 215.5H540V216.5H648V215.5ZM755.5 108V216H756.5V108H755.5ZM756 215.5H648V216.5H756V215.5ZM863.5 108V216H864.5V108H863.5ZM864 215.5H756V216.5H864V215.5ZM971.5 108V216H972.5V108H971.5ZM972 215.5H864V216.5H972V215.5ZM1079.5 108V216H1080.5V108H1079.5ZM1080 215.5H972V216.5H1080V215.5ZM1187.5 108V216H1188.5V108H1187.5ZM1188 215.5H1080V216.5H1188V215.5ZM1296 215.5H1188V216.5H1296V215.5ZM107.5 216V324H108.5V216H107.5ZM108 323.5H0V324.5H108V323.5ZM215.5 216V324H216.5V216H215.5ZM216 323.5H108V324.5H216V323.5ZM323.5 216V324H324.5V216H323.5ZM324 323.5H216V324.5H324V323.5ZM431.5 216V324H432.5V216H431.5ZM432 323.5H324V324.5H432V323.5ZM539.5 216V324H540.5V216H539.5ZM540 323.5H432V324.5H540V323.5ZM647.5 216V324H648.5V216H647.5ZM648 323.5H540V324.5H648V323.5ZM755.5 216V324H756.5V216H755.5ZM756 323.5H648V324.5H756V323.5ZM863.5 216V324H864.5V216H863.5ZM864 323.5H756V324.5H864V323.5ZM971.5 216V324H972.5V216H971.5ZM972 323.5H864V324.5H972V323.5ZM1079.5 216V324H1080.5V216H1079.5ZM1080 323.5H972V324.5H1080V323.5ZM1187.5 216V324H1188.5V216H1187.5ZM1188 323.5H1080V324.5H1188V323.5ZM1296 323.5H1188V324.5H1296V323.5ZM107.5 324V432H108.5V324H107.5ZM108 431.5H0V432.5H108V431.5ZM215.5 324V432H216.5V324H215.5ZM216 431.5H108V432.5H216V431.5ZM323.5 324V432H324.5V324H323.5ZM324 431.5H216V432.5H324V431.5ZM431.5 324V432H432.5V324H431.5ZM432 431.5H324V432.5H432V431.5ZM539.5 324V432H540.5V324H539.5ZM540 431.5H432V432.5H540V431.5ZM647.5 324V432H648.5V324H647.5ZM648 431.5H540V432.5H648V431.5ZM755.5 324V432H756.5V324H755.5ZM756 431.5H648V432.5H756V431.5ZM863.5 324V432H864.5V324H863.5ZM864 431.5H756V432.5H864V431.5ZM971.5 324V432H972.5V324H971.5ZM972 431.5H864V432.5H972V431.5ZM1079.5 324V432H1080.5V324H1079.5ZM1080 431.5H972V432.5H1080V431.5ZM1187.5 324V432H1188.5V324H1187.5ZM1188 431.5H1080V432.5H1188V431.5ZM1296 431.5H1188V432.5H1296V431.5ZM107.5 432V540H108.5V432H107.5ZM108 539.5H0V540.5H108V539.5ZM215.5 432V540H216.5V432H215.5ZM216 539.5H108V540.5H216V539.5ZM323.5 432V540H324.5V432H323.5ZM324 539.5H216V540.5H324V539.5ZM431.5 432V540H432.5V432H431.5ZM432 539.5H324V540.5H432V539.5ZM539.5 432V540H540.5V432H539.5ZM540 539.5H432V540.5H540V539.5ZM647.5 432V540H648.5V432H647.5ZM648 539.5H540V540.5H648V539.5ZM755.5 432V540H756.5V432H755.5ZM756 539.5H648V540.5H756V539.5ZM863.5 432V540H864.5V432H863.5ZM864 539.5H756V540.5H864V539.5ZM971.5 432V540H972.5V432H971.5ZM972 539.5H864V540.5H972V539.5ZM1079.5 432V540H1080.5V432H1079.5ZM1080 539.5H972V540.5H1080V539.5ZM1187.5 432V540H1188.5V432H1187.5ZM1188 539.5H1080V540.5H1188V539.5ZM1296 539.5H1188V540.5H1296V539.5ZM107.5 540V648H108.5V540H107.5ZM108 647.5H0V648.5H108V647.5ZM215.5 540V648H216.5V540H215.5ZM216 647.5H108V648.5H216V647.5ZM323.5 540V648H324.5V540H323.5ZM324 647.5H216V648.5H324V647.5ZM431.5 540V648H432.5V540H431.5ZM432 647.5H324V648.5H432V647.5ZM539.5 540V648H540.5V540H539.5ZM540 647.5H432V648.5H540V647.5ZM647.5 540V648H648.5V540H647.5ZM648 647.5H540V648.5H648V647.5ZM755.5 540V648H756.5V540H755.5ZM756 647.5H648V648.5H756V647.5ZM863.5 540V648H864.5V540H863.5ZM864 647.5H756V648.5H864V647.5ZM971.5 540V648H972.5V540H971.5ZM972 647.5H864V648.5H972V647.5ZM1079.5 540V648H1080.5V540H1079.5ZM1080 647.5H972V648.5H1080V647.5ZM1187.5 540V648H1188.5V540H1187.5ZM1188 647.5H1080V648.5H1188V647.5ZM1296 647.5H1188V648.5H1296V647.5ZM107.5 648V756H108.5V648H107.5ZM108 755.5H0V756.5H108V755.5ZM215.5 648V756H216.5V648H215.5ZM216 755.5H108V756.5H216V755.5ZM323.5 648V756H324.5V648H323.5ZM324 755.5H216V756.5H324V755.5ZM431.5 648V756H432.5V648H431.5ZM432 755.5H324V756.5H432V755.5ZM539.5 648V756H540.5V648H539.5ZM540 755.5H432V756.5H540V755.5ZM647.5 648V756H648.5V648H647.5ZM648 755.5H540V756.5H648V755.5ZM755.5 648V756H756.5V648H755.5ZM756 755.5H648V756.5H756V755.5ZM863.5 648V756H864.5V648H863.5ZM864 755.5H756V756.5H864V755.5ZM971.5 648V756H972.5V648H971.5ZM972 755.5H864V756.5H972V755.5ZM1079.5 648V756H1080.5V648H1079.5ZM1080 755.5H972V756.5H1080V755.5ZM1187.5 648V756H1188.5V648H1187.5ZM1188 755.5H1080V756.5H1188V755.5ZM1296 755.5H1188V756.5H1296V755.5ZM107.5 756V864H108.5V756H107.5ZM108 863.5H0V864.5H108V863.5ZM215.5 756V864H216.5V756H215.5ZM216 863.5H108V864.5H216V863.5ZM323.5 756V864H324.5V756H323.5ZM324 863.5H216V864.5H324V863.5ZM431.5 756V864H432.5V756H431.5ZM432 863.5H324V864.5H432V863.5ZM539.5 756V864H540.5V756H539.5ZM540 863.5H432V864.5H540V863.5ZM647.5 756V864H648.5V756H647.5ZM648 863.5H540V864.5H648V863.5ZM755.5 756V864H756.5V756H755.5ZM756 863.5H648V864.5H756V863.5ZM863.5 756V864H864.5V756H863.5ZM864 863.5H756V864.5H864V863.5ZM971.5 756V864H972.5V756H971.5ZM972 863.5H864V864.5H972V863.5ZM1079.5 756V864H1080.5V756H1079.5ZM1080 863.5H972V864.5H1080V863.5ZM1187.5 756V864H1188.5V756H1187.5ZM1188 863.5H1080V864.5H1188V863.5ZM1296 863.5H1188V864.5H1296V863.5ZM107.5 864V972H108.5V864H107.5ZM215.5 864V972H216.5V864H215.5ZM323.5 864V972H324.5V864H323.5ZM431.5 864V972H432.5V864H431.5ZM539.5 864V972H540.5V864H539.5ZM647.5 864V972H648.5V864H647.5ZM755.5 864V972H756.5V864H755.5ZM863.5 864V972H864.5V864H863.5ZM971.5 864V972H972.5V864H971.5ZM1079.5 864V972H1080.5V864H1079.5ZM1187.5 864V972H1188.5V864H1187.5ZM0 0V-1H-1V0H0ZM1296 0H1297V-1H1296V0ZM0 972H-1V973H0V972ZM1296 972V973H1297V972H1296ZM0 1H108V-1H0V1ZM1 108V0H-1V108H1ZM108 1H216V-1H108V1ZM216 1H324V-1H216V1ZM324 1H432V-1H324V1ZM432 1H540V-1H432V1ZM540 1H648V-1H540V1ZM648 1H756V-1H648V1ZM756 1H864V-1H756V1ZM864 1H972V-1H864V1ZM972 1H1080V-1H972V1ZM1080 1H1188V-1H1080V1ZM1188 1H1296V-1H1188V1ZM1295 0V108H1297V0H1295ZM1 216V108H-1V216H1ZM1295 108V216H1297V108H1295ZM1 324V216H-1V324H1ZM1295 216V324H1297V216H1295ZM1 432V324H-1V432H1ZM1295 324V432H1297V324H1295ZM1 540V432H-1V540H1ZM1295 432V540H1297V432H1295ZM1 648V540H-1V648H1ZM1295 540V648H1297V540H1295ZM1 756V648H-1V756H1ZM1295 648V756H1297V648H1295ZM1 864V756H-1V864H1ZM1295 756V864H1297V756H1295ZM108 971H0V973H108V971ZM1 972V864H-1V972H1ZM216 971H108V973H216V971ZM324 971H216V973H324V971ZM432 971H324V973H432V971ZM540 971H432V973H540V971ZM648 971H540V973H648V971ZM756 971H648V973H756V971ZM864 971H756V973H864V971ZM972 971H864V973H972V971ZM1080 971H972V973H1080V971ZM1188 971H1080V973H1188V971ZM1295 864V972H1297V864H1295ZM1296 971H1188V973H1296V971Z" fill="url(#paint0_radial_17634_103238)" mask="url(#path-1-inside-1_17634_103238)"/>
<defs>
<radialGradient id="paint0_radial_17634_103238" cx="0" cy="0" r="1" gradientUnits="userSpaceOnUse" gradientTransform="translate(760.5 563.5) rotate(-114.543) scale(690.928 921.363)">
<stop stop-opacity="0.12"/>
<stop offset="1" stop-color="#E5E5E5" stop-opacity="0"/>
</radialGradient>
</defs>
</svg>
