<svg width="64" height="64" viewBox="0 0 64 64" fill="none" xmlns="http://www.w3.org/2000/svg">
<path d="M48.3848 53.6303C47.6738 53.6313 46.9696 53.4919 46.3126 53.2201C45.6557 52.9483 45.0588 52.5495 44.5563 52.0465L38.0996 45.5898C37.091 44.5726 36.5264 43.1973 36.5293 41.7648C36.5322 40.3323 37.1025 38.9594 38.1153 37.9463C39.128 36.9332 40.5009 36.3626 41.9333 36.3593C43.3658 36.3559 44.7413 36.9202 45.7588 37.9285L52.2154 44.3852C53.2312 45.4006 53.802 46.778 53.8025 48.2143C53.8029 49.6506 53.2328 51.0283 52.2176 52.0443C51.7148 52.5482 51.1173 52.9477 50.4595 53.2199C49.8017 53.4921 49.0966 53.6316 48.3848 53.6303Z" fill="url(#paint0_linear_11881_252)"/>
<path d="M34.7383 37.6339L36.8963 39.7941C37.1669 39.099 37.579 38.4678 38.1063 37.9405C38.6337 37.4131 39.2649 37.001 39.9599 36.7304L37.8019 34.5724C36.932 35.7344 35.9003 36.7639 34.7383 37.6339Z" fill="url(#paint1_linear_11881_252)"/>
<path fill-rule="evenodd" clip-rule="evenodd" d="M33.6457 33.0493C32.091 34.604 30.1176 35.6436 27.9905 36.0584L26.47 40.5222C30.2914 40.3509 33.9211 38.7576 36.6376 36.0412C39.5166 33.1622 41.134 29.2574 41.134 25.1859C41.134 21.1144 39.5166 17.2096 36.6376 14.3306C33.8402 11.5333 30.0744 9.92697 26.1282 9.83813L25.6634 14.3325C25.7395 14.3309 25.8157 14.3301 25.892 14.3301C28.8002 14.3301 31.5893 15.4854 33.6457 17.5418C35.7022 19.5982 36.8574 22.3873 36.8574 25.2956C36.8574 28.2038 35.7022 30.9929 33.6457 33.0493ZM18.1382 17.5418C19.4198 16.2602 20.9861 15.3286 22.6883 14.8085L24.2232 9.91357C20.7245 10.2706 17.4362 11.8215 14.9271 14.3306C12.0481 17.2096 10.4307 21.1144 10.4307 25.1859C10.4307 29.2574 12.0481 33.1622 14.9271 36.0412C17.5357 38.6498 20.9864 40.2226 24.6403 40.4951L24.7417 36.2006C22.2562 35.9385 19.9217 34.8328 18.1382 33.0493C16.0818 30.9929 14.9265 28.2038 14.9265 25.2956C14.9265 22.3873 16.0818 19.5982 18.1382 17.5418ZM25.1662 22.127L31.5044 19.278L25.5997 39.3899L25.2878 26.9693L20.1315 29.4071L24.8902 11.1362L25.1662 22.127Z" fill="url(#paint2_linear_11881_252)"/>
<defs>
<linearGradient id="paint0_linear_11881_252" x1="41.0998" y1="47.9794" x2="51.7635" y2="44.7443" gradientUnits="userSpaceOnUse">
<stop stop-color="#EC0992"/>
<stop offset="1" stop-color="#0877FC"/>
</linearGradient>
<linearGradient id="paint1_linear_11881_252" x1="36.1199" y1="38.0856" x2="39.3436" y2="37.1077" gradientUnits="userSpaceOnUse">
<stop stop-color="#EC0992"/>
<stop offset="1" stop-color="#0877FC"/>
</linearGradient>
<linearGradient id="paint2_linear_11881_252" x1="23.8617" y1="12.4422" x2="30.5623" y2="50.0203" gradientUnits="userSpaceOnUse">
<stop stop-color="#EC0992"/>
<stop offset="1" stop-color="#0877FC"/>
</linearGradient>
</defs>
</svg>
