<svg width="29" height="28" viewBox="0 0 29 28" fill="none" xmlns="http://www.w3.org/2000/svg">
<g id="Nav Icon">
<path id="Vector" d="M23.2314 25.6455C22.8485 25.646 22.4694 25.571 22.1156 25.4246C21.7618 25.2783 21.4405 25.0635 21.1699 24.7927L17.6932 21.316C17.1501 20.7683 16.8461 20.0277 16.8477 19.2564C16.8492 18.4851 17.1563 17.7458 17.7016 17.2003C18.247 16.6548 18.9862 16.3475 19.7575 16.3457C20.5289 16.3439 21.2695 16.6477 21.8174 17.1907L25.294 20.6673C25.841 21.2141 26.1484 21.9558 26.1486 22.7292C26.1488 23.5026 25.8418 24.2444 25.2952 24.7915C25.0244 25.0628 24.7027 25.278 24.3485 25.4245C23.9944 25.5711 23.6147 25.6462 23.2314 25.6455Z" fill="white"/>
<path id="Vector_2" d="M15.8845 17.0331L17.0465 18.1963C17.1922 17.8221 17.4141 17.4822 17.6981 17.1982C17.9821 16.9142 18.322 16.6924 18.6962 16.5466L17.5342 15.3846C17.0658 16.0104 16.5102 16.5647 15.8845 17.0331Z" fill="white"/>
<path id="Union" fill-rule="evenodd" clip-rule="evenodd" d="M15.2944 14.5637C14.4574 15.4007 13.395 15.9605 12.2499 16.1839L11.4311 18.5876C13.4886 18.4952 15.4428 17.6373 16.9054 16.1747C18.4556 14.6245 19.3265 12.522 19.3265 10.3296C19.3265 8.13725 18.4556 6.03469 16.9054 4.48446C15.3992 2.97825 13.3715 2.11333 11.2468 2.06543L10.9965 4.48544C11.0374 4.48459 11.0783 4.48416 11.1193 4.48416C12.6852 4.48416 14.1871 5.10624 15.2944 6.21355C16.4017 7.32085 17.0238 8.82268 17.0238 10.3886C17.0238 11.9546 16.4017 13.4564 15.2944 14.5637ZM6.94417 6.21355C7.63443 5.52329 8.47799 5.02158 9.39483 4.74158L10.2213 2.10599C8.33711 2.29814 6.56629 3.13326 5.21508 4.48446C3.66485 6.03469 2.79395 8.13725 2.79395 10.3296C2.79395 12.522 3.66485 14.6245 5.21508 16.1747C6.61976 17.5794 8.47793 18.4263 10.4455 18.573L10.5001 16.2606C9.16169 16.1195 7.90454 15.5241 6.94417 14.5637C5.83686 13.4564 5.21478 11.9546 5.21478 10.3886C5.21478 8.82268 5.83686 7.32085 6.94417 6.21355ZM10.7287 8.68352L14.1416 7.14947L10.9621 17.9789L10.7942 11.291L8.01774 12.6036L10.5801 2.76544L10.7287 8.68352Z" fill="white"/>
</g>
</svg>
