<svg width="29" height="28" viewBox="0 0 29 28" fill="none" xmlns="http://www.w3.org/2000/svg">
<g id="Product Icons">
<path id="Vector" d="M19.7143 20.9968C20.2563 20.7832 20.7816 20.5294 21.2857 20.2376V24.2143C21.2857 24.4227 21.2029 24.6225 21.0556 24.7699C20.9082 24.9172 20.7084 25 20.5 25C20.2916 25 20.0918 24.9172 19.9444 24.7699C19.7971 24.6225 19.7143 24.4227 19.7143 24.2143V20.9968ZM20.8693 12.3116L15.3693 9.37794C15.1858 9.28421 14.9728 9.26632 14.7762 9.32812C14.5796 9.38992 14.4152 9.52646 14.3184 9.70833C14.2215 9.8902 14.2 10.1028 14.2584 10.3004C14.3168 10.498 14.4505 10.6648 14.6307 10.7647L19.2232 13.2142L20.8929 12.3244L20.8693 12.3116ZM27.155 9.37794L15.3693 3.09219C15.2556 3.03166 15.1288 3 15 3C14.8712 3 14.7444 3.03166 14.6307 3.09219L2.8449 9.37794C2.71919 9.44494 2.61405 9.54485 2.54074 9.66699C2.46744 9.78912 2.42871 9.92889 2.42871 10.0713C2.42871 10.2138 2.46744 10.3536 2.54074 10.4757C2.61405 10.5978 2.71919 10.6977 2.8449 10.7647L5.57134 12.2193V16.9749C5.57052 17.3608 5.71256 17.7334 5.97009 18.0209C7.25671 19.4538 10.1393 21.8571 15 21.8571C16.6116 21.8705 18.2112 21.5785 19.7143 20.9968V13.4764L19.2232 13.2142L15 15.4663L6.73322 11.0535L4.88384 10.0713L15 4.6764L25.1161 10.0713L23.2716 11.0535H23.2657L20.8929 12.3244C21.0123 12.3934 21.1115 12.4926 21.1805 12.6121C21.2495 12.7315 21.2858 12.8671 21.2857 13.005V20.2376C22.3103 19.6461 23.2362 18.8982 24.0298 18.0209C24.2874 17.7334 24.4294 17.3608 24.4286 16.9749V12.2193L27.155 10.7647C27.2808 10.6977 27.3859 10.5978 27.4592 10.4757C27.5325 10.3536 27.5712 10.2138 27.5712 10.0713C27.5712 9.92889 27.5325 9.78912 27.4592 9.66699C27.3859 9.54485 27.2808 9.44494 27.155 9.37794Z" fill="white"/>
</g>
</svg>
