<svg width="101" height="15" viewBox="0 0 101 15" fill="none" xmlns="http://www.w3.org/2000/svg">
<g id="Group 2147223454">
<path id="Vector 627" d="M18.8947 5.42275C18.1345 4.89914 18.9529 2.79795 20.9654 3.35966C22.123 3.68275 22.9059 4.27313 23.2432 5.42275C23.7219 7.05406 22.6447 8.83713 20.9654 9.13631C18.3266 9.60646 17.3126 8.42442 16.2028 7.27953C14.2463 5.26111 13.5418 4.0093 11.0261 2.53442C9.48369 1.63017 8.35546 1.18368 5.75642 1.75386C4.62664 2.0017 3.0645 2.78822 2.02914 5.26393C1.24476 7.13953 1.40793 8.77118 2.02914 10.2153C3.0381 12.5609 5.84929 13.31 5.84929 13.31C5.84929 13.31 9.18374 14.0214 10.519 12.6911C11.8543 11.3607 11.9685 10.4217 11.8543 9.13631C11.747 7.92833 10.9652 7.05275 9.78363 6.45429C8.6554 5.88285 7.29878 6.45429 7.29878 6.45429" stroke="#CCCCCC" stroke-width="1.5" stroke-linecap="round"/>
<line id="Line 10" y1="-0.75" x2="77.1428" y2="-0.75" transform="matrix(1 -8.74227e-08 -8.74227e-08 -1 23.1035 6.78516)" stroke="url(#paint0_linear_24509_144395)" stroke-width="1.5"/>
</g>
<defs>
<linearGradient id="paint0_linear_24509_144395" x1="0" y1="0.5" x2="77.1428" y2="0.5" gradientUnits="userSpaceOnUse">
<stop stop-color="#CCCCCC"/>
<stop offset="1" stop-color="#CCCCCC" stop-opacity="0"/>
</linearGradient>
</defs>
</svg>
