<svg width="902" height="132" viewBox="0 0 902 132" fill="none" xmlns="http://www.w3.org/2000/svg">
<path d="M18.1233 38L10.4433 24.656H6.26731V38H0.795313V4.64H12.3153C14.8753 4.64 17.0353 5.088 18.7953 5.984C20.5873 6.88 21.9153 8.08 22.7793 9.584C23.6753 11.088 24.1233 12.768 24.1233 14.624C24.1233 16.8 23.4833 18.784 22.2033 20.576C20.9553 22.336 19.0193 23.536 16.3953 24.176L24.6513 38H18.1233ZM6.26731 20.288H12.3153C14.3633 20.288 15.8993 19.776 16.9233 18.752C17.9793 17.728 18.5073 16.352 18.5073 14.624C18.5073 12.896 17.9953 11.552 16.9713 10.592C15.9473 9.6 14.3953 9.104 12.3153 9.104H6.26731V20.288ZM55.0754 11.552V38H49.6034V34.88C48.7394 35.968 47.6034 36.832 46.1954 37.472C44.8194 38.08 43.3474 38.384 41.7794 38.384C39.6994 38.384 37.8274 37.952 36.1634 37.088C34.5314 36.224 33.2354 34.944 32.2754 33.248C31.3474 31.552 30.8834 29.504 30.8834 27.104V11.552H36.3074V26.288C36.3074 28.656 36.8994 30.48 38.0834 31.76C39.2674 33.008 40.8834 33.632 42.9314 33.632C44.9794 33.632 46.5954 33.008 47.7794 31.76C48.9954 30.48 49.6034 28.656 49.6034 26.288V11.552H55.0754ZM75.6393 11.12C77.7193 11.12 79.5753 11.552 81.2073 12.416C82.8713 13.28 84.1673 14.56 85.0953 16.256C86.0233 17.952 86.4873 20 86.4873 22.4V38H81.0633V23.216C81.0633 20.848 80.4713 19.04 79.2873 17.792C78.1033 16.512 76.4873 15.872 74.4393 15.872C72.3913 15.872 70.7593 16.512 69.5433 17.792C68.3593 19.04 67.7673 20.848 67.7673 23.216V38H62.2953V11.552H67.7673V14.576C68.6633 13.488 69.7993 12.64 71.1753 12.032C72.5833 11.424 74.0713 11.12 75.6393 11.12ZM106.811 11.12C108.891 11.12 110.747 11.552 112.379 12.416C114.043 13.28 115.339 14.56 116.267 16.256C117.195 17.952 117.659 20 117.659 22.4V38H112.235V23.216C112.235 20.848 111.643 19.04 110.459 17.792C109.275 16.512 107.659 15.872 105.611 15.872C103.563 15.872 101.931 16.512 100.715 17.792C99.5312 19.04 98.9392 20.848 98.9392 23.216V38H93.4672V11.552H98.9392V14.576C99.8352 13.488 100.971 12.64 102.347 12.032C103.755 11.424 105.243 11.12 106.811 11.12ZM127.423 8.048C126.431 8.048 125.599 7.712 124.927 7.04C124.255 6.368 123.919 5.536 123.919 4.544C123.919 3.552 124.255 2.72 124.927 2.048C125.599 1.376 126.431 1.04 127.423 1.04C128.383 1.04 129.199 1.376 129.871 2.048C130.543 2.72 130.879 3.552 130.879 4.544C130.879 5.536 130.543 6.368 129.871 7.04C129.199 7.712 128.383 8.048 127.423 8.048ZM130.111 11.552V38H124.639V11.552H130.111ZM150.639 11.12C152.719 11.12 154.575 11.552 156.207 12.416C157.871 13.28 159.167 14.56 160.095 16.256C161.023 17.952 161.487 20 161.487 22.4V38H156.063V23.216C156.063 20.848 155.471 19.04 154.287 17.792C153.103 16.512 151.487 15.872 149.439 15.872C147.391 15.872 145.759 16.512 144.543 17.792C143.359 19.04 142.767 20.848 142.767 23.216V38H137.295V11.552H142.767V14.576C143.663 13.488 144.799 12.64 146.175 12.032C147.583 11.424 149.071 11.12 150.639 11.12ZM179.123 11.12C181.171 11.12 182.979 11.536 184.547 12.368C186.147 13.168 187.395 14.176 188.291 15.392V11.552H193.811V38.432C193.811 40.864 193.299 43.024 192.275 44.912C191.251 46.832 189.763 48.336 187.811 49.424C185.891 50.512 183.587 51.056 180.899 51.056C177.315 51.056 174.339 50.208 171.971 48.512C169.603 46.848 168.259 44.576 167.939 41.696H173.363C173.779 43.072 174.659 44.176 176.003 45.008C177.379 45.872 179.011 46.304 180.899 46.304C183.107 46.304 184.883 45.632 186.227 44.288C187.603 42.944 188.291 40.992 188.291 38.432V34.016C187.363 35.264 186.099 36.32 184.499 37.184C182.931 38.016 181.139 38.432 179.123 38.432C176.819 38.432 174.707 37.856 172.787 36.704C170.899 35.52 169.395 33.888 168.275 31.808C167.187 29.696 166.643 27.312 166.643 24.656C166.643 22 167.187 19.648 168.275 17.6C169.395 15.552 170.899 13.968 172.787 12.848C174.707 11.696 176.819 11.12 179.123 11.12ZM188.291 24.752C188.291 22.928 187.907 21.344 187.139 20C186.403 18.656 185.427 17.632 184.211 16.928C182.995 16.224 181.683 15.872 180.275 15.872C178.867 15.872 177.555 16.224 176.339 16.928C175.123 17.6 174.131 18.608 173.363 19.952C172.627 21.264 172.259 22.832 172.259 24.656C172.259 26.48 172.627 28.08 173.363 29.456C174.131 30.832 175.123 31.888 176.339 32.624C177.587 33.328 178.899 33.68 180.275 33.68C181.683 33.68 182.995 33.328 184.211 32.624C185.427 31.92 186.403 30.896 187.139 29.552C187.907 28.176 188.291 26.576 188.291 24.752ZM224.939 38.432C222.443 38.432 220.187 37.872 218.171 36.752C216.155 35.6 214.571 34 213.419 31.952C212.267 29.872 211.691 27.472 211.691 24.752C211.691 22.064 212.283 19.68 213.467 17.6C214.651 15.52 216.267 13.92 218.315 12.8C220.363 11.68 222.651 11.12 225.179 11.12C227.707 11.12 229.995 11.68 232.043 12.8C234.091 13.92 235.707 15.52 236.891 17.6C238.075 19.68 238.667 22.064 238.667 24.752C238.667 27.44 238.059 29.824 236.843 31.904C235.627 33.984 233.963 35.6 231.851 36.752C229.771 37.872 227.467 38.432 224.939 38.432ZM224.939 33.68C226.347 33.68 227.659 33.344 228.875 32.672C230.123 32 231.131 30.992 231.899 29.648C232.667 28.304 233.051 26.672 233.051 24.752C233.051 22.832 232.683 21.216 231.947 19.904C231.211 18.56 230.235 17.552 229.019 16.88C227.803 16.208 226.491 15.872 225.083 15.872C223.675 15.872 222.363 16.208 221.147 16.88C219.963 17.552 219.019 18.56 218.315 19.904C217.611 21.216 217.259 22.832 217.259 24.752C217.259 27.6 217.979 29.808 219.419 31.376C220.891 32.912 222.731 33.68 224.939 33.68ZM257.421 11.12C259.501 11.12 261.357 11.552 262.989 12.416C264.653 13.28 265.949 14.56 266.877 16.256C267.805 17.952 268.269 20 268.269 22.4V38H262.845V23.216C262.845 20.848 262.253 19.04 261.069 17.792C259.885 16.512 258.269 15.872 256.221 15.872C254.173 15.872 252.541 16.512 251.325 17.792C250.141 19.04 249.549 20.848 249.549 23.216V38H244.077V11.552H249.549V14.576C250.445 13.488 251.581 12.64 252.957 12.032C254.365 11.424 255.853 11.12 257.421 11.12ZM286.325 30.704V26.576L302.453 3.44H309.077V25.952H313.541V30.704H309.077V38H303.701V30.704H286.325ZM303.941 9.008L292.613 25.952H303.941V9.008ZM344.944 11.12C346.96 11.12 348.752 11.552 350.32 12.416C351.92 13.28 353.168 14.56 354.064 16.256C354.992 17.952 355.456 20 355.456 22.4V38H350.032V23.216C350.032 20.848 349.44 19.04 348.256 17.792C347.072 16.512 345.456 15.872 343.408 15.872C341.36 15.872 339.728 16.512 338.512 17.792C337.328 19.04 336.736 20.848 336.736 23.216V38H331.264V2.48H336.736V14.624C337.664 13.504 338.832 12.64 340.24 12.032C341.68 11.424 343.248 11.12 344.944 11.12ZM373.908 38.432C371.412 38.432 369.156 37.872 367.14 36.752C365.124 35.6 363.54 34 362.388 31.952C361.236 29.872 360.66 27.472 360.66 24.752C360.66 22.064 361.252 19.68 362.436 17.6C363.62 15.52 365.236 13.92 367.284 12.8C369.332 11.68 371.62 11.12 374.148 11.12C376.676 11.12 378.964 11.68 381.012 12.8C383.06 13.92 384.676 15.52 385.86 17.6C387.044 19.68 387.636 22.064 387.636 24.752C387.636 27.44 387.028 29.824 385.812 31.904C384.596 33.984 382.932 35.6 380.82 36.752C378.74 37.872 376.436 38.432 373.908 38.432ZM373.908 33.68C375.316 33.68 376.628 33.344 377.844 32.672C379.092 32 380.1 30.992 380.868 29.648C381.636 28.304 382.02 26.672 382.02 24.752C382.02 22.832 381.652 21.216 380.916 19.904C380.18 18.56 379.204 17.552 377.988 16.88C376.772 16.208 375.46 15.872 374.052 15.872C372.644 15.872 371.332 16.208 370.116 16.88C368.932 17.552 367.988 18.56 367.284 19.904C366.58 21.216 366.228 22.832 366.228 24.752C366.228 27.6 366.948 29.808 368.388 31.376C369.86 32.912 371.7 33.68 373.908 33.68ZM416.997 11.552V38H411.525V34.88C410.661 35.968 409.525 36.832 408.117 37.472C406.741 38.08 405.269 38.384 403.701 38.384C401.621 38.384 399.749 37.952 398.085 37.088C396.453 36.224 395.157 34.944 394.197 33.248C393.269 31.552 392.805 29.504 392.805 27.104V11.552H398.229V26.288C398.229 28.656 398.821 30.48 400.005 31.76C401.189 33.008 402.805 33.632 404.853 33.632C406.901 33.632 408.517 33.008 409.701 31.76C410.917 30.48 411.525 28.656 411.525 26.288V11.552H416.997ZM429.689 15.392C430.489 14.048 431.545 13.008 432.857 12.272C434.201 11.504 435.785 11.12 437.609 11.12V16.784H436.217C434.073 16.784 432.441 17.328 431.321 18.416C430.233 19.504 429.689 21.392 429.689 24.08V38H424.217V11.552H429.689V15.392ZM452.239 38.432C450.159 38.432 448.287 38.064 446.623 37.328C444.991 36.56 443.695 35.536 442.735 34.256C441.775 32.944 441.263 31.488 441.199 29.888H446.863C446.959 31.008 447.487 31.952 448.447 32.72C449.439 33.456 450.671 33.824 452.143 33.824C453.679 33.824 454.863 33.536 455.695 32.96C456.559 32.352 456.991 31.584 456.991 30.656C456.991 29.664 456.511 28.928 455.551 28.448C454.623 27.968 453.135 27.44 451.087 26.864C449.103 26.32 447.487 25.792 446.239 25.28C444.991 24.768 443.903 23.984 442.975 22.928C442.079 21.872 441.631 20.48 441.631 18.752C441.631 17.344 442.047 16.064 442.879 14.912C443.711 13.728 444.895 12.8 446.431 12.128C447.999 11.456 449.791 11.12 451.807 11.12C454.815 11.12 457.231 11.888 459.055 13.424C460.911 14.928 461.903 16.992 462.031 19.616H456.559C456.463 18.432 455.983 17.488 455.119 16.784C454.255 16.08 453.087 15.728 451.615 15.728C450.175 15.728 449.071 16 448.303 16.544C447.535 17.088 447.151 17.808 447.151 18.704C447.151 19.408 447.407 20 447.919 20.48C448.431 20.96 449.055 21.344 449.791 21.632C450.527 21.888 451.615 22.224 453.055 22.64C454.975 23.152 456.543 23.68 457.759 24.224C459.007 24.736 460.079 25.504 460.975 26.528C461.871 27.552 462.335 28.912 462.367 30.608C462.367 32.112 461.951 33.456 461.119 34.64C460.287 35.824 459.103 36.752 457.567 37.424C456.063 38.096 454.287 38.432 452.239 38.432ZM492.22 38.432C489.724 38.432 487.468 37.872 485.452 36.752C483.436 35.6 481.852 34 480.7 31.952C479.548 29.872 478.972 27.472 478.972 24.752C478.972 22.064 479.564 19.68 480.748 17.6C481.932 15.52 483.548 13.92 485.596 12.8C487.644 11.68 489.932 11.12 492.46 11.12C494.988 11.12 497.276 11.68 499.324 12.8C501.372 13.92 502.988 15.52 504.172 17.6C505.356 19.68 505.948 22.064 505.948 24.752C505.948 27.44 505.34 29.824 504.124 31.904C502.908 33.984 501.244 35.6 499.132 36.752C497.052 37.872 494.748 38.432 492.22 38.432ZM492.22 33.68C493.628 33.68 494.94 33.344 496.156 32.672C497.404 32 498.412 30.992 499.18 29.648C499.948 28.304 500.332 26.672 500.332 24.752C500.332 22.832 499.964 21.216 499.228 19.904C498.492 18.56 497.516 17.552 496.3 16.88C495.084 16.208 493.772 15.872 492.364 15.872C490.956 15.872 489.644 16.208 488.428 16.88C487.244 17.552 486.3 18.56 485.596 19.904C484.892 21.216 484.54 22.832 484.54 24.752C484.54 27.6 485.26 29.808 486.7 31.376C488.172 32.912 490.012 33.68 492.22 33.68ZM522.446 16.016H517.55V38H512.03V16.016H508.91V11.552H512.03V9.68C512.03 6.64 512.83 4.432 514.43 3.056C516.062 1.648 518.606 0.943999 522.062 0.943999V5.504C520.398 5.504 519.23 5.824 518.558 6.464C517.886 7.072 517.55 8.144 517.55 9.68V11.552H522.446V16.016ZM549.364 38.432C547.284 38.432 545.412 38.064 543.748 37.328C542.116 36.56 540.82 35.536 539.86 34.256C538.9 32.944 538.388 31.488 538.324 29.888H543.988C544.084 31.008 544.612 31.952 545.572 32.72C546.564 33.456 547.796 33.824 549.268 33.824C550.804 33.824 551.988 33.536 552.82 32.96C553.684 32.352 554.116 31.584 554.116 30.656C554.116 29.664 553.636 28.928 552.676 28.448C551.748 27.968 550.26 27.44 548.212 26.864C546.228 26.32 544.612 25.792 543.364 25.28C542.116 24.768 541.028 23.984 540.1 22.928C539.204 21.872 538.756 20.48 538.756 18.752C538.756 17.344 539.172 16.064 540.004 14.912C540.836 13.728 542.02 12.8 543.556 12.128C545.124 11.456 546.916 11.12 548.932 11.12C551.94 11.12 554.356 11.888 556.18 13.424C558.036 14.928 559.028 16.992 559.156 19.616H553.684C553.588 18.432 553.108 17.488 552.244 16.784C551.38 16.08 550.212 15.728 548.74 15.728C547.3 15.728 546.196 16 545.428 16.544C544.66 17.088 544.276 17.808 544.276 18.704C544.276 19.408 544.532 20 545.044 20.48C545.556 20.96 546.18 21.344 546.916 21.632C547.652 21.888 548.74 22.224 550.18 22.64C552.1 23.152 553.668 23.68 554.884 24.224C556.132 24.736 557.204 25.504 558.1 26.528C558.996 27.552 559.46 28.912 559.492 30.608C559.492 32.112 559.076 33.456 558.244 34.64C557.412 35.824 556.228 36.752 554.692 37.424C553.188 38.096 551.412 38.432 549.364 38.432ZM570.877 2.48V38H565.405V2.48H570.877ZM602.301 24.128C602.301 25.12 602.237 26.016 602.109 26.816H581.901C582.061 28.928 582.845 30.624 584.253 31.904C585.661 33.184 587.389 33.824 589.437 33.824C592.381 33.824 594.461 32.592 595.677 30.128H601.581C600.781 32.56 599.325 34.56 597.213 36.128C595.133 37.664 592.541 38.432 589.437 38.432C586.909 38.432 584.637 37.872 582.621 36.752C580.637 35.6 579.069 34 577.917 31.952C576.797 29.872 576.237 27.472 576.237 24.752C576.237 22.032 576.781 19.648 577.869 17.6C578.989 15.52 580.541 13.92 582.525 12.8C584.541 11.68 586.845 11.12 589.437 11.12C591.933 11.12 594.157 11.664 596.109 12.752C598.061 13.84 599.581 15.376 600.669 17.36C601.757 19.312 602.301 21.568 602.301 24.128ZM596.589 22.4C596.557 20.384 595.837 18.768 594.429 17.552C593.021 16.336 591.277 15.728 589.197 15.728C587.309 15.728 585.693 16.336 584.349 17.552C583.005 18.736 582.205 20.352 581.949 22.4H596.589ZM631.926 24.128C631.926 25.12 631.862 26.016 631.734 26.816H611.526C611.686 28.928 612.47 30.624 613.878 31.904C615.286 33.184 617.014 33.824 619.062 33.824C622.006 33.824 624.086 32.592 625.302 30.128H631.206C630.406 32.56 628.95 34.56 626.838 36.128C624.758 37.664 622.166 38.432 619.062 38.432C616.534 38.432 614.262 37.872 612.246 36.752C610.262 35.6 608.694 34 607.542 31.952C606.422 29.872 605.862 27.472 605.862 24.752C605.862 22.032 606.406 19.648 607.494 17.6C608.614 15.52 610.166 13.92 612.15 12.8C614.166 11.68 616.47 11.12 619.062 11.12C621.558 11.12 623.782 11.664 625.734 12.752C627.686 13.84 629.206 15.376 630.294 17.36C631.382 19.312 631.926 21.568 631.926 24.128ZM626.214 22.4C626.182 20.384 625.462 18.768 624.054 17.552C622.646 16.336 620.902 15.728 618.822 15.728C616.934 15.728 615.318 16.336 613.974 17.552C612.63 18.736 611.83 20.352 611.574 22.4H626.214ZM642.783 15.44C643.711 14.224 644.975 13.2 646.575 12.368C648.175 11.536 649.983 11.12 651.999 11.12C654.303 11.12 656.399 11.696 658.287 12.848C660.207 13.968 661.711 15.552 662.799 17.6C663.887 19.648 664.431 22 664.431 24.656C664.431 27.312 663.887 29.696 662.799 31.808C661.711 33.888 660.207 35.52 658.287 36.704C656.399 37.856 654.303 38.432 651.999 38.432C649.983 38.432 648.191 38.032 646.623 37.232C645.055 36.4 643.775 35.376 642.783 34.16V50.576H637.311V11.552H642.783V15.44ZM658.863 24.656C658.863 22.832 658.479 21.264 657.711 19.952C656.975 18.608 655.983 17.6 654.735 16.928C653.519 16.224 652.207 15.872 650.799 15.872C649.423 15.872 648.111 16.224 646.863 16.928C645.647 17.632 644.655 18.656 643.887 20C643.151 21.344 642.783 22.928 642.783 24.752C642.783 26.576 643.151 28.176 643.887 29.552C644.655 30.896 645.647 31.92 646.863 32.624C648.111 33.328 649.423 33.68 650.799 33.68C652.207 33.68 653.519 33.328 654.735 32.624C655.983 31.888 656.975 30.832 657.711 29.456C658.479 28.08 658.863 26.48 658.863 24.656ZM680.487 24.656C680.487 22 681.031 19.648 682.119 17.6C683.239 15.552 684.743 13.968 686.631 12.848C688.551 11.696 690.663 11.12 692.967 11.12C695.047 11.12 696.855 11.536 698.391 12.368C699.959 13.168 701.207 14.176 702.135 15.392V11.552H707.655V38H702.135V34.064C701.207 35.312 699.943 36.352 698.343 37.184C696.743 38.016 694.919 38.432 692.871 38.432C690.599 38.432 688.519 37.856 686.631 36.704C684.743 35.52 683.239 33.888 682.119 31.808C681.031 29.696 680.487 27.312 680.487 24.656ZM702.135 24.752C702.135 22.928 701.751 21.344 700.983 20C700.247 18.656 699.271 17.632 698.055 16.928C696.839 16.224 695.527 15.872 694.119 15.872C692.711 15.872 691.399 16.224 690.183 16.928C688.967 17.6 687.975 18.608 687.207 19.952C686.471 21.264 686.103 22.832 686.103 24.656C686.103 26.48 686.471 28.08 687.207 29.456C687.975 30.832 688.967 31.888 690.183 32.624C691.431 33.328 692.743 33.68 694.119 33.68C695.527 33.68 696.839 33.328 698.055 32.624C699.271 31.92 700.247 30.896 700.983 29.552C701.751 28.176 702.135 26.576 702.135 24.752ZM728.186 11.12C730.266 11.12 732.122 11.552 733.754 12.416C735.418 13.28 736.714 14.56 737.642 16.256C738.57 17.952 739.034 20 739.034 22.4V38H733.61V23.216C733.61 20.848 733.018 19.04 731.834 17.792C730.65 16.512 729.034 15.872 726.986 15.872C724.938 15.872 723.306 16.512 722.09 17.792C720.906 19.04 720.314 20.848 720.314 23.216V38H714.842V11.552H720.314V14.576C721.21 13.488 722.346 12.64 723.722 12.032C725.13 11.424 726.618 11.12 728.186 11.12ZM744.19 24.656C744.19 22 744.734 19.648 745.822 17.6C746.942 15.552 748.446 13.968 750.334 12.848C752.254 11.696 754.382 11.12 756.718 11.12C758.446 11.12 760.142 11.504 761.806 12.272C763.502 13.008 764.846 14 765.838 15.248V2.48H771.358V38H765.838V34.016C764.942 35.296 763.694 36.352 762.094 37.184C760.526 38.016 758.718 38.432 756.67 38.432C754.366 38.432 752.254 37.856 750.334 36.704C748.446 35.52 746.942 33.888 745.822 31.808C744.734 29.696 744.19 27.312 744.19 24.656ZM765.838 24.752C765.838 22.928 765.454 21.344 764.686 20C763.95 18.656 762.974 17.632 761.758 16.928C760.542 16.224 759.23 15.872 757.822 15.872C756.414 15.872 755.102 16.224 753.886 16.928C752.67 17.6 751.678 18.608 750.91 19.952C750.174 21.264 749.806 22.832 749.806 24.656C749.806 26.48 750.174 28.08 750.91 29.456C751.678 30.832 752.67 31.888 753.886 32.624C755.134 33.328 756.446 33.68 757.822 33.68C759.23 33.68 760.542 33.328 761.758 32.624C762.974 31.92 763.95 30.896 764.686 29.552C765.454 28.176 765.838 26.576 765.838 24.752ZM789.574 8V3.008H799.558V38H794.038V8H789.574ZM807.075 20.048C807.075 14.512 808.003 10.192 809.859 7.088C811.747 3.952 814.979 2.384 819.555 2.384C824.131 2.384 827.347 3.952 829.203 7.088C831.091 10.192 832.035 14.512 832.035 20.048C832.035 25.648 831.091 30.032 829.203 33.2C827.347 36.336 824.131 37.904 819.555 37.904C814.979 37.904 811.747 36.336 809.859 33.2C808.003 30.032 807.075 25.648 807.075 20.048ZM826.659 20.048C826.659 17.456 826.483 15.264 826.131 13.472C825.811 11.68 825.139 10.224 824.115 9.104C823.091 7.952 821.571 7.376 819.555 7.376C817.539 7.376 816.019 7.952 814.995 9.104C813.971 10.224 813.283 11.68 812.931 13.472C812.611 15.264 812.451 17.456 812.451 20.048C812.451 22.736 812.611 24.992 812.931 26.816C813.251 28.64 813.923 30.112 814.947 31.232C816.003 32.352 817.539 32.912 819.555 32.912C821.571 32.912 823.091 32.352 824.115 31.232C825.171 30.112 825.859 28.64 826.179 26.816C826.499 24.992 826.659 22.736 826.659 20.048ZM837.825 20.048C837.825 14.512 838.753 10.192 840.609 7.088C842.497 3.952 845.729 2.384 850.305 2.384C854.881 2.384 858.097 3.952 859.953 7.088C861.841 10.192 862.785 14.512 862.785 20.048C862.785 25.648 861.841 30.032 859.953 33.2C858.097 36.336 854.881 37.904 850.305 37.904C845.729 37.904 842.497 36.336 840.609 33.2C838.753 30.032 837.825 25.648 837.825 20.048ZM857.409 20.048C857.409 17.456 857.233 15.264 856.881 13.472C856.561 11.68 855.889 10.224 854.865 9.104C853.841 7.952 852.321 7.376 850.305 7.376C848.289 7.376 846.769 7.952 845.745 9.104C844.721 10.224 844.033 11.68 843.681 13.472C843.361 15.264 843.201 17.456 843.201 20.048C843.201 22.736 843.361 24.992 843.681 26.816C844.001 28.64 844.673 30.112 845.697 31.232C846.753 32.352 848.289 32.912 850.305 32.912C852.321 32.912 853.841 32.352 854.865 31.232C855.921 30.112 856.609 28.64 856.929 26.816C857.249 24.992 857.409 22.736 857.409 20.048ZM867.711 11.456C867.711 9.12 868.383 7.296 869.727 5.984C871.103 4.64 872.863 3.968 875.007 3.968C877.151 3.968 878.895 4.64 880.239 5.984C881.615 7.296 882.303 9.12 882.303 11.456C882.303 13.792 881.615 15.632 880.239 16.976C878.895 18.32 877.151 18.992 875.007 18.992C872.863 18.992 871.103 18.32 869.727 16.976C868.383 15.632 867.711 13.792 867.711 11.456ZM896.991 4.592L877.839 38H872.463L891.615 4.592H896.991ZM875.007 7.28C872.991 7.28 871.983 8.672 871.983 11.456C871.983 14.272 872.991 15.68 875.007 15.68C875.967 15.68 876.703 15.344 877.215 14.672C877.759 13.968 878.031 12.896 878.031 11.456C878.031 8.672 877.023 7.28 875.007 7.28ZM887.247 31.088C887.247 28.752 887.919 26.928 889.263 25.616C890.639 24.272 892.399 23.6 894.543 23.6C896.655 23.6 898.383 24.272 899.727 25.616C901.103 26.928 901.791 28.752 901.791 31.088C901.791 33.424 901.103 35.264 899.727 36.608C898.383 37.952 896.655 38.624 894.543 38.624C892.399 38.624 890.639 37.952 889.263 36.608C887.919 35.264 887.247 33.424 887.247 31.088ZM894.495 26.912C892.479 26.912 891.471 28.304 891.471 31.088C891.471 33.872 892.479 35.264 894.495 35.264C896.511 35.264 897.519 33.872 897.519 31.088C897.519 28.304 896.511 26.912 894.495 26.912ZM63.0494 105.656C63.0494 103 63.5934 100.648 64.6814 98.6C65.8014 96.552 67.3054 94.968 69.1934 93.848C71.1134 92.696 73.2414 92.12 75.5774 92.12C77.3054 92.12 79.0014 92.504 80.6654 93.272C82.3614 94.008 83.7054 95 84.6974 96.248V83.48H90.2174V119H84.6974V115.016C83.8014 116.296 82.5534 117.352 80.9534 118.184C79.3854 119.016 77.5774 119.432 75.5294 119.432C73.2254 119.432 71.1134 118.856 69.1934 117.704C67.3054 116.52 65.8014 114.888 64.6814 112.808C63.5934 110.696 63.0494 108.312 63.0494 105.656ZM84.6974 105.752C84.6974 103.928 84.3134 102.344 83.5454 101C82.8094 99.656 81.8334 98.632 80.6174 97.928C79.4014 97.224 78.0894 96.872 76.6814 96.872C75.2734 96.872 73.9614 97.224 72.7454 97.928C71.5294 98.6 70.5374 99.608 69.7694 100.952C69.0334 102.264 68.6654 103.832 68.6654 105.656C68.6654 107.48 69.0334 109.08 69.7694 110.456C70.5374 111.832 71.5294 112.888 72.7454 113.624C73.9934 114.328 75.3054 114.68 76.6814 114.68C78.0894 114.68 79.4014 114.328 80.6174 113.624C81.8334 112.92 82.8094 111.896 83.5454 110.552C84.3134 109.176 84.6974 107.576 84.6974 105.752ZM121.645 105.128C121.645 106.12 121.581 107.016 121.453 107.816H101.245C101.405 109.928 102.189 111.624 103.597 112.904C105.005 114.184 106.733 114.824 108.781 114.824C111.725 114.824 113.805 113.592 115.021 111.128H120.925C120.125 113.56 118.669 115.56 116.557 117.128C114.477 118.664 111.885 119.432 108.781 119.432C106.253 119.432 103.981 118.872 101.965 117.752C99.9807 116.6 98.4127 115 97.2607 112.952C96.1407 110.872 95.5807 108.472 95.5807 105.752C95.5807 103.032 96.1247 100.648 97.2127 98.6C98.3327 96.52 99.8847 94.92 101.869 93.8C103.885 92.68 106.189 92.12 108.781 92.12C111.277 92.12 113.501 92.664 115.453 93.752C117.405 94.84 118.925 96.376 120.013 98.36C121.101 100.312 121.645 102.568 121.645 105.128ZM115.933 103.4C115.901 101.384 115.181 99.768 113.773 98.552C112.365 97.336 110.621 96.728 108.541 96.728C106.653 96.728 105.037 97.336 103.693 98.552C102.349 99.736 101.549 101.352 101.293 103.4H115.933ZM133.414 97.016V111.656C133.414 112.648 133.638 113.368 134.086 113.816C134.566 114.232 135.366 114.44 136.486 114.44H139.846V119H135.526C133.062 119 131.174 118.424 129.862 117.272C128.55 116.12 127.894 114.248 127.894 111.656V97.016H124.774V92.552H127.894V85.976H133.414V92.552H139.846V97.016H133.414ZM169.129 105.128C169.129 106.12 169.065 107.016 168.937 107.816H148.729C148.889 109.928 149.673 111.624 151.081 112.904C152.489 114.184 154.217 114.824 156.265 114.824C159.209 114.824 161.289 113.592 162.505 111.128H168.409C167.609 113.56 166.153 115.56 164.041 117.128C161.961 118.664 159.369 119.432 156.265 119.432C153.737 119.432 151.465 118.872 149.449 117.752C147.465 116.6 145.897 115 144.745 112.952C143.625 110.872 143.065 108.472 143.065 105.752C143.065 103.032 143.609 100.648 144.697 98.6C145.817 96.52 147.369 94.92 149.353 93.8C151.369 92.68 153.673 92.12 156.265 92.12C158.761 92.12 160.985 92.664 162.937 93.752C164.889 94.84 166.409 96.376 167.497 98.36C168.585 100.312 169.129 102.568 169.129 105.128ZM163.417 103.4C163.385 101.384 162.665 99.768 161.257 98.552C159.849 97.336 158.105 96.728 156.025 96.728C154.137 96.728 152.521 97.336 151.177 98.552C149.833 99.736 149.033 101.352 148.777 103.4H163.417ZM179.986 96.392C180.786 95.048 181.842 94.008 183.154 93.272C184.498 92.504 186.082 92.12 187.906 92.12V97.784H186.514C184.37 97.784 182.738 98.328 181.618 99.416C180.53 100.504 179.986 102.392 179.986 105.08V119H174.514V92.552H179.986V96.392ZM224.952 92.12C227.032 92.12 228.888 92.552 230.52 93.416C232.184 94.28 233.48 95.56 234.408 97.256C235.368 98.952 235.848 101 235.848 103.4V119H230.424V104.216C230.424 101.848 229.832 100.04 228.648 98.792C227.464 97.512 225.848 96.872 223.8 96.872C221.752 96.872 220.12 97.512 218.904 98.792C217.72 100.04 217.128 101.848 217.128 104.216V119H211.704V104.216C211.704 101.848 211.112 100.04 209.928 98.792C208.744 97.512 207.128 96.872 205.08 96.872C203.032 96.872 201.4 97.512 200.184 98.792C199 100.04 198.408 101.848 198.408 104.216V119H192.936V92.552H198.408V95.576C199.304 94.488 200.44 93.64 201.816 93.032C203.192 92.424 204.664 92.12 206.232 92.12C208.344 92.12 210.232 92.568 211.896 93.464C213.56 94.36 214.84 95.656 215.736 97.352C216.536 95.752 217.784 94.488 219.48 93.56C221.176 92.6 223 92.12 224.952 92.12ZM245.595 89.048C244.603 89.048 243.771 88.712 243.099 88.04C242.427 87.368 242.091 86.536 242.091 85.544C242.091 84.552 242.427 83.72 243.099 83.048C243.771 82.376 244.603 82.04 245.595 82.04C246.555 82.04 247.371 82.376 248.043 83.048C248.715 83.72 249.051 84.552 249.051 85.544C249.051 86.536 248.715 87.368 248.043 88.04C247.371 88.712 246.555 89.048 245.595 89.048ZM248.283 92.552V119H242.811V92.552H248.283ZM268.811 92.12C270.891 92.12 272.747 92.552 274.379 93.416C276.043 94.28 277.339 95.56 278.267 97.256C279.195 98.952 279.659 101 279.659 103.4V119H274.235V104.216C274.235 101.848 273.643 100.04 272.459 98.792C271.275 97.512 269.659 96.872 267.611 96.872C265.563 96.872 263.931 97.512 262.715 98.792C261.531 100.04 260.939 101.848 260.939 104.216V119H255.467V92.552H260.939V95.576C261.835 94.488 262.971 93.64 264.347 93.032C265.755 92.424 267.243 92.12 268.811 92.12ZM284.815 105.656C284.815 103 285.359 100.648 286.447 98.6C287.567 96.552 289.071 94.968 290.959 93.848C292.879 92.696 294.991 92.12 297.295 92.12C299.375 92.12 301.183 92.536 302.719 93.368C304.287 94.168 305.535 95.176 306.463 96.392V92.552H311.983V119H306.463V115.064C305.535 116.312 304.271 117.352 302.671 118.184C301.071 119.016 299.247 119.432 297.199 119.432C294.927 119.432 292.847 118.856 290.959 117.704C289.071 116.52 287.567 114.888 286.447 112.808C285.359 110.696 284.815 108.312 284.815 105.656ZM306.463 105.752C306.463 103.928 306.079 102.344 305.311 101C304.575 99.656 303.599 98.632 302.383 97.928C301.167 97.224 299.855 96.872 298.447 96.872C297.039 96.872 295.727 97.224 294.511 97.928C293.295 98.6 292.303 99.608 291.535 100.952C290.799 102.264 290.431 103.832 290.431 105.656C290.431 107.48 290.799 109.08 291.535 110.456C292.303 111.832 293.295 112.888 294.511 113.624C295.759 114.328 297.071 114.68 298.447 114.68C299.855 114.68 301.167 114.328 302.383 113.624C303.599 112.92 304.575 111.896 305.311 110.552C306.079 109.176 306.463 107.576 306.463 105.752ZM325.554 97.016V111.656C325.554 112.648 325.778 113.368 326.226 113.816C326.706 114.232 327.506 114.44 328.626 114.44H331.986V119H327.666C325.202 119 323.314 118.424 322.002 117.272C320.69 116.12 320.034 114.248 320.034 111.656V97.016H316.914V92.552H320.034V85.976H325.554V92.552H331.986V97.016H325.554ZM339.814 89.048C338.822 89.048 337.99 88.712 337.318 88.04C336.646 87.368 336.31 86.536 336.31 85.544C336.31 84.552 336.646 83.72 337.318 83.048C337.99 82.376 338.822 82.04 339.814 82.04C340.774 82.04 341.59 82.376 342.262 83.048C342.934 83.72 343.27 84.552 343.27 85.544C343.27 86.536 342.934 87.368 342.262 88.04C341.59 88.712 340.774 89.048 339.814 89.048ZM342.502 92.552V119H337.03V92.552H342.502ZM361.158 119.432C358.662 119.432 356.406 118.872 354.39 117.752C352.374 116.6 350.79 115 349.638 112.952C348.486 110.872 347.91 108.472 347.91 105.752C347.91 103.064 348.502 100.68 349.686 98.6C350.87 96.52 352.486 94.92 354.534 93.8C356.582 92.68 358.87 92.12 361.398 92.12C363.926 92.12 366.214 92.68 368.262 93.8C370.31 94.92 371.926 96.52 373.11 98.6C374.294 100.68 374.886 103.064 374.886 105.752C374.886 108.44 374.278 110.824 373.062 112.904C371.846 114.984 370.182 116.6 368.07 117.752C365.99 118.872 363.686 119.432 361.158 119.432ZM361.158 114.68C362.566 114.68 363.878 114.344 365.094 113.672C366.342 113 367.35 111.992 368.118 110.648C368.886 109.304 369.27 107.672 369.27 105.752C369.27 103.832 368.902 102.216 368.166 100.904C367.43 99.56 366.454 98.552 365.238 97.88C364.022 97.208 362.71 96.872 361.302 96.872C359.894 96.872 358.582 97.208 357.366 97.88C356.182 98.552 355.238 99.56 354.534 100.904C353.83 102.216 353.478 103.832 353.478 105.752C353.478 108.6 354.198 110.808 355.638 112.376C357.11 113.912 358.95 114.68 361.158 114.68ZM393.639 92.12C395.719 92.12 397.575 92.552 399.207 93.416C400.871 94.28 402.167 95.56 403.095 97.256C404.023 98.952 404.487 101 404.487 103.4V119H399.063V104.216C399.063 101.848 398.471 100.04 397.287 98.792C396.103 97.512 394.487 96.872 392.439 96.872C390.391 96.872 388.759 97.512 387.543 98.792C386.359 100.04 385.767 101.848 385.767 104.216V119H380.295V92.552H385.767V95.576C386.663 94.488 387.799 93.64 389.175 93.032C390.583 92.424 392.071 92.12 393.639 92.12ZM430.32 97.016V111.656C430.32 112.648 430.544 113.368 430.992 113.816C431.472 114.232 432.272 114.44 433.392 114.44H436.752V119H432.432C429.968 119 428.08 118.424 426.768 117.272C425.456 116.12 424.8 114.248 424.8 111.656V97.016H421.68V92.552H424.8V85.976H430.32V92.552H436.752V97.016H430.32ZM453.267 119.432C450.771 119.432 448.515 118.872 446.499 117.752C444.483 116.6 442.899 115 441.747 112.952C440.595 110.872 440.019 108.472 440.019 105.752C440.019 103.064 440.611 100.68 441.795 98.6C442.979 96.52 444.595 94.92 446.643 93.8C448.691 92.68 450.979 92.12 453.507 92.12C456.035 92.12 458.323 92.68 460.371 93.8C462.419 94.92 464.035 96.52 465.219 98.6C466.403 100.68 466.995 103.064 466.995 105.752C466.995 108.44 466.387 110.824 465.171 112.904C463.955 114.984 462.291 116.6 460.179 117.752C458.099 118.872 455.795 119.432 453.267 119.432ZM453.267 114.68C454.675 114.68 455.987 114.344 457.203 113.672C458.451 113 459.459 111.992 460.227 110.648C460.995 109.304 461.379 107.672 461.379 105.752C461.379 103.832 461.011 102.216 460.275 100.904C459.539 99.56 458.563 98.552 457.347 97.88C456.131 97.208 454.819 96.872 453.411 96.872C452.003 96.872 450.691 97.208 449.475 97.88C448.291 98.552 447.347 99.56 446.643 100.904C445.939 102.216 445.587 103.832 445.587 105.752C445.587 108.6 446.307 110.808 447.747 112.376C449.219 113.912 451.059 114.68 453.267 114.68ZM494.473 119.432C492.393 119.432 490.521 119.064 488.857 118.328C487.225 117.56 485.929 116.536 484.969 115.256C484.009 113.944 483.497 112.488 483.433 110.888H489.097C489.193 112.008 489.721 112.952 490.681 113.72C491.673 114.456 492.905 114.824 494.377 114.824C495.913 114.824 497.097 114.536 497.929 113.96C498.793 113.352 499.225 112.584 499.225 111.656C499.225 110.664 498.745 109.928 497.785 109.448C496.857 108.968 495.369 108.44 493.321 107.864C491.337 107.32 489.721 106.792 488.473 106.28C487.225 105.768 486.137 104.984 485.209 103.928C484.313 102.872 483.865 101.48 483.865 99.752C483.865 98.344 484.281 97.064 485.113 95.912C485.945 94.728 487.129 93.8 488.665 93.128C490.233 92.456 492.025 92.12 494.041 92.12C497.049 92.12 499.465 92.888 501.289 94.424C503.145 95.928 504.137 97.992 504.265 100.616H498.793C498.697 99.432 498.217 98.488 497.353 97.784C496.489 97.08 495.321 96.728 493.849 96.728C492.409 96.728 491.305 97 490.537 97.544C489.769 98.088 489.385 98.808 489.385 99.704C489.385 100.408 489.641 101 490.153 101.48C490.665 101.96 491.289 102.344 492.025 102.632C492.761 102.888 493.849 103.224 495.289 103.64C497.209 104.152 498.777 104.68 499.993 105.224C501.241 105.736 502.313 106.504 503.209 107.528C504.105 108.552 504.569 109.912 504.601 111.608C504.601 113.112 504.185 114.456 503.353 115.64C502.521 116.824 501.337 117.752 499.801 118.424C498.297 119.096 496.521 119.432 494.473 119.432ZM524.194 92.12C526.21 92.12 528.002 92.552 529.57 93.416C531.17 94.28 532.418 95.56 533.314 97.256C534.242 98.952 534.706 101 534.706 103.4V119H529.282V104.216C529.282 101.848 528.69 100.04 527.506 98.792C526.322 97.512 524.706 96.872 522.658 96.872C520.61 96.872 518.978 97.512 517.762 98.792C516.578 100.04 515.986 101.848 515.986 104.216V119H510.514V83.48H515.986V95.624C516.914 94.504 518.082 93.64 519.49 93.032C520.93 92.424 522.498 92.12 524.194 92.12ZM544.47 89.048C543.478 89.048 542.646 88.712 541.974 88.04C541.302 87.368 540.966 86.536 540.966 85.544C540.966 84.552 541.302 83.72 541.974 83.048C542.646 82.376 543.478 82.04 544.47 82.04C545.43 82.04 546.246 82.376 546.918 83.048C547.59 83.72 547.926 84.552 547.926 85.544C547.926 86.536 547.59 87.368 546.918 88.04C546.246 88.712 545.43 89.048 544.47 89.048ZM547.158 92.552V119H541.686V92.552H547.158ZM559.814 96.44C560.742 95.224 562.006 94.2 563.606 93.368C565.206 92.536 567.014 92.12 569.03 92.12C571.334 92.12 573.43 92.696 575.318 93.848C577.238 94.968 578.742 96.552 579.83 98.6C580.918 100.648 581.462 103 581.462 105.656C581.462 108.312 580.918 110.696 579.83 112.808C578.742 114.888 577.238 116.52 575.318 117.704C573.43 118.856 571.334 119.432 569.03 119.432C567.014 119.432 565.222 119.032 563.654 118.232C562.086 117.4 560.806 116.376 559.814 115.16V131.576H554.342V92.552H559.814V96.44ZM575.894 105.656C575.894 103.832 575.51 102.264 574.742 100.952C574.006 99.608 573.014 98.6 571.766 97.928C570.55 97.224 569.238 96.872 567.83 96.872C566.454 96.872 565.142 97.224 563.894 97.928C562.678 98.632 561.686 99.656 560.918 101C560.182 102.344 559.814 103.928 559.814 105.752C559.814 107.576 560.182 109.176 560.918 110.552C561.686 111.896 562.678 112.92 563.894 113.624C565.142 114.328 566.454 114.68 567.83 114.68C569.238 114.68 570.55 114.328 571.766 113.624C573.014 112.888 574.006 111.832 574.742 110.456C575.51 109.08 575.894 107.48 575.894 105.656Z" fill="#2A323C"/>
<path d="M603.47 84.68C600.734 84.584 599.918 81.416 600.638 79.064C601.022 77.672 602.75 74.84 604.718 74.408C605.726 74.216 605.726 74.888 605.726 75.896C604.574 75.944 602.894 76.664 602.174 77.624C602.702 77.384 603.23 77.24 603.854 77.288C605.726 77.384 607.166 79.112 607.07 81.176C606.974 83.192 605.39 84.776 603.47 84.68ZM642.749 73.064C630.173 73.544 621.245 78.104 623.309 93.56C623.597 93.704 624.125 93.752 624.461 93.944C626.333 94.904 622.829 97.4 622.301 93.608C620.045 76.184 631.229 71.816 646.205 72.056C646.925 71.816 648.029 71.672 648.749 71.816C650.333 72.152 649.325 74.024 648.317 73.544C643.373 71.192 642.605 79.592 641.405 90.056C643.469 82.856 647.213 73.88 654.365 73.928C666.941 73.976 665.789 99.752 640.253 98.648C638.333 110.36 634.349 121.736 622.397 121.592C606.509 121.4 607.949 96.536 623.309 96.584C626.429 96.584 629.165 97.928 630.077 100.664C630.317 101.288 630.365 101.768 630.365 102.152C630.365 103.784 628.349 103.208 628.589 102.104C628.733 101.72 629.165 101 629.021 100.616C628.109 98.552 625.997 97.496 623.597 97.496C611.213 97.544 609.917 119.672 622.349 119.672C637.421 119.72 629.645 79.832 642.749 73.064ZM640.493 97.64C656.045 97.832 657.965 74.792 653.645 75.368C645.677 76.424 642.557 89 641.021 95.48C640.829 96.248 640.685 96.968 640.493 97.64ZM674.382 101.672C674.478 101.24 675.486 101.24 675.342 101.768C673.614 108.632 668.574 120.296 659.982 119.96C651.582 119.624 650.286 112.376 652.734 105.752C653.886 102.632 655.902 99.8 658.542 98.072C660.174 97.064 662.286 96.392 664.206 96.44C666.942 96.584 669.15 98.456 668.766 101.336C668.19 105.8 663.102 107.48 658.974 107.576C657.39 112.76 657.246 118.088 660.846 118.136C668.478 118.232 672.894 107.672 674.382 101.672ZM665.358 98.312C662.334 98.216 660.03 104.168 659.262 106.52C662.862 106.376 666.462 104.984 666.942 101.192C667.23 99.032 666.366 98.36 665.358 98.312ZM692.974 101.672C693.07 101.24 694.03 101.24 693.934 101.768C692.782 106.328 688.654 120.392 682.51 120.392C670.654 120.392 677.47 105.752 679.15 101.48C678.094 100.808 676.942 100.136 675.934 99.56L675.31 102.104C675.166 102.536 674.206 102.44 674.35 101.96C674.542 101.192 674.83 100.136 675.07 99.032C673.774 98.072 672.718 96.632 673.39 94.952C673.63 94.424 673.966 93.944 674.446 93.608C676.606 92.312 677.374 94.568 677.23 94.376C676.894 95.768 676.558 97.208 676.174 98.6C678.19 99.752 685.198 103.928 685.726 104.216C684.67 106.808 679.486 117.272 683.182 118.52C683.95 118.76 684.91 118.472 685.87 117.56C689.422 114.248 692.158 104.84 692.974 101.672ZM709.617 101.672C709.713 101.24 710.721 101.24 710.577 101.768C709.137 107.48 703.857 109.256 698.769 108.92C704.145 115.256 700.833 124.952 695.601 124.952C691.425 124.952 690.369 122.984 689.889 120.296C689.457 113.192 695.169 87.512 698.625 80.648C700.161 77.72 703.089 76.28 705.489 76.52C707.409 76.712 709.137 77.912 709.953 80.264C710.097 80.648 710.193 81.08 710.241 81.512C710.481 84.248 709.137 87.608 707.745 90.44C704.961 95.96 700.689 101.864 698.625 103.928C698.385 105.272 697.953 106.616 697.713 107.864C697.809 107.864 697.905 107.912 698.001 107.912C702.849 108.488 708.225 107.144 709.617 101.672ZM706.929 80.84C702.657 80.696 699.825 98.072 699.009 102.2C701.169 99.608 704.529 94.76 706.881 90.104C707.409 89 708.561 86.504 708.897 84.344C709.233 81.944 708.225 80.888 706.929 80.84ZM696.801 122.312C700.977 122.264 702.417 113.96 697.521 109.016C697.041 111.56 694.305 122.312 696.801 122.312ZM728.898 101.672C728.994 101.24 730.002 101.24 729.858 101.768C728.13 108.632 723.09 120.296 714.498 119.96C706.098 119.624 704.802 112.376 707.25 105.752C708.402 102.632 710.418 99.8 713.058 98.072C714.69 97.064 716.802 96.392 718.722 96.44C721.458 96.584 723.666 98.456 723.282 101.336C722.706 105.8 717.618 107.48 713.49 107.576C711.906 112.76 711.762 118.088 715.362 118.136C722.994 118.232 727.41 107.672 728.898 101.672ZM719.874 98.312C716.85 98.216 714.546 104.168 713.778 106.52C717.378 106.376 720.978 104.984 721.458 101.192C721.746 99.032 720.882 98.36 719.874 98.312ZM748.162 101.672C748.258 101.24 749.266 101.24 749.122 101.768C747.394 108.632 742.354 120.296 733.762 119.96C725.362 119.624 724.066 112.376 726.514 105.752C728.434 100.52 732.85 95.912 738.706 96.536C742.498 96.968 742.882 100.808 741.538 103.352C741.058 104.36 739.57 103.736 738.37 103.496C740.434 102.248 741.394 98.072 738.658 97.976C734.77 98.264 727.666 117.848 734.626 117.944C742.258 118.04 746.674 107.672 748.162 101.672ZM764.164 101.672C764.308 101.24 765.268 101.24 765.172 101.768C763.588 108.104 760.324 120.824 751.732 120.008C748.804 119.72 746.308 117.752 746.26 114.248C746.212 108.824 748.564 99.608 750.244 92.072C747.22 92.36 744.388 92.312 742.612 91.064C742.228 90.776 742.66 90.536 742.996 90.152C744.532 91.4 747.364 91.4 750.484 91.064L751.924 84.632C755.332 84.44 758.788 83.912 758.356 86.552C758.212 87.512 757.972 88.712 757.636 90.152C760.804 89.912 763.396 90.104 764.356 91.976C764.644 92.456 764.164 92.408 763.636 92.648C762.964 91.016 760.468 90.872 757.444 91.16C755.428 100.568 751.156 116.936 754.852 116.936C759.748 116.936 763.108 106.04 764.164 101.672ZM769.06 96.344C767.284 96.344 765.844 94.76 765.844 92.792C765.844 90.872 767.284 89.288 769.06 89.288C770.884 89.288 772.324 90.872 772.324 92.792C772.324 94.76 770.884 96.344 769.06 96.344ZM778.036 101.672C778.132 101.24 779.14 101.24 778.996 101.768C777.844 106.328 774.1 119 767.956 119C760.036 119 761.188 112.088 762.724 105.752C763.396 103.016 764.26 100.376 765.124 97.688C769.972 97.736 771.7 97.352 770.98 99.752C769.444 105.032 765.508 117.08 768.964 117.128C769.78 117.128 770.692 116.744 771.316 116.168C774.868 112.856 777.22 104.84 778.036 101.672ZM799.399 101.672C799.495 101.24 800.503 101.24 800.359 101.768C799.207 106.376 796.999 113.096 791.815 114.104C789.559 118.376 785.479 121.448 780.535 120.008C769.303 116.744 775.831 94.952 787.159 97.256C794.119 98.696 795.031 106.76 792.391 112.952C796.423 111.56 798.391 105.656 799.399 101.672ZM791.047 106.904C791.479 102.92 790.663 99.368 787.975 98.984C783.079 98.36 777.895 116.216 782.647 117.992C785.191 119 787.399 116.984 788.983 114.008C784.423 112.616 785.095 106.232 789.175 106.232C789.847 106.232 790.519 106.472 791.047 106.904ZM825.046 101.672C825.19 101.24 826.15 101.24 826.006 101.768C825.046 105.8 819.574 121.112 813.526 120.488C811.174 120.296 809.302 119.336 808.534 117.992C805.942 113.192 813.19 99.992 811.222 99.896C807.238 99.704 803.014 115.544 802.534 119C802.438 119.192 796.15 119.816 796.534 116.744C797.35 110.264 798.934 101.864 799.702 98.696C799.894 98.072 806.71 96.344 805.654 100.424C804.838 103.544 804.262 106.904 803.734 110.216C805.462 104.456 808.102 98.12 811.798 98.12C824.422 98.12 810.79 117.656 814.486 118.136C819.094 118.808 824.278 104.792 825.046 101.672ZM832.927 74.312C835.663 74.408 836.479 77.576 835.759 79.928C835.375 81.32 833.647 84.152 831.679 84.584C830.671 84.776 830.671 84.104 830.671 83.096C831.823 83.048 833.503 82.328 834.223 81.368C833.695 81.608 833.167 81.752 832.543 81.704C830.671 81.608 829.231 79.88 829.327 77.816C829.423 75.8 831.007 74.216 832.927 74.312Z" fill="url(#paint0_linear_11047_6241)"/>
<defs>
<linearGradient id="paint0_linear_11047_6241" x1="618.5" y1="118.302" x2="863.5" y2="118.302" gradientUnits="userSpaceOnUse">
<stop stop-color="#EC0992"/>
<stop offset="1" stop-color="#0D77FB"/>
</linearGradient>
</defs>
</svg>
