<svg width="902" height="122" viewBox="0 0 902 122" fill="none" xmlns="http://www.w3.org/2000/svg">
<path d="M17.6233 37.0508L9.94331 23.7068H5.76731V37.0508H0.295313V3.69078H11.8153C14.3753 3.69078 16.5353 4.13878 18.2953 5.03478C20.0873 5.93078 21.4153 7.13078 22.2793 8.63478C23.1753 10.1388 23.6233 11.8188 23.6233 13.6748C23.6233 15.8508 22.9833 17.8348 21.7033 19.6268C20.4553 21.3868 18.5193 22.5868 15.8953 23.2268L24.1513 37.0508H17.6233ZM5.76731 19.3388H11.8153C13.8633 19.3388 15.3993 18.8268 16.4233 17.8028C17.4793 16.7788 18.0073 15.4028 18.0073 13.6748C18.0073 11.9468 17.4953 10.6028 16.4713 9.64278C15.4473 8.65078 13.8953 8.15478 11.8153 8.15478H5.76731V19.3388ZM54.5754 10.6028V37.0508H49.1034V33.9308C48.2394 35.0188 47.1034 35.8828 45.6954 36.5228C44.3194 37.1308 42.8474 37.4348 41.2794 37.4348C39.1994 37.4348 37.3274 37.0028 35.6634 36.1388C34.0314 35.2748 32.7354 33.9948 31.7754 32.2988C30.8474 30.6028 30.3834 28.5548 30.3834 26.1548V10.6028H35.8074V25.3388C35.8074 27.7068 36.3994 29.5308 37.5834 30.8108C38.7674 32.0588 40.3834 32.6828 42.4314 32.6828C44.4794 32.6828 46.0954 32.0588 47.2794 30.8108C48.4954 29.5308 49.1034 27.7068 49.1034 25.3388V10.6028H54.5754ZM75.1393 10.1708C77.2193 10.1708 79.0753 10.6028 80.7073 11.4668C82.3713 12.3308 83.6673 13.6108 84.5953 15.3068C85.5233 17.0028 85.9873 19.0508 85.9873 21.4508V37.0508H80.5633V22.2668C80.5633 19.8988 79.9713 18.0908 78.7873 16.8428C77.6033 15.5628 75.9873 14.9228 73.9393 14.9228C71.8913 14.9228 70.2593 15.5628 69.0433 16.8428C67.8593 18.0908 67.2673 19.8988 67.2673 22.2668V37.0508H61.7953V10.6028H67.2673V13.6268C68.1633 12.5388 69.2993 11.6908 70.6753 11.0828C72.0833 10.4748 73.5713 10.1708 75.1393 10.1708ZM106.311 10.1708C108.391 10.1708 110.247 10.6028 111.879 11.4668C113.543 12.3308 114.839 13.6108 115.767 15.3068C116.695 17.0028 117.159 19.0508 117.159 21.4508V37.0508H111.735V22.2668C111.735 19.8988 111.143 18.0908 109.959 16.8428C108.775 15.5628 107.159 14.9228 105.111 14.9228C103.063 14.9228 101.431 15.5628 100.215 16.8428C99.0312 18.0908 98.4392 19.8988 98.4392 22.2668V37.0508H92.9672V10.6028H98.4392V13.6268C99.3352 12.5388 100.471 11.6908 101.847 11.0828C103.255 10.4748 104.743 10.1708 106.311 10.1708ZM126.923 7.09878C125.931 7.09878 125.099 6.76278 124.427 6.09078C123.755 5.41878 123.419 4.58678 123.419 3.59478C123.419 2.60278 123.755 1.77078 124.427 1.09878C125.099 0.42678 125.931 0.0907793 126.923 0.0907793C127.883 0.0907793 128.699 0.42678 129.371 1.09878C130.043 1.77078 130.379 2.60278 130.379 3.59478C130.379 4.58678 130.043 5.41878 129.371 6.09078C128.699 6.76278 127.883 7.09878 126.923 7.09878ZM129.611 10.6028V37.0508H124.139V10.6028H129.611ZM150.139 10.1708C152.219 10.1708 154.075 10.6028 155.707 11.4668C157.371 12.3308 158.667 13.6108 159.595 15.3068C160.523 17.0028 160.987 19.0508 160.987 21.4508V37.0508H155.563V22.2668C155.563 19.8988 154.971 18.0908 153.787 16.8428C152.603 15.5628 150.987 14.9228 148.939 14.9228C146.891 14.9228 145.259 15.5628 144.043 16.8428C142.859 18.0908 142.267 19.8988 142.267 22.2668V37.0508H136.795V10.6028H142.267V13.6268C143.163 12.5388 144.299 11.6908 145.675 11.0828C147.083 10.4748 148.571 10.1708 150.139 10.1708ZM178.623 10.1708C180.671 10.1708 182.479 10.5868 184.047 11.4188C185.647 12.2188 186.895 13.2268 187.791 14.4428V10.6028H193.311V37.4828C193.311 39.9148 192.799 42.0748 191.775 43.9628C190.751 45.8828 189.263 47.3868 187.311 48.4748C185.391 49.5628 183.087 50.1068 180.399 50.1068C176.815 50.1068 173.839 49.2588 171.471 47.5628C169.103 45.8988 167.759 43.6268 167.439 40.7468H172.863C173.279 42.1228 174.159 43.2268 175.503 44.0588C176.879 44.9228 178.511 45.3548 180.399 45.3548C182.607 45.3548 184.383 44.6828 185.727 43.3388C187.103 41.9948 187.791 40.0428 187.791 37.4828V33.0668C186.863 34.3148 185.599 35.3708 183.999 36.2348C182.431 37.0668 180.639 37.4828 178.623 37.4828C176.319 37.4828 174.207 36.9068 172.287 35.7548C170.399 34.5708 168.895 32.9388 167.775 30.8588C166.687 28.7468 166.143 26.3628 166.143 23.7068C166.143 21.0508 166.687 18.6988 167.775 16.6508C168.895 14.6028 170.399 13.0188 172.287 11.8988C174.207 10.7468 176.319 10.1708 178.623 10.1708ZM187.791 23.8028C187.791 21.9788 187.407 20.3948 186.639 19.0508C185.903 17.7068 184.927 16.6828 183.711 15.9788C182.495 15.2748 181.183 14.9228 179.775 14.9228C178.367 14.9228 177.055 15.2748 175.839 15.9788C174.623 16.6508 173.631 17.6588 172.863 19.0028C172.127 20.3148 171.759 21.8828 171.759 23.7068C171.759 25.5308 172.127 27.1308 172.863 28.5068C173.631 29.8828 174.623 30.9388 175.839 31.6748C177.087 32.3788 178.399 32.7308 179.775 32.7308C181.183 32.7308 182.495 32.3788 183.711 31.6748C184.927 30.9708 185.903 29.9468 186.639 28.6028C187.407 27.2268 187.791 25.6268 187.791 23.8028ZM224.439 37.4828C221.943 37.4828 219.687 36.9228 217.671 35.8028C215.655 34.6508 214.071 33.0508 212.919 31.0028C211.767 28.9228 211.191 26.5228 211.191 23.8028C211.191 21.1148 211.783 18.7308 212.967 16.6508C214.151 14.5708 215.767 12.9708 217.815 11.8508C219.863 10.7308 222.151 10.1708 224.679 10.1708C227.207 10.1708 229.495 10.7308 231.543 11.8508C233.591 12.9708 235.207 14.5708 236.391 16.6508C237.575 18.7308 238.167 21.1148 238.167 23.8028C238.167 26.4908 237.559 28.8748 236.343 30.9548C235.127 33.0348 233.463 34.6508 231.351 35.8028C229.271 36.9228 226.967 37.4828 224.439 37.4828ZM224.439 32.7308C225.847 32.7308 227.159 32.3948 228.375 31.7228C229.623 31.0508 230.631 30.0428 231.399 28.6988C232.167 27.3548 232.551 25.7228 232.551 23.8028C232.551 21.8828 232.183 20.2668 231.447 18.9548C230.711 17.6108 229.735 16.6028 228.519 15.9308C227.303 15.2588 225.991 14.9228 224.583 14.9228C223.175 14.9228 221.863 15.2588 220.647 15.9308C219.463 16.6028 218.519 17.6108 217.815 18.9548C217.111 20.2668 216.759 21.8828 216.759 23.8028C216.759 26.6508 217.479 28.8588 218.919 30.4268C220.391 31.9628 222.231 32.7308 224.439 32.7308ZM256.921 10.1708C259.001 10.1708 260.857 10.6028 262.489 11.4668C264.153 12.3308 265.449 13.6108 266.377 15.3068C267.305 17.0028 267.769 19.0508 267.769 21.4508V37.0508H262.345V22.2668C262.345 19.8988 261.753 18.0908 260.569 16.8428C259.385 15.5628 257.769 14.9228 255.721 14.9228C253.673 14.9228 252.041 15.5628 250.825 16.8428C249.641 18.0908 249.049 19.8988 249.049 22.2668V37.0508H243.577V10.6028H249.049V13.6268C249.945 12.5388 251.081 11.6908 252.457 11.0828C253.865 10.4748 255.353 10.1708 256.921 10.1708ZM285.825 29.7548V25.6268L301.953 2.49078H308.577V25.0028H313.041V29.7548H308.577V37.0508H303.201V29.7548H285.825ZM303.441 8.05878L292.113 25.0028H303.441V8.05878ZM344.444 10.1708C346.46 10.1708 348.252 10.6028 349.82 11.4668C351.42 12.3308 352.668 13.6108 353.564 15.3068C354.492 17.0028 354.956 19.0508 354.956 21.4508V37.0508H349.532V22.2668C349.532 19.8988 348.94 18.0908 347.756 16.8428C346.572 15.5628 344.956 14.9228 342.908 14.9228C340.86 14.9228 339.228 15.5628 338.012 16.8428C336.828 18.0908 336.236 19.8988 336.236 22.2668V37.0508H330.764V1.53078H336.236V13.6748C337.164 12.5548 338.332 11.6908 339.74 11.0828C341.18 10.4748 342.748 10.1708 344.444 10.1708ZM373.408 37.4828C370.912 37.4828 368.656 36.9228 366.64 35.8028C364.624 34.6508 363.04 33.0508 361.888 31.0028C360.736 28.9228 360.16 26.5228 360.16 23.8028C360.16 21.1148 360.752 18.7308 361.936 16.6508C363.12 14.5708 364.736 12.9708 366.784 11.8508C368.832 10.7308 371.12 10.1708 373.648 10.1708C376.176 10.1708 378.464 10.7308 380.512 11.8508C382.56 12.9708 384.176 14.5708 385.36 16.6508C386.544 18.7308 387.136 21.1148 387.136 23.8028C387.136 26.4908 386.528 28.8748 385.312 30.9548C384.096 33.0348 382.432 34.6508 380.32 35.8028C378.24 36.9228 375.936 37.4828 373.408 37.4828ZM373.408 32.7308C374.816 32.7308 376.128 32.3948 377.344 31.7228C378.592 31.0508 379.6 30.0428 380.368 28.6988C381.136 27.3548 381.52 25.7228 381.52 23.8028C381.52 21.8828 381.152 20.2668 380.416 18.9548C379.68 17.6108 378.704 16.6028 377.488 15.9308C376.272 15.2588 374.96 14.9228 373.552 14.9228C372.144 14.9228 370.832 15.2588 369.616 15.9308C368.432 16.6028 367.488 17.6108 366.784 18.9548C366.08 20.2668 365.728 21.8828 365.728 23.8028C365.728 26.6508 366.448 28.8588 367.888 30.4268C369.36 31.9628 371.2 32.7308 373.408 32.7308ZM416.497 10.6028V37.0508H411.025V33.9308C410.161 35.0188 409.025 35.8828 407.617 36.5228C406.241 37.1308 404.769 37.4348 403.201 37.4348C401.121 37.4348 399.249 37.0028 397.585 36.1388C395.953 35.2748 394.657 33.9948 393.697 32.2988C392.769 30.6028 392.305 28.5548 392.305 26.1548V10.6028H397.729V25.3388C397.729 27.7068 398.321 29.5308 399.505 30.8108C400.689 32.0588 402.305 32.6828 404.353 32.6828C406.401 32.6828 408.017 32.0588 409.201 30.8108C410.417 29.5308 411.025 27.7068 411.025 25.3388V10.6028H416.497ZM429.189 14.4428C429.989 13.0988 431.045 12.0588 432.357 11.3228C433.701 10.5548 435.285 10.1708 437.109 10.1708V15.8348H435.717C433.573 15.8348 431.941 16.3788 430.821 17.4668C429.733 18.5548 429.189 20.4428 429.189 23.1308V37.0508H423.717V10.6028H429.189V14.4428ZM451.739 37.4828C449.659 37.4828 447.787 37.1148 446.123 36.3788C444.491 35.6108 443.195 34.5868 442.235 33.3068C441.275 31.9948 440.763 30.5388 440.699 28.9388H446.363C446.459 30.0588 446.987 31.0028 447.947 31.7708C448.939 32.5068 450.171 32.8748 451.643 32.8748C453.179 32.8748 454.363 32.5868 455.195 32.0108C456.059 31.4028 456.491 30.6348 456.491 29.7068C456.491 28.7148 456.011 27.9788 455.051 27.4988C454.123 27.0188 452.635 26.4908 450.587 25.9148C448.603 25.3708 446.987 24.8428 445.739 24.3308C444.491 23.8188 443.403 23.0348 442.475 21.9788C441.579 20.9228 441.131 19.5308 441.131 17.8028C441.131 16.3948 441.547 15.1148 442.379 13.9628C443.211 12.7788 444.395 11.8508 445.931 11.1788C447.499 10.5068 449.291 10.1708 451.307 10.1708C454.315 10.1708 456.731 10.9388 458.555 12.4748C460.411 13.9788 461.403 16.0428 461.531 18.6668H456.059C455.963 17.4828 455.483 16.5388 454.619 15.8348C453.755 15.1308 452.587 14.7788 451.115 14.7788C449.675 14.7788 448.571 15.0508 447.803 15.5948C447.035 16.1388 446.651 16.8588 446.651 17.7548C446.651 18.4588 446.907 19.0508 447.419 19.5308C447.931 20.0108 448.555 20.3948 449.291 20.6828C450.027 20.9388 451.115 21.2748 452.555 21.6908C454.475 22.2028 456.043 22.7308 457.259 23.2748C458.507 23.7868 459.579 24.5548 460.475 25.5788C461.371 26.6028 461.835 27.9628 461.867 29.6588C461.867 31.1628 461.451 32.5068 460.619 33.6908C459.787 34.8748 458.603 35.8028 457.067 36.4748C455.563 37.1468 453.787 37.4828 451.739 37.4828ZM491.72 37.4828C489.224 37.4828 486.968 36.9228 484.952 35.8028C482.936 34.6508 481.352 33.0508 480.2 31.0028C479.048 28.9228 478.472 26.5228 478.472 23.8028C478.472 21.1148 479.064 18.7308 480.248 16.6508C481.432 14.5708 483.048 12.9708 485.096 11.8508C487.144 10.7308 489.432 10.1708 491.96 10.1708C494.488 10.1708 496.776 10.7308 498.824 11.8508C500.872 12.9708 502.488 14.5708 503.672 16.6508C504.856 18.7308 505.448 21.1148 505.448 23.8028C505.448 26.4908 504.84 28.8748 503.624 30.9548C502.408 33.0348 500.744 34.6508 498.632 35.8028C496.552 36.9228 494.248 37.4828 491.72 37.4828ZM491.72 32.7308C493.128 32.7308 494.44 32.3948 495.656 31.7228C496.904 31.0508 497.912 30.0428 498.68 28.6988C499.448 27.3548 499.832 25.7228 499.832 23.8028C499.832 21.8828 499.464 20.2668 498.728 18.9548C497.992 17.6108 497.016 16.6028 495.8 15.9308C494.584 15.2588 493.272 14.9228 491.864 14.9228C490.456 14.9228 489.144 15.2588 487.928 15.9308C486.744 16.6028 485.8 17.6108 485.096 18.9548C484.392 20.2668 484.04 21.8828 484.04 23.8028C484.04 26.6508 484.76 28.8588 486.2 30.4268C487.672 31.9628 489.512 32.7308 491.72 32.7308ZM521.946 15.0668H517.05V37.0508H511.53V15.0668H508.41V10.6028H511.53V8.73078C511.53 5.69078 512.33 3.48278 513.93 2.10678C515.562 0.69878 518.106 -0.00521946 521.562 -0.00521946V4.55478C519.898 4.55478 518.73 4.87478 518.058 5.51478C517.386 6.12278 517.05 7.19478 517.05 8.73078V10.6028H521.946V15.0668ZM548.864 37.4828C546.784 37.4828 544.912 37.1148 543.248 36.3788C541.616 35.6108 540.32 34.5868 539.36 33.3068C538.4 31.9948 537.888 30.5388 537.824 28.9388H543.488C543.584 30.0588 544.112 31.0028 545.072 31.7708C546.064 32.5068 547.296 32.8748 548.768 32.8748C550.304 32.8748 551.488 32.5868 552.32 32.0108C553.184 31.4028 553.616 30.6348 553.616 29.7068C553.616 28.7148 553.136 27.9788 552.176 27.4988C551.248 27.0188 549.76 26.4908 547.712 25.9148C545.728 25.3708 544.112 24.8428 542.864 24.3308C541.616 23.8188 540.528 23.0348 539.6 21.9788C538.704 20.9228 538.256 19.5308 538.256 17.8028C538.256 16.3948 538.672 15.1148 539.504 13.9628C540.336 12.7788 541.52 11.8508 543.056 11.1788C544.624 10.5068 546.416 10.1708 548.432 10.1708C551.44 10.1708 553.856 10.9388 555.68 12.4748C557.536 13.9788 558.528 16.0428 558.656 18.6668H553.184C553.088 17.4828 552.608 16.5388 551.744 15.8348C550.88 15.1308 549.712 14.7788 548.24 14.7788C546.8 14.7788 545.696 15.0508 544.928 15.5948C544.16 16.1388 543.776 16.8588 543.776 17.7548C543.776 18.4588 544.032 19.0508 544.544 19.5308C545.056 20.0108 545.68 20.3948 546.416 20.6828C547.152 20.9388 548.24 21.2748 549.68 21.6908C551.6 22.2028 553.168 22.7308 554.384 23.2748C555.632 23.7868 556.704 24.5548 557.6 25.5788C558.496 26.6028 558.96 27.9628 558.992 29.6588C558.992 31.1628 558.576 32.5068 557.744 33.6908C556.912 34.8748 555.728 35.8028 554.192 36.4748C552.688 37.1468 550.912 37.4828 548.864 37.4828ZM570.377 1.53078V37.0508H564.905V1.53078H570.377ZM601.801 23.1788C601.801 24.1708 601.737 25.0668 601.609 25.8668H581.401C581.561 27.9788 582.345 29.6748 583.753 30.9548C585.161 32.2348 586.889 32.8748 588.937 32.8748C591.881 32.8748 593.961 31.6428 595.177 29.1788H601.081C600.281 31.6108 598.825 33.6108 596.713 35.1788C594.633 36.7148 592.041 37.4828 588.937 37.4828C586.409 37.4828 584.137 36.9228 582.121 35.8028C580.137 34.6508 578.569 33.0508 577.417 31.0028C576.297 28.9228 575.737 26.5228 575.737 23.8028C575.737 21.0828 576.281 18.6988 577.369 16.6508C578.489 14.5708 580.041 12.9708 582.025 11.8508C584.041 10.7308 586.345 10.1708 588.937 10.1708C591.433 10.1708 593.657 10.7148 595.609 11.8028C597.561 12.8908 599.081 14.4268 600.169 16.4108C601.257 18.3628 601.801 20.6188 601.801 23.1788ZM596.089 21.4508C596.057 19.4348 595.337 17.8188 593.929 16.6028C592.521 15.3868 590.777 14.7788 588.697 14.7788C586.809 14.7788 585.193 15.3868 583.849 16.6028C582.505 17.7868 581.705 19.4028 581.449 21.4508H596.089ZM631.426 23.1788C631.426 24.1708 631.362 25.0668 631.234 25.8668H611.026C611.186 27.9788 611.97 29.6748 613.378 30.9548C614.786 32.2348 616.514 32.8748 618.562 32.8748C621.506 32.8748 623.586 31.6428 624.802 29.1788H630.706C629.906 31.6108 628.45 33.6108 626.338 35.1788C624.258 36.7148 621.666 37.4828 618.562 37.4828C616.034 37.4828 613.762 36.9228 611.746 35.8028C609.762 34.6508 608.194 33.0508 607.042 31.0028C605.922 28.9228 605.362 26.5228 605.362 23.8028C605.362 21.0828 605.906 18.6988 606.994 16.6508C608.114 14.5708 609.666 12.9708 611.65 11.8508C613.666 10.7308 615.97 10.1708 618.562 10.1708C621.058 10.1708 623.282 10.7148 625.234 11.8028C627.186 12.8908 628.706 14.4268 629.794 16.4108C630.882 18.3628 631.426 20.6188 631.426 23.1788ZM625.714 21.4508C625.682 19.4348 624.962 17.8188 623.554 16.6028C622.146 15.3868 620.402 14.7788 618.322 14.7788C616.434 14.7788 614.818 15.3868 613.474 16.6028C612.13 17.7868 611.33 19.4028 611.074 21.4508H625.714ZM642.283 14.4908C643.211 13.2748 644.475 12.2508 646.075 11.4188C647.675 10.5868 649.483 10.1708 651.499 10.1708C653.803 10.1708 655.899 10.7468 657.787 11.8988C659.707 13.0188 661.211 14.6028 662.299 16.6508C663.387 18.6988 663.931 21.0508 663.931 23.7068C663.931 26.3628 663.387 28.7468 662.299 30.8588C661.211 32.9388 659.707 34.5708 657.787 35.7548C655.899 36.9068 653.803 37.4828 651.499 37.4828C649.483 37.4828 647.691 37.0828 646.123 36.2828C644.555 35.4508 643.275 34.4268 642.283 33.2108V49.6268H636.811V10.6028H642.283V14.4908ZM658.363 23.7068C658.363 21.8828 657.979 20.3148 657.211 19.0028C656.475 17.6588 655.483 16.6508 654.235 15.9788C653.019 15.2748 651.707 14.9228 650.299 14.9228C648.923 14.9228 647.611 15.2748 646.363 15.9788C645.147 16.6828 644.155 17.7068 643.387 19.0508C642.651 20.3948 642.283 21.9788 642.283 23.8028C642.283 25.6268 642.651 27.2268 643.387 28.6028C644.155 29.9468 645.147 30.9708 646.363 31.6748C647.611 32.3788 648.923 32.7308 650.299 32.7308C651.707 32.7308 653.019 32.3788 654.235 31.6748C655.483 30.9388 656.475 29.8828 657.211 28.5068C657.979 27.1308 658.363 25.5308 658.363 23.7068ZM679.987 23.7068C679.987 21.0508 680.531 18.6988 681.619 16.6508C682.739 14.6028 684.243 13.0188 686.131 11.8988C688.051 10.7468 690.163 10.1708 692.467 10.1708C694.547 10.1708 696.355 10.5868 697.891 11.4188C699.459 12.2188 700.707 13.2268 701.635 14.4428V10.6028H707.155V37.0508H701.635V33.1148C700.707 34.3628 699.443 35.4028 697.843 36.2348C696.243 37.0668 694.419 37.4828 692.371 37.4828C690.099 37.4828 688.019 36.9068 686.131 35.7548C684.243 34.5708 682.739 32.9388 681.619 30.8588C680.531 28.7468 679.987 26.3628 679.987 23.7068ZM701.635 23.8028C701.635 21.9788 701.251 20.3948 700.483 19.0508C699.747 17.7068 698.771 16.6828 697.555 15.9788C696.339 15.2748 695.027 14.9228 693.619 14.9228C692.211 14.9228 690.899 15.2748 689.683 15.9788C688.467 16.6508 687.475 17.6588 686.707 19.0028C685.971 20.3148 685.603 21.8828 685.603 23.7068C685.603 25.5308 685.971 27.1308 686.707 28.5068C687.475 29.8828 688.467 30.9388 689.683 31.6748C690.931 32.3788 692.243 32.7308 693.619 32.7308C695.027 32.7308 696.339 32.3788 697.555 31.6748C698.771 30.9708 699.747 29.9468 700.483 28.6028C701.251 27.2268 701.635 25.6268 701.635 23.8028ZM727.686 10.1708C729.766 10.1708 731.622 10.6028 733.254 11.4668C734.918 12.3308 736.214 13.6108 737.142 15.3068C738.07 17.0028 738.534 19.0508 738.534 21.4508V37.0508H733.11V22.2668C733.11 19.8988 732.518 18.0908 731.334 16.8428C730.15 15.5628 728.534 14.9228 726.486 14.9228C724.438 14.9228 722.806 15.5628 721.59 16.8428C720.406 18.0908 719.814 19.8988 719.814 22.2668V37.0508H714.342V10.6028H719.814V13.6268C720.71 12.5388 721.846 11.6908 723.222 11.0828C724.63 10.4748 726.118 10.1708 727.686 10.1708ZM743.69 23.7068C743.69 21.0508 744.234 18.6988 745.322 16.6508C746.442 14.6028 747.946 13.0188 749.834 11.8988C751.754 10.7468 753.882 10.1708 756.218 10.1708C757.946 10.1708 759.642 10.5548 761.306 11.3228C763.002 12.0588 764.346 13.0508 765.338 14.2988V1.53078H770.858V37.0508H765.338V33.0668C764.442 34.3468 763.194 35.4028 761.594 36.2348C760.026 37.0668 758.218 37.4828 756.17 37.4828C753.866 37.4828 751.754 36.9068 749.834 35.7548C747.946 34.5708 746.442 32.9388 745.322 30.8588C744.234 28.7468 743.69 26.3628 743.69 23.7068ZM765.338 23.8028C765.338 21.9788 764.954 20.3948 764.186 19.0508C763.45 17.7068 762.474 16.6828 761.258 15.9788C760.042 15.2748 758.73 14.9228 757.322 14.9228C755.914 14.9228 754.602 15.2748 753.386 15.9788C752.17 16.6508 751.178 17.6588 750.41 19.0028C749.674 20.3148 749.306 21.8828 749.306 23.7068C749.306 25.5308 749.674 27.1308 750.41 28.5068C751.178 29.8828 752.17 30.9388 753.386 31.6748C754.634 32.3788 755.946 32.7308 757.322 32.7308C758.73 32.7308 760.042 32.3788 761.258 31.6748C762.474 30.9708 763.45 29.9468 764.186 28.6028C764.954 27.2268 765.338 25.6268 765.338 23.8028ZM789.074 7.05078V2.05878H799.058V37.0508H793.538V7.05078H789.074ZM806.575 19.0988C806.575 13.5628 807.503 9.24278 809.359 6.13878C811.247 3.00278 814.479 1.43478 819.055 1.43478C823.631 1.43478 826.847 3.00278 828.703 6.13878C830.591 9.24278 831.535 13.5628 831.535 19.0988C831.535 24.6988 830.591 29.0828 828.703 32.2508C826.847 35.3868 823.631 36.9548 819.055 36.9548C814.479 36.9548 811.247 35.3868 809.359 32.2508C807.503 29.0828 806.575 24.6988 806.575 19.0988ZM826.159 19.0988C826.159 16.5068 825.983 14.3148 825.631 12.5228C825.311 10.7308 824.639 9.27478 823.615 8.15478C822.591 7.00278 821.071 6.42678 819.055 6.42678C817.039 6.42678 815.519 7.00278 814.495 8.15478C813.471 9.27478 812.783 10.7308 812.431 12.5228C812.111 14.3148 811.951 16.5068 811.951 19.0988C811.951 21.7868 812.111 24.0428 812.431 25.8668C812.751 27.6908 813.423 29.1628 814.447 30.2828C815.503 31.4028 817.039 31.9628 819.055 31.9628C821.071 31.9628 822.591 31.4028 823.615 30.2828C824.671 29.1628 825.359 27.6908 825.679 25.8668C825.999 24.0428 826.159 21.7868 826.159 19.0988ZM837.325 19.0988C837.325 13.5628 838.253 9.24278 840.109 6.13878C841.997 3.00278 845.229 1.43478 849.805 1.43478C854.381 1.43478 857.597 3.00278 859.453 6.13878C861.341 9.24278 862.285 13.5628 862.285 19.0988C862.285 24.6988 861.341 29.0828 859.453 32.2508C857.597 35.3868 854.381 36.9548 849.805 36.9548C845.229 36.9548 841.997 35.3868 840.109 32.2508C838.253 29.0828 837.325 24.6988 837.325 19.0988ZM856.909 19.0988C856.909 16.5068 856.733 14.3148 856.381 12.5228C856.061 10.7308 855.389 9.27478 854.365 8.15478C853.341 7.00278 851.821 6.42678 849.805 6.42678C847.789 6.42678 846.269 7.00278 845.245 8.15478C844.221 9.27478 843.533 10.7308 843.181 12.5228C842.861 14.3148 842.701 16.5068 842.701 19.0988C842.701 21.7868 842.861 24.0428 843.181 25.8668C843.501 27.6908 844.173 29.1628 845.197 30.2828C846.253 31.4028 847.789 31.9628 849.805 31.9628C851.821 31.9628 853.341 31.4028 854.365 30.2828C855.421 29.1628 856.109 27.6908 856.429 25.8668C856.749 24.0428 856.909 21.7868 856.909 19.0988ZM867.211 10.5068C867.211 8.17078 867.883 6.34678 869.227 5.03478C870.603 3.69078 872.363 3.01878 874.507 3.01878C876.651 3.01878 878.395 3.69078 879.739 5.03478C881.115 6.34678 881.803 8.17078 881.803 10.5068C881.803 12.8428 881.115 14.6828 879.739 16.0268C878.395 17.3708 876.651 18.0428 874.507 18.0428C872.363 18.0428 870.603 17.3708 869.227 16.0268C867.883 14.6828 867.211 12.8428 867.211 10.5068ZM896.491 3.64278L877.339 37.0508H871.963L891.115 3.64278H896.491ZM874.507 6.33078C872.491 6.33078 871.483 7.72278 871.483 10.5068C871.483 13.3228 872.491 14.7308 874.507 14.7308C875.467 14.7308 876.203 14.3948 876.715 13.7228C877.259 13.0188 877.531 11.9468 877.531 10.5068C877.531 7.72278 876.523 6.33078 874.507 6.33078ZM886.747 30.1388C886.747 27.8028 887.419 25.9788 888.763 24.6668C890.139 23.3228 891.899 22.6508 894.043 22.6508C896.155 22.6508 897.883 23.3228 899.227 24.6668C900.603 25.9788 901.291 27.8028 901.291 30.1388C901.291 32.4748 900.603 34.3148 899.227 35.6588C897.883 37.0028 896.155 37.6748 894.043 37.6748C891.899 37.6748 890.139 37.0028 888.763 35.6588C887.419 34.3148 886.747 32.4748 886.747 30.1388ZM893.995 25.9628C891.979 25.9628 890.971 27.3548 890.971 30.1388C890.971 32.9228 891.979 34.3148 893.995 34.3148C896.011 34.3148 897.019 32.9228 897.019 30.1388C897.019 27.3548 896.011 25.9628 893.995 25.9628ZM17.4494 95.7068C17.4494 93.0508 17.9934 90.6988 19.0814 88.6508C20.2014 86.6028 21.7054 85.0188 23.5934 83.8988C25.5134 82.7468 27.6414 82.1708 29.9774 82.1708C31.7054 82.1708 33.4014 82.5548 35.0654 83.3228C36.7614 84.0588 38.1054 85.0508 39.0974 86.2988V73.5308H44.6174V109.051H39.0974V105.067C38.2014 106.347 36.9534 107.403 35.3534 108.235C33.7854 109.067 31.9774 109.483 29.9294 109.483C27.6254 109.483 25.5134 108.907 23.5934 107.755C21.7054 106.571 20.2014 104.939 19.0814 102.859C17.9934 100.747 17.4494 98.3628 17.4494 95.7068ZM39.0974 95.8028C39.0974 93.9788 38.7134 92.3948 37.9454 91.0508C37.2094 89.7068 36.2334 88.6828 35.0174 87.9788C33.8014 87.2748 32.4894 86.9228 31.0814 86.9228C29.6734 86.9228 28.3614 87.2748 27.1454 87.9788C25.9294 88.6508 24.9374 89.6588 24.1694 91.0028C23.4334 92.3148 23.0654 93.8828 23.0654 95.7068C23.0654 97.5308 23.4334 99.1308 24.1694 100.507C24.9374 101.883 25.9294 102.939 27.1454 103.675C28.3934 104.379 29.7054 104.731 31.0814 104.731C32.4894 104.731 33.8014 104.379 35.0174 103.675C36.2334 102.971 37.2094 101.947 37.9454 100.603C38.7134 99.2268 39.0974 97.6268 39.0974 95.8028ZM76.0447 95.1788C76.0447 96.1708 75.9807 97.0668 75.8527 97.8668H55.6447C55.8047 99.9788 56.5887 101.675 57.9967 102.955C59.4047 104.235 61.1327 104.875 63.1807 104.875C66.1247 104.875 68.2047 103.643 69.4207 101.179H75.3247C74.5247 103.611 73.0687 105.611 70.9567 107.179C68.8767 108.715 66.2847 109.483 63.1807 109.483C60.6527 109.483 58.3807 108.923 56.3647 107.803C54.3807 106.651 52.8127 105.051 51.6607 103.003C50.5407 100.923 49.9807 98.5228 49.9807 95.8028C49.9807 93.0828 50.5247 90.6988 51.6127 88.6508C52.7327 86.5708 54.2847 84.9708 56.2687 83.8508C58.2847 82.7308 60.5887 82.1708 63.1807 82.1708C65.6767 82.1708 67.9007 82.7148 69.8527 83.8028C71.8047 84.8908 73.3247 86.4268 74.4127 88.4108C75.5007 90.3628 76.0447 92.6188 76.0447 95.1788ZM70.3327 93.4508C70.3007 91.4348 69.5807 89.8188 68.1727 88.6028C66.7647 87.3868 65.0207 86.7788 62.9407 86.7788C61.0527 86.7788 59.4367 87.3868 58.0927 88.6028C56.7487 89.7868 55.9487 91.4028 55.6927 93.4508H70.3327ZM87.8137 87.0668V101.707C87.8137 102.699 88.0377 103.419 88.4857 103.867C88.9657 104.283 89.7657 104.491 90.8857 104.491H94.2457V109.051H89.9257C87.4617 109.051 85.5737 108.475 84.2617 107.323C82.9497 106.171 82.2937 104.299 82.2937 101.707V87.0668H79.1737V82.6028H82.2937V76.0268H87.8137V82.6028H94.2457V87.0668H87.8137ZM123.529 95.1788C123.529 96.1708 123.465 97.0668 123.337 97.8668H103.129C103.289 99.9788 104.073 101.675 105.481 102.955C106.889 104.235 108.617 104.875 110.665 104.875C113.609 104.875 115.689 103.643 116.905 101.179H122.809C122.009 103.611 120.553 105.611 118.441 107.179C116.361 108.715 113.769 109.483 110.665 109.483C108.137 109.483 105.865 108.923 103.849 107.803C101.865 106.651 100.297 105.051 99.1451 103.003C98.0251 100.923 97.4651 98.5228 97.4651 95.8028C97.4651 93.0828 98.0091 90.6988 99.0971 88.6508C100.217 86.5708 101.769 84.9708 103.753 83.8508C105.769 82.7308 108.073 82.1708 110.665 82.1708C113.161 82.1708 115.385 82.7148 117.337 83.8028C119.289 84.8908 120.809 86.4268 121.897 88.4108C122.985 90.3628 123.529 92.6188 123.529 95.1788ZM117.817 93.4508C117.785 91.4348 117.065 89.8188 115.657 88.6028C114.249 87.3868 112.505 86.7788 110.425 86.7788C108.537 86.7788 106.921 87.3868 105.577 88.6028C104.233 89.7868 103.433 91.4028 103.177 93.4508H117.817ZM134.386 86.4428C135.186 85.0988 136.242 84.0588 137.554 83.3228C138.898 82.5548 140.482 82.1708 142.306 82.1708V87.8348H140.914C138.77 87.8348 137.138 88.3788 136.018 89.4668C134.93 90.5548 134.386 92.4428 134.386 95.1308V109.051H128.914V82.6028H134.386V86.4428ZM179.352 82.1708C181.432 82.1708 183.288 82.6028 184.92 83.4668C186.584 84.3308 187.88 85.6108 188.808 87.3068C189.768 89.0028 190.248 91.0508 190.248 93.4508V109.051H184.824V94.2668C184.824 91.8988 184.232 90.0908 183.048 88.8428C181.864 87.5628 180.248 86.9228 178.2 86.9228C176.152 86.9228 174.52 87.5628 173.304 88.8428C172.12 90.0908 171.528 91.8988 171.528 94.2668V109.051H166.104V94.2668C166.104 91.8988 165.512 90.0908 164.328 88.8428C163.144 87.5628 161.528 86.9228 159.48 86.9228C157.432 86.9228 155.8 87.5628 154.584 88.8428C153.4 90.0908 152.808 91.8988 152.808 94.2668V109.051H147.336V82.6028H152.808V85.6268C153.704 84.5388 154.84 83.6908 156.216 83.0828C157.592 82.4748 159.064 82.1708 160.632 82.1708C162.744 82.1708 164.632 82.6188 166.296 83.5148C167.96 84.4108 169.24 85.7068 170.136 87.4028C170.936 85.8028 172.184 84.5388 173.88 83.6108C175.576 82.6508 177.4 82.1708 179.352 82.1708ZM199.995 79.0988C199.003 79.0988 198.171 78.7628 197.499 78.0908C196.827 77.4188 196.491 76.5868 196.491 75.5948C196.491 74.6028 196.827 73.7708 197.499 73.0988C198.171 72.4268 199.003 72.0908 199.995 72.0908C200.955 72.0908 201.771 72.4268 202.443 73.0988C203.115 73.7708 203.451 74.6028 203.451 75.5948C203.451 76.5868 203.115 77.4188 202.443 78.0908C201.771 78.7628 200.955 79.0988 199.995 79.0988ZM202.683 82.6028V109.051H197.211V82.6028H202.683ZM223.211 82.1708C225.291 82.1708 227.147 82.6028 228.779 83.4668C230.443 84.3308 231.739 85.6108 232.667 87.3068C233.595 89.0028 234.059 91.0508 234.059 93.4508V109.051H228.635V94.2668C228.635 91.8988 228.043 90.0908 226.859 88.8428C225.675 87.5628 224.059 86.9228 222.011 86.9228C219.963 86.9228 218.331 87.5628 217.115 88.8428C215.931 90.0908 215.339 91.8988 215.339 94.2668V109.051H209.867V82.6028H215.339V85.6268C216.235 84.5388 217.371 83.6908 218.747 83.0828C220.155 82.4748 221.643 82.1708 223.211 82.1708ZM239.215 95.7068C239.215 93.0508 239.759 90.6988 240.847 88.6508C241.967 86.6028 243.471 85.0188 245.359 83.8988C247.279 82.7468 249.391 82.1708 251.695 82.1708C253.775 82.1708 255.583 82.5868 257.119 83.4188C258.687 84.2188 259.935 85.2268 260.863 86.4428V82.6028H266.383V109.051H260.863V105.115C259.935 106.363 258.671 107.403 257.071 108.235C255.471 109.067 253.647 109.483 251.599 109.483C249.327 109.483 247.247 108.907 245.359 107.755C243.471 106.571 241.967 104.939 240.847 102.859C239.759 100.747 239.215 98.3628 239.215 95.7068ZM260.863 95.8028C260.863 93.9788 260.479 92.3948 259.711 91.0508C258.975 89.7068 257.999 88.6828 256.783 87.9788C255.567 87.2748 254.255 86.9228 252.847 86.9228C251.439 86.9228 250.127 87.2748 248.911 87.9788C247.695 88.6508 246.703 89.6588 245.935 91.0028C245.199 92.3148 244.831 93.8828 244.831 95.7068C244.831 97.5308 245.199 99.1308 245.935 100.507C246.703 101.883 247.695 102.939 248.911 103.675C250.159 104.379 251.471 104.731 252.847 104.731C254.255 104.731 255.567 104.379 256.783 103.675C257.999 102.971 258.975 101.947 259.711 100.603C260.479 99.2268 260.863 97.6268 260.863 95.8028ZM279.954 87.0668V101.707C279.954 102.699 280.178 103.419 280.626 103.867C281.106 104.283 281.906 104.491 283.026 104.491H286.386V109.051H282.066C279.602 109.051 277.714 108.475 276.402 107.323C275.09 106.171 274.434 104.299 274.434 101.707V87.0668H271.314V82.6028H274.434V76.0268H279.954V82.6028H286.386V87.0668H279.954ZM294.214 79.0988C293.222 79.0988 292.39 78.7628 291.718 78.0908C291.046 77.4188 290.71 76.5868 290.71 75.5948C290.71 74.6028 291.046 73.7708 291.718 73.0988C292.39 72.4268 293.222 72.0908 294.214 72.0908C295.174 72.0908 295.99 72.4268 296.662 73.0988C297.334 73.7708 297.67 74.6028 297.67 75.5948C297.67 76.5868 297.334 77.4188 296.662 78.0908C295.99 78.7628 295.174 79.0988 294.214 79.0988ZM296.902 82.6028V109.051H291.43V82.6028H296.902ZM315.558 109.483C313.062 109.483 310.806 108.923 308.79 107.803C306.774 106.651 305.19 105.051 304.038 103.003C302.886 100.923 302.31 98.5228 302.31 95.8028C302.31 93.1148 302.902 90.7308 304.086 88.6508C305.27 86.5708 306.886 84.9708 308.934 83.8508C310.982 82.7308 313.27 82.1708 315.798 82.1708C318.326 82.1708 320.614 82.7308 322.662 83.8508C324.71 84.9708 326.326 86.5708 327.51 88.6508C328.694 90.7308 329.286 93.1148 329.286 95.8028C329.286 98.4908 328.678 100.875 327.462 102.955C326.246 105.035 324.582 106.651 322.47 107.803C320.39 108.923 318.086 109.483 315.558 109.483ZM315.558 104.731C316.966 104.731 318.278 104.395 319.494 103.723C320.742 103.051 321.75 102.043 322.518 100.699C323.286 99.3548 323.67 97.7228 323.67 95.8028C323.67 93.8828 323.302 92.2668 322.566 90.9548C321.83 89.6108 320.854 88.6028 319.638 87.9308C318.422 87.2588 317.11 86.9228 315.702 86.9228C314.294 86.9228 312.982 87.2588 311.766 87.9308C310.582 88.6028 309.638 89.6108 308.934 90.9548C308.23 92.2668 307.878 93.8828 307.878 95.8028C307.878 98.6508 308.598 100.859 310.038 102.427C311.51 103.963 313.35 104.731 315.558 104.731ZM348.039 82.1708C350.119 82.1708 351.975 82.6028 353.607 83.4668C355.271 84.3308 356.567 85.6108 357.495 87.3068C358.423 89.0028 358.887 91.0508 358.887 93.4508V109.051H353.463V94.2668C353.463 91.8988 352.871 90.0908 351.687 88.8428C350.503 87.5628 348.887 86.9228 346.839 86.9228C344.791 86.9228 343.159 87.5628 341.943 88.8428C340.759 90.0908 340.167 91.8988 340.167 94.2668V109.051H334.695V82.6028H340.167V85.6268C341.063 84.5388 342.199 83.6908 343.575 83.0828C344.983 82.4748 346.471 82.1708 348.039 82.1708ZM384.72 87.0668V101.707C384.72 102.699 384.944 103.419 385.392 103.867C385.872 104.283 386.672 104.491 387.792 104.491H391.152V109.051H386.832C384.368 109.051 382.48 108.475 381.168 107.323C379.856 106.171 379.2 104.299 379.2 101.707V87.0668H376.08V82.6028H379.2V76.0268H384.72V82.6028H391.152V87.0668H384.72ZM407.667 109.483C405.171 109.483 402.915 108.923 400.899 107.803C398.883 106.651 397.299 105.051 396.147 103.003C394.995 100.923 394.419 98.5228 394.419 95.8028C394.419 93.1148 395.011 90.7308 396.195 88.6508C397.379 86.5708 398.995 84.9708 401.043 83.8508C403.091 82.7308 405.379 82.1708 407.907 82.1708C410.435 82.1708 412.723 82.7308 414.771 83.8508C416.819 84.9708 418.435 86.5708 419.619 88.6508C420.803 90.7308 421.395 93.1148 421.395 95.8028C421.395 98.4908 420.787 100.875 419.571 102.955C418.355 105.035 416.691 106.651 414.579 107.803C412.499 108.923 410.195 109.483 407.667 109.483ZM407.667 104.731C409.075 104.731 410.387 104.395 411.603 103.723C412.851 103.051 413.859 102.043 414.627 100.699C415.395 99.3548 415.779 97.7228 415.779 95.8028C415.779 93.8828 415.411 92.2668 414.675 90.9548C413.939 89.6108 412.963 88.6028 411.747 87.9308C410.531 87.2588 409.219 86.9228 407.811 86.9228C406.403 86.9228 405.091 87.2588 403.875 87.9308C402.691 88.6028 401.747 89.6108 401.043 90.9548C400.339 92.2668 399.987 93.8828 399.987 95.8028C399.987 98.6508 400.707 100.859 402.147 102.427C403.619 103.963 405.459 104.731 407.667 104.731ZM448.873 109.483C446.793 109.483 444.921 109.115 443.257 108.379C441.625 107.611 440.329 106.587 439.369 105.307C438.409 103.995 437.897 102.539 437.833 100.939H443.497C443.593 102.059 444.121 103.003 445.081 103.771C446.073 104.507 447.305 104.875 448.777 104.875C450.313 104.875 451.497 104.587 452.329 104.011C453.193 103.403 453.625 102.635 453.625 101.707C453.625 100.715 453.145 99.9788 452.185 99.4988C451.257 99.0188 449.769 98.4908 447.721 97.9148C445.737 97.3708 444.121 96.8428 442.873 96.3308C441.625 95.8188 440.537 95.0348 439.609 93.9788C438.713 92.9228 438.265 91.5308 438.265 89.8028C438.265 88.3948 438.681 87.1148 439.513 85.9628C440.345 84.7788 441.529 83.8508 443.065 83.1788C444.633 82.5068 446.425 82.1708 448.441 82.1708C451.449 82.1708 453.865 82.9388 455.689 84.4748C457.545 85.9788 458.537 88.0428 458.665 90.6668H453.193C453.097 89.4828 452.617 88.5388 451.753 87.8348C450.889 87.1308 449.721 86.7788 448.249 86.7788C446.809 86.7788 445.705 87.0508 444.937 87.5948C444.169 88.1388 443.785 88.8588 443.785 89.7548C443.785 90.4588 444.041 91.0508 444.553 91.5308C445.065 92.0108 445.689 92.3948 446.425 92.6828C447.161 92.9388 448.249 93.2748 449.689 93.6908C451.609 94.2028 453.177 94.7308 454.393 95.2748C455.641 95.7868 456.713 96.5548 457.609 97.5788C458.505 98.6028 458.969 99.9628 459.001 101.659C459.001 103.163 458.585 104.507 457.753 105.691C456.921 106.875 455.737 107.803 454.201 108.475C452.697 109.147 450.921 109.483 448.873 109.483ZM478.594 82.1708C480.61 82.1708 482.402 82.6028 483.97 83.4668C485.57 84.3308 486.818 85.6108 487.714 87.3068C488.642 89.0028 489.106 91.0508 489.106 93.4508V109.051H483.682V94.2668C483.682 91.8988 483.09 90.0908 481.906 88.8428C480.722 87.5628 479.106 86.9228 477.058 86.9228C475.01 86.9228 473.378 87.5628 472.162 88.8428C470.978 90.0908 470.386 91.8988 470.386 94.2668V109.051H464.914V73.5308H470.386V85.6748C471.314 84.5548 472.482 83.6908 473.89 83.0828C475.33 82.4748 476.898 82.1708 478.594 82.1708ZM498.87 79.0988C497.878 79.0988 497.046 78.7628 496.374 78.0908C495.702 77.4188 495.366 76.5868 495.366 75.5948C495.366 74.6028 495.702 73.7708 496.374 73.0988C497.046 72.4268 497.878 72.0908 498.87 72.0908C499.83 72.0908 500.646 72.4268 501.318 73.0988C501.99 73.7708 502.326 74.6028 502.326 75.5948C502.326 76.5868 501.99 77.4188 501.318 78.0908C500.646 78.7628 499.83 79.0988 498.87 79.0988ZM501.558 82.6028V109.051H496.086V82.6028H501.558ZM514.214 86.4908C515.142 85.2748 516.406 84.2508 518.006 83.4188C519.606 82.5868 521.414 82.1708 523.43 82.1708C525.734 82.1708 527.83 82.7468 529.718 83.8988C531.638 85.0188 533.142 86.6028 534.23 88.6508C535.318 90.6988 535.862 93.0508 535.862 95.7068C535.862 98.3628 535.318 100.747 534.23 102.859C533.142 104.939 531.638 106.571 529.718 107.755C527.83 108.907 525.734 109.483 523.43 109.483C521.414 109.483 519.622 109.083 518.054 108.283C516.486 107.451 515.206 106.427 514.214 105.211V121.627H508.742V82.6028H514.214V86.4908ZM530.294 95.7068C530.294 93.8828 529.91 92.3148 529.142 91.0028C528.406 89.6588 527.414 88.6508 526.166 87.9788C524.95 87.2748 523.638 86.9228 522.23 86.9228C520.854 86.9228 519.542 87.2748 518.294 87.9788C517.078 88.6828 516.086 89.7068 515.318 91.0508C514.582 92.3948 514.214 93.9788 514.214 95.8028C514.214 97.6268 514.582 99.2268 515.318 100.603C516.086 101.947 517.078 102.971 518.294 103.675C519.542 104.379 520.854 104.731 522.23 104.731C523.638 104.731 524.95 104.379 526.166 103.675C527.414 102.939 528.406 101.883 529.142 100.507C529.91 99.1308 530.294 97.5308 530.294 95.7068Z" fill="#191919"/>
<path d="M551.43 71.0828C551.43 67.3308 553.558 64.4188 556.806 64.4188C559.438 64.4188 561.566 66.5468 561.566 69.1788C561.566 72.7628 557.646 75.0588 554.678 73.4348C554.902 76.2348 557.03 79.2588 560.67 80.8268L560.334 81.3308C553.95 79.2028 551.43 74.8908 551.43 71.0828ZM606.399 76.5708C606.399 82.0588 601.583 90.9068 581.143 90.9068V102.051C581.143 105.131 583.663 107.651 586.743 107.651V109.051H564.343V107.651C567.423 107.651 569.943 105.131 569.943 102.051V71.2508C569.943 68.1708 567.423 65.6508 564.343 65.6508V64.2508H589.935C599.847 64.2508 606.399 69.0108 606.399 76.5708ZM581.143 68.1148V87.6028C590.103 87.6028 595.199 83.2348 595.199 77.5788C595.199 70.9708 590.047 68.1148 581.143 68.1148ZM623 77.6348C631.12 77.6348 636.44 83.8508 636.216 92.2508H617.176C617.176 99.4748 620.816 104.739 626.752 104.515C629.888 104.403 632.968 103.283 634.872 99.8108L635.376 100.035C633.304 105.971 628.208 109.667 622.72 109.667C613.816 109.667 607.32 103.003 607.32 93.9868C607.32 85.3068 613.704 77.6348 623 77.6348ZM617.344 90.0108H628.208C628.208 84.2428 625.8 80.4908 622.776 80.4908C619.752 80.4908 617.344 84.2428 617.344 90.0108ZM664.416 78.4188C668.28 80.6588 667.44 87.5468 663.016 87.5468C660.328 87.5468 658.816 85.1948 659.656 82.2828C660.72 78.3068 655.232 83.2908 652.04 87.7708V104.851C652.04 106.419 653.272 107.651 654.84 107.651V109.051H639.44V107.651C641.008 107.651 642.24 106.419 642.24 104.851V83.5708C642.24 82.2268 641.008 81.2188 639.664 81.3868L639.44 80.0428L652.04 78.0268V83.5708C655.344 79.4268 659.992 75.8428 664.416 78.4188ZM695.807 66.6588C696.871 69.5708 695.247 73.0988 692.223 73.0988C690.207 73.0988 688.527 71.4188 688.527 69.4028C688.527 68.8428 688.695 68.3948 688.919 67.7788C689.367 66.4348 689.255 64.9788 687.911 64.7548C686.231 64.4748 682.535 65.0348 682.535 71.4748V77.6348H688.135V79.8748H682.535V104.851C682.535 106.419 683.767 107.651 685.335 107.651V109.051H669.935V107.651C671.503 107.651 672.735 106.419 672.735 104.851V79.8748H669.655V77.6348H672.735V74.2748C672.735 69.7948 674.135 66.2668 677.215 64.3068C684.383 59.6588 694.183 62.4028 695.807 66.6588ZM707.735 77.6348C715.855 77.6348 721.175 83.8508 720.951 92.2508H701.911C701.911 99.4748 705.551 104.739 711.487 104.515C714.623 104.403 717.703 103.283 719.607 99.8108L720.111 100.035C718.039 105.971 712.943 109.667 707.455 109.667C698.551 109.667 692.055 103.003 692.055 93.9868C692.055 85.3068 698.439 77.6348 707.735 77.6348ZM702.079 90.0108H712.943C712.943 84.2428 710.535 80.4908 707.511 80.4908C704.487 80.4908 702.079 84.2428 702.079 90.0108ZM769.416 79.8748V96.5628C769.416 100.259 769.08 104.459 772.384 104.459C774.008 104.459 775.856 103.563 777.48 100.147L777.816 100.259C776.64 105.299 773.728 109.667 767.568 109.667C763.368 109.667 759.616 106.307 759.616 102.219V79.8748H755.416V77.6348C760.792 77.6348 765.888 75.0028 765.888 69.6828C765.888 60.1068 744.44 59.4348 744.44 71.1948C744.44 74.1068 745.448 77.0748 747.632 78.5308C750.544 80.4348 752.896 81.7788 753.456 84.5228C753.792 86.0908 753.12 87.8268 752.448 88.6668C751.496 89.8428 749.928 90.5148 748.36 90.0668C746.568 89.5068 745.448 87.6588 745.784 85.8108C745.952 85.1948 746.176 84.7468 746.568 84.1868C748.472 81.1628 744.328 79.7068 741.08 80.9388C739.064 81.6668 734.64 84.2428 734.64 92.2508C734.64 99.4748 738.28 104.739 744.216 104.515C747.352 104.403 750.432 103.283 752.336 99.8108L752.84 100.035C750.768 106.027 745.672 109.667 740.184 109.667C731.28 109.667 724.784 103.003 724.784 93.9868C724.784 85.3068 731.168 78.0828 740.464 77.6908C741.584 77.6348 742.312 76.4588 741.92 75.4508C741.36 74.1628 740.968 72.6508 740.968 71.0268C740.968 58.1468 769.416 56.2428 769.416 71.5308V77.6348H777.816V79.8748H769.416ZM791.143 65.8748C790.191 64.9788 788.623 61.3388 788.623 61.3388C788.623 61.3388 787.055 64.9788 786.159 65.8748C785.263 66.8268 781.623 68.3388 781.623 68.3388C781.623 68.3388 785.263 69.9068 786.159 70.8588C787.055 71.7548 788.623 75.3388 788.623 75.3388C788.623 75.3388 790.191 71.7548 791.143 70.8588C792.039 69.9068 795.623 68.3388 795.623 68.3388C795.623 68.3388 792.039 66.8268 791.143 65.8748ZM794.223 78.0268V104.851C794.223 106.419 795.455 107.651 797.023 107.651V109.051H781.623V107.651C783.191 107.651 784.423 106.419 784.423 104.851V83.5708C784.423 82.2268 783.191 81.2188 781.847 81.3868L781.623 80.0428L794.223 78.0268ZM816.549 77.6348C827.581 77.6348 832.901 85.4748 832.901 93.5948C832.901 101.715 827.469 109.667 816.437 109.667C805.349 109.667 800.141 101.827 800.141 93.7068C800.141 85.5868 805.461 77.6348 816.549 77.6348ZM816.493 106.867C821.645 106.867 823.101 99.7548 823.101 93.4828C823.101 87.1548 821.645 80.4348 816.493 80.4348C811.397 80.4348 809.941 87.0988 809.941 93.3708C809.941 99.6988 811.341 106.867 816.493 106.867ZM860.06 77.6348C865.828 77.6348 866.78 82.3388 866.78 83.9628V104.851C866.78 106.419 868.012 107.651 869.58 107.651V109.051H854.18V107.651C855.748 107.651 856.98 106.419 856.98 104.851V85.7548C856.98 84.3548 855.636 83.0668 853.788 83.0668C851.044 83.0668 848.804 86.3708 848.58 86.6508V104.851C848.58 106.419 849.812 107.651 851.38 107.651V109.051H835.98V107.651C837.548 107.651 838.78 106.419 838.78 104.851V83.5708C838.78 82.2828 837.828 81.3868 836.204 81.3868L835.98 80.0428L848.58 78.0268V83.8508C848.58 83.8508 853.172 77.6348 860.06 77.6348ZM883.062 71.0828C883.062 74.8908 880.542 79.2028 874.158 81.3308L873.822 80.8268C877.462 79.2588 879.59 76.2348 879.814 73.4348C876.846 75.0588 872.926 72.7628 872.926 69.1788C872.926 66.5468 875.054 64.4188 877.686 64.4188C880.934 64.4188 883.062 67.3308 883.062 71.0828Z" fill="url(#paint0_linear_16727_90527)"/>
<defs>
<linearGradient id="paint0_linear_16727_90527" x1="618" y1="102.919" x2="863" y2="102.919" gradientUnits="userSpaceOnUse">
<stop stop-color="#EC0992"/>
<stop offset="1" stop-color="#0D77FB"/>
</linearGradient>
</defs>
</svg>
