<svg width="20" height="20" viewBox="0 0 20 20" fill="none" xmlns="http://www.w3.org/2000/svg">
<path fill-rule="evenodd" clip-rule="evenodd" d="M14.7475 7.09056L8.05274 3.52389C3.55565 1.12389 1.70989 3.09056 3.96235 7.88222L4.64277 9.3322C4.67027 9.3908 4.69337 9.45556 4.71208 9.52453C4.76091 9.50861 4.81304 9.5 4.86719 9.5H9.09058C9.36672 9.5 9.59058 9.72386 9.59058 10C9.59058 10.2761 9.36672 10.5 9.09058 10.5H4.86719C4.8136 10.5 4.76198 10.4916 4.71358 10.476C4.69461 10.547 4.67101 10.6137 4.64277 10.6739L3.96235 12.1155C1.70989 16.9072 3.54783 18.8739 8.05274 16.4739L14.7475 12.9072C17.7508 11.3072 17.7508 8.69053 14.7475 7.09056Z" fill="white"/>
</svg>
