<svg width="16" height="16" viewBox="0 0 16 16" fill="none" xmlns="http://www.w3.org/2000/svg">
<g id="share">
<path id="Vector" fill-rule="evenodd" clip-rule="evenodd" d="M9.53468 3.55553C9.53468 2.32823 10.5341 1.33331 11.767 1.33331C12.9999 1.33331 13.9993 2.32823 13.9993 3.55553C13.9993 4.78283 12.9999 5.77776 11.767 5.77776C11.1445 5.77776 10.5819 5.52395 10.1774 5.11563L7.08715 7.21965C7.11568 7.36165 7.13068 7.50831 7.13068 7.65811C7.13068 7.95478 7.07202 8.23838 6.96574 8.49758L10.3542 10.7238C10.7388 10.4107 11.2309 10.2222 11.767 10.2222C12.9999 10.2222 13.9993 11.2171 13.9993 12.4444C13.9993 13.6717 12.9999 14.6666 11.767 14.6666C10.5341 14.6666 9.53468 13.6717 9.53468 12.4444C9.53468 12.123 9.60348 11.817 9.72715 11.5407L6.36606 9.33245C5.97399 9.67318 5.46042 9.88031 4.89834 9.88031C3.66546 9.88031 2.66602 8.88538 2.66602 7.65811C2.66602 6.4308 3.66546 5.43588 4.89834 5.43588C5.60728 5.43588 6.23837 5.76481 6.64698 6.27677L9.64195 4.23759C9.57228 4.02237 9.53468 3.79305 9.53468 3.55553Z" fill="black"/>
</g>
</svg>
