<svg width="520" height="374" viewBox="0 0 520 374" fill="none" xmlns="http://www.w3.org/2000/svg">
<mask id="path-1-inside-1_21405_117359" fill="white">
<path d="M-99 -126H-67.75V-94.75H-99V-126Z"/>
<path d="M-67.75 -126H-36.5V-94.75H-67.75V-126Z"/>
<path d="M-36.5 -126H-5.25V-94.75H-36.5V-126Z"/>
<path d="M-5.25 -126H26V-94.75H-5.25V-126Z"/>
<path d="M26 -126H57.25V-94.75H26V-126Z"/>
<path d="M57.25 -126H88.5V-94.75H57.25V-126Z"/>
<path d="M88.5 -126H119.75V-94.75H88.5V-126Z"/>
<path d="M119.75 -126H151V-94.75H119.75V-126Z"/>
<path d="M151 -126H182.25V-94.75H151V-126Z"/>
<path d="M182.25 -126H213.5V-94.75H182.25V-126Z"/>
<path d="M213.5 -126H244.75V-94.75H213.5V-126Z"/>
<path d="M244.75 -126H276V-94.75H244.75V-126Z"/>
<path d="M-99 -94.75H-67.75V-63.5H-99V-94.75Z"/>
<path d="M-67.75 -94.75H-36.5V-63.5H-67.75V-94.75Z"/>
<path d="M-36.5 -94.75H-5.25V-63.5H-36.5V-94.75Z"/>
<path d="M-5.25 -94.75H26V-63.5H-5.25V-94.75Z"/>
<path d="M26 -94.75H57.25V-63.5H26V-94.75Z"/>
<path d="M57.25 -94.75H88.5V-63.5H57.25V-94.75Z"/>
<path d="M88.5 -94.75H119.75V-63.5H88.5V-94.75Z"/>
<path d="M119.75 -94.75H151V-63.5H119.75V-94.75Z"/>
<path d="M151 -94.75H182.25V-63.5H151V-94.75Z"/>
<path d="M182.25 -94.75H213.5V-63.5H182.25V-94.75Z"/>
<path d="M213.5 -94.75H244.75V-63.5H213.5V-94.75Z"/>
<path d="M244.75 -94.75H276V-63.5H244.75V-94.75Z"/>
<path d="M-99 -63.5H-67.75V-32.25H-99V-63.5Z"/>
<path d="M-67.75 -63.5H-36.5V-32.25H-67.75V-63.5Z"/>
<path d="M-36.5 -63.5H-5.25V-32.25H-36.5V-63.5Z"/>
<path d="M-5.25 -63.5H26V-32.25H-5.25V-63.5Z"/>
<path d="M26 -63.5H57.25V-32.25H26V-63.5Z"/>
<path d="M57.25 -63.5H88.5V-32.25H57.25V-63.5Z"/>
<path d="M88.5 -63.5H119.75V-32.25H88.5V-63.5Z"/>
<path d="M119.75 -63.5H151V-32.25H119.75V-63.5Z"/>
<path d="M151 -63.5H182.25V-32.25H151V-63.5Z"/>
<path d="M182.25 -63.5H213.5V-32.25H182.25V-63.5Z"/>
<path d="M213.5 -63.5H244.75V-32.25H213.5V-63.5Z"/>
<path d="M244.75 -63.5H276V-32.25H244.75V-63.5Z"/>
<path d="M-99 -32.25H-67.75V-1H-99V-32.25Z"/>
<path d="M-67.75 -32.25H-36.5V-1H-67.75V-32.25Z"/>
<path d="M-36.5 -32.25H-5.25V-1H-36.5V-32.25Z"/>
<path d="M-5.25 -32.25H26V-1H-5.25V-32.25Z"/>
<path d="M26 -32.25H57.25V-1H26V-32.25Z"/>
<path d="M57.25 -32.25H88.5V-1H57.25V-32.25Z"/>
<path d="M88.5 -32.25H119.75V-1H88.5V-32.25Z"/>
<path d="M119.75 -32.25H151V-1H119.75V-32.25Z"/>
<path d="M151 -32.25H182.25V-1H151V-32.25Z"/>
<path d="M182.25 -32.25H213.5V-1H182.25V-32.25Z"/>
<path d="M213.5 -32.25H244.75V-1H213.5V-32.25Z"/>
<path d="M244.75 -32.25H276V-1H244.75V-32.25Z"/>
<path d="M-99 -1H-67.75V30.25H-99V-1Z"/>
<path d="M-67.75 -1H-36.5V30.25H-67.75V-1Z"/>
<path d="M-36.5 -1H-5.25V30.25H-36.5V-1Z"/>
<path d="M-5.25 -1H26V30.25H-5.25V-1Z"/>
<path d="M26 -1H57.25V30.25H26V-1Z"/>
<path d="M57.25 -1H88.5V30.25H57.25V-1Z"/>
<path d="M88.5 -1H119.75V30.25H88.5V-1Z"/>
<path d="M119.75 -1H151V30.25H119.75V-1Z"/>
<path d="M151 -1H182.25V30.25H151V-1Z"/>
<path d="M182.25 -1H213.5V30.25H182.25V-1Z"/>
<path d="M213.5 -1H244.75V30.25H213.5V-1Z"/>
<path d="M244.75 -1H276V30.25H244.75V-1Z"/>
<path d="M-99 30.25H-67.75V61.5H-99V30.25Z"/>
<path d="M-67.75 30.25H-36.5V61.5H-67.75V30.25Z"/>
<path d="M-36.5 30.25H-5.25V61.5H-36.5V30.25Z"/>
<path d="M-5.25 30.25H26V61.5H-5.25V30.25Z"/>
<path d="M26 30.25H57.25V61.5H26V30.25Z"/>
<path d="M57.25 30.25H88.5V61.5H57.25V30.25Z"/>
<path d="M88.5 30.25H119.75V61.5H88.5V30.25Z"/>
<path d="M119.75 30.25H151V61.5H119.75V30.25Z"/>
<path d="M151 30.25H182.25V61.5H151V30.25Z"/>
<path d="M182.25 30.25H213.5V61.5H182.25V30.25Z"/>
<path d="M213.5 30.25H244.75V61.5H213.5V30.25Z"/>
<path d="M244.75 30.25H276V61.5H244.75V30.25Z"/>
<path d="M-99 61.5H-67.75V92.75H-99V61.5Z"/>
<path d="M-67.75 61.5H-36.5V92.75H-67.75V61.5Z"/>
<path d="M-36.5 61.5H-5.25V92.75H-36.5V61.5Z"/>
<path d="M-5.25 61.5H26V92.75H-5.25V61.5Z"/>
<path d="M26 61.5H57.25V92.75H26V61.5Z"/>
<path d="M57.25 61.5H88.5V92.75H57.25V61.5Z"/>
<path d="M88.5 61.5H119.75V92.75H88.5V61.5Z"/>
<path d="M119.75 61.5H151V92.75H119.75V61.5Z"/>
<path d="M151 61.5H182.25V92.75H151V61.5Z"/>
<path d="M182.25 61.5H213.5V92.75H182.25V61.5Z"/>
<path d="M213.5 61.5H244.75V92.75H213.5V61.5Z"/>
<path d="M244.75 61.5H276V92.75H244.75V61.5Z"/>
<path d="M-99 92.75H-67.75V124H-99V92.75Z"/>
<path d="M-67.75 92.75H-36.5V124H-67.75V92.75Z"/>
<path d="M-36.5 92.75H-5.25V124H-36.5V92.75Z"/>
<path d="M-5.25 92.75H26V124H-5.25V92.75Z"/>
<path d="M26 92.75H57.25V124H26V92.75Z"/>
<path d="M57.25 92.75H88.5V124H57.25V92.75Z"/>
<path d="M88.5 92.75H119.75V124H88.5V92.75Z"/>
<path d="M119.75 92.75H151V124H119.75V92.75Z"/>
<path d="M151 92.75H182.25V124H151V92.75Z"/>
<path d="M182.25 92.75H213.5V124H182.25V92.75Z"/>
<path d="M213.5 92.75H244.75V124H213.5V92.75Z"/>
<path d="M244.75 92.75H276V124H244.75V92.75Z"/>
<path d="M276 -126H307.25V-94.75H276V-126Z"/>
<path d="M307.25 -126H338.5V-94.75H307.25V-126Z"/>
<path d="M338.5 -126H369.75V-94.75H338.5V-126Z"/>
<path d="M369.75 -126H401V-94.75H369.75V-126Z"/>
<path d="M401 -126H432.25V-94.75H401V-126Z"/>
<path d="M432.25 -126H463.5V-94.75H432.25V-126Z"/>
<path d="M463.5 -126H494.75V-94.75H463.5V-126Z"/>
<path d="M494.75 -126H526V-94.75H494.75V-126Z"/>
<path d="M526 -126H557.25V-94.75H526V-126Z"/>
<path d="M557.25 -126H588.5V-94.75H557.25V-126Z"/>
<path d="M588.5 -126H619.75V-94.75H588.5V-126Z"/>
<path d="M619.75 -126H651V-94.75H619.75V-126Z"/>
<path d="M276 -94.75H307.25V-63.5H276V-94.75Z"/>
<path d="M307.25 -94.75H338.5V-63.5H307.25V-94.75Z"/>
<path d="M338.5 -94.75H369.75V-63.5H338.5V-94.75Z"/>
<path d="M369.75 -94.75H401V-63.5H369.75V-94.75Z"/>
<path d="M401 -94.75H432.25V-63.5H401V-94.75Z"/>
<path d="M432.25 -94.75H463.5V-63.5H432.25V-94.75Z"/>
<path d="M463.5 -94.75H494.75V-63.5H463.5V-94.75Z"/>
<path d="M494.75 -94.75H526V-63.5H494.75V-94.75Z"/>
<path d="M526 -94.75H557.25V-63.5H526V-94.75Z"/>
<path d="M557.25 -94.75H588.5V-63.5H557.25V-94.75Z"/>
<path d="M588.5 -94.75H619.75V-63.5H588.5V-94.75Z"/>
<path d="M619.75 -94.75H651V-63.5H619.75V-94.75Z"/>
<path d="M276 -63.5H307.25V-32.25H276V-63.5Z"/>
<path d="M307.25 -63.5H338.5V-32.25H307.25V-63.5Z"/>
<path d="M338.5 -63.5H369.75V-32.25H338.5V-63.5Z"/>
<path d="M369.75 -63.5H401V-32.25H369.75V-63.5Z"/>
<path d="M401 -63.5H432.25V-32.25H401V-63.5Z"/>
<path d="M432.25 -63.5H463.5V-32.25H432.25V-63.5Z"/>
<path d="M463.5 -63.5H494.75V-32.25H463.5V-63.5Z"/>
<path d="M494.75 -63.5H526V-32.25H494.75V-63.5Z"/>
<path d="M526 -63.5H557.25V-32.25H526V-63.5Z"/>
<path d="M557.25 -63.5H588.5V-32.25H557.25V-63.5Z"/>
<path d="M588.5 -63.5H619.75V-32.25H588.5V-63.5Z"/>
<path d="M619.75 -63.5H651V-32.25H619.75V-63.5Z"/>
<path d="M276 -32.25H307.25V-1H276V-32.25Z"/>
<path d="M307.25 -32.25H338.5V-1H307.25V-32.25Z"/>
<path d="M338.5 -32.25H369.75V-1H338.5V-32.25Z"/>
<path d="M369.75 -32.25H401V-1H369.75V-32.25Z"/>
<path d="M401 -32.25H432.25V-1H401V-32.25Z"/>
<path d="M432.25 -32.25H463.5V-1H432.25V-32.25Z"/>
<path d="M463.5 -32.25H494.75V-1H463.5V-32.25Z"/>
<path d="M494.75 -32.25H526V-1H494.75V-32.25Z"/>
<path d="M526 -32.25H557.25V-1H526V-32.25Z"/>
<path d="M557.25 -32.25H588.5V-1H557.25V-32.25Z"/>
<path d="M588.5 -32.25H619.75V-1H588.5V-32.25Z"/>
<path d="M619.75 -32.25H651V-1H619.75V-32.25Z"/>
<path d="M276 -1H307.25V30.25H276V-1Z"/>
<path d="M307.25 -1H338.5V30.25H307.25V-1Z"/>
<path d="M338.5 -1H369.75V30.25H338.5V-1Z"/>
<path d="M369.75 -1H401V30.25H369.75V-1Z"/>
<path d="M401 -1H432.25V30.25H401V-1Z"/>
<path d="M432.25 -1H463.5V30.25H432.25V-1Z"/>
<path d="M463.5 -1H494.75V30.25H463.5V-1Z"/>
<path d="M494.75 -1H526V30.25H494.75V-1Z"/>
<path d="M526 -1H557.25V30.25H526V-1Z"/>
<path d="M557.25 -1H588.5V30.25H557.25V-1Z"/>
<path d="M588.5 -1H619.75V30.25H588.5V-1Z"/>
<path d="M619.75 -1H651V30.25H619.75V-1Z"/>
<path d="M276 30.25H307.25V61.5H276V30.25Z"/>
<path d="M307.25 30.25H338.5V61.5H307.25V30.25Z"/>
<path d="M338.5 30.25H369.75V61.5H338.5V30.25Z"/>
<path d="M369.75 30.25H401V61.5H369.75V30.25Z"/>
<path d="M401 30.25H432.25V61.5H401V30.25Z"/>
<path d="M432.25 30.25H463.5V61.5H432.25V30.25Z"/>
<path d="M463.5 30.25H494.75V61.5H463.5V30.25Z"/>
<path d="M494.75 30.25H526V61.5H494.75V30.25Z"/>
<path d="M526 30.25H557.25V61.5H526V30.25Z"/>
<path d="M557.25 30.25H588.5V61.5H557.25V30.25Z"/>
<path d="M588.5 30.25H619.75V61.5H588.5V30.25Z"/>
<path d="M619.75 30.25H651V61.5H619.75V30.25Z"/>
<path d="M276 61.5H307.25V92.75H276V61.5Z"/>
<path d="M307.25 61.5H338.5V92.75H307.25V61.5Z"/>
<path d="M338.5 61.5H369.75V92.75H338.5V61.5Z"/>
<path d="M369.75 61.5H401V92.75H369.75V61.5Z"/>
<path d="M401 61.5H432.25V92.75H401V61.5Z"/>
<path d="M432.25 61.5H463.5V92.75H432.25V61.5Z"/>
<path d="M463.5 61.5H494.75V92.75H463.5V61.5Z"/>
<path d="M494.75 61.5H526V92.75H494.75V61.5Z"/>
<path d="M526 61.5H557.25V92.75H526V61.5Z"/>
<path d="M557.25 61.5H588.5V92.75H557.25V61.5Z"/>
<path d="M588.5 61.5H619.75V92.75H588.5V61.5Z"/>
<path d="M619.75 61.5H651V92.75H619.75V61.5Z"/>
<path d="M276 92.75H307.25V124H276V92.75Z"/>
<path d="M307.25 92.75H338.5V124H307.25V92.75Z"/>
<path d="M338.5 92.75H369.75V124H338.5V92.75Z"/>
<path d="M369.75 92.75H401V124H369.75V92.75Z"/>
<path d="M401 92.75H432.25V124H401V92.75Z"/>
<path d="M432.25 92.75H463.5V124H432.25V92.75Z"/>
<path d="M463.5 92.75H494.75V124H463.5V92.75Z"/>
<path d="M494.75 92.75H526V124H494.75V92.75Z"/>
<path d="M526 92.75H557.25V124H526V92.75Z"/>
<path d="M557.25 92.75H588.5V124H557.25V92.75Z"/>
<path d="M588.5 92.75H619.75V124H588.5V92.75Z"/>
<path d="M619.75 92.75H651V124H619.75V92.75Z"/>
<path d="M-99 124H-67.75V155.25H-99V124Z"/>
<path d="M-67.75 124H-36.5V155.25H-67.75V124Z"/>
<path d="M-36.5 124H-5.25V155.25H-36.5V124Z"/>
<path d="M-5.25 124H26V155.25H-5.25V124Z"/>
<path d="M26 124H57.25V155.25H26V124Z"/>
<path d="M57.25 124H88.5V155.25H57.25V124Z"/>
<path d="M88.5 124H119.75V155.25H88.5V124Z"/>
<path d="M119.75 124H151V155.25H119.75V124Z"/>
<path d="M151 124H182.25V155.25H151V124Z"/>
<path d="M182.25 124H213.5V155.25H182.25V124Z"/>
<path d="M213.5 124H244.75V155.25H213.5V124Z"/>
<path d="M244.75 124H276V155.25H244.75V124Z"/>
<path d="M-99 155.25H-67.75V186.5H-99V155.25Z"/>
<path d="M-67.75 155.25H-36.5V186.5H-67.75V155.25Z"/>
<path d="M-36.5 155.25H-5.25V186.5H-36.5V155.25Z"/>
<path d="M-5.25 155.25H26V186.5H-5.25V155.25Z"/>
<path d="M26 155.25H57.25V186.5H26V155.25Z"/>
<path d="M57.25 155.25H88.5V186.5H57.25V155.25Z"/>
<path d="M88.5 155.25H119.75V186.5H88.5V155.25Z"/>
<path d="M119.75 155.25H151V186.5H119.75V155.25Z"/>
<path d="M151 155.25H182.25V186.5H151V155.25Z"/>
<path d="M182.25 155.25H213.5V186.5H182.25V155.25Z"/>
<path d="M213.5 155.25H244.75V186.5H213.5V155.25Z"/>
<path d="M244.75 155.25H276V186.5H244.75V155.25Z"/>
<path d="M-99 186.5H-67.75V217.75H-99V186.5Z"/>
<path d="M-67.75 186.5H-36.5V217.75H-67.75V186.5Z"/>
<path d="M-36.5 186.5H-5.25V217.75H-36.5V186.5Z"/>
<path d="M-5.25 186.5H26V217.75H-5.25V186.5Z"/>
<path d="M26 186.5H57.25V217.75H26V186.5Z"/>
<path d="M57.25 186.5H88.5V217.75H57.25V186.5Z"/>
<path d="M88.5 186.5H119.75V217.75H88.5V186.5Z"/>
<path d="M119.75 186.5H151V217.75H119.75V186.5Z"/>
<path d="M151 186.5H182.25V217.75H151V186.5Z"/>
<path d="M182.25 186.5H213.5V217.75H182.25V186.5Z"/>
<path d="M213.5 186.5H244.75V217.75H213.5V186.5Z"/>
<path d="M244.75 186.5H276V217.75H244.75V186.5Z"/>
<path d="M-99 217.75H-67.75V249H-99V217.75Z"/>
<path d="M-67.75 217.75H-36.5V249H-67.75V217.75Z"/>
<path d="M-36.5 217.75H-5.25V249H-36.5V217.75Z"/>
<path d="M-5.25 217.75H26V249H-5.25V217.75Z"/>
<path d="M26 217.75H57.25V249H26V217.75Z"/>
<path d="M57.25 217.75H88.5V249H57.25V217.75Z"/>
<path d="M88.5 217.75H119.75V249H88.5V217.75Z"/>
<path d="M119.75 217.75H151V249H119.75V217.75Z"/>
<path d="M151 217.75H182.25V249H151V217.75Z"/>
<path d="M182.25 217.75H213.5V249H182.25V217.75Z"/>
<path d="M213.5 217.75H244.75V249H213.5V217.75Z"/>
<path d="M244.75 217.75H276V249H244.75V217.75Z"/>
<path d="M-99 249H-67.75V280.25H-99V249Z"/>
<path d="M-67.75 249H-36.5V280.25H-67.75V249Z"/>
<path d="M-36.5 249H-5.25V280.25H-36.5V249Z"/>
<path d="M-5.25 249H26V280.25H-5.25V249Z"/>
<path d="M26 249H57.25V280.25H26V249Z"/>
<path d="M57.25 249H88.5V280.25H57.25V249Z"/>
<path d="M88.5 249H119.75V280.25H88.5V249Z"/>
<path d="M119.75 249H151V280.25H119.75V249Z"/>
<path d="M151 249H182.25V280.25H151V249Z"/>
<path d="M182.25 249H213.5V280.25H182.25V249Z"/>
<path d="M213.5 249H244.75V280.25H213.5V249Z"/>
<path d="M244.75 249H276V280.25H244.75V249Z"/>
<path d="M-99 280.25H-67.75V311.5H-99V280.25Z"/>
<path d="M-67.75 280.25H-36.5V311.5H-67.75V280.25Z"/>
<path d="M-36.5 280.25H-5.25V311.5H-36.5V280.25Z"/>
<path d="M-5.25 280.25H26V311.5H-5.25V280.25Z"/>
<path d="M26 280.25H57.25V311.5H26V280.25Z"/>
<path d="M57.25 280.25H88.5V311.5H57.25V280.25Z"/>
<path d="M88.5 280.25H119.75V311.5H88.5V280.25Z"/>
<path d="M119.75 280.25H151V311.5H119.75V280.25Z"/>
<path d="M151 280.25H182.25V311.5H151V280.25Z"/>
<path d="M182.25 280.25H213.5V311.5H182.25V280.25Z"/>
<path d="M213.5 280.25H244.75V311.5H213.5V280.25Z"/>
<path d="M244.75 280.25H276V311.5H244.75V280.25Z"/>
<path d="M-99 311.5H-67.75V342.75H-99V311.5Z"/>
<path d="M-67.75 311.5H-36.5V342.75H-67.75V311.5Z"/>
<path d="M-36.5 311.5H-5.25V342.75H-36.5V311.5Z"/>
<path d="M-5.25 311.5H26V342.75H-5.25V311.5Z"/>
<path d="M26 311.5H57.25V342.75H26V311.5Z"/>
<path d="M57.25 311.5H88.5V342.75H57.25V311.5Z"/>
<path d="M88.5 311.5H119.75V342.75H88.5V311.5Z"/>
<path d="M119.75 311.5H151V342.75H119.75V311.5Z"/>
<path d="M151 311.5H182.25V342.75H151V311.5Z"/>
<path d="M182.25 311.5H213.5V342.75H182.25V311.5Z"/>
<path d="M213.5 311.5H244.75V342.75H213.5V311.5Z"/>
<path d="M244.75 311.5H276V342.75H244.75V311.5Z"/>
<path d="M-99 342.75H-67.75V374H-99V342.75Z"/>
<path d="M-67.75 342.75H-36.5V374H-67.75V342.75Z"/>
<path d="M-36.5 342.75H-5.25V374H-36.5V342.75Z"/>
<path d="M-5.25 342.75H26V374H-5.25V342.75Z"/>
<path d="M26 342.75H57.25V374H26V342.75Z"/>
<path d="M57.25 342.75H88.5V374H57.25V342.75Z"/>
<path d="M88.5 342.75H119.75V374H88.5V342.75Z"/>
<path d="M119.75 342.75H151V374H119.75V342.75Z"/>
<path d="M151 342.75H182.25V374H151V342.75Z"/>
<path d="M182.25 342.75H213.5V374H182.25V342.75Z"/>
<path d="M213.5 342.75H244.75V374H213.5V342.75Z"/>
<path d="M244.75 342.75H276V374H244.75V342.75Z"/>
<path d="M276 124H307.25V155.25H276V124Z"/>
<path d="M307.25 124H338.5V155.25H307.25V124Z"/>
<path d="M338.5 124H369.75V155.25H338.5V124Z"/>
<path d="M369.75 124H401V155.25H369.75V124Z"/>
<path d="M401 124H432.25V155.25H401V124Z"/>
<path d="M432.25 124H463.5V155.25H432.25V124Z"/>
<path d="M463.5 124H494.75V155.25H463.5V124Z"/>
<path d="M494.75 124H526V155.25H494.75V124Z"/>
<path d="M526 124H557.25V155.25H526V124Z"/>
<path d="M557.25 124H588.5V155.25H557.25V124Z"/>
<path d="M588.5 124H619.75V155.25H588.5V124Z"/>
<path d="M619.75 124H651V155.25H619.75V124Z"/>
<path d="M276 155.25H307.25V186.5H276V155.25Z"/>
<path d="M307.25 155.25H338.5V186.5H307.25V155.25Z"/>
<path d="M338.5 155.25H369.75V186.5H338.5V155.25Z"/>
<path d="M369.75 155.25H401V186.5H369.75V155.25Z"/>
<path d="M401 155.25H432.25V186.5H401V155.25Z"/>
<path d="M432.25 155.25H463.5V186.5H432.25V155.25Z"/>
<path d="M463.5 155.25H494.75V186.5H463.5V155.25Z"/>
<path d="M494.75 155.25H526V186.5H494.75V155.25Z"/>
<path d="M526 155.25H557.25V186.5H526V155.25Z"/>
<path d="M557.25 155.25H588.5V186.5H557.25V155.25Z"/>
<path d="M588.5 155.25H619.75V186.5H588.5V155.25Z"/>
<path d="M619.75 155.25H651V186.5H619.75V155.25Z"/>
<path d="M276 186.5H307.25V217.75H276V186.5Z"/>
<path d="M307.25 186.5H338.5V217.75H307.25V186.5Z"/>
<path d="M338.5 186.5H369.75V217.75H338.5V186.5Z"/>
<path d="M369.75 186.5H401V217.75H369.75V186.5Z"/>
<path d="M401 186.5H432.25V217.75H401V186.5Z"/>
<path d="M432.25 186.5H463.5V217.75H432.25V186.5Z"/>
<path d="M463.5 186.5H494.75V217.75H463.5V186.5Z"/>
<path d="M494.75 186.5H526V217.75H494.75V186.5Z"/>
<path d="M526 186.5H557.25V217.75H526V186.5Z"/>
<path d="M557.25 186.5H588.5V217.75H557.25V186.5Z"/>
<path d="M588.5 186.5H619.75V217.75H588.5V186.5Z"/>
<path d="M619.75 186.5H651V217.75H619.75V186.5Z"/>
<path d="M276 217.75H307.25V249H276V217.75Z"/>
<path d="M307.25 217.75H338.5V249H307.25V217.75Z"/>
<path d="M338.5 217.75H369.75V249H338.5V217.75Z"/>
<path d="M369.75 217.75H401V249H369.75V217.75Z"/>
<path d="M401 217.75H432.25V249H401V217.75Z"/>
<path d="M432.25 217.75H463.5V249H432.25V217.75Z"/>
<path d="M463.5 217.75H494.75V249H463.5V217.75Z"/>
<path d="M494.75 217.75H526V249H494.75V217.75Z"/>
<path d="M526 217.75H557.25V249H526V217.75Z"/>
<path d="M557.25 217.75H588.5V249H557.25V217.75Z"/>
<path d="M588.5 217.75H619.75V249H588.5V217.75Z"/>
<path d="M619.75 217.75H651V249H619.75V217.75Z"/>
<path d="M276 249H307.25V280.25H276V249Z"/>
<path d="M307.25 249H338.5V280.25H307.25V249Z"/>
<path d="M338.5 249H369.75V280.25H338.5V249Z"/>
<path d="M369.75 249H401V280.25H369.75V249Z"/>
<path d="M401 249H432.25V280.25H401V249Z"/>
<path d="M432.25 249H463.5V280.25H432.25V249Z"/>
<path d="M463.5 249H494.75V280.25H463.5V249Z"/>
<path d="M494.75 249H526V280.25H494.75V249Z"/>
<path d="M526 249H557.25V280.25H526V249Z"/>
<path d="M557.25 249H588.5V280.25H557.25V249Z"/>
<path d="M588.5 249H619.75V280.25H588.5V249Z"/>
<path d="M619.75 249H651V280.25H619.75V249Z"/>
<path d="M276 280.25H307.25V311.5H276V280.25Z"/>
<path d="M307.25 280.25H338.5V311.5H307.25V280.25Z"/>
<path d="M338.5 280.25H369.75V311.5H338.5V280.25Z"/>
<path d="M369.75 280.25H401V311.5H369.75V280.25Z"/>
<path d="M401 280.25H432.25V311.5H401V280.25Z"/>
<path d="M432.25 280.25H463.5V311.5H432.25V280.25Z"/>
<path d="M463.5 280.25H494.75V311.5H463.5V280.25Z"/>
<path d="M494.75 280.25H526V311.5H494.75V280.25Z"/>
<path d="M526 280.25H557.25V311.5H526V280.25Z"/>
<path d="M557.25 280.25H588.5V311.5H557.25V280.25Z"/>
<path d="M588.5 280.25H619.75V311.5H588.5V280.25Z"/>
<path d="M619.75 280.25H651V311.5H619.75V280.25Z"/>
<path d="M276 311.5H307.25V342.75H276V311.5Z"/>
<path d="M307.25 311.5H338.5V342.75H307.25V311.5Z"/>
<path d="M338.5 311.5H369.75V342.75H338.5V311.5Z"/>
<path d="M369.75 311.5H401V342.75H369.75V311.5Z"/>
<path d="M401 311.5H432.25V342.75H401V311.5Z"/>
<path d="M432.25 311.5H463.5V342.75H432.25V311.5Z"/>
<path d="M463.5 311.5H494.75V342.75H463.5V311.5Z"/>
<path d="M494.75 311.5H526V342.75H494.75V311.5Z"/>
<path d="M526 311.5H557.25V342.75H526V311.5Z"/>
<path d="M557.25 311.5H588.5V342.75H557.25V311.5Z"/>
<path d="M588.5 311.5H619.75V342.75H588.5V311.5Z"/>
<path d="M619.75 311.5H651V342.75H619.75V311.5Z"/>
<path d="M276 342.75H307.25V374H276V342.75Z"/>
<path d="M307.25 342.75H338.5V374H307.25V342.75Z"/>
<path d="M338.5 342.75H369.75V374H338.5V342.75Z"/>
<path d="M369.75 342.75H401V374H369.75V342.75Z"/>
<path d="M401 342.75H432.25V374H401V342.75Z"/>
<path d="M432.25 342.75H463.5V374H432.25V342.75Z"/>
<path d="M463.5 342.75H494.75V374H463.5V342.75Z"/>
<path d="M494.75 342.75H526V374H494.75V342.75Z"/>
<path d="M526 342.75H557.25V374H526V342.75Z"/>
<path d="M557.25 342.75H588.5V374H557.25V342.75Z"/>
<path d="M588.5 342.75H619.75V374H588.5V342.75Z"/>
<path d="M619.75 342.75H651V374H619.75V342.75Z"/>
</mask>
<path d="M-68.086 -126V-94.75H-67.414V-126H-68.086ZM-67.75 -95.086H-99V-94.414H-67.75V-95.086ZM-36.836 -126V-94.75H-36.164V-126H-36.836ZM-36.5 -95.086H-67.75V-94.414H-36.5V-95.086ZM-5.58602 -126V-94.75H-4.91398V-126H-5.58602ZM-5.25 -95.086H-36.5V-94.414H-5.25V-95.086ZM25.664 -126V-94.75H26.336V-126H25.664ZM26 -95.086H-5.25V-94.414H26V-95.086ZM56.914 -126V-94.75H57.586V-126H56.914ZM57.25 -95.086H26V-94.414H57.25V-95.086ZM88.164 -126V-94.75H88.836V-126H88.164ZM88.5 -95.086H57.25V-94.414H88.5V-95.086ZM119.414 -126V-94.75H120.086V-126H119.414ZM119.75 -95.086H88.5V-94.414H119.75V-95.086ZM150.664 -126V-94.75H151.336V-126H150.664ZM151 -95.086H119.75V-94.414H151V-95.086ZM181.914 -126V-94.75H182.586V-126H181.914ZM182.25 -95.086H151V-94.414H182.25V-95.086ZM213.164 -126V-94.75H213.836V-126H213.164ZM213.5 -95.086H182.25V-94.414H213.5V-95.086ZM244.414 -126V-94.75H245.086V-126H244.414ZM244.75 -95.086H213.5V-94.414H244.75V-95.086ZM275.664 -126V-94.75H276.336V-126H275.664ZM276 -95.086H244.75V-94.414H276V-95.086ZM-68.086 -94.75V-63.5H-67.414V-94.75H-68.086ZM-67.75 -63.836H-99V-63.164H-67.75V-63.836ZM-36.836 -94.75V-63.5H-36.164V-94.75H-36.836ZM-36.5 -63.836H-67.75V-63.164H-36.5V-63.836ZM-5.58602 -94.75V-63.5H-4.91398V-94.75H-5.58602ZM-5.25 -63.836H-36.5V-63.164H-5.25V-63.836ZM25.664 -94.75V-63.5H26.336V-94.75H25.664ZM26 -63.836H-5.25V-63.164H26V-63.836ZM56.914 -94.75V-63.5H57.586V-94.75H56.914ZM57.25 -63.836H26V-63.164H57.25V-63.836ZM88.164 -94.75V-63.5H88.836V-94.75H88.164ZM88.5 -63.836H57.25V-63.164H88.5V-63.836ZM119.414 -94.75V-63.5H120.086V-94.75H119.414ZM119.75 -63.836H88.5V-63.164H119.75V-63.836ZM150.664 -94.75V-63.5H151.336V-94.75H150.664ZM151 -63.836H119.75V-63.164H151V-63.836ZM181.914 -94.75V-63.5H182.586V-94.75H181.914ZM182.25 -63.836H151V-63.164H182.25V-63.836ZM213.164 -94.75V-63.5H213.836V-94.75H213.164ZM213.5 -63.836H182.25V-63.164H213.5V-63.836ZM244.414 -94.75V-63.5H245.086V-94.75H244.414ZM244.75 -63.836H213.5V-63.164H244.75V-63.836ZM275.664 -94.75V-63.5H276.336V-94.75H275.664ZM276 -63.836H244.75V-63.164H276V-63.836ZM-68.086 -63.5V-32.25H-67.414V-63.5H-68.086ZM-67.75 -32.586H-99V-31.914H-67.75V-32.586ZM-36.836 -63.5V-32.25H-36.164V-63.5H-36.836ZM-36.5 -32.586H-67.75V-31.914H-36.5V-32.586ZM-5.58602 -63.5V-32.25H-4.91398V-63.5H-5.58602ZM-5.25 -32.586H-36.5V-31.914H-5.25V-32.586ZM25.664 -63.5V-32.25H26.336V-63.5H25.664ZM26 -32.586H-5.25V-31.914H26V-32.586ZM56.914 -63.5V-32.25H57.586V-63.5H56.914ZM57.25 -32.586H26V-31.914H57.25V-32.586ZM88.164 -63.5V-32.25H88.836V-63.5H88.164ZM88.5 -32.586H57.25V-31.914H88.5V-32.586ZM119.414 -63.5V-32.25H120.086V-63.5H119.414ZM119.75 -32.586H88.5V-31.914H119.75V-32.586ZM150.664 -63.5V-32.25H151.336V-63.5H150.664ZM151 -32.586H119.75V-31.914H151V-32.586ZM181.914 -63.5V-32.25H182.586V-63.5H181.914ZM182.25 -32.586H151V-31.914H182.25V-32.586ZM213.164 -63.5V-32.25H213.836V-63.5H213.164ZM213.5 -32.586H182.25V-31.914H213.5V-32.586ZM244.414 -63.5V-32.25H245.086V-63.5H244.414ZM244.75 -32.586H213.5V-31.914H244.75V-32.586ZM275.664 -63.5V-32.25H276.336V-63.5H275.664ZM276 -32.586H244.75V-31.914H276V-32.586ZM-68.086 -32.25V-1H-67.414V-32.25H-68.086ZM-67.75 -1.33602H-99V-0.663979H-67.75V-1.33602ZM-36.836 -32.25V-1H-36.164V-32.25H-36.836ZM-36.5 -1.33602H-67.75V-0.663979H-36.5V-1.33602ZM-5.58602 -32.25V-1H-4.91398V-32.25H-5.58602ZM-5.25 -1.33602H-36.5V-0.663979H-5.25V-1.33602ZM25.664 -32.25V-1H26.336V-32.25H25.664ZM26 -1.33602H-5.25V-0.663979H26V-1.33602ZM56.914 -32.25V-1H57.586V-32.25H56.914ZM57.25 -1.33602H26V-0.663979H57.25V-1.33602ZM88.164 -32.25V-1H88.836V-32.25H88.164ZM88.5 -1.33602H57.25V-0.663979H88.5V-1.33602ZM119.414 -32.25V-1H120.086V-32.25H119.414ZM119.75 -1.33602H88.5V-0.663979H119.75V-1.33602ZM150.664 -32.25V-1H151.336V-32.25H150.664ZM151 -1.33602H119.75V-0.663979H151V-1.33602ZM181.914 -32.25V-1H182.586V-32.25H181.914ZM182.25 -1.33602H151V-0.663979H182.25V-1.33602ZM213.164 -32.25V-1H213.836V-32.25H213.164ZM213.5 -1.33602H182.25V-0.663979H213.5V-1.33602ZM244.414 -32.25V-1H245.086V-32.25H244.414ZM244.75 -1.33602H213.5V-0.663979H244.75V-1.33602ZM275.664 -32.25V-1H276.336V-32.25H275.664ZM276 -1.33602H244.75V-0.663979H276V-1.33602ZM-68.086 -1V30.25H-67.414V-1H-68.086ZM-67.75 29.914H-99V30.586H-67.75V29.914ZM-36.836 -1V30.25H-36.164V-1H-36.836ZM-36.5 29.914H-67.75V30.586H-36.5V29.914ZM-5.58602 -1V30.25H-4.91398V-1H-5.58602ZM-5.25 29.914H-36.5V30.586H-5.25V29.914ZM25.664 -1V30.25H26.336V-1H25.664ZM26 29.914H-5.25V30.586H26V29.914ZM56.914 -1V30.25H57.586V-1H56.914ZM57.25 29.914H26V30.586H57.25V29.914ZM88.164 -1V30.25H88.836V-1H88.164ZM88.5 29.914H57.25V30.586H88.5V29.914ZM119.414 -1V30.25H120.086V-1H119.414ZM119.75 29.914H88.5V30.586H119.75V29.914ZM150.664 -1V30.25H151.336V-1H150.664ZM151 29.914H119.75V30.586H151V29.914ZM181.914 -1V30.25H182.586V-1H181.914ZM182.25 29.914H151V30.586H182.25V29.914ZM213.164 -1V30.25H213.836V-1H213.164ZM213.5 29.914H182.25V30.586H213.5V29.914ZM244.414 -1V30.25H245.086V-1H244.414ZM244.75 29.914H213.5V30.586H244.75V29.914ZM275.664 -1V30.25H276.336V-1H275.664ZM276 29.914H244.75V30.586H276V29.914ZM-68.086 30.25V61.5H-67.414V30.25H-68.086ZM-67.75 61.164H-99V61.836H-67.75V61.164ZM-36.836 30.25V61.5H-36.164V30.25H-36.836ZM-36.5 61.164H-67.75V61.836H-36.5V61.164ZM-5.58602 30.25V61.5H-4.91398V30.25H-5.58602ZM-5.25 61.164H-36.5V61.836H-5.25V61.164ZM25.664 30.25V61.5H26.336V30.25H25.664ZM26 61.164H-5.25V61.836H26V61.164ZM56.914 30.25V61.5H57.586V30.25H56.914ZM57.25 61.164H26V61.836H57.25V61.164ZM88.164 30.25V61.5H88.836V30.25H88.164ZM88.5 61.164H57.25V61.836H88.5V61.164ZM119.414 30.25V61.5H120.086V30.25H119.414ZM119.75 61.164H88.5V61.836H119.75V61.164ZM150.664 30.25V61.5H151.336V30.25H150.664ZM151 61.164H119.75V61.836H151V61.164ZM181.914 30.25V61.5H182.586V30.25H181.914ZM182.25 61.164H151V61.836H182.25V61.164ZM213.164 30.25V61.5H213.836V30.25H213.164ZM213.5 61.164H182.25V61.836H213.5V61.164ZM244.414 30.25V61.5H245.086V30.25H244.414ZM244.75 61.164H213.5V61.836H244.75V61.164ZM275.664 30.25V61.5H276.336V30.25H275.664ZM276 61.164H244.75V61.836H276V61.164ZM-68.086 61.5V92.75H-67.414V61.5H-68.086ZM-67.75 92.414H-99V93.086H-67.75V92.414ZM-36.836 61.5V92.75H-36.164V61.5H-36.836ZM-36.5 92.414H-67.75V93.086H-36.5V92.414ZM-5.58602 61.5V92.75H-4.91398V61.5H-5.58602ZM-5.25 92.414H-36.5V93.086H-5.25V92.414ZM25.664 61.5V92.75H26.336V61.5H25.664ZM26 92.414H-5.25V93.086H26V92.414ZM56.914 61.5V92.75H57.586V61.5H56.914ZM57.25 92.414H26V93.086H57.25V92.414ZM88.164 61.5V92.75H88.836V61.5H88.164ZM88.5 92.414H57.25V93.086H88.5V92.414ZM119.414 61.5V92.75H120.086V61.5H119.414ZM119.75 92.414H88.5V93.086H119.75V92.414ZM150.664 61.5V92.75H151.336V61.5H150.664ZM151 92.414H119.75V93.086H151V92.414ZM181.914 61.5V92.75H182.586V61.5H181.914ZM182.25 92.414H151V93.086H182.25V92.414ZM213.164 61.5V92.75H213.836V61.5H213.164ZM213.5 92.414H182.25V93.086H213.5V92.414ZM244.414 61.5V92.75H245.086V61.5H244.414ZM244.75 92.414H213.5V93.086H244.75V92.414ZM275.664 61.5V92.75H276.336V61.5H275.664ZM276 92.414H244.75V93.086H276V92.414ZM-68.086 92.75V124H-67.414V92.75H-68.086ZM-67.75 123.664H-99V124.336H-67.75V123.664ZM-36.836 92.75V124H-36.164V92.75H-36.836ZM-36.5 123.664H-67.75V124.336H-36.5V123.664ZM-5.58602 92.75V124H-4.91398V92.75H-5.58602ZM-5.25 123.664H-36.5V124.336H-5.25V123.664ZM25.664 92.75V124H26.336V92.75H25.664ZM26 123.664H-5.25V124.336H26V123.664ZM56.914 92.75V124H57.586V92.75H56.914ZM57.25 123.664H26V124.336H57.25V123.664ZM88.164 92.75V124H88.836V92.75H88.164ZM88.5 123.664H57.25V124.336H88.5V123.664ZM119.414 92.75V124H120.086V92.75H119.414ZM119.75 123.664H88.5V124.336H119.75V123.664ZM150.664 92.75V124H151.336V92.75H150.664ZM151 123.664H119.75V124.336H151V123.664ZM181.914 92.75V124H182.586V92.75H181.914ZM182.25 123.664H151V124.336H182.25V123.664ZM213.164 92.75V124H213.836V92.75H213.164ZM213.5 123.664H182.25V124.336H213.5V123.664ZM244.414 92.75V124H245.086V92.75H244.414ZM244.75 123.664H213.5V124.336H244.75V123.664ZM275.664 92.75V124H276.336V92.75H275.664ZM276 123.664H244.75V124.336H276V123.664ZM306.914 -126V-94.75H307.586V-126H306.914ZM307.25 -95.086H276V-94.414H307.25V-95.086ZM338.164 -126V-94.75H338.836V-126H338.164ZM338.5 -95.086H307.25V-94.414H338.5V-95.086ZM369.414 -126V-94.75H370.086V-126H369.414ZM369.75 -95.086H338.5V-94.414H369.75V-95.086ZM400.664 -126V-94.75H401.336V-126H400.664ZM401 -95.086H369.75V-94.414H401V-95.086ZM431.914 -126V-94.75H432.586V-126H431.914ZM432.25 -95.086H401V-94.414H432.25V-95.086ZM463.164 -126V-94.75H463.836V-126H463.164ZM463.5 -95.086H432.25V-94.414H463.5V-95.086ZM494.414 -126V-94.75H495.086V-126H494.414ZM494.75 -95.086H463.5V-94.414H494.75V-95.086ZM525.664 -126V-94.75H526.336V-126H525.664ZM526 -95.086H494.75V-94.414H526V-95.086ZM556.914 -126V-94.75H557.586V-126H556.914ZM557.25 -95.086H526V-94.414H557.25V-95.086ZM588.164 -126V-94.75H588.836V-126H588.164ZM588.5 -95.086H557.25V-94.414H588.5V-95.086ZM619.414 -126V-94.75H620.086V-126H619.414ZM619.75 -95.086H588.5V-94.414H619.75V-95.086ZM651 -95.086H619.75V-94.414H651V-95.086ZM306.914 -94.75V-63.5H307.586V-94.75H306.914ZM307.25 -63.836H276V-63.164H307.25V-63.836ZM338.164 -94.75V-63.5H338.836V-94.75H338.164ZM338.5 -63.836H307.25V-63.164H338.5V-63.836ZM369.414 -94.75V-63.5H370.086V-94.75H369.414ZM369.75 -63.836H338.5V-63.164H369.75V-63.836ZM400.664 -94.75V-63.5H401.336V-94.75H400.664ZM401 -63.836H369.75V-63.164H401V-63.836ZM431.914 -94.75V-63.5H432.586V-94.75H431.914ZM432.25 -63.836H401V-63.164H432.25V-63.836ZM463.164 -94.75V-63.5H463.836V-94.75H463.164ZM463.5 -63.836H432.25V-63.164H463.5V-63.836ZM494.414 -94.75V-63.5H495.086V-94.75H494.414ZM494.75 -63.836H463.5V-63.164H494.75V-63.836ZM525.664 -94.75V-63.5H526.336V-94.75H525.664ZM526 -63.836H494.75V-63.164H526V-63.836ZM556.914 -94.75V-63.5H557.586V-94.75H556.914ZM557.25 -63.836H526V-63.164H557.25V-63.836ZM588.164 -94.75V-63.5H588.836V-94.75H588.164ZM588.5 -63.836H557.25V-63.164H588.5V-63.836ZM619.414 -94.75V-63.5H620.086V-94.75H619.414ZM619.75 -63.836H588.5V-63.164H619.75V-63.836ZM651 -63.836H619.75V-63.164H651V-63.836ZM306.914 -63.5V-32.25H307.586V-63.5H306.914ZM307.25 -32.586H276V-31.914H307.25V-32.586ZM338.164 -63.5V-32.25H338.836V-63.5H338.164ZM338.5 -32.586H307.25V-31.914H338.5V-32.586ZM369.414 -63.5V-32.25H370.086V-63.5H369.414ZM369.75 -32.586H338.5V-31.914H369.75V-32.586ZM400.664 -63.5V-32.25H401.336V-63.5H400.664ZM401 -32.586H369.75V-31.914H401V-32.586ZM431.914 -63.5V-32.25H432.586V-63.5H431.914ZM432.25 -32.586H401V-31.914H432.25V-32.586ZM463.164 -63.5V-32.25H463.836V-63.5H463.164ZM463.5 -32.586H432.25V-31.914H463.5V-32.586ZM494.414 -63.5V-32.25H495.086V-63.5H494.414ZM494.75 -32.586H463.5V-31.914H494.75V-32.586ZM525.664 -63.5V-32.25H526.336V-63.5H525.664ZM526 -32.586H494.75V-31.914H526V-32.586ZM556.914 -63.5V-32.25H557.586V-63.5H556.914ZM557.25 -32.586H526V-31.914H557.25V-32.586ZM588.164 -63.5V-32.25H588.836V-63.5H588.164ZM588.5 -32.586H557.25V-31.914H588.5V-32.586ZM619.414 -63.5V-32.25H620.086V-63.5H619.414ZM619.75 -32.586H588.5V-31.914H619.75V-32.586ZM651 -32.586H619.75V-31.914H651V-32.586ZM306.914 -32.25V-1H307.586V-32.25H306.914ZM307.25 -1.33602H276V-0.663979H307.25V-1.33602ZM338.164 -32.25V-1H338.836V-32.25H338.164ZM338.5 -1.33602H307.25V-0.663979H338.5V-1.33602ZM369.414 -32.25V-1H370.086V-32.25H369.414ZM369.75 -1.33602H338.5V-0.663979H369.75V-1.33602ZM400.664 -32.25V-1H401.336V-32.25H400.664ZM401 -1.33602H369.75V-0.663979H401V-1.33602ZM431.914 -32.25V-1H432.586V-32.25H431.914ZM432.25 -1.33602H401V-0.663979H432.25V-1.33602ZM463.164 -32.25V-1H463.836V-32.25H463.164ZM463.5 -1.33602H432.25V-0.663979H463.5V-1.33602ZM494.414 -32.25V-1H495.086V-32.25H494.414ZM494.75 -1.33602H463.5V-0.663979H494.75V-1.33602ZM525.664 -32.25V-1H526.336V-32.25H525.664ZM526 -1.33602H494.75V-0.663979H526V-1.33602ZM556.914 -32.25V-1H557.586V-32.25H556.914ZM557.25 -1.33602H526V-0.663979H557.25V-1.33602ZM588.164 -32.25V-1H588.836V-32.25H588.164ZM588.5 -1.33602H557.25V-0.663979H588.5V-1.33602ZM619.414 -32.25V-1H620.086V-32.25H619.414ZM619.75 -1.33602H588.5V-0.663979H619.75V-1.33602ZM651 -1.33602H619.75V-0.663979H651V-1.33602ZM306.914 -1V30.25H307.586V-1H306.914ZM307.25 29.914H276V30.586H307.25V29.914ZM338.164 -1V30.25H338.836V-1H338.164ZM338.5 29.914H307.25V30.586H338.5V29.914ZM369.414 -1V30.25H370.086V-1H369.414ZM369.75 29.914H338.5V30.586H369.75V29.914ZM400.664 -1V30.25H401.336V-1H400.664ZM401 29.914H369.75V30.586H401V29.914ZM431.914 -1V30.25H432.586V-1H431.914ZM432.25 29.914H401V30.586H432.25V29.914ZM463.164 -1V30.25H463.836V-1H463.164ZM463.5 29.914H432.25V30.586H463.5V29.914ZM494.414 -1V30.25H495.086V-1H494.414ZM494.75 29.914H463.5V30.586H494.75V29.914ZM525.664 -1V30.25H526.336V-1H525.664ZM526 29.914H494.75V30.586H526V29.914ZM556.914 -1V30.25H557.586V-1H556.914ZM557.25 29.914H526V30.586H557.25V29.914ZM588.164 -1V30.25H588.836V-1H588.164ZM588.5 29.914H557.25V30.586H588.5V29.914ZM619.414 -1V30.25H620.086V-1H619.414ZM619.75 29.914H588.5V30.586H619.75V29.914ZM651 29.914H619.75V30.586H651V29.914ZM306.914 30.25V61.5H307.586V30.25H306.914ZM307.25 61.164H276V61.836H307.25V61.164ZM338.164 30.25V61.5H338.836V30.25H338.164ZM338.5 61.164H307.25V61.836H338.5V61.164ZM369.414 30.25V61.5H370.086V30.25H369.414ZM369.75 61.164H338.5V61.836H369.75V61.164ZM400.664 30.25V61.5H401.336V30.25H400.664ZM401 61.164H369.75V61.836H401V61.164ZM431.914 30.25V61.5H432.586V30.25H431.914ZM432.25 61.164H401V61.836H432.25V61.164ZM463.164 30.25V61.5H463.836V30.25H463.164ZM463.5 61.164H432.25V61.836H463.5V61.164ZM494.414 30.25V61.5H495.086V30.25H494.414ZM494.75 61.164H463.5V61.836H494.75V61.164ZM525.664 30.25V61.5H526.336V30.25H525.664ZM526 61.164H494.75V61.836H526V61.164ZM556.914 30.25V61.5H557.586V30.25H556.914ZM557.25 61.164H526V61.836H557.25V61.164ZM588.164 30.25V61.5H588.836V30.25H588.164ZM588.5 61.164H557.25V61.836H588.5V61.164ZM619.414 30.25V61.5H620.086V30.25H619.414ZM619.75 61.164H588.5V61.836H619.75V61.164ZM651 61.164H619.75V61.836H651V61.164ZM306.914 61.5V92.75H307.586V61.5H306.914ZM307.25 92.414H276V93.086H307.25V92.414ZM338.164 61.5V92.75H338.836V61.5H338.164ZM338.5 92.414H307.25V93.086H338.5V92.414ZM369.414 61.5V92.75H370.086V61.5H369.414ZM369.75 92.414H338.5V93.086H369.75V92.414ZM400.664 61.5V92.75H401.336V61.5H400.664ZM401 92.414H369.75V93.086H401V92.414ZM431.914 61.5V92.75H432.586V61.5H431.914ZM432.25 92.414H401V93.086H432.25V92.414ZM463.164 61.5V92.75H463.836V61.5H463.164ZM463.5 92.414H432.25V93.086H463.5V92.414ZM494.414 61.5V92.75H495.086V61.5H494.414ZM494.75 92.414H463.5V93.086H494.75V92.414ZM525.664 61.5V92.75H526.336V61.5H525.664ZM526 92.414H494.75V93.086H526V92.414ZM556.914 61.5V92.75H557.586V61.5H556.914ZM557.25 92.414H526V93.086H557.25V92.414ZM588.164 61.5V92.75H588.836V61.5H588.164ZM588.5 92.414H557.25V93.086H588.5V92.414ZM619.414 61.5V92.75H620.086V61.5H619.414ZM619.75 92.414H588.5V93.086H619.75V92.414ZM651 92.414H619.75V93.086H651V92.414ZM306.914 92.75V124H307.586V92.75H306.914ZM307.25 123.664H276V124.336H307.25V123.664ZM338.164 92.75V124H338.836V92.75H338.164ZM338.5 123.664H307.25V124.336H338.5V123.664ZM369.414 92.75V124H370.086V92.75H369.414ZM369.75 123.664H338.5V124.336H369.75V123.664ZM400.664 92.75V124H401.336V92.75H400.664ZM401 123.664H369.75V124.336H401V123.664ZM431.914 92.75V124H432.586V92.75H431.914ZM432.25 123.664H401V124.336H432.25V123.664ZM463.164 92.75V124H463.836V92.75H463.164ZM463.5 123.664H432.25V124.336H463.5V123.664ZM494.414 92.75V124H495.086V92.75H494.414ZM494.75 123.664H463.5V124.336H494.75V123.664ZM525.664 92.75V124H526.336V92.75H525.664ZM526 123.664H494.75V124.336H526V123.664ZM556.914 92.75V124H557.586V92.75H556.914ZM557.25 123.664H526V124.336H557.25V123.664ZM588.164 92.75V124H588.836V92.75H588.164ZM588.5 123.664H557.25V124.336H588.5V123.664ZM619.414 92.75V124H620.086V92.75H619.414ZM619.75 123.664H588.5V124.336H619.75V123.664ZM651 123.664H619.75V124.336H651V123.664ZM-68.086 124V155.25H-67.414V124H-68.086ZM-67.75 154.914H-99V155.586H-67.75V154.914ZM-36.836 124V155.25H-36.164V124H-36.836ZM-36.5 154.914H-67.75V155.586H-36.5V154.914ZM-5.58602 124V155.25H-4.91398V124H-5.58602ZM-5.25 154.914H-36.5V155.586H-5.25V154.914ZM25.664 124V155.25H26.336V124H25.664ZM26 154.914H-5.25V155.586H26V154.914ZM56.914 124V155.25H57.586V124H56.914ZM57.25 154.914H26V155.586H57.25V154.914ZM88.164 124V155.25H88.836V124H88.164ZM88.5 154.914H57.25V155.586H88.5V154.914ZM119.414 124V155.25H120.086V124H119.414ZM119.75 154.914H88.5V155.586H119.75V154.914ZM150.664 124V155.25H151.336V124H150.664ZM151 154.914H119.75V155.586H151V154.914ZM181.914 124V155.25H182.586V124H181.914ZM182.25 154.914H151V155.586H182.25V154.914ZM213.164 124V155.25H213.836V124H213.164ZM213.5 154.914H182.25V155.586H213.5V154.914ZM244.414 124V155.25H245.086V124H244.414ZM244.75 154.914H213.5V155.586H244.75V154.914ZM275.664 124V155.25H276.336V124H275.664ZM276 154.914H244.75V155.586H276V154.914ZM-68.086 155.25V186.5H-67.414V155.25H-68.086ZM-67.75 186.164H-99V186.836H-67.75V186.164ZM-36.836 155.25V186.5H-36.164V155.25H-36.836ZM-36.5 186.164H-67.75V186.836H-36.5V186.164ZM-5.58602 155.25V186.5H-4.91398V155.25H-5.58602ZM-5.25 186.164H-36.5V186.836H-5.25V186.164ZM25.664 155.25V186.5H26.336V155.25H25.664ZM26 186.164H-5.25V186.836H26V186.164ZM56.914 155.25V186.5H57.586V155.25H56.914ZM57.25 186.164H26V186.836H57.25V186.164ZM88.164 155.25V186.5H88.836V155.25H88.164ZM88.5 186.164H57.25V186.836H88.5V186.164ZM119.414 155.25V186.5H120.086V155.25H119.414ZM119.75 186.164H88.5V186.836H119.75V186.164ZM150.664 155.25V186.5H151.336V155.25H150.664ZM151 186.164H119.75V186.836H151V186.164ZM181.914 155.25V186.5H182.586V155.25H181.914ZM182.25 186.164H151V186.836H182.25V186.164ZM213.164 155.25V186.5H213.836V155.25H213.164ZM213.5 186.164H182.25V186.836H213.5V186.164ZM244.414 155.25V186.5H245.086V155.25H244.414ZM244.75 186.164H213.5V186.836H244.75V186.164ZM275.664 155.25V186.5H276.336V155.25H275.664ZM276 186.164H244.75V186.836H276V186.164ZM-68.086 186.5V217.75H-67.414V186.5H-68.086ZM-67.75 217.414H-99V218.086H-67.75V217.414ZM-36.836 186.5V217.75H-36.164V186.5H-36.836ZM-36.5 217.414H-67.75V218.086H-36.5V217.414ZM-5.58602 186.5V217.75H-4.91398V186.5H-5.58602ZM-5.25 217.414H-36.5V218.086H-5.25V217.414ZM25.664 186.5V217.75H26.336V186.5H25.664ZM26 217.414H-5.25V218.086H26V217.414ZM56.914 186.5V217.75H57.586V186.5H56.914ZM57.25 217.414H26V218.086H57.25V217.414ZM88.164 186.5V217.75H88.836V186.5H88.164ZM88.5 217.414H57.25V218.086H88.5V217.414ZM119.414 186.5V217.75H120.086V186.5H119.414ZM119.75 217.414H88.5V218.086H119.75V217.414ZM150.664 186.5V217.75H151.336V186.5H150.664ZM151 217.414H119.75V218.086H151V217.414ZM181.914 186.5V217.75H182.586V186.5H181.914ZM182.25 217.414H151V218.086H182.25V217.414ZM213.164 186.5V217.75H213.836V186.5H213.164ZM213.5 217.414H182.25V218.086H213.5V217.414ZM244.414 186.5V217.75H245.086V186.5H244.414ZM244.75 217.414H213.5V218.086H244.75V217.414ZM275.664 186.5V217.75H276.336V186.5H275.664ZM276 217.414H244.75V218.086H276V217.414ZM-68.086 217.75V249H-67.414V217.75H-68.086ZM-67.75 248.664H-99V249.336H-67.75V248.664ZM-36.836 217.75V249H-36.164V217.75H-36.836ZM-36.5 248.664H-67.75V249.336H-36.5V248.664ZM-5.58602 217.75V249H-4.91398V217.75H-5.58602ZM-5.25 248.664H-36.5V249.336H-5.25V248.664ZM25.664 217.75V249H26.336V217.75H25.664ZM26 248.664H-5.25V249.336H26V248.664ZM56.914 217.75V249H57.586V217.75H56.914ZM57.25 248.664H26V249.336H57.25V248.664ZM88.164 217.75V249H88.836V217.75H88.164ZM88.5 248.664H57.25V249.336H88.5V248.664ZM119.414 217.75V249H120.086V217.75H119.414ZM119.75 248.664H88.5V249.336H119.75V248.664ZM150.664 217.75V249H151.336V217.75H150.664ZM151 248.664H119.75V249.336H151V248.664ZM181.914 217.75V249H182.586V217.75H181.914ZM182.25 248.664H151V249.336H182.25V248.664ZM213.164 217.75V249H213.836V217.75H213.164ZM213.5 248.664H182.25V249.336H213.5V248.664ZM244.414 217.75V249H245.086V217.75H244.414ZM244.75 248.664H213.5V249.336H244.75V248.664ZM275.664 217.75V249H276.336V217.75H275.664ZM276 248.664H244.75V249.336H276V248.664ZM-68.086 249V280.25H-67.414V249H-68.086ZM-67.75 279.914H-99V280.586H-67.75V279.914ZM-36.836 249V280.25H-36.164V249H-36.836ZM-36.5 279.914H-67.75V280.586H-36.5V279.914ZM-5.58602 249V280.25H-4.91398V249H-5.58602ZM-5.25 279.914H-36.5V280.586H-5.25V279.914ZM25.664 249V280.25H26.336V249H25.664ZM26 279.914H-5.25V280.586H26V279.914ZM56.914 249V280.25H57.586V249H56.914ZM57.25 279.914H26V280.586H57.25V279.914ZM88.164 249V280.25H88.836V249H88.164ZM88.5 279.914H57.25V280.586H88.5V279.914ZM119.414 249V280.25H120.086V249H119.414ZM119.75 279.914H88.5V280.586H119.75V279.914ZM150.664 249V280.25H151.336V249H150.664ZM151 279.914H119.75V280.586H151V279.914ZM181.914 249V280.25H182.586V249H181.914ZM182.25 279.914H151V280.586H182.25V279.914ZM213.164 249V280.25H213.836V249H213.164ZM213.5 279.914H182.25V280.586H213.5V279.914ZM244.414 249V280.25H245.086V249H244.414ZM244.75 279.914H213.5V280.586H244.75V279.914ZM275.664 249V280.25H276.336V249H275.664ZM276 279.914H244.75V280.586H276V279.914ZM-68.086 280.25V311.5H-67.414V280.25H-68.086ZM-67.75 311.164H-99V311.836H-67.75V311.164ZM-36.836 280.25V311.5H-36.164V280.25H-36.836ZM-36.5 311.164H-67.75V311.836H-36.5V311.164ZM-5.58602 280.25V311.5H-4.91398V280.25H-5.58602ZM-5.25 311.164H-36.5V311.836H-5.25V311.164ZM25.664 280.25V311.5H26.336V280.25H25.664ZM26 311.164H-5.25V311.836H26V311.164ZM56.914 280.25V311.5H57.586V280.25H56.914ZM57.25 311.164H26V311.836H57.25V311.164ZM88.164 280.25V311.5H88.836V280.25H88.164ZM88.5 311.164H57.25V311.836H88.5V311.164ZM119.414 280.25V311.5H120.086V280.25H119.414ZM119.75 311.164H88.5V311.836H119.75V311.164ZM150.664 280.25V311.5H151.336V280.25H150.664ZM151 311.164H119.75V311.836H151V311.164ZM181.914 280.25V311.5H182.586V280.25H181.914ZM182.25 311.164H151V311.836H182.25V311.164ZM213.164 280.25V311.5H213.836V280.25H213.164ZM213.5 311.164H182.25V311.836H213.5V311.164ZM244.414 280.25V311.5H245.086V280.25H244.414ZM244.75 311.164H213.5V311.836H244.75V311.164ZM275.664 280.25V311.5H276.336V280.25H275.664ZM276 311.164H244.75V311.836H276V311.164ZM-68.086 311.5V342.75H-67.414V311.5H-68.086ZM-67.75 342.414H-99V343.086H-67.75V342.414ZM-36.836 311.5V342.75H-36.164V311.5H-36.836ZM-36.5 342.414H-67.75V343.086H-36.5V342.414ZM-5.58602 311.5V342.75H-4.91398V311.5H-5.58602ZM-5.25 342.414H-36.5V343.086H-5.25V342.414ZM25.664 311.5V342.75H26.336V311.5H25.664ZM26 342.414H-5.25V343.086H26V342.414ZM56.914 311.5V342.75H57.586V311.5H56.914ZM57.25 342.414H26V343.086H57.25V342.414ZM88.164 311.5V342.75H88.836V311.5H88.164ZM88.5 342.414H57.25V343.086H88.5V342.414ZM119.414 311.5V342.75H120.086V311.5H119.414ZM119.75 342.414H88.5V343.086H119.75V342.414ZM150.664 311.5V342.75H151.336V311.5H150.664ZM151 342.414H119.75V343.086H151V342.414ZM181.914 311.5V342.75H182.586V311.5H181.914ZM182.25 342.414H151V343.086H182.25V342.414ZM213.164 311.5V342.75H213.836V311.5H213.164ZM213.5 342.414H182.25V343.086H213.5V342.414ZM244.414 311.5V342.75H245.086V311.5H244.414ZM244.75 342.414H213.5V343.086H244.75V342.414ZM275.664 311.5V342.75H276.336V311.5H275.664ZM276 342.414H244.75V343.086H276V342.414ZM-68.086 342.75V374H-67.414V342.75H-68.086ZM-36.836 342.75V374H-36.164V342.75H-36.836ZM-5.58602 342.75V374H-4.91398V342.75H-5.58602ZM25.664 342.75V374H26.336V342.75H25.664ZM56.914 342.75V374H57.586V342.75H56.914ZM88.164 342.75V374H88.836V342.75H88.164ZM119.414 342.75V374H120.086V342.75H119.414ZM150.664 342.75V374H151.336V342.75H150.664ZM181.914 342.75V374H182.586V342.75H181.914ZM213.164 342.75V374H213.836V342.75H213.164ZM244.414 342.75V374H245.086V342.75H244.414ZM275.664 342.75V374H276.336V342.75H275.664ZM306.914 124V155.25H307.586V124H306.914ZM307.25 154.914H276V155.586H307.25V154.914ZM338.164 124V155.25H338.836V124H338.164ZM338.5 154.914H307.25V155.586H338.5V154.914ZM369.414 124V155.25H370.086V124H369.414ZM369.75 154.914H338.5V155.586H369.75V154.914ZM400.664 124V155.25H401.336V124H400.664ZM401 154.914H369.75V155.586H401V154.914ZM431.914 124V155.25H432.586V124H431.914ZM432.25 154.914H401V155.586H432.25V154.914ZM463.164 124V155.25H463.836V124H463.164ZM463.5 154.914H432.25V155.586H463.5V154.914ZM494.414 124V155.25H495.086V124H494.414ZM494.75 154.914H463.5V155.586H494.75V154.914ZM525.664 124V155.25H526.336V124H525.664ZM526 154.914H494.75V155.586H526V154.914ZM556.914 124V155.25H557.586V124H556.914ZM557.25 154.914H526V155.586H557.25V154.914ZM588.164 124V155.25H588.836V124H588.164ZM588.5 154.914H557.25V155.586H588.5V154.914ZM619.414 124V155.25H620.086V124H619.414ZM619.75 154.914H588.5V155.586H619.75V154.914ZM651 154.914H619.75V155.586H651V154.914ZM306.914 155.25V186.5H307.586V155.25H306.914ZM307.25 186.164H276V186.836H307.25V186.164ZM338.164 155.25V186.5H338.836V155.25H338.164ZM338.5 186.164H307.25V186.836H338.5V186.164ZM369.414 155.25V186.5H370.086V155.25H369.414ZM369.75 186.164H338.5V186.836H369.75V186.164ZM400.664 155.25V186.5H401.336V155.25H400.664ZM401 186.164H369.75V186.836H401V186.164ZM431.914 155.25V186.5H432.586V155.25H431.914ZM432.25 186.164H401V186.836H432.25V186.164ZM463.164 155.25V186.5H463.836V155.25H463.164ZM463.5 186.164H432.25V186.836H463.5V186.164ZM494.414 155.25V186.5H495.086V155.25H494.414ZM494.75 186.164H463.5V186.836H494.75V186.164ZM525.664 155.25V186.5H526.336V155.25H525.664ZM526 186.164H494.75V186.836H526V186.164ZM556.914 155.25V186.5H557.586V155.25H556.914ZM557.25 186.164H526V186.836H557.25V186.164ZM588.164 155.25V186.5H588.836V155.25H588.164ZM588.5 186.164H557.25V186.836H588.5V186.164ZM619.414 155.25V186.5H620.086V155.25H619.414ZM619.75 186.164H588.5V186.836H619.75V186.164ZM651 186.164H619.75V186.836H651V186.164ZM306.914 186.5V217.75H307.586V186.5H306.914ZM307.25 217.414H276V218.086H307.25V217.414ZM338.164 186.5V217.75H338.836V186.5H338.164ZM338.5 217.414H307.25V218.086H338.5V217.414ZM369.414 186.5V217.75H370.086V186.5H369.414ZM369.75 217.414H338.5V218.086H369.75V217.414ZM400.664 186.5V217.75H401.336V186.5H400.664ZM401 217.414H369.75V218.086H401V217.414ZM431.914 186.5V217.75H432.586V186.5H431.914ZM432.25 217.414H401V218.086H432.25V217.414ZM463.164 186.5V217.75H463.836V186.5H463.164ZM463.5 217.414H432.25V218.086H463.5V217.414ZM494.414 186.5V217.75H495.086V186.5H494.414ZM494.75 217.414H463.5V218.086H494.75V217.414ZM525.664 186.5V217.75H526.336V186.5H525.664ZM526 217.414H494.75V218.086H526V217.414ZM556.914 186.5V217.75H557.586V186.5H556.914ZM557.25 217.414H526V218.086H557.25V217.414ZM588.164 186.5V217.75H588.836V186.5H588.164ZM588.5 217.414H557.25V218.086H588.5V217.414ZM619.414 186.5V217.75H620.086V186.5H619.414ZM619.75 217.414H588.5V218.086H619.75V217.414ZM651 217.414H619.75V218.086H651V217.414ZM306.914 217.75V249H307.586V217.75H306.914ZM307.25 248.664H276V249.336H307.25V248.664ZM338.164 217.75V249H338.836V217.75H338.164ZM338.5 248.664H307.25V249.336H338.5V248.664ZM369.414 217.75V249H370.086V217.75H369.414ZM369.75 248.664H338.5V249.336H369.75V248.664ZM400.664 217.75V249H401.336V217.75H400.664ZM401 248.664H369.75V249.336H401V248.664ZM431.914 217.75V249H432.586V217.75H431.914ZM432.25 248.664H401V249.336H432.25V248.664ZM463.164 217.75V249H463.836V217.75H463.164ZM463.5 248.664H432.25V249.336H463.5V248.664ZM494.414 217.75V249H495.086V217.75H494.414ZM494.75 248.664H463.5V249.336H494.75V248.664ZM525.664 217.75V249H526.336V217.75H525.664ZM526 248.664H494.75V249.336H526V248.664ZM556.914 217.75V249H557.586V217.75H556.914ZM557.25 248.664H526V249.336H557.25V248.664ZM588.164 217.75V249H588.836V217.75H588.164ZM588.5 248.664H557.25V249.336H588.5V248.664ZM619.414 217.75V249H620.086V217.75H619.414ZM619.75 248.664H588.5V249.336H619.75V248.664ZM651 248.664H619.75V249.336H651V248.664ZM306.914 249V280.25H307.586V249H306.914ZM307.25 279.914H276V280.586H307.25V279.914ZM338.164 249V280.25H338.836V249H338.164ZM338.5 279.914H307.25V280.586H338.5V279.914ZM369.414 249V280.25H370.086V249H369.414ZM369.75 279.914H338.5V280.586H369.75V279.914ZM400.664 249V280.25H401.336V249H400.664ZM401 279.914H369.75V280.586H401V279.914ZM431.914 249V280.25H432.586V249H431.914ZM432.25 279.914H401V280.586H432.25V279.914ZM463.164 249V280.25H463.836V249H463.164ZM463.5 279.914H432.25V280.586H463.5V279.914ZM494.414 249V280.25H495.086V249H494.414ZM494.75 279.914H463.5V280.586H494.75V279.914ZM525.664 249V280.25H526.336V249H525.664ZM526 279.914H494.75V280.586H526V279.914ZM556.914 249V280.25H557.586V249H556.914ZM557.25 279.914H526V280.586H557.25V279.914ZM588.164 249V280.25H588.836V249H588.164ZM588.5 279.914H557.25V280.586H588.5V279.914ZM619.414 249V280.25H620.086V249H619.414ZM619.75 279.914H588.5V280.586H619.75V279.914ZM651 279.914H619.75V280.586H651V279.914ZM306.914 280.25V311.5H307.586V280.25H306.914ZM307.25 311.164H276V311.836H307.25V311.164ZM338.164 280.25V311.5H338.836V280.25H338.164ZM338.5 311.164H307.25V311.836H338.5V311.164ZM369.414 280.25V311.5H370.086V280.25H369.414ZM369.75 311.164H338.5V311.836H369.75V311.164ZM400.664 280.25V311.5H401.336V280.25H400.664ZM401 311.164H369.75V311.836H401V311.164ZM431.914 280.25V311.5H432.586V280.25H431.914ZM432.25 311.164H401V311.836H432.25V311.164ZM463.164 280.25V311.5H463.836V280.25H463.164ZM463.5 311.164H432.25V311.836H463.5V311.164ZM494.414 280.25V311.5H495.086V280.25H494.414ZM494.75 311.164H463.5V311.836H494.75V311.164ZM525.664 280.25V311.5H526.336V280.25H525.664ZM526 311.164H494.75V311.836H526V311.164ZM556.914 280.25V311.5H557.586V280.25H556.914ZM557.25 311.164H526V311.836H557.25V311.164ZM588.164 280.25V311.5H588.836V280.25H588.164ZM588.5 311.164H557.25V311.836H588.5V311.164ZM619.414 280.25V311.5H620.086V280.25H619.414ZM619.75 311.164H588.5V311.836H619.75V311.164ZM651 311.164H619.75V311.836H651V311.164ZM306.914 311.5V342.75H307.586V311.5H306.914ZM307.25 342.414H276V343.086H307.25V342.414ZM338.164 311.5V342.75H338.836V311.5H338.164ZM338.5 342.414H307.25V343.086H338.5V342.414ZM369.414 311.5V342.75H370.086V311.5H369.414ZM369.75 342.414H338.5V343.086H369.75V342.414ZM400.664 311.5V342.75H401.336V311.5H400.664ZM401 342.414H369.75V343.086H401V342.414ZM431.914 311.5V342.75H432.586V311.5H431.914ZM432.25 342.414H401V343.086H432.25V342.414ZM463.164 311.5V342.75H463.836V311.5H463.164ZM463.5 342.414H432.25V343.086H463.5V342.414ZM494.414 311.5V342.75H495.086V311.5H494.414ZM494.75 342.414H463.5V343.086H494.75V342.414ZM525.664 311.5V342.75H526.336V311.5H525.664ZM526 342.414H494.75V343.086H526V342.414ZM556.914 311.5V342.75H557.586V311.5H556.914ZM557.25 342.414H526V343.086H557.25V342.414ZM588.164 311.5V342.75H588.836V311.5H588.164ZM588.5 342.414H557.25V343.086H588.5V342.414ZM619.414 311.5V342.75H620.086V311.5H619.414ZM619.75 342.414H588.5V343.086H619.75V342.414ZM651 342.414H619.75V343.086H651V342.414ZM306.914 342.75V374H307.586V342.75H306.914ZM338.164 342.75V374H338.836V342.75H338.164ZM369.414 342.75V374H370.086V342.75H369.414ZM400.664 342.75V374H401.336V342.75H400.664ZM431.914 342.75V374H432.586V342.75H431.914ZM463.164 342.75V374H463.836V342.75H463.164ZM494.414 342.75V374H495.086V342.75H494.414ZM525.664 342.75V374H526.336V342.75H525.664ZM556.914 342.75V374H557.586V342.75H556.914ZM588.164 342.75V374H588.836V342.75H588.164ZM619.414 342.75V374H620.086V342.75H619.414ZM-99 -126V-126.672H-99.672V-126H-99ZM651 -126H651.672V-126.672H651V-126ZM-99 374H-99.672V374.672H-99V374ZM651 374V374.672H651.672V374H651ZM-99 -125.328H-67.75V-126.672H-99V-125.328ZM-98.328 -94.75V-126H-99.672V-94.75H-98.328ZM-67.75 -125.328H-36.5V-126.672H-67.75V-125.328ZM-36.5 -125.328H-5.25V-126.672H-36.5V-125.328ZM-5.25 -125.328H26V-126.672H-5.25V-125.328ZM26 -125.328H57.25V-126.672H26V-125.328ZM57.25 -125.328H88.5V-126.672H57.25V-125.328ZM88.5 -125.328H119.75V-126.672H88.5V-125.328ZM119.75 -125.328H151V-126.672H119.75V-125.328ZM151 -125.328H182.25V-126.672H151V-125.328ZM182.25 -125.328H213.5V-126.672H182.25V-125.328ZM213.5 -125.328H244.75V-126.672H213.5V-125.328ZM244.75 -125.328H276V-126.672H244.75V-125.328ZM-98.328 -63.5V-94.75H-99.672V-63.5H-98.328ZM-98.328 -32.25V-63.5H-99.672V-32.25H-98.328ZM-98.328 -1V-32.25H-99.672V-1H-98.328ZM-98.328 30.25V-1H-99.672V30.25H-98.328ZM-98.328 61.5V30.25H-99.672V61.5H-98.328ZM-98.328 92.75V61.5H-99.672V92.75H-98.328ZM-98.328 124V92.75H-99.672V124H-98.328ZM276 -125.328H307.25V-126.672H276V-125.328ZM307.25 -125.328H338.5V-126.672H307.25V-125.328ZM338.5 -125.328H369.75V-126.672H338.5V-125.328ZM369.75 -125.328H401V-126.672H369.75V-125.328ZM401 -125.328H432.25V-126.672H401V-125.328ZM432.25 -125.328H463.5V-126.672H432.25V-125.328ZM463.5 -125.328H494.75V-126.672H463.5V-125.328ZM494.75 -125.328H526V-126.672H494.75V-125.328ZM526 -125.328H557.25V-126.672H526V-125.328ZM557.25 -125.328H588.5V-126.672H557.25V-125.328ZM588.5 -125.328H619.75V-126.672H588.5V-125.328ZM619.75 -125.328H651V-126.672H619.75V-125.328ZM650.328 -126V-94.75H651.672V-126H650.328ZM650.328 -94.75V-63.5H651.672V-94.75H650.328ZM650.328 -63.5V-32.25H651.672V-63.5H650.328ZM650.328 -32.25V-1H651.672V-32.25H650.328ZM650.328 -1V30.25H651.672V-1H650.328ZM650.328 30.25V61.5H651.672V30.25H650.328ZM650.328 61.5V92.75H651.672V61.5H650.328ZM650.328 92.75V124H651.672V92.75H650.328ZM-98.328 155.25V124H-99.672V155.25H-98.328ZM-98.328 186.5V155.25H-99.672V186.5H-98.328ZM-98.328 217.75V186.5H-99.672V217.75H-98.328ZM-98.328 249V217.75H-99.672V249H-98.328ZM-98.328 280.25V249H-99.672V280.25H-98.328ZM-98.328 311.5V280.25H-99.672V311.5H-98.328ZM-98.328 342.75V311.5H-99.672V342.75H-98.328ZM-67.75 373.328H-99V374.672H-67.75V373.328ZM-98.328 374V342.75H-99.672V374H-98.328ZM-36.5 373.328H-67.75V374.672H-36.5V373.328ZM-5.25 373.328H-36.5V374.672H-5.25V373.328ZM26 373.328H-5.25V374.672H26V373.328ZM57.25 373.328H26V374.672H57.25V373.328ZM88.5 373.328H57.25V374.672H88.5V373.328ZM119.75 373.328H88.5V374.672H119.75V373.328ZM151 373.328H119.75V374.672H151V373.328ZM182.25 373.328H151V374.672H182.25V373.328ZM213.5 373.328H182.25V374.672H213.5V373.328ZM244.75 373.328H213.5V374.672H244.75V373.328ZM276 373.328H244.75V374.672H276V373.328ZM650.328 124V155.25H651.672V124H650.328ZM650.328 155.25V186.5H651.672V155.25H650.328ZM650.328 186.5V217.75H651.672V186.5H650.328ZM650.328 217.75V249H651.672V217.75H650.328ZM650.328 249V280.25H651.672V249H650.328ZM650.328 280.25V311.5H651.672V280.25H650.328ZM650.328 311.5V342.75H651.672V311.5H650.328ZM307.25 373.328H276V374.672H307.25V373.328ZM338.5 373.328H307.25V374.672H338.5V373.328ZM369.75 373.328H338.5V374.672H369.75V373.328ZM401 373.328H369.75V374.672H401V373.328ZM432.25 373.328H401V374.672H432.25V373.328ZM463.5 373.328H432.25V374.672H463.5V373.328ZM494.75 373.328H463.5V374.672H494.75V373.328ZM526 373.328H494.75V374.672H526V373.328ZM557.25 373.328H526V374.672H557.25V373.328ZM588.5 373.328H557.25V374.672H588.5V373.328ZM619.75 373.328H588.5V374.672H619.75V373.328ZM650.328 342.75V374H651.672V342.75H650.328ZM651 373.328H619.75V374.672H651V373.328Z" fill="url(#paint0_radial_21405_117359)" mask="url(#path-1-inside-1_21405_117359)"/>
<defs>
<radialGradient id="paint0_radial_21405_117359" cx="0" cy="0" r="1" gradientUnits="userSpaceOnUse" gradientTransform="translate(276 -238) rotate(90) scale(346 519)">
<stop stop-color="#0F80F0" stop-opacity="0.6"/>
<stop offset="1" stop-color="#0F80F0" stop-opacity="0"/>
</radialGradient>
</defs>
</svg>
