<svg width="750" height="500" viewBox="0 0 750 500" fill="none" xmlns="http://www.w3.org/2000/svg">
<mask id="path-1-inside-1_23079_135040" fill="white">
<path d="M0 0H31.25V31.25H0V0Z"/>
<path d="M31.25 0H62.5V31.25H31.25V0Z"/>
<path d="M62.5 0H93.75V31.25H62.5V0Z"/>
<path d="M93.75 0H125V31.25H93.75V0Z"/>
<path d="M125 0H156.25V31.25H125V0Z"/>
<path d="M156.25 0H187.5V31.25H156.25V0Z"/>
<path d="M187.5 0H218.75V31.25H187.5V0Z"/>
<path d="M218.75 0H250V31.25H218.75V0Z"/>
<path d="M250 0H281.25V31.25H250V0Z"/>
<path d="M281.25 0H312.5V31.25H281.25V0Z"/>
<path d="M312.5 0H343.75V31.25H312.5V0Z"/>
<path d="M343.75 0H375V31.25H343.75V0Z"/>
<path d="M0 31.25H31.25V62.5H0V31.25Z"/>
<path d="M31.25 31.25H62.5V62.5H31.25V31.25Z"/>
<path d="M62.5 31.25H93.75V62.5H62.5V31.25Z"/>
<path d="M93.75 31.25H125V62.5H93.75V31.25Z"/>
<path d="M125 31.25H156.25V62.5H125V31.25Z"/>
<path d="M156.25 31.25H187.5V62.5H156.25V31.25Z"/>
<path d="M187.5 31.25H218.75V62.5H187.5V31.25Z"/>
<path d="M218.75 31.25H250V62.5H218.75V31.25Z"/>
<path d="M250 31.25H281.25V62.5H250V31.25Z"/>
<path d="M281.25 31.25H312.5V62.5H281.25V31.25Z"/>
<path d="M312.5 31.25H343.75V62.5H312.5V31.25Z"/>
<path d="M343.75 31.25H375V62.5H343.75V31.25Z"/>
<path d="M0 62.5H31.25V93.75H0V62.5Z"/>
<path d="M31.25 62.5H62.5V93.75H31.25V62.5Z"/>
<path d="M62.5 62.5H93.75V93.75H62.5V62.5Z"/>
<path d="M93.75 62.5H125V93.75H93.75V62.5Z"/>
<path d="M125 62.5H156.25V93.75H125V62.5Z"/>
<path d="M156.25 62.5H187.5V93.75H156.25V62.5Z"/>
<path d="M187.5 62.5H218.75V93.75H187.5V62.5Z"/>
<path d="M218.75 62.5H250V93.75H218.75V62.5Z"/>
<path d="M250 62.5H281.25V93.75H250V62.5Z"/>
<path d="M281.25 62.5H312.5V93.75H281.25V62.5Z"/>
<path d="M312.5 62.5H343.75V93.75H312.5V62.5Z"/>
<path d="M343.75 62.5H375V93.75H343.75V62.5Z"/>
<path d="M0 93.75H31.25V125H0V93.75Z"/>
<path d="M31.25 93.75H62.5V125H31.25V93.75Z"/>
<path d="M62.5 93.75H93.75V125H62.5V93.75Z"/>
<path d="M93.75 93.75H125V125H93.75V93.75Z"/>
<path d="M125 93.75H156.25V125H125V93.75Z"/>
<path d="M156.25 93.75H187.5V125H156.25V93.75Z"/>
<path d="M187.5 93.75H218.75V125H187.5V93.75Z"/>
<path d="M218.75 93.75H250V125H218.75V93.75Z"/>
<path d="M250 93.75H281.25V125H250V93.75Z"/>
<path d="M281.25 93.75H312.5V125H281.25V93.75Z"/>
<path d="M312.5 93.75H343.75V125H312.5V93.75Z"/>
<path d="M343.75 93.75H375V125H343.75V93.75Z"/>
<path d="M0 125H31.25V156.25H0V125Z"/>
<path d="M31.25 125H62.5V156.25H31.25V125Z"/>
<path d="M62.5 125H93.75V156.25H62.5V125Z"/>
<path d="M93.75 125H125V156.25H93.75V125Z"/>
<path d="M125 125H156.25V156.25H125V125Z"/>
<path d="M156.25 125H187.5V156.25H156.25V125Z"/>
<path d="M187.5 125H218.75V156.25H187.5V125Z"/>
<path d="M218.75 125H250V156.25H218.75V125Z"/>
<path d="M250 125H281.25V156.25H250V125Z"/>
<path d="M281.25 125H312.5V156.25H281.25V125Z"/>
<path d="M312.5 125H343.75V156.25H312.5V125Z"/>
<path d="M343.75 125H375V156.25H343.75V125Z"/>
<path d="M0 156.25H31.25V187.5H0V156.25Z"/>
<path d="M31.25 156.25H62.5V187.5H31.25V156.25Z"/>
<path d="M62.5 156.25H93.75V187.5H62.5V156.25Z"/>
<path d="M93.75 156.25H125V187.5H93.75V156.25Z"/>
<path d="M125 156.25H156.25V187.5H125V156.25Z"/>
<path d="M156.25 156.25H187.5V187.5H156.25V156.25Z"/>
<path d="M187.5 156.25H218.75V187.5H187.5V156.25Z"/>
<path d="M218.75 156.25H250V187.5H218.75V156.25Z"/>
<path d="M250 156.25H281.25V187.5H250V156.25Z"/>
<path d="M281.25 156.25H312.5V187.5H281.25V156.25Z"/>
<path d="M312.5 156.25H343.75V187.5H312.5V156.25Z"/>
<path d="M343.75 156.25H375V187.5H343.75V156.25Z"/>
<path d="M0 187.5H31.25V218.75H0V187.5Z"/>
<path d="M31.25 187.5H62.5V218.75H31.25V187.5Z"/>
<path d="M62.5 187.5H93.75V218.75H62.5V187.5Z"/>
<path d="M93.75 187.5H125V218.75H93.75V187.5Z"/>
<path d="M125 187.5H156.25V218.75H125V187.5Z"/>
<path d="M156.25 187.5H187.5V218.75H156.25V187.5Z"/>
<path d="M187.5 187.5H218.75V218.75H187.5V187.5Z"/>
<path d="M218.75 187.5H250V218.75H218.75V187.5Z"/>
<path d="M250 187.5H281.25V218.75H250V187.5Z"/>
<path d="M281.25 187.5H312.5V218.75H281.25V187.5Z"/>
<path d="M312.5 187.5H343.75V218.75H312.5V187.5Z"/>
<path d="M343.75 187.5H375V218.75H343.75V187.5Z"/>
<path d="M0 218.75H31.25V250H0V218.75Z"/>
<path d="M31.25 218.75H62.5V250H31.25V218.75Z"/>
<path d="M62.5 218.75H93.75V250H62.5V218.75Z"/>
<path d="M93.75 218.75H125V250H93.75V218.75Z"/>
<path d="M125 218.75H156.25V250H125V218.75Z"/>
<path d="M156.25 218.75H187.5V250H156.25V218.75Z"/>
<path d="M187.5 218.75H218.75V250H187.5V218.75Z"/>
<path d="M218.75 218.75H250V250H218.75V218.75Z"/>
<path d="M250 218.75H281.25V250H250V218.75Z"/>
<path d="M281.25 218.75H312.5V250H281.25V218.75Z"/>
<path d="M312.5 218.75H343.75V250H312.5V218.75Z"/>
<path d="M343.75 218.75H375V250H343.75V218.75Z"/>
<path d="M375 0H406.25V31.25H375V0Z"/>
<path d="M406.25 0H437.5V31.25H406.25V0Z"/>
<path d="M437.5 0H468.75V31.25H437.5V0Z"/>
<path d="M468.75 0H500V31.25H468.75V0Z"/>
<path d="M500 0H531.25V31.25H500V0Z"/>
<path d="M531.25 0H562.5V31.25H531.25V0Z"/>
<path d="M562.5 0H593.75V31.25H562.5V0Z"/>
<path d="M593.75 0H625V31.25H593.75V0Z"/>
<path d="M625 0H656.25V31.25H625V0Z"/>
<path d="M656.25 0H687.5V31.25H656.25V0Z"/>
<path d="M687.5 0H718.75V31.25H687.5V0Z"/>
<path d="M718.75 0H750V31.25H718.75V0Z"/>
<path d="M375 31.25H406.25V62.5H375V31.25Z"/>
<path d="M406.25 31.25H437.5V62.5H406.25V31.25Z"/>
<path d="M437.5 31.25H468.75V62.5H437.5V31.25Z"/>
<path d="M468.75 31.25H500V62.5H468.75V31.25Z"/>
<path d="M500 31.25H531.25V62.5H500V31.25Z"/>
<path d="M531.25 31.25H562.5V62.5H531.25V31.25Z"/>
<path d="M562.5 31.25H593.75V62.5H562.5V31.25Z"/>
<path d="M593.75 31.25H625V62.5H593.75V31.25Z"/>
<path d="M625 31.25H656.25V62.5H625V31.25Z"/>
<path d="M656.25 31.25H687.5V62.5H656.25V31.25Z"/>
<path d="M687.5 31.25H718.75V62.5H687.5V31.25Z"/>
<path d="M718.75 31.25H750V62.5H718.75V31.25Z"/>
<path d="M375 62.5H406.25V93.75H375V62.5Z"/>
<path d="M406.25 62.5H437.5V93.75H406.25V62.5Z"/>
<path d="M437.5 62.5H468.75V93.75H437.5V62.5Z"/>
<path d="M468.75 62.5H500V93.75H468.75V62.5Z"/>
<path d="M500 62.5H531.25V93.75H500V62.5Z"/>
<path d="M531.25 62.5H562.5V93.75H531.25V62.5Z"/>
<path d="M562.5 62.5H593.75V93.75H562.5V62.5Z"/>
<path d="M593.75 62.5H625V93.75H593.75V62.5Z"/>
<path d="M625 62.5H656.25V93.75H625V62.5Z"/>
<path d="M656.25 62.5H687.5V93.75H656.25V62.5Z"/>
<path d="M687.5 62.5H718.75V93.75H687.5V62.5Z"/>
<path d="M718.75 62.5H750V93.75H718.75V62.5Z"/>
<path d="M375 93.75H406.25V125H375V93.75Z"/>
<path d="M406.25 93.75H437.5V125H406.25V93.75Z"/>
<path d="M437.5 93.75H468.75V125H437.5V93.75Z"/>
<path d="M468.75 93.75H500V125H468.75V93.75Z"/>
<path d="M500 93.75H531.25V125H500V93.75Z"/>
<path d="M531.25 93.75H562.5V125H531.25V93.75Z"/>
<path d="M562.5 93.75H593.75V125H562.5V93.75Z"/>
<path d="M593.75 93.75H625V125H593.75V93.75Z"/>
<path d="M625 93.75H656.25V125H625V93.75Z"/>
<path d="M656.25 93.75H687.5V125H656.25V93.75Z"/>
<path d="M687.5 93.75H718.75V125H687.5V93.75Z"/>
<path d="M718.75 93.75H750V125H718.75V93.75Z"/>
<path d="M375 125H406.25V156.25H375V125Z"/>
<path d="M406.25 125H437.5V156.25H406.25V125Z"/>
<path d="M437.5 125H468.75V156.25H437.5V125Z"/>
<path d="M468.75 125H500V156.25H468.75V125Z"/>
<path d="M500 125H531.25V156.25H500V125Z"/>
<path d="M531.25 125H562.5V156.25H531.25V125Z"/>
<path d="M562.5 125H593.75V156.25H562.5V125Z"/>
<path d="M593.75 125H625V156.25H593.75V125Z"/>
<path d="M625 125H656.25V156.25H625V125Z"/>
<path d="M656.25 125H687.5V156.25H656.25V125Z"/>
<path d="M687.5 125H718.75V156.25H687.5V125Z"/>
<path d="M718.75 125H750V156.25H718.75V125Z"/>
<path d="M375 156.25H406.25V187.5H375V156.25Z"/>
<path d="M406.25 156.25H437.5V187.5H406.25V156.25Z"/>
<path d="M437.5 156.25H468.75V187.5H437.5V156.25Z"/>
<path d="M468.75 156.25H500V187.5H468.75V156.25Z"/>
<path d="M500 156.25H531.25V187.5H500V156.25Z"/>
<path d="M531.25 156.25H562.5V187.5H531.25V156.25Z"/>
<path d="M562.5 156.25H593.75V187.5H562.5V156.25Z"/>
<path d="M593.75 156.25H625V187.5H593.75V156.25Z"/>
<path d="M625 156.25H656.25V187.5H625V156.25Z"/>
<path d="M656.25 156.25H687.5V187.5H656.25V156.25Z"/>
<path d="M687.5 156.25H718.75V187.5H687.5V156.25Z"/>
<path d="M718.75 156.25H750V187.5H718.75V156.25Z"/>
<path d="M375 187.5H406.25V218.75H375V187.5Z"/>
<path d="M406.25 187.5H437.5V218.75H406.25V187.5Z"/>
<path d="M437.5 187.5H468.75V218.75H437.5V187.5Z"/>
<path d="M468.75 187.5H500V218.75H468.75V187.5Z"/>
<path d="M500 187.5H531.25V218.75H500V187.5Z"/>
<path d="M531.25 187.5H562.5V218.75H531.25V187.5Z"/>
<path d="M562.5 187.5H593.75V218.75H562.5V187.5Z"/>
<path d="M593.75 187.5H625V218.75H593.75V187.5Z"/>
<path d="M625 187.5H656.25V218.75H625V187.5Z"/>
<path d="M656.25 187.5H687.5V218.75H656.25V187.5Z"/>
<path d="M687.5 187.5H718.75V218.75H687.5V187.5Z"/>
<path d="M718.75 187.5H750V218.75H718.75V187.5Z"/>
<path d="M375 218.75H406.25V250H375V218.75Z"/>
<path d="M406.25 218.75H437.5V250H406.25V218.75Z"/>
<path d="M437.5 218.75H468.75V250H437.5V218.75Z"/>
<path d="M468.75 218.75H500V250H468.75V218.75Z"/>
<path d="M500 218.75H531.25V250H500V218.75Z"/>
<path d="M531.25 218.75H562.5V250H531.25V218.75Z"/>
<path d="M562.5 218.75H593.75V250H562.5V218.75Z"/>
<path d="M593.75 218.75H625V250H593.75V218.75Z"/>
<path d="M625 218.75H656.25V250H625V218.75Z"/>
<path d="M656.25 218.75H687.5V250H656.25V218.75Z"/>
<path d="M687.5 218.75H718.75V250H687.5V218.75Z"/>
<path d="M718.75 218.75H750V250H718.75V218.75Z"/>
<path d="M0 250H31.25V281.25H0V250Z"/>
<path d="M31.25 250H62.5V281.25H31.25V250Z"/>
<path d="M62.5 250H93.75V281.25H62.5V250Z"/>
<path d="M93.75 250H125V281.25H93.75V250Z"/>
<path d="M125 250H156.25V281.25H125V250Z"/>
<path d="M156.25 250H187.5V281.25H156.25V250Z"/>
<path d="M187.5 250H218.75V281.25H187.5V250Z"/>
<path d="M218.75 250H250V281.25H218.75V250Z"/>
<path d="M250 250H281.25V281.25H250V250Z"/>
<path d="M281.25 250H312.5V281.25H281.25V250Z"/>
<path d="M312.5 250H343.75V281.25H312.5V250Z"/>
<path d="M343.75 250H375V281.25H343.75V250Z"/>
<path d="M0 281.25H31.25V312.5H0V281.25Z"/>
<path d="M31.25 281.25H62.5V312.5H31.25V281.25Z"/>
<path d="M62.5 281.25H93.75V312.5H62.5V281.25Z"/>
<path d="M93.75 281.25H125V312.5H93.75V281.25Z"/>
<path d="M125 281.25H156.25V312.5H125V281.25Z"/>
<path d="M156.25 281.25H187.5V312.5H156.25V281.25Z"/>
<path d="M187.5 281.25H218.75V312.5H187.5V281.25Z"/>
<path d="M218.75 281.25H250V312.5H218.75V281.25Z"/>
<path d="M250 281.25H281.25V312.5H250V281.25Z"/>
<path d="M281.25 281.25H312.5V312.5H281.25V281.25Z"/>
<path d="M312.5 281.25H343.75V312.5H312.5V281.25Z"/>
<path d="M343.75 281.25H375V312.5H343.75V281.25Z"/>
<path d="M0 312.5H31.25V343.75H0V312.5Z"/>
<path d="M31.25 312.5H62.5V343.75H31.25V312.5Z"/>
<path d="M62.5 312.5H93.75V343.75H62.5V312.5Z"/>
<path d="M93.75 312.5H125V343.75H93.75V312.5Z"/>
<path d="M125 312.5H156.25V343.75H125V312.5Z"/>
<path d="M156.25 312.5H187.5V343.75H156.25V312.5Z"/>
<path d="M187.5 312.5H218.75V343.75H187.5V312.5Z"/>
<path d="M218.75 312.5H250V343.75H218.75V312.5Z"/>
<path d="M250 312.5H281.25V343.75H250V312.5Z"/>
<path d="M281.25 312.5H312.5V343.75H281.25V312.5Z"/>
<path d="M312.5 312.5H343.75V343.75H312.5V312.5Z"/>
<path d="M343.75 312.5H375V343.75H343.75V312.5Z"/>
<path d="M0 343.75H31.25V375H0V343.75Z"/>
<path d="M31.25 343.75H62.5V375H31.25V343.75Z"/>
<path d="M62.5 343.75H93.75V375H62.5V343.75Z"/>
<path d="M93.75 343.75H125V375H93.75V343.75Z"/>
<path d="M125 343.75H156.25V375H125V343.75Z"/>
<path d="M156.25 343.75H187.5V375H156.25V343.75Z"/>
<path d="M187.5 343.75H218.75V375H187.5V343.75Z"/>
<path d="M218.75 343.75H250V375H218.75V343.75Z"/>
<path d="M250 343.75H281.25V375H250V343.75Z"/>
<path d="M281.25 343.75H312.5V375H281.25V343.75Z"/>
<path d="M312.5 343.75H343.75V375H312.5V343.75Z"/>
<path d="M343.75 343.75H375V375H343.75V343.75Z"/>
<path d="M0 375H31.25V406.25H0V375Z"/>
<path d="M31.25 375H62.5V406.25H31.25V375Z"/>
<path d="M62.5 375H93.75V406.25H62.5V375Z"/>
<path d="M93.75 375H125V406.25H93.75V375Z"/>
<path d="M125 375H156.25V406.25H125V375Z"/>
<path d="M156.25 375H187.5V406.25H156.25V375Z"/>
<path d="M187.5 375H218.75V406.25H187.5V375Z"/>
<path d="M218.75 375H250V406.25H218.75V375Z"/>
<path d="M250 375H281.25V406.25H250V375Z"/>
<path d="M281.25 375H312.5V406.25H281.25V375Z"/>
<path d="M312.5 375H343.75V406.25H312.5V375Z"/>
<path d="M343.75 375H375V406.25H343.75V375Z"/>
<path d="M0 406.25H31.25V437.5H0V406.25Z"/>
<path d="M31.25 406.25H62.5V437.5H31.25V406.25Z"/>
<path d="M62.5 406.25H93.75V437.5H62.5V406.25Z"/>
<path d="M93.75 406.25H125V437.5H93.75V406.25Z"/>
<path d="M125 406.25H156.25V437.5H125V406.25Z"/>
<path d="M156.25 406.25H187.5V437.5H156.25V406.25Z"/>
<path d="M187.5 406.25H218.75V437.5H187.5V406.25Z"/>
<path d="M218.75 406.25H250V437.5H218.75V406.25Z"/>
<path d="M250 406.25H281.25V437.5H250V406.25Z"/>
<path d="M281.25 406.25H312.5V437.5H281.25V406.25Z"/>
<path d="M312.5 406.25H343.75V437.5H312.5V406.25Z"/>
<path d="M343.75 406.25H375V437.5H343.75V406.25Z"/>
<path d="M0 437.5H31.25V468.75H0V437.5Z"/>
<path d="M31.25 437.5H62.5V468.75H31.25V437.5Z"/>
<path d="M62.5 437.5H93.75V468.75H62.5V437.5Z"/>
<path d="M93.75 437.5H125V468.75H93.75V437.5Z"/>
<path d="M125 437.5H156.25V468.75H125V437.5Z"/>
<path d="M156.25 437.5H187.5V468.75H156.25V437.5Z"/>
<path d="M187.5 437.5H218.75V468.75H187.5V437.5Z"/>
<path d="M218.75 437.5H250V468.75H218.75V437.5Z"/>
<path d="M250 437.5H281.25V468.75H250V437.5Z"/>
<path d="M281.25 437.5H312.5V468.75H281.25V437.5Z"/>
<path d="M312.5 437.5H343.75V468.75H312.5V437.5Z"/>
<path d="M343.75 437.5H375V468.75H343.75V437.5Z"/>
<path d="M0 468.75H31.25V500H0V468.75Z"/>
<path d="M31.25 468.75H62.5V500H31.25V468.75Z"/>
<path d="M62.5 468.75H93.75V500H62.5V468.75Z"/>
<path d="M93.75 468.75H125V500H93.75V468.75Z"/>
<path d="M125 468.75H156.25V500H125V468.75Z"/>
<path d="M156.25 468.75H187.5V500H156.25V468.75Z"/>
<path d="M187.5 468.75H218.75V500H187.5V468.75Z"/>
<path d="M218.75 468.75H250V500H218.75V468.75Z"/>
<path d="M250 468.75H281.25V500H250V468.75Z"/>
<path d="M281.25 468.75H312.5V500H281.25V468.75Z"/>
<path d="M312.5 468.75H343.75V500H312.5V468.75Z"/>
<path d="M343.75 468.75H375V500H343.75V468.75Z"/>
<path d="M375 250H406.25V281.25H375V250Z"/>
<path d="M406.25 250H437.5V281.25H406.25V250Z"/>
<path d="M437.5 250H468.75V281.25H437.5V250Z"/>
<path d="M468.75 250H500V281.25H468.75V250Z"/>
<path d="M500 250H531.25V281.25H500V250Z"/>
<path d="M531.25 250H562.5V281.25H531.25V250Z"/>
<path d="M562.5 250H593.75V281.25H562.5V250Z"/>
<path d="M593.75 250H625V281.25H593.75V250Z"/>
<path d="M625 250H656.25V281.25H625V250Z"/>
<path d="M656.25 250H687.5V281.25H656.25V250Z"/>
<path d="M687.5 250H718.75V281.25H687.5V250Z"/>
<path d="M718.75 250H750V281.25H718.75V250Z"/>
<path d="M375 281.25H406.25V312.5H375V281.25Z"/>
<path d="M406.25 281.25H437.5V312.5H406.25V281.25Z"/>
<path d="M437.5 281.25H468.75V312.5H437.5V281.25Z"/>
<path d="M468.75 281.25H500V312.5H468.75V281.25Z"/>
<path d="M500 281.25H531.25V312.5H500V281.25Z"/>
<path d="M531.25 281.25H562.5V312.5H531.25V281.25Z"/>
<path d="M562.5 281.25H593.75V312.5H562.5V281.25Z"/>
<path d="M593.75 281.25H625V312.5H593.75V281.25Z"/>
<path d="M625 281.25H656.25V312.5H625V281.25Z"/>
<path d="M656.25 281.25H687.5V312.5H656.25V281.25Z"/>
<path d="M687.5 281.25H718.75V312.5H687.5V281.25Z"/>
<path d="M718.75 281.25H750V312.5H718.75V281.25Z"/>
<path d="M375 312.5H406.25V343.75H375V312.5Z"/>
<path d="M406.25 312.5H437.5V343.75H406.25V312.5Z"/>
<path d="M437.5 312.5H468.75V343.75H437.5V312.5Z"/>
<path d="M468.75 312.5H500V343.75H468.75V312.5Z"/>
<path d="M500 312.5H531.25V343.75H500V312.5Z"/>
<path d="M531.25 312.5H562.5V343.75H531.25V312.5Z"/>
<path d="M562.5 312.5H593.75V343.75H562.5V312.5Z"/>
<path d="M593.75 312.5H625V343.75H593.75V312.5Z"/>
<path d="M625 312.5H656.25V343.75H625V312.5Z"/>
<path d="M656.25 312.5H687.5V343.75H656.25V312.5Z"/>
<path d="M687.5 312.5H718.75V343.75H687.5V312.5Z"/>
<path d="M718.75 312.5H750V343.75H718.75V312.5Z"/>
<path d="M375 343.75H406.25V375H375V343.75Z"/>
<path d="M406.25 343.75H437.5V375H406.25V343.75Z"/>
<path d="M437.5 343.75H468.75V375H437.5V343.75Z"/>
<path d="M468.75 343.75H500V375H468.75V343.75Z"/>
<path d="M500 343.75H531.25V375H500V343.75Z"/>
<path d="M531.25 343.75H562.5V375H531.25V343.75Z"/>
<path d="M562.5 343.75H593.75V375H562.5V343.75Z"/>
<path d="M593.75 343.75H625V375H593.75V343.75Z"/>
<path d="M625 343.75H656.25V375H625V343.75Z"/>
<path d="M656.25 343.75H687.5V375H656.25V343.75Z"/>
<path d="M687.5 343.75H718.75V375H687.5V343.75Z"/>
<path d="M718.75 343.75H750V375H718.75V343.75Z"/>
<path d="M375 375H406.25V406.25H375V375Z"/>
<path d="M406.25 375H437.5V406.25H406.25V375Z"/>
<path d="M437.5 375H468.75V406.25H437.5V375Z"/>
<path d="M468.75 375H500V406.25H468.75V375Z"/>
<path d="M500 375H531.25V406.25H500V375Z"/>
<path d="M531.25 375H562.5V406.25H531.25V375Z"/>
<path d="M562.5 375H593.75V406.25H562.5V375Z"/>
<path d="M593.75 375H625V406.25H593.75V375Z"/>
<path d="M625 375H656.25V406.25H625V375Z"/>
<path d="M656.25 375H687.5V406.25H656.25V375Z"/>
<path d="M687.5 375H718.75V406.25H687.5V375Z"/>
<path d="M718.75 375H750V406.25H718.75V375Z"/>
<path d="M375 406.25H406.25V437.5H375V406.25Z"/>
<path d="M406.25 406.25H437.5V437.5H406.25V406.25Z"/>
<path d="M437.5 406.25H468.75V437.5H437.5V406.25Z"/>
<path d="M468.75 406.25H500V437.5H468.75V406.25Z"/>
<path d="M500 406.25H531.25V437.5H500V406.25Z"/>
<path d="M531.25 406.25H562.5V437.5H531.25V406.25Z"/>
<path d="M562.5 406.25H593.75V437.5H562.5V406.25Z"/>
<path d="M593.75 406.25H625V437.5H593.75V406.25Z"/>
<path d="M625 406.25H656.25V437.5H625V406.25Z"/>
<path d="M656.25 406.25H687.5V437.5H656.25V406.25Z"/>
<path d="M687.5 406.25H718.75V437.5H687.5V406.25Z"/>
<path d="M718.75 406.25H750V437.5H718.75V406.25Z"/>
<path d="M375 437.5H406.25V468.75H375V437.5Z"/>
<path d="M406.25 437.5H437.5V468.75H406.25V437.5Z"/>
<path d="M437.5 437.5H468.75V468.75H437.5V437.5Z"/>
<path d="M468.75 437.5H500V468.75H468.75V437.5Z"/>
<path d="M500 437.5H531.25V468.75H500V437.5Z"/>
<path d="M531.25 437.5H562.5V468.75H531.25V437.5Z"/>
<path d="M562.5 437.5H593.75V468.75H562.5V437.5Z"/>
<path d="M593.75 437.5H625V468.75H593.75V437.5Z"/>
<path d="M625 437.5H656.25V468.75H625V437.5Z"/>
<path d="M656.25 437.5H687.5V468.75H656.25V437.5Z"/>
<path d="M687.5 437.5H718.75V468.75H687.5V437.5Z"/>
<path d="M718.75 437.5H750V468.75H718.75V437.5Z"/>
<path d="M375 468.75H406.25V500H375V468.75Z"/>
<path d="M406.25 468.75H437.5V500H406.25V468.75Z"/>
<path d="M437.5 468.75H468.75V500H437.5V468.75Z"/>
<path d="M468.75 468.75H500V500H468.75V468.75Z"/>
<path d="M500 468.75H531.25V500H500V468.75Z"/>
<path d="M531.25 468.75H562.5V500H531.25V468.75Z"/>
<path d="M562.5 468.75H593.75V500H562.5V468.75Z"/>
<path d="M593.75 468.75H625V500H593.75V468.75Z"/>
<path d="M625 468.75H656.25V500H625V468.75Z"/>
<path d="M656.25 468.75H687.5V500H656.25V468.75Z"/>
<path d="M687.5 468.75H718.75V500H687.5V468.75Z"/>
<path d="M718.75 468.75H750V500H718.75V468.75Z"/>
</mask>
<path d="M30.914 0V31.25H31.586V0H30.914ZM31.25 30.914H0V31.586H31.25V30.914ZM62.164 0V31.25H62.836V0H62.164ZM62.5 30.914H31.25V31.586H62.5V30.914ZM93.414 0V31.25H94.086V0H93.414ZM93.75 30.914H62.5V31.586H93.75V30.914ZM124.664 0V31.25H125.336V0H124.664ZM125 30.914H93.75V31.586H125V30.914ZM155.914 0V31.25H156.586V0H155.914ZM156.25 30.914H125V31.586H156.25V30.914ZM187.164 0V31.25H187.836V0H187.164ZM187.5 30.914H156.25V31.586H187.5V30.914ZM218.414 0V31.25H219.086V0H218.414ZM218.75 30.914H187.5V31.586H218.75V30.914ZM249.664 0V31.25H250.336V0H249.664ZM250 30.914H218.75V31.586H250V30.914ZM280.914 0V31.25H281.586V0H280.914ZM281.25 30.914H250V31.586H281.25V30.914ZM312.164 0V31.25H312.836V0H312.164ZM312.5 30.914H281.25V31.586H312.5V30.914ZM343.414 0V31.25H344.086V0H343.414ZM343.75 30.914H312.5V31.586H343.75V30.914ZM374.664 0V31.25H375.336V0H374.664ZM375 30.914H343.75V31.586H375V30.914ZM30.914 31.25V62.5H31.586V31.25H30.914ZM31.25 62.164H0V62.836H31.25V62.164ZM62.164 31.25V62.5H62.836V31.25H62.164ZM62.5 62.164H31.25V62.836H62.5V62.164ZM93.414 31.25V62.5H94.086V31.25H93.414ZM93.75 62.164H62.5V62.836H93.75V62.164ZM124.664 31.25V62.5H125.336V31.25H124.664ZM125 62.164H93.75V62.836H125V62.164ZM155.914 31.25V62.5H156.586V31.25H155.914ZM156.25 62.164H125V62.836H156.25V62.164ZM187.164 31.25V62.5H187.836V31.25H187.164ZM187.5 62.164H156.25V62.836H187.5V62.164ZM218.414 31.25V62.5H219.086V31.25H218.414ZM218.75 62.164H187.5V62.836H218.75V62.164ZM249.664 31.25V62.5H250.336V31.25H249.664ZM250 62.164H218.75V62.836H250V62.164ZM280.914 31.25V62.5H281.586V31.25H280.914ZM281.25 62.164H250V62.836H281.25V62.164ZM312.164 31.25V62.5H312.836V31.25H312.164ZM312.5 62.164H281.25V62.836H312.5V62.164ZM343.414 31.25V62.5H344.086V31.25H343.414ZM343.75 62.164H312.5V62.836H343.75V62.164ZM374.664 31.25V62.5H375.336V31.25H374.664ZM375 62.164H343.75V62.836H375V62.164ZM30.914 62.5V93.75H31.586V62.5H30.914ZM31.25 93.414H0V94.086H31.25V93.414ZM62.164 62.5V93.75H62.836V62.5H62.164ZM62.5 93.414H31.25V94.086H62.5V93.414ZM93.414 62.5V93.75H94.086V62.5H93.414ZM93.75 93.414H62.5V94.086H93.75V93.414ZM124.664 62.5V93.75H125.336V62.5H124.664ZM125 93.414H93.75V94.086H125V93.414ZM155.914 62.5V93.75H156.586V62.5H155.914ZM156.25 93.414H125V94.086H156.25V93.414ZM187.164 62.5V93.75H187.836V62.5H187.164ZM187.5 93.414H156.25V94.086H187.5V93.414ZM218.414 62.5V93.75H219.086V62.5H218.414ZM218.75 93.414H187.5V94.086H218.75V93.414ZM249.664 62.5V93.75H250.336V62.5H249.664ZM250 93.414H218.75V94.086H250V93.414ZM280.914 62.5V93.75H281.586V62.5H280.914ZM281.25 93.414H250V94.086H281.25V93.414ZM312.164 62.5V93.75H312.836V62.5H312.164ZM312.5 93.414H281.25V94.086H312.5V93.414ZM343.414 62.5V93.75H344.086V62.5H343.414ZM343.75 93.414H312.5V94.086H343.75V93.414ZM374.664 62.5V93.75H375.336V62.5H374.664ZM375 93.414H343.75V94.086H375V93.414ZM30.914 93.75V125H31.586V93.75H30.914ZM31.25 124.664H0V125.336H31.25V124.664ZM62.164 93.75V125H62.836V93.75H62.164ZM62.5 124.664H31.25V125.336H62.5V124.664ZM93.414 93.75V125H94.086V93.75H93.414ZM93.75 124.664H62.5V125.336H93.75V124.664ZM124.664 93.75V125H125.336V93.75H124.664ZM125 124.664H93.75V125.336H125V124.664ZM155.914 93.75V125H156.586V93.75H155.914ZM156.25 124.664H125V125.336H156.25V124.664ZM187.164 93.75V125H187.836V93.75H187.164ZM187.5 124.664H156.25V125.336H187.5V124.664ZM218.414 93.75V125H219.086V93.75H218.414ZM218.75 124.664H187.5V125.336H218.75V124.664ZM249.664 93.75V125H250.336V93.75H249.664ZM250 124.664H218.75V125.336H250V124.664ZM280.914 93.75V125H281.586V93.75H280.914ZM281.25 124.664H250V125.336H281.25V124.664ZM312.164 93.75V125H312.836V93.75H312.164ZM312.5 124.664H281.25V125.336H312.5V124.664ZM343.414 93.75V125H344.086V93.75H343.414ZM343.75 124.664H312.5V125.336H343.75V124.664ZM374.664 93.75V125H375.336V93.75H374.664ZM375 124.664H343.75V125.336H375V124.664ZM30.914 125V156.25H31.586V125H30.914ZM31.25 155.914H0V156.586H31.25V155.914ZM62.164 125V156.25H62.836V125H62.164ZM62.5 155.914H31.25V156.586H62.5V155.914ZM93.414 125V156.25H94.086V125H93.414ZM93.75 155.914H62.5V156.586H93.75V155.914ZM124.664 125V156.25H125.336V125H124.664ZM125 155.914H93.75V156.586H125V155.914ZM155.914 125V156.25H156.586V125H155.914ZM156.25 155.914H125V156.586H156.25V155.914ZM187.164 125V156.25H187.836V125H187.164ZM187.5 155.914H156.25V156.586H187.5V155.914ZM218.414 125V156.25H219.086V125H218.414ZM218.75 155.914H187.5V156.586H218.75V155.914ZM249.664 125V156.25H250.336V125H249.664ZM250 155.914H218.75V156.586H250V155.914ZM280.914 125V156.25H281.586V125H280.914ZM281.25 155.914H250V156.586H281.25V155.914ZM312.164 125V156.25H312.836V125H312.164ZM312.5 155.914H281.25V156.586H312.5V155.914ZM343.414 125V156.25H344.086V125H343.414ZM343.75 155.914H312.5V156.586H343.75V155.914ZM374.664 125V156.25H375.336V125H374.664ZM375 155.914H343.75V156.586H375V155.914ZM30.914 156.25V187.5H31.586V156.25H30.914ZM31.25 187.164H0V187.836H31.25V187.164ZM62.164 156.25V187.5H62.836V156.25H62.164ZM62.5 187.164H31.25V187.836H62.5V187.164ZM93.414 156.25V187.5H94.086V156.25H93.414ZM93.75 187.164H62.5V187.836H93.75V187.164ZM124.664 156.25V187.5H125.336V156.25H124.664ZM125 187.164H93.75V187.836H125V187.164ZM155.914 156.25V187.5H156.586V156.25H155.914ZM156.25 187.164H125V187.836H156.25V187.164ZM187.164 156.25V187.5H187.836V156.25H187.164ZM187.5 187.164H156.25V187.836H187.5V187.164ZM218.414 156.25V187.5H219.086V156.25H218.414ZM218.75 187.164H187.5V187.836H218.75V187.164ZM249.664 156.25V187.5H250.336V156.25H249.664ZM250 187.164H218.75V187.836H250V187.164ZM280.914 156.25V187.5H281.586V156.25H280.914ZM281.25 187.164H250V187.836H281.25V187.164ZM312.164 156.25V187.5H312.836V156.25H312.164ZM312.5 187.164H281.25V187.836H312.5V187.164ZM343.414 156.25V187.5H344.086V156.25H343.414ZM343.75 187.164H312.5V187.836H343.75V187.164ZM374.664 156.25V187.5H375.336V156.25H374.664ZM375 187.164H343.75V187.836H375V187.164ZM30.914 187.5V218.75H31.586V187.5H30.914ZM31.25 218.414H0V219.086H31.25V218.414ZM62.164 187.5V218.75H62.836V187.5H62.164ZM62.5 218.414H31.25V219.086H62.5V218.414ZM93.414 187.5V218.75H94.086V187.5H93.414ZM93.75 218.414H62.5V219.086H93.75V218.414ZM124.664 187.5V218.75H125.336V187.5H124.664ZM125 218.414H93.75V219.086H125V218.414ZM155.914 187.5V218.75H156.586V187.5H155.914ZM156.25 218.414H125V219.086H156.25V218.414ZM187.164 187.5V218.75H187.836V187.5H187.164ZM187.5 218.414H156.25V219.086H187.5V218.414ZM218.414 187.5V218.75H219.086V187.5H218.414ZM218.75 218.414H187.5V219.086H218.75V218.414ZM249.664 187.5V218.75H250.336V187.5H249.664ZM250 218.414H218.75V219.086H250V218.414ZM280.914 187.5V218.75H281.586V187.5H280.914ZM281.25 218.414H250V219.086H281.25V218.414ZM312.164 187.5V218.75H312.836V187.5H312.164ZM312.5 218.414H281.25V219.086H312.5V218.414ZM343.414 187.5V218.75H344.086V187.5H343.414ZM343.75 218.414H312.5V219.086H343.75V218.414ZM374.664 187.5V218.75H375.336V187.5H374.664ZM375 218.414H343.75V219.086H375V218.414ZM30.914 218.75V250H31.586V218.75H30.914ZM31.25 249.664H0V250.336H31.25V249.664ZM62.164 218.75V250H62.836V218.75H62.164ZM62.5 249.664H31.25V250.336H62.5V249.664ZM93.414 218.75V250H94.086V218.75H93.414ZM93.75 249.664H62.5V250.336H93.75V249.664ZM124.664 218.75V250H125.336V218.75H124.664ZM125 249.664H93.75V250.336H125V249.664ZM155.914 218.75V250H156.586V218.75H155.914ZM156.25 249.664H125V250.336H156.25V249.664ZM187.164 218.75V250H187.836V218.75H187.164ZM187.5 249.664H156.25V250.336H187.5V249.664ZM218.414 218.75V250H219.086V218.75H218.414ZM218.75 249.664H187.5V250.336H218.75V249.664ZM249.664 218.75V250H250.336V218.75H249.664ZM250 249.664H218.75V250.336H250V249.664ZM280.914 218.75V250H281.586V218.75H280.914ZM281.25 249.664H250V250.336H281.25V249.664ZM312.164 218.75V250H312.836V218.75H312.164ZM312.5 249.664H281.25V250.336H312.5V249.664ZM343.414 218.75V250H344.086V218.75H343.414ZM343.75 249.664H312.5V250.336H343.75V249.664ZM374.664 218.75V250H375.336V218.75H374.664ZM375 249.664H343.75V250.336H375V249.664ZM405.914 0V31.25H406.586V0H405.914ZM406.25 30.914H375V31.586H406.25V30.914ZM437.164 0V31.25H437.836V0H437.164ZM437.5 30.914H406.25V31.586H437.5V30.914ZM468.414 0V31.25H469.086V0H468.414ZM468.75 30.914H437.5V31.586H468.75V30.914ZM499.664 0V31.25H500.336V0H499.664ZM500 30.914H468.75V31.586H500V30.914ZM530.914 0V31.25H531.586V0H530.914ZM531.25 30.914H500V31.586H531.25V30.914ZM562.164 0V31.25H562.836V0H562.164ZM562.5 30.914H531.25V31.586H562.5V30.914ZM593.414 0V31.25H594.086V0H593.414ZM593.75 30.914H562.5V31.586H593.75V30.914ZM624.664 0V31.25H625.336V0H624.664ZM625 30.914H593.75V31.586H625V30.914ZM655.914 0V31.25H656.586V0H655.914ZM656.25 30.914H625V31.586H656.25V30.914ZM687.164 0V31.25H687.836V0H687.164ZM687.5 30.914H656.25V31.586H687.5V30.914ZM718.414 0V31.25H719.086V0H718.414ZM718.75 30.914H687.5V31.586H718.75V30.914ZM750 30.914H718.75V31.586H750V30.914ZM405.914 31.25V62.5H406.586V31.25H405.914ZM406.25 62.164H375V62.836H406.25V62.164ZM437.164 31.25V62.5H437.836V31.25H437.164ZM437.5 62.164H406.25V62.836H437.5V62.164ZM468.414 31.25V62.5H469.086V31.25H468.414ZM468.75 62.164H437.5V62.836H468.75V62.164ZM499.664 31.25V62.5H500.336V31.25H499.664ZM500 62.164H468.75V62.836H500V62.164ZM530.914 31.25V62.5H531.586V31.25H530.914ZM531.25 62.164H500V62.836H531.25V62.164ZM562.164 31.25V62.5H562.836V31.25H562.164ZM562.5 62.164H531.25V62.836H562.5V62.164ZM593.414 31.25V62.5H594.086V31.25H593.414ZM593.75 62.164H562.5V62.836H593.75V62.164ZM624.664 31.25V62.5H625.336V31.25H624.664ZM625 62.164H593.75V62.836H625V62.164ZM655.914 31.25V62.5H656.586V31.25H655.914ZM656.25 62.164H625V62.836H656.25V62.164ZM687.164 31.25V62.5H687.836V31.25H687.164ZM687.5 62.164H656.25V62.836H687.5V62.164ZM718.414 31.25V62.5H719.086V31.25H718.414ZM718.75 62.164H687.5V62.836H718.75V62.164ZM750 62.164H718.75V62.836H750V62.164ZM405.914 62.5V93.75H406.586V62.5H405.914ZM406.25 93.414H375V94.086H406.25V93.414ZM437.164 62.5V93.75H437.836V62.5H437.164ZM437.5 93.414H406.25V94.086H437.5V93.414ZM468.414 62.5V93.75H469.086V62.5H468.414ZM468.75 93.414H437.5V94.086H468.75V93.414ZM499.664 62.5V93.75H500.336V62.5H499.664ZM500 93.414H468.75V94.086H500V93.414ZM530.914 62.5V93.75H531.586V62.5H530.914ZM531.25 93.414H500V94.086H531.25V93.414ZM562.164 62.5V93.75H562.836V62.5H562.164ZM562.5 93.414H531.25V94.086H562.5V93.414ZM593.414 62.5V93.75H594.086V62.5H593.414ZM593.75 93.414H562.5V94.086H593.75V93.414ZM624.664 62.5V93.75H625.336V62.5H624.664ZM625 93.414H593.75V94.086H625V93.414ZM655.914 62.5V93.75H656.586V62.5H655.914ZM656.25 93.414H625V94.086H656.25V93.414ZM687.164 62.5V93.75H687.836V62.5H687.164ZM687.5 93.414H656.25V94.086H687.5V93.414ZM718.414 62.5V93.75H719.086V62.5H718.414ZM718.75 93.414H687.5V94.086H718.75V93.414ZM750 93.414H718.75V94.086H750V93.414ZM405.914 93.75V125H406.586V93.75H405.914ZM406.25 124.664H375V125.336H406.25V124.664ZM437.164 93.75V125H437.836V93.75H437.164ZM437.5 124.664H406.25V125.336H437.5V124.664ZM468.414 93.75V125H469.086V93.75H468.414ZM468.75 124.664H437.5V125.336H468.75V124.664ZM499.664 93.75V125H500.336V93.75H499.664ZM500 124.664H468.75V125.336H500V124.664ZM530.914 93.75V125H531.586V93.75H530.914ZM531.25 124.664H500V125.336H531.25V124.664ZM562.164 93.75V125H562.836V93.75H562.164ZM562.5 124.664H531.25V125.336H562.5V124.664ZM593.414 93.75V125H594.086V93.75H593.414ZM593.75 124.664H562.5V125.336H593.75V124.664ZM624.664 93.75V125H625.336V93.75H624.664ZM625 124.664H593.75V125.336H625V124.664ZM655.914 93.75V125H656.586V93.75H655.914ZM656.25 124.664H625V125.336H656.25V124.664ZM687.164 93.75V125H687.836V93.75H687.164ZM687.5 124.664H656.25V125.336H687.5V124.664ZM718.414 93.75V125H719.086V93.75H718.414ZM718.75 124.664H687.5V125.336H718.75V124.664ZM750 124.664H718.75V125.336H750V124.664ZM405.914 125V156.25H406.586V125H405.914ZM406.25 155.914H375V156.586H406.25V155.914ZM437.164 125V156.25H437.836V125H437.164ZM437.5 155.914H406.25V156.586H437.5V155.914ZM468.414 125V156.25H469.086V125H468.414ZM468.75 155.914H437.5V156.586H468.75V155.914ZM499.664 125V156.25H500.336V125H499.664ZM500 155.914H468.75V156.586H500V155.914ZM530.914 125V156.25H531.586V125H530.914ZM531.25 155.914H500V156.586H531.25V155.914ZM562.164 125V156.25H562.836V125H562.164ZM562.5 155.914H531.25V156.586H562.5V155.914ZM593.414 125V156.25H594.086V125H593.414ZM593.75 155.914H562.5V156.586H593.75V155.914ZM624.664 125V156.25H625.336V125H624.664ZM625 155.914H593.75V156.586H625V155.914ZM655.914 125V156.25H656.586V125H655.914ZM656.25 155.914H625V156.586H656.25V155.914ZM687.164 125V156.25H687.836V125H687.164ZM687.5 155.914H656.25V156.586H687.5V155.914ZM718.414 125V156.25H719.086V125H718.414ZM718.75 155.914H687.5V156.586H718.75V155.914ZM750 155.914H718.75V156.586H750V155.914ZM405.914 156.25V187.5H406.586V156.25H405.914ZM406.25 187.164H375V187.836H406.25V187.164ZM437.164 156.25V187.5H437.836V156.25H437.164ZM437.5 187.164H406.25V187.836H437.5V187.164ZM468.414 156.25V187.5H469.086V156.25H468.414ZM468.75 187.164H437.5V187.836H468.75V187.164ZM499.664 156.25V187.5H500.336V156.25H499.664ZM500 187.164H468.75V187.836H500V187.164ZM530.914 156.25V187.5H531.586V156.25H530.914ZM531.25 187.164H500V187.836H531.25V187.164ZM562.164 156.25V187.5H562.836V156.25H562.164ZM562.5 187.164H531.25V187.836H562.5V187.164ZM593.414 156.25V187.5H594.086V156.25H593.414ZM593.75 187.164H562.5V187.836H593.75V187.164ZM624.664 156.25V187.5H625.336V156.25H624.664ZM625 187.164H593.75V187.836H625V187.164ZM655.914 156.25V187.5H656.586V156.25H655.914ZM656.25 187.164H625V187.836H656.25V187.164ZM687.164 156.25V187.5H687.836V156.25H687.164ZM687.5 187.164H656.25V187.836H687.5V187.164ZM718.414 156.25V187.5H719.086V156.25H718.414ZM718.75 187.164H687.5V187.836H718.75V187.164ZM750 187.164H718.75V187.836H750V187.164ZM405.914 187.5V218.75H406.586V187.5H405.914ZM406.25 218.414H375V219.086H406.25V218.414ZM437.164 187.5V218.75H437.836V187.5H437.164ZM437.5 218.414H406.25V219.086H437.5V218.414ZM468.414 187.5V218.75H469.086V187.5H468.414ZM468.75 218.414H437.5V219.086H468.75V218.414ZM499.664 187.5V218.75H500.336V187.5H499.664ZM500 218.414H468.75V219.086H500V218.414ZM530.914 187.5V218.75H531.586V187.5H530.914ZM531.25 218.414H500V219.086H531.25V218.414ZM562.164 187.5V218.75H562.836V187.5H562.164ZM562.5 218.414H531.25V219.086H562.5V218.414ZM593.414 187.5V218.75H594.086V187.5H593.414ZM593.75 218.414H562.5V219.086H593.75V218.414ZM624.664 187.5V218.75H625.336V187.5H624.664ZM625 218.414H593.75V219.086H625V218.414ZM655.914 187.5V218.75H656.586V187.5H655.914ZM656.25 218.414H625V219.086H656.25V218.414ZM687.164 187.5V218.75H687.836V187.5H687.164ZM687.5 218.414H656.25V219.086H687.5V218.414ZM718.414 187.5V218.75H719.086V187.5H718.414ZM718.75 218.414H687.5V219.086H718.75V218.414ZM750 218.414H718.75V219.086H750V218.414ZM405.914 218.75V250H406.586V218.75H405.914ZM406.25 249.664H375V250.336H406.25V249.664ZM437.164 218.75V250H437.836V218.75H437.164ZM437.5 249.664H406.25V250.336H437.5V249.664ZM468.414 218.75V250H469.086V218.75H468.414ZM468.75 249.664H437.5V250.336H468.75V249.664ZM499.664 218.75V250H500.336V218.75H499.664ZM500 249.664H468.75V250.336H500V249.664ZM530.914 218.75V250H531.586V218.75H530.914ZM531.25 249.664H500V250.336H531.25V249.664ZM562.164 218.75V250H562.836V218.75H562.164ZM562.5 249.664H531.25V250.336H562.5V249.664ZM593.414 218.75V250H594.086V218.75H593.414ZM593.75 249.664H562.5V250.336H593.75V249.664ZM624.664 218.75V250H625.336V218.75H624.664ZM625 249.664H593.75V250.336H625V249.664ZM655.914 218.75V250H656.586V218.75H655.914ZM656.25 249.664H625V250.336H656.25V249.664ZM687.164 218.75V250H687.836V218.75H687.164ZM687.5 249.664H656.25V250.336H687.5V249.664ZM718.414 218.75V250H719.086V218.75H718.414ZM718.75 249.664H687.5V250.336H718.75V249.664ZM750 249.664H718.75V250.336H750V249.664ZM30.914 250V281.25H31.586V250H30.914ZM31.25 280.914H0V281.586H31.25V280.914ZM62.164 250V281.25H62.836V250H62.164ZM62.5 280.914H31.25V281.586H62.5V280.914ZM93.414 250V281.25H94.086V250H93.414ZM93.75 280.914H62.5V281.586H93.75V280.914ZM124.664 250V281.25H125.336V250H124.664ZM125 280.914H93.75V281.586H125V280.914ZM155.914 250V281.25H156.586V250H155.914ZM156.25 280.914H125V281.586H156.25V280.914ZM187.164 250V281.25H187.836V250H187.164ZM187.5 280.914H156.25V281.586H187.5V280.914ZM218.414 250V281.25H219.086V250H218.414ZM218.75 280.914H187.5V281.586H218.75V280.914ZM249.664 250V281.25H250.336V250H249.664ZM250 280.914H218.75V281.586H250V280.914ZM280.914 250V281.25H281.586V250H280.914ZM281.25 280.914H250V281.586H281.25V280.914ZM312.164 250V281.25H312.836V250H312.164ZM312.5 280.914H281.25V281.586H312.5V280.914ZM343.414 250V281.25H344.086V250H343.414ZM343.75 280.914H312.5V281.586H343.75V280.914ZM374.664 250V281.25H375.336V250H374.664ZM375 280.914H343.75V281.586H375V280.914ZM30.914 281.25V312.5H31.586V281.25H30.914ZM31.25 312.164H0V312.836H31.25V312.164ZM62.164 281.25V312.5H62.836V281.25H62.164ZM62.5 312.164H31.25V312.836H62.5V312.164ZM93.414 281.25V312.5H94.086V281.25H93.414ZM93.75 312.164H62.5V312.836H93.75V312.164ZM124.664 281.25V312.5H125.336V281.25H124.664ZM125 312.164H93.75V312.836H125V312.164ZM155.914 281.25V312.5H156.586V281.25H155.914ZM156.25 312.164H125V312.836H156.25V312.164ZM187.164 281.25V312.5H187.836V281.25H187.164ZM187.5 312.164H156.25V312.836H187.5V312.164ZM218.414 281.25V312.5H219.086V281.25H218.414ZM218.75 312.164H187.5V312.836H218.75V312.164ZM249.664 281.25V312.5H250.336V281.25H249.664ZM250 312.164H218.75V312.836H250V312.164ZM280.914 281.25V312.5H281.586V281.25H280.914ZM281.25 312.164H250V312.836H281.25V312.164ZM312.164 281.25V312.5H312.836V281.25H312.164ZM312.5 312.164H281.25V312.836H312.5V312.164ZM343.414 281.25V312.5H344.086V281.25H343.414ZM343.75 312.164H312.5V312.836H343.75V312.164ZM374.664 281.25V312.5H375.336V281.25H374.664ZM375 312.164H343.75V312.836H375V312.164ZM30.914 312.5V343.75H31.586V312.5H30.914ZM31.25 343.414H0V344.086H31.25V343.414ZM62.164 312.5V343.75H62.836V312.5H62.164ZM62.5 343.414H31.25V344.086H62.5V343.414ZM93.414 312.5V343.75H94.086V312.5H93.414ZM93.75 343.414H62.5V344.086H93.75V343.414ZM124.664 312.5V343.75H125.336V312.5H124.664ZM125 343.414H93.75V344.086H125V343.414ZM155.914 312.5V343.75H156.586V312.5H155.914ZM156.25 343.414H125V344.086H156.25V343.414ZM187.164 312.5V343.75H187.836V312.5H187.164ZM187.5 343.414H156.25V344.086H187.5V343.414ZM218.414 312.5V343.75H219.086V312.5H218.414ZM218.75 343.414H187.5V344.086H218.75V343.414ZM249.664 312.5V343.75H250.336V312.5H249.664ZM250 343.414H218.75V344.086H250V343.414ZM280.914 312.5V343.75H281.586V312.5H280.914ZM281.25 343.414H250V344.086H281.25V343.414ZM312.164 312.5V343.75H312.836V312.5H312.164ZM312.5 343.414H281.25V344.086H312.5V343.414ZM343.414 312.5V343.75H344.086V312.5H343.414ZM343.75 343.414H312.5V344.086H343.75V343.414ZM374.664 312.5V343.75H375.336V312.5H374.664ZM375 343.414H343.75V344.086H375V343.414ZM30.914 343.75V375H31.586V343.75H30.914ZM31.25 374.664H0V375.336H31.25V374.664ZM62.164 343.75V375H62.836V343.75H62.164ZM62.5 374.664H31.25V375.336H62.5V374.664ZM93.414 343.75V375H94.086V343.75H93.414ZM93.75 374.664H62.5V375.336H93.75V374.664ZM124.664 343.75V375H125.336V343.75H124.664ZM125 374.664H93.75V375.336H125V374.664ZM155.914 343.75V375H156.586V343.75H155.914ZM156.25 374.664H125V375.336H156.25V374.664ZM187.164 343.75V375H187.836V343.75H187.164ZM187.5 374.664H156.25V375.336H187.5V374.664ZM218.414 343.75V375H219.086V343.75H218.414ZM218.75 374.664H187.5V375.336H218.75V374.664ZM249.664 343.75V375H250.336V343.75H249.664ZM250 374.664H218.75V375.336H250V374.664ZM280.914 343.75V375H281.586V343.75H280.914ZM281.25 374.664H250V375.336H281.25V374.664ZM312.164 343.75V375H312.836V343.75H312.164ZM312.5 374.664H281.25V375.336H312.5V374.664ZM343.414 343.75V375H344.086V343.75H343.414ZM343.75 374.664H312.5V375.336H343.75V374.664ZM374.664 343.75V375H375.336V343.75H374.664ZM375 374.664H343.75V375.336H375V374.664ZM30.914 375V406.25H31.586V375H30.914ZM31.25 405.914H0V406.586H31.25V405.914ZM62.164 375V406.25H62.836V375H62.164ZM62.5 405.914H31.25V406.586H62.5V405.914ZM93.414 375V406.25H94.086V375H93.414ZM93.75 405.914H62.5V406.586H93.75V405.914ZM124.664 375V406.25H125.336V375H124.664ZM125 405.914H93.75V406.586H125V405.914ZM155.914 375V406.25H156.586V375H155.914ZM156.25 405.914H125V406.586H156.25V405.914ZM187.164 375V406.25H187.836V375H187.164ZM187.5 405.914H156.25V406.586H187.5V405.914ZM218.414 375V406.25H219.086V375H218.414ZM218.75 405.914H187.5V406.586H218.75V405.914ZM249.664 375V406.25H250.336V375H249.664ZM250 405.914H218.75V406.586H250V405.914ZM280.914 375V406.25H281.586V375H280.914ZM281.25 405.914H250V406.586H281.25V405.914ZM312.164 375V406.25H312.836V375H312.164ZM312.5 405.914H281.25V406.586H312.5V405.914ZM343.414 375V406.25H344.086V375H343.414ZM343.75 405.914H312.5V406.586H343.75V405.914ZM374.664 375V406.25H375.336V375H374.664ZM375 405.914H343.75V406.586H375V405.914ZM30.914 406.25V437.5H31.586V406.25H30.914ZM31.25 437.164H0V437.836H31.25V437.164ZM62.164 406.25V437.5H62.836V406.25H62.164ZM62.5 437.164H31.25V437.836H62.5V437.164ZM93.414 406.25V437.5H94.086V406.25H93.414ZM93.75 437.164H62.5V437.836H93.75V437.164ZM124.664 406.25V437.5H125.336V406.25H124.664ZM125 437.164H93.75V437.836H125V437.164ZM155.914 406.25V437.5H156.586V406.25H155.914ZM156.25 437.164H125V437.836H156.25V437.164ZM187.164 406.25V437.5H187.836V406.25H187.164ZM187.5 437.164H156.25V437.836H187.5V437.164ZM218.414 406.25V437.5H219.086V406.25H218.414ZM218.75 437.164H187.5V437.836H218.75V437.164ZM249.664 406.25V437.5H250.336V406.25H249.664ZM250 437.164H218.75V437.836H250V437.164ZM280.914 406.25V437.5H281.586V406.25H280.914ZM281.25 437.164H250V437.836H281.25V437.164ZM312.164 406.25V437.5H312.836V406.25H312.164ZM312.5 437.164H281.25V437.836H312.5V437.164ZM343.414 406.25V437.5H344.086V406.25H343.414ZM343.75 437.164H312.5V437.836H343.75V437.164ZM374.664 406.25V437.5H375.336V406.25H374.664ZM375 437.164H343.75V437.836H375V437.164ZM30.914 437.5V468.75H31.586V437.5H30.914ZM31.25 468.414H0V469.086H31.25V468.414ZM62.164 437.5V468.75H62.836V437.5H62.164ZM62.5 468.414H31.25V469.086H62.5V468.414ZM93.414 437.5V468.75H94.086V437.5H93.414ZM93.75 468.414H62.5V469.086H93.75V468.414ZM124.664 437.5V468.75H125.336V437.5H124.664ZM125 468.414H93.75V469.086H125V468.414ZM155.914 437.5V468.75H156.586V437.5H155.914ZM156.25 468.414H125V469.086H156.25V468.414ZM187.164 437.5V468.75H187.836V437.5H187.164ZM187.5 468.414H156.25V469.086H187.5V468.414ZM218.414 437.5V468.75H219.086V437.5H218.414ZM218.75 468.414H187.5V469.086H218.75V468.414ZM249.664 437.5V468.75H250.336V437.5H249.664ZM250 468.414H218.75V469.086H250V468.414ZM280.914 437.5V468.75H281.586V437.5H280.914ZM281.25 468.414H250V469.086H281.25V468.414ZM312.164 437.5V468.75H312.836V437.5H312.164ZM312.5 468.414H281.25V469.086H312.5V468.414ZM343.414 437.5V468.75H344.086V437.5H343.414ZM343.75 468.414H312.5V469.086H343.75V468.414ZM374.664 437.5V468.75H375.336V437.5H374.664ZM375 468.414H343.75V469.086H375V468.414ZM30.914 468.75V500H31.586V468.75H30.914ZM62.164 468.75V500H62.836V468.75H62.164ZM93.414 468.75V500H94.086V468.75H93.414ZM124.664 468.75V500H125.336V468.75H124.664ZM155.914 468.75V500H156.586V468.75H155.914ZM187.164 468.75V500H187.836V468.75H187.164ZM218.414 468.75V500H219.086V468.75H218.414ZM249.664 468.75V500H250.336V468.75H249.664ZM280.914 468.75V500H281.586V468.75H280.914ZM312.164 468.75V500H312.836V468.75H312.164ZM343.414 468.75V500H344.086V468.75H343.414ZM374.664 468.75V500H375.336V468.75H374.664ZM405.914 250V281.25H406.586V250H405.914ZM406.25 280.914H375V281.586H406.25V280.914ZM437.164 250V281.25H437.836V250H437.164ZM437.5 280.914H406.25V281.586H437.5V280.914ZM468.414 250V281.25H469.086V250H468.414ZM468.75 280.914H437.5V281.586H468.75V280.914ZM499.664 250V281.25H500.336V250H499.664ZM500 280.914H468.75V281.586H500V280.914ZM530.914 250V281.25H531.586V250H530.914ZM531.25 280.914H500V281.586H531.25V280.914ZM562.164 250V281.25H562.836V250H562.164ZM562.5 280.914H531.25V281.586H562.5V280.914ZM593.414 250V281.25H594.086V250H593.414ZM593.75 280.914H562.5V281.586H593.75V280.914ZM624.664 250V281.25H625.336V250H624.664ZM625 280.914H593.75V281.586H625V280.914ZM655.914 250V281.25H656.586V250H655.914ZM656.25 280.914H625V281.586H656.25V280.914ZM687.164 250V281.25H687.836V250H687.164ZM687.5 280.914H656.25V281.586H687.5V280.914ZM718.414 250V281.25H719.086V250H718.414ZM718.75 280.914H687.5V281.586H718.75V280.914ZM750 280.914H718.75V281.586H750V280.914ZM405.914 281.25V312.5H406.586V281.25H405.914ZM406.25 312.164H375V312.836H406.25V312.164ZM437.164 281.25V312.5H437.836V281.25H437.164ZM437.5 312.164H406.25V312.836H437.5V312.164ZM468.414 281.25V312.5H469.086V281.25H468.414ZM468.75 312.164H437.5V312.836H468.75V312.164ZM499.664 281.25V312.5H500.336V281.25H499.664ZM500 312.164H468.75V312.836H500V312.164ZM530.914 281.25V312.5H531.586V281.25H530.914ZM531.25 312.164H500V312.836H531.25V312.164ZM562.164 281.25V312.5H562.836V281.25H562.164ZM562.5 312.164H531.25V312.836H562.5V312.164ZM593.414 281.25V312.5H594.086V281.25H593.414ZM593.75 312.164H562.5V312.836H593.75V312.164ZM624.664 281.25V312.5H625.336V281.25H624.664ZM625 312.164H593.75V312.836H625V312.164ZM655.914 281.25V312.5H656.586V281.25H655.914ZM656.25 312.164H625V312.836H656.25V312.164ZM687.164 281.25V312.5H687.836V281.25H687.164ZM687.5 312.164H656.25V312.836H687.5V312.164ZM718.414 281.25V312.5H719.086V281.25H718.414ZM718.75 312.164H687.5V312.836H718.75V312.164ZM750 312.164H718.75V312.836H750V312.164ZM405.914 312.5V343.75H406.586V312.5H405.914ZM406.25 343.414H375V344.086H406.25V343.414ZM437.164 312.5V343.75H437.836V312.5H437.164ZM437.5 343.414H406.25V344.086H437.5V343.414ZM468.414 312.5V343.75H469.086V312.5H468.414ZM468.75 343.414H437.5V344.086H468.75V343.414ZM499.664 312.5V343.75H500.336V312.5H499.664ZM500 343.414H468.75V344.086H500V343.414ZM530.914 312.5V343.75H531.586V312.5H530.914ZM531.25 343.414H500V344.086H531.25V343.414ZM562.164 312.5V343.75H562.836V312.5H562.164ZM562.5 343.414H531.25V344.086H562.5V343.414ZM593.414 312.5V343.75H594.086V312.5H593.414ZM593.75 343.414H562.5V344.086H593.75V343.414ZM624.664 312.5V343.75H625.336V312.5H624.664ZM625 343.414H593.75V344.086H625V343.414ZM655.914 312.5V343.75H656.586V312.5H655.914ZM656.25 343.414H625V344.086H656.25V343.414ZM687.164 312.5V343.75H687.836V312.5H687.164ZM687.5 343.414H656.25V344.086H687.5V343.414ZM718.414 312.5V343.75H719.086V312.5H718.414ZM718.75 343.414H687.5V344.086H718.75V343.414ZM750 343.414H718.75V344.086H750V343.414ZM405.914 343.75V375H406.586V343.75H405.914ZM406.25 374.664H375V375.336H406.25V374.664ZM437.164 343.75V375H437.836V343.75H437.164ZM437.5 374.664H406.25V375.336H437.5V374.664ZM468.414 343.75V375H469.086V343.75H468.414ZM468.75 374.664H437.5V375.336H468.75V374.664ZM499.664 343.75V375H500.336V343.75H499.664ZM500 374.664H468.75V375.336H500V374.664ZM530.914 343.75V375H531.586V343.75H530.914ZM531.25 374.664H500V375.336H531.25V374.664ZM562.164 343.75V375H562.836V343.75H562.164ZM562.5 374.664H531.25V375.336H562.5V374.664ZM593.414 343.75V375H594.086V343.75H593.414ZM593.75 374.664H562.5V375.336H593.75V374.664ZM624.664 343.75V375H625.336V343.75H624.664ZM625 374.664H593.75V375.336H625V374.664ZM655.914 343.75V375H656.586V343.75H655.914ZM656.25 374.664H625V375.336H656.25V374.664ZM687.164 343.75V375H687.836V343.75H687.164ZM687.5 374.664H656.25V375.336H687.5V374.664ZM718.414 343.75V375H719.086V343.75H718.414ZM718.75 374.664H687.5V375.336H718.75V374.664ZM750 374.664H718.75V375.336H750V374.664ZM405.914 375V406.25H406.586V375H405.914ZM406.25 405.914H375V406.586H406.25V405.914ZM437.164 375V406.25H437.836V375H437.164ZM437.5 405.914H406.25V406.586H437.5V405.914ZM468.414 375V406.25H469.086V375H468.414ZM468.75 405.914H437.5V406.586H468.75V405.914ZM499.664 375V406.25H500.336V375H499.664ZM500 405.914H468.75V406.586H500V405.914ZM530.914 375V406.25H531.586V375H530.914ZM531.25 405.914H500V406.586H531.25V405.914ZM562.164 375V406.25H562.836V375H562.164ZM562.5 405.914H531.25V406.586H562.5V405.914ZM593.414 375V406.25H594.086V375H593.414ZM593.75 405.914H562.5V406.586H593.75V405.914ZM624.664 375V406.25H625.336V375H624.664ZM625 405.914H593.75V406.586H625V405.914ZM655.914 375V406.25H656.586V375H655.914ZM656.25 405.914H625V406.586H656.25V405.914ZM687.164 375V406.25H687.836V375H687.164ZM687.5 405.914H656.25V406.586H687.5V405.914ZM718.414 375V406.25H719.086V375H718.414ZM718.75 405.914H687.5V406.586H718.75V405.914ZM750 405.914H718.75V406.586H750V405.914ZM405.914 406.25V437.5H406.586V406.25H405.914ZM406.25 437.164H375V437.836H406.25V437.164ZM437.164 406.25V437.5H437.836V406.25H437.164ZM437.5 437.164H406.25V437.836H437.5V437.164ZM468.414 406.25V437.5H469.086V406.25H468.414ZM468.75 437.164H437.5V437.836H468.75V437.164ZM499.664 406.25V437.5H500.336V406.25H499.664ZM500 437.164H468.75V437.836H500V437.164ZM530.914 406.25V437.5H531.586V406.25H530.914ZM531.25 437.164H500V437.836H531.25V437.164ZM562.164 406.25V437.5H562.836V406.25H562.164ZM562.5 437.164H531.25V437.836H562.5V437.164ZM593.414 406.25V437.5H594.086V406.25H593.414ZM593.75 437.164H562.5V437.836H593.75V437.164ZM624.664 406.25V437.5H625.336V406.25H624.664ZM625 437.164H593.75V437.836H625V437.164ZM655.914 406.25V437.5H656.586V406.25H655.914ZM656.25 437.164H625V437.836H656.25V437.164ZM687.164 406.25V437.5H687.836V406.25H687.164ZM687.5 437.164H656.25V437.836H687.5V437.164ZM718.414 406.25V437.5H719.086V406.25H718.414ZM718.75 437.164H687.5V437.836H718.75V437.164ZM750 437.164H718.75V437.836H750V437.164ZM405.914 437.5V468.75H406.586V437.5H405.914ZM406.25 468.414H375V469.086H406.25V468.414ZM437.164 437.5V468.75H437.836V437.5H437.164ZM437.5 468.414H406.25V469.086H437.5V468.414ZM468.414 437.5V468.75H469.086V437.5H468.414ZM468.75 468.414H437.5V469.086H468.75V468.414ZM499.664 437.5V468.75H500.336V437.5H499.664ZM500 468.414H468.75V469.086H500V468.414ZM530.914 437.5V468.75H531.586V437.5H530.914ZM531.25 468.414H500V469.086H531.25V468.414ZM562.164 437.5V468.75H562.836V437.5H562.164ZM562.5 468.414H531.25V469.086H562.5V468.414ZM593.414 437.5V468.75H594.086V437.5H593.414ZM593.75 468.414H562.5V469.086H593.75V468.414ZM624.664 437.5V468.75H625.336V437.5H624.664ZM625 468.414H593.75V469.086H625V468.414ZM655.914 437.5V468.75H656.586V437.5H655.914ZM656.25 468.414H625V469.086H656.25V468.414ZM687.164 437.5V468.75H687.836V437.5H687.164ZM687.5 468.414H656.25V469.086H687.5V468.414ZM718.414 437.5V468.75H719.086V437.5H718.414ZM718.75 468.414H687.5V469.086H718.75V468.414ZM750 468.414H718.75V469.086H750V468.414ZM405.914 468.75V500H406.586V468.75H405.914ZM437.164 468.75V500H437.836V468.75H437.164ZM468.414 468.75V500H469.086V468.75H468.414ZM499.664 468.75V500H500.336V468.75H499.664ZM530.914 468.75V500H531.586V468.75H530.914ZM562.164 468.75V500H562.836V468.75H562.164ZM593.414 468.75V500H594.086V468.75H593.414ZM624.664 468.75V500H625.336V468.75H624.664ZM655.914 468.75V500H656.586V468.75H655.914ZM687.164 468.75V500H687.836V468.75H687.164ZM718.414 468.75V500H719.086V468.75H718.414ZM0 0V-0.672043H-0.672043V0H0ZM750 0H750.672V-0.672043H750V0ZM0 500H-0.672043V500.672H0V500ZM750 500V500.672H750.672V500H750ZM0 0.672043H31.25V-0.672043H0V0.672043ZM0.672043 31.25V0H-0.672043V31.25H0.672043ZM31.25 0.672043H62.5V-0.672043H31.25V0.672043ZM62.5 0.672043H93.75V-0.672043H62.5V0.672043ZM93.75 0.672043H125V-0.672043H93.75V0.672043ZM125 0.672043H156.25V-0.672043H125V0.672043ZM156.25 0.672043H187.5V-0.672043H156.25V0.672043ZM187.5 0.672043H218.75V-0.672043H187.5V0.672043ZM218.75 0.672043H250V-0.672043H218.75V0.672043ZM250 0.672043H281.25V-0.672043H250V0.672043ZM281.25 0.672043H312.5V-0.672043H281.25V0.672043ZM312.5 0.672043H343.75V-0.672043H312.5V0.672043ZM343.75 0.672043H375V-0.672043H343.75V0.672043ZM0.672043 62.5V31.25H-0.672043V62.5H0.672043ZM0.672043 93.75V62.5H-0.672043V93.75H0.672043ZM0.672043 125V93.75H-0.672043V125H0.672043ZM0.672043 156.25V125H-0.672043V156.25H0.672043ZM0.672043 187.5V156.25H-0.672043V187.5H0.672043ZM0.672043 218.75V187.5H-0.672043V218.75H0.672043ZM0.672043 250V218.75H-0.672043V250H0.672043ZM375 0.672043H406.25V-0.672043H375V0.672043ZM406.25 0.672043H437.5V-0.672043H406.25V0.672043ZM437.5 0.672043H468.75V-0.672043H437.5V0.672043ZM468.75 0.672043H500V-0.672043H468.75V0.672043ZM500 0.672043H531.25V-0.672043H500V0.672043ZM531.25 0.672043H562.5V-0.672043H531.25V0.672043ZM562.5 0.672043H593.75V-0.672043H562.5V0.672043ZM593.75 0.672043H625V-0.672043H593.75V0.672043ZM625 0.672043H656.25V-0.672043H625V0.672043ZM656.25 0.672043H687.5V-0.672043H656.25V0.672043ZM687.5 0.672043H718.75V-0.672043H687.5V0.672043ZM718.75 0.672043H750V-0.672043H718.75V0.672043ZM749.328 0V31.25H750.672V0H749.328ZM749.328 31.25V62.5H750.672V31.25H749.328ZM749.328 62.5V93.75H750.672V62.5H749.328ZM749.328 93.75V125H750.672V93.75H749.328ZM749.328 125V156.25H750.672V125H749.328ZM749.328 156.25V187.5H750.672V156.25H749.328ZM749.328 187.5V218.75H750.672V187.5H749.328ZM749.328 218.75V250H750.672V218.75H749.328ZM0.672043 281.25V250H-0.672043V281.25H0.672043ZM0.672043 312.5V281.25H-0.672043V312.5H0.672043ZM0.672043 343.75V312.5H-0.672043V343.75H0.672043ZM0.672043 375V343.75H-0.672043V375H0.672043ZM0.672043 406.25V375H-0.672043V406.25H0.672043ZM0.672043 437.5V406.25H-0.672043V437.5H0.672043ZM0.672043 468.75V437.5H-0.672043V468.75H0.672043ZM31.25 499.328H0V500.672H31.25V499.328ZM0.672043 500V468.75H-0.672043V500H0.672043ZM62.5 499.328H31.25V500.672H62.5V499.328ZM93.75 499.328H62.5V500.672H93.75V499.328ZM125 499.328H93.75V500.672H125V499.328ZM156.25 499.328H125V500.672H156.25V499.328ZM187.5 499.328H156.25V500.672H187.5V499.328ZM218.75 499.328H187.5V500.672H218.75V499.328ZM250 499.328H218.75V500.672H250V499.328ZM281.25 499.328H250V500.672H281.25V499.328ZM312.5 499.328H281.25V500.672H312.5V499.328ZM343.75 499.328H312.5V500.672H343.75V499.328ZM375 499.328H343.75V500.672H375V499.328ZM749.328 250V281.25H750.672V250H749.328ZM749.328 281.25V312.5H750.672V281.25H749.328ZM749.328 312.5V343.75H750.672V312.5H749.328ZM749.328 343.75V375H750.672V343.75H749.328ZM749.328 375V406.25H750.672V375H749.328ZM749.328 406.25V437.5H750.672V406.25H749.328ZM749.328 437.5V468.75H750.672V437.5H749.328ZM406.25 499.328H375V500.672H406.25V499.328ZM437.5 499.328H406.25V500.672H437.5V499.328ZM468.75 499.328H437.5V500.672H468.75V499.328ZM500 499.328H468.75V500.672H500V499.328ZM531.25 499.328H500V500.672H531.25V499.328ZM562.5 499.328H531.25V500.672H562.5V499.328ZM593.75 499.328H562.5V500.672H593.75V499.328ZM625 499.328H593.75V500.672H625V499.328ZM656.25 499.328H625V500.672H656.25V499.328ZM687.5 499.328H656.25V500.672H687.5V499.328ZM718.75 499.328H687.5V500.672H718.75V499.328ZM749.328 468.75V500H750.672V468.75H749.328ZM750 499.328H718.75V500.672H750V499.328Z" fill="url(#paint0_radial_23079_135040)" mask="url(#path-1-inside-1_23079_135040)"/>
<defs>
<radialGradient id="paint0_radial_23079_135040" cx="0" cy="0" r="1" gradientUnits="userSpaceOnUse" gradientTransform="translate(375 -112) rotate(90) scale(346 519)">
<stop stop-color="#0F80F0" stop-opacity="0.6"/>
<stop offset="1" stop-color="#0F80F0" stop-opacity="0"/>
</radialGradient>
</defs>
</svg>
