<svg width="48" height="48" viewBox="0 0 48 48" fill="none" xmlns="http://www.w3.org/2000/svg">
<g filter="url(#filter0_d_21405_117364)">
<path d="M4 16C4 9.37258 9.37258 4 16 4H32C38.6274 4 44 9.37258 44 16V32C44 38.6274 38.6274 44 32 44H16C9.37258 44 4 38.6274 4 32V16Z" fill="white" shape-rendering="crispEdges"/>
<path d="M16 3.25C8.95837 3.25 3.25 8.95837 3.25 16V32C3.25 39.0416 8.95837 44.75 16 44.75H32C39.0416 44.75 44.75 39.0416 44.75 32V16C44.75 8.95837 39.0416 3.25 32 3.25H16Z" stroke="white" stroke-opacity="0.35" stroke-width="1.5" shape-rendering="crispEdges"/>
<path d="M25.2806 24.5306L21.5306 28.2806C21.4257 28.3856 21.292 28.4572 21.1465 28.4861C21.0009 28.5151 20.85 28.5003 20.7129 28.4435C20.5758 28.3867 20.4586 28.2904 20.3762 28.167C20.2938 28.0435 20.2499 27.8984 20.25 27.75V24.75H14.25C14.0511 24.75 13.8603 24.671 13.7197 24.5303C13.579 24.3897 13.5 24.1989 13.5 24C13.5 23.8011 13.579 23.6103 13.7197 23.4697C13.8603 23.329 14.0511 23.25 14.25 23.25H20.25V20.25C20.2499 20.1016 20.2938 19.9565 20.3762 19.833C20.4586 19.7096 20.5758 19.6133 20.7129 19.5565C20.85 19.4997 21.0009 19.4849 21.1465 19.5139C21.292 19.5428 21.4257 19.6144 21.5306 19.7194L25.2806 23.4694C25.3504 23.539 25.4057 23.6217 25.4434 23.7128C25.4812 23.8038 25.5006 23.9014 25.5006 24C25.5006 24.0986 25.4812 24.1962 25.4434 24.2872C25.4057 24.3783 25.3504 24.461 25.2806 24.5306ZM30.75 15H24.75C24.5511 15 24.3603 15.079 24.2197 15.2197C24.079 15.3603 24 15.5511 24 15.75C24 15.9489 24.079 16.1397 24.2197 16.2803C24.3603 16.421 24.5511 16.5 24.75 16.5H30V31.5H24.75C24.5511 31.5 24.3603 31.579 24.2197 31.7197C24.079 31.8603 24 32.0511 24 32.25C24 32.4489 24.079 32.6397 24.2197 32.7803C24.3603 32.921 24.5511 33 24.75 33H30.75C30.9489 33 31.1397 32.921 31.2803 32.7803C31.421 32.6397 31.5 32.4489 31.5 32.25V15.75C31.5 15.5511 31.421 15.3603 31.2803 15.2197C31.1397 15.079 30.9489 15 30.75 15Z" fill="url(#paint0_linear_21405_117364)"/>
</g>
<defs>
<filter id="filter0_d_21405_117364" x="-19.5" y="-19.5" width="87" height="87" filterUnits="userSpaceOnUse" color-interpolation-filters="sRGB">
<feFlood flood-opacity="0" result="BackgroundImageFix"/>
<feColorMatrix in="SourceAlpha" type="matrix" values="0 0 0 0 0 0 0 0 0 0 0 0 0 0 0 0 0 0 127 0" result="hardAlpha"/>
<feOffset/>
<feGaussianBlur stdDeviation="11"/>
<feComposite in2="hardAlpha" operator="out"/>
<feColorMatrix type="matrix" values="0 0 0 0 0.3 0 0 0 0 0.3 0 0 0 0 0.3 0 0 0 0.061 0"/>
<feBlend mode="normal" in2="BackgroundImageFix" result="effect1_dropShadow_21405_117364"/>
<feBlend mode="normal" in="SourceGraphic" in2="effect1_dropShadow_21405_117364" result="shape"/>
</filter>
<linearGradient id="paint0_linear_21405_117364" x1="13.5" y1="24" x2="31.5" y2="24" gradientUnits="userSpaceOnUse">
<stop stop-color="#FF009A"/>
<stop offset="1" stop-color="#0877FC"/>
</linearGradient>
</defs>
</svg>
