<svg width="498" height="116" viewBox="0 0 498 116" fill="none" xmlns="http://www.w3.org/2000/svg">
<g clip-path="url(#clip0_22_407)">
<g clip-path="url(#clip1_22_407)">
<mask id="mask0_22_407" style="mask-type:luminance" maskUnits="userSpaceOnUse" x="-93" y="-125" width="750" height="500">
<path d="M-30.5 0H0.75V31.25H-30.5V0Z" fill="white"/>
<path d="M0.75 0H32V31.25H0.75V0Z" fill="white"/>
<path d="M32 0H63.25V31.25H32V0Z" fill="white"/>
<path d="M63.25 0H94.5V31.25H63.25V0Z" fill="white"/>
<path d="M94.5 0H125.75V31.25H94.5V0Z" fill="white"/>
<path d="M125.75 0H157V31.25H125.75V0Z" fill="white"/>
<path d="M157 0H188.25V31.25H157V0Z" fill="white"/>
<path d="M188.25 0H219.5V31.25H188.25V0Z" fill="white"/>
<path d="M219.5 0H250.75V31.25H219.5V0Z" fill="white"/>
<path d="M250.75 0H282V31.25H250.75V0Z" fill="white"/>
<path d="M-30.5 31.25H0.75V62.5H-30.5V31.25Z" fill="white"/>
<path d="M0.75 31.25H32V62.5H0.75V31.25Z" fill="white"/>
<path d="M32 31.25H63.25V62.5H32V31.25Z" fill="white"/>
<path d="M63.25 31.25H94.5V62.5H63.25V31.25Z" fill="white"/>
<path d="M94.5 31.25H125.75V62.5H94.5V31.25Z" fill="white"/>
<path d="M125.75 31.25H157V62.5H125.75V31.25Z" fill="white"/>
<path d="M157 31.25H188.25V62.5H157V31.25Z" fill="white"/>
<path d="M188.25 31.25H219.5V62.5H188.25V31.25Z" fill="white"/>
<path d="M219.5 31.25H250.75V62.5H219.5V31.25Z" fill="white"/>
<path d="M250.75 31.25H282V62.5H250.75V31.25Z" fill="white"/>
<path d="M-30.5 62.5H0.75V93.75H-30.5V62.5Z" fill="white"/>
<path d="M0.75 62.5H32V93.75H0.75V62.5Z" fill="white"/>
<path d="M32 62.5H63.25V93.75H32V62.5Z" fill="white"/>
<path d="M63.25 62.5H94.5V93.75H63.25V62.5Z" fill="white"/>
<path d="M94.5 62.5H125.75V93.75H94.5V62.5Z" fill="white"/>
<path d="M125.75 62.5H157V93.75H125.75V62.5Z" fill="white"/>
<path d="M157 62.5H188.25V93.75H157V62.5Z" fill="white"/>
<path d="M188.25 62.5H219.5V93.75H188.25V62.5Z" fill="white"/>
<path d="M219.5 62.5H250.75V93.75H219.5V62.5Z" fill="white"/>
<path d="M250.75 62.5H282V93.75H250.75V62.5Z" fill="white"/>
<path d="M-30.5 93.75H0.75V125H-30.5V93.75Z" fill="white"/>
<path d="M0.75 93.75H32V125H0.75V93.75Z" fill="white"/>
<path d="M32 93.75H63.25V125H32V93.75Z" fill="white"/>
<path d="M63.25 93.75H94.5V125H63.25V93.75Z" fill="white"/>
<path d="M94.5 93.75H125.75V125H94.5V93.75Z" fill="white"/>
<path d="M125.75 93.75H157V125H125.75V93.75Z" fill="white"/>
<path d="M157 93.75H188.25V125H157V93.75Z" fill="white"/>
<path d="M188.25 93.75H219.5V125H188.25V93.75Z" fill="white"/>
<path d="M219.5 93.75H250.75V125H219.5V93.75Z" fill="white"/>
<path d="M250.75 93.75H282V125H250.75V93.75Z" fill="white"/>
<path d="M282 0H313.25V31.25H282V0Z" fill="white"/>
<path d="M313.25 0H344.5V31.25H313.25V0Z" fill="white"/>
<path d="M344.5 0H375.75V31.25H344.5V0Z" fill="white"/>
<path d="M375.75 0H407V31.25H375.75V0Z" fill="white"/>
<path d="M407 0H438.25V31.25H407V0Z" fill="white"/>
<path d="M438.25 0H469.5V31.25H438.25V0Z" fill="white"/>
<path d="M469.5 0H500.75V31.25H469.5V0Z" fill="white"/>
<path d="M282 31.25H313.25V62.5H282V31.25Z" fill="white"/>
<path d="M313.25 31.25H344.5V62.5H313.25V31.25Z" fill="white"/>
<path d="M344.5 31.25H375.75V62.5H344.5V31.25Z" fill="white"/>
<path d="M375.75 31.25H407V62.5H375.75V31.25Z" fill="white"/>
<path d="M407 31.25H438.25V62.5H407V31.25Z" fill="white"/>
<path d="M438.25 31.25H469.5V62.5H438.25V31.25Z" fill="white"/>
<path d="M469.5 31.25H500.75V62.5H469.5V31.25Z" fill="white"/>
<path d="M282 62.5H313.25V93.75H282V62.5Z" fill="white"/>
<path d="M313.25 62.5H344.5V93.75H313.25V62.5Z" fill="white"/>
<path d="M344.5 62.5H375.75V93.75H344.5V62.5Z" fill="white"/>
<path d="M375.75 62.5H407V93.75H375.75V62.5Z" fill="white"/>
<path d="M407 62.5H438.25V93.75H407V62.5Z" fill="white"/>
<path d="M438.25 62.5H469.5V93.75H438.25V62.5Z" fill="white"/>
<path d="M469.5 62.5H500.75V93.75H469.5V62.5Z" fill="white"/>
<path d="M282 93.75H313.25V125H282V93.75Z" fill="white"/>
<path d="M313.25 93.75H344.5V125H313.25V93.75Z" fill="white"/>
<path d="M344.5 93.75H375.75V125H344.5V93.75Z" fill="white"/>
<path d="M375.75 93.75H407V125H375.75V93.75Z" fill="white"/>
<path d="M407 93.75H438.25V125H407V93.75Z" fill="white"/>
<path d="M438.25 93.75H469.5V125H438.25V93.75Z" fill="white"/>
<path d="M469.5 93.75H500.75V125H469.5V93.75Z" fill="white"/>
</mask>
<g mask="url(#mask0_22_407)">
<path d="M-62.086 -125V-93.75H-61.414V-125H-62.086ZM-61.75 -94.086H-93V-93.414H-61.75V-94.086ZM-30.836 -125V-93.75H-30.164V-125H-30.836ZM-30.5 -94.086H-61.75V-93.414H-30.5V-94.086ZM0.413986 -125V-93.75H1.08598V-125H0.413986ZM0.749985 -94.086H-30.5V-93.414H0.749985V-94.086ZM31.664 -125V-93.75H32.336V-125H31.664ZM32 -94.086H0.749985V-93.414H32V-94.086ZM62.914 -125V-93.75H63.586V-125H62.914ZM63.25 -94.086H32V-93.414H63.25V-94.086ZM94.164 -125V-93.75H94.836V-125H94.164ZM94.5 -94.086H63.25V-93.414H94.5V-94.086ZM125.414 -125V-93.75H126.086V-125H125.414ZM125.75 -94.086H94.5V-93.414H125.75V-94.086ZM156.664 -125V-93.75H157.336V-125H156.664ZM157 -94.086H125.75V-93.414H157V-94.086ZM187.914 -125V-93.75H188.586V-125H187.914ZM188.25 -94.086H157V-93.414H188.25V-94.086ZM219.164 -125V-93.75H219.836V-125H219.164ZM219.5 -94.086H188.25V-93.414H219.5V-94.086ZM250.414 -125V-93.75H251.086V-125H250.414ZM250.75 -94.086H219.5V-93.414H250.75V-94.086ZM281.664 -125V-93.75H282.336V-125H281.664ZM282 -94.086H250.75V-93.414H282V-94.086ZM-62.086 -93.75V-62.5H-61.414V-93.75H-62.086ZM-61.75 -62.836H-93V-62.164H-61.75V-62.836ZM-30.836 -93.75V-62.5H-30.164V-93.75H-30.836ZM-30.5 -62.836H-61.75V-62.164H-30.5V-62.836ZM0.413986 -93.75V-62.5H1.08598V-93.75H0.413986ZM0.749985 -62.836H-30.5V-62.164H0.749985V-62.836ZM31.664 -93.75V-62.5H32.336V-93.75H31.664ZM32 -62.836H0.749985V-62.164H32V-62.836ZM62.914 -93.75V-62.5H63.586V-93.75H62.914ZM63.25 -62.836H32V-62.164H63.25V-62.836ZM94.164 -93.75V-62.5H94.836V-93.75H94.164ZM94.5 -62.836H63.25V-62.164H94.5V-62.836ZM125.414 -93.75V-62.5H126.086V-93.75H125.414ZM125.75 -62.836H94.5V-62.164H125.75V-62.836ZM156.664 -93.75V-62.5H157.336V-93.75H156.664ZM157 -62.836H125.75V-62.164H157V-62.836ZM187.914 -93.75V-62.5H188.586V-93.75H187.914ZM188.25 -62.836H157V-62.164H188.25V-62.836ZM219.164 -93.75V-62.5H219.836V-93.75H219.164ZM219.5 -62.836H188.25V-62.164H219.5V-62.836ZM250.414 -93.75V-62.5H251.086V-93.75H250.414ZM250.75 -62.836H219.5V-62.164H250.75V-62.836ZM281.664 -93.75V-62.5H282.336V-93.75H281.664ZM282 -62.836H250.75V-62.164H282V-62.836ZM-62.086 -62.5V-31.25H-61.414V-62.5H-62.086ZM-61.75 -31.586H-93V-30.914H-61.75V-31.586ZM-30.836 -62.5V-31.25H-30.164V-62.5H-30.836ZM-30.5 -31.586H-61.75V-30.914H-30.5V-31.586ZM0.413986 -62.5V-31.25H1.08598V-62.5H0.413986ZM0.749985 -31.586H-30.5V-30.914H0.749985V-31.586ZM31.664 -62.5V-31.25H32.336V-62.5H31.664ZM32 -31.586H0.749985V-30.914H32V-31.586ZM62.914 -62.5V-31.25H63.586V-62.5H62.914ZM63.25 -31.586H32V-30.914H63.25V-31.586ZM94.164 -62.5V-31.25H94.836V-62.5H94.164ZM94.5 -31.586H63.25V-30.914H94.5V-31.586ZM125.414 -62.5V-31.25H126.086V-62.5H125.414ZM125.75 -31.586H94.5V-30.914H125.75V-31.586ZM156.664 -62.5V-31.25H157.336V-62.5H156.664ZM157 -31.586H125.75V-30.914H157V-31.586ZM187.914 -62.5V-31.25H188.586V-62.5H187.914ZM188.25 -31.586H157V-30.914H188.25V-31.586ZM219.164 -62.5V-31.25H219.836V-62.5H219.164ZM219.5 -31.586H188.25V-30.914H219.5V-31.586ZM250.414 -62.5V-31.25H251.086V-62.5H250.414ZM250.75 -31.586H219.5V-30.914H250.75V-31.586ZM281.664 -62.5V-31.25H282.336V-62.5H281.664ZM282 -31.586H250.75V-30.914H282V-31.586ZM-62.086 -31.25V-1.52588e-05H-61.414V-31.25H-62.086ZM-61.75 -0.336014H-93V0.335983H-61.75V-0.336014ZM-30.836 -31.25V-1.52588e-05H-30.164V-31.25H-30.836ZM-30.5 -0.336014H-61.75V0.335983H-30.5V-0.336014ZM0.413986 -31.25V-1.52588e-05H1.08598V-31.25H0.413986ZM0.749985 -0.336014H-30.5V0.335983H0.749985V-0.336014ZM31.664 -31.25V-1.52588e-05H32.336V-31.25H31.664ZM32 -0.336014H0.749985V0.335983H32V-0.336014ZM62.914 -31.25V-1.52588e-05H63.586V-31.25H62.914ZM63.25 -0.336014H32V0.335983H63.25V-0.336014ZM94.164 -31.25V-1.52588e-05H94.836V-31.25H94.164ZM94.5 -0.336014H63.25V0.335983H94.5V-0.336014ZM125.414 -31.25V-1.52588e-05H126.086V-31.25H125.414ZM125.75 -0.336014H94.5V0.335983H125.75V-0.336014ZM156.664 -31.25V-1.52588e-05H157.336V-31.25H156.664ZM157 -0.336014H125.75V0.335983H157V-0.336014ZM187.914 -31.25V-1.52588e-05H188.586V-31.25H187.914ZM188.25 -0.336014H157V0.335983H188.25V-0.336014ZM219.164 -31.25V-1.52588e-05H219.836V-31.25H219.164ZM219.5 -0.336014H188.25V0.335983H219.5V-0.336014ZM250.414 -31.25V-1.52588e-05H251.086V-31.25H250.414ZM250.75 -0.336014H219.5V0.335983H250.75V-0.336014ZM281.664 -31.25V-1.52588e-05H282.336V-31.25H281.664ZM282 -0.336014H250.75V0.335983H282V-0.336014ZM-62.086 -1.52588e-05V31.25H-61.414V-1.52588e-05H-62.086ZM-61.75 30.914H-93V31.586H-61.75V30.914ZM-30.836 -1.52588e-05V31.25H-30.164V-1.52588e-05H-30.836ZM-30.5 30.914H-61.75V31.586H-30.5V30.914ZM0.413986 -1.52588e-05V31.25H1.08598V-1.52588e-05H0.413986ZM0.749985 30.914H-30.5V31.586H0.749985V30.914ZM31.664 -1.52588e-05V31.25H32.336V-1.52588e-05H31.664ZM32 30.914H0.749985V31.586H32V30.914ZM62.914 -1.52588e-05V31.25H63.586V-1.52588e-05H62.914ZM63.25 30.914H32V31.586H63.25V30.914ZM94.164 -1.52588e-05V31.25H94.836V-1.52588e-05H94.164ZM94.5 30.914H63.25V31.586H94.5V30.914ZM125.414 -1.52588e-05V31.25H126.086V-1.52588e-05H125.414ZM125.75 30.914H94.5V31.586H125.75V30.914ZM156.664 -1.52588e-05V31.25H157.336V-1.52588e-05H156.664ZM157 30.914H125.75V31.586H157V30.914ZM187.914 -1.52588e-05V31.25H188.586V-1.52588e-05H187.914ZM188.25 30.914H157V31.586H188.25V30.914ZM219.164 -1.52588e-05V31.25H219.836V-1.52588e-05H219.164ZM219.5 30.914H188.25V31.586H219.5V30.914ZM250.414 -1.52588e-05V31.25H251.086V-1.52588e-05H250.414ZM250.75 30.914H219.5V31.586H250.75V30.914ZM281.664 -1.52588e-05V31.25H282.336V-1.52588e-05H281.664ZM282 30.914H250.75V31.586H282V30.914ZM-62.086 31.25V62.5H-61.414V31.25H-62.086ZM-61.75 62.164H-93V62.836H-61.75V62.164ZM-30.836 31.25V62.5H-30.164V31.25H-30.836ZM-30.5 62.164H-61.75V62.836H-30.5V62.164ZM0.413986 31.25V62.5H1.08598V31.25H0.413986ZM0.749985 62.164H-30.5V62.836H0.749985V62.164ZM31.664 31.25V62.5H32.336V31.25H31.664ZM32 62.164H0.749985V62.836H32V62.164ZM62.914 31.25V62.5H63.586V31.25H62.914ZM63.25 62.164H32V62.836H63.25V62.164ZM94.164 31.25V62.5H94.836V31.25H94.164ZM94.5 62.164H63.25V62.836H94.5V62.164ZM125.414 31.25V62.5H126.086V31.25H125.414ZM125.75 62.164H94.5V62.836H125.75V62.164ZM156.664 31.25V62.5H157.336V31.25H156.664ZM157 62.164H125.75V62.836H157V62.164ZM187.914 31.25V62.5H188.586V31.25H187.914ZM188.25 62.164H157V62.836H188.25V62.164ZM219.164 31.25V62.5H219.836V31.25H219.164ZM219.5 62.164H188.25V62.836H219.5V62.164ZM250.414 31.25V62.5H251.086V31.25H250.414ZM250.75 62.164H219.5V62.836H250.75V62.164ZM281.664 31.25V62.5H282.336V31.25H281.664ZM282 62.164H250.75V62.836H282V62.164ZM-62.086 62.5V93.75H-61.414V62.5H-62.086ZM-61.75 93.414H-93V94.086H-61.75V93.414ZM-30.836 62.5V93.75H-30.164V62.5H-30.836ZM-30.5 93.414H-61.75V94.086H-30.5V93.414ZM0.413986 62.5V93.75H1.08598V62.5H0.413986ZM0.749985 93.414H-30.5V94.086H0.749985V93.414ZM31.664 62.5V93.75H32.336V62.5H31.664ZM32 93.414H0.749985V94.086H32V93.414ZM62.914 62.5V93.75H63.586V62.5H62.914ZM63.25 93.414H32V94.086H63.25V93.414ZM94.164 62.5V93.75H94.836V62.5H94.164ZM94.5 93.414H63.25V94.086H94.5V93.414ZM125.414 62.5V93.75H126.086V62.5H125.414ZM125.75 93.414H94.5V94.086H125.75V93.414ZM156.664 62.5V93.75H157.336V62.5H156.664ZM157 93.414H125.75V94.086H157V93.414ZM187.914 62.5V93.75H188.586V62.5H187.914ZM188.25 93.414H157V94.086H188.25V93.414ZM219.164 62.5V93.75H219.836V62.5H219.164ZM219.5 93.414H188.25V94.086H219.5V93.414ZM250.414 62.5V93.75H251.086V62.5H250.414ZM250.75 93.414H219.5V94.086H250.75V93.414ZM281.664 62.5V93.75H282.336V62.5H281.664ZM282 93.414H250.75V94.086H282V93.414ZM-62.086 93.75V125H-61.414V93.75H-62.086ZM-61.75 124.664H-93V125.336H-61.75V124.664ZM-30.836 93.75V125H-30.164V93.75H-30.836ZM-30.5 124.664H-61.75V125.336H-30.5V124.664ZM0.413986 93.75V125H1.08598V93.75H0.413986ZM0.749985 124.664H-30.5V125.336H0.749985V124.664ZM31.664 93.75V125H32.336V93.75H31.664ZM32 124.664H0.749985V125.336H32V124.664ZM62.914 93.75V125H63.586V93.75H62.914ZM63.25 124.664H32V125.336H63.25V124.664ZM94.164 93.75V125H94.836V93.75H94.164ZM94.5 124.664H63.25V125.336H94.5V124.664ZM125.414 93.75V125H126.086V93.75H125.414ZM125.75 124.664H94.5V125.336H125.75V124.664ZM156.664 93.75V125H157.336V93.75H156.664ZM157 124.664H125.75V125.336H157V124.664ZM187.914 93.75V125H188.586V93.75H187.914ZM188.25 124.664H157V125.336H188.25V124.664ZM219.164 93.75V125H219.836V93.75H219.164ZM219.5 124.664H188.25V125.336H219.5V124.664ZM250.414 93.75V125H251.086V93.75H250.414ZM250.75 124.664H219.5V125.336H250.75V124.664ZM281.664 93.75V125H282.336V93.75H281.664ZM282 124.664H250.75V125.336H282V124.664ZM312.914 -125V-93.75H313.586V-125H312.914ZM313.25 -94.086H282V-93.414H313.25V-94.086ZM344.164 -125V-93.75H344.836V-125H344.164ZM344.5 -94.086H313.25V-93.414H344.5V-94.086ZM375.414 -125V-93.75H376.086V-125H375.414ZM375.75 -94.086H344.5V-93.414H375.75V-94.086ZM406.664 -125V-93.75H407.336V-125H406.664ZM407 -94.086H375.75V-93.414H407V-94.086ZM437.914 -125V-93.75H438.586V-125H437.914ZM438.25 -94.086H407V-93.414H438.25V-94.086ZM469.164 -125V-93.75H469.836V-125H469.164ZM469.5 -94.086H438.25V-93.414H469.5V-94.086ZM500.414 -125V-93.75H501.086V-125H500.414ZM500.75 -94.086H469.5V-93.414H500.75V-94.086ZM531.664 -125V-93.75H532.336V-125H531.664ZM532 -94.086H500.75V-93.414H532V-94.086ZM562.914 -125V-93.75H563.586V-125H562.914ZM563.25 -94.086H532V-93.414H563.25V-94.086ZM594.164 -125V-93.75H594.836V-125H594.164ZM594.5 -94.086H563.25V-93.414H594.5V-94.086ZM625.414 -125V-93.75H626.086V-125H625.414ZM625.75 -94.086H594.5V-93.414H625.75V-94.086ZM657 -94.086H625.75V-93.414H657V-94.086ZM312.914 -93.75V-62.5H313.586V-93.75H312.914ZM313.25 -62.836H282V-62.164H313.25V-62.836ZM344.164 -93.75V-62.5H344.836V-93.75H344.164ZM344.5 -62.836H313.25V-62.164H344.5V-62.836ZM375.414 -93.75V-62.5H376.086V-93.75H375.414ZM375.75 -62.836H344.5V-62.164H375.75V-62.836ZM406.664 -93.75V-62.5H407.336V-93.75H406.664ZM407 -62.836H375.75V-62.164H407V-62.836ZM437.914 -93.75V-62.5H438.586V-93.75H437.914ZM438.25 -62.836H407V-62.164H438.25V-62.836ZM469.164 -93.75V-62.5H469.836V-93.75H469.164ZM469.5 -62.836H438.25V-62.164H469.5V-62.836ZM500.414 -93.75V-62.5H501.086V-93.75H500.414ZM500.75 -62.836H469.5V-62.164H500.75V-62.836ZM531.664 -93.75V-62.5H532.336V-93.75H531.664ZM532 -62.836H500.75V-62.164H532V-62.836ZM562.914 -93.75V-62.5H563.586V-93.75H562.914ZM563.25 -62.836H532V-62.164H563.25V-62.836ZM594.164 -93.75V-62.5H594.836V-93.75H594.164ZM594.5 -62.836H563.25V-62.164H594.5V-62.836ZM625.414 -93.75V-62.5H626.086V-93.75H625.414ZM625.75 -62.836H594.5V-62.164H625.75V-62.836ZM657 -62.836H625.75V-62.164H657V-62.836ZM312.914 -62.5V-31.25H313.586V-62.5H312.914ZM313.25 -31.586H282V-30.914H313.25V-31.586ZM344.164 -62.5V-31.25H344.836V-62.5H344.164ZM344.5 -31.586H313.25V-30.914H344.5V-31.586ZM375.414 -62.5V-31.25H376.086V-62.5H375.414ZM375.75 -31.586H344.5V-30.914H375.75V-31.586ZM406.664 -62.5V-31.25H407.336V-62.5H406.664ZM407 -31.586H375.75V-30.914H407V-31.586ZM437.914 -62.5V-31.25H438.586V-62.5H437.914ZM438.25 -31.586H407V-30.914H438.25V-31.586ZM469.164 -62.5V-31.25H469.836V-62.5H469.164ZM469.5 -31.586H438.25V-30.914H469.5V-31.586ZM500.414 -62.5V-31.25H501.086V-62.5H500.414ZM500.75 -31.586H469.5V-30.914H500.75V-31.586ZM531.664 -62.5V-31.25H532.336V-62.5H531.664ZM532 -31.586H500.75V-30.914H532V-31.586ZM562.914 -62.5V-31.25H563.586V-62.5H562.914ZM563.25 -31.586H532V-30.914H563.25V-31.586ZM594.164 -62.5V-31.25H594.836V-62.5H594.164ZM594.5 -31.586H563.25V-30.914H594.5V-31.586ZM625.414 -62.5V-31.25H626.086V-62.5H625.414ZM625.75 -31.586H594.5V-30.914H625.75V-31.586ZM657 -31.586H625.75V-30.914H657V-31.586ZM312.914 -31.25V-1.52588e-05H313.586V-31.25H312.914ZM313.25 -0.336014H282V0.335983H313.25V-0.336014ZM344.164 -31.25V-1.52588e-05H344.836V-31.25H344.164ZM344.5 -0.336014H313.25V0.335983H344.5V-0.336014ZM375.414 -31.25V-1.52588e-05H376.086V-31.25H375.414ZM375.75 -0.336014H344.5V0.335983H375.75V-0.336014ZM406.664 -31.25V-1.52588e-05H407.336V-31.25H406.664ZM407 -0.336014H375.75V0.335983H407V-0.336014ZM437.914 -31.25V-1.52588e-05H438.586V-31.25H437.914ZM438.25 -0.336014H407V0.335983H438.25V-0.336014ZM469.164 -31.25V-1.52588e-05H469.836V-31.25H469.164ZM469.5 -0.336014H438.25V0.335983H469.5V-0.336014ZM500.414 -31.25V-1.52588e-05H501.086V-31.25H500.414ZM500.75 -0.336014H469.5V0.335983H500.75V-0.336014ZM531.664 -31.25V-1.52588e-05H532.336V-31.25H531.664ZM532 -0.336014H500.75V0.335983H532V-0.336014ZM562.914 -31.25V-1.52588e-05H563.586V-31.25H562.914ZM563.25 -0.336014H532V0.335983H563.25V-0.336014ZM594.164 -31.25V-1.52588e-05H594.836V-31.25H594.164ZM594.5 -0.336014H563.25V0.335983H594.5V-0.336014ZM625.414 -31.25V-1.52588e-05H626.086V-31.25H625.414ZM625.75 -0.336014H594.5V0.335983H625.75V-0.336014ZM657 -0.336014H625.75V0.335983H657V-0.336014ZM312.914 -1.52588e-05V31.25H313.586V-1.52588e-05H312.914ZM313.25 30.914H282V31.586H313.25V30.914ZM344.164 -1.52588e-05V31.25H344.836V-1.52588e-05H344.164ZM344.5 30.914H313.25V31.586H344.5V30.914ZM375.414 -1.52588e-05V31.25H376.086V-1.52588e-05H375.414ZM375.75 30.914H344.5V31.586H375.75V30.914ZM406.664 -1.52588e-05V31.25H407.336V-1.52588e-05H406.664ZM407 30.914H375.75V31.586H407V30.914ZM437.914 -1.52588e-05V31.25H438.586V-1.52588e-05H437.914ZM438.25 30.914H407V31.586H438.25V30.914ZM469.164 -1.52588e-05V31.25H469.836V-1.52588e-05H469.164ZM469.5 30.914H438.25V31.586H469.5V30.914ZM500.414 -1.52588e-05V31.25H501.086V-1.52588e-05H500.414ZM500.75 30.914H469.5V31.586H500.75V30.914ZM531.664 -1.52588e-05V31.25H532.336V-1.52588e-05H531.664ZM532 30.914H500.75V31.586H532V30.914ZM562.914 -1.52588e-05V31.25H563.586V-1.52588e-05H562.914ZM563.25 30.914H532V31.586H563.25V30.914ZM594.164 -1.52588e-05V31.25H594.836V-1.52588e-05H594.164ZM594.5 30.914H563.25V31.586H594.5V30.914ZM625.414 -1.52588e-05V31.25H626.086V-1.52588e-05H625.414ZM625.75 30.914H594.5V31.586H625.75V30.914ZM657 30.914H625.75V31.586H657V30.914ZM312.914 31.25V62.5H313.586V31.25H312.914ZM313.25 62.164H282V62.836H313.25V62.164ZM344.164 31.25V62.5H344.836V31.25H344.164ZM344.5 62.164H313.25V62.836H344.5V62.164ZM375.414 31.25V62.5H376.086V31.25H375.414ZM375.75 62.164H344.5V62.836H375.75V62.164ZM406.664 31.25V62.5H407.336V31.25H406.664ZM407 62.164H375.75V62.836H407V62.164ZM437.914 31.25V62.5H438.586V31.25H437.914ZM438.25 62.164H407V62.836H438.25V62.164ZM469.164 31.25V62.5H469.836V31.25H469.164ZM469.5 62.164H438.25V62.836H469.5V62.164ZM500.414 31.25V62.5H501.086V31.25H500.414ZM500.75 62.164H469.5V62.836H500.75V62.164ZM531.664 31.25V62.5H532.336V31.25H531.664ZM532 62.164H500.75V62.836H532V62.164ZM562.914 31.25V62.5H563.586V31.25H562.914ZM563.25 62.164H532V62.836H563.25V62.164ZM594.164 31.25V62.5H594.836V31.25H594.164ZM594.5 62.164H563.25V62.836H594.5V62.164ZM625.414 31.25V62.5H626.086V31.25H625.414ZM625.75 62.164H594.5V62.836H625.75V62.164ZM657 62.164H625.75V62.836H657V62.164ZM312.914 62.5V93.75H313.586V62.5H312.914ZM313.25 93.414H282V94.086H313.25V93.414ZM344.164 62.5V93.75H344.836V62.5H344.164ZM344.5 93.414H313.25V94.086H344.5V93.414ZM375.414 62.5V93.75H376.086V62.5H375.414ZM375.75 93.414H344.5V94.086H375.75V93.414ZM406.664 62.5V93.75H407.336V62.5H406.664ZM407 93.414H375.75V94.086H407V93.414ZM437.914 62.5V93.75H438.586V62.5H437.914ZM438.25 93.414H407V94.086H438.25V93.414ZM469.164 62.5V93.75H469.836V62.5H469.164ZM469.5 93.414H438.25V94.086H469.5V93.414ZM500.414 62.5V93.75H501.086V62.5H500.414ZM500.75 93.414H469.5V94.086H500.75V93.414ZM531.664 62.5V93.75H532.336V62.5H531.664ZM532 93.414H500.75V94.086H532V93.414ZM562.914 62.5V93.75H563.586V62.5H562.914ZM563.25 93.414H532V94.086H563.25V93.414ZM594.164 62.5V93.75H594.836V62.5H594.164ZM594.5 93.414H563.25V94.086H594.5V93.414ZM625.414 62.5V93.75H626.086V62.5H625.414ZM625.75 93.414H594.5V94.086H625.75V93.414ZM657 93.414H625.75V94.086H657V93.414ZM312.914 93.75V125H313.586V93.75H312.914ZM313.25 124.664H282V125.336H313.25V124.664ZM344.164 93.75V125H344.836V93.75H344.164ZM344.5 124.664H313.25V125.336H344.5V124.664ZM375.414 93.75V125H376.086V93.75H375.414ZM375.75 124.664H344.5V125.336H375.75V124.664ZM406.664 93.75V125H407.336V93.75H406.664ZM407 124.664H375.75V125.336H407V124.664ZM437.914 93.75V125H438.586V93.75H437.914ZM438.25 124.664H407V125.336H438.25V124.664ZM469.164 93.75V125H469.836V93.75H469.164ZM469.5 124.664H438.25V125.336H469.5V124.664ZM500.414 93.75V125H501.086V93.75H500.414ZM500.75 124.664H469.5V125.336H500.75V124.664ZM531.664 93.75V125H532.336V93.75H531.664ZM532 124.664H500.75V125.336H532V124.664ZM562.914 93.75V125H563.586V93.75H562.914ZM563.25 124.664H532V125.336H563.25V124.664ZM594.164 93.75V125H594.836V93.75H594.164ZM594.5 124.664H563.25V125.336H594.5V124.664ZM625.414 93.75V125H626.086V93.75H625.414ZM625.75 124.664H594.5V125.336H625.75V124.664ZM657 124.664H625.75V125.336H657V124.664ZM-62.086 125V156.25H-61.414V125H-62.086ZM-61.75 155.914H-93V156.586H-61.75V155.914ZM-30.836 125V156.25H-30.164V125H-30.836ZM-30.5 155.914H-61.75V156.586H-30.5V155.914ZM0.413986 125V156.25H1.08598V125H0.413986ZM0.749985 155.914H-30.5V156.586H0.749985V155.914ZM31.664 125V156.25H32.336V125H31.664ZM32 155.914H0.749985V156.586H32V155.914ZM62.914 125V156.25H63.586V125H62.914ZM63.25 155.914H32V156.586H63.25V155.914ZM94.164 125V156.25H94.836V125H94.164ZM94.5 155.914H63.25V156.586H94.5V155.914ZM125.414 125V156.25H126.086V125H125.414ZM125.75 155.914H94.5V156.586H125.75V155.914ZM156.664 125V156.25H157.336V125H156.664ZM157 155.914H125.75V156.586H157V155.914ZM187.914 125V156.25H188.586V125H187.914ZM188.25 155.914H157V156.586H188.25V155.914ZM219.164 125V156.25H219.836V125H219.164ZM219.5 155.914H188.25V156.586H219.5V155.914ZM250.414 125V156.25H251.086V125H250.414ZM250.75 155.914H219.5V156.586H250.75V155.914ZM281.664 125V156.25H282.336V125H281.664ZM282 155.914H250.75V156.586H282V155.914ZM-62.086 156.25V187.5H-61.414V156.25H-62.086ZM-61.75 187.164H-93V187.836H-61.75V187.164ZM-30.836 156.25V187.5H-30.164V156.25H-30.836ZM-30.5 187.164H-61.75V187.836H-30.5V187.164ZM0.413986 156.25V187.5H1.08598V156.25H0.413986ZM0.749985 187.164H-30.5V187.836H0.749985V187.164ZM31.664 156.25V187.5H32.336V156.25H31.664ZM32 187.164H0.749985V187.836H32V187.164ZM62.914 156.25V187.5H63.586V156.25H62.914ZM63.25 187.164H32V187.836H63.25V187.164ZM94.164 156.25V187.5H94.836V156.25H94.164ZM94.5 187.164H63.25V187.836H94.5V187.164ZM125.414 156.25V187.5H126.086V156.25H125.414ZM125.75 187.164H94.5V187.836H125.75V187.164ZM156.664 156.25V187.5H157.336V156.25H156.664ZM157 187.164H125.75V187.836H157V187.164ZM187.914 156.25V187.5H188.586V156.25H187.914ZM188.25 187.164H157V187.836H188.25V187.164ZM219.164 156.25V187.5H219.836V156.25H219.164ZM219.5 187.164H188.25V187.836H219.5V187.164ZM250.414 156.25V187.5H251.086V156.25H250.414ZM250.75 187.164H219.5V187.836H250.75V187.164ZM281.664 156.25V187.5H282.336V156.25H281.664ZM282 187.164H250.75V187.836H282V187.164ZM-62.086 187.5V218.75H-61.414V187.5H-62.086ZM-61.75 218.414H-93V219.086H-61.75V218.414ZM-30.836 187.5V218.75H-30.164V187.5H-30.836ZM-30.5 218.414H-61.75V219.086H-30.5V218.414ZM0.413986 187.5V218.75H1.08598V187.5H0.413986ZM0.749985 218.414H-30.5V219.086H0.749985V218.414ZM31.664 187.5V218.75H32.336V187.5H31.664ZM32 218.414H0.749985V219.086H32V218.414ZM62.914 187.5V218.75H63.586V187.5H62.914ZM63.25 218.414H32V219.086H63.25V218.414ZM94.164 187.5V218.75H94.836V187.5H94.164ZM94.5 218.414H63.25V219.086H94.5V218.414ZM125.414 187.5V218.75H126.086V187.5H125.414ZM125.75 218.414H94.5V219.086H125.75V218.414ZM156.664 187.5V218.75H157.336V187.5H156.664ZM157 218.414H125.75V219.086H157V218.414ZM187.914 187.5V218.75H188.586V187.5H187.914ZM188.25 218.414H157V219.086H188.25V218.414ZM219.164 187.5V218.75H219.836V187.5H219.164ZM219.5 218.414H188.25V219.086H219.5V218.414ZM250.414 187.5V218.75H251.086V187.5H250.414ZM250.75 218.414H219.5V219.086H250.75V218.414ZM281.664 187.5V218.75H282.336V187.5H281.664ZM282 218.414H250.75V219.086H282V218.414ZM-62.086 218.75V250H-61.414V218.75H-62.086ZM-61.75 249.664H-93V250.336H-61.75V249.664ZM-30.836 218.75V250H-30.164V218.75H-30.836ZM-30.5 249.664H-61.75V250.336H-30.5V249.664ZM0.413986 218.75V250H1.08598V218.75H0.413986ZM0.749985 249.664H-30.5V250.336H0.749985V249.664ZM31.664 218.75V250H32.336V218.75H31.664ZM32 249.664H0.749985V250.336H32V249.664ZM62.914 218.75V250H63.586V218.75H62.914ZM63.25 249.664H32V250.336H63.25V249.664ZM94.164 218.75V250H94.836V218.75H94.164ZM94.5 249.664H63.25V250.336H94.5V249.664ZM125.414 218.75V250H126.086V218.75H125.414ZM125.75 249.664H94.5V250.336H125.75V249.664ZM156.664 218.75V250H157.336V218.75H156.664ZM157 249.664H125.75V250.336H157V249.664ZM187.914 218.75V250H188.586V218.75H187.914ZM188.25 249.664H157V250.336H188.25V249.664ZM219.164 218.75V250H219.836V218.75H219.164ZM219.5 249.664H188.25V250.336H219.5V249.664ZM250.414 218.75V250H251.086V218.75H250.414ZM250.75 249.664H219.5V250.336H250.75V249.664ZM281.664 218.75V250H282.336V218.75H281.664ZM282 249.664H250.75V250.336H282V249.664ZM-62.086 250V281.25H-61.414V250H-62.086ZM-61.75 280.914H-93V281.586H-61.75V280.914ZM-30.836 250V281.25H-30.164V250H-30.836ZM-30.5 280.914H-61.75V281.586H-30.5V280.914ZM0.413986 250V281.25H1.08598V250H0.413986ZM0.749985 280.914H-30.5V281.586H0.749985V280.914ZM31.664 250V281.25H32.336V250H31.664ZM32 280.914H0.749985V281.586H32V280.914ZM62.914 250V281.25H63.586V250H62.914ZM63.25 280.914H32V281.586H63.25V280.914ZM94.164 250V281.25H94.836V250H94.164ZM94.5 280.914H63.25V281.586H94.5V280.914ZM125.414 250V281.25H126.086V250H125.414ZM125.75 280.914H94.5V281.586H125.75V280.914ZM156.664 250V281.25H157.336V250H156.664ZM157 280.914H125.75V281.586H157V280.914ZM187.914 250V281.25H188.586V250H187.914ZM188.25 280.914H157V281.586H188.25V280.914ZM219.164 250V281.25H219.836V250H219.164ZM219.5 280.914H188.25V281.586H219.5V280.914ZM250.414 250V281.25H251.086V250H250.414ZM250.75 280.914H219.5V281.586H250.75V280.914ZM281.664 250V281.25H282.336V250H281.664ZM282 280.914H250.75V281.586H282V280.914ZM-62.086 281.25V312.5H-61.414V281.25H-62.086ZM-61.75 312.164H-93V312.836H-61.75V312.164ZM-30.836 281.25V312.5H-30.164V281.25H-30.836ZM-30.5 312.164H-61.75V312.836H-30.5V312.164ZM0.413986 281.25V312.5H1.08598V281.25H0.413986ZM0.749985 312.164H-30.5V312.836H0.749985V312.164ZM31.664 281.25V312.5H32.336V281.25H31.664ZM32 312.164H0.749985V312.836H32V312.164ZM62.914 281.25V312.5H63.586V281.25H62.914ZM63.25 312.164H32V312.836H63.25V312.164ZM94.164 281.25V312.5H94.836V281.25H94.164ZM94.5 312.164H63.25V312.836H94.5V312.164ZM125.414 281.25V312.5H126.086V281.25H125.414ZM125.75 312.164H94.5V312.836H125.75V312.164ZM156.664 281.25V312.5H157.336V281.25H156.664ZM157 312.164H125.75V312.836H157V312.164ZM187.914 281.25V312.5H188.586V281.25H187.914ZM188.25 312.164H157V312.836H188.25V312.164ZM219.164 281.25V312.5H219.836V281.25H219.164ZM219.5 312.164H188.25V312.836H219.5V312.164ZM250.414 281.25V312.5H251.086V281.25H250.414ZM250.75 312.164H219.5V312.836H250.75V312.164ZM281.664 281.25V312.5H282.336V281.25H281.664ZM282 312.164H250.75V312.836H282V312.164ZM-62.086 312.5V343.75H-61.414V312.5H-62.086ZM-61.75 343.414H-93V344.086H-61.75V343.414ZM-30.836 312.5V343.75H-30.164V312.5H-30.836ZM-30.5 343.414H-61.75V344.086H-30.5V343.414ZM0.413986 312.5V343.75H1.08598V312.5H0.413986ZM0.749985 343.414H-30.5V344.086H0.749985V343.414ZM31.664 312.5V343.75H32.336V312.5H31.664ZM32 343.414H0.749985V344.086H32V343.414ZM62.914 312.5V343.75H63.586V312.5H62.914ZM63.25 343.414H32V344.086H63.25V343.414ZM94.164 312.5V343.75H94.836V312.5H94.164ZM94.5 343.414H63.25V344.086H94.5V343.414ZM125.414 312.5V343.75H126.086V312.5H125.414ZM125.75 343.414H94.5V344.086H125.75V343.414ZM156.664 312.5V343.75H157.336V312.5H156.664ZM157 343.414H125.75V344.086H157V343.414ZM187.914 312.5V343.75H188.586V312.5H187.914ZM188.25 343.414H157V344.086H188.25V343.414ZM219.164 312.5V343.75H219.836V312.5H219.164ZM219.5 343.414H188.25V344.086H219.5V343.414ZM250.414 312.5V343.75H251.086V312.5H250.414ZM250.75 343.414H219.5V344.086H250.75V343.414ZM281.664 312.5V343.75H282.336V312.5H281.664ZM282 343.414H250.75V344.086H282V343.414ZM-62.086 343.75V375H-61.414V343.75H-62.086ZM-30.836 343.75V375H-30.164V343.75H-30.836ZM0.413986 343.75V375H1.08598V343.75H0.413986ZM31.664 343.75V375H32.336V343.75H31.664ZM62.914 343.75V375H63.586V343.75H62.914ZM94.164 343.75V375H94.836V343.75H94.164ZM125.414 343.75V375H126.086V343.75H125.414ZM156.664 343.75V375H157.336V343.75H156.664ZM187.914 343.75V375H188.586V343.75H187.914ZM219.164 343.75V375H219.836V343.75H219.164ZM250.414 343.75V375H251.086V343.75H250.414ZM281.664 343.75V375H282.336V343.75H281.664ZM312.914 125V156.25H313.586V125H312.914ZM313.25 155.914H282V156.586H313.25V155.914ZM344.164 125V156.25H344.836V125H344.164ZM344.5 155.914H313.25V156.586H344.5V155.914ZM375.414 125V156.25H376.086V125H375.414ZM375.75 155.914H344.5V156.586H375.75V155.914ZM406.664 125V156.25H407.336V125H406.664ZM407 155.914H375.75V156.586H407V155.914ZM437.914 125V156.25H438.586V125H437.914ZM438.25 155.914H407V156.586H438.25V155.914ZM469.164 125V156.25H469.836V125H469.164ZM469.5 155.914H438.25V156.586H469.5V155.914ZM500.414 125V156.25H501.086V125H500.414ZM500.75 155.914H469.5V156.586H500.75V155.914ZM531.664 125V156.25H532.336V125H531.664ZM532 155.914H500.75V156.586H532V155.914ZM562.914 125V156.25H563.586V125H562.914ZM563.25 155.914H532V156.586H563.25V155.914ZM594.164 125V156.25H594.836V125H594.164ZM594.5 155.914H563.25V156.586H594.5V155.914ZM625.414 125V156.25H626.086V125H625.414ZM625.75 155.914H594.5V156.586H625.75V155.914ZM657 155.914H625.75V156.586H657V155.914ZM312.914 156.25V187.5H313.586V156.25H312.914ZM313.25 187.164H282V187.836H313.25V187.164ZM344.164 156.25V187.5H344.836V156.25H344.164ZM344.5 187.164H313.25V187.836H344.5V187.164ZM375.414 156.25V187.5H376.086V156.25H375.414ZM375.75 187.164H344.5V187.836H375.75V187.164ZM406.664 156.25V187.5H407.336V156.25H406.664ZM407 187.164H375.75V187.836H407V187.164ZM437.914 156.25V187.5H438.586V156.25H437.914ZM438.25 187.164H407V187.836H438.25V187.164ZM469.164 156.25V187.5H469.836V156.25H469.164ZM469.5 187.164H438.25V187.836H469.5V187.164ZM500.414 156.25V187.5H501.086V156.25H500.414ZM500.75 187.164H469.5V187.836H500.75V187.164ZM531.664 156.25V187.5H532.336V156.25H531.664ZM532 187.164H500.75V187.836H532V187.164ZM562.914 156.25V187.5H563.586V156.25H562.914ZM563.25 187.164H532V187.836H563.25V187.164ZM594.164 156.25V187.5H594.836V156.25H594.164ZM594.5 187.164H563.25V187.836H594.5V187.164ZM625.414 156.25V187.5H626.086V156.25H625.414ZM625.75 187.164H594.5V187.836H625.75V187.164ZM657 187.164H625.75V187.836H657V187.164ZM312.914 187.5V218.75H313.586V187.5H312.914ZM313.25 218.414H282V219.086H313.25V218.414ZM344.164 187.5V218.75H344.836V187.5H344.164ZM344.5 218.414H313.25V219.086H344.5V218.414ZM375.414 187.5V218.75H376.086V187.5H375.414ZM375.75 218.414H344.5V219.086H375.75V218.414ZM406.664 187.5V218.75H407.336V187.5H406.664ZM407 218.414H375.75V219.086H407V218.414ZM437.914 187.5V218.75H438.586V187.5H437.914ZM438.25 218.414H407V219.086H438.25V218.414ZM469.164 187.5V218.75H469.836V187.5H469.164ZM469.5 218.414H438.25V219.086H469.5V218.414ZM500.414 187.5V218.75H501.086V187.5H500.414ZM500.75 218.414H469.5V219.086H500.75V218.414ZM531.664 187.5V218.75H532.336V187.5H531.664ZM532 218.414H500.75V219.086H532V218.414ZM562.914 187.5V218.75H563.586V187.5H562.914ZM563.25 218.414H532V219.086H563.25V218.414ZM594.164 187.5V218.75H594.836V187.5H594.164ZM594.5 218.414H563.25V219.086H594.5V218.414ZM625.414 187.5V218.75H626.086V187.5H625.414ZM625.75 218.414H594.5V219.086H625.75V218.414ZM657 218.414H625.75V219.086H657V218.414ZM312.914 218.75V250H313.586V218.75H312.914ZM313.25 249.664H282V250.336H313.25V249.664ZM344.164 218.75V250H344.836V218.75H344.164ZM344.5 249.664H313.25V250.336H344.5V249.664ZM375.414 218.75V250H376.086V218.75H375.414ZM375.75 249.664H344.5V250.336H375.75V249.664ZM406.664 218.75V250H407.336V218.75H406.664ZM407 249.664H375.75V250.336H407V249.664ZM437.914 218.75V250H438.586V218.75H437.914ZM438.25 249.664H407V250.336H438.25V249.664ZM469.164 218.75V250H469.836V218.75H469.164ZM469.5 249.664H438.25V250.336H469.5V249.664ZM500.414 218.75V250H501.086V218.75H500.414ZM500.75 249.664H469.5V250.336H500.75V249.664ZM531.664 218.75V250H532.336V218.75H531.664ZM532 249.664H500.75V250.336H532V249.664ZM562.914 218.75V250H563.586V218.75H562.914ZM563.25 249.664H532V250.336H563.25V249.664ZM594.164 218.75V250H594.836V218.75H594.164ZM594.5 249.664H563.25V250.336H594.5V249.664ZM625.414 218.75V250H626.086V218.75H625.414ZM625.75 249.664H594.5V250.336H625.75V249.664ZM657 249.664H625.75V250.336H657V249.664ZM312.914 250V281.25H313.586V250H312.914ZM313.25 280.914H282V281.586H313.25V280.914ZM344.164 250V281.25H344.836V250H344.164ZM344.5 280.914H313.25V281.586H344.5V280.914ZM375.414 250V281.25H376.086V250H375.414ZM375.75 280.914H344.5V281.586H375.75V280.914ZM406.664 250V281.25H407.336V250H406.664ZM407 280.914H375.75V281.586H407V280.914ZM437.914 250V281.25H438.586V250H437.914ZM438.25 280.914H407V281.586H438.25V280.914ZM469.164 250V281.25H469.836V250H469.164ZM469.5 280.914H438.25V281.586H469.5V280.914ZM500.414 250V281.25H501.086V250H500.414ZM500.75 280.914H469.5V281.586H500.75V280.914ZM531.664 250V281.25H532.336V250H531.664ZM532 280.914H500.75V281.586H532V280.914ZM562.914 250V281.25H563.586V250H562.914ZM563.25 280.914H532V281.586H563.25V280.914ZM594.164 250V281.25H594.836V250H594.164ZM594.5 280.914H563.25V281.586H594.5V280.914ZM625.414 250V281.25H626.086V250H625.414ZM625.75 280.914H594.5V281.586H625.75V280.914ZM657 280.914H625.75V281.586H657V280.914ZM312.914 281.25V312.5H313.586V281.25H312.914ZM313.25 312.164H282V312.836H313.25V312.164ZM344.164 281.25V312.5H344.836V281.25H344.164ZM344.5 312.164H313.25V312.836H344.5V312.164ZM375.414 281.25V312.5H376.086V281.25H375.414ZM375.75 312.164H344.5V312.836H375.75V312.164ZM406.664 281.25V312.5H407.336V281.25H406.664ZM407 312.164H375.75V312.836H407V312.164ZM437.914 281.25V312.5H438.586V281.25H437.914ZM438.25 312.164H407V312.836H438.25V312.164ZM469.164 281.25V312.5H469.836V281.25H469.164ZM469.5 312.164H438.25V312.836H469.5V312.164ZM500.414 281.25V312.5H501.086V281.25H500.414ZM500.75 312.164H469.5V312.836H500.75V312.164ZM531.664 281.25V312.5H532.336V281.25H531.664ZM532 312.164H500.75V312.836H532V312.164ZM562.914 281.25V312.5H563.586V281.25H562.914ZM563.25 312.164H532V312.836H563.25V312.164ZM594.164 281.25V312.5H594.836V281.25H594.164ZM594.5 312.164H563.25V312.836H594.5V312.164ZM625.414 281.25V312.5H626.086V281.25H625.414ZM625.75 312.164H594.5V312.836H625.75V312.164ZM657 312.164H625.75V312.836H657V312.164ZM312.914 312.5V343.75H313.586V312.5H312.914ZM313.25 343.414H282V344.086H313.25V343.414ZM344.164 312.5V343.75H344.836V312.5H344.164ZM344.5 343.414H313.25V344.086H344.5V343.414ZM375.414 312.5V343.75H376.086V312.5H375.414ZM375.75 343.414H344.5V344.086H375.75V343.414ZM406.664 312.5V343.75H407.336V312.5H406.664ZM407 343.414H375.75V344.086H407V343.414ZM437.914 312.5V343.75H438.586V312.5H437.914ZM438.25 343.414H407V344.086H438.25V343.414ZM469.164 312.5V343.75H469.836V312.5H469.164ZM469.5 343.414H438.25V344.086H469.5V343.414ZM500.414 312.5V343.75H501.086V312.5H500.414ZM500.75 343.414H469.5V344.086H500.75V343.414ZM531.664 312.5V343.75H532.336V312.5H531.664ZM532 343.414H500.75V344.086H532V343.414ZM562.914 312.5V343.75H563.586V312.5H562.914ZM563.25 343.414H532V344.086H563.25V343.414ZM594.164 312.5V343.75H594.836V312.5H594.164ZM594.5 343.414H563.25V344.086H594.5V343.414ZM625.414 312.5V343.75H626.086V312.5H625.414ZM625.75 343.414H594.5V344.086H625.75V343.414ZM657 343.414H625.75V344.086H657V343.414ZM312.914 343.75V375H313.586V343.75H312.914ZM344.164 343.75V375H344.836V343.75H344.164ZM375.414 343.75V375H376.086V343.75H375.414ZM406.664 343.75V375H407.336V343.75H406.664ZM437.914 343.75V375H438.586V343.75H437.914ZM469.164 343.75V375H469.836V343.75H469.164ZM500.414 343.75V375H501.086V343.75H500.414ZM531.664 343.75V375H532.336V343.75H531.664ZM562.914 343.75V375H563.586V343.75H562.914ZM594.164 343.75V375H594.836V343.75H594.164ZM625.414 343.75V375H626.086V343.75H625.414ZM-93 -125V-125.672H-93.6721V-125H-93ZM657 -125H657.672V-125.672H657V-125ZM-93 375H-93.6721V375.672H-93V375ZM657 375V375.672H657.672V375H657ZM-93 -124.328H-61.75V-125.672H-93V-124.328ZM-92.328 -93.75V-125H-93.6721V-93.75H-92.328ZM-61.75 -124.328H-30.5V-125.672H-61.75V-124.328ZM-30.5 -124.328H0.749985V-125.672H-30.5V-124.328ZM0.749985 -124.328H32V-125.672H0.749985V-124.328ZM32 -124.328H63.25V-125.672H32V-124.328ZM63.25 -124.328H94.5V-125.672H63.25V-124.328ZM94.5 -124.328H125.75V-125.672H94.5V-124.328ZM125.75 -124.328H157V-125.672H125.75V-124.328ZM157 -124.328H188.25V-125.672H157V-124.328ZM188.25 -124.328H219.5V-125.672H188.25V-124.328ZM219.5 -124.328H250.75V-125.672H219.5V-124.328ZM250.75 -124.328H282V-125.672H250.75V-124.328ZM-92.328 -62.5V-93.75H-93.6721V-62.5H-92.328ZM-92.328 -31.25V-62.5H-93.6721V-31.25H-92.328ZM-92.328 -1.52588e-05V-31.25H-93.6721V-1.52588e-05H-92.328ZM-92.328 31.25V-1.52588e-05H-93.6721V31.25H-92.328ZM-92.328 62.5V31.25H-93.6721V62.5H-92.328ZM-92.328 93.75V62.5H-93.6721V93.75H-92.328ZM-92.328 125V93.75H-93.6721V125H-92.328ZM282 -124.328H313.25V-125.672H282V-124.328ZM313.25 -124.328H344.5V-125.672H313.25V-124.328ZM344.5 -124.328H375.75V-125.672H344.5V-124.328ZM375.75 -124.328H407V-125.672H375.75V-124.328ZM407 -124.328H438.25V-125.672H407V-124.328ZM438.25 -124.328H469.5V-125.672H438.25V-124.328ZM469.5 -124.328H500.75V-125.672H469.5V-124.328ZM500.75 -124.328H532V-125.672H500.75V-124.328ZM532 -124.328H563.25V-125.672H532V-124.328ZM563.25 -124.328H594.5V-125.672H563.25V-124.328ZM594.5 -124.328H625.75V-125.672H594.5V-124.328ZM625.75 -124.328H657V-125.672H625.75V-124.328ZM656.328 -125V-93.75H657.672V-125H656.328ZM656.328 -93.75V-62.5H657.672V-93.75H656.328ZM656.328 -62.5V-31.25H657.672V-62.5H656.328ZM656.328 -31.25V-1.52588e-05H657.672V-31.25H656.328ZM656.328 -1.52588e-05V31.25H657.672V-1.52588e-05H656.328ZM656.328 31.25V62.5H657.672V31.25H656.328ZM656.328 62.5V93.75H657.672V62.5H656.328ZM656.328 93.75V125H657.672V93.75H656.328ZM-92.328 156.25V125H-93.6721V156.25H-92.328ZM-92.328 187.5V156.25H-93.6721V187.5H-92.328ZM-92.328 218.75V187.5H-93.6721V218.75H-92.328ZM-92.328 250V218.75H-93.6721V250H-92.328ZM-92.328 281.25V250H-93.6721V281.25H-92.328ZM-92.328 312.5V281.25H-93.6721V312.5H-92.328ZM-92.328 343.75V312.5H-93.6721V343.75H-92.328ZM-61.75 374.328H-93V375.672H-61.75V374.328ZM-92.328 375V343.75H-93.6721V375H-92.328ZM-30.5 374.328H-61.75V375.672H-30.5V374.328ZM0.749985 374.328H-30.5V375.672H0.749985V374.328ZM32 374.328H0.749985V375.672H32V374.328ZM63.25 374.328H32V375.672H63.25V374.328ZM94.5 374.328H63.25V375.672H94.5V374.328ZM125.75 374.328H94.5V375.672H125.75V374.328ZM157 374.328H125.75V375.672H157V374.328ZM188.25 374.328H157V375.672H188.25V374.328ZM219.5 374.328H188.25V375.672H219.5V374.328ZM250.75 374.328H219.5V375.672H250.75V374.328ZM282 374.328H250.75V375.672H282V374.328ZM656.328 125V156.25H657.672V125H656.328ZM656.328 156.25V187.5H657.672V156.25H656.328ZM656.328 187.5V218.75H657.672V187.5H656.328ZM656.328 218.75V250H657.672V218.75H656.328ZM656.328 250V281.25H657.672V250H656.328ZM656.328 281.25V312.5H657.672V281.25H656.328ZM656.328 312.5V343.75H657.672V312.5H656.328ZM313.25 374.328H282V375.672H313.25V374.328ZM344.5 374.328H313.25V375.672H344.5V374.328ZM375.75 374.328H344.5V375.672H375.75V374.328ZM407 374.328H375.75V375.672H407V374.328ZM438.25 374.328H407V375.672H438.25V374.328ZM469.5 374.328H438.25V375.672H469.5V374.328ZM500.75 374.328H469.5V375.672H500.75V374.328ZM532 374.328H500.75V375.672H532V374.328ZM563.25 374.328H532V375.672H563.25V374.328ZM594.5 374.328H563.25V375.672H594.5V374.328ZM625.75 374.328H594.5V375.672H625.75V374.328ZM656.328 343.75V375H657.672V343.75H656.328ZM657 374.328H625.75V375.672H657V374.328Z" fill="url(#paint0_radial_22_407)"/>
</g>
<path d="M407 31H375V63H407V31Z" fill="#0F80F0" fill-opacity="0.04"/>
<path d="M188 0H156V32H188V0Z" fill="#0F80F0" fill-opacity="0.04"/>
</g>
</g>
<defs>
<radialGradient id="paint0_radial_22_407" cx="0" cy="0" r="1" gradientUnits="userSpaceOnUse" gradientTransform="translate(282 -237) rotate(90) scale(346 519)">
<stop stop-color="#0F80F0" stop-opacity="0.6"/>
<stop offset="1" stop-color="#0F80F0" stop-opacity="0"/>
</radialGradient>
<clipPath id="clip0_22_407">
<rect width="498" height="116" fill="white"/>
</clipPath>
<clipPath id="clip1_22_407">
<rect width="750" height="500" fill="white" transform="translate(-93 -125)"/>
</clipPath>
</defs>
</svg>
