<svg width="20" height="20" viewBox="0 0 20 20" fill="none" xmlns="http://www.w3.org/2000/svg">
<path fill-rule="evenodd" clip-rule="evenodd" d="M10.001 3.125C5.85681 3.125 2.34264 5.81333 1.10264 9.53917H1.10348C1.00327 9.84021 1.00327 10.1656 1.10348 10.4667C2.34431 14.1892 5.85764 16.875 9.99931 16.875C14.1426 16.875 17.6576 14.1867 18.8968 10.4608C18.9968 10.16 18.9968 9.835 18.8968 9.53333C17.6551 5.81083 14.1426 3.125 10.001 3.125ZM13.0937 13.0936C13.9142 12.2731 14.3751 11.1603 14.3751 10C14.3751 8.83968 13.9142 7.72688 13.0937 6.90641C12.2733 6.08594 11.1605 5.625 10.0001 5.625C8.83982 5.625 7.72702 6.08594 6.90655 6.90641C6.08608 7.72688 5.62514 8.83968 5.62514 10C5.62514 11.1603 6.08608 12.2731 6.90655 13.0936C7.72702 13.9141 8.83982 14.375 10.0001 14.375C11.1605 14.375 12.2733 13.9141 13.0937 13.0936ZM11.7678 11.7678C11.299 12.2366 10.6631 12.5 10.0001 12.5C9.33704 12.5 8.70116 12.2366 8.23231 11.7678C7.76347 11.2989 7.50008 10.663 7.50008 10C7.50008 9.33696 7.76347 8.70107 8.23231 8.23223C8.70116 7.76339 9.33704 7.5 10.0001 7.5C10.6631 7.5 11.299 7.76339 11.7678 8.23223C12.2367 8.70107 12.5001 9.33696 12.5001 10C12.5001 10.663 12.2367 11.2989 11.7678 11.7678Z" fill="#191919"/>
</svg>
