<svg width="24" height="24" viewBox="0 0 24 24" fill="none" xmlns="http://www.w3.org/2000/svg">
<g id="Swap me">
<path id="Union" fill-rule="evenodd" clip-rule="evenodd" d="M3.53058 2.47082C3.3884 2.33834 3.20036 2.26622 3.00606 2.26965C2.81176 2.27308 2.62637 2.35179 2.48896 2.4892C2.35154 2.62661 2.27283 2.812 2.2694 3.0063C2.26598 3.2006 2.3381 3.38865 2.47058 3.53082L20.4706 21.5308C20.5392 21.6045 20.622 21.6636 20.714 21.7046C20.806 21.7456 20.9054 21.7676 21.0061 21.7694C21.1068 21.7712 21.2068 21.7527 21.3002 21.7149C21.3936 21.6772 21.4784 21.6211 21.5496 21.5499C21.6208 21.4786 21.677 21.3938 21.7147 21.3004C21.7524 21.207 21.7709 21.107 21.7692 21.0063C21.7674 20.9056 21.7454 20.8063 21.7044 20.7143C21.6634 20.6223 21.6043 20.5395 21.5306 20.4708L3.53058 2.47082ZM22.6766 12.5538C22.1375 14.1713 21.2379 15.6451 20.0456 16.8638L16.9466 13.7648C17.2809 12.8287 17.3427 11.817 17.1246 10.8472C16.9065 9.87742 16.4177 8.98947 15.7148 8.28661C15.0119 7.58375 14.124 7.09486 13.1542 6.8768C12.1844 6.65875 11.1727 6.72048 10.2366 7.05482L7.75958 4.57782C9.1066 4.02978 10.5473 3.7489 12.0016 3.75082C16.9716 3.75082 21.1866 6.97382 22.6766 11.4408C22.7966 11.8028 22.7966 12.1928 22.6766 12.5538ZM15.7505 12.0008C15.7505 12.1808 15.7375 12.3578 15.7135 12.5308L11.4695 8.28779C12.0015 8.21169 12.5436 8.25082 13.0591 8.40253C13.5747 8.55424 14.0516 8.81498 14.4576 9.16708C14.8635 9.51919 15.1891 9.95444 15.4122 10.4433C15.6352 10.9323 15.7506 11.4634 15.7505 12.0008ZM12.5305 15.7138L12.5296 15.7129L12.5305 15.7128V15.7138ZM12.5296 15.7129L8.28751 11.4698C8.2051 12.0462 8.25804 12.6338 8.44213 13.1862C8.62622 13.7386 8.9364 14.2405 9.34811 14.6522C9.75981 15.0639 10.2617 15.3741 10.8141 15.5582C11.3662 15.7422 11.9535 15.7951 12.5296 15.7129ZM7.05437 10.2372C6.85737 10.7882 6.75037 11.3822 6.75037 12.0012C6.75018 12.8425 6.95215 13.6715 7.33927 14.4183C7.7264 15.1652 8.28734 15.8082 8.97485 16.293C9.66237 16.7778 10.4563 17.0903 11.2898 17.2041C12.1234 17.318 12.972 17.2299 13.7644 16.9472L16.2414 19.4242C14.9324 19.9572 13.4994 20.2512 11.9994 20.2512C7.02837 20.2512 2.81337 17.0282 1.32437 12.5612C1.20438 12.1992 1.20438 11.8092 1.32437 11.4472C1.86316 9.82983 2.76248 8.35605 3.95438 7.13721L7.05437 10.2372Z" fill="#191919"/>
</g>
</svg>
