<svg width="1098" height="134" viewBox="0 0 1098 134" fill="none" xmlns="http://www.w3.org/2000/svg">
<path d="M11.9281 48.3858C9.68812 48.3858 7.67212 48.0018 5.88012 47.2338C4.08812 46.4338 2.68012 45.3138 1.65612 43.8738C0.632121 42.4338 0.120121 40.7538 0.120121 38.8338H5.97612C6.10412 40.2738 6.66412 41.4578 7.65612 42.3858C8.68012 43.3138 10.1041 43.7778 11.9281 43.7778C13.8161 43.7778 15.2881 43.3298 16.3441 42.4338C17.4001 41.5058 17.9281 40.3218 17.9281 38.8818C17.9281 37.7618 17.5921 36.8498 16.9201 36.1458C16.2801 35.4418 15.4641 34.8978 14.4721 34.5138C13.5121 34.1298 12.1681 33.7138 10.4401 33.2658C8.26412 32.6898 6.48812 32.1138 5.11212 31.5378C3.76812 30.9298 2.61612 30.0018 1.65612 28.7538C0.696121 27.5058 0.216121 25.8418 0.216121 23.7618C0.216121 21.8418 0.696121 20.1618 1.65612 18.7218C2.61612 17.2818 3.96012 16.1778 5.68812 15.4098C7.41612 14.6418 9.41612 14.2578 11.6881 14.2578C14.9201 14.2578 17.5601 15.0738 19.6081 16.7058C21.6881 18.3058 22.8401 20.5138 23.0641 23.3298H17.0161C16.9201 22.1138 16.3441 21.0738 15.2881 20.2098C14.2321 19.3458 12.8401 18.9138 11.1121 18.9138C9.54412 18.9138 8.26412 19.3138 7.27212 20.1138C6.28012 20.9138 5.78412 22.0658 5.78412 23.5698C5.78412 24.5938 6.08812 25.4418 6.69612 26.1138C7.33612 26.7538 8.13612 27.2658 9.09612 27.6498C10.0561 28.0338 11.3681 28.4498 13.0321 28.8978C15.2401 29.5058 17.0321 30.1138 18.4081 30.7218C19.8161 31.3298 21.0001 32.2738 21.9601 33.5538C22.9521 34.8018 23.4481 36.4818 23.4481 38.5938C23.4481 40.2898 22.9841 41.8898 22.0561 43.3938C21.1601 44.8978 19.8321 46.1138 18.0721 47.0418C16.3441 47.9378 14.2961 48.3858 11.9281 48.3858ZM36.2889 26.0658V40.7058C36.2889 41.6978 36.5129 42.4178 36.9609 42.8658C37.4409 43.2818 38.2409 43.4898 39.3609 43.4898H42.7209V48.0498H38.4009C35.9369 48.0498 34.0489 47.4738 32.7369 46.3218C31.4249 45.1698 30.7689 43.2978 30.7689 40.7058V26.0658H27.6489V21.6018H30.7689V15.0258H36.2889V21.6018H42.7209V26.0658H36.2889ZM45.9402 34.7058C45.9402 32.0498 46.4842 29.6978 47.5722 27.6498C48.6922 25.6018 50.1962 24.0178 52.0842 22.8978C54.0042 21.7458 56.1162 21.1698 58.4202 21.1698C60.5002 21.1698 62.3082 21.5858 63.8442 22.4178C65.4122 23.2178 66.6602 24.2258 67.5882 25.4418V21.6018H73.1082V48.0498H67.5882V44.1138C66.6602 45.3618 65.3962 46.4018 63.7962 47.2338C62.1962 48.0658 60.3722 48.4818 58.3242 48.4818C56.0522 48.4818 53.9722 47.9058 52.0842 46.7538C50.1962 45.5698 48.6922 43.9378 47.5722 41.8578C46.4842 39.7458 45.9402 37.3618 45.9402 34.7058ZM67.5882 34.8018C67.5882 32.9778 67.2042 31.3938 66.4362 30.0498C65.7002 28.7058 64.7242 27.6818 63.5082 26.9778C62.2922 26.2738 60.9802 25.9218 59.5722 25.9218C58.1642 25.9218 56.8522 26.2738 55.6362 26.9778C54.4202 27.6498 53.4282 28.6578 52.6602 30.0018C51.9242 31.3138 51.5562 32.8818 51.5562 34.7058C51.5562 36.5298 51.9242 38.1298 52.6602 39.5058C53.4282 40.8818 54.4202 41.9378 55.6362 42.6738C56.8842 43.3778 58.1962 43.7298 59.5722 43.7298C60.9802 43.7298 62.2922 43.3778 63.5082 42.6738C64.7242 41.9698 65.7002 40.9458 66.4362 39.6018C67.2042 38.2258 67.5882 36.6258 67.5882 34.8018ZM78.4715 34.8018C78.4715 32.0818 79.0155 29.6978 80.1035 27.6498C81.2235 25.5698 82.7595 23.9698 84.7115 22.8498C86.6635 21.7298 88.9035 21.1698 91.4315 21.1698C94.6315 21.1698 97.2715 21.9378 99.3515 23.4738C101.463 24.9778 102.887 27.1378 103.623 29.9538H97.7195C97.2395 28.6418 96.4715 27.6178 95.4155 26.8818C94.3595 26.1458 93.0315 25.7778 91.4315 25.7778C89.1915 25.7778 87.3995 26.5778 86.0555 28.1778C84.7435 29.7458 84.0875 31.9538 84.0875 34.8018C84.0875 37.6498 84.7435 39.8738 86.0555 41.4738C87.3995 43.0738 89.1915 43.8738 91.4315 43.8738C94.5995 43.8738 96.6955 42.4818 97.7195 39.6978H103.623C102.855 42.3858 101.415 44.5298 99.3035 46.1298C97.1915 47.6978 94.5675 48.4818 91.4315 48.4818C88.9035 48.4818 86.6635 47.9218 84.7115 46.8018C82.7595 45.6498 81.2235 44.0498 80.1035 42.0018C79.0155 39.9218 78.4715 37.5218 78.4715 34.8018ZM119.541 34.8498L131.733 48.0498H124.341L114.549 36.6738V48.0498H109.077V12.5298H114.549V33.1698L124.149 21.6018H131.733L119.541 34.8498ZM138.439 18.0978C137.447 18.0978 136.615 17.7618 135.943 17.0898C135.271 16.4178 134.935 15.5858 134.935 14.5938C134.935 13.6018 135.271 12.7698 135.943 12.0978C136.615 11.4258 137.447 11.0898 138.439 11.0898C139.399 11.0898 140.215 11.4258 140.887 12.0978C141.559 12.7698 141.895 13.6018 141.895 14.5938C141.895 15.5858 141.559 16.4178 140.887 17.0898C140.215 17.7618 139.399 18.0978 138.439 18.0978ZM141.127 21.6018V48.0498H135.655V21.6018H141.127ZM161.655 21.1698C163.735 21.1698 165.591 21.6018 167.223 22.4658C168.887 23.3298 170.183 24.6098 171.111 26.3058C172.039 28.0018 172.503 30.0498 172.503 32.4498V48.0498H167.079V33.2658C167.079 30.8978 166.487 29.0898 165.303 27.8418C164.119 26.5618 162.503 25.9218 160.455 25.9218C158.407 25.9218 156.775 26.5618 155.559 27.8418C154.375 29.0898 153.783 30.8978 153.783 33.2658V48.0498H148.311V21.6018H153.783V24.6258C154.679 23.5378 155.815 22.6898 157.191 22.0818C158.599 21.4738 160.087 21.1698 161.655 21.1698ZM190.139 21.1698C192.187 21.1698 193.995 21.5858 195.563 22.4178C197.163 23.2178 198.411 24.2258 199.307 25.4418V21.6018H204.827V48.4818C204.827 50.9138 204.315 53.0738 203.291 54.9618C202.267 56.8818 200.779 58.3858 198.827 59.4738C196.907 60.5618 194.603 61.1058 191.915 61.1058C188.331 61.1058 185.355 60.2578 182.987 58.5618C180.619 56.8978 179.275 54.6258 178.955 51.7458H184.379C184.795 53.1218 185.675 54.2258 187.019 55.0578C188.395 55.9218 190.027 56.3538 191.915 56.3538C194.123 56.3538 195.899 55.6818 197.243 54.3378C198.619 52.9938 199.307 51.0418 199.307 48.4818V44.0658C198.379 45.3138 197.115 46.3698 195.515 47.2338C193.947 48.0658 192.155 48.4818 190.139 48.4818C187.835 48.4818 185.723 47.9058 183.803 46.7538C181.915 45.5698 180.411 43.9378 179.291 41.8578C178.203 39.7458 177.659 37.3618 177.659 34.7058C177.659 32.0498 178.203 29.6978 179.291 27.6498C180.411 25.6018 181.915 24.0178 183.803 22.8978C185.723 21.7458 187.835 21.1698 190.139 21.1698ZM199.307 34.8018C199.307 32.9778 198.923 31.3938 198.155 30.0498C197.419 28.7058 196.443 27.6818 195.227 26.9778C194.011 26.2738 192.699 25.9218 191.291 25.9218C189.883 25.9218 188.571 26.2738 187.355 26.9778C186.139 27.6498 185.147 28.6578 184.379 30.0018C183.643 31.3138 183.275 32.8818 183.275 34.7058C183.275 36.5298 183.643 38.1298 184.379 39.5058C185.147 40.8818 186.139 41.9378 187.355 42.6738C188.603 43.3778 189.915 43.7298 191.291 43.7298C192.699 43.7298 194.011 43.3778 195.227 42.6738C196.443 41.9698 197.419 40.9458 198.155 39.6018C198.923 38.2258 199.307 36.6258 199.307 34.8018ZM534.561 41.4738L528.753 54.7218H525.201L528.609 41.4738H534.561ZM561.411 48.4818C559.331 48.4818 557.459 48.1138 555.795 47.3778C554.163 46.6098 552.867 45.5858 551.907 44.3058C550.947 42.9938 550.435 41.5378 550.371 39.9378H556.035C556.131 41.0578 556.659 42.0018 557.619 42.7698C558.611 43.5058 559.843 43.8738 561.315 43.8738C562.851 43.8738 564.035 43.5858 564.867 43.0098C565.731 42.4018 566.163 41.6338 566.163 40.7058C566.163 39.7138 565.683 38.9778 564.723 38.4978C563.795 38.0178 562.307 37.4898 560.259 36.9138C558.275 36.3698 556.659 35.8418 555.411 35.3298C554.163 34.8178 553.075 34.0338 552.147 32.9778C551.251 31.9218 550.803 30.5298 550.803 28.8018C550.803 27.3938 551.219 26.1138 552.051 24.9618C552.883 23.7778 554.067 22.8498 555.603 22.1778C557.171 21.5058 558.963 21.1698 560.979 21.1698C563.987 21.1698 566.403 21.9378 568.227 23.4738C570.083 24.9778 571.075 27.0418 571.203 29.6658H565.731C565.635 28.4818 565.155 27.5378 564.291 26.8338C563.427 26.1298 562.259 25.7778 560.787 25.7778C559.347 25.7778 558.243 26.0498 557.475 26.5938C556.707 27.1378 556.323 27.8578 556.323 28.7538C556.323 29.4578 556.579 30.0498 557.091 30.5298C557.603 31.0098 558.227 31.3938 558.963 31.6818C559.699 31.9378 560.787 32.2738 562.227 32.6898C564.147 33.2018 565.715 33.7298 566.931 34.2738C568.179 34.7858 569.251 35.5538 570.147 36.5778C571.043 37.6018 571.507 38.9618 571.539 40.6578C571.539 42.1618 571.123 43.5058 570.291 44.6898C569.459 45.8738 568.275 46.8018 566.739 47.4738C565.235 48.1458 563.459 48.4818 561.411 48.4818ZM590.795 21.1698C592.875 21.1698 594.731 21.6018 596.363 22.4658C598.027 23.3298 599.323 24.6098 600.251 26.3058C601.179 28.0018 601.643 30.0498 601.643 32.4498V48.0498H596.219V33.2658C596.219 30.8978 595.627 29.0898 594.443 27.8418C593.259 26.5618 591.643 25.9218 589.595 25.9218C587.547 25.9218 585.915 26.5618 584.699 27.8418C583.515 29.0898 582.923 30.8978 582.923 33.2658V48.0498H577.451V21.6018H582.923V24.6258C583.819 23.5378 584.955 22.6898 586.331 22.0818C587.739 21.4738 589.227 21.1698 590.795 21.1698ZM606.799 34.7058C606.799 32.0498 607.343 29.6978 608.431 27.6498C609.551 25.6018 611.055 24.0178 612.943 22.8978C614.863 21.7458 616.975 21.1698 619.279 21.1698C621.359 21.1698 623.167 21.5858 624.703 22.4178C626.271 23.2178 627.519 24.2258 628.447 25.4418V21.6018H633.967V48.0498H628.447V44.1138C627.519 45.3618 626.255 46.4018 624.655 47.2338C623.055 48.0658 621.231 48.4818 619.183 48.4818C616.911 48.4818 614.831 47.9058 612.943 46.7538C611.055 45.5698 609.551 43.9378 608.431 41.8578C607.343 39.7458 606.799 37.3618 606.799 34.7058ZM628.447 34.8018C628.447 32.9778 628.063 31.3938 627.295 30.0498C626.559 28.7058 625.583 27.6818 624.367 26.9778C623.151 26.2738 621.839 25.9218 620.431 25.9218C619.023 25.9218 617.711 26.2738 616.495 26.9778C615.279 27.6498 614.287 28.6578 613.519 30.0018C612.783 31.3138 612.415 32.8818 612.415 34.7058C612.415 36.5298 612.783 38.1298 613.519 39.5058C614.287 40.8818 615.279 41.9378 616.495 42.6738C617.743 43.3778 619.055 43.7298 620.431 43.7298C621.839 43.7298 623.151 43.3778 624.367 42.6738C625.583 41.9698 626.559 40.9458 627.295 39.6018C628.063 38.2258 628.447 36.6258 628.447 34.8018ZM639.331 34.8018C639.331 32.0818 639.875 29.6978 640.963 27.6498C642.083 25.5698 643.619 23.9698 645.571 22.8498C647.523 21.7298 649.763 21.1698 652.291 21.1698C655.491 21.1698 658.131 21.9378 660.211 23.4738C662.323 24.9778 663.747 27.1378 664.483 29.9538H658.579C658.099 28.6418 657.331 27.6178 656.275 26.8818C655.219 26.1458 653.891 25.7778 652.291 25.7778C650.051 25.7778 648.259 26.5778 646.915 28.1778C645.603 29.7458 644.947 31.9538 644.947 34.8018C644.947 37.6498 645.603 39.8738 646.915 41.4738C648.259 43.0738 650.051 43.8738 652.291 43.8738C655.459 43.8738 657.555 42.4818 658.579 39.6978H664.483C663.715 42.3858 662.275 44.5298 660.163 46.1298C658.051 47.6978 655.427 48.4818 652.291 48.4818C649.763 48.4818 647.523 47.9218 645.571 46.8018C643.619 45.6498 642.083 44.0498 640.963 42.0018C639.875 39.9218 639.331 37.5218 639.331 34.8018ZM680.4 34.8498L692.592 48.0498H685.2L675.408 36.6738V48.0498H669.936V12.5298H675.408V33.1698L685.008 21.6018H692.592L680.4 34.8498ZM699.298 18.0978C698.306 18.0978 697.474 17.7618 696.802 17.0898C696.13 16.4178 695.794 15.5858 695.794 14.5938C695.794 13.6018 696.13 12.7698 696.802 12.0978C697.474 11.4258 698.306 11.0898 699.298 11.0898C700.258 11.0898 701.074 11.4258 701.746 12.0978C702.418 12.7698 702.754 13.6018 702.754 14.5938C702.754 15.5858 702.418 16.4178 701.746 17.0898C701.074 17.7618 700.258 18.0978 699.298 18.0978ZM701.986 21.6018V48.0498H696.514V21.6018H701.986ZM722.514 21.1698C724.594 21.1698 726.45 21.6018 728.082 22.4658C729.746 23.3298 731.042 24.6098 731.97 26.3058C732.898 28.0018 733.362 30.0498 733.362 32.4498V48.0498H727.938V33.2658C727.938 30.8978 727.346 29.0898 726.162 27.8418C724.978 26.5618 723.362 25.9218 721.314 25.9218C719.266 25.9218 717.634 26.5618 716.418 27.8418C715.234 29.0898 714.642 30.8978 714.642 33.2658V48.0498H709.17V21.6018H714.642V24.6258C715.538 23.5378 716.674 22.6898 718.05 22.0818C719.458 21.4738 720.946 21.1698 722.514 21.1698ZM750.998 21.1698C753.046 21.1698 754.854 21.5858 756.422 22.4178C758.022 23.2178 759.27 24.2258 760.166 25.4418V21.6018H765.686V48.4818C765.686 50.9138 765.174 53.0738 764.15 54.9618C763.126 56.8818 761.638 58.3858 759.686 59.4738C757.766 60.5618 755.462 61.1058 752.774 61.1058C749.19 61.1058 746.214 60.2578 743.846 58.5618C741.478 56.8978 740.134 54.6258 739.814 51.7458H745.238C745.654 53.1218 746.534 54.2258 747.878 55.0578C749.254 55.9218 750.886 56.3538 752.774 56.3538C754.982 56.3538 756.758 55.6818 758.102 54.3378C759.478 52.9938 760.166 51.0418 760.166 48.4818V44.0658C759.238 45.3138 757.974 46.3698 756.374 47.2338C754.806 48.0658 753.014 48.4818 750.998 48.4818C748.694 48.4818 746.582 47.9058 744.662 46.7538C742.774 45.5698 741.27 43.9378 740.15 41.8578C739.062 39.7458 738.518 37.3618 738.518 34.7058C738.518 32.0498 739.062 29.6978 740.15 27.6498C741.27 25.6018 742.774 24.0178 744.662 22.8978C746.582 21.7458 748.694 21.1698 750.998 21.1698ZM760.166 34.8018C760.166 32.9778 759.782 31.3938 759.014 30.0498C758.278 28.7058 757.302 27.6818 756.086 26.9778C754.87 26.2738 753.558 25.9218 752.15 25.9218C750.742 25.9218 749.43 26.2738 748.214 26.9778C746.998 27.6498 746.006 28.6578 745.238 30.0018C744.502 31.3138 744.134 32.8818 744.134 34.7058C744.134 36.5298 744.502 38.1298 745.238 39.5058C746.006 40.8818 746.998 41.9378 748.214 42.6738C749.462 43.3778 750.774 43.7298 752.15 43.7298C753.558 43.7298 754.87 43.3778 756.086 42.6738C757.302 41.9698 758.278 40.9458 759.014 39.6018C759.782 38.2258 760.166 36.6258 760.166 34.8018ZM796.814 48.4818C794.318 48.4818 792.062 47.9218 790.046 46.8018C788.03 45.6498 786.446 44.0498 785.294 42.0018C784.142 39.9218 783.566 37.5218 783.566 34.8018C783.566 32.1138 784.158 29.7298 785.342 27.6498C786.526 25.5698 788.142 23.9698 790.19 22.8498C792.238 21.7298 794.526 21.1698 797.054 21.1698C799.582 21.1698 801.87 21.7298 803.918 22.8498C805.966 23.9698 807.582 25.5698 808.766 27.6498C809.95 29.7298 810.542 32.1138 810.542 34.8018C810.542 37.4898 809.934 39.8738 808.718 41.9538C807.502 44.0338 805.838 45.6498 803.726 46.8018C801.646 47.9218 799.342 48.4818 796.814 48.4818ZM796.814 43.7298C798.222 43.7298 799.534 43.3938 800.75 42.7218C801.998 42.0498 803.006 41.0418 803.774 39.6978C804.542 38.3538 804.926 36.7218 804.926 34.8018C804.926 32.8818 804.558 31.2658 803.822 29.9538C803.086 28.6098 802.11 27.6018 800.894 26.9298C799.678 26.2578 798.366 25.9218 796.958 25.9218C795.55 25.9218 794.238 26.2578 793.022 26.9298C791.838 27.6018 790.894 28.6098 790.19 29.9538C789.486 31.2658 789.134 32.8818 789.134 34.8018C789.134 37.6498 789.854 39.8578 791.294 41.4258C792.766 42.9618 794.606 43.7298 796.814 43.7298ZM829.295 21.1698C831.375 21.1698 833.231 21.6018 834.863 22.4658C836.527 23.3298 837.823 24.6098 838.751 26.3058C839.679 28.0018 840.143 30.0498 840.143 32.4498V48.0498H834.719V33.2658C834.719 30.8978 834.127 29.0898 832.943 27.8418C831.759 26.5618 830.143 25.9218 828.095 25.9218C826.047 25.9218 824.415 26.5618 823.199 27.8418C822.015 29.0898 821.423 30.8978 821.423 33.2658V48.0498H815.951V21.6018H821.423V24.6258C822.319 23.5378 823.455 22.6898 824.831 22.0818C826.239 21.4738 827.727 21.1698 829.295 21.1698ZM865.064 25.4898C865.992 24.2738 867.256 23.2498 868.856 22.4178C870.456 21.5858 872.264 21.1698 874.28 21.1698C876.584 21.1698 878.68 21.7458 880.568 22.8978C882.488 24.0178 883.992 25.6018 885.08 27.6498C886.168 29.6978 886.712 32.0498 886.712 34.7058C886.712 37.3618 886.168 39.7458 885.08 41.8578C883.992 43.9378 882.488 45.5698 880.568 46.7538C878.68 47.9058 876.584 48.4818 874.28 48.4818C872.264 48.4818 870.472 48.0818 868.904 47.2818C867.336 46.4498 866.056 45.4258 865.064 44.2098V60.6258H859.592V21.6018H865.064V25.4898ZM881.144 34.7058C881.144 32.8818 880.76 31.3138 879.992 30.0018C879.256 28.6578 878.264 27.6498 877.016 26.9778C875.8 26.2738 874.488 25.9218 873.08 25.9218C871.704 25.9218 870.392 26.2738 869.144 26.9778C867.928 27.6818 866.936 28.7058 866.168 30.0498C865.432 31.3938 865.064 32.9778 865.064 34.8018C865.064 36.6258 865.432 38.2258 866.168 39.6018C866.936 40.9458 867.928 41.9698 869.144 42.6738C870.392 43.3778 871.704 43.7298 873.08 43.7298C874.488 43.7298 875.8 43.3778 877.016 42.6738C878.264 41.9378 879.256 40.8818 879.992 39.5058C880.76 38.1298 881.144 36.5298 881.144 34.7058ZM897.595 25.4418C898.395 24.0978 899.451 23.0578 900.763 22.3218C902.107 21.5538 903.691 21.1698 905.515 21.1698V26.8338H904.123C901.979 26.8338 900.347 27.3778 899.227 28.4658C898.139 29.5538 897.595 31.4418 897.595 34.1298V48.0498H892.123V21.6018H897.595V25.4418ZM922.017 48.4818C919.521 48.4818 917.265 47.9218 915.249 46.8018C913.233 45.6498 911.649 44.0498 910.497 42.0018C909.345 39.9218 908.769 37.5218 908.769 34.8018C908.769 32.1138 909.361 29.7298 910.545 27.6498C911.729 25.5698 913.345 23.9698 915.393 22.8498C917.441 21.7298 919.729 21.1698 922.257 21.1698C924.785 21.1698 927.073 21.7298 929.121 22.8498C931.169 23.9698 932.785 25.5698 933.969 27.6498C935.153 29.7298 935.745 32.1138 935.745 34.8018C935.745 37.4898 935.137 39.8738 933.921 41.9538C932.705 44.0338 931.041 45.6498 928.929 46.8018C926.849 47.9218 924.545 48.4818 922.017 48.4818ZM922.017 43.7298C923.425 43.7298 924.737 43.3938 925.953 42.7218C927.201 42.0498 928.209 41.0418 928.977 39.6978C929.745 38.3538 930.129 36.7218 930.129 34.8018C930.129 32.8818 929.761 31.2658 929.025 29.9538C928.289 28.6098 927.313 27.6018 926.097 26.9298C924.881 26.2578 923.569 25.9218 922.161 25.9218C920.753 25.9218 919.441 26.2578 918.225 26.9298C917.041 27.6018 916.097 28.6098 915.393 29.9538C914.689 31.2658 914.337 32.8818 914.337 34.8018C914.337 37.6498 915.057 39.8578 916.497 41.4258C917.969 42.9618 919.809 43.7298 922.017 43.7298ZM946.627 25.5378C947.555 24.2578 948.819 23.2178 950.419 22.4178C952.051 21.5858 953.859 21.1698 955.843 21.1698C958.179 21.1698 960.291 21.7298 962.179 22.8498C964.067 23.9698 965.555 25.5698 966.643 27.6498C967.731 29.6978 968.275 32.0498 968.275 34.7058C968.275 37.3618 967.731 39.7458 966.643 41.8578C965.555 43.9378 964.051 45.5698 962.131 46.7538C960.243 47.9058 958.147 48.4818 955.843 48.4818C953.795 48.4818 951.971 48.0818 950.371 47.2818C948.803 46.4818 947.555 45.4578 946.627 44.2098V48.0498H941.155V12.5298H946.627V25.5378ZM962.707 34.7058C962.707 32.8818 962.323 31.3138 961.555 30.0018C960.819 28.6578 959.827 27.6498 958.579 26.9778C957.363 26.2738 956.051 25.9218 954.643 25.9218C953.267 25.9218 951.955 26.2738 950.707 26.9778C949.491 27.6818 948.499 28.7058 947.731 30.0498C946.995 31.3938 946.627 32.9778 946.627 34.8018C946.627 36.6258 946.995 38.2258 947.731 39.6018C948.499 40.9458 949.491 41.9698 950.707 42.6738C951.955 43.3778 953.267 43.7298 954.643 43.7298C956.051 43.7298 957.363 43.3778 958.579 42.6738C959.827 41.9378 960.819 40.8818 961.555 39.5058C962.323 38.1298 962.707 36.5298 962.707 34.7058ZM979.158 12.5298V48.0498H973.686V12.5298H979.158ZM1010.58 34.1778C1010.58 35.1698 1010.52 36.0658 1010.39 36.8658H990.182C990.342 38.9778 991.126 40.6738 992.534 41.9538C993.942 43.2338 995.67 43.8738 997.718 43.8738C1000.66 43.8738 1002.74 42.6418 1003.96 40.1778H1009.86C1009.06 42.6098 1007.61 44.6098 1005.49 46.1778C1003.41 47.7138 1000.82 48.4818 997.718 48.4818C995.19 48.4818 992.918 47.9218 990.902 46.8018C988.918 45.6498 987.35 44.0498 986.198 42.0018C985.078 39.9218 984.518 37.5218 984.518 34.8018C984.518 32.0818 985.062 29.6978 986.15 27.6498C987.27 25.5698 988.822 23.9698 990.806 22.8498C992.822 21.7298 995.126 21.1698 997.718 21.1698C1000.21 21.1698 1002.44 21.7138 1004.39 22.8018C1006.34 23.8898 1007.86 25.4258 1008.95 27.4098C1010.04 29.3618 1010.58 31.6178 1010.58 34.1778ZM1004.87 32.4498C1004.84 30.4338 1004.12 28.8178 1002.71 27.6018C1001.3 26.3858 999.558 25.7778 997.478 25.7778C995.59 25.7778 993.974 26.3858 992.63 27.6018C991.286 28.7858 990.486 30.4018 990.23 32.4498H1004.87ZM1047.98 21.1698C1050.06 21.1698 1051.92 21.6018 1053.55 22.4658C1055.22 23.3298 1056.51 24.6098 1057.44 26.3058C1058.4 28.0018 1058.88 30.0498 1058.88 32.4498V48.0498H1053.46V33.2658C1053.46 30.8978 1052.86 29.0898 1051.68 27.8418C1050.5 26.5618 1048.88 25.9218 1046.83 25.9218C1044.78 25.9218 1043.15 26.5618 1041.94 27.8418C1040.75 29.0898 1040.16 30.8978 1040.16 33.2658V48.0498H1034.74V33.2658C1034.74 30.8978 1034.14 29.0898 1032.96 27.8418C1031.78 26.5618 1030.16 25.9218 1028.11 25.9218C1026.06 25.9218 1024.43 26.5618 1023.22 27.8418C1022.03 29.0898 1021.44 30.8978 1021.44 33.2658V48.0498H1015.97V21.6018H1021.44V24.6258C1022.34 23.5378 1023.47 22.6898 1024.85 22.0818C1026.22 21.4738 1027.7 21.1698 1029.26 21.1698C1031.38 21.1698 1033.26 21.6178 1034.93 22.5138C1036.59 23.4098 1037.87 24.7058 1038.77 26.4018C1039.57 24.8018 1040.82 23.5378 1042.51 22.6098C1044.21 21.6498 1046.03 21.1698 1047.98 21.1698ZM1075.44 48.4818C1073.36 48.4818 1071.49 48.1138 1069.83 47.3778C1068.19 46.6098 1066.9 45.5858 1065.94 44.3058C1064.98 42.9938 1064.47 41.5378 1064.4 39.9378H1070.07C1070.16 41.0578 1070.69 42.0018 1071.65 42.7698C1072.64 43.5058 1073.87 43.8738 1075.35 43.8738C1076.88 43.8738 1078.07 43.5858 1078.9 43.0098C1079.76 42.4018 1080.19 41.6338 1080.19 40.7058C1080.19 39.7138 1079.71 38.9778 1078.75 38.4978C1077.83 38.0178 1076.34 37.4898 1074.29 36.9138C1072.31 36.3698 1070.69 35.8418 1069.44 35.3298C1068.19 34.8178 1067.11 34.0338 1066.18 32.9778C1065.28 31.9218 1064.83 30.5298 1064.83 28.8018C1064.83 27.3938 1065.25 26.1138 1066.08 24.9618C1066.91 23.7778 1068.1 22.8498 1069.63 22.1778C1071.2 21.5058 1072.99 21.1698 1075.01 21.1698C1078.02 21.1698 1080.43 21.9378 1082.26 23.4738C1084.11 24.9778 1085.11 27.0418 1085.23 29.6658H1079.76C1079.67 28.4818 1079.19 27.5378 1078.32 26.8338C1077.46 26.1298 1076.29 25.7778 1074.82 25.7778C1073.38 25.7778 1072.27 26.0498 1071.51 26.5938C1070.74 27.1378 1070.35 27.8578 1070.35 28.7538C1070.35 29.4578 1070.61 30.0498 1071.12 30.5298C1071.63 31.0098 1072.26 31.3938 1072.99 31.6818C1073.73 31.9378 1074.82 32.2738 1076.26 32.6898C1078.18 33.2018 1079.75 33.7298 1080.96 34.2738C1082.21 34.7858 1083.28 35.5538 1084.18 36.5778C1085.07 37.6018 1085.54 38.9618 1085.57 40.6578C1085.57 42.1618 1085.15 43.5058 1084.32 44.6898C1083.49 45.8738 1082.31 46.8018 1080.77 47.4738C1079.27 48.1458 1077.49 48.4818 1075.44 48.4818ZM1097.48 41.4738L1091.67 54.7218H1088.12L1091.53 41.4738H1097.48ZM153.893 106.706C153.893 104.05 154.437 101.698 155.525 99.6498C156.645 97.6018 158.149 96.0178 160.037 94.8978C161.957 93.7458 164.069 93.1698 166.373 93.1698C168.453 93.1698 170.261 93.5858 171.797 94.4178C173.365 95.2178 174.613 96.2258 175.541 97.4418V93.6018H181.061V120.05H175.541V116.114C174.613 117.362 173.349 118.402 171.749 119.234C170.149 120.066 168.325 120.482 166.277 120.482C164.005 120.482 161.925 119.906 160.037 118.754C158.149 117.57 156.645 115.938 155.525 113.858C154.437 111.746 153.893 109.362 153.893 106.706ZM175.541 106.802C175.541 104.978 175.157 103.394 174.389 102.05C173.653 100.706 172.677 99.6818 171.461 98.9778C170.245 98.2738 168.933 97.9218 167.525 97.9218C166.117 97.9218 164.805 98.2738 163.589 98.9778C162.373 99.6498 161.381 100.658 160.613 102.002C159.877 103.314 159.509 104.882 159.509 106.706C159.509 108.53 159.877 110.13 160.613 111.506C161.381 112.882 162.373 113.938 163.589 114.674C164.837 115.378 166.149 115.73 167.525 115.73C168.933 115.73 170.245 115.378 171.461 114.674C172.677 113.97 173.653 112.946 174.389 111.602C175.157 110.226 175.541 108.626 175.541 106.802ZM201.592 93.1698C203.672 93.1698 205.528 93.6018 207.16 94.4658C208.824 95.3298 210.12 96.6098 211.048 98.3058C211.976 100.002 212.44 102.05 212.44 104.45V120.05H207.016V105.266C207.016 102.898 206.424 101.09 205.24 99.8418C204.056 98.5618 202.44 97.9218 200.392 97.9218C198.344 97.9218 196.712 98.5618 195.496 99.8418C194.312 101.09 193.72 102.898 193.72 105.266V120.05H188.248V93.6018H193.72V96.6258C194.616 95.5378 195.752 94.6898 197.128 94.0818C198.536 93.4738 200.024 93.1698 201.592 93.1698ZM217.596 106.706C217.596 104.05 218.14 101.698 219.228 99.6498C220.348 97.6018 221.852 96.0178 223.74 94.8978C225.66 93.7458 227.788 93.1698 230.124 93.1698C231.852 93.1698 233.548 93.5538 235.212 94.3218C236.908 95.0578 238.252 96.0498 239.244 97.2978V84.5298H244.764V120.05H239.244V116.066C238.348 117.346 237.1 118.402 235.5 119.234C233.932 120.066 232.124 120.482 230.076 120.482C227.772 120.482 225.66 119.906 223.74 118.754C221.852 117.57 220.348 115.938 219.228 113.858C218.14 111.746 217.596 109.362 217.596 106.706ZM239.244 106.802C239.244 104.978 238.86 103.394 238.092 102.05C237.356 100.706 236.38 99.6818 235.164 98.9778C233.948 98.2738 232.636 97.9218 231.228 97.9218C229.82 97.9218 228.508 98.2738 227.292 98.9778C226.076 99.6498 225.084 100.658 224.316 102.002C223.58 103.314 223.212 104.882 223.212 106.706C223.212 108.53 223.58 110.13 224.316 111.506C225.084 112.882 226.076 113.938 227.292 114.674C228.54 115.378 229.852 115.73 231.228 115.73C232.636 115.73 233.948 115.378 235.164 114.674C236.38 113.97 237.356 112.946 238.092 111.602C238.86 110.226 239.244 108.626 239.244 106.802ZM274.884 106.85L287.076 120.05H279.684L269.892 108.674V120.05H264.42V84.5298H269.892V105.17L279.492 93.6018H287.076L274.884 106.85ZM315.238 106.178C315.238 107.17 315.174 108.066 315.046 108.866H294.838C294.998 110.978 295.782 112.674 297.19 113.954C298.598 115.234 300.326 115.874 302.374 115.874C305.318 115.874 307.398 114.642 308.614 112.178H314.518C313.718 114.61 312.262 116.61 310.15 118.178C308.07 119.714 305.478 120.482 302.374 120.482C299.846 120.482 297.574 119.922 295.558 118.802C293.574 117.65 292.006 116.05 290.854 114.002C289.734 111.922 289.174 109.522 289.174 106.802C289.174 104.082 289.718 101.698 290.806 99.6498C291.926 97.5698 293.478 95.9698 295.462 94.8498C297.478 93.7298 299.782 93.1698 302.374 93.1698C304.87 93.1698 307.094 93.7138 309.046 94.8018C310.998 95.8898 312.518 97.4258 313.606 99.4098C314.694 101.362 315.238 103.618 315.238 106.178ZM309.526 104.45C309.494 102.434 308.774 100.818 307.366 99.6018C305.958 98.3858 304.214 97.7778 302.134 97.7778C300.246 97.7778 298.63 98.3858 297.286 99.6018C295.942 100.786 295.142 102.402 294.886 104.45H309.526ZM344.863 106.178C344.863 107.17 344.799 108.066 344.671 108.866H324.463C324.623 110.978 325.407 112.674 326.815 113.954C328.223 115.234 329.951 115.874 331.999 115.874C334.943 115.874 337.023 114.642 338.239 112.178H344.143C343.343 114.61 341.887 116.61 339.775 118.178C337.695 119.714 335.103 120.482 331.999 120.482C329.471 120.482 327.199 119.922 325.183 118.802C323.199 117.65 321.631 116.05 320.479 114.002C319.359 111.922 318.799 109.522 318.799 106.802C318.799 104.082 319.343 101.698 320.431 99.6498C321.551 97.5698 323.103 95.9698 325.087 94.8498C327.103 93.7298 329.407 93.1698 331.999 93.1698C334.495 93.1698 336.719 93.7138 338.671 94.8018C340.623 95.8898 342.143 97.4258 343.231 99.4098C344.319 101.362 344.863 103.618 344.863 106.178ZM339.151 104.45C339.119 102.434 338.399 100.818 336.991 99.6018C335.583 98.3858 333.839 97.7778 331.759 97.7778C329.871 97.7778 328.255 98.3858 326.911 99.6018C325.567 100.786 324.767 102.402 324.511 104.45H339.151ZM355.72 97.4898C356.648 96.2738 357.912 95.2498 359.512 94.4178C361.112 93.5858 362.92 93.1698 364.936 93.1698C367.24 93.1698 369.336 93.7458 371.224 94.8978C373.144 96.0178 374.648 97.6018 375.736 99.6498C376.824 101.698 377.368 104.05 377.368 106.706C377.368 109.362 376.824 111.746 375.736 113.858C374.648 115.938 373.144 117.57 371.224 118.754C369.336 119.906 367.24 120.482 364.936 120.482C362.92 120.482 361.128 120.082 359.56 119.282C357.992 118.45 356.712 117.426 355.72 116.21V132.626H350.248V93.6018H355.72V97.4898ZM371.8 106.706C371.8 104.882 371.416 103.314 370.648 102.002C369.912 100.658 368.92 99.6498 367.672 98.9778C366.456 98.2738 365.144 97.9218 363.736 97.9218C362.36 97.9218 361.048 98.2738 359.8 98.9778C358.584 99.6818 357.592 100.706 356.824 102.05C356.088 103.394 355.72 104.978 355.72 106.802C355.72 108.626 356.088 110.226 356.824 111.602C357.592 112.946 358.584 113.97 359.8 114.674C361.048 115.378 362.36 115.73 363.736 115.73C365.144 115.73 366.456 115.378 367.672 114.674C368.92 113.938 369.912 112.882 370.648 111.506C371.416 110.13 371.8 108.53 371.8 106.706ZM385.564 90.0978C384.572 90.0978 383.74 89.7618 383.068 89.0898C382.396 88.4178 382.06 87.5858 382.06 86.5938C382.06 85.6018 382.396 84.7698 383.068 84.0978C383.74 83.4258 384.572 83.0898 385.564 83.0898C386.524 83.0898 387.34 83.4258 388.012 84.0978C388.684 84.7698 389.02 85.6018 389.02 86.5938C389.02 87.5858 388.684 88.4178 388.012 89.0898C387.34 89.7618 386.524 90.0978 385.564 90.0978ZM388.252 93.6018V120.05H382.78V93.6018H388.252ZM408.78 93.1698C410.86 93.1698 412.716 93.6018 414.348 94.4658C416.012 95.3298 417.308 96.6098 418.236 98.3058C419.164 100.002 419.628 102.05 419.628 104.45V120.05H414.204V105.266C414.204 102.898 413.612 101.09 412.428 99.8418C411.244 98.5618 409.628 97.9218 407.58 97.9218C405.532 97.9218 403.9 98.5618 402.684 99.8418C401.5 101.09 400.908 102.898 400.908 105.266V120.05H395.436V93.6018H400.908V96.6258C401.804 95.5378 402.94 94.6898 404.316 94.0818C405.724 93.4738 407.212 93.1698 408.78 93.1698ZM437.264 93.1698C439.312 93.1698 441.12 93.5858 442.688 94.4178C444.288 95.2178 445.536 96.2258 446.432 97.4418V93.6018H451.952V120.482C451.952 122.914 451.44 125.074 450.416 126.962C449.392 128.882 447.904 130.386 445.952 131.474C444.032 132.562 441.728 133.106 439.04 133.106C435.456 133.106 432.48 132.258 430.112 130.562C427.744 128.898 426.4 126.626 426.08 123.746H431.504C431.92 125.122 432.8 126.226 434.144 127.058C435.52 127.922 437.152 128.354 439.04 128.354C441.248 128.354 443.024 127.682 444.368 126.338C445.744 124.994 446.432 123.042 446.432 120.482V116.066C445.504 117.314 444.24 118.37 442.64 119.234C441.072 120.066 439.28 120.482 437.264 120.482C434.96 120.482 432.848 119.906 430.928 118.754C429.04 117.57 427.536 115.938 426.416 113.858C425.328 111.746 424.784 109.362 424.784 106.706C424.784 104.05 425.328 101.698 426.416 99.6498C427.536 97.6018 429.04 96.0178 430.928 94.8978C432.848 93.7458 434.96 93.1698 437.264 93.1698ZM446.432 106.802C446.432 104.978 446.048 103.394 445.28 102.05C444.544 100.706 443.568 99.6818 442.352 98.9778C441.136 98.2738 439.824 97.9218 438.416 97.9218C437.008 97.9218 435.696 98.2738 434.48 98.9778C433.264 99.6498 432.272 100.658 431.504 102.002C430.768 103.314 430.4 104.882 430.4 106.706C430.4 108.53 430.768 110.13 431.504 111.506C432.272 112.882 433.264 113.938 434.48 114.674C435.728 115.378 437.04 115.73 438.416 115.73C439.824 115.73 441.136 115.378 442.352 114.674C443.568 113.97 444.544 112.946 445.28 111.602C446.048 110.226 446.432 108.626 446.432 106.802ZM483.08 120.482C480.584 120.482 478.328 119.922 476.312 118.802C474.296 117.65 472.712 116.05 471.56 114.002C470.408 111.922 469.832 109.522 469.832 106.802C469.832 104.114 470.424 101.73 471.608 99.6498C472.792 97.5698 474.408 95.9698 476.456 94.8498C478.504 93.7298 480.792 93.1698 483.32 93.1698C485.848 93.1698 488.136 93.7298 490.184 94.8498C492.232 95.9698 493.848 97.5698 495.032 99.6498C496.216 101.73 496.808 104.114 496.808 106.802C496.808 109.49 496.2 111.874 494.984 113.954C493.768 116.034 492.104 117.65 489.992 118.802C487.912 119.922 485.608 120.482 483.08 120.482ZM483.08 115.73C484.488 115.73 485.8 115.394 487.016 114.722C488.264 114.05 489.272 113.042 490.04 111.698C490.808 110.354 491.192 108.722 491.192 106.802C491.192 104.882 490.824 103.266 490.088 101.954C489.352 100.61 488.376 99.6018 487.16 98.9298C485.944 98.2578 484.632 97.9218 483.224 97.9218C481.816 97.9218 480.504 98.2578 479.288 98.9298C478.104 99.6018 477.16 100.61 476.456 101.954C475.752 103.266 475.4 104.882 475.4 106.802C475.4 109.65 476.12 111.858 477.56 113.426C479.032 114.962 480.872 115.73 483.08 115.73ZM526.169 93.6018V120.05H520.697V116.93C519.833 118.018 518.697 118.882 517.289 119.522C515.913 120.13 514.441 120.434 512.873 120.434C510.793 120.434 508.921 120.002 507.257 119.138C505.625 118.274 504.329 116.994 503.369 115.298C502.441 113.602 501.977 111.554 501.977 109.154V93.6018H507.401V108.338C507.401 110.706 507.993 112.53 509.177 113.81C510.361 115.058 511.977 115.682 514.025 115.682C516.073 115.682 517.689 115.058 518.873 113.81C520.089 112.53 520.697 110.706 520.697 108.338V93.6018H526.169ZM538.861 97.4418C539.661 96.0978 540.717 95.0578 542.029 94.3218C543.373 93.5538 544.957 93.1698 546.781 93.1698V98.8338H545.389C543.245 98.8338 541.613 99.3778 540.493 100.466C539.405 101.554 538.861 103.442 538.861 106.13V120.05H533.389V93.6018H538.861V97.4418ZM569.752 97.5378C570.68 96.2578 571.944 95.2178 573.544 94.4178C575.176 93.5858 576.984 93.1698 578.968 93.1698C581.304 93.1698 583.416 93.7298 585.304 94.8498C587.192 95.9698 588.68 97.5698 589.768 99.6498C590.856 101.698 591.4 104.05 591.4 106.706C591.4 109.362 590.856 111.746 589.768 113.858C588.68 115.938 587.176 117.57 585.256 118.754C583.368 119.906 581.272 120.482 578.968 120.482C576.92 120.482 575.096 120.082 573.496 119.282C571.928 118.482 570.68 117.458 569.752 116.21V120.05H564.28V84.5298H569.752V97.5378ZM585.832 106.706C585.832 104.882 585.448 103.314 584.68 102.002C583.944 100.658 582.952 99.6498 581.704 98.9778C580.488 98.2738 579.176 97.9218 577.768 97.9218C576.392 97.9218 575.08 98.2738 573.832 98.9778C572.616 99.6818 571.624 100.706 570.856 102.05C570.12 103.394 569.752 104.978 569.752 106.802C569.752 108.626 570.12 110.226 570.856 111.602C571.624 112.946 572.616 113.97 573.832 114.674C575.08 115.378 576.392 115.73 577.768 115.73C579.176 115.73 580.488 115.378 581.704 114.674C582.952 113.938 583.944 112.882 584.68 111.506C585.448 110.13 585.832 108.53 585.832 106.706ZM620.763 93.6018V120.05H615.291V116.93C614.427 118.018 613.291 118.882 611.883 119.522C610.507 120.13 609.035 120.434 607.467 120.434C605.387 120.434 603.515 120.002 601.851 119.138C600.219 118.274 598.923 116.994 597.963 115.298C597.035 113.602 596.571 111.554 596.571 109.154V93.6018H601.995V108.338C601.995 110.706 602.587 112.53 603.771 113.81C604.955 115.058 606.571 115.682 608.619 115.682C610.667 115.682 612.283 115.058 613.467 113.81C614.683 112.53 615.291 110.706 615.291 108.338V93.6018H620.763ZM638.639 93.1698C640.687 93.1698 642.495 93.5858 644.063 94.4178C645.663 95.2178 646.911 96.2258 647.807 97.4418V93.6018H653.327V120.482C653.327 122.914 652.815 125.074 651.791 126.962C650.767 128.882 649.279 130.386 647.327 131.474C645.407 132.562 643.103 133.106 640.415 133.106C636.831 133.106 633.855 132.258 631.487 130.562C629.119 128.898 627.775 126.626 627.455 123.746H632.879C633.295 125.122 634.175 126.226 635.519 127.058C636.895 127.922 638.527 128.354 640.415 128.354C642.623 128.354 644.399 127.682 645.743 126.338C647.119 124.994 647.807 123.042 647.807 120.482V116.066C646.879 117.314 645.615 118.37 644.015 119.234C642.447 120.066 640.655 120.482 638.639 120.482C636.335 120.482 634.223 119.906 632.303 118.754C630.415 117.57 628.911 115.938 627.791 113.858C626.703 111.746 626.159 109.362 626.159 106.706C626.159 104.05 626.703 101.698 627.791 99.6498C628.911 97.6018 630.415 96.0178 632.303 94.8978C634.223 93.7458 636.335 93.1698 638.639 93.1698ZM647.807 106.802C647.807 104.978 647.423 103.394 646.655 102.05C645.919 100.706 644.943 99.6818 643.727 98.9778C642.511 98.2738 641.199 97.9218 639.791 97.9218C638.383 97.9218 637.071 98.2738 635.855 98.9778C634.639 99.6498 633.647 100.658 632.879 102.002C632.143 103.314 631.775 104.882 631.775 106.706C631.775 108.53 632.143 110.13 632.879 111.506C633.647 112.882 634.639 113.938 635.855 114.674C637.103 115.378 638.415 115.73 639.791 115.73C641.199 115.73 642.511 115.378 643.727 114.674C644.943 113.97 645.919 112.946 646.655 111.602C647.423 110.226 647.807 108.626 647.807 106.802ZM670.114 120.482C668.034 120.482 666.162 120.114 664.498 119.378C662.866 118.61 661.57 117.586 660.61 116.306C659.65 114.994 659.138 113.538 659.074 111.938H664.738C664.834 113.058 665.362 114.002 666.322 114.77C667.314 115.506 668.546 115.874 670.018 115.874C671.554 115.874 672.738 115.586 673.57 115.01C674.434 114.402 674.866 113.634 674.866 112.706C674.866 111.714 674.386 110.978 673.426 110.498C672.498 110.018 671.01 109.49 668.962 108.914C666.978 108.37 665.362 107.842 664.114 107.33C662.866 106.818 661.778 106.034 660.85 104.978C659.954 103.922 659.506 102.53 659.506 100.802C659.506 99.3938 659.922 98.1138 660.754 96.9618C661.586 95.7778 662.77 94.8498 664.306 94.1778C665.874 93.5058 667.666 93.1698 669.682 93.1698C672.69 93.1698 675.106 93.9378 676.93 95.4738C678.786 96.9778 679.778 99.0418 679.906 101.666H674.434C674.338 100.482 673.858 99.5378 672.994 98.8338C672.13 98.1298 670.962 97.7778 669.49 97.7778C668.05 97.7778 666.946 98.0498 666.178 98.5938C665.41 99.1378 665.026 99.8578 665.026 100.754C665.026 101.458 665.282 102.05 665.794 102.53C666.306 103.01 666.93 103.394 667.666 103.682C668.402 103.938 669.49 104.274 670.93 104.69C672.85 105.202 674.418 105.73 675.634 106.274C676.882 106.786 677.954 107.554 678.85 108.578C679.746 109.602 680.21 110.962 680.242 112.658C680.242 114.162 679.826 115.506 678.994 116.69C678.162 117.874 676.978 118.802 675.442 119.474C673.938 120.146 672.162 120.482 670.114 120.482ZM704.095 84.5298V120.05H698.623V84.5298H704.095ZM722.752 120.482C720.256 120.482 718 119.922 715.984 118.802C713.968 117.65 712.384 116.05 711.232 114.002C710.08 111.922 709.504 109.522 709.504 106.802C709.504 104.114 710.096 101.73 711.28 99.6498C712.464 97.5698 714.08 95.9698 716.128 94.8498C718.176 93.7298 720.464 93.1698 722.992 93.1698C725.52 93.1698 727.808 93.7298 729.856 94.8498C731.904 95.9698 733.52 97.5698 734.704 99.6498C735.888 101.73 736.48 104.114 736.48 106.802C736.48 109.49 735.872 111.874 734.656 113.954C733.44 116.034 731.776 117.65 729.664 118.802C727.584 119.922 725.28 120.482 722.752 120.482ZM722.752 115.73C724.16 115.73 725.472 115.394 726.688 114.722C727.936 114.05 728.944 113.042 729.712 111.698C730.48 110.354 730.864 108.722 730.864 106.802C730.864 104.882 730.496 103.266 729.76 101.954C729.024 100.61 728.048 99.6018 726.832 98.9298C725.616 98.2578 724.304 97.9218 722.896 97.9218C721.488 97.9218 720.176 98.2578 718.96 98.9298C717.776 99.6018 716.832 100.61 716.128 101.954C715.424 103.266 715.072 104.882 715.072 106.802C715.072 109.65 715.792 111.858 717.232 113.426C718.704 114.962 720.544 115.73 722.752 115.73ZM777.409 93.6018L769.201 120.05H763.441L758.113 100.514L752.785 120.05H747.025L738.769 93.6018H744.337L749.857 114.866L755.473 93.6018H761.185L766.561 114.77L772.033 93.6018H777.409ZM801.802 100.37V104.978H782.074V100.37H801.802ZM807.753 106.802C807.753 104.082 808.297 101.698 809.385 99.6498C810.505 97.5698 812.041 95.9698 813.993 94.8498C815.945 93.7298 818.185 93.1698 820.713 93.1698C823.913 93.1698 826.553 93.9378 828.633 95.4738C830.745 96.9778 832.169 99.1378 832.905 101.954H827.001C826.521 100.642 825.753 99.6178 824.697 98.8818C823.641 98.1458 822.313 97.7778 820.713 97.7778C818.473 97.7778 816.681 98.5778 815.337 100.178C814.025 101.746 813.369 103.954 813.369 106.802C813.369 109.65 814.025 111.874 815.337 113.474C816.681 115.074 818.473 115.874 820.713 115.874C823.881 115.874 825.977 114.482 827.001 111.698H832.905C832.137 114.386 830.697 116.53 828.585 118.13C826.473 119.698 823.849 120.482 820.713 120.482C818.185 120.482 815.945 119.922 813.993 118.802C812.041 117.65 810.505 116.05 809.385 114.002C808.297 111.922 807.753 109.522 807.753 106.802ZM836.534 106.706C836.534 104.05 837.078 101.698 838.166 99.6498C839.286 97.6018 840.79 96.0178 842.678 94.8978C844.598 93.7458 846.71 93.1698 849.014 93.1698C851.094 93.1698 852.902 93.5858 854.438 94.4178C856.006 95.2178 857.254 96.2258 858.182 97.4418V93.6018H863.702V120.05H858.182V116.114C857.254 117.362 855.99 118.402 854.39 119.234C852.79 120.066 850.966 120.482 848.918 120.482C846.646 120.482 844.566 119.906 842.678 118.754C840.79 117.57 839.286 115.938 838.166 113.858C837.078 111.746 836.534 109.362 836.534 106.706ZM858.182 106.802C858.182 104.978 857.798 103.394 857.03 102.05C856.294 100.706 855.318 99.6818 854.102 98.9778C852.886 98.2738 851.574 97.9218 850.166 97.9218C848.758 97.9218 847.446 98.2738 846.23 98.9778C845.014 99.6498 844.022 100.658 843.254 102.002C842.518 103.314 842.15 104.882 842.15 106.706C842.15 108.53 842.518 110.13 843.254 111.506C844.022 112.882 845.014 113.938 846.23 114.674C847.478 115.378 848.79 115.73 850.166 115.73C851.574 115.73 852.886 115.378 854.102 114.674C855.318 113.97 856.294 112.946 857.03 111.602C857.798 110.226 858.182 108.626 858.182 106.802ZM876.361 97.4418C877.161 96.0978 878.217 95.0578 879.529 94.3218C880.873 93.5538 882.457 93.1698 884.281 93.1698V98.8338H882.889C880.745 98.8338 879.113 99.3778 877.993 100.466C876.905 101.554 876.361 103.442 876.361 106.13V120.05H870.889V93.6018H876.361V97.4418ZM894.783 97.5378C895.711 96.2578 896.975 95.2178 898.575 94.4178C900.207 93.5858 902.015 93.1698 903.999 93.1698C906.335 93.1698 908.447 93.7298 910.335 94.8498C912.223 95.9698 913.711 97.5698 914.799 99.6498C915.887 101.698 916.431 104.05 916.431 106.706C916.431 109.362 915.887 111.746 914.799 113.858C913.711 115.938 912.207 117.57 910.287 118.754C908.399 119.906 906.303 120.482 903.999 120.482C901.951 120.482 900.127 120.082 898.527 119.282C896.959 118.482 895.711 117.458 894.783 116.21V120.05H889.311V84.5298H894.783V97.5378ZM910.863 106.706C910.863 104.882 910.479 103.314 909.711 102.002C908.975 100.658 907.983 99.6498 906.735 98.9778C905.519 98.2738 904.207 97.9218 902.799 97.9218C901.423 97.9218 900.111 98.2738 898.863 98.9778C897.647 99.6818 896.655 100.706 895.887 102.05C895.151 103.394 894.783 104.978 894.783 106.802C894.783 108.626 895.151 110.226 895.887 111.602C896.655 112.946 897.647 113.97 898.863 114.674C900.111 115.378 901.423 115.73 902.799 115.73C904.207 115.73 905.519 115.378 906.735 114.674C907.983 113.938 908.975 112.882 909.711 111.506C910.479 110.13 910.863 108.53 910.863 106.706ZM931.442 120.482C929.362 120.482 927.49 120.114 925.826 119.378C924.194 118.61 922.898 117.586 921.938 116.306C920.978 114.994 920.466 113.538 920.402 111.938H926.066C926.162 113.058 926.69 114.002 927.65 114.77C928.642 115.506 929.874 115.874 931.346 115.874C932.882 115.874 934.066 115.586 934.898 115.01C935.762 114.402 936.194 113.634 936.194 112.706C936.194 111.714 935.714 110.978 934.754 110.498C933.826 110.018 932.338 109.49 930.29 108.914C928.306 108.37 926.69 107.842 925.442 107.33C924.194 106.818 923.106 106.034 922.178 104.978C921.282 103.922 920.834 102.53 920.834 100.802C920.834 99.3938 921.25 98.1138 922.082 96.9618C922.914 95.7778 924.098 94.8498 925.634 94.1778C927.202 93.5058 928.994 93.1698 931.01 93.1698C934.018 93.1698 936.434 93.9378 938.258 95.4738C940.114 96.9778 941.106 99.0418 941.234 101.666H935.762C935.666 100.482 935.186 99.5378 934.322 98.8338C933.458 98.1298 932.29 97.7778 930.818 97.7778C929.378 97.7778 928.274 98.0498 927.506 98.5938C926.738 99.1378 926.354 99.8578 926.354 100.754C926.354 101.458 926.61 102.05 927.122 102.53C927.634 103.01 928.258 103.394 928.994 103.682C929.73 103.938 930.818 104.274 932.258 104.69C934.178 105.202 935.746 105.73 936.962 106.274C938.21 106.786 939.282 107.554 940.178 108.578C941.074 109.602 941.538 110.962 941.57 112.658C941.57 114.162 941.154 115.506 940.322 116.69C939.49 117.874 938.306 118.802 936.77 119.474C935.266 120.146 933.49 120.482 931.442 120.482Z" fill="#191919"/>
<path d="M222.171 10.0818C222.171 6.3298 224.299 3.4178 227.547 3.4178C230.179 3.4178 232.307 5.5458 232.307 8.1778C232.307 11.7618 228.387 14.0578 225.419 12.4338C225.643 15.2338 227.771 18.2578 231.411 19.8258L231.075 20.3298C224.691 18.2018 222.171 13.8898 222.171 10.0818ZM261.46 23.1298C267.172 25.5938 272.548 27.6098 272.548 34.6658C272.548 42.6178 265.436 48.8338 255.804 48.8338C250.932 48.8338 246.564 46.8178 246.564 46.8178C245.108 47.1538 239.06 47.8818 238.892 47.8818V32.5938H240.292C244.772 43.9058 249.7 44.9698 255.076 44.9698C259.5 44.9698 261.796 42.0018 261.796 38.5858C261.796 28.8978 236.092 31.1938 236.092 16.5218C236.092 8.4018 242.42 2.4098 251.044 2.4098C256.084 2.4098 258.324 3.3618 264.26 5.0418C265.156 3.9778 265.828 3.2498 266.22 2.8578H267.34V18.7058H265.716C265.324 17.8658 259.836 6.3858 252.276 6.3858C248.412 6.3858 245.948 8.4578 245.948 12.6018C245.948 18.4818 253.564 19.7138 261.46 23.1298ZM292.445 16.6338C303.477 16.6338 308.797 24.4738 308.797 32.5938C308.797 40.7138 303.365 48.6658 292.333 48.6658C281.245 48.6658 276.037 40.8258 276.037 32.7058C276.037 24.5858 281.357 16.6338 292.445 16.6338ZM292.389 45.8658C297.541 45.8658 298.997 38.7538 298.997 32.4818C298.997 26.1538 297.541 19.4338 292.389 19.4338C287.293 19.4338 285.837 26.0978 285.837 32.3698C285.837 38.6978 287.237 45.8658 292.389 45.8658ZM327.221 46.6498V48.0498H311.821V46.6498C313.389 46.6498 314.621 45.4178 314.621 43.8498V7.1698C314.621 5.8258 313.389 4.8178 312.045 4.9858L311.821 3.6418L324.421 1.6258V43.8498C324.421 45.4178 325.653 46.6498 327.221 46.6498ZM363.385 46.6498V48.0498H347.985V46.6498C349.553 46.6498 350.785 45.4178 350.785 43.8498V41.8338C350.785 41.8338 346.193 48.7218 339.305 48.7218C333.537 48.7218 332.585 44.5778 332.585 41.7218V22.2338C332.585 20.8898 331.353 19.8818 330.009 20.0498L329.785 18.7058L342.385 16.6898V39.9298C342.385 41.3298 343.729 42.6178 345.577 42.6178C348.321 42.6178 350.561 39.3138 350.785 39.0338V22.2338C350.785 20.8898 349.553 19.8818 348.209 20.0498L347.985 18.7058L360.585 16.6898V43.8498C360.585 45.4178 361.817 46.6498 363.385 46.6498ZM387.856 18.8738H379.456V35.5618C379.456 39.2578 379.12 43.4578 382.48 43.4578C384.048 43.4578 385.896 42.5618 387.576 39.1458L387.856 39.2578C386.68 44.2978 383.768 48.6658 377.608 48.6658C373.464 48.6658 369.656 45.3058 369.656 41.2178V18.8738H365.456V16.6338C369.544 16.6338 374.92 12.3218 378.056 4.6498H379.456V16.6338H387.856V18.8738ZM401.154 4.8738C400.202 3.9778 398.634 0.337801 398.634 0.337801C398.634 0.337801 397.066 3.9778 396.17 4.8738C395.274 5.8258 391.634 7.3378 391.634 7.3378C391.634 7.3378 395.274 8.9058 396.17 9.8578C397.066 10.7538 398.634 14.3378 398.634 14.3378C398.634 14.3378 400.202 10.7538 401.154 9.8578C402.05 8.9058 405.634 7.3378 405.634 7.3378C405.634 7.3378 402.05 5.8258 401.154 4.8738ZM404.234 17.0258V43.8498C404.234 45.4178 405.466 46.6498 407.034 46.6498V48.0498H391.634V46.6498C393.202 46.6498 394.434 45.4178 394.434 43.8498V22.5698C394.434 21.2258 393.202 20.2178 391.858 20.3858L391.634 19.0418L404.234 17.0258ZM426.561 16.6338C437.593 16.6338 442.913 24.4738 442.913 32.5938C442.913 40.7138 437.481 48.6658 426.449 48.6658C415.361 48.6658 410.153 40.8258 410.153 32.7058C410.153 24.5858 415.473 16.6338 426.561 16.6338ZM426.505 45.8658C431.657 45.8658 433.113 38.7538 433.113 32.4818C433.113 26.1538 431.657 19.4338 426.505 19.4338C421.409 19.4338 419.953 26.0978 419.953 32.3698C419.953 38.6978 421.353 45.8658 426.505 45.8658ZM470.072 16.6338C475.84 16.6338 476.792 21.3378 476.792 22.9618V43.8498C476.792 45.4178 478.024 46.6498 479.592 46.6498V48.0498H464.192V46.6498C465.76 46.6498 466.992 45.4178 466.992 43.8498V24.7538C466.992 23.3538 465.648 22.0658 463.8 22.0658C461.056 22.0658 458.816 25.3698 458.592 25.6498V43.8498C458.592 45.4178 459.824 46.6498 461.392 46.6498V48.0498H445.992V46.6498C447.56 46.6498 448.792 45.4178 448.792 43.8498V22.5698C448.792 21.2818 447.84 20.3858 446.216 20.3858L445.992 19.0418L458.592 17.0258V22.8498C458.592 22.8498 463.184 16.6338 470.072 16.6338ZM501.312 29.0098C506.352 30.8578 508.592 34.7778 508.592 38.8658C508.592 45.5298 501.704 49.0018 495.096 49.1138C489.664 49.1698 484.4 46.9298 483.224 42.2258C482.496 39.3698 484.344 36.3458 487.2 36.6818C489.72 37.0178 490.896 39.4258 489.664 41.9458C488.32 44.8018 491.68 46.0898 495.152 46.0898C497.896 46.0898 501.312 44.5778 501.312 41.8898C501.312 38.7538 496.328 37.4098 491.176 35.7298C486.024 34.0498 483.448 30.7458 483.448 26.3778C483.448 18.5938 490.28 16.5778 495.824 16.5218C501.144 16.4658 506.184 18.2578 507.136 22.2898C507.808 25.0898 505.96 28.1698 503.104 27.7778C500.64 27.4978 499.408 25.0898 500.64 22.5698C502.824 18.0338 490.392 18.4818 490.392 23.1858C490.392 25.2018 491.176 25.2578 501.312 29.0098ZM522.576 10.0818C522.576 13.8898 520.056 18.2018 513.672 20.3298L513.336 19.8258C516.976 18.2578 519.104 15.2338 519.328 12.4338C516.36 14.0578 512.44 11.7618 512.44 8.1778C512.44 5.5458 514.568 3.4178 517.2 3.4178C520.448 3.4178 522.576 6.3298 522.576 10.0818Z" fill="url(#paint0_linear_16727_90473)"/>
<defs>
<linearGradient id="paint0_linear_16727_90473" x1="228.5" y1="37.3698" x2="467" y2="36.8731" gradientUnits="userSpaceOnUse">
<stop stop-color="#F20790"/>
<stop offset="1" stop-color="#007AFF"/>
</linearGradient>
</defs>
</svg>
