<svg width="1076" height="132" viewBox="0 0 1076 132" fill="none" xmlns="http://www.w3.org/2000/svg">
<path d="M12.5764 46.336C10.3364 46.336 8.32038 45.952 6.52838 45.184C4.73638 44.384 3.32838 43.264 2.30438 41.824C1.28038 40.384 0.768375 38.704 0.768375 36.784H6.62438C6.75238 38.224 7.31238 39.408 8.30438 40.336C9.32838 41.264 10.7524 41.728 12.5764 41.728C14.4644 41.728 15.9364 41.28 16.9924 40.384C18.0484 39.456 18.5764 38.272 18.5764 36.832C18.5764 35.712 18.2404 34.8 17.5684 34.096C16.9284 33.392 16.1124 32.848 15.1204 32.464C14.1604 32.08 12.8164 31.664 11.0884 31.216C8.91238 30.64 7.13638 30.064 5.76038 29.488C4.41638 28.88 3.26438 27.952 2.30438 26.704C1.34438 25.456 0.864375 23.792 0.864375 21.712C0.864375 19.792 1.34438 18.112 2.30438 16.672C3.26438 15.232 4.60838 14.128 6.33638 13.36C8.06438 12.592 10.0644 12.208 12.3364 12.208C15.5684 12.208 18.2084 13.024 20.2564 14.656C22.3364 16.256 23.4884 18.464 23.7124 21.28H17.6644C17.5684 20.064 16.9924 19.024 15.9364 18.16C14.8804 17.296 13.4884 16.864 11.7604 16.864C10.1924 16.864 8.91238 17.264 7.92038 18.064C6.92838 18.864 6.43238 20.016 6.43238 21.52C6.43238 22.544 6.73638 23.392 7.34438 24.064C7.98438 24.704 8.78438 25.216 9.74438 25.6C10.7044 25.984 12.0164 26.4 13.6804 26.848C15.8884 27.456 17.6804 28.064 19.0564 28.672C20.4644 29.28 21.6484 30.224 22.6084 31.504C23.6004 32.752 24.0964 34.432 24.0964 36.544C24.0964 38.24 23.6324 39.84 22.7044 41.344C21.8084 42.848 20.4804 44.064 18.7204 44.992C16.9924 45.888 14.9444 46.336 12.5764 46.336ZM36.9371 24.016V38.656C36.9371 39.648 37.1611 40.368 37.6091 40.816C38.0891 41.232 38.8891 41.44 40.0091 41.44H43.3691V46H39.0491C36.5851 46 34.6971 45.424 33.3851 44.272C32.0731 43.12 31.4171 41.248 31.4171 38.656V24.016H28.2971V19.552H31.4171V12.976H36.9371V19.552H43.3691V24.016H36.9371ZM46.5885 32.656C46.5885 30 47.1325 27.648 48.2205 25.6C49.3405 23.552 50.8445 21.968 52.7325 20.848C54.6525 19.696 56.7645 19.12 59.0685 19.12C61.1485 19.12 62.9565 19.536 64.4925 20.368C66.0605 21.168 67.3085 22.176 68.2365 23.392V19.552H73.7565V46H68.2365V42.064C67.3085 43.312 66.0445 44.352 64.4445 45.184C62.8445 46.016 61.0205 46.432 58.9725 46.432C56.7005 46.432 54.6205 45.856 52.7325 44.704C50.8445 43.52 49.3405 41.888 48.2205 39.808C47.1325 37.696 46.5885 35.312 46.5885 32.656ZM68.2365 32.752C68.2365 30.928 67.8525 29.344 67.0845 28C66.3485 26.656 65.3725 25.632 64.1565 24.928C62.9405 24.224 61.6285 23.872 60.2205 23.872C58.8125 23.872 57.5005 24.224 56.2845 24.928C55.0685 25.6 54.0765 26.608 53.3085 27.952C52.5725 29.264 52.2045 30.832 52.2045 32.656C52.2045 34.48 52.5725 36.08 53.3085 37.456C54.0765 38.832 55.0685 39.888 56.2845 40.624C57.5325 41.328 58.8445 41.68 60.2205 41.68C61.6285 41.68 62.9405 41.328 64.1565 40.624C65.3725 39.92 66.3485 38.896 67.0845 37.552C67.8525 36.176 68.2365 34.576 68.2365 32.752ZM79.1198 32.752C79.1198 30.032 79.6638 27.648 80.7518 25.6C81.8718 23.52 83.4078 21.92 85.3598 20.8C87.3118 19.68 89.5518 19.12 92.0798 19.12C95.2798 19.12 97.9198 19.888 99.9998 21.424C102.112 22.928 103.536 25.088 104.272 27.904H98.3678C97.8878 26.592 97.1198 25.568 96.0638 24.832C95.0078 24.096 93.6798 23.728 92.0798 23.728C89.8398 23.728 88.0478 24.528 86.7038 26.128C85.3918 27.696 84.7358 29.904 84.7358 32.752C84.7358 35.6 85.3918 37.824 86.7038 39.424C88.0478 41.024 89.8398 41.824 92.0798 41.824C95.2478 41.824 97.3438 40.432 98.3678 37.648H104.272C103.504 40.336 102.064 42.48 99.9518 44.08C97.8398 45.648 95.2158 46.432 92.0798 46.432C89.5518 46.432 87.3118 45.872 85.3598 44.752C83.4078 43.6 81.8718 42 80.7518 39.952C79.6638 37.872 79.1198 35.472 79.1198 32.752ZM120.189 32.8L132.381 46H124.989L115.197 34.624V46H109.725V10.48H115.197V31.12L124.797 19.552H132.381L120.189 32.8ZM139.087 16.048C138.095 16.048 137.263 15.712 136.591 15.04C135.919 14.368 135.583 13.536 135.583 12.544C135.583 11.552 135.919 10.72 136.591 10.048C137.263 9.376 138.095 9.04 139.087 9.04C140.047 9.04 140.863 9.376 141.535 10.048C142.207 10.72 142.543 11.552 142.543 12.544C142.543 13.536 142.207 14.368 141.535 15.04C140.863 15.712 140.047 16.048 139.087 16.048ZM141.775 19.552V46H136.303V19.552H141.775ZM162.303 19.12C164.383 19.12 166.239 19.552 167.871 20.416C169.535 21.28 170.831 22.56 171.759 24.256C172.687 25.952 173.151 28 173.151 30.4V46H167.727V31.216C167.727 28.848 167.135 27.04 165.951 25.792C164.767 24.512 163.151 23.872 161.103 23.872C159.055 23.872 157.423 24.512 156.207 25.792C155.023 27.04 154.431 28.848 154.431 31.216V46H148.959V19.552H154.431V22.576C155.327 21.488 156.463 20.64 157.839 20.032C159.247 19.424 160.735 19.12 162.303 19.12ZM190.787 19.12C192.835 19.12 194.643 19.536 196.211 20.368C197.811 21.168 199.059 22.176 199.955 23.392V19.552H205.475V46.432C205.475 48.864 204.963 51.024 203.939 52.912C202.915 54.832 201.427 56.336 199.475 57.424C197.555 58.512 195.251 59.056 192.563 59.056C188.979 59.056 186.003 58.208 183.635 56.512C181.267 54.848 179.923 52.576 179.603 49.696H185.027C185.443 51.072 186.323 52.176 187.667 53.008C189.043 53.872 190.675 54.304 192.563 54.304C194.771 54.304 196.547 53.632 197.891 52.288C199.267 50.944 199.955 48.992 199.955 46.432V42.016C199.027 43.264 197.763 44.32 196.163 45.184C194.595 46.016 192.803 46.432 190.787 46.432C188.483 46.432 186.371 45.856 184.451 44.704C182.563 43.52 181.059 41.888 179.939 39.808C178.851 37.696 178.307 35.312 178.307 32.656C178.307 30 178.851 27.648 179.939 25.6C181.059 23.552 182.563 21.968 184.451 20.848C186.371 19.696 188.483 19.12 190.787 19.12ZM199.955 32.752C199.955 30.928 199.571 29.344 198.803 28C198.067 26.656 197.091 25.632 195.875 24.928C194.659 24.224 193.347 23.872 191.939 23.872C190.531 23.872 189.219 24.224 188.003 24.928C186.787 25.6 185.795 26.608 185.027 27.952C184.291 29.264 183.923 30.832 183.923 32.656C183.923 34.48 184.291 36.08 185.027 37.456C185.795 38.832 186.787 39.888 188.003 40.624C189.251 41.328 190.563 41.68 191.939 41.68C193.347 41.68 194.659 41.328 195.875 40.624C197.091 39.92 198.067 38.896 198.803 37.552C199.571 36.176 199.955 34.576 199.955 32.752ZM406.209 39.424L400.401 52.672H396.849L400.257 39.424H406.209ZM433.059 46.432C430.979 46.432 429.107 46.064 427.443 45.328C425.811 44.56 424.515 43.536 423.555 42.256C422.595 40.944 422.083 39.488 422.019 37.888H427.683C427.779 39.008 428.307 39.952 429.267 40.72C430.259 41.456 431.491 41.824 432.963 41.824C434.499 41.824 435.683 41.536 436.515 40.96C437.379 40.352 437.811 39.584 437.811 38.656C437.811 37.664 437.331 36.928 436.371 36.448C435.443 35.968 433.955 35.44 431.907 34.864C429.923 34.32 428.307 33.792 427.059 33.28C425.811 32.768 424.723 31.984 423.795 30.928C422.899 29.872 422.451 28.48 422.451 26.752C422.451 25.344 422.867 24.064 423.699 22.912C424.531 21.728 425.715 20.8 427.251 20.128C428.819 19.456 430.611 19.12 432.627 19.12C435.635 19.12 438.051 19.888 439.875 21.424C441.731 22.928 442.723 24.992 442.851 27.616H437.379C437.283 26.432 436.803 25.488 435.939 24.784C435.075 24.08 433.907 23.728 432.435 23.728C430.995 23.728 429.891 24 429.123 24.544C428.355 25.088 427.971 25.808 427.971 26.704C427.971 27.408 428.227 28 428.739 28.48C429.251 28.96 429.875 29.344 430.611 29.632C431.347 29.888 432.435 30.224 433.875 30.64C435.795 31.152 437.363 31.68 438.579 32.224C439.827 32.736 440.899 33.504 441.795 34.528C442.691 35.552 443.155 36.912 443.187 38.608C443.187 40.112 442.771 41.456 441.939 42.64C441.107 43.824 439.923 44.752 438.387 45.424C436.883 46.096 435.107 46.432 433.059 46.432ZM462.444 19.12C464.524 19.12 466.38 19.552 468.012 20.416C469.676 21.28 470.972 22.56 471.9 24.256C472.828 25.952 473.292 28 473.292 30.4V46H467.868V31.216C467.868 28.848 467.276 27.04 466.092 25.792C464.908 24.512 463.292 23.872 461.244 23.872C459.196 23.872 457.564 24.512 456.348 25.792C455.164 27.04 454.572 28.848 454.572 31.216V46H449.1V19.552H454.572V22.576C455.468 21.488 456.604 20.64 457.98 20.032C459.388 19.424 460.876 19.12 462.444 19.12ZM478.448 32.656C478.448 30 478.992 27.648 480.08 25.6C481.2 23.552 482.704 21.968 484.592 20.848C486.512 19.696 488.624 19.12 490.928 19.12C493.008 19.12 494.816 19.536 496.352 20.368C497.92 21.168 499.168 22.176 500.096 23.392V19.552H505.616V46H500.096V42.064C499.168 43.312 497.904 44.352 496.304 45.184C494.704 46.016 492.88 46.432 490.832 46.432C488.56 46.432 486.48 45.856 484.592 44.704C482.704 43.52 481.2 41.888 480.08 39.808C478.992 37.696 478.448 35.312 478.448 32.656ZM500.096 32.752C500.096 30.928 499.712 29.344 498.944 28C498.208 26.656 497.232 25.632 496.016 24.928C494.8 24.224 493.488 23.872 492.08 23.872C490.672 23.872 489.36 24.224 488.144 24.928C486.928 25.6 485.936 26.608 485.168 27.952C484.432 29.264 484.064 30.832 484.064 32.656C484.064 34.48 484.432 36.08 485.168 37.456C485.936 38.832 486.928 39.888 488.144 40.624C489.392 41.328 490.704 41.68 492.08 41.68C493.488 41.68 494.8 41.328 496.016 40.624C497.232 39.92 498.208 38.896 498.944 37.552C499.712 36.176 500.096 34.576 500.096 32.752ZM510.979 32.752C510.979 30.032 511.523 27.648 512.611 25.6C513.731 23.52 515.267 21.92 517.219 20.8C519.171 19.68 521.411 19.12 523.939 19.12C527.139 19.12 529.779 19.888 531.859 21.424C533.971 22.928 535.395 25.088 536.131 27.904H530.227C529.747 26.592 528.979 25.568 527.923 24.832C526.867 24.096 525.539 23.728 523.939 23.728C521.699 23.728 519.907 24.528 518.563 26.128C517.251 27.696 516.595 29.904 516.595 32.752C516.595 35.6 517.251 37.824 518.563 39.424C519.907 41.024 521.699 41.824 523.939 41.824C527.107 41.824 529.203 40.432 530.227 37.648H536.131C535.363 40.336 533.923 42.48 531.811 44.08C529.699 45.648 527.075 46.432 523.939 46.432C521.411 46.432 519.171 45.872 517.219 44.752C515.267 43.6 513.731 42 512.611 39.952C511.523 37.872 510.979 35.472 510.979 32.752ZM552.048 32.8L564.24 46H556.848L547.056 34.624V46H541.584V10.48H547.056V31.12L556.656 19.552H564.24L552.048 32.8ZM570.947 16.048C569.955 16.048 569.123 15.712 568.451 15.04C567.779 14.368 567.443 13.536 567.443 12.544C567.443 11.552 567.779 10.72 568.451 10.048C569.123 9.376 569.955 9.04 570.947 9.04C571.907 9.04 572.723 9.376 573.395 10.048C574.067 10.72 574.403 11.552 574.403 12.544C574.403 13.536 574.067 14.368 573.395 15.04C572.723 15.712 571.907 16.048 570.947 16.048ZM573.635 19.552V46H568.163V19.552H573.635ZM594.163 19.12C596.243 19.12 598.099 19.552 599.731 20.416C601.395 21.28 602.691 22.56 603.619 24.256C604.547 25.952 605.011 28 605.011 30.4V46H599.587V31.216C599.587 28.848 598.995 27.04 597.811 25.792C596.627 24.512 595.011 23.872 592.963 23.872C590.915 23.872 589.283 24.512 588.067 25.792C586.883 27.04 586.291 28.848 586.291 31.216V46H580.819V19.552H586.291V22.576C587.187 21.488 588.323 20.64 589.699 20.032C591.107 19.424 592.595 19.12 594.163 19.12ZM622.647 19.12C624.695 19.12 626.503 19.536 628.071 20.368C629.671 21.168 630.919 22.176 631.815 23.392V19.552H637.335V46.432C637.335 48.864 636.823 51.024 635.799 52.912C634.775 54.832 633.287 56.336 631.335 57.424C629.415 58.512 627.111 59.056 624.423 59.056C620.839 59.056 617.863 58.208 615.495 56.512C613.127 54.848 611.783 52.576 611.463 49.696H616.887C617.303 51.072 618.183 52.176 619.527 53.008C620.903 53.872 622.535 54.304 624.423 54.304C626.631 54.304 628.407 53.632 629.751 52.288C631.127 50.944 631.815 48.992 631.815 46.432V42.016C630.887 43.264 629.623 44.32 628.023 45.184C626.455 46.016 624.663 46.432 622.647 46.432C620.343 46.432 618.231 45.856 616.311 44.704C614.423 43.52 612.919 41.888 611.799 39.808C610.711 37.696 610.167 35.312 610.167 32.656C610.167 30 610.711 27.648 611.799 25.6C612.919 23.552 614.423 21.968 616.311 20.848C618.231 19.696 620.343 19.12 622.647 19.12ZM631.815 32.752C631.815 30.928 631.431 29.344 630.663 28C629.927 26.656 628.951 25.632 627.735 24.928C626.519 24.224 625.207 23.872 623.799 23.872C622.391 23.872 621.079 24.224 619.863 24.928C618.647 25.6 617.655 26.608 616.887 27.952C616.151 29.264 615.783 30.832 615.783 32.656C615.783 34.48 616.151 36.08 616.887 37.456C617.655 38.832 618.647 39.888 619.863 40.624C621.111 41.328 622.423 41.68 623.799 41.68C625.207 41.68 626.519 41.328 627.735 40.624C628.951 39.92 629.927 38.896 630.663 37.552C631.431 36.176 631.815 34.576 631.815 32.752ZM668.463 46.432C665.967 46.432 663.711 45.872 661.695 44.752C659.679 43.6 658.095 42 656.943 39.952C655.791 37.872 655.215 35.472 655.215 32.752C655.215 30.064 655.807 27.68 656.991 25.6C658.175 23.52 659.791 21.92 661.839 20.8C663.887 19.68 666.175 19.12 668.703 19.12C671.231 19.12 673.519 19.68 675.567 20.8C677.615 21.92 679.231 23.52 680.415 25.6C681.599 27.68 682.191 30.064 682.191 32.752C682.191 35.44 681.583 37.824 680.367 39.904C679.151 41.984 677.487 43.6 675.375 44.752C673.295 45.872 670.991 46.432 668.463 46.432ZM668.463 41.68C669.871 41.68 671.183 41.344 672.399 40.672C673.647 40 674.655 38.992 675.423 37.648C676.191 36.304 676.575 34.672 676.575 32.752C676.575 30.832 676.207 29.216 675.471 27.904C674.735 26.56 673.759 25.552 672.543 24.88C671.327 24.208 670.015 23.872 668.607 23.872C667.199 23.872 665.887 24.208 664.671 24.88C663.487 25.552 662.543 26.56 661.839 27.904C661.135 29.216 660.783 30.832 660.783 32.752C660.783 35.6 661.503 37.808 662.943 39.376C664.415 40.912 666.255 41.68 668.463 41.68ZM700.944 19.12C703.024 19.12 704.88 19.552 706.512 20.416C708.176 21.28 709.472 22.56 710.4 24.256C711.328 25.952 711.792 28 711.792 30.4V46H706.368V31.216C706.368 28.848 705.776 27.04 704.592 25.792C703.408 24.512 701.792 23.872 699.744 23.872C697.696 23.872 696.064 24.512 694.848 25.792C693.664 27.04 693.072 28.848 693.072 31.216V46H687.6V19.552H693.072V22.576C693.968 21.488 695.104 20.64 696.48 20.032C697.888 19.424 699.376 19.12 700.944 19.12ZM736.713 23.44C737.641 22.224 738.905 21.2 740.505 20.368C742.105 19.536 743.913 19.12 745.929 19.12C748.233 19.12 750.329 19.696 752.217 20.848C754.137 21.968 755.641 23.552 756.729 25.6C757.817 27.648 758.361 30 758.361 32.656C758.361 35.312 757.817 37.696 756.729 39.808C755.641 41.888 754.137 43.52 752.217 44.704C750.329 45.856 748.233 46.432 745.929 46.432C743.913 46.432 742.121 46.032 740.553 45.232C738.985 44.4 737.705 43.376 736.713 42.16V58.576H731.241V19.552H736.713V23.44ZM752.793 32.656C752.793 30.832 752.409 29.264 751.641 27.952C750.905 26.608 749.913 25.6 748.665 24.928C747.449 24.224 746.137 23.872 744.729 23.872C743.353 23.872 742.041 24.224 740.793 24.928C739.577 25.632 738.585 26.656 737.817 28C737.081 29.344 736.713 30.928 736.713 32.752C736.713 34.576 737.081 36.176 737.817 37.552C738.585 38.896 739.577 39.92 740.793 40.624C742.041 41.328 743.353 41.68 744.729 41.68C746.137 41.68 747.449 41.328 748.665 40.624C749.913 39.888 750.905 38.832 751.641 37.456C752.409 36.08 752.793 34.48 752.793 32.656ZM769.244 23.392C770.044 22.048 771.1 21.008 772.412 20.272C773.756 19.504 775.34 19.12 777.164 19.12V24.784H775.772C773.628 24.784 771.996 25.328 770.876 26.416C769.788 27.504 769.244 29.392 769.244 32.08V46H763.772V19.552H769.244V23.392ZM793.666 46.432C791.17 46.432 788.914 45.872 786.898 44.752C784.882 43.6 783.298 42 782.146 39.952C780.994 37.872 780.418 35.472 780.418 32.752C780.418 30.064 781.01 27.68 782.194 25.6C783.378 23.52 784.994 21.92 787.042 20.8C789.09 19.68 791.378 19.12 793.906 19.12C796.434 19.12 798.722 19.68 800.77 20.8C802.818 21.92 804.434 23.52 805.618 25.6C806.802 27.68 807.394 30.064 807.394 32.752C807.394 35.44 806.786 37.824 805.57 39.904C804.354 41.984 802.69 43.6 800.578 44.752C798.498 45.872 796.194 46.432 793.666 46.432ZM793.666 41.68C795.074 41.68 796.386 41.344 797.602 40.672C798.85 40 799.858 38.992 800.626 37.648C801.394 36.304 801.778 34.672 801.778 32.752C801.778 30.832 801.41 29.216 800.674 27.904C799.938 26.56 798.962 25.552 797.746 24.88C796.53 24.208 795.218 23.872 793.81 23.872C792.402 23.872 791.09 24.208 789.874 24.88C788.69 25.552 787.746 26.56 787.042 27.904C786.338 29.216 785.986 30.832 785.986 32.752C785.986 35.6 786.706 37.808 788.146 39.376C789.618 40.912 791.458 41.68 793.666 41.68ZM818.275 23.488C819.203 22.208 820.467 21.168 822.067 20.368C823.699 19.536 825.507 19.12 827.491 19.12C829.827 19.12 831.939 19.68 833.827 20.8C835.715 21.92 837.203 23.52 838.291 25.6C839.379 27.648 839.923 30 839.923 32.656C839.923 35.312 839.379 37.696 838.291 39.808C837.203 41.888 835.699 43.52 833.779 44.704C831.891 45.856 829.795 46.432 827.491 46.432C825.443 46.432 823.619 46.032 822.019 45.232C820.451 44.432 819.203 43.408 818.275 42.16V46H812.803V10.48H818.275V23.488ZM834.355 32.656C834.355 30.832 833.971 29.264 833.203 27.952C832.467 26.608 831.475 25.6 830.227 24.928C829.011 24.224 827.699 23.872 826.291 23.872C824.915 23.872 823.603 24.224 822.355 24.928C821.139 25.632 820.147 26.656 819.379 28C818.643 29.344 818.275 30.928 818.275 32.752C818.275 34.576 818.643 36.176 819.379 37.552C820.147 38.896 821.139 39.92 822.355 40.624C823.603 41.328 824.915 41.68 826.291 41.68C827.699 41.68 829.011 41.328 830.227 40.624C831.475 39.888 832.467 38.832 833.203 37.456C833.971 36.08 834.355 34.48 834.355 32.656ZM850.806 10.48V46H845.334V10.48H850.806ZM882.231 32.128C882.231 33.12 882.167 34.016 882.039 34.816H861.831C861.991 36.928 862.775 38.624 864.183 39.904C865.591 41.184 867.319 41.824 869.367 41.824C872.311 41.824 874.391 40.592 875.607 38.128H881.511C880.711 40.56 879.255 42.56 877.143 44.128C875.063 45.664 872.471 46.432 869.367 46.432C866.839 46.432 864.567 45.872 862.551 44.752C860.567 43.6 858.999 42 857.847 39.952C856.727 37.872 856.167 35.472 856.167 32.752C856.167 30.032 856.711 27.648 857.799 25.6C858.919 23.52 860.471 21.92 862.455 20.8C864.471 19.68 866.775 19.12 869.367 19.12C871.863 19.12 874.087 19.664 876.039 20.752C877.991 21.84 879.511 23.376 880.599 25.36C881.687 27.312 882.231 29.568 882.231 32.128ZM876.519 30.4C876.487 28.384 875.767 26.768 874.359 25.552C872.951 24.336 871.207 23.728 869.127 23.728C867.239 23.728 865.623 24.336 864.279 25.552C862.935 26.736 862.135 28.352 861.879 30.4H876.519ZM919.632 19.12C921.712 19.12 923.568 19.552 925.2 20.416C926.864 21.28 928.16 22.56 929.088 24.256C930.048 25.952 930.528 28 930.528 30.4V46H925.104V31.216C925.104 28.848 924.512 27.04 923.328 25.792C922.144 24.512 920.528 23.872 918.48 23.872C916.432 23.872 914.8 24.512 913.584 25.792C912.4 27.04 911.808 28.848 911.808 31.216V46H906.384V31.216C906.384 28.848 905.792 27.04 904.608 25.792C903.424 24.512 901.808 23.872 899.76 23.872C897.712 23.872 896.08 24.512 894.864 25.792C893.68 27.04 893.088 28.848 893.088 31.216V46H887.616V19.552H893.088V22.576C893.984 21.488 895.12 20.64 896.496 20.032C897.872 19.424 899.344 19.12 900.912 19.12C903.024 19.12 904.912 19.568 906.576 20.464C908.24 21.36 909.52 22.656 910.416 24.352C911.216 22.752 912.464 21.488 914.16 20.56C915.856 19.6 917.68 19.12 919.632 19.12ZM947.091 46.432C945.011 46.432 943.139 46.064 941.475 45.328C939.843 44.56 938.547 43.536 937.587 42.256C936.627 40.944 936.115 39.488 936.051 37.888H941.715C941.811 39.008 942.339 39.952 943.299 40.72C944.291 41.456 945.523 41.824 946.995 41.824C948.531 41.824 949.715 41.536 950.547 40.96C951.411 40.352 951.843 39.584 951.843 38.656C951.843 37.664 951.363 36.928 950.403 36.448C949.475 35.968 947.987 35.44 945.939 34.864C943.955 34.32 942.339 33.792 941.091 33.28C939.843 32.768 938.755 31.984 937.827 30.928C936.931 29.872 936.483 28.48 936.483 26.752C936.483 25.344 936.899 24.064 937.731 22.912C938.563 21.728 939.747 20.8 941.283 20.128C942.851 19.456 944.643 19.12 946.659 19.12C949.667 19.12 952.083 19.888 953.907 21.424C955.763 22.928 956.755 24.992 956.883 27.616H951.411C951.315 26.432 950.835 25.488 949.971 24.784C949.107 24.08 947.939 23.728 946.467 23.728C945.027 23.728 943.923 24 943.155 24.544C942.387 25.088 942.003 25.808 942.003 26.704C942.003 27.408 942.259 28 942.771 28.48C943.283 28.96 943.907 29.344 944.643 29.632C945.379 29.888 946.467 30.224 947.907 30.64C949.827 31.152 951.395 31.68 952.611 32.224C953.859 32.736 954.931 33.504 955.827 34.528C956.723 35.552 957.187 36.912 957.219 38.608C957.219 40.112 956.803 41.456 955.971 42.64C955.139 43.824 953.955 44.752 952.419 45.424C950.915 46.096 949.139 46.432 947.091 46.432ZM969.131 39.424L963.323 52.672H959.771L963.179 39.424H969.131ZM984.557 32.656C984.557 30 985.101 27.648 986.189 25.6C987.309 23.552 988.813 21.968 990.701 20.848C992.621 19.696 994.733 19.12 997.037 19.12C999.117 19.12 1000.93 19.536 1002.46 20.368C1004.03 21.168 1005.28 22.176 1006.21 23.392V19.552H1011.73V46H1006.21V42.064C1005.28 43.312 1004.01 44.352 1002.41 45.184C1000.81 46.016 998.989 46.432 996.941 46.432C994.669 46.432 992.589 45.856 990.701 44.704C988.813 43.52 987.309 41.888 986.189 39.808C985.101 37.696 984.557 35.312 984.557 32.656ZM1006.21 32.752C1006.21 30.928 1005.82 29.344 1005.05 28C1004.32 26.656 1003.34 25.632 1002.13 24.928C1000.91 24.224 999.597 23.872 998.189 23.872C996.781 23.872 995.469 24.224 994.253 24.928C993.037 25.6 992.045 26.608 991.277 27.952C990.541 29.264 990.173 30.832 990.173 32.656C990.173 34.48 990.541 36.08 991.277 37.456C992.045 38.832 993.037 39.888 994.253 40.624C995.501 41.328 996.813 41.68 998.189 41.68C999.597 41.68 1000.91 41.328 1002.13 40.624C1003.34 39.92 1004.32 38.896 1005.05 37.552C1005.82 36.176 1006.21 34.576 1006.21 32.752ZM1032.26 19.12C1034.34 19.12 1036.19 19.552 1037.82 20.416C1039.49 21.28 1040.78 22.56 1041.71 24.256C1042.64 25.952 1043.1 28 1043.1 30.4V46H1037.68V31.216C1037.68 28.848 1037.09 27.04 1035.9 25.792C1034.72 24.512 1033.1 23.872 1031.06 23.872C1029.01 23.872 1027.38 24.512 1026.16 25.792C1024.98 27.04 1024.38 28.848 1024.38 31.216V46H1018.91V19.552H1024.38V22.576C1025.28 21.488 1026.42 20.64 1027.79 20.032C1029.2 19.424 1030.69 19.12 1032.26 19.12ZM1048.26 32.656C1048.26 30 1048.8 27.648 1049.89 25.6C1051.01 23.552 1052.52 21.968 1054.4 20.848C1056.32 19.696 1058.45 19.12 1060.79 19.12C1062.52 19.12 1064.21 19.504 1065.88 20.272C1067.57 21.008 1068.92 22 1069.91 23.248V10.48H1075.43V46H1069.91V42.016C1069.01 43.296 1067.76 44.352 1066.16 45.184C1064.6 46.016 1062.79 46.432 1060.74 46.432C1058.44 46.432 1056.32 45.856 1054.4 44.704C1052.52 43.52 1051.01 41.888 1049.89 39.808C1048.8 37.696 1048.26 35.312 1048.26 32.656ZM1069.91 32.752C1069.91 30.928 1069.52 29.344 1068.76 28C1068.02 26.656 1067.04 25.632 1065.83 24.928C1064.61 24.224 1063.3 23.872 1061.89 23.872C1060.48 23.872 1059.17 24.224 1057.96 24.928C1056.74 25.6 1055.75 26.608 1054.98 27.952C1054.24 29.264 1053.88 30.832 1053.88 32.656C1053.88 34.48 1054.24 36.08 1054.98 37.456C1055.75 38.832 1056.74 39.888 1057.96 40.624C1059.2 41.328 1060.52 41.68 1061.89 41.68C1063.3 41.68 1064.61 41.328 1065.83 40.624C1067.04 39.92 1068.02 38.896 1068.76 37.552C1069.52 36.176 1069.91 34.576 1069.91 32.752ZM211.033 104.8L223.225 118H215.833L206.041 106.624V118H200.569V82.48H206.041V103.12L215.641 91.552H223.225L211.033 104.8ZM251.387 104.128C251.387 105.12 251.323 106.016 251.195 106.816H230.987C231.147 108.928 231.931 110.624 233.339 111.904C234.747 113.184 236.475 113.824 238.523 113.824C241.467 113.824 243.547 112.592 244.763 110.128H250.667C249.867 112.56 248.411 114.56 246.299 116.128C244.219 117.664 241.627 118.432 238.523 118.432C235.995 118.432 233.723 117.872 231.707 116.752C229.723 115.6 228.155 114 227.003 111.952C225.883 109.872 225.323 107.472 225.323 104.752C225.323 102.032 225.867 99.648 226.955 97.6C228.075 95.52 229.627 93.92 231.611 92.8C233.627 91.68 235.931 91.12 238.523 91.12C241.019 91.12 243.243 91.664 245.195 92.752C247.147 93.84 248.667 95.376 249.755 97.36C250.843 99.312 251.387 101.568 251.387 104.128ZM245.675 102.4C245.643 100.384 244.923 98.768 243.515 97.552C242.107 96.336 240.363 95.728 238.283 95.728C236.395 95.728 234.779 96.336 233.435 97.552C232.091 98.736 231.291 100.352 231.035 102.4H245.675ZM281.012 104.128C281.012 105.12 280.948 106.016 280.82 106.816H260.612C260.772 108.928 261.556 110.624 262.964 111.904C264.372 113.184 266.1 113.824 268.148 113.824C271.092 113.824 273.172 112.592 274.388 110.128H280.292C279.492 112.56 278.036 114.56 275.924 116.128C273.844 117.664 271.252 118.432 268.148 118.432C265.62 118.432 263.348 117.872 261.332 116.752C259.348 115.6 257.78 114 256.628 111.952C255.508 109.872 254.948 107.472 254.948 104.752C254.948 102.032 255.492 99.648 256.58 97.6C257.7 95.52 259.252 93.92 261.236 92.8C263.252 91.68 265.556 91.12 268.148 91.12C270.644 91.12 272.868 91.664 274.82 92.752C276.772 93.84 278.292 95.376 279.38 97.36C280.468 99.312 281.012 101.568 281.012 104.128ZM275.3 102.4C275.268 100.384 274.548 98.768 273.14 97.552C271.732 96.336 269.988 95.728 267.908 95.728C266.02 95.728 264.404 96.336 263.06 97.552C261.716 98.736 260.916 100.352 260.66 102.4H275.3ZM291.869 95.44C292.797 94.224 294.061 93.2 295.661 92.368C297.261 91.536 299.069 91.12 301.085 91.12C303.389 91.12 305.485 91.696 307.373 92.848C309.293 93.968 310.797 95.552 311.885 97.6C312.973 99.648 313.517 102 313.517 104.656C313.517 107.312 312.973 109.696 311.885 111.808C310.797 113.888 309.293 115.52 307.373 116.704C305.485 117.856 303.389 118.432 301.085 118.432C299.069 118.432 297.277 118.032 295.709 117.232C294.141 116.4 292.861 115.376 291.869 114.16V130.576H286.397V91.552H291.869V95.44ZM307.949 104.656C307.949 102.832 307.565 101.264 306.797 99.952C306.061 98.608 305.069 97.6 303.821 96.928C302.605 96.224 301.293 95.872 299.885 95.872C298.509 95.872 297.197 96.224 295.949 96.928C294.733 97.632 293.741 98.656 292.973 100C292.237 101.344 291.869 102.928 291.869 104.752C291.869 106.576 292.237 108.176 292.973 109.552C293.741 110.896 294.733 111.92 295.949 112.624C297.197 113.328 298.509 113.68 299.885 113.68C301.293 113.68 302.605 113.328 303.821 112.624C305.069 111.888 306.061 110.832 306.797 109.456C307.565 108.08 307.949 106.48 307.949 104.656ZM321.712 88.048C320.72 88.048 319.888 87.712 319.216 87.04C318.544 86.368 318.208 85.536 318.208 84.544C318.208 83.552 318.544 82.72 319.216 82.048C319.888 81.376 320.72 81.04 321.712 81.04C322.672 81.04 323.488 81.376 324.16 82.048C324.832 82.72 325.168 83.552 325.168 84.544C325.168 85.536 324.832 86.368 324.16 87.04C323.488 87.712 322.672 88.048 321.712 88.048ZM324.4 91.552V118H318.928V91.552H324.4ZM344.928 91.12C347.008 91.12 348.864 91.552 350.496 92.416C352.16 93.28 353.456 94.56 354.384 96.256C355.312 97.952 355.776 100 355.776 102.4V118H350.352V103.216C350.352 100.848 349.76 99.04 348.576 97.792C347.392 96.512 345.776 95.872 343.728 95.872C341.68 95.872 340.048 96.512 338.832 97.792C337.648 99.04 337.056 100.848 337.056 103.216V118H331.584V91.552H337.056V94.576C337.952 93.488 339.088 92.64 340.464 92.032C341.872 91.424 343.36 91.12 344.928 91.12ZM373.412 91.12C375.46 91.12 377.268 91.536 378.836 92.368C380.436 93.168 381.684 94.176 382.58 95.392V91.552H388.1V118.432C388.1 120.864 387.588 123.024 386.564 124.912C385.54 126.832 384.052 128.336 382.1 129.424C380.18 130.512 377.876 131.056 375.188 131.056C371.604 131.056 368.628 130.208 366.26 128.512C363.892 126.848 362.548 124.576 362.228 121.696H367.652C368.068 123.072 368.948 124.176 370.292 125.008C371.668 125.872 373.3 126.304 375.188 126.304C377.396 126.304 379.172 125.632 380.516 124.288C381.892 122.944 382.58 120.992 382.58 118.432V114.016C381.652 115.264 380.388 116.32 378.788 117.184C377.22 118.016 375.428 118.432 373.412 118.432C371.108 118.432 368.996 117.856 367.076 116.704C365.188 115.52 363.684 113.888 362.564 111.808C361.476 109.696 360.932 107.312 360.932 104.656C360.932 102 361.476 99.648 362.564 97.6C363.684 95.552 365.188 93.968 367.076 92.848C368.996 91.696 371.108 91.12 373.412 91.12ZM382.58 104.752C382.58 102.928 382.196 101.344 381.428 100C380.692 98.656 379.716 97.632 378.5 96.928C377.284 96.224 375.972 95.872 374.564 95.872C373.156 95.872 371.844 96.224 370.628 96.928C369.412 97.6 368.42 98.608 367.652 99.952C366.916 101.264 366.548 102.832 366.548 104.656C366.548 106.48 366.916 108.08 367.652 109.456C368.42 110.832 369.412 111.888 370.628 112.624C371.876 113.328 373.188 113.68 374.564 113.68C375.972 113.68 377.284 113.328 378.5 112.624C379.716 111.92 380.692 110.896 381.428 109.552C382.196 108.176 382.58 106.576 382.58 104.752ZM419.228 118.432C416.732 118.432 414.476 117.872 412.46 116.752C410.444 115.6 408.86 114 407.708 111.952C406.556 109.872 405.98 107.472 405.98 104.752C405.98 102.064 406.572 99.68 407.756 97.6C408.94 95.52 410.556 93.92 412.604 92.8C414.652 91.68 416.94 91.12 419.468 91.12C421.996 91.12 424.284 91.68 426.332 92.8C428.38 93.92 429.996 95.52 431.18 97.6C432.364 99.68 432.956 102.064 432.956 104.752C432.956 107.44 432.348 109.824 431.132 111.904C429.916 113.984 428.252 115.6 426.14 116.752C424.06 117.872 421.756 118.432 419.228 118.432ZM419.228 113.68C420.636 113.68 421.948 113.344 423.164 112.672C424.412 112 425.42 110.992 426.188 109.648C426.956 108.304 427.34 106.672 427.34 104.752C427.34 102.832 426.972 101.216 426.236 99.904C425.5 98.56 424.524 97.552 423.308 96.88C422.092 96.208 420.78 95.872 419.372 95.872C417.964 95.872 416.652 96.208 415.436 96.88C414.252 97.552 413.308 98.56 412.604 99.904C411.9 101.216 411.548 102.832 411.548 104.752C411.548 107.6 412.268 109.808 413.708 111.376C415.18 112.912 417.02 113.68 419.228 113.68ZM462.318 91.552V118H456.846V114.88C455.982 115.968 454.846 116.832 453.438 117.472C452.062 118.08 450.59 118.384 449.022 118.384C446.942 118.384 445.07 117.952 443.406 117.088C441.774 116.224 440.478 114.944 439.518 113.248C438.59 111.552 438.126 109.504 438.126 107.104V91.552H443.55V106.288C443.55 108.656 444.142 110.48 445.326 111.76C446.51 113.008 448.126 113.632 450.174 113.632C452.222 113.632 453.838 113.008 455.022 111.76C456.238 110.48 456.846 108.656 456.846 106.288V91.552H462.318ZM475.01 95.392C475.81 94.048 476.866 93.008 478.178 92.272C479.522 91.504 481.106 91.12 482.93 91.12V96.784H481.538C479.394 96.784 477.762 97.328 476.642 98.416C475.554 99.504 475.01 101.392 475.01 104.08V118H469.538V91.552H475.01V95.392ZM505.9 95.488C506.828 94.208 508.092 93.168 509.692 92.368C511.324 91.536 513.132 91.12 515.116 91.12C517.452 91.12 519.564 91.68 521.452 92.8C523.34 93.92 524.828 95.52 525.916 97.6C527.004 99.648 527.548 102 527.548 104.656C527.548 107.312 527.004 109.696 525.916 111.808C524.828 113.888 523.324 115.52 521.404 116.704C519.516 117.856 517.42 118.432 515.116 118.432C513.068 118.432 511.244 118.032 509.644 117.232C508.076 116.432 506.828 115.408 505.9 114.16V118H500.428V82.48H505.9V95.488ZM521.98 104.656C521.98 102.832 521.596 101.264 520.828 99.952C520.092 98.608 519.1 97.6 517.852 96.928C516.636 96.224 515.324 95.872 513.916 95.872C512.54 95.872 511.228 96.224 509.98 96.928C508.764 97.632 507.772 98.656 507.004 100C506.268 101.344 505.9 102.928 505.9 104.752C505.9 106.576 506.268 108.176 507.004 109.552C507.772 110.896 508.764 111.92 509.98 112.624C511.228 113.328 512.54 113.68 513.916 113.68C515.324 113.68 516.636 113.328 517.852 112.624C519.1 111.888 520.092 110.832 520.828 109.456C521.596 108.08 521.98 106.48 521.98 104.656ZM556.911 91.552V118H551.439V114.88C550.575 115.968 549.439 116.832 548.031 117.472C546.655 118.08 545.183 118.384 543.615 118.384C541.535 118.384 539.663 117.952 537.999 117.088C536.367 116.224 535.071 114.944 534.111 113.248C533.183 111.552 532.719 109.504 532.719 107.104V91.552H538.143V106.288C538.143 108.656 538.735 110.48 539.919 111.76C541.103 113.008 542.719 113.632 544.767 113.632C546.815 113.632 548.431 113.008 549.615 111.76C550.831 110.48 551.439 108.656 551.439 106.288V91.552H556.911ZM574.787 91.12C576.835 91.12 578.643 91.536 580.211 92.368C581.811 93.168 583.059 94.176 583.955 95.392V91.552H589.475V118.432C589.475 120.864 588.963 123.024 587.939 124.912C586.915 126.832 585.427 128.336 583.475 129.424C581.555 130.512 579.251 131.056 576.563 131.056C572.979 131.056 570.003 130.208 567.635 128.512C565.267 126.848 563.923 124.576 563.603 121.696H569.027C569.443 123.072 570.323 124.176 571.667 125.008C573.043 125.872 574.675 126.304 576.563 126.304C578.771 126.304 580.547 125.632 581.891 124.288C583.267 122.944 583.955 120.992 583.955 118.432V114.016C583.027 115.264 581.763 116.32 580.163 117.184C578.595 118.016 576.803 118.432 574.787 118.432C572.483 118.432 570.371 117.856 568.451 116.704C566.563 115.52 565.059 113.888 563.939 111.808C562.851 109.696 562.307 107.312 562.307 104.656C562.307 102 562.851 99.648 563.939 97.6C565.059 95.552 566.563 93.968 568.451 92.848C570.371 91.696 572.483 91.12 574.787 91.12ZM583.955 104.752C583.955 102.928 583.571 101.344 582.803 100C582.067 98.656 581.091 97.632 579.875 96.928C578.659 96.224 577.347 95.872 575.939 95.872C574.531 95.872 573.219 96.224 572.003 96.928C570.787 97.6 569.795 98.608 569.027 99.952C568.291 101.264 567.923 102.832 567.923 104.656C567.923 106.48 568.291 108.08 569.027 109.456C569.795 110.832 570.787 111.888 572.003 112.624C573.251 113.328 574.563 113.68 575.939 113.68C577.347 113.68 578.659 113.328 579.875 112.624C581.091 111.92 582.067 110.896 582.803 109.552C583.571 108.176 583.955 106.576 583.955 104.752ZM606.263 118.432C604.183 118.432 602.311 118.064 600.647 117.328C599.015 116.56 597.719 115.536 596.759 114.256C595.799 112.944 595.287 111.488 595.223 109.888H600.887C600.983 111.008 601.511 111.952 602.471 112.72C603.463 113.456 604.695 113.824 606.167 113.824C607.703 113.824 608.887 113.536 609.719 112.96C610.583 112.352 611.015 111.584 611.015 110.656C611.015 109.664 610.535 108.928 609.575 108.448C608.647 107.968 607.159 107.44 605.111 106.864C603.127 106.32 601.511 105.792 600.263 105.28C599.015 104.768 597.927 103.984 596.999 102.928C596.103 101.872 595.655 100.48 595.655 98.752C595.655 97.344 596.071 96.064 596.903 94.912C597.735 93.728 598.919 92.8 600.455 92.128C602.023 91.456 603.815 91.12 605.831 91.12C608.839 91.12 611.255 91.888 613.079 93.424C614.935 94.928 615.927 96.992 616.055 99.616H610.583C610.487 98.432 610.007 97.488 609.143 96.784C608.279 96.08 607.111 95.728 605.639 95.728C604.199 95.728 603.095 96 602.327 96.544C601.559 97.088 601.175 97.808 601.175 98.704C601.175 99.408 601.431 100 601.943 100.48C602.455 100.96 603.079 101.344 603.815 101.632C604.551 101.888 605.639 102.224 607.079 102.64C608.999 103.152 610.567 103.68 611.783 104.224C613.031 104.736 614.103 105.504 614.999 106.528C615.895 107.552 616.359 108.912 616.391 110.608C616.391 112.112 615.975 113.456 615.143 114.64C614.311 115.824 613.127 116.752 611.591 117.424C610.087 118.096 608.311 118.432 606.263 118.432ZM640.244 82.48V118H634.772V82.48H640.244ZM658.9 118.432C656.404 118.432 654.148 117.872 652.132 116.752C650.116 115.6 648.532 114 647.38 111.952C646.228 109.872 645.652 107.472 645.652 104.752C645.652 102.064 646.244 99.68 647.428 97.6C648.612 95.52 650.228 93.92 652.276 92.8C654.324 91.68 656.612 91.12 659.14 91.12C661.668 91.12 663.956 91.68 666.004 92.8C668.052 93.92 669.668 95.52 670.852 97.6C672.036 99.68 672.628 102.064 672.628 104.752C672.628 107.44 672.02 109.824 670.804 111.904C669.588 113.984 667.924 115.6 665.812 116.752C663.732 117.872 661.428 118.432 658.9 118.432ZM658.9 113.68C660.308 113.68 661.62 113.344 662.836 112.672C664.084 112 665.092 110.992 665.86 109.648C666.628 108.304 667.012 106.672 667.012 104.752C667.012 102.832 666.644 101.216 665.908 99.904C665.172 98.56 664.196 97.552 662.98 96.88C661.764 96.208 660.452 95.872 659.044 95.872C657.636 95.872 656.324 96.208 655.108 96.88C653.924 97.552 652.98 98.56 652.276 99.904C651.572 101.216 651.22 102.832 651.22 104.752C651.22 107.6 651.94 109.808 653.38 111.376C654.852 112.912 656.692 113.68 658.9 113.68ZM713.558 91.552L705.35 118H699.59L694.262 98.464L688.934 118H683.174L674.918 91.552H680.486L686.006 112.816L691.622 91.552H697.334L702.71 112.72L708.182 91.552H713.558ZM737.951 98.32V102.928H718.223V98.32H737.951ZM743.901 104.752C743.901 102.032 744.445 99.648 745.533 97.6C746.653 95.52 748.189 93.92 750.141 92.8C752.093 91.68 754.333 91.12 756.861 91.12C760.061 91.12 762.701 91.888 764.781 93.424C766.893 94.928 768.317 97.088 769.053 99.904H763.149C762.669 98.592 761.901 97.568 760.845 96.832C759.789 96.096 758.461 95.728 756.861 95.728C754.621 95.728 752.829 96.528 751.485 98.128C750.173 99.696 749.517 101.904 749.517 104.752C749.517 107.6 750.173 109.824 751.485 111.424C752.829 113.024 754.621 113.824 756.861 113.824C760.029 113.824 762.125 112.432 763.149 109.648H769.053C768.285 112.336 766.845 114.48 764.733 116.08C762.621 117.648 759.997 118.432 756.861 118.432C754.333 118.432 752.093 117.872 750.141 116.752C748.189 115.6 746.653 114 745.533 111.952C744.445 109.872 743.901 107.472 743.901 104.752ZM772.682 104.656C772.682 102 773.226 99.648 774.314 97.6C775.434 95.552 776.938 93.968 778.826 92.848C780.746 91.696 782.858 91.12 785.162 91.12C787.242 91.12 789.05 91.536 790.586 92.368C792.154 93.168 793.402 94.176 794.33 95.392V91.552H799.85V118H794.33V114.064C793.402 115.312 792.138 116.352 790.538 117.184C788.938 118.016 787.114 118.432 785.066 118.432C782.794 118.432 780.714 117.856 778.826 116.704C776.938 115.52 775.434 113.888 774.314 111.808C773.226 109.696 772.682 107.312 772.682 104.656ZM794.33 104.752C794.33 102.928 793.946 101.344 793.178 100C792.442 98.656 791.466 97.632 790.25 96.928C789.034 96.224 787.722 95.872 786.314 95.872C784.906 95.872 783.594 96.224 782.378 96.928C781.162 97.6 780.17 98.608 779.402 99.952C778.666 101.264 778.298 102.832 778.298 104.656C778.298 106.48 778.666 108.08 779.402 109.456C780.17 110.832 781.162 111.888 782.378 112.624C783.626 113.328 784.938 113.68 786.314 113.68C787.722 113.68 789.034 113.328 790.25 112.624C791.466 111.92 792.442 110.896 793.178 109.552C793.946 108.176 794.33 106.576 794.33 104.752ZM812.51 95.392C813.31 94.048 814.366 93.008 815.678 92.272C817.022 91.504 818.606 91.12 820.43 91.12V96.784H819.038C816.894 96.784 815.262 97.328 814.142 98.416C813.054 99.504 812.51 101.392 812.51 104.08V118H807.038V91.552H812.51V95.392ZM830.931 95.488C831.859 94.208 833.123 93.168 834.723 92.368C836.355 91.536 838.163 91.12 840.147 91.12C842.483 91.12 844.595 91.68 846.483 92.8C848.371 93.92 849.859 95.52 850.947 97.6C852.035 99.648 852.579 102 852.579 104.656C852.579 107.312 852.035 109.696 850.947 111.808C849.859 113.888 848.355 115.52 846.435 116.704C844.547 117.856 842.451 118.432 840.147 118.432C838.099 118.432 836.275 118.032 834.675 117.232C833.107 116.432 831.859 115.408 830.931 114.16V118H825.459V82.48H830.931V95.488ZM847.011 104.656C847.011 102.832 846.627 101.264 845.859 99.952C845.123 98.608 844.131 97.6 842.883 96.928C841.667 96.224 840.355 95.872 838.947 95.872C837.571 95.872 836.259 96.224 835.011 96.928C833.795 97.632 832.803 98.656 832.035 100C831.299 101.344 830.931 102.928 830.931 104.752C830.931 106.576 831.299 108.176 832.035 109.552C832.803 110.896 833.795 111.92 835.011 112.624C836.259 113.328 837.571 113.68 838.947 113.68C840.355 113.68 841.667 113.328 842.883 112.624C844.131 111.888 845.123 110.832 845.859 109.456C846.627 108.08 847.011 106.48 847.011 104.656ZM867.591 118.432C865.511 118.432 863.639 118.064 861.975 117.328C860.343 116.56 859.047 115.536 858.087 114.256C857.127 112.944 856.615 111.488 856.551 109.888H862.215C862.311 111.008 862.839 111.952 863.799 112.72C864.791 113.456 866.023 113.824 867.495 113.824C869.031 113.824 870.215 113.536 871.047 112.96C871.911 112.352 872.343 111.584 872.343 110.656C872.343 109.664 871.863 108.928 870.903 108.448C869.975 107.968 868.487 107.44 866.439 106.864C864.455 106.32 862.839 105.792 861.591 105.28C860.343 104.768 859.255 103.984 858.327 102.928C857.431 101.872 856.983 100.48 856.983 98.752C856.983 97.344 857.399 96.064 858.231 94.912C859.063 93.728 860.247 92.8 861.783 92.128C863.351 91.456 865.143 91.12 867.159 91.12C870.167 91.12 872.583 91.888 874.407 93.424C876.263 94.928 877.255 96.992 877.383 99.616H871.911C871.815 98.432 871.335 97.488 870.471 96.784C869.607 96.08 868.439 95.728 866.967 95.728C865.527 95.728 864.423 96 863.655 96.544C862.887 97.088 862.503 97.808 862.503 98.704C862.503 99.408 862.759 100 863.271 100.48C863.783 100.96 864.407 101.344 865.143 101.632C865.879 101.888 866.967 102.224 868.407 102.64C870.327 103.152 871.895 103.68 873.111 104.224C874.359 104.736 875.431 105.504 876.327 106.528C877.223 107.552 877.687 108.912 877.719 110.608C877.719 112.112 877.303 113.456 876.471 114.64C875.639 115.824 874.455 116.752 872.919 117.424C871.415 118.096 869.639 118.432 867.591 118.432Z" fill="#2A323C"/>
<path d="M238.187 28.768C238.331 28.288 239.291 28.432 239.147 29.008C238.187 32.368 236.507 34.336 232.523 35.44C234.347 40.768 233.051 48.784 225.131 49.264C221.243 49.504 219.227 47.296 218.843 44.224C218.699 43.216 218.795 42.016 219.179 40.912C220.139 37.888 222.395 36.928 225.275 36.352C223.019 33.184 220.187 29.44 220.715 25.264C221.723 17.008 234.635 17.056 231.803 25.216C231.659 25.744 231.323 25.408 230.795 25.216C232.763 19.936 226.907 19.216 226.379 23.056C225.803 27.76 229.835 30.928 231.995 34.528C235.547 33.616 237.275 32.032 238.187 28.768ZM228.011 43.84C228.443 41.008 227.387 39.424 225.899 37.216C223.259 37.744 220.907 38.368 220.091 41.296C219.851 42.256 219.803 43.216 219.947 44.032C220.379 46.24 221.915 47.392 224.555 47.2C226.187 47.104 227.627 46.048 228.011 43.84ZM259.532 28.672C259.628 28.24 260.636 28.24 260.492 28.768C259.34 33.376 257.132 40.096 251.948 41.104C249.692 45.376 245.612 48.448 240.668 47.008C229.436 43.744 235.964 21.952 247.292 24.256C254.252 25.696 255.164 33.76 252.524 39.952C256.556 38.56 258.524 32.656 259.532 28.672ZM251.18 33.904C251.612 29.92 250.796 26.368 248.108 25.984C243.212 25.36 238.028 43.216 242.78 44.992C245.324 46 247.532 43.984 249.116 41.008C244.556 39.616 245.228 33.232 249.308 33.232C249.98 33.232 250.652 33.472 251.18 33.904ZM275.291 28.672C275.387 28.24 276.347 28.24 276.251 28.768C275.051 33.472 271.307 45.952 264.875 46C254.699 46 258.155 33.328 259.691 25.936C260.795 20.368 262.091 14.512 263.291 9.568C264.731 3.472 268.715 0.831998 272.123 0.975999C274.475 1.072 276.491 2.464 277.211 5.008C278.027 7.888 276.491 11.776 274.907 14.944C272.123 20.464 267.851 26.416 265.787 28.48C265.451 30.112 265.163 31.744 264.875 33.28C264.155 37.984 263.531 44.224 265.931 44.176C270.155 44.032 274.379 32.272 275.291 28.672ZM270.683 7.744C267.947 13.312 266.555 24.64 266.123 26.752C268.331 24.16 271.691 19.264 273.995 14.656C274.571 13.552 275.723 11.008 276.011 8.896C276.395 6.448 275.387 5.392 274.091 5.344C272.891 5.296 271.451 6.208 270.683 7.744ZM303.089 28.672C303.185 28.24 304.145 28.24 304.049 28.768C303.137 32.32 300.641 41.392 296.705 45.232C295.265 46.672 293.297 47.2 291.473 47.056C289.649 46.912 287.969 46.048 287.105 44.704C286.433 43.6 286.433 41.296 286.817 38.608C285.713 41.2 284.321 43.648 282.689 45.232C281.249 46.672 279.281 47.2 277.457 47.056C275.633 46.912 273.953 46.048 273.137 44.704C271.169 41.584 274.913 28.576 276.161 24.688C280.961 24.736 283.409 24.352 282.737 26.752C281.969 29.2 276.065 43.264 279.185 44.416C282.977 45.808 286.721 36.112 288.353 31.12C289.025 28.432 289.745 26.032 290.129 24.688C294.977 24.736 296.897 24.352 296.177 26.752C295.457 29.2 289.985 43.312 293.201 44.416C297.905 46.048 302.465 31.024 303.089 28.672ZM319.078 28.672C319.222 28.24 320.182 28.24 320.086 28.768C318.502 35.104 315.238 47.824 306.646 47.008C303.718 46.72 301.222 44.752 301.174 41.248C301.126 35.824 303.478 26.608 305.158 19.072C302.134 19.36 299.302 19.312 297.526 18.064C297.142 17.776 297.574 17.536 297.91 17.152C299.446 18.4 302.278 18.4 305.398 18.064L306.838 11.632C310.246 11.44 313.702 10.912 313.27 13.552C313.126 14.512 312.886 15.712 312.55 17.152C315.718 16.912 318.31 17.104 319.27 18.976C319.558 19.456 319.078 19.408 318.55 19.648C317.878 18.016 315.382 17.872 312.358 18.16C310.342 27.568 306.07 43.936 309.766 43.936C314.662 43.936 318.022 33.04 319.078 28.672ZM323.974 23.344C322.198 23.344 320.758 21.76 320.758 19.792C320.758 17.872 322.198 16.288 323.974 16.288C325.798 16.288 327.238 17.872 327.238 19.792C327.238 21.76 325.798 23.344 323.974 23.344ZM332.95 28.672C333.046 28.24 334.054 28.24 333.91 28.768C332.758 33.328 329.014 46 322.87 46C314.95 46 316.102 39.088 317.638 32.752C318.31 30.016 319.174 27.376 320.038 24.688C324.886 24.736 326.614 24.352 325.894 26.752C324.358 32.032 320.422 44.08 323.878 44.128C324.694 44.128 325.606 43.744 326.23 43.168C329.782 39.856 332.134 31.84 332.95 28.672ZM354.313 28.672C354.409 28.24 355.417 28.24 355.273 28.768C354.121 33.376 351.913 40.096 346.729 41.104C344.473 45.376 340.393 48.448 335.449 47.008C324.217 43.744 330.745 21.952 342.073 24.256C349.033 25.696 349.945 33.76 347.305 39.952C351.337 38.56 353.305 32.656 354.313 28.672ZM345.961 33.904C346.393 29.92 345.577 26.368 342.889 25.984C337.993 25.36 332.809 43.216 337.561 44.992C340.105 46 342.313 43.984 343.897 41.008C339.337 39.616 340.009 33.232 344.089 33.232C344.761 33.232 345.433 33.472 345.961 33.904ZM379.96 28.672C380.104 28.24 381.064 28.24 380.92 28.768C379.96 32.8 374.488 48.112 368.44 47.488C366.088 47.296 364.216 46.336 363.448 44.992C360.856 40.192 368.104 26.992 366.136 26.896C362.152 26.704 357.928 42.544 357.448 46C357.352 46.192 351.064 46.816 351.448 43.744C352.264 37.264 353.848 28.864 354.616 25.696C354.808 25.072 361.624 23.344 360.568 27.424C359.752 30.544 359.176 33.904 358.648 37.216C360.376 31.456 363.016 25.12 366.712 25.12C379.336 25.12 365.704 44.656 369.4 45.136C374.008 45.808 379.192 31.792 379.96 28.672ZM396.625 28.768C396.769 28.288 397.729 28.432 397.585 29.008C396.625 32.368 394.945 34.336 390.961 35.44C392.785 40.768 391.489 48.784 383.569 49.264C379.681 49.504 377.665 47.296 377.281 44.224C377.137 43.216 377.233 42.016 377.617 40.912C378.577 37.888 380.833 36.928 383.713 36.352C381.457 33.184 378.625 29.44 379.153 25.264C380.161 17.008 393.073 17.056 390.241 25.216C390.097 25.744 389.761 25.408 389.233 25.216C391.201 19.936 385.345 19.216 384.817 23.056C384.241 27.76 388.273 30.928 390.433 34.528C393.985 33.616 395.713 32.032 396.625 28.768ZM386.449 43.84C386.881 41.008 385.825 39.424 384.337 37.216C381.697 37.744 379.345 38.368 378.529 41.296C378.289 42.256 378.241 43.216 378.385 44.032C378.817 46.24 380.353 47.392 382.993 47.2C384.625 47.104 386.065 46.048 386.449 43.84Z" fill="url(#paint0_linear_11047_6231)"/>
<defs>
<linearGradient id="paint0_linear_11047_6231" x1="219" y1="36" x2="457.5" y2="35.5" gradientUnits="userSpaceOnUse">
<stop stop-color="#F20790"/>
<stop offset="1" stop-color="#007AFF"/>
</linearGradient>
</defs>
</svg>
