<svg width="24" height="24" viewBox="0 0 24 24" fill="none" xmlns="http://www.w3.org/2000/svg">
<g id="Swap me">
<path id="Vector" d="M12 7.00014C11.6807 7.0002 11.3745 7.1271 11.1488 7.3529L4.33797 14.1637C4.11866 14.3908 3.9973 14.6949 4.00005 15.0106C4.00279 15.3263 4.12941 15.6282 4.35263 15.8515C4.57586 16.0747 4.87783 16.2013 5.1935 16.2041C5.50918 16.2068 5.8133 16.0854 6.04037 15.8661L12 9.90651L17.9596 15.8661C18.1867 16.0854 18.4908 16.2068 18.8065 16.2041C19.1222 16.2013 19.4241 16.0747 19.6474 15.8515C19.8706 15.6282 19.9972 15.3263 20 15.0106C20.0027 14.6949 19.8813 14.3908 19.662 14.1637L12.8512 7.3529C12.6255 7.1271 12.3193 7.0002 12 7.00014Z" fill="#191919" fill-opacity="0.8"/>
</g>
</svg>
