<svg width="224" height="91" viewBox="0 0 224 91" fill="none" xmlns="http://www.w3.org/2000/svg">
<g filter="url(#filter0_d_13520_24768)">
<path d="M6 21C6 12.1634 13.1634 5 22 5H193C201.837 5 209 12.1634 209 21V61C209 69.8366 201.837 77 193 77H22C13.1634 77 6 69.8366 6 61V21Z" fill="url(#paint0_linear_13520_24768)" shape-rendering="crispEdges"/>
<path d="M6.5 21C6.5 12.4396 13.4396 5.5 22 5.5H193C201.56 5.5 208.5 12.4396 208.5 21V61C208.5 69.5604 201.56 76.5 193 76.5H22C13.4396 76.5 6.5 69.5604 6.5 61V21Z" stroke="black" stroke-opacity="0.06" shape-rendering="crispEdges"/>
<path d="M30.0007 20C29.7473 20 29.4934 20.0849 29.2852 20.2536C28.6044 20.8053 27.9937 21.4392 27.4673 22.141C27.3086 22.3527 27.29 22.6382 27.42 22.8686C27.5501 23.0991 27.8041 23.2308 28.0673 23.2043C28.2727 23.1837 28.468 23.1609 28.6569 23.1388C28.8902 23.1115 29.1137 23.0853 29.334 23.0659V28C29.334 28.3682 29.6325 28.6667 30.0007 28.6667C30.3688 28.6667 30.6673 28.3682 30.6673 28V23.0659C30.8876 23.0853 31.111 23.1115 31.3443 23.1388C31.5332 23.1608 31.7286 23.1837 31.934 23.2043C32.1972 23.2308 32.4512 23.0991 32.5813 22.8686C32.7113 22.6382 32.6927 22.3527 32.534 22.141C32.0076 21.4392 31.3969 20.8053 30.7161 20.2536C30.5079 20.0849 30.254 20 30.0007 20Z" fill="#191919"/>
<path d="M24.6673 28C24.6673 27.6318 24.3688 27.3333 24.0007 27.3333C23.6325 27.3333 23.334 27.6318 23.334 28C23.334 30.2091 25.1248 32 27.334 32H32.6673C34.8765 32 36.6673 30.2091 36.6673 28C36.6673 27.6318 36.3688 27.3333 36.0007 27.3333C35.6325 27.3333 35.334 27.6318 35.334 28C35.334 29.4728 34.1401 30.6667 32.6673 30.6667H27.334C25.8612 30.6667 24.6673 29.4728 24.6673 28Z" fill="#191919"/>
<path d="M43.992 21.636V26.928C43.992 27.672 44.172 28.224 44.532 28.584C44.9 28.944 45.408 29.124 46.056 29.124C46.696 29.124 47.196 28.944 47.556 28.584C47.924 28.224 48.108 27.672 48.108 26.928V21.636H49.2V26.916C49.2 27.612 49.06 28.2 48.78 28.68C48.5 29.152 48.12 29.504 47.64 29.736C47.168 29.968 46.636 30.084 46.044 30.084C45.452 30.084 44.916 29.968 44.436 29.736C43.964 29.504 43.588 29.152 43.308 28.68C43.036 28.2 42.9 27.612 42.9 26.916V21.636H43.992ZM51.9817 24.636C52.1977 24.26 52.5177 23.948 52.9417 23.7C53.3737 23.444 53.8737 23.316 54.4417 23.316C55.0257 23.316 55.5537 23.456 56.0257 23.736C56.5057 24.016 56.8817 24.412 57.1537 24.924C57.4257 25.428 57.5617 26.016 57.5617 26.688C57.5617 27.352 57.4257 27.944 57.1537 28.464C56.8817 28.984 56.5057 29.388 56.0257 29.676C55.5537 29.964 55.0257 30.108 54.4417 30.108C53.8817 30.108 53.3857 29.984 52.9537 29.736C52.5297 29.48 52.2057 29.164 51.9817 28.788V33.12H50.8897V23.424H51.9817V24.636ZM56.4457 26.688C56.4457 26.192 56.3457 25.76 56.1457 25.392C55.9457 25.024 55.6737 24.744 55.3297 24.552C54.9937 24.36 54.6217 24.264 54.2137 24.264C53.8137 24.264 53.4417 24.364 53.0977 24.564C52.7617 24.756 52.4897 25.04 52.2817 25.416C52.0817 25.784 51.9817 26.212 51.9817 26.7C51.9817 27.196 52.0817 27.632 52.2817 28.008C52.4897 28.376 52.7617 28.66 53.0977 28.86C53.4417 29.052 53.8137 29.148 54.2137 29.148C54.6217 29.148 54.9937 29.052 55.3297 28.86C55.6737 28.66 55.9457 28.376 56.1457 28.008C56.3457 27.632 56.4457 27.192 56.4457 26.688ZM59.959 21.12V30H58.867V21.12H59.959ZM64.5562 30.108C63.9402 30.108 63.3802 29.968 62.8762 29.688C62.3802 29.408 61.9882 29.012 61.7002 28.5C61.4202 27.98 61.2802 27.38 61.2802 26.7C61.2802 26.028 61.4242 25.436 61.7122 24.924C62.0082 24.404 62.4082 24.008 62.9122 23.736C63.4162 23.456 63.9802 23.316 64.6042 23.316C65.2282 23.316 65.7922 23.456 66.2962 23.736C66.8002 24.008 67.1962 24.4 67.4842 24.912C67.7802 25.424 67.9282 26.02 67.9282 26.7C67.9282 27.38 67.7762 27.98 67.4722 28.5C67.1762 29.012 66.7722 29.408 66.2602 29.688C65.7482 29.968 65.1802 30.108 64.5562 30.108ZM64.5562 29.148C64.9482 29.148 65.3162 29.056 65.6602 28.872C66.0042 28.688 66.2802 28.412 66.4882 28.044C66.7042 27.676 66.8122 27.228 66.8122 26.7C66.8122 26.172 66.7082 25.724 66.5002 25.356C66.2922 24.988 66.0202 24.716 65.6842 24.54C65.3482 24.356 64.9842 24.264 64.5922 24.264C64.1922 24.264 63.8242 24.356 63.4882 24.54C63.1602 24.716 62.8962 24.988 62.6962 25.356C62.4962 25.724 62.3962 26.172 62.3962 26.7C62.3962 27.236 62.4922 27.688 62.6842 28.056C62.8842 28.424 63.1482 28.7 63.4762 28.884C63.8042 29.06 64.1642 29.148 64.5562 29.148ZM68.8239 26.688C68.8239 26.016 68.9599 25.428 69.2319 24.924C69.5039 24.412 69.8759 24.016 70.3479 23.736C70.8279 23.456 71.3599 23.316 71.9439 23.316C72.5199 23.316 73.0199 23.44 73.4439 23.688C73.8679 23.936 74.1839 24.248 74.3919 24.624V23.424H75.4959V30H74.3919V28.776C74.1759 29.16 73.8519 29.48 73.4199 29.736C72.9959 29.984 72.4999 30.108 71.9319 30.108C71.3479 30.108 70.8199 29.964 70.3479 29.676C69.8759 29.388 69.5039 28.984 69.2319 28.464C68.9599 27.944 68.8239 27.352 68.8239 26.688ZM74.3919 26.7C74.3919 26.204 74.2919 25.772 74.0919 25.404C73.8919 25.036 73.6199 24.756 73.2759 24.564C72.9399 24.364 72.5679 24.264 72.1599 24.264C71.7519 24.264 71.3799 24.36 71.0439 24.552C70.7079 24.744 70.4399 25.024 70.2399 25.392C70.0399 25.76 69.9399 26.192 69.9399 26.688C69.9399 27.192 70.0399 27.632 70.2399 28.008C70.4399 28.376 70.7079 28.66 71.0439 28.86C71.3799 29.052 71.7519 29.148 72.1599 29.148C72.5679 29.148 72.9399 29.052 73.2759 28.86C73.6199 28.66 73.8919 28.376 74.0919 28.008C74.2919 27.632 74.3919 27.196 74.3919 26.7ZM76.8013 26.688C76.8013 26.016 76.9373 25.428 77.2093 24.924C77.4813 24.412 77.8533 24.016 78.3253 23.736C78.8053 23.456 79.3413 23.316 79.9333 23.316C80.4453 23.316 80.9213 23.436 81.3613 23.676C81.8013 23.908 82.1373 24.216 82.3693 24.6V21.12H83.4733V30H82.3693V28.764C82.1533 29.156 81.8333 29.48 81.4093 29.736C80.9853 29.984 80.4893 30.108 79.9213 30.108C79.3373 30.108 78.8053 29.964 78.3253 29.676C77.8533 29.388 77.4813 28.984 77.2093 28.464C76.9373 27.944 76.8013 27.352 76.8013 26.688ZM82.3693 26.7C82.3693 26.204 82.2693 25.772 82.0693 25.404C81.8693 25.036 81.5973 24.756 81.2533 24.564C80.9173 24.364 80.5453 24.264 80.1373 24.264C79.7293 24.264 79.3573 24.36 79.0213 24.552C78.6853 24.744 78.4173 25.024 78.2173 25.392C78.0173 25.76 77.9173 26.192 77.9173 26.688C77.9173 27.192 78.0173 27.632 78.2173 28.008C78.4173 28.376 78.6853 28.66 79.0213 28.86C79.3573 29.052 79.7293 29.148 80.1373 29.148C80.5453 29.148 80.9173 29.052 81.2533 28.86C81.5973 28.66 81.8693 28.376 82.0693 28.008C82.2693 27.632 82.3693 27.196 82.3693 26.7ZM88.8179 22.356C88.6099 22.356 88.4339 22.284 88.2899 22.14C88.1459 21.996 88.0739 21.82 88.0739 21.612C88.0739 21.404 88.1459 21.228 88.2899 21.084C88.4339 20.94 88.6099 20.868 88.8179 20.868C89.0179 20.868 89.1859 20.94 89.3219 21.084C89.4659 21.228 89.5379 21.404 89.5379 21.612C89.5379 21.82 89.4659 21.996 89.3219 22.14C89.1859 22.284 89.0179 22.356 88.8179 22.356ZM89.3459 23.424V30H88.2539V23.424H89.3459ZM98.983 23.304C99.495 23.304 99.951 23.412 100.351 23.628C100.751 23.836 101.067 24.152 101.299 24.576C101.531 25 101.647 25.516 101.647 26.124V30H100.567V26.28C100.567 25.624 100.403 25.124 100.075 24.78C99.755 24.428 99.319 24.252 98.767 24.252C98.199 24.252 97.747 24.436 97.411 24.804C97.075 25.164 96.907 25.688 96.907 26.376V30H95.827V26.28C95.827 25.624 95.663 25.124 95.335 24.78C95.015 24.428 94.579 24.252 94.027 24.252C93.459 24.252 93.007 24.436 92.671 24.804C92.335 25.164 92.167 25.688 92.167 26.376V30H91.075V23.424H92.167V24.372C92.383 24.028 92.671 23.764 93.031 23.58C93.399 23.396 93.803 23.304 94.243 23.304C94.795 23.304 95.283 23.428 95.707 23.676C96.131 23.924 96.447 24.288 96.655 24.768C96.839 24.304 97.143 23.944 97.567 23.688C97.991 23.432 98.463 23.304 98.983 23.304ZM102.898 26.688C102.898 26.016 103.034 25.428 103.306 24.924C103.578 24.412 103.95 24.016 104.422 23.736C104.902 23.456 105.434 23.316 106.018 23.316C106.594 23.316 107.094 23.44 107.518 23.688C107.942 23.936 108.258 24.248 108.466 24.624V23.424H109.57V30H108.466V28.776C108.25 29.16 107.926 29.48 107.494 29.736C107.07 29.984 106.574 30.108 106.006 30.108C105.422 30.108 104.894 29.964 104.422 29.676C103.95 29.388 103.578 28.984 103.306 28.464C103.034 27.944 102.898 27.352 102.898 26.688ZM108.466 26.7C108.466 26.204 108.366 25.772 108.166 25.404C107.966 25.036 107.694 24.756 107.35 24.564C107.014 24.364 106.642 24.264 106.234 24.264C105.826 24.264 105.454 24.36 105.118 24.552C104.782 24.744 104.514 25.024 104.314 25.392C104.114 25.76 104.014 26.192 104.014 26.688C104.014 27.192 104.114 27.632 104.314 28.008C104.514 28.376 104.782 28.66 105.118 28.86C105.454 29.052 105.826 29.148 106.234 29.148C106.642 29.148 107.014 29.052 107.35 28.86C107.694 28.66 107.966 28.376 108.166 28.008C108.366 27.632 108.466 27.196 108.466 26.7ZM113.996 23.316C114.564 23.316 115.06 23.44 115.484 23.688C115.916 23.936 116.236 24.248 116.444 24.624V23.424H117.548V30.144C117.548 30.744 117.42 31.276 117.164 31.74C116.908 32.212 116.54 32.58 116.06 32.844C115.588 33.108 115.036 33.24 114.404 33.24C113.54 33.24 112.82 33.036 112.244 32.628C111.668 32.22 111.328 31.664 111.224 30.96H112.304C112.424 31.36 112.672 31.68 113.048 31.92C113.424 32.168 113.876 32.292 114.404 32.292C115.004 32.292 115.492 32.104 115.868 31.728C116.252 31.352 116.444 30.824 116.444 30.144V28.764C116.228 29.148 115.908 29.468 115.484 29.724C115.06 29.98 114.564 30.108 113.996 30.108C113.412 30.108 112.88 29.964 112.4 29.676C111.928 29.388 111.556 28.984 111.284 28.464C111.012 27.944 110.876 27.352 110.876 26.688C110.876 26.016 111.012 25.428 111.284 24.924C111.556 24.412 111.928 24.016 112.4 23.736C112.88 23.456 113.412 23.316 113.996 23.316ZM116.444 26.7C116.444 26.204 116.344 25.772 116.144 25.404C115.944 25.036 115.672 24.756 115.328 24.564C114.992 24.364 114.62 24.264 114.212 24.264C113.804 24.264 113.432 24.36 113.096 24.552C112.76 24.744 112.492 25.024 112.292 25.392C112.092 25.76 111.992 26.192 111.992 26.688C111.992 27.192 112.092 27.632 112.292 28.008C112.492 28.376 112.76 28.66 113.096 28.86C113.432 29.052 113.804 29.148 114.212 29.148C114.62 29.148 114.992 29.052 115.328 28.86C115.672 28.66 115.944 28.376 116.144 28.008C116.344 27.632 116.444 27.196 116.444 26.7ZM125.261 26.46C125.261 26.668 125.249 26.888 125.225 27.12H119.969C120.009 27.768 120.229 28.276 120.629 28.644C121.037 29.004 121.529 29.184 122.105 29.184C122.577 29.184 122.969 29.076 123.281 28.86C123.601 28.636 123.825 28.34 123.953 27.972H125.129C124.953 28.604 124.601 29.12 124.073 29.52C123.545 29.912 122.889 30.108 122.105 30.108C121.481 30.108 120.921 29.968 120.425 29.688C119.937 29.408 119.553 29.012 119.273 28.5C118.993 27.98 118.853 27.38 118.853 26.7C118.853 26.02 118.989 25.424 119.261 24.912C119.533 24.4 119.913 24.008 120.401 23.736C120.897 23.456 121.465 23.316 122.105 23.316C122.729 23.316 123.281 23.452 123.761 23.724C124.241 23.996 124.609 24.372 124.865 24.852C125.129 25.324 125.261 25.86 125.261 26.46ZM124.133 26.232C124.133 25.816 124.041 25.46 123.857 25.164C123.673 24.86 123.421 24.632 123.101 24.48C122.789 24.32 122.441 24.24 122.057 24.24C121.505 24.24 121.033 24.416 120.641 24.768C120.257 25.12 120.037 25.608 119.981 26.232H124.133ZM130.65 18.696L127.362 32.04H126.282L129.558 18.696H130.65ZM131.737 26.688C131.737 26.016 131.873 25.428 132.145 24.924C132.417 24.412 132.789 24.016 133.261 23.736C133.741 23.456 134.277 23.316 134.869 23.316C135.381 23.316 135.857 23.436 136.297 23.676C136.737 23.908 137.073 24.216 137.305 24.6V21.12H138.409V30H137.305V28.764C137.089 29.156 136.769 29.48 136.345 29.736C135.921 29.984 135.425 30.108 134.857 30.108C134.273 30.108 133.741 29.964 133.261 29.676C132.789 29.388 132.417 28.984 132.145 28.464C131.873 27.944 131.737 27.352 131.737 26.688ZM137.305 26.7C137.305 26.204 137.205 25.772 137.005 25.404C136.805 25.036 136.533 24.756 136.189 24.564C135.853 24.364 135.481 24.264 135.073 24.264C134.665 24.264 134.293 24.36 133.957 24.552C133.621 24.744 133.353 25.024 133.153 25.392C132.953 25.76 132.853 26.192 132.853 26.688C132.853 27.192 132.953 27.632 133.153 28.008C133.353 28.376 133.621 28.66 133.957 28.86C134.293 29.052 134.665 29.148 135.073 29.148C135.481 29.148 135.853 29.052 136.189 28.86C136.533 28.66 136.805 28.376 137.005 28.008C137.205 27.632 137.305 27.196 137.305 26.7ZM142.991 30.108C142.375 30.108 141.815 29.968 141.311 29.688C140.815 29.408 140.423 29.012 140.135 28.5C139.855 27.98 139.715 27.38 139.715 26.7C139.715 26.028 139.859 25.436 140.147 24.924C140.443 24.404 140.843 24.008 141.347 23.736C141.851 23.456 142.415 23.316 143.039 23.316C143.663 23.316 144.227 23.456 144.731 23.736C145.235 24.008 145.631 24.4 145.919 24.912C146.215 25.424 146.363 26.02 146.363 26.7C146.363 27.38 146.211 27.98 145.907 28.5C145.611 29.012 145.207 29.408 144.695 29.688C144.183 29.968 143.615 30.108 142.991 30.108ZM142.991 29.148C143.383 29.148 143.751 29.056 144.095 28.872C144.439 28.688 144.715 28.412 144.923 28.044C145.139 27.676 145.247 27.228 145.247 26.7C145.247 26.172 145.143 25.724 144.935 25.356C144.727 24.988 144.455 24.716 144.119 24.54C143.783 24.356 143.419 24.264 143.027 24.264C142.627 24.264 142.259 24.356 141.923 24.54C141.595 24.716 141.331 24.988 141.131 25.356C140.931 25.724 140.831 26.172 140.831 26.7C140.831 27.236 140.927 27.688 141.119 28.056C141.319 28.424 141.583 28.7 141.911 28.884C142.239 29.06 142.599 29.148 142.991 29.148ZM147.259 26.7C147.259 26.02 147.395 25.428 147.667 24.924C147.939 24.412 148.315 24.016 148.795 23.736C149.283 23.456 149.839 23.316 150.463 23.316C151.271 23.316 151.935 23.512 152.455 23.904C152.983 24.296 153.331 24.84 153.499 25.536H152.323C152.211 25.136 151.991 24.82 151.663 24.588C151.343 24.356 150.943 24.24 150.463 24.24C149.839 24.24 149.335 24.456 148.951 24.888C148.567 25.312 148.375 25.916 148.375 26.7C148.375 27.492 148.567 28.104 148.951 28.536C149.335 28.968 149.839 29.184 150.463 29.184C150.943 29.184 151.343 29.072 151.663 28.848C151.983 28.624 152.203 28.304 152.323 27.888H153.499C153.323 28.56 152.971 29.1 152.443 29.508C151.915 29.908 151.255 30.108 150.463 30.108C149.839 30.108 149.283 29.968 148.795 29.688C148.315 29.408 147.939 29.012 147.667 28.5C147.395 27.988 147.259 27.388 147.259 26.7Z" fill="#191919"/>
<path d="M25.576 47.084C25.024 47.084 24.528 46.988 24.088 46.796C23.656 46.596 23.316 46.324 23.068 45.98C22.82 45.628 22.692 45.224 22.684 44.768H23.848C23.888 45.16 24.048 45.492 24.328 45.764C24.616 46.028 25.032 46.16 25.576 46.16C26.096 46.16 26.504 46.032 26.8 45.776C27.104 45.512 27.256 45.176 27.256 44.768C27.256 44.448 27.168 44.188 26.992 43.988C26.816 43.788 26.596 43.636 26.332 43.532C26.068 43.428 25.712 43.316 25.264 43.196C24.712 43.052 24.268 42.908 23.932 42.764C23.604 42.62 23.32 42.396 23.08 42.092C22.848 41.78 22.732 41.364 22.732 40.844C22.732 40.388 22.848 39.984 23.08 39.632C23.312 39.28 23.636 39.008 24.052 38.816C24.476 38.624 24.96 38.528 25.504 38.528C26.288 38.528 26.928 38.724 27.424 39.116C27.928 39.508 28.212 40.028 28.276 40.676H27.076C27.036 40.356 26.868 40.076 26.572 39.836C26.276 39.588 25.884 39.464 25.396 39.464C24.94 39.464 24.568 39.584 24.28 39.824C23.992 40.056 23.848 40.384 23.848 40.808C23.848 41.112 23.932 41.36 24.1 41.552C24.276 41.744 24.488 41.892 24.736 41.996C24.992 42.092 25.348 42.204 25.804 42.332C26.356 42.484 26.8 42.636 27.136 42.788C27.472 42.932 27.76 43.16 28 43.472C28.24 43.776 28.36 44.192 28.36 44.72C28.36 45.128 28.252 45.512 28.036 45.872C27.82 46.232 27.5 46.524 27.076 46.748C26.652 46.972 26.152 47.084 25.576 47.084ZM35.667 40.424V47H34.575V46.028C34.367 46.364 34.075 46.628 33.699 46.82C33.331 47.004 32.923 47.096 32.475 47.096C31.963 47.096 31.503 46.992 31.095 46.784C30.687 46.568 30.363 46.248 30.123 45.824C29.891 45.4 29.775 44.884 29.775 44.276V40.424H30.855V44.132C30.855 44.78 31.019 45.28 31.347 45.632C31.675 45.976 32.123 46.148 32.691 46.148C33.275 46.148 33.735 45.968 34.071 45.608C34.407 45.248 34.575 44.724 34.575 44.036V40.424H35.667ZM38.4708 41.636C38.6868 41.26 39.0068 40.948 39.4308 40.7C39.8628 40.444 40.3628 40.316 40.9308 40.316C41.5148 40.316 42.0428 40.456 42.5148 40.736C42.9948 41.016 43.3708 41.412 43.6428 41.924C43.9148 42.428 44.0508 43.016 44.0508 43.688C44.0508 44.352 43.9148 44.944 43.6428 45.464C43.3708 45.984 42.9948 46.388 42.5148 46.676C42.0428 46.964 41.5148 47.108 40.9308 47.108C40.3708 47.108 39.8748 46.984 39.4428 46.736C39.0188 46.48 38.6948 46.164 38.4708 45.788V50.12H37.3788V40.424H38.4708V41.636ZM42.9348 43.688C42.9348 43.192 42.8348 42.76 42.6348 42.392C42.4348 42.024 42.1628 41.744 41.8188 41.552C41.4828 41.36 41.1108 41.264 40.7028 41.264C40.3028 41.264 39.9308 41.364 39.5868 41.564C39.2508 41.756 38.9788 42.04 38.7708 42.416C38.5708 42.784 38.4708 43.212 38.4708 43.7C38.4708 44.196 38.5708 44.632 38.7708 45.008C38.9788 45.376 39.2508 45.66 39.5868 45.86C39.9308 46.052 40.3028 46.148 40.7028 46.148C41.1108 46.148 41.4828 46.052 41.8188 45.86C42.1628 45.66 42.4348 45.376 42.6348 45.008C42.8348 44.632 42.9348 44.192 42.9348 43.688ZM46.4481 41.636C46.6641 41.26 46.9841 40.948 47.4081 40.7C47.8401 40.444 48.3401 40.316 48.9081 40.316C49.4921 40.316 50.0201 40.456 50.4921 40.736C50.9721 41.016 51.3481 41.412 51.6201 41.924C51.8921 42.428 52.0281 43.016 52.0281 43.688C52.0281 44.352 51.8921 44.944 51.6201 45.464C51.3481 45.984 50.9721 46.388 50.4921 46.676C50.0201 46.964 49.4921 47.108 48.9081 47.108C48.3481 47.108 47.8521 46.984 47.4201 46.736C46.9961 46.48 46.6721 46.164 46.4481 45.788V50.12H45.3561V40.424H46.4481V41.636ZM50.9121 43.688C50.9121 43.192 50.8121 42.76 50.6121 42.392C50.4121 42.024 50.1401 41.744 49.7961 41.552C49.4601 41.36 49.0881 41.264 48.6801 41.264C48.2801 41.264 47.9081 41.364 47.5641 41.564C47.2281 41.756 46.9561 42.04 46.7481 42.416C46.5481 42.784 46.4481 43.212 46.4481 43.7C46.4481 44.196 46.5481 44.632 46.7481 45.008C46.9561 45.376 47.2281 45.66 47.5641 45.86C47.9081 46.052 48.2801 46.148 48.6801 46.148C49.0881 46.148 49.4601 46.052 49.7961 45.86C50.1401 45.66 50.4121 45.376 50.6121 45.008C50.8121 44.632 50.9121 44.192 50.9121 43.688ZM56.2015 47.108C55.5855 47.108 55.0255 46.968 54.5215 46.688C54.0255 46.408 53.6335 46.012 53.3455 45.5C53.0655 44.98 52.9255 44.38 52.9255 43.7C52.9255 43.028 53.0695 42.436 53.3575 41.924C53.6535 41.404 54.0535 41.008 54.5575 40.736C55.0615 40.456 55.6255 40.316 56.2495 40.316C56.8735 40.316 57.4375 40.456 57.9415 40.736C58.4455 41.008 58.8415 41.4 59.1295 41.912C59.4255 42.424 59.5735 43.02 59.5735 43.7C59.5735 44.38 59.4215 44.98 59.1175 45.5C58.8215 46.012 58.4175 46.408 57.9055 46.688C57.3935 46.968 56.8255 47.108 56.2015 47.108ZM56.2015 46.148C56.5935 46.148 56.9615 46.056 57.3055 45.872C57.6495 45.688 57.9255 45.412 58.1335 45.044C58.3495 44.676 58.4575 44.228 58.4575 43.7C58.4575 43.172 58.3535 42.724 58.1455 42.356C57.9375 41.988 57.6655 41.716 57.3295 41.54C56.9935 41.356 56.6295 41.264 56.2375 41.264C55.8375 41.264 55.4695 41.356 55.1335 41.54C54.8055 41.716 54.5415 41.988 54.3415 42.356C54.1415 42.724 54.0415 43.172 54.0415 43.7C54.0415 44.236 54.1375 44.688 54.3295 45.056C54.5295 45.424 54.7935 45.7 55.1215 45.884C55.4495 46.06 55.8095 46.148 56.2015 46.148ZM61.9693 41.492C62.1613 41.116 62.4333 40.824 62.7853 40.616C63.1453 40.408 63.5813 40.304 64.0933 40.304V41.432H63.8053C62.5813 41.432 61.9693 42.096 61.9693 43.424V47H60.8773V40.424H61.9693V41.492ZM66.5538 41.324V45.2C66.5538 45.52 66.6218 45.748 66.7578 45.884C66.8938 46.012 67.1298 46.076 67.4658 46.076H68.2698V47H67.2858C66.6778 47 66.2218 46.86 65.9178 46.58C65.6138 46.3 65.4618 45.84 65.4618 45.2V41.324H64.6098V40.424H65.4618V38.768H66.5538V40.424H68.2698V41.324H66.5538ZM75.4609 43.46C75.4609 43.668 75.4489 43.888 75.4249 44.12H70.1689C70.2089 44.768 70.4289 45.276 70.8289 45.644C71.2369 46.004 71.7289 46.184 72.3049 46.184C72.7769 46.184 73.1689 46.076 73.4809 45.86C73.8009 45.636 74.0249 45.34 74.1529 44.972H75.3289C75.1529 45.604 74.8009 46.12 74.2729 46.52C73.7449 46.912 73.0889 47.108 72.3049 47.108C71.6809 47.108 71.1209 46.968 70.6249 46.688C70.1369 46.408 69.7529 46.012 69.4729 45.5C69.1929 44.98 69.0529 44.38 69.0529 43.7C69.0529 43.02 69.1889 42.424 69.4609 41.912C69.7329 41.4 70.1129 41.008 70.6009 40.736C71.0969 40.456 71.6649 40.316 72.3049 40.316C72.9289 40.316 73.4809 40.452 73.9609 40.724C74.4409 40.996 74.8089 41.372 75.0649 41.852C75.3289 42.324 75.4609 42.86 75.4609 43.46ZM74.3329 43.232C74.3329 42.816 74.2409 42.46 74.0569 42.164C73.8729 41.86 73.6209 41.632 73.3009 41.48C72.9889 41.32 72.6409 41.24 72.2569 41.24C71.7049 41.24 71.2329 41.416 70.8409 41.768C70.4569 42.12 70.2369 42.608 70.1809 43.232H74.3329ZM76.3623 43.688C76.3623 43.016 76.4983 42.428 76.7703 41.924C77.0423 41.412 77.4143 41.016 77.8863 40.736C78.3663 40.456 78.9023 40.316 79.4943 40.316C80.0063 40.316 80.4823 40.436 80.9223 40.676C81.3623 40.908 81.6983 41.216 81.9303 41.6V38.12H83.0343V47H81.9303V45.764C81.7143 46.156 81.3943 46.48 80.9703 46.736C80.5463 46.984 80.0503 47.108 79.4823 47.108C78.8983 47.108 78.3663 46.964 77.8863 46.676C77.4143 46.388 77.0423 45.984 76.7703 45.464C76.4983 44.944 76.3623 44.352 76.3623 43.688ZM81.9303 43.7C81.9303 43.204 81.8303 42.772 81.6303 42.404C81.4303 42.036 81.1583 41.756 80.8143 41.564C80.4783 41.364 80.1063 41.264 79.6983 41.264C79.2903 41.264 78.9183 41.36 78.5823 41.552C78.2463 41.744 77.9783 42.024 77.7783 42.392C77.5783 42.76 77.4783 43.192 77.4783 43.688C77.4783 44.192 77.5783 44.632 77.7783 45.008C77.9783 45.376 78.2463 45.66 78.5823 45.86C78.9183 46.052 79.2903 46.148 79.6983 46.148C80.1063 46.148 80.4783 46.052 80.8143 45.86C81.1583 45.66 81.4303 45.376 81.6303 45.008C81.8303 44.632 81.9303 44.196 81.9303 43.7ZM90.4909 41.324H89.1109V47H88.0189V41.324H87.1669V40.424H88.0189V39.956C88.0189 39.22 88.2069 38.684 88.5829 38.348C88.9669 38.004 89.5789 37.832 90.4189 37.832V38.744C89.9389 38.744 89.5989 38.84 89.3989 39.032C89.2069 39.216 89.1109 39.524 89.1109 39.956V40.424H90.4909V41.324ZM94.5002 47.108C93.8842 47.108 93.3242 46.968 92.8202 46.688C92.3242 46.408 91.9322 46.012 91.6442 45.5C91.3642 44.98 91.2242 44.38 91.2242 43.7C91.2242 43.028 91.3682 42.436 91.6562 41.924C91.9522 41.404 92.3522 41.008 92.8562 40.736C93.3602 40.456 93.9242 40.316 94.5482 40.316C95.1722 40.316 95.7362 40.456 96.2402 40.736C96.7442 41.008 97.1402 41.4 97.4282 41.912C97.7242 42.424 97.8722 43.02 97.8722 43.7C97.8722 44.38 97.7202 44.98 97.4162 45.5C97.1202 46.012 96.7162 46.408 96.2042 46.688C95.6922 46.968 95.1242 47.108 94.5002 47.108ZM94.5002 46.148C94.8922 46.148 95.2602 46.056 95.6042 45.872C95.9482 45.688 96.2242 45.412 96.4322 45.044C96.6482 44.676 96.7562 44.228 96.7562 43.7C96.7562 43.172 96.6522 42.724 96.4442 42.356C96.2362 41.988 95.9642 41.716 95.6282 41.54C95.2922 41.356 94.9282 41.264 94.5362 41.264C94.1362 41.264 93.7682 41.356 93.4322 41.54C93.1042 41.716 92.8402 41.988 92.6402 42.356C92.4402 42.724 92.3402 43.172 92.3402 43.7C92.3402 44.236 92.4362 44.688 92.6282 45.056C92.8282 45.424 93.0922 45.7 93.4202 45.884C93.7482 46.06 94.1082 46.148 94.5002 46.148ZM100.268 41.492C100.46 41.116 100.732 40.824 101.084 40.616C101.444 40.408 101.88 40.304 102.392 40.304V41.432H102.104C100.88 41.432 100.268 42.096 100.268 43.424V47H99.1759V40.424H100.268V41.492ZM111.428 40.304C111.94 40.304 112.396 40.412 112.796 40.628C113.196 40.836 113.512 41.152 113.744 41.576C113.976 42 114.092 42.516 114.092 43.124V47H113.012V43.28C113.012 42.624 112.848 42.124 112.52 41.78C112.2 41.428 111.764 41.252 111.212 41.252C110.644 41.252 110.192 41.436 109.856 41.804C109.52 42.164 109.352 42.688 109.352 43.376V47H108.272V43.28C108.272 42.624 108.108 42.124 107.78 41.78C107.46 41.428 107.024 41.252 106.472 41.252C105.904 41.252 105.452 41.436 105.116 41.804C104.78 42.164 104.612 42.688 104.612 43.376V47H103.52V40.424H104.612V41.372C104.828 41.028 105.116 40.764 105.476 40.58C105.844 40.396 106.248 40.304 106.688 40.304C107.24 40.304 107.728 40.428 108.152 40.676C108.576 40.924 108.892 41.288 109.1 41.768C109.284 41.304 109.588 40.944 110.012 40.688C110.436 40.432 110.908 40.304 111.428 40.304ZM115.344 43.688C115.344 43.016 115.48 42.428 115.752 41.924C116.024 41.412 116.396 41.016 116.868 40.736C117.348 40.456 117.88 40.316 118.464 40.316C119.04 40.316 119.54 40.44 119.964 40.688C120.388 40.936 120.704 41.248 120.912 41.624V40.424H122.016V47H120.912V45.776C120.696 46.16 120.372 46.48 119.94 46.736C119.516 46.984 119.02 47.108 118.452 47.108C117.868 47.108 117.34 46.964 116.868 46.676C116.396 46.388 116.024 45.984 115.752 45.464C115.48 44.944 115.344 44.352 115.344 43.688ZM120.912 43.7C120.912 43.204 120.812 42.772 120.612 42.404C120.412 42.036 120.14 41.756 119.796 41.564C119.46 41.364 119.088 41.264 118.68 41.264C118.272 41.264 117.9 41.36 117.564 41.552C117.228 41.744 116.96 42.024 116.76 42.392C116.56 42.76 116.46 43.192 116.46 43.688C116.46 44.192 116.56 44.632 116.76 45.008C116.96 45.376 117.228 45.66 117.564 45.86C117.9 46.052 118.272 46.148 118.68 46.148C119.088 46.148 119.46 46.052 119.796 45.86C120.14 45.66 120.412 45.376 120.612 45.008C120.812 44.632 120.912 44.196 120.912 43.7ZM125.061 41.324V45.2C125.061 45.52 125.129 45.748 125.265 45.884C125.401 46.012 125.637 46.076 125.973 46.076H126.777V47H125.793C125.185 47 124.729 46.86 124.425 46.58C124.121 46.3 123.969 45.84 123.969 45.2V41.324H123.117V40.424H123.969V38.768H125.061V40.424H126.777V41.324H125.061ZM131.383 47.072C131.175 47.072 130.999 47 130.855 46.856C130.711 46.712 130.639 46.536 130.639 46.328C130.639 46.12 130.711 45.944 130.855 45.8C130.999 45.656 131.175 45.584 131.383 45.584C131.583 45.584 131.751 45.656 131.887 45.8C132.031 45.944 132.103 46.12 132.103 46.328C132.103 46.536 132.031 46.712 131.887 46.856C131.751 47 131.583 47.072 131.383 47.072ZM134.515 41.636C134.731 41.26 135.051 40.948 135.475 40.7C135.907 40.444 136.407 40.316 136.975 40.316C137.559 40.316 138.087 40.456 138.559 40.736C139.039 41.016 139.415 41.412 139.687 41.924C139.959 42.428 140.095 43.016 140.095 43.688C140.095 44.352 139.959 44.944 139.687 45.464C139.415 45.984 139.039 46.388 138.559 46.676C138.087 46.964 137.559 47.108 136.975 47.108C136.415 47.108 135.919 46.984 135.487 46.736C135.063 46.48 134.739 46.164 134.515 45.788V50.12H133.423V40.424H134.515V41.636ZM138.979 43.688C138.979 43.192 138.879 42.76 138.679 42.392C138.479 42.024 138.207 41.744 137.863 41.552C137.527 41.36 137.155 41.264 136.747 41.264C136.347 41.264 135.975 41.364 135.631 41.564C135.295 41.756 135.023 42.04 134.815 42.416C134.615 42.784 134.515 43.212 134.515 43.7C134.515 44.196 134.615 44.632 134.815 45.008C135.023 45.376 135.295 45.66 135.631 45.86C135.975 46.052 136.347 46.148 136.747 46.148C137.155 46.148 137.527 46.052 137.863 45.86C138.207 45.66 138.479 45.376 138.679 45.008C138.879 44.632 138.979 44.192 138.979 43.688ZM144.604 40.304C145.404 40.304 146.052 40.548 146.548 41.036C147.044 41.516 147.292 42.212 147.292 43.124V47H146.212V43.28C146.212 42.624 146.048 42.124 145.72 41.78C145.392 41.428 144.944 41.252 144.376 41.252C143.8 41.252 143.34 41.432 142.996 41.792C142.66 42.152 142.492 42.676 142.492 43.364V47H141.4V40.424H142.492V41.36C142.708 41.024 143 40.764 143.368 40.58C143.744 40.396 144.156 40.304 144.604 40.304ZM151.656 40.316C152.224 40.316 152.72 40.44 153.144 40.688C153.576 40.936 153.896 41.248 154.104 41.624V40.424H155.208V47.144C155.208 47.744 155.08 48.276 154.824 48.74C154.568 49.212 154.2 49.58 153.72 49.844C153.248 50.108 152.696 50.24 152.064 50.24C151.2 50.24 150.48 50.036 149.904 49.628C149.328 49.22 148.988 48.664 148.884 47.96H149.964C150.084 48.36 150.332 48.68 150.708 48.92C151.084 49.168 151.536 49.292 152.064 49.292C152.664 49.292 153.152 49.104 153.528 48.728C153.912 48.352 154.104 47.824 154.104 47.144V45.764C153.888 46.148 153.568 46.468 153.144 46.724C152.72 46.98 152.224 47.108 151.656 47.108C151.072 47.108 150.54 46.964 150.06 46.676C149.588 46.388 149.216 45.984 148.944 45.464C148.672 44.944 148.536 44.352 148.536 43.688C148.536 43.016 148.672 42.428 148.944 41.924C149.216 41.412 149.588 41.016 150.06 40.736C150.54 40.456 151.072 40.316 151.656 40.316ZM154.104 43.7C154.104 43.204 154.004 42.772 153.804 42.404C153.604 42.036 153.332 41.756 152.988 41.564C152.652 41.364 152.28 41.264 151.872 41.264C151.464 41.264 151.092 41.36 150.756 41.552C150.42 41.744 150.152 42.024 149.952 42.392C149.752 42.76 149.652 43.192 149.652 43.688C149.652 44.192 149.752 44.632 149.952 45.008C150.152 45.376 150.42 45.66 150.756 45.86C151.092 46.052 151.464 46.148 151.872 46.148C152.28 46.148 152.652 46.052 152.988 45.86C153.332 45.66 153.604 45.376 153.804 45.008C154.004 44.632 154.104 44.196 154.104 43.7ZM158.05 45.488L156.706 48.716H155.974L156.85 45.488H158.05ZM162.584 47.072C162.376 47.072 162.2 47 162.056 46.856C161.912 46.712 161.84 46.536 161.84 46.328C161.84 46.12 161.912 45.944 162.056 45.8C162.2 45.656 162.376 45.584 162.584 45.584C162.784 45.584 162.952 45.656 163.088 45.8C163.232 45.944 163.304 46.12 163.304 46.328C163.304 46.536 163.232 46.712 163.088 46.856C162.952 47 162.784 47.072 162.584 47.072ZM165.211 39.356C165.003 39.356 164.827 39.284 164.683 39.14C164.547 38.996 164.479 38.82 164.479 38.612C164.479 38.404 164.547 38.228 164.683 38.084C164.827 37.94 165.003 37.868 165.211 37.868C165.419 37.868 165.591 37.94 165.727 38.084C165.871 38.228 165.943 38.404 165.943 38.612C165.943 38.82 165.871 38.996 165.727 39.14C165.591 39.284 165.419 39.356 165.211 39.356ZM165.751 48.428C165.751 49.012 165.603 49.44 165.307 49.712C165.011 49.984 164.579 50.12 164.011 50.12H163.375V49.196H163.831C164.135 49.196 164.347 49.136 164.467 49.016C164.595 48.896 164.659 48.692 164.659 48.404V40.424H165.751V48.428ZM168.56 41.636C168.776 41.26 169.096 40.948 169.52 40.7C169.952 40.444 170.452 40.316 171.02 40.316C171.604 40.316 172.132 40.456 172.604 40.736C173.084 41.016 173.46 41.412 173.732 41.924C174.004 42.428 174.14 43.016 174.14 43.688C174.14 44.352 174.004 44.944 173.732 45.464C173.46 45.984 173.084 46.388 172.604 46.676C172.132 46.964 171.604 47.108 171.02 47.108C170.46 47.108 169.964 46.984 169.532 46.736C169.108 46.48 168.784 46.164 168.56 45.788V50.12H167.468V40.424H168.56V41.636ZM173.024 43.688C173.024 43.192 172.924 42.76 172.724 42.392C172.524 42.024 172.252 41.744 171.908 41.552C171.572 41.36 171.2 41.264 170.792 41.264C170.392 41.264 170.02 41.364 169.676 41.564C169.34 41.756 169.068 42.04 168.86 42.416C168.66 42.784 168.56 43.212 168.56 43.7C168.56 44.196 168.66 44.632 168.86 45.008C169.068 45.376 169.34 45.66 169.676 45.86C170.02 46.052 170.392 46.148 170.792 46.148C171.2 46.148 171.572 46.052 171.908 45.86C172.252 45.66 172.524 45.376 172.724 45.008C172.924 44.632 173.024 44.192 173.024 43.688ZM181.445 43.46C181.445 43.668 181.433 43.888 181.409 44.12H176.153C176.193 44.768 176.413 45.276 176.813 45.644C177.221 46.004 177.713 46.184 178.289 46.184C178.761 46.184 179.153 46.076 179.465 45.86C179.785 45.636 180.009 45.34 180.137 44.972H181.313C181.137 45.604 180.785 46.12 180.257 46.52C179.729 46.912 179.073 47.108 178.289 47.108C177.665 47.108 177.105 46.968 176.609 46.688C176.121 46.408 175.737 46.012 175.457 45.5C175.177 44.98 175.037 44.38 175.037 43.7C175.037 43.02 175.173 42.424 175.445 41.912C175.717 41.4 176.097 41.008 176.585 40.736C177.081 40.456 177.649 40.316 178.289 40.316C178.913 40.316 179.465 40.452 179.945 40.724C180.425 40.996 180.793 41.372 181.049 41.852C181.313 42.324 181.445 42.86 181.445 43.46ZM180.317 43.232C180.317 42.816 180.225 42.46 180.041 42.164C179.857 41.86 179.605 41.632 179.285 41.48C178.973 41.32 178.625 41.24 178.241 41.24C177.689 41.24 177.217 41.416 176.825 41.768C176.441 42.12 176.221 42.608 176.165 43.232H180.317ZM185.467 40.316C186.035 40.316 186.531 40.44 186.955 40.688C187.387 40.936 187.707 41.248 187.915 41.624V40.424H189.019V47.144C189.019 47.744 188.891 48.276 188.635 48.74C188.379 49.212 188.011 49.58 187.531 49.844C187.059 50.108 186.507 50.24 185.875 50.24C185.011 50.24 184.291 50.036 183.715 49.628C183.139 49.22 182.799 48.664 182.695 47.96H183.775C183.895 48.36 184.143 48.68 184.519 48.92C184.895 49.168 185.347 49.292 185.875 49.292C186.475 49.292 186.963 49.104 187.339 48.728C187.723 48.352 187.915 47.824 187.915 47.144V45.764C187.699 46.148 187.379 46.468 186.955 46.724C186.531 46.98 186.035 47.108 185.467 47.108C184.883 47.108 184.351 46.964 183.871 46.676C183.399 46.388 183.027 45.984 182.755 45.464C182.483 44.944 182.347 44.352 182.347 43.688C182.347 43.016 182.483 42.428 182.755 41.924C183.027 41.412 183.399 41.016 183.871 40.736C184.351 40.456 184.883 40.316 185.467 40.316ZM187.915 43.7C187.915 43.204 187.815 42.772 187.615 42.404C187.415 42.036 187.143 41.756 186.799 41.564C186.463 41.364 186.091 41.264 185.683 41.264C185.275 41.264 184.903 41.36 184.567 41.552C184.231 41.744 183.963 42.024 183.763 42.392C183.563 42.76 183.463 43.192 183.463 43.688C183.463 44.192 183.563 44.632 183.763 45.008C183.963 45.376 184.231 45.66 184.567 45.86C184.903 46.052 185.275 46.148 185.683 46.148C186.091 46.148 186.463 46.052 186.799 45.86C187.143 45.66 187.415 45.376 187.615 45.008C187.815 44.632 187.915 44.196 187.915 43.7ZM191.86 45.488L190.516 48.716H189.784L190.66 45.488H191.86ZM23.272 62.072C23.064 62.072 22.888 62 22.744 61.856C22.6 61.712 22.528 61.536 22.528 61.328C22.528 61.12 22.6 60.944 22.744 60.8C22.888 60.656 23.064 60.584 23.272 60.584C23.472 60.584 23.64 60.656 23.776 60.8C23.92 60.944 23.992 61.12 23.992 61.328C23.992 61.536 23.92 61.712 23.776 61.856C23.64 62 23.472 62.072 23.272 62.072ZM25.8995 54.356C25.6915 54.356 25.5155 54.284 25.3715 54.14C25.2355 53.996 25.1675 53.82 25.1675 53.612C25.1675 53.404 25.2355 53.228 25.3715 53.084C25.5155 52.94 25.6915 52.868 25.8995 52.868C26.1075 52.868 26.2795 52.94 26.4155 53.084C26.5595 53.228 26.6315 53.404 26.6315 53.612C26.6315 53.82 26.5595 53.996 26.4155 54.14C26.2795 54.284 26.1075 54.356 25.8995 54.356ZM26.4395 63.428C26.4395 64.012 26.2915 64.44 25.9955 64.712C25.6995 64.984 25.2675 65.12 24.6995 65.12H24.0635V64.196H24.5195C24.8235 64.196 25.0355 64.136 25.1555 64.016C25.2835 63.896 25.3475 63.692 25.3475 63.404V55.424H26.4395V63.428ZM29.2481 56.636C29.4641 56.26 29.7841 55.948 30.2081 55.7C30.6401 55.444 31.1401 55.316 31.7081 55.316C32.2921 55.316 32.8201 55.456 33.2921 55.736C33.7721 56.016 34.1481 56.412 34.4201 56.924C34.6921 57.428 34.8281 58.016 34.8281 58.688C34.8281 59.352 34.6921 59.944 34.4201 60.464C34.1481 60.984 33.7721 61.388 33.2921 61.676C32.8201 61.964 32.2921 62.108 31.7081 62.108C31.1481 62.108 30.6521 61.984 30.2201 61.736C29.7961 61.48 29.4721 61.164 29.2481 60.788V65.12H28.1561V55.424H29.2481V56.636ZM33.7121 58.688C33.7121 58.192 33.6121 57.76 33.4121 57.392C33.2121 57.024 32.9401 56.744 32.5961 56.552C32.2601 56.36 31.8881 56.264 31.4801 56.264C31.0801 56.264 30.7081 56.364 30.3641 56.564C30.0281 56.756 29.7561 57.04 29.5481 57.416C29.3481 57.784 29.2481 58.212 29.2481 58.7C29.2481 59.196 29.3481 59.632 29.5481 60.008C29.7561 60.376 30.0281 60.66 30.3641 60.86C30.7081 61.052 31.0801 61.148 31.4801 61.148C31.8881 61.148 32.2601 61.052 32.5961 60.86C32.9401 60.66 33.2121 60.376 33.4121 60.008C33.6121 59.632 33.7121 59.192 33.7121 58.688ZM38.8455 55.316C39.4135 55.316 39.9095 55.44 40.3335 55.688C40.7655 55.936 41.0855 56.248 41.2935 56.624V55.424H42.3975V62.144C42.3975 62.744 42.2695 63.276 42.0135 63.74C41.7575 64.212 41.3895 64.58 40.9095 64.844C40.4375 65.108 39.8855 65.24 39.2535 65.24C38.3895 65.24 37.6695 65.036 37.0935 64.628C36.5175 64.22 36.1775 63.664 36.0735 62.96H37.1535C37.2735 63.36 37.5215 63.68 37.8975 63.92C38.2735 64.168 38.7255 64.292 39.2535 64.292C39.8535 64.292 40.3415 64.104 40.7175 63.728C41.1015 63.352 41.2935 62.824 41.2935 62.144V60.764C41.0775 61.148 40.7575 61.468 40.3335 61.724C39.9095 61.98 39.4135 62.108 38.8455 62.108C38.2615 62.108 37.7295 61.964 37.2495 61.676C36.7775 61.388 36.4055 60.984 36.1335 60.464C35.8615 59.944 35.7255 59.352 35.7255 58.688C35.7255 58.016 35.8615 57.428 36.1335 56.924C36.4055 56.412 36.7775 56.016 37.2495 55.736C37.7295 55.456 38.2615 55.316 38.8455 55.316ZM41.2935 58.7C41.2935 58.204 41.1935 57.772 40.9935 57.404C40.7935 57.036 40.5215 56.756 40.1775 56.564C39.8415 56.364 39.4695 56.264 39.0615 56.264C38.6535 56.264 38.2815 56.36 37.9455 56.552C37.6095 56.744 37.3415 57.024 37.1415 57.392C36.9415 57.76 36.8415 58.192 36.8415 58.688C36.8415 59.192 36.9415 59.632 37.1415 60.008C37.3415 60.376 37.6095 60.66 37.9455 60.86C38.2815 61.052 38.6535 61.148 39.0615 61.148C39.4695 61.148 39.8415 61.052 40.1775 60.86C40.5215 60.66 40.7935 60.376 40.9935 60.008C41.1935 59.632 41.2935 59.196 41.2935 58.7ZM45.2388 60.488L43.8948 63.716H43.1628L44.0388 60.488H45.2388ZM50.517 56.636C50.733 56.26 51.053 55.948 51.477 55.7C51.909 55.444 52.409 55.316 52.977 55.316C53.561 55.316 54.089 55.456 54.561 55.736C55.041 56.016 55.417 56.412 55.689 56.924C55.961 57.428 56.097 58.016 56.097 58.688C56.097 59.352 55.961 59.944 55.689 60.464C55.417 60.984 55.041 61.388 54.561 61.676C54.089 61.964 53.561 62.108 52.977 62.108C52.417 62.108 51.921 61.984 51.489 61.736C51.065 61.48 50.741 61.164 50.517 60.788V65.12H49.425V55.424H50.517V56.636ZM54.981 58.688C54.981 58.192 54.881 57.76 54.681 57.392C54.481 57.024 54.209 56.744 53.865 56.552C53.529 56.36 53.157 56.264 52.749 56.264C52.349 56.264 51.977 56.364 51.633 56.564C51.297 56.756 51.025 57.04 50.817 57.416C50.617 57.784 50.517 58.212 50.517 58.7C50.517 59.196 50.617 59.632 50.817 60.008C51.025 60.376 51.297 60.66 51.633 60.86C51.977 61.052 52.349 61.148 52.749 61.148C53.157 61.148 53.529 61.052 53.865 60.86C54.209 60.66 54.481 60.376 54.681 60.008C54.881 59.632 54.981 59.192 54.981 58.688ZM56.9943 58.688C56.9943 58.016 57.1303 57.428 57.4023 56.924C57.6743 56.412 58.0463 56.016 58.5183 55.736C58.9983 55.456 59.5343 55.316 60.1263 55.316C60.6383 55.316 61.1143 55.436 61.5543 55.676C61.9943 55.908 62.3303 56.216 62.5623 56.6V53.12H63.6663V62H62.5623V60.764C62.3463 61.156 62.0263 61.48 61.6023 61.736C61.1783 61.984 60.6823 62.108 60.1143 62.108C59.5303 62.108 58.9983 61.964 58.5183 61.676C58.0463 61.388 57.6743 60.984 57.4023 60.464C57.1303 59.944 56.9943 59.352 56.9943 58.688ZM62.5623 58.7C62.5623 58.204 62.4623 57.772 62.2623 57.404C62.0623 57.036 61.7903 56.756 61.4463 56.564C61.1103 56.364 60.7383 56.264 60.3303 56.264C59.9223 56.264 59.5503 56.36 59.2143 56.552C58.8783 56.744 58.6103 57.024 58.4103 57.392C58.2103 57.76 58.1103 58.192 58.1103 58.688C58.1103 59.192 58.2103 59.632 58.4103 60.008C58.6103 60.376 58.8783 60.66 59.2143 60.86C59.5503 61.052 59.9223 61.148 60.3303 61.148C60.7383 61.148 61.1103 61.052 61.4463 60.86C61.7903 60.66 62.0623 60.376 62.2623 60.008C62.4623 59.632 62.5623 59.196 62.5623 58.7ZM68.0557 56.324H66.6757V62H65.5837V56.324H64.7317V55.424H65.5837V54.956C65.5837 54.22 65.7717 53.684 66.1477 53.348C66.5317 53.004 67.1437 52.832 67.9837 52.832V53.744C67.5037 53.744 67.1637 53.84 66.9637 54.032C66.7717 54.216 66.6757 54.524 66.6757 54.956V55.424H68.0557V56.324ZM69.5449 62.072C69.3369 62.072 69.1609 62 69.0169 61.856C68.8729 61.712 68.8009 61.536 68.8009 61.328C68.8009 61.12 68.8729 60.944 69.0169 60.8C69.1609 60.656 69.3369 60.584 69.5449 60.584C69.7449 60.584 69.9129 60.656 70.0489 60.8C70.1929 60.944 70.2649 61.12 70.2649 61.328C70.2649 61.536 70.1929 61.712 70.0489 61.856C69.9129 62 69.7449 62.072 69.5449 62.072ZM72.7125 60.488L71.3685 63.716H70.6365L71.5125 60.488H72.7125ZM76.4906 58.688C76.4906 58.016 76.6266 57.428 76.8986 56.924C77.1706 56.412 77.5426 56.016 78.0146 55.736C78.4946 55.456 79.0306 55.316 79.6226 55.316C80.1346 55.316 80.6106 55.436 81.0506 55.676C81.4906 55.908 81.8266 56.216 82.0586 56.6V53.12H83.1626V62H82.0586V60.764C81.8426 61.156 81.5226 61.48 81.0986 61.736C80.6746 61.984 80.1786 62.108 79.6106 62.108C79.0266 62.108 78.4946 61.964 78.0146 61.676C77.5426 61.388 77.1706 60.984 76.8986 60.464C76.6266 59.944 76.4906 59.352 76.4906 58.688ZM82.0586 58.7C82.0586 58.204 81.9586 57.772 81.7586 57.404C81.5586 57.036 81.2866 56.756 80.9426 56.564C80.6066 56.364 80.2346 56.264 79.8266 56.264C79.4186 56.264 79.0466 56.36 78.7106 56.552C78.3746 56.744 78.1066 57.024 77.9066 57.392C77.7066 57.76 77.6066 58.192 77.6066 58.688C77.6066 59.192 77.7066 59.632 77.9066 60.008C78.1066 60.376 78.3746 60.66 78.7106 60.86C79.0466 61.052 79.4186 61.148 79.8266 61.148C80.2346 61.148 80.6066 61.052 80.9426 60.86C81.2866 60.66 81.5586 60.376 81.7586 60.008C81.9586 59.632 82.0586 59.196 82.0586 58.7ZM87.744 62.108C87.128 62.108 86.568 61.968 86.064 61.688C85.568 61.408 85.176 61.012 84.888 60.5C84.608 59.98 84.468 59.38 84.468 58.7C84.468 58.028 84.612 57.436 84.9 56.924C85.196 56.404 85.596 56.008 86.1 55.736C86.604 55.456 87.168 55.316 87.792 55.316C88.416 55.316 88.98 55.456 89.484 55.736C89.988 56.008 90.384 56.4 90.672 56.912C90.968 57.424 91.116 58.02 91.116 58.7C91.116 59.38 90.964 59.98 90.66 60.5C90.364 61.012 89.96 61.408 89.448 61.688C88.936 61.968 88.368 62.108 87.744 62.108ZM87.744 61.148C88.136 61.148 88.504 61.056 88.848 60.872C89.192 60.688 89.468 60.412 89.676 60.044C89.892 59.676 90 59.228 90 58.7C90 58.172 89.896 57.724 89.688 57.356C89.48 56.988 89.208 56.716 88.872 56.54C88.536 56.356 88.172 56.264 87.78 56.264C87.38 56.264 87.012 56.356 86.676 56.54C86.348 56.716 86.084 56.988 85.884 57.356C85.684 57.724 85.584 58.172 85.584 58.7C85.584 59.236 85.68 59.688 85.872 60.056C86.072 60.424 86.336 60.7 86.664 60.884C86.992 61.06 87.352 61.148 87.744 61.148ZM92.0118 58.7C92.0118 58.02 92.1478 57.428 92.4198 56.924C92.6918 56.412 93.0678 56.016 93.5478 55.736C94.0358 55.456 94.5918 55.316 95.2158 55.316C96.0238 55.316 96.6878 55.512 97.2078 55.904C97.7358 56.296 98.0838 56.84 98.2518 57.536H97.0758C96.9638 57.136 96.7438 56.82 96.4158 56.588C96.0958 56.356 95.6958 56.24 95.2158 56.24C94.5918 56.24 94.0878 56.456 93.7038 56.888C93.3198 57.312 93.1278 57.916 93.1278 58.7C93.1278 59.492 93.3198 60.104 93.7038 60.536C94.0878 60.968 94.5918 61.184 95.2158 61.184C95.6958 61.184 96.0958 61.072 96.4158 60.848C96.7358 60.624 96.9558 60.304 97.0758 59.888H98.2518C98.0758 60.56 97.7238 61.1 97.1958 61.508C96.6678 61.908 96.0078 62.108 95.2158 62.108C94.5918 62.108 94.0358 61.968 93.5478 61.688C93.0678 61.408 92.6918 61.012 92.4198 60.5C92.1478 59.988 92.0118 59.388 92.0118 58.7ZM103.009 62L101.449 59.552L99.9488 62H98.8088L100.933 58.736L98.8088 55.424H100.045L101.605 57.86L103.093 55.424H104.233L102.121 58.676L104.245 62H103.009ZM106.315 60.488L104.971 63.716H104.239L105.115 60.488H106.315ZM110.093 58.7C110.093 58.02 110.229 57.428 110.501 56.924C110.773 56.412 111.149 56.016 111.629 55.736C112.117 55.456 112.673 55.316 113.297 55.316C114.105 55.316 114.769 55.512 115.289 55.904C115.817 56.296 116.165 56.84 116.333 57.536H115.157C115.045 57.136 114.825 56.82 114.497 56.588C114.177 56.356 113.777 56.24 113.297 56.24C112.673 56.24 112.169 56.456 111.785 56.888C111.401 57.312 111.209 57.916 111.209 58.7C111.209 59.492 111.401 60.104 111.785 60.536C112.169 60.968 112.673 61.184 113.297 61.184C113.777 61.184 114.177 61.072 114.497 60.848C114.817 60.624 115.037 60.304 115.157 59.888H116.333C116.157 60.56 115.805 61.1 115.277 61.508C114.749 61.908 114.089 62.108 113.297 62.108C112.673 62.108 112.117 61.968 111.629 61.688C111.149 61.408 110.773 61.012 110.501 60.5C110.229 59.988 110.093 59.388 110.093 58.7ZM119.986 62.108C119.482 62.108 119.03 62.024 118.63 61.856C118.23 61.68 117.914 61.44 117.682 61.136C117.45 60.824 117.322 60.468 117.298 60.068H118.426C118.458 60.396 118.61 60.664 118.882 60.872C119.162 61.08 119.526 61.184 119.974 61.184C120.39 61.184 120.718 61.092 120.958 60.908C121.198 60.724 121.318 60.492 121.318 60.212C121.318 59.924 121.19 59.712 120.934 59.576C120.678 59.432 120.282 59.292 119.746 59.156C119.258 59.028 118.858 58.9 118.546 58.772C118.242 58.636 117.978 58.44 117.754 58.184C117.538 57.92 117.43 57.576 117.43 57.152C117.43 56.816 117.53 56.508 117.73 56.228C117.93 55.948 118.214 55.728 118.582 55.568C118.95 55.4 119.37 55.316 119.842 55.316C120.57 55.316 121.158 55.5 121.606 55.868C122.054 56.236 122.294 56.74 122.326 57.38H121.234C121.21 57.036 121.07 56.76 120.814 56.552C120.566 56.344 120.23 56.24 119.806 56.24C119.414 56.24 119.102 56.324 118.87 56.492C118.638 56.66 118.522 56.88 118.522 57.152C118.522 57.368 118.59 57.548 118.726 57.692C118.87 57.828 119.046 57.94 119.254 58.028C119.47 58.108 119.766 58.2 120.142 58.304C120.614 58.432 120.998 58.56 121.294 58.688C121.59 58.808 121.842 58.992 122.05 59.24C122.266 59.488 122.378 59.812 122.386 60.212C122.386 60.572 122.286 60.896 122.086 61.184C121.886 61.472 121.602 61.7 121.234 61.868C120.874 62.028 120.458 62.108 119.986 62.108ZM126.244 60.992L128.284 55.424H129.448L126.868 62H125.596L123.016 55.424H124.192L126.244 60.992Z" fill="#191919" fill-opacity="0.6"/>
<path d="M211.915 72.507L211.407 71.4499L210.996 72.549L209.566 76.3807L204.645 78.6654L203.221 79.3264L204.765 79.6107L215.394 81.5679L216.362 81.7461L215.935 80.8593L211.915 72.507Z" fill="url(#paint1_angular_13520_24768)" stroke="#EAEBEB"/>
</g>
<defs>
<filter id="filter0_d_13520_24768" x="0" y="0" width="223.238" height="90.2793" filterUnits="userSpaceOnUse" color-interpolation-filters="sRGB">
<feFlood flood-opacity="0" result="BackgroundImageFix"/>
<feColorMatrix in="SourceAlpha" type="matrix" values="0 0 0 0 0 0 0 0 0 0 0 0 0 0 0 0 0 0 127 0" result="hardAlpha"/>
<feOffset dy="1"/>
<feGaussianBlur stdDeviation="3"/>
<feComposite in2="hardAlpha" operator="out"/>
<feColorMatrix type="matrix" values="0 0 0 0 0 0 0 0 0 0 0 0 0 0 0 0 0 0 0.06 0"/>
<feBlend mode="normal" in2="BackgroundImageFix" result="effect1_dropShadow_13520_24768"/>
<feBlend mode="normal" in="SourceGraphic" in2="effect1_dropShadow_13520_24768" result="shape"/>
</filter>
<linearGradient id="paint0_linear_13520_24768" x1="107.5" y1="5" x2="107.5" y2="77" gradientUnits="userSpaceOnUse">
<stop stop-color="white"/>
<stop offset="0.55" stop-color="#F9FAFA"/>
</linearGradient>
<radialGradient id="paint1_angular_13520_24768" cx="0" cy="0" r="1" gradientUnits="userSpaceOnUse" gradientTransform="translate(215.975 81.9407) rotate(-140.605) scale(11.7578 12.8115)">
<stop stop-color="#FAFAFA"/>
<stop offset="1" stop-color="white"/>
</radialGradient>
</defs>
</svg>
