<svg width="17" height="22" viewBox="0 0 17 22" fill="none" xmlns="http://www.w3.org/2000/svg">
<g id="Group 1413371811">
<g id="SVGRepo_iconCarrier">
<path id="Vector" d="M3.1053 19.3243C3.28771 19.0013 3.37891 18.8398 3.51527 18.8398C3.65163 18.8398 3.74283 19.0013 3.92523 19.3243L3.97242 19.4078C4.02426 19.4996 4.05017 19.5455 4.09059 19.5758C4.131 19.606 4.18132 19.6173 4.28198 19.6398L4.37363 19.6602C4.72783 19.7393 4.90494 19.7789 4.94708 19.9126C4.98921 20.0463 4.86848 20.1857 4.62699 20.4644L4.56452 20.5365C4.4959 20.6157 4.46158 20.6553 4.44615 20.7043C4.43072 20.7532 4.43591 20.8061 4.44628 20.9117L4.45572 21.0079C4.49223 21.3798 4.51049 21.5657 4.40018 21.6483C4.28986 21.731 4.12403 21.6556 3.79238 21.5049L3.70658 21.4659C3.61234 21.4231 3.56523 21.4017 3.51527 21.4017C3.46531 21.4017 3.41819 21.4231 3.32396 21.4659L3.23816 21.5049C2.9065 21.6556 2.74068 21.731 2.63037 21.6483C2.52005 21.5657 2.53831 21.3798 2.57481 21.0079L2.58426 20.9117C2.59463 20.8061 2.59982 20.7532 2.58439 20.7043C2.56895 20.6553 2.53464 20.6157 2.46602 20.5365L2.40355 20.4644C2.16207 20.1857 2.04133 20.0463 2.08346 19.9126C2.1256 19.7789 2.30271 19.7393 2.65692 19.6602L2.74856 19.6398C2.84921 19.6173 2.89954 19.606 2.93995 19.5758C2.98036 19.5455 3.00628 19.4996 3.05811 19.4078L3.1053 19.3243Z" fill="white"/>
</g>
<g id="SVGRepo_iconCarrier_2">
<path id="Vector_2" d="M7.79873 17.6636C8.10963 17.1131 8.26507 16.8379 8.49749 16.8379C8.72991 16.8379 8.88536 17.1131 9.19625 17.6636L9.27668 17.806C9.36504 17.9624 9.4092 18.0406 9.4781 18.0922C9.54697 18.1438 9.63273 18.163 9.80431 18.2013L9.96051 18.2362C10.5642 18.371 10.8661 18.4384 10.9379 18.6663C11.0097 18.8943 10.804 19.1318 10.3924 19.6068L10.2859 19.7297C10.1689 19.8647 10.1104 19.9322 10.0841 20.0157C10.0578 20.0992 10.0667 20.1892 10.0843 20.3693L10.1004 20.5333C10.1627 21.1671 10.1938 21.484 10.0058 21.6248C9.81773 21.7657 9.53509 21.6373 8.96982 21.3804L8.82358 21.3139C8.66295 21.2409 8.58264 21.2044 8.49749 21.2044C8.41235 21.2044 8.33203 21.2409 8.17141 21.3139L8.02517 21.3804C7.45989 21.6373 7.17725 21.7657 6.98922 21.6248C6.8012 21.484 6.83231 21.1671 6.89454 20.5333L6.91064 20.3693C6.92832 20.1892 6.93716 20.0992 6.91085 20.0157C6.88455 19.9322 6.82607 19.8647 6.70911 19.7297L6.60263 19.6068C6.19104 19.1318 5.98524 18.8943 6.05706 18.6663C6.12888 18.4384 6.43075 18.371 7.03448 18.2362L7.19068 18.2013C7.36224 18.163 7.44802 18.1438 7.5169 18.0922C7.58577 18.0406 7.62995 17.9624 7.7183 17.806L7.79873 17.6636Z" fill="white"/>
</g>
<g id="SVGRepo_iconCarrier_3">
<path id="Vector_3" d="M13.0741 19.3243C13.2565 19.0013 13.3477 18.8398 13.484 18.8398C13.6204 18.8398 13.7116 19.0013 13.894 19.3243L13.9412 19.4078C13.993 19.4996 14.0189 19.5455 14.0593 19.5758C14.0998 19.606 14.1501 19.6173 14.2507 19.6398L14.3424 19.6602C14.6966 19.7393 14.8737 19.7789 14.9158 19.9126C14.958 20.0463 14.8372 20.1857 14.5957 20.4644L14.5333 20.5365C14.4647 20.6157 14.4303 20.6553 14.4149 20.7043C14.3995 20.7532 14.4047 20.8061 14.415 20.9117L14.4245 21.0079C14.461 21.3798 14.4792 21.5657 14.3689 21.6483C14.2586 21.731 14.0928 21.6556 13.7611 21.5049L13.6753 21.4659C13.5811 21.4231 13.534 21.4017 13.484 21.4017C13.4341 21.4017 13.3869 21.4231 13.2927 21.4659L13.2069 21.5049C12.8753 21.6556 12.7094 21.731 12.5991 21.6483C12.4888 21.5657 12.5071 21.3798 12.5436 21.0079L12.553 20.9117C12.5634 20.8061 12.5686 20.7532 12.5531 20.7043C12.5377 20.6553 12.5034 20.6157 12.4348 20.5365L12.3723 20.4644C12.1308 20.1857 12.0101 20.0463 12.0522 19.9126C12.0944 19.7789 12.2715 19.7393 12.6257 19.6602L12.7173 19.6398C12.818 19.6173 12.8683 19.606 12.9087 19.5758C12.9491 19.5455 12.975 19.4996 13.0269 19.4078L13.0741 19.3243Z" fill="white"/>
</g>
<path id="Vector_4" fill-rule="evenodd" clip-rule="evenodd" d="M12.3396 0.175702C11.0637 0.626729 10.1895 1.64679 9.95271 2.9609C9.76604 3.99755 10.1365 5.11039 10.9304 5.89807C12.3441 7.30052 14.4597 7.30591 15.8621 5.9108C16.6539 5.12304 17.0168 4.0411 16.8457 2.97857C16.6471 1.74532 15.9388 0.833883 14.7564 0.290076C14.3776 0.11586 14.2122 0.0862669 13.5132 0.0675074C12.8832 0.0505657 12.6267 0.0741969 12.3396 0.175702ZM12.5409 2.54027C12.088 2.99079 11.7175 3.39404 11.7175 3.43643C11.7175 3.53081 12.0296 3.82973 12.1281 3.82973C12.1673 3.82973 12.3619 3.66613 12.5604 3.46617C12.759 3.26622 12.9638 3.10262 13.0157 3.10262C13.0884 3.10262 13.1101 3.34896 13.1101 4.17562V5.24861L13.4216 5.22404L13.7331 5.19953L13.727 4.15104C13.7227 3.42124 13.7458 3.10262 13.803 3.10262C13.8483 3.10262 14.0476 3.26622 14.2462 3.46617C14.4447 3.66613 14.6395 3.82973 14.6792 3.82973C14.7188 3.82973 14.8445 3.74102 14.9586 3.63268L15.1659 3.43556L14.3041 2.57837C13.8301 2.10684 13.4247 1.7211 13.4032 1.7211C13.3818 1.7211 12.9937 2.08975 12.5409 2.54027Z" fill="white"/>
<path id="Vector_5" fill-rule="evenodd" clip-rule="evenodd" d="M8.67347 1.37598H2.55583C1.9474 1.37598 1.36388 1.61453 0.933649 2.03914C0.503419 2.46376 0.261719 3.03967 0.261719 3.64017V11.5649C0.261719 11.6298 0.270131 11.6932 0.286189 11.7535C0.270002 11.8152 0.26178 11.8786 0.261719 11.9422V14.2064C0.261719 14.8069 0.503419 15.3828 0.933649 15.8074C1.36388 16.2321 1.9474 16.4706 2.55583 16.4706H13.2617C13.8701 16.4706 14.4537 16.2321 14.8839 15.8074C15.3141 15.3828 15.5558 14.8069 15.5558 14.2064V8.9233C15.5558 8.85964 15.5475 8.79624 15.5313 8.73461C15.5475 8.67299 15.5558 8.60959 15.5558 8.54593V8.16856H14.0264V8.18064C10.7405 8.28555 8.36759 9.0667 6.70053 10.1603C7.33218 10.3814 8.03877 10.6962 8.73159 11.1082C9.80141 11.7422 10.8888 12.6328 11.6206 13.8125C11.6731 13.897 11.7081 13.9909 11.7238 14.0888C11.7394 14.1867 11.7354 14.2867 11.7119 14.3831C11.6883 14.4794 11.6458 14.5703 11.5868 14.6504C11.5277 14.7306 11.4532 14.7985 11.3675 14.8502C11.2819 14.9019 11.1867 14.9365 11.0875 14.952C10.9883 14.9674 10.887 14.9634 10.7894 14.9402C10.6917 14.917 10.5997 14.8751 10.5185 14.8168C10.4373 14.7585 10.3685 14.6849 10.3161 14.6004C9.75323 13.6924 8.87994 12.9566 7.94394 12.4019C7.00947 11.8479 6.05895 11.5022 5.39977 11.3513C4.4712 11.142 3.52041 11.0442 2.56807 11.0599H2.55124C2.28513 11.0637 2.03125 11.075 1.79113 11.0939V3.64017C1.79113 3.44001 1.8717 3.24804 2.01511 3.1065C2.15852 2.96496 2.35302 2.88544 2.55583 2.88544H8.67347V1.37598ZM5.2323 4.3949C4.81541 4.39798 4.40939 4.52647 4.06842 4.76321C3.63254 5.07265 3.32054 5.58285 3.32054 6.28173C3.32054 6.98062 3.63254 7.49006 4.06842 7.7995C4.40917 8.03678 4.81529 8.16556 5.2323 8.16856C5.54583 8.16856 5.9993 8.08177 6.39618 7.7995C6.83206 7.49006 7.14406 6.98062 7.14406 6.28173C7.14406 5.58285 6.83206 5.07341 6.39618 4.76321C6.05534 4.5262 5.64923 4.39769 5.2323 4.3949Z" fill="white"/>
</g>
</svg>
