<svg width="64" height="65" viewBox="0 0 64 65" fill="none" xmlns="http://www.w3.org/2000/svg">
<g clip-path="url(#clip0_11881_6699)">
<path d="M12.7955 23.0035C14.9775 23.0035 16.7768 21.2043 16.7768 19.0222V17.5676C16.7385 15.3855 14.9775 13.6246 12.7955 13.6246C10.5752 13.6246 8.81426 15.3855 8.81426 17.6058V19.0605C8.81426 21.2426 10.5752 23.0035 12.7955 23.0035ZM21.9064 37.5121H16.3174V33.0715V28.8605C16.3174 26.5254 14.4416 24.6496 12.1064 24.6496C9.77129 24.6496 7.89551 26.5254 7.89551 28.8605V37.5121V38.6222V38.7754C7.97207 41.2254 10.001 43.216 12.4893 43.216H21.4471C21.4854 43.216 21.5619 43.2543 21.5619 43.3308V51.9058C21.5619 53.0543 22.4807 53.973 23.6291 53.973C24.7775 53.973 25.6963 53.0543 25.6963 51.9058V41.2636C25.658 39.1965 23.9736 37.5121 21.9064 37.5121ZM50.5408 23.0035C52.7229 23.0035 54.5221 21.2043 54.5221 19.0222V17.5676C54.5221 15.3855 52.7229 13.5863 50.5408 13.5863C48.3588 13.5863 46.5596 15.3855 46.5596 17.5676V19.0222C46.5979 21.2426 48.3588 23.0035 50.5408 23.0035ZM51.2682 24.6496C48.933 24.6496 47.0572 26.5254 47.0572 28.8605V33.0715V37.5121H41.4299C39.3627 37.5121 37.6783 39.1965 37.6783 41.2636V51.9058C37.6783 53.0543 38.5971 53.973 39.7455 53.973C40.8939 53.973 41.8127 53.0543 41.8127 51.9058V43.3308C41.8127 43.2926 41.851 43.216 41.9275 43.216H50.8853C53.3736 43.216 55.4025 41.2254 55.4791 38.7754V38.6222V37.5121V28.8605C55.4791 26.5254 53.565 24.6496 51.2682 24.6496Z" fill="url(#paint0_linear_11881_6699)"/>
<path d="M41.5086 33.2641C41.5086 32.1539 40.5898 31.2734 39.518 31.2734H23.8227C22.7125 31.2734 21.832 32.1922 21.832 33.2641C21.832 34.3742 22.7508 35.2547 23.8227 35.2547H29.45V53.9742H33.8523V35.293H39.4797C40.6281 35.293 41.5086 34.3742 41.5086 33.2641ZM22.1766 23.0812H27.9188L31.6703 26.8328L35.4219 23.0812H41.1641C41.2023 23.0812 41.2406 23.043 41.2406 23.0047V10.1039C41.2406 10.0656 41.2023 10.0273 41.1641 10.0273H22.1766C22.1383 10.0273 22.1 10.0656 22.1 10.1039V23.043C22.1 23.043 22.1383 23.0812 22.1766 23.0812ZM35.6133 15.6164C35.843 15.3867 36.1875 15.2336 36.532 15.2336C36.8766 15.2336 37.2211 15.3867 37.4508 15.6164C37.6805 15.8461 37.8336 16.1906 37.8336 16.5352C37.8336 16.8797 37.6805 17.2242 37.4508 17.4539C37.2211 17.6836 36.8766 17.8367 36.532 17.8367C36.1875 17.8367 35.843 17.6836 35.6133 17.4539C35.3836 17.2242 35.2305 16.8797 35.2305 16.5352C35.2305 16.1906 35.3836 15.8461 35.6133 15.6164ZM30.7516 15.6164C30.9812 15.3867 31.3258 15.2336 31.6703 15.2336C32.0148 15.2336 32.3594 15.3867 32.5891 15.6164C32.8188 15.8461 32.9719 16.1906 32.9719 16.5352C32.9719 16.8797 32.8188 17.2242 32.5891 17.4539C32.3594 17.6836 32.0148 17.8367 31.6703 17.8367C31.3258 17.8367 30.9812 17.6836 30.7516 17.4539C30.5219 17.2242 30.3687 16.8797 30.3687 16.5352C30.3687 16.1906 30.4836 15.8461 30.7516 15.6164ZM25.8516 15.6164C26.0812 15.3867 26.4258 15.2336 26.7703 15.2336C27.1148 15.2336 27.4594 15.3867 27.6891 15.6164C27.9187 15.8461 28.0719 16.1906 28.0719 16.5352C28.0719 16.8797 27.9187 17.2242 27.6891 17.4539C27.4594 17.6836 27.1148 17.8367 26.7703 17.8367C26.4258 17.8367 26.0812 17.6836 25.8516 17.4539C25.6219 17.2242 25.4687 16.8797 25.4687 16.5352C25.4687 16.1906 25.6219 15.8461 25.8516 15.6164Z" fill="url(#paint1_linear_11881_6699)"/>
</g>
<defs>
<linearGradient id="paint0_linear_11881_6699" x1="7.98323" y1="8.31665" x2="55.3499" y2="56.5" gradientUnits="userSpaceOnUse">
<stop stop-color="#EC0992"/>
<stop offset="1" stop-color="#0877FC"/>
</linearGradient>
<linearGradient id="paint1_linear_11881_6699" x1="18.2716" y1="42.9111" x2="47.7481" y2="42.5283" gradientUnits="userSpaceOnUse">
<stop stop-color="#EC0992"/>
<stop offset="1" stop-color="#0877FC"/>
</linearGradient>
<clipPath id="clip0_11881_6699">
<rect width="49" height="49" fill="white" transform="translate(7.16797 7.5)"/>
</clipPath>
</defs>
</svg>
