<svg width="29" height="28" viewBox="0 0 29 28" fill="none" xmlns="http://www.w3.org/2000/svg">
<g id="Product Icons">
<path id="Vector" d="M23.25 3.5H5.75C5.28587 3.5 4.84075 3.68437 4.51256 4.01256C4.18437 4.34075 4 4.78587 4 5.25V22.75C4 23.2141 4.18437 23.6592 4.51256 23.9874C4.84075 24.3156 5.28587 24.5 5.75 24.5H23.25C23.7141 24.5 24.1592 24.3156 24.4874 23.9874C24.8156 23.6592 25 23.2141 25 22.75V5.25C25 4.78587 24.8156 4.34075 24.4874 4.01256C24.1592 3.68437 23.7141 3.5 23.25 3.5ZM10.3809 10.7559L13.8809 7.25594C13.9622 7.17458 14.0587 7.11004 14.1649 7.06601C14.2712 7.02198 14.385 6.99931 14.5 6.99931C14.615 6.99931 14.7288 7.02198 14.8351 7.06601C14.9413 7.11004 15.0378 7.17458 15.1191 7.25594L18.6191 10.7559C18.7004 10.8372 18.7648 10.9337 18.8088 11.04C18.8528 11.1462 18.8755 11.26 18.8755 11.375C18.8755 11.49 18.8528 11.6038 18.8088 11.71C18.7648 11.8163 18.7004 11.9128 18.6191 11.9941C18.5378 12.0754 18.4413 12.1398 18.335 12.1838C18.2288 12.2278 18.115 12.2505 18 12.2505C17.885 12.2505 17.7712 12.2278 17.665 12.1838C17.5587 12.1398 17.4622 12.0754 17.3809 11.9941L15.375 9.98703V16.625C15.375 16.8571 15.2828 17.0796 15.1187 17.2437C14.9546 17.4078 14.7321 17.5 14.5 17.5C14.2679 17.5 14.0454 17.4078 13.8813 17.2437C13.7172 17.0796 13.625 16.8571 13.625 16.625V9.98703L11.6191 11.9941C11.4549 12.1582 11.2322 12.2505 11 12.2505C10.7678 12.2505 10.5451 12.1582 10.3809 11.9941C10.2168 11.8299 10.1245 11.6072 10.1245 11.375C10.1245 11.1428 10.2168 10.9201 10.3809 10.7559ZM23.25 22.75H5.75V18.375H8.88797L11 20.487C11.1619 20.6502 11.3547 20.7796 11.567 20.8677C11.7794 20.9558 12.0071 21.0007 12.237 21H16.763C16.9929 21.0007 17.2206 20.9558 17.433 20.8677C17.6453 20.7796 17.8381 20.6502 18 20.487L20.112 18.375H23.25V22.75Z" fill="white"/>
</g>
</svg>
