<svg width="130" height="130" viewBox="0 0 130 130" fill="none" xmlns="http://www.w3.org/2000/svg">
<path fill-rule="evenodd" clip-rule="evenodd" d="M54.6828 56.567C45.9093 64.2462 29.7389 65 0 65C28.2706 65 44.2795 65.6812 53.3284 72.3455C49.7364 77.7739 43.1788 84.3315 33.6556 93.8547C43.2932 84.217 49.8936 77.6167 55.36 74.0536C64.1688 82.5046 65 98.7713 65 130C65 99.5776 65.7888 83.3546 73.9735 74.724C79.2049 78.4153 85.5085 84.7922 94.4668 93.8547C85.5391 84.8232 79.248 78.4589 75.5935 73.1955C84.4287 65.7382 100.571 65 130 65C99.0087 65 82.7528 64.1814 74.2477 55.5596C77.5842 49.9261 84.3239 43.1864 94.4668 33.0435C84.4685 43.0418 77.777 49.7332 72.1923 53.1178C65.6707 44.0317 65 28.0525 65 0C65 28.7405 64.296 44.8083 57.3172 53.7739C51.4618 50.645 44.4713 43.7348 33.6556 33.0435C44.5351 43.7979 51.5442 50.7264 54.6828 56.567Z" fill="white"/>
</svg>
