<svg width="26" height="23" viewBox="0 0 26 23" fill="none" xmlns="http://www.w3.org/2000/svg">
<g id="Group 2147223454">
<path id="Subtract" fill-rule="evenodd" clip-rule="evenodd" d="M0.5 9.86628C0.5 11.7797 2.04916 13.329 3.95583 13.329L6.7211 13.329C6.92257 10.1198 9.38908 7.39606 12.6159 7.16237C14.5555 7.02296 16.3314 7.76472 17.5914 9.01926C18.7012 10.133 19.3993 11.6459 19.4532 13.329L21.9662 13.329C23.8729 13.329 25.4221 11.7798 25.4221 9.86628C25.4221 7.95281 23.8729 6.39814 21.9662 6.39814C21.9392 6.39814 21.9175 6.39814 21.8904 6.40358C21.4733 3.94652 19.3446 2.07654 16.7771 2.07654C15.9863 2.07654 15.2333 2.25594 14.5671 2.57123C13.4025 1.01111 11.55 0 9.45376 0C5.92751 0 3.0675 2.8702 3.0675 6.40902C3.0675 6.44707 3.0675 6.47969 3.07292 6.51774C1.59418 6.90367 0.5 8.25723 0.5 9.86628Z" fill="white"/>
<path id="Subtract_2" fill-rule="evenodd" clip-rule="evenodd" d="M17.0505 17.3834C17.9415 16.4209 18.482 15.1444 18.482 13.7383C18.482 12.2526 17.8781 10.9134 16.8943 9.93833C15.8217 8.88371 14.31 8.26015 12.659 8.37734C9.79179 8.5824 7.62981 11.0683 7.62981 13.9182V14.1693L5.93652 17.057H7.62981V18.7142C7.62981 19.5638 8.32232 20.2543 9.18373 20.2543H11.2866V22.8866C11.8313 22.962 12.3887 22.9996 12.9545 22.9996C14.3902 22.9996 15.7711 22.7527 17.0505 22.3007V17.3834ZM13.012 13.5947V10.8428L11.3389 13.5947H13.012ZM13.0133 13.1393V15.8908L14.6868 13.1393H13.0133Z" fill="white"/>
</g>
</svg>
