<svg width="64" height="65" viewBox="0 0 64 65" fill="none" xmlns="http://www.w3.org/2000/svg">
<path d="M15.9658 33.4328C12.5353 33.4328 9.74805 30.6454 9.74805 27.2026C9.74805 24.3076 11.7167 21.8723 14.3773 21.1779C14.3675 21.1094 14.3675 21.0507 14.3675 20.9823C14.3675 14.6152 19.5133 9.45105 25.8578 9.45105C29.6294 9.45105 32.9625 11.2703 35.0578 14.0773C36.2565 13.51 37.6112 13.1872 39.034 13.1872C43.6535 13.1872 47.4837 16.5517 48.234 20.9725C48.2828 20.9627 48.3218 20.9627 48.3705 20.9627C51.801 20.9627 54.5883 23.7599 54.5883 27.2026C54.5883 30.6454 51.801 33.4328 48.3705 33.4328L15.9658 33.4328Z" fill="url(#paint0_linear_11881_2027)"/>
<path d="M17.3379 41.5126H20.3194V44.462C20.3194 46.6072 22.0476 48.3558 24.2014 48.3558H28.0487V53.3922V53.9119L28.5634 53.9839C29.743 54.1491 30.9489 54.2316 32.1717 54.2316C35.276 54.2316 38.2626 53.6909 41.0304 52.7008L41.4267 52.559V52.1382V41.8423C43.3135 39.6974 44.4524 36.8921 44.4524 33.8121C44.4524 30.4683 43.1093 27.4521 40.9222 25.2572L40.9206 25.2556C38.5384 22.8837 35.1764 21.4781 31.5041 21.7421L31.5038 21.7421C25.1044 22.2055 20.3194 27.8117 20.3194 34.1972V34.5741L16.8208 40.6155L16.3013 41.5126H17.3379Z" fill="url(#paint1_linear_11881_2027)" stroke="white" stroke-width="1.19512"/>
<path d="M31.9498 28.6493V33.6005H28.9395L31.9498 28.6493Z" fill="white"/>
<path d="M31.9521 37.7315V32.7809H34.9631L31.9521 37.7315Z" fill="white"/>
<defs>
<linearGradient id="paint0_linear_11881_2027" x1="28.0264" y1="9.18558" x2="27.7009" y2="37.7322" gradientUnits="userSpaceOnUse">
<stop stop-color="#EC0992"/>
<stop offset="1" stop-color="#0877FC"/>
</linearGradient>
<linearGradient id="paint1_linear_11881_2027" x1="31.9065" y1="23.3578" x2="32.2321" y2="53.2021" gradientUnits="userSpaceOnUse">
<stop stop-color="#EC0992"/>
<stop offset="1" stop-color="#0877FC"/>
</linearGradient>
</defs>
</svg>
