<svg width="29" height="28" viewBox="0 0 29 28" fill="none" xmlns="http://www.w3.org/2000/svg">
<g id="Product Icons">
<path id="Vector" d="M24.6818 3H3.43182C2.91947 3 2.4281 3.20353 2.06582 3.56582C1.70353 3.9281 1.5 4.41947 1.5 4.93182V22.3182C1.5 22.8305 1.70353 23.3219 2.06582 23.6842C2.4281 24.0465 2.91947 24.25 3.43182 24.25H5.04851C5.23131 24.2501 5.41039 24.1982 5.56491 24.1006C5.71944 24.0029 5.84307 23.8634 5.92145 23.6982C6.39115 22.7066 7.13271 21.8686 8.05991 21.2819C8.9871 20.6951 10.0618 20.3836 11.1591 20.3836C12.2564 20.3836 13.3311 20.6951 14.2583 21.2819C15.1855 21.8686 15.927 22.7066 16.3967 23.6982C16.4751 23.8634 16.5987 24.0029 16.7533 24.1006C16.9078 24.1982 17.0869 24.2501 17.2697 24.25H24.6818C25.1942 24.25 25.6855 24.0465 26.0478 23.6842C26.4101 23.3219 26.6136 22.8305 26.6136 22.3182V4.93182C26.6136 4.41947 26.4101 3.9281 26.0478 3.56582C25.6855 3.20353 25.1942 3 24.6818 3ZM11.1591 18.4545C10.3949 18.4545 9.64794 18.2279 9.01257 17.8034C8.3772 17.3789 7.88199 16.7754 7.58956 16.0695C7.29713 15.3635 7.22061 14.5866 7.36969 13.8372C7.51877 13.0877 7.88675 12.3992 8.42709 11.8589C8.96743 11.3186 9.65586 10.9506 10.4053 10.8015C11.1548 10.6524 11.9317 10.7289 12.6376 11.0214C13.3436 11.3138 13.947 11.809 14.3716 12.4444C14.7961 13.0798 15.0227 13.8268 15.0227 14.5909C15.0227 15.6156 14.6157 16.5983 13.8911 17.3229C13.1665 18.0475 12.1838 18.4545 11.1591 18.4545ZM24.6818 22.3182H17.8516C17.4305 21.5921 16.8939 20.9396 16.2627 20.3864H21.7841C22.0403 20.3864 22.2859 20.2846 22.4671 20.1035C22.6482 19.9223 22.75 19.6766 22.75 19.4205V7.82955C22.75 7.57337 22.6482 7.32769 22.4671 7.14654C22.2859 6.9654 22.0403 6.86364 21.7841 6.86364H6.32955C6.07337 6.86364 5.82769 6.9654 5.64654 7.14654C5.4654 7.32769 5.36364 7.57337 5.36364 7.82955V19.4205C5.36353 19.6347 5.43464 19.8429 5.56578 20.0122C5.69692 20.1816 5.88065 20.3026 6.08807 20.3562C5.44237 20.9156 4.89437 21.5787 4.46655 22.3182H3.43182V4.93182H24.6818V22.3182Z" fill="white"/>
</g>
</svg>
