<svg width="20" height="20" viewBox="0 0 20 20" fill="none" xmlns="http://www.w3.org/2000/svg">
<path fill-rule="evenodd" clip-rule="evenodd" d="M4.55778 4.5583C4.67497 4.44126 4.83382 4.37552 4.99945 4.37552C5.16508 4.37552 5.32393 4.44126 5.44112 4.5583L9.99945 9.11663L14.5578 4.5583C14.615 4.49689 14.684 4.44764 14.7607 4.41348C14.8373 4.37932 14.9201 4.36095 15.004 4.35947C15.0879 4.35799 15.1713 4.37343 15.2491 4.40486C15.3269 4.4363 15.3976 4.48308 15.457 4.54243C15.5163 4.60178 15.5631 4.67248 15.5946 4.7503C15.626 4.82812 15.6414 4.91148 15.6399 4.9954C15.6385 5.07932 15.6201 5.16208 15.5859 5.23875C15.5518 5.31541 15.5025 5.38441 15.4411 5.44163L10.8828 9.99997L15.4411 14.5583C15.5025 14.6155 15.5518 14.6845 15.5859 14.7612C15.6201 14.8378 15.6385 14.9206 15.6399 15.0045C15.6414 15.0884 15.626 15.1718 15.5946 15.2496C15.5631 15.3275 15.5163 15.3981 15.457 15.4575C15.3976 15.5168 15.3269 15.5636 15.2491 15.5951C15.1713 15.6265 15.0879 15.6419 15.004 15.6405C14.9201 15.639 14.8373 15.6206 14.7607 15.5864C14.684 15.5523 14.615 15.503 14.5578 15.4416L9.99945 10.8833L5.44112 15.4416C5.32264 15.552 5.16593 15.6121 5.00401 15.6093C4.8421 15.6064 4.68761 15.5408 4.5731 15.4263C4.45859 15.3118 4.39299 15.1573 4.39014 14.9954C4.38728 14.8335 4.44738 14.6768 4.55778 14.5583L9.11612 9.99997L4.55778 5.44163C4.44074 5.32444 4.375 5.16559 4.375 4.99997C4.375 4.83434 4.44074 4.67549 4.55778 4.5583Z" fill="#F04438" fill-opacity="0.8"/>
<path d="M4.48712 4.48754L4.48703 4.48763C4.35126 4.62357 4.275 4.80784 4.275 4.99997C4.275 5.19209 4.35126 5.37636 4.48703 5.5123L4.48707 5.51234L8.97469 9.99997L4.48707 14.4876L4.48703 14.4875L4.48462 14.4901C4.35656 14.6276 4.28684 14.8093 4.29015 14.9972C4.29347 15.185 4.36956 15.3642 4.50239 15.497C4.63522 15.6299 4.81443 15.7059 5.00225 15.7093C5.19007 15.7126 5.37185 15.6429 5.50929 15.5148L5.50933 15.5148L5.51183 15.5123L9.99945 11.0247L14.4859 15.5112C14.552 15.5818 14.6316 15.6384 14.72 15.6778C14.8089 15.7174 14.9049 15.7387 15.0023 15.7404C15.0996 15.7422 15.1963 15.7243 15.2866 15.6878C15.3768 15.6513 15.4588 15.5971 15.5277 15.5282C15.5965 15.4594 15.6508 15.3774 15.6873 15.2871C15.7237 15.1968 15.7416 15.1001 15.7399 15.0028C15.7382 14.9054 15.7169 14.8094 15.6773 14.7205C15.6379 14.6321 15.5812 14.5525 15.5106 14.4864L11.0242 9.99997L15.5106 5.51354C15.5812 5.44741 15.6379 5.36782 15.6773 5.27945C15.7169 5.19051 15.7382 5.09451 15.7399 4.99717C15.7416 4.89982 15.7237 4.80312 15.6873 4.71285C15.6508 4.62257 15.5965 4.54057 15.5277 4.47172C15.4588 4.40288 15.3768 4.3486 15.2866 4.31214C15.1963 4.27568 15.0996 4.25777 15.0023 4.25949C14.9049 4.26121 14.8089 4.28251 14.72 4.32214C14.6316 4.36151 14.552 4.41818 14.4859 4.48878L9.99945 8.97521L5.51183 4.48759L5.51178 4.48754C5.37585 4.35177 5.19158 4.27552 4.99945 4.27552C4.80732 4.27552 4.62305 4.35177 4.48712 4.48754Z" stroke="#F04438" stroke-opacity="0.8" stroke-width="0.2"/>
</svg>
