<svg width="20" height="20" viewBox="0 0 20 20" fill="none" xmlns="http://www.w3.org/2000/svg">
<path fill-rule="evenodd" clip-rule="evenodd" d="M4.55778 4.55836C4.67497 4.44132 4.83382 4.37558 4.99945 4.37558C5.16508 4.37558 5.32393 4.44132 5.44112 4.55836L9.99945 9.11669L14.5578 4.55836C14.615 4.49695 14.684 4.4477 14.7607 4.41354C14.8373 4.37938 14.9201 4.36101 15.004 4.35953C15.0879 4.35805 15.1713 4.37349 15.2491 4.40492C15.3269 4.43636 15.3976 4.48315 15.457 4.54249C15.5163 4.60184 15.5631 4.67254 15.5946 4.75036C15.626 4.82818 15.6414 4.91154 15.6399 4.99546C15.6385 5.07938 15.6201 5.16214 15.5859 5.23881C15.5518 5.31547 15.5025 5.38447 15.4411 5.44169L10.8828 10L15.4411 14.5584C15.5025 14.6156 15.5518 14.6846 15.5859 14.7612C15.6201 14.8379 15.6385 14.9207 15.6399 15.0046C15.6414 15.0885 15.626 15.1719 15.5946 15.2497C15.5631 15.3275 15.5163 15.3982 15.457 15.4576C15.3976 15.5169 15.3269 15.5637 15.2491 15.5951C15.1713 15.6266 15.0879 15.642 15.004 15.6405C14.9201 15.639 14.8373 15.6207 14.7607 15.5865C14.684 15.5524 14.615 15.5031 14.5578 15.4417L9.99945 10.8834L5.44112 15.4417C5.32264 15.5521 5.16593 15.6122 5.00401 15.6093C4.8421 15.6065 4.68761 15.5409 4.5731 15.4264C4.45859 15.3119 4.39299 15.1574 4.39014 14.9955C4.38728 14.8335 4.44738 14.6768 4.55778 14.5584L9.11612 10L4.55778 5.44169C4.44074 5.32451 4.375 5.16565 4.375 5.00003C4.375 4.8344 4.44074 4.67555 4.55778 4.55836Z" fill="#FF0438" fill-opacity="0.8"/>
<path d="M4.38112 4.38147L4.3809 4.38169C4.21704 4.54576 4.125 4.76815 4.125 5.00003C4.125 5.2319 4.21704 5.4543 4.3809 5.61836L4.38101 5.61847L8.76256 10L4.38101 14.3816L4.3809 14.3815L4.37488 14.3879C4.22032 14.5538 4.13618 14.7732 4.14018 14.9999C4.14418 15.2266 4.23601 15.4428 4.39632 15.6032C4.55664 15.7635 4.77292 15.8553 4.9996 15.8593C5.22629 15.8633 5.44568 15.7792 5.61155 15.6246L5.61165 15.6247L5.61789 15.6185L9.99945 11.2369L14.3782 15.6156C14.4576 15.7 14.553 15.7677 14.6589 15.8149L14.7607 15.5865L14.6589 15.8149C14.7663 15.8627 14.8821 15.8884 14.9996 15.8905C15.1171 15.8926 15.2338 15.8709 15.3427 15.8269C15.4517 15.7829 15.5507 15.7174 15.6338 15.6343C15.7168 15.5512 15.7823 15.4523 15.8264 15.3433C15.8704 15.2344 15.892 15.1177 15.8899 15.0002C15.8878 14.8827 15.8621 14.7668 15.8143 14.6595C15.7671 14.5536 15.6994 14.4582 15.615 14.3787L11.2363 10L15.615 5.62132C15.6994 5.54186 15.7671 5.44643 15.8143 5.34056C15.8621 5.23322 15.8878 5.11736 15.8899 4.99987C15.892 4.88239 15.8704 4.76568 15.8264 4.65673C15.7823 4.54778 15.7168 4.44881 15.6338 4.36572C15.5507 4.28263 15.4517 4.21713 15.3427 4.17312C15.2338 4.12911 15.1171 4.1075 14.9996 4.10957C14.8821 4.11165 14.7663 4.13736 14.6589 4.18518C14.553 4.23236 14.4576 4.30009 14.3782 4.38443L9.99945 8.76314L5.61789 4.38158L5.61778 4.38147C5.45372 4.21761 5.23133 4.12558 4.99945 4.12558C4.76757 4.12558 4.54518 4.21761 4.38112 4.38147L4.38112 4.38147Z" stroke="#FF0438" stroke-opacity="0.8" stroke-width="0.5"/>
</svg>
