<?xml version="1.0" encoding="UTF-8"?>
<svg fill="none" viewBox="0 0 1016 448" xmlns="http://www.w3.org/2000/svg">
<g clip-path="url(#r)">
<path d="m645.09 169.18c-109.16-90.53-137.09-307.18-137.09-307.18s-27.93 216.79-137.09 307.18c-109.16 90.53-370.41 113.69-370.41 113.69s261.42 23.163 370.41 113.69c108.9 90.53 137.09 307.18 137.09 307.18s27.93-216.8 137.09-307.18c109.16-90.53 370.41-113.69 370.41-113.69s-261.42-23.163-370.41-113.69z" fill="url(#e)" fill-opacity=".45"/>
<path d="m508 700.17c-0.227-1.532-0.534-3.542-0.929-5.989-0.984-6.106-2.512-14.929-4.686-25.798-4.347-21.738-11.279-51.667-21.616-84.427-20.667-65.498-54.976-142.41-109.54-187.77l-0.319 0.385 0.319-0.385c-54.596-45.35-147.31-73.792-226.29-90.899-39.504-8.557-75.601-14.283-101.82-17.871-13.11-1.793-23.752-3.052-31.117-3.863-2.5067-0.276-4.6338-0.5-6.3495-0.675 1.714-0.176 3.8387-0.399 6.3423-0.675 7.3604-0.811 17.996-2.07 31.099-3.863 26.206-3.588 62.286-9.314 101.78-17.871 78.959-17.108 171.67-45.549 226.35-90.899 54.698-45.288 89.007-122.2 109.64-187.72 10.321-32.77 17.228-62.712 21.555-84.462 2.163-10.875 3.682-19.703 4.659-25.813 0.391-2.441 0.695-4.449 0.92-5.98 0.225 1.53 0.529 3.535 0.92 5.974 0.977 6.106 2.496 14.929 4.659 25.799 4.327 21.738 11.234 51.666 21.555 84.427 20.634 65.498 54.943 142.41 109.64 187.77 54.596 45.35 147.31 73.791 226.29 90.899 39.505 8.557 75.601 14.283 101.82 17.871 13.11 1.793 23.752 3.052 31.117 3.863 2.51 0.276 4.63 0.5 6.35 0.675-1.71 0.176-3.84 0.399-6.34 0.675-7.364 0.811-17.999 2.07-31.103 3.863-26.206 3.588-62.286 9.314-101.78 17.871-78.959 17.107-171.67 45.549-226.35 90.899-54.699 45.288-89.008 122.2-109.64 187.72-10.321 32.77-17.228 62.712-21.555 84.462-2.163 10.875-3.682 19.703-4.659 25.813-0.392 2.449-0.697 4.461-0.922 5.994z" stroke="url(#e)" stroke-opacity=".45"/>
<path d="m639.15 172.63c-105.14-87.194-132.04-295.86-132.04-295.86s-26.901 208.81-132.04 295.86c-105.14 87.195-356.76 109.5-356.76 109.5s251.79 22.309 356.76 109.5c104.89 87.195 132.04 295.86 132.04 295.86s26.902-208.81 132.04-295.86c105.14-87.195 356.76-109.5 356.76-109.5s-251.79-22.31-356.76-109.5z" fill="url(#g)" fill-opacity=".57"/>
<path d="m625.81 190.31c-94.264-78.174-118.38-265.25-118.38-265.25s-24.118 187.2-118.38 265.25c-94.263 78.173-319.85 98.174-319.85 98.174s225.74 20.001 319.85 98.174c94.036 78.174 118.38 265.25 118.38 265.25s24.118-187.2 118.38-265.25c94.263-78.173 319.85-98.174 319.85-98.174s-225.74-20.001-319.85-98.174z" fill="url(#c)" fill-opacity=".45"/>
<path d="m507.42 648.35c-0.188-1.257-0.431-2.838-0.734-4.716-0.85-5.273-2.17-12.893-4.047-22.28-3.754-18.772-9.74-44.618-18.668-72.91-17.847-56.561-47.477-122.99-94.611-162.17l-0.32 0.384 0.32-0.384c-47.158-39.172-127.23-63.734-195.43-78.506-34.115-7.39-65.286-12.335-87.928-15.433-11.322-1.549-20.512-2.636-26.872-3.336-1.8538-0.204-3.4673-0.375-4.823-0.515 1.3542-0.14 2.9656-0.311 4.8168-0.515 6.3563-0.7 15.541-1.787 26.856-3.336 22.631-3.098 53.788-8.043 87.893-15.433 68.181-14.772 148.25-39.334 195.48-78.505 47.248-39.12 76.879-105.55 94.698-162.13 8.913-28.3 14.877-54.158 18.614-72.94 1.868-9.3917 3.18-17.016 4.024-22.292 0.3-1.8733 0.541-3.4508 0.727-4.7067 0.186 1.2547 0.427 2.8305 0.727 4.7016 0.844 5.2736 2.156 12.893 4.024 22.28 3.736 18.773 9.701 44.619 18.614 72.911 17.819 56.561 47.449 122.99 94.697 162.18 47.158 39.171 127.23 63.733 195.43 78.505 34.115 7.39 65.286 12.335 87.928 15.433 11.322 1.549 20.511 2.636 26.871 3.336 1.854 0.204 3.468 0.375 4.823 0.515-1.354 0.14-2.965 0.311-4.816 0.515-6.357 0.7-15.541 1.787-26.857 3.336-22.63 3.098-53.787 8.043-87.892 15.433-68.181 14.772-148.25 39.334-195.48 78.505-47.249 39.12-76.879 105.55-94.698 162.13-8.913 28.3-14.878 54.157-18.614 72.94-1.868 9.392-3.18 17.016-4.024 22.293-0.301 1.88-0.543 3.462-0.729 4.72z" stroke="url(#b)" stroke-opacity=".45"/>
<path d="m625.81 190.31c-94.264-78.174-118.38-265.25-118.38-265.25s-24.118 187.2-118.38 265.25c-94.263 78.173-319.85 98.174-319.85 98.174s225.74 20.001 319.85 98.174c94.036 78.174 118.38 265.25 118.38 265.25s24.118-187.2 118.38-265.25c94.263-78.173 319.85-98.174 319.85-98.174s-225.74-20.001-319.85-98.174z" fill="url(#c)" fill-opacity=".45"/>
<path d="m507.42 648.35c-0.188-1.257-0.431-2.838-0.734-4.716-0.85-5.273-2.17-12.893-4.047-22.28-3.754-18.772-9.74-44.618-18.668-72.91-17.847-56.561-47.477-122.99-94.611-162.17l-0.32 0.384 0.32-0.384c-47.158-39.172-127.23-63.734-195.43-78.506-34.115-7.39-65.286-12.335-87.928-15.433-11.322-1.549-20.512-2.636-26.872-3.336-1.8538-0.204-3.4673-0.375-4.823-0.515 1.3542-0.14 2.9656-0.311 4.8168-0.515 6.3563-0.7 15.541-1.787 26.856-3.336 22.631-3.098 53.788-8.043 87.893-15.433 68.181-14.772 148.25-39.334 195.48-78.505 47.248-39.12 76.879-105.55 94.698-162.13 8.913-28.3 14.877-54.158 18.614-72.94 1.868-9.3917 3.18-17.016 4.024-22.292 0.3-1.8733 0.541-3.4508 0.727-4.7067 0.186 1.2547 0.427 2.8305 0.727 4.7016 0.844 5.2736 2.156 12.893 4.024 22.28 3.736 18.773 9.701 44.619 18.614 72.911 17.819 56.561 47.449 122.99 94.697 162.18 47.158 39.171 127.23 63.733 195.43 78.505 34.115 7.39 65.286 12.335 87.928 15.433 11.322 1.549 20.511 2.636 26.871 3.336 1.854 0.204 3.468 0.375 4.823 0.515-1.354 0.14-2.965 0.311-4.816 0.515-6.357 0.7-15.541 1.787-26.857 3.336-22.63 3.098-53.787 8.043-87.892 15.433-68.181 14.772-148.25 39.334-195.48 78.505-47.249 39.12-76.879 105.55-94.698 162.13-8.913 28.3-14.878 54.157-18.614 72.94-1.868 9.392-3.18 17.016-4.024 22.293-0.301 1.88-0.543 3.462-0.729 4.72z" stroke="url(#b)" stroke-opacity=".45"/>
<path d="m605.5 218.87c-78.097-64.767-98.078-219.76-98.078-219.76s-19.982 155.1-98.079 219.76c-78.097 64.766-264.99 81.337-264.99 81.337s196.65 14.941 282.15 72.941c77.908 64.767 80.923 228.16 80.923 228.16s19.981-155.1 98.078-219.76c78.097-64.766 264.99-81.337 264.99-81.337s-187.02-16.571-264.99-81.337z" fill="url(#a)" fill-opacity=".45"/>
<path d="m862.25 299.86c1.179 0.13 2.24 0.244 3.178 0.342-0.936 0.098-1.996 0.212-3.172 0.341-5.267 0.58-12.877 1.481-22.253 2.765-18.751 2.566-44.566 6.664-72.825 12.786-56.488 12.239-122.84 32.592-162 65.06-39.165 32.427-63.72 87.486-78.483 134.36-7.386 23.45-12.328 44.877-15.424 60.44-1.549 7.782-2.635 14.1-3.335 18.472-0.077 0.483-0.15 0.943-0.218 1.377-0.024-0.525-0.051-1.085-0.082-1.68-0.235-4.6-0.657-11.242-1.408-19.414-1.501-16.344-4.315-38.812-9.566-63.308-10.496-48.962-30.755-106.15-69.846-138.64l-0.019-0.016-0.02-0.013c-42.846-29.065-113.48-47.314-173.33-58.299-29.939-5.495-57.203-9.177-76.982-11.485-9.89-1.154-17.909-1.965-23.457-2.487-1.191-0.112-2.268-0.211-3.225-0.297 0.842-0.089 1.777-0.189 2.799-0.302 5.267-0.58 12.877-1.481 22.253-2.764 18.751-2.567 44.566-6.664 72.825-12.787 56.488-12.239 122.84-32.592 162-65.059 39.165-32.428 63.72-87.486 78.483-134.36 7.386-23.45 12.328-44.876 15.425-60.44 1.548-7.7821 2.634-14.099 3.334-18.472 0.205-1.2819 0.377-2.3967 0.518-3.3323 0.14 0.93458 0.312 2.048 0.517 3.3281 0.7 4.3701 1.786 10.684 3.335 18.462 3.096 15.556 8.038 36.972 15.424 60.415 14.763 46.864 39.318 101.92 78.483 134.4 39.088 32.468 105.44 52.821 161.95 65.06 28.266 6.123 54.094 10.22 72.854 12.787 9.381 1.283 16.995 2.184 22.265 2.764z" stroke="url(#a)" stroke-opacity=".45"/>
<path d="m601.25 221.34c-75.22-62.38-94.465-211.66-94.465-211.66s-19.246 149.38-94.466 211.66c-75.219 62.38-255.23 78.341-255.23 78.341s180.13 15.96 255.23 78.34c75.038 62.38 94.466 211.66 94.466 211.66s19.245-149.38 94.465-211.66c75.22-62.38 255.23-78.34 255.23-78.34s-180.13-15.961-255.23-78.341z" fill="url(#f)" fill-opacity=".58"/>
<path d="m588.85 243.2c-65.452-52.295-82.199-177.44-82.199-177.44s-16.746 125.23-82.198 177.44c-65.452 52.295-222.09 65.675-222.09 65.675s156.74 13.381 222.09 65.676c65.294 52.295 82.198 177.44 82.198 177.44s16.747-125.23 82.199-177.44c65.452-52.295 222.09-65.676 222.09-65.676s-156.74-13.38-222.09-65.675z" fill="url(#d)" fill-opacity=".45"/>
<path d="m207.56 308.88c0.534-0.055 1.107-0.115 1.718-0.179 4.415-0.469 10.793-1.196 18.651-2.233 15.716-2.072 37.354-5.381 61.039-10.325 47.341-9.882 102.97-26.318 135.8-52.547 32.845-26.2 53.432-70.68 65.807-108.54 6.191-18.94 10.334-36.244 12.93-48.814 1.298-6.2852 2.209-11.388 2.795-14.92 0.135-0.8129 0.253-1.5427 0.355-2.1846 0.101 0.641 0.219 1.3696 0.354 2.1812 0.586 3.5299 1.497 8.6292 2.795 14.911 2.596 12.563 6.739 29.86 12.93 48.794 12.375 37.846 32.962 82.326 65.807 108.57 32.775 26.229 88.403 42.665 135.76 52.547 23.691 4.944 45.339 8.253 61.063 10.325 7.862 1.037 14.244 1.764 18.661 2.233 0.613 0.065 1.188 0.125 1.723 0.18-0.534 0.055-1.107 0.115-1.718 0.179-4.415 0.469-10.793 1.196-18.651 2.233-15.716 2.072-37.354 5.381-61.039 10.325-47.341 9.882-102.97 26.318-135.8 52.547-32.845 26.2-53.432 70.68-65.807 108.54-6.191 18.939-10.334 36.244-12.93 48.814-1.298 6.285-2.209 11.387-2.795 14.919-0.136 0.818-0.255 1.552-0.357 2.197-0.102-0.644-0.222-1.377-0.358-2.194-0.591-3.53-1.508-8.629-2.812-14.911-2.607-12.563-6.765-29.86-12.966-48.793-12.395-37.846-32.982-82.325-65.747-108.57l-0.313 0.391 0.313-0.391c-32.776-26.229-88.404-42.665-135.76-52.547-23.692-4.944-45.339-8.253-61.063-10.325-7.862-1.037-14.244-1.764-18.662-2.233-0.612-0.065-1.187-0.125-1.722-0.18z" stroke="url(#p)" stroke-opacity=".45"/>
<path d="m588.85 243.2c-65.452-52.295-82.199-177.44-82.199-177.44s-16.746 125.23-82.198 177.44c-65.452 52.295-222.09 65.675-222.09 65.675s156.74 13.381 222.09 65.676c65.294 52.295 82.198 177.44 82.198 177.44s16.747-125.23 82.199-177.44c65.452-52.295 222.09-65.676 222.09-65.676s-156.74-13.38-222.09-65.675z" fill="url(#d)" fill-opacity=".45"/>
<path d="m207.56 308.88c0.534-0.055 1.107-0.115 1.718-0.179 4.415-0.469 10.793-1.196 18.651-2.233 15.716-2.072 37.354-5.381 61.039-10.325 47.341-9.882 102.97-26.318 135.8-52.547 32.845-26.2 53.432-70.68 65.807-108.54 6.191-18.94 10.334-36.244 12.93-48.814 1.298-6.2852 2.209-11.388 2.795-14.92 0.135-0.8129 0.253-1.5427 0.355-2.1846 0.101 0.641 0.219 1.3696 0.354 2.1812 0.586 3.5299 1.497 8.6292 2.795 14.911 2.596 12.563 6.739 29.86 12.93 48.794 12.375 37.846 32.962 82.326 65.807 108.57 32.775 26.229 88.403 42.665 135.76 52.547 23.691 4.944 45.339 8.253 61.063 10.325 7.862 1.037 14.244 1.764 18.661 2.233 0.613 0.065 1.188 0.125 1.723 0.18-0.534 0.055-1.107 0.115-1.718 0.179-4.415 0.469-10.793 1.196-18.651 2.233-15.716 2.072-37.354 5.381-61.039 10.325-47.341 9.882-102.97 26.318-135.8 52.547-32.845 26.2-53.432 70.68-65.807 108.54-6.191 18.939-10.334 36.244-12.93 48.814-1.298 6.285-2.209 11.387-2.795 14.919-0.136 0.818-0.255 1.552-0.357 2.197-0.102-0.644-0.222-1.377-0.358-2.194-0.591-3.53-1.508-8.629-2.812-14.911-2.607-12.563-6.765-29.86-12.966-48.793-12.395-37.846-32.982-82.325-65.747-108.57l-0.313 0.391 0.313-0.391c-32.776-26.229-88.404-42.665-135.76-52.547-23.692-4.944-45.339-8.253-61.063-10.325-7.862-1.037-14.244-1.764-18.662-2.233-0.612-0.065-1.187-0.125-1.722-0.18z" stroke="url(#o)" stroke-opacity=".45"/>
<path d="m571.63 270.34c-50.84-42.105-63.848-142.87-63.848-142.87s-13.008 100.83-63.848 142.87c-50.84 42.105-155.94 50.812-155.94 50.812s105.18 12.838 155.94 54.943c50.717 42.104 63.848 142.86 63.848 142.86s13.008-100.83 63.848-142.86c50.84-42.105 158.87-55.943 158.87-55.943s-108.11-7.707-158.87-49.812z" fill="url(#n)" fill-opacity=".45"/>
<path d="m725.71 320.23c0.131 0.012 0.259 0.025 0.385 0.037-0.133 0.02-0.27 0.04-0.409 0.061-3.057 0.461-7.48 1.167-12.946 2.146-10.931 1.957-26.037 5.005-42.733 9.37-33.372 8.726-73.181 22.733-98.691 43.859-25.537 21.115-41.534 56.95-51.148 87.432-4.81 15.252-8.029 29.188-10.045 39.31-1.009 5.062-1.716 9.171-2.172 12.016-0.06 0.373-0.116 0.725-0.167 1.054-0.052-0.328-0.107-0.679-0.167-1.052-0.459-2.843-1.172-6.95-2.185-12.009-2.026-10.117-5.256-24.046-10.074-39.294-9.629-30.473-25.626-66.307-51.1-87.456h-1e-3c-25.468-21.127-64.544-34.884-97.196-43.36-16.335-4.241-31.082-7.164-41.746-9.027-5.332-0.932-9.643-1.598-12.622-2.032-0.136-0.02-0.269-0.039-0.4-0.058 0.124-0.013 0.249-0.027 0.378-0.041 2.977-0.32 7.286-0.826 12.615-1.563 10.658-1.476 25.398-3.883 41.73-7.606 32.642-7.443 71.725-20.166 97.241-41.298 25.536-21.114 41.534-56.949 51.147-87.431 4.81-15.253 8.029-29.188 10.046-39.311 1.008-5.061 1.716-9.17 2.172-12.015 0.059-0.369 0.114-0.716 0.164-1.042 0.051 0.325 0.106 0.672 0.165 1.039 0.456 2.843 1.163 6.95 2.172 12.009 2.016 10.117 5.235 24.046 10.045 39.294 9.614 30.474 25.611 66.309 51.147 87.457 25.478 21.134 65.298 33.607 98.682 40.799 16.704 3.598 31.818 5.88 42.757 7.262 5.47 0.69 9.896 1.157 12.956 1.45z" stroke="url(#m)" stroke-opacity=".45"/>
<path d="m568.87 271.94c-48.967-40.554-61.496-137.6-61.496-137.6s-12.528 97.115-61.495 137.6c-48.968 40.553-165.88 47.205-165.88 47.205s114.61 23.947 163.5 64.5c48.849 40.554 63.873 127.76 63.873 127.76s18.66-91.267 67.627-131.76c48.967-40.553 160-60.5 160-60.5s-117.24-6.652-166.13-47.205z" fill="url(#l)" fill-opacity=".98"/>
<path d="m508.5 448c-0.552 0-1-0.448-1-1v-34c0-0.552 0.448-1 1-1s1 0.448 1 1v34c0 0.552-0.448 1-1 1z" fill="url(#k)"/>
<path d="m468.5 347c0-6.627 5.373-12 12-12h56c6.627 0 12 5.373 12 12v56c0 6.627-5.373 12-12 12h-56c-6.627 0-12-5.373-12-12v-56z" fill="url(#j)"/>
<path d="m469.5 348c0-6.627 5.373-12 12-12h54c6.627 0 12 5.373 12 12v51c0 6.627-5.373 12-12 12h-54c-6.627 0-12-5.373-12-12v-51z" fill="#fff"/>
<g filter="url(#q)">
<path d="m506 394c-0.896-17.737-14.707-21.724-21.5-21.5 7.316-0.523 21.858-5.554 21.5-21.5 0.373 6.793 5.196 20.604 21.5 21.5-15.408 0-20.753 14.333-21.5 21.5z" fill="url(#i)"/>
<path d="m523 398c-0.354-7.012-5.814-8.589-8.5-8.5 2.892-0.207 8.642-2.196 8.5-8.5 0.148 2.686 2.054 8.146 8.5 8.5-6.092 0-8.205 5.667-8.5 8.5z" fill="url(#h)"/>
</g>
</g>
<defs>
<filter id="q" x="482.5" y="351" width="49" height="47" color-interpolation-filters="sRGB" filterUnits="userSpaceOnUse">
<feFlood flood-opacity="0" result="BackgroundImageFix"/>
<feBlend in="SourceGraphic" in2="BackgroundImageFix" result="shape"/>
<feColorMatrix in="SourceAlpha" result="hardAlpha" values="0 0 0 0 0 0 0 0 0 0 0 0 0 0 0 0 0 0 127 0"/>
<feOffset dx="-2"/>
<feGaussianBlur stdDeviation="1"/>
<feComposite in2="hardAlpha" k2="-1" k3="1" operator="arithmetic"/>
<feColorMatrix values="0 0 0 0 1 0 0 0 0 1 0 0 0 0 1 0 0 0 0.25 0"/>
<feBlend in2="shape" result="effect1_innerShadow_9817_54713"/>
</filter>
<linearGradient id="e" x1="508" x2="508.45" y1="-138" y2="384.42" gradientUnits="userSpaceOnUse">
<stop stop-color="#F20790" offset=".275"/>
<stop stop-color="#0D77FB" offset=".625"/>
<stop stop-color="#EEECFA" stop-opacity="0" offset="1"/>
</linearGradient>
<linearGradient id="g" x1="507.1" x2="507.51" y1="-123.23" y2="406.15" gradientUnits="userSpaceOnUse">
<stop stop-color="#EFE1F5" offset="0"/>
<stop stop-color="#EFE1F5" stop-opacity="0" offset="1"/>
</linearGradient>
<linearGradient id="c" x1="507.2" x2="507.2" y1="-274.89" y2="-70.1" gradientUnits="userSpaceOnUse">
<stop stop-color="#F20790" offset=".275"/>
<stop stop-color="#0D77FB" offset=".78811"/>
<stop stop-color="#6BADFF" stop-opacity="0" offset="1"/>
</linearGradient>
<linearGradient id="b" x1="507.42" x2="507.81" y1="-74.942" y2="376.17" gradientUnits="userSpaceOnUse">
<stop stop-color="#F20790" offset=".275"/>
<stop stop-color="#0D77FB" offset=".625"/>
<stop stop-color="#EEECFA" stop-opacity="0" offset="1"/>
</linearGradient>
<linearGradient id="a" x1="507.42" x2="507.74" y1="-.89062" y2="372.86" gradientUnits="userSpaceOnUse">
<stop stop-color="#F20790" offset=".275"/>
<stop stop-color="#0D77FB" offset=".625"/>
<stop stop-color="#EEECFA" stop-opacity="0" offset="1"/>
</linearGradient>
<linearGradient id="f" x1="506.78" x2="506.5" y1="9.6733" y2="425.15" gradientUnits="userSpaceOnUse">
<stop stop-color="#EFE1F5" offset="0"/>
<stop stop-color="#EFE1F5" stop-opacity="0" offset="1"/>
</linearGradient>
<linearGradient id="d" x1="506.5" x2="506.5" y1="-68" y2="69" gradientUnits="userSpaceOnUse">
<stop stop-color="#F20790" offset=".275"/>
<stop stop-color="#0D77FB" offset=".78811"/>
<stop stop-color="#6BADFF" stop-opacity="0" offset="1"/>
</linearGradient>
<linearGradient id="p" x1="506.66" x2="506.91" y1="65.761" y2="367.54" gradientUnits="userSpaceOnUse">
<stop stop-color="#F20790" offset=".275"/>
<stop stop-color="#0D77FB" offset=".625"/>
<stop stop-color="#EEECFA" stop-opacity="0" offset="1"/>
</linearGradient>
<linearGradient id="o" x1="208" x2="483" y1="309" y2="318.5" gradientUnits="userSpaceOnUse">
<stop stop-color="#F20790" offset=".275"/>
<stop stop-color="#0D77FB" offset=".625"/>
<stop stop-color="#fff" stop-opacity="0" offset="1"/>
</linearGradient>
<linearGradient id="n" x1="507.78" x2="507.41" y1="127.47" y2="355.15" gradientUnits="userSpaceOnUse">
<stop stop-color="#F20790" offset=".275"/>
<stop stop-color="#0D77FB" offset=".625"/>
<stop stop-color="#EEECFA" stop-opacity="0" offset="1"/>
</linearGradient>
<linearGradient id="m" x1="507.78" x2="507.99" y1="127.47" y2="370.44" gradientUnits="userSpaceOnUse">
<stop stop-color="#F20790" offset=".275"/>
<stop stop-color="#0D77FB" offset=".625"/>
<stop stop-color="#EEECFA" stop-opacity="0" offset="1"/>
</linearGradient>
<linearGradient id="l" x1="507.37" x2="507.5" y1="134.34" y2="416" gradientUnits="userSpaceOnUse">
<stop stop-color="#F3E1F5" offset=".75385"/>
<stop stop-color="#F4E1F5" stop-opacity="0" offset="1"/>
</linearGradient>
<linearGradient id="k" x1="508.5" x2="508.5" y1="436.5" y2="338" gradientUnits="userSpaceOnUse">
<stop stop-color="#D7159E" stop-opacity="0" offset="0"/>
<stop stop-color="#D7159E" offset=".475"/>
<stop stop-color="#1F6CF2" offset="1"/>
</linearGradient>
<linearGradient id="j" x1="508.5" x2="508.5" y1="267" y2="330.5" gradientUnits="userSpaceOnUse">
<stop stop-color="#F20790" offset="0"/>
<stop stop-color="#0E78FC" offset=".60628"/>
<stop stop-color="#F20790" stop-opacity=".2" offset=".97968"/>
</linearGradient>
<linearGradient id="i" x1="506" x2="506.5" y1="351" y2="392" gradientUnits="userSpaceOnUse">
<stop stop-color="#F20790" offset=".26824"/>
<stop stop-color="#0D77FB" offset="1"/>
</linearGradient>
<linearGradient id="h" x1="523" x2="523.2" y1="381" y2="397.21" gradientUnits="userSpaceOnUse">
<stop stop-color="#F20790" offset=".26824"/>
<stop stop-color="#0D77FB" offset="1"/>
</linearGradient>
<clipPath id="r">
<rect transform="translate(.5 -138)" width="1015" height="586" fill="#fff"/>
</clipPath>
</defs>
</svg>
